<svg width="58" height="21" viewBox="0 0 58 21" fill="none" xmlns="http://www.w3.org/2000/svg">
<path d="M29.259 0.253405C23.329 0.363405 17.419 1.0934 12.489 2.5834C5.92899 4.2334 -5.221 10.8034 3.399 16.2234C12.969 20.8934 27.559 20.2234 40.679 18.5834C47.779 17.7934 64.239 13.0534 53.589 5.06341C47.209 0.973406 37.879 0.193406 29.579 0.243406H29.259V0.253405Z" fill="white"/>
<path d="M23.5189 20.0733C16.2289 20.0733 8.91893 19.2033 3.28893 16.4533C0.828933 14.9133 -0.251088 13.1733 0.0489124 11.2733C0.708912 7.14334 7.81894 3.50334 12.4189 2.34334C17.0789 0.933345 22.9089 0.123344 29.2489 0.00334444H29.5689C36.6289 -0.0466556 46.7889 0.413345 53.7189 4.86335C56.5689 7.00335 57.7389 9.08335 57.1989 11.0633C55.9389 15.6833 45.5389 18.2933 40.6989 18.8333C35.6389 19.4633 29.5789 20.0733 23.4989 20.0733H23.5189ZM29.2689 0.503344C22.9689 0.623344 17.1989 1.42335 12.5689 2.82335C7.90893 3.99335 1.15892 7.60334 0.558922 11.3433C0.288922 13.0233 1.29893 14.5933 3.53893 16.0133C13.6989 20.9733 29.5889 19.7133 40.6589 18.3333C45.3889 17.8033 55.5389 15.2933 56.7289 10.9233C57.2089 9.16334 56.1089 7.25334 53.4489 5.26334C46.6489 0.903345 36.5689 0.463346 29.5889 0.493346H29.2689V0.503344Z" fill="#141414"/>
</svg>
