<svg width="47" height="27" viewBox="0 0 47 27" fill="none" xmlns="http://www.w3.org/2000/svg">
<path d="M46.7391 16.6101C46.2691 9.93014 38.5391 -1.72986 20.3091 0.530143C6.58912 2.23014 -0.490876 12.1001 0.309124 18.7701C0.449124 19.9001 1.18912 21.5901 1.91912 22.4301C3.76912 24.5901 6.74912 25.2001 9.51912 25.4901C18.9791 26.4801 27.2791 26.6001 37.9191 23.9401C39.7591 23.4801 41.7291 22.9901 43.3391 21.9401C44.9491 20.8901 46.8891 18.6301 46.7491 16.6001L46.7391 16.6101Z" fill="white"/>
<path d="M20.3991 26.3901C16.7891 26.3901 13.2191 26.1401 9.48914 25.7501C6.73914 25.4601 3.66914 24.8601 1.72914 22.6001C0.959136 21.7101 0.199136 19.9701 0.0591363 18.8001C-0.710864 12.3501 6.03914 2.05011 20.2791 0.290111C30.5591 -0.989889 36.9191 2.21011 40.4491 5.11011C44.9391 8.80011 46.7691 13.4601 46.9891 16.5901C47.1291 18.6201 45.2791 20.9701 43.4691 22.1501C41.8291 23.2201 39.8791 23.7001 37.9991 24.1801C31.5591 25.7901 25.9291 26.3901 20.3991 26.3901ZM24.7891 0.500111C23.3991 0.500111 21.9191 0.590111 20.3391 0.780111C6.41914 2.51011 -0.190864 12.4901 0.559136 18.7401C0.689136 19.8001 1.40914 21.4501 2.10914 22.2701C3.92914 24.4001 6.88914 24.9701 9.53914 25.2501C19.1691 26.2601 27.2691 26.3501 37.8491 23.7101C39.7191 23.2401 41.6191 22.7701 43.1891 21.7501C44.6391 20.8101 46.6191 18.6001 46.4791 16.6401C46.2691 13.6101 44.4791 9.10011 40.1191 5.51011C37.2091 3.11011 32.3091 0.510112 24.7791 0.510112L24.7891 0.500111Z" fill="#141414"/>
</svg>
