<svg width="83" height="83" viewBox="0 0 83 83" fill="none" xmlns="http://www.w3.org/2000/svg">
<g opacity="0.85">
<g opacity="0.85">
<path d="M129.6 89.9099C129.63 90.3299 129.53 91.0099 129.44 91.7499C128.4 92.3799 126.99 93.3899 125.6 94.4599C126.24 95.8399 126.69 97.2599 127.19 98.7599C127.01 100.37 126.66 102.12 126.34 103.71C130.17 102.12 131.45 101.12 134.44 100.94C134.62 101.93 134.71 103.02 134.73 104.15C132.67 105.7 130.25 107.67 127.66 109.77C126.31 110.86 124.82 112.07 123.48 113.16C122.58 113.14 121.9 113.09 121.17 112.94C119.38 115.56 117.26 118.41 114.91 121.32C113.91 122.05 113 122.74 111.9 123.51C110.1 124.23 108.43 124.96 106.14 126.03C106.3 126.58 106.02 127.11 105.49 127.63C105.22 127.89 104.89 128.15 104.53 128.41C104.13 128.68 103.64 128.97 103.16 129.25C102.12 129.84 101.03 130.46 100.04 131.02C98.9001 131.68 98.1001 132.27 97.2801 133.03C96.4101 133.41 95.5501 133.75 94.7001 134.07C94.2601 134.23 93.8301 134.38 93.4001 134.54C92.8801 134.71 92.3601 134.88 91.8401 135.04C90.8101 135.36 89.8001 135.64 88.8101 135.88C87.6801 136.16 86.3201 136.44 85.1201 136.64C84.5101 136.74 83.9001 136.83 83.3001 136.92L82.3801 137.04L81.2301 137.16C79.7101 137.3 78.2101 137.37 76.7701 137.38C75.4901 137.41 73.5401 137.31 71.8501 137.13C70.1301 136.95 68.4601 136.69 66.8801 136.36C63.1801 135.5 59.7701 134.32 56.7301 132.8C55.1901 132.02 53.7301 131.18 52.3601 130.3C51.0201 129.44 49.6301 128.48 48.6701 127.67C46.5801 125.98 44.7201 124.25 43.0601 122.58C41.0201 120.46 38.7301 117.35 37.4101 115.4C37.0401 114.39 36.5901 113.17 36.1301 111.75C36.0201 111.39 35.9001 111.03 35.7801 110.66C35.6601 110.28 35.5401 109.86 35.4901 109.63C35.3601 109.06 35.2301 108.47 35.0901 107.85C34.4701 105.08 34.3001 103.1 34.1101 100.86C33.8601 96.7999 34.0701 93.7899 34.2001 91.0699C33.7901 90.4199 33.5301 89.8199 33.3801 89.3099C33.2401 88.8299 33.2201 88.4099 33.2701 88.0299C33.3701 87.2499 33.7701 86.6499 34.1701 86.0999C34.9801 84.9499 35.8001 83.8699 34.3501 81.5899C35.2301 81.2799 36.0701 79.1499 36.5801 76.9899C37.0901 74.7999 37.2701 72.5399 36.7201 71.4499C38.2301 66.4999 39.7501 61.3399 41.1301 56.2499C41.8101 53.7199 42.4801 51.1599 43.0001 48.9099L43.3301 47.4599L43.6301 45.9299C43.9101 44.4699 44.1801 43.0199 44.4601 41.5899C45.0801 38.4499 46.2101 34.4199 47.5601 30.8599C48.9201 27.2599 50.4801 24.2299 52.1201 22.5699C52.2601 20.9499 50.9801 21.3699 50.4001 20.6599C50.9801 19.8199 51.2701 17.4999 52.0201 18.0899C52.8001 17.9899 53.0601 17.0199 53.3301 16.3199C53.3401 15.3099 52.6701 15.1499 52.1501 14.8799C56.5101 9.31993 56.1301 4.16993 55.6501 0.679932L103.75 23.0399C102.29 24.5599 100.76 26.0399 98.9401 27.4499C98.0301 28.1299 97.0401 28.8199 95.9501 29.4199C95.5601 29.5899 94.4601 30.3799 93.4901 31.0399C92.4901 31.6999 91.5001 32.3699 90.4701 32.9899C91.8201 35.2099 85.2201 38.6299 85.9901 41.5999C80.3201 47.6099 74.5801 53.2599 69.1001 58.7399C62.0301 66.2499 53.6801 72.2699 46.3701 78.4599C43.3801 79.5599 40.8801 82.6799 39.9001 85.2299C34.9301 89.0799 29.8201 94.3199 24.9701 98.1899C23.3001 98.8099 21.9701 99.2899 20.4001 100.49C18.8101 101.77 17.1201 103.28 14.6601 106.02C13.2501 106.75 11.7801 107.55 10.4001 108.21C9.06012 108.79 7.69012 109.47 6.51012 109.91C5.51012 110.02 4.59012 110.22 3.79012 110.44C3.01012 110.62 2.33012 110.88 1.75012 111.21C0.580118 111.89 -0.159882 112.8 -0.409882 114.13L-1.68988 114.48C-2.78988 114.89 -3.86988 115.29 -4.94988 115.69C-6.02988 116.12 -7.07988 116.5 -8.11988 116.86C-8.72988 117.15 -9.58988 117.65 -10.2799 117.97C-11.5399 118.05 -12.6899 118 -13.7499 118.14C-14.5699 117.32 -16.5899 120.29 -17.5699 121.26L-22.5099 122.64C-24.2299 122.24 -25.9499 124.47 -26.7199 124.38C-30.1799 125.23 -34.4599 126.09 -39.9999 126.46C-40.8899 126.79 -41.7099 127.05 -42.4799 127.24C-42.9399 127.41 -43.0699 127.28 -43.2599 127.2C-43.4399 127.12 -43.6199 127.03 -43.7899 126.93C-44.5099 126.55 -44.9099 126 -45.3599 125.43C-45.1799 124.86 -44.9299 124.38 -44.7399 123.81C-44.9899 123.33 -45.1699 122.94 -45.3999 122.45C-46.3699 122.2 -46.9699 121.71 -47.5699 121.49C-47.6199 120.96 -47.7099 120.53 -47.8799 120.31C-47.7099 119.6 -47.4999 118.71 -47.2899 117.82C-46.9799 117.07 -46.6799 116.36 -46.2699 115.39C-45.8599 113.81 -45.3299 112.17 -44.8699 110.66C-44.5999 109.46 -44.3999 108.54 -44.1599 107.47C-44.2499 107.12 -44.3399 106.77 -44.5599 106.59C-43.9299 105.51 -43.3599 104.53 -42.7999 103.56C-42.3999 102.24 -42.2299 101.4 -42.0199 100.4C-41.4799 98.8699 -41.0599 97.6799 -40.5799 96.3199C-40.8299 95.9399 -41.0399 95.4899 -41.3399 95.0599C-40.9799 92.9599 -39.5099 89.7999 -36.6799 85.6299C-36.9299 84.8799 -37.1999 84.0999 -37.3299 83.1499C-37.0899 82.3499 -36.8999 81.7499 -36.7199 81.1499C-36.9499 79.4299 -36.9899 77.3899 -37.3099 75.4699C-35.9399 70.4199 -37.0899 67.7699 -33.4899 59.7699C-33.9699 59.1699 -34.3899 58.4199 -34.9199 57.9799C-34.6299 56.8199 -34.4299 55.8299 -34.2499 54.8799C-33.9899 53.7999 -33.7299 52.7399 -33.4599 51.6099C-34.0199 51.3799 -33.9699 50.3599 -33.6199 48.9499C-33.5299 48.5899 -33.4299 48.2299 -33.2999 47.8199C-33.1199 47.3699 -32.9399 46.8999 -32.7499 46.4299C-32.3499 45.4599 -31.9299 44.4599 -31.5099 43.4499C-30.6399 41.4099 -29.8199 39.4099 -29.1799 37.6299C-28.4699 35.7899 -28.0499 34.2599 -28.1899 33.3199C-27.6099 32.0399 -27.0099 30.7499 -26.4199 29.4399C-25.8299 28.1399 -25.3599 26.9199 -24.8199 25.6599C-23.7999 23.1899 -22.7799 20.7199 -21.7899 18.3399C-20.5499 18.1399 -19.4399 17.9399 -18.1699 17.6599C-17.9299 18.4799 -17.6599 19.2499 -17.4999 20.0099L-19.2799 23.8299L-21.2599 27.8199C-24.6099 33.2799 -21.0999 30.9899 -22.0899 33.3899C-22.5999 35.3399 -23.1199 37.2899 -23.6399 39.2599C-24.0399 41.0499 -24.4399 42.8699 -24.8599 44.7199C-25.1899 45.6099 -25.5699 46.5899 -25.8299 47.3799C-26.0999 48.1799 -26.3699 48.9799 -26.6399 49.7799C-27.1699 51.3699 -27.6899 52.9699 -28.2399 54.6199C-28.3999 59.3699 -28.3499 63.1199 -28.7499 67.0799C-29.4399 69.1199 -30.0599 70.9599 -30.7499 72.9999C-31.3999 75.4899 -32.0999 78.1599 -32.8699 80.7499C-31.3799 78.4699 -29.8699 76.1899 -28.4199 74.1099C-27.0199 73.6599 -30.5999 81.1199 -26.3099 74.9199C-27.4399 78.5299 -29.7699 83.4599 -31.1699 87.0999C-32.5999 90.7399 -33.1399 93.1599 -31.4299 91.9799C-29.6699 91.0199 -30.4699 93.2499 -31.0299 95.2899C-31.8199 96.7399 -32.6599 98.3799 -33.3499 99.9099C-33.6399 100.44 -33.9099 100.92 -34.1699 101.39C-34.9699 102.87 -35.4899 103.99 -35.9699 105C-36.6799 107.63 -35.1599 105.76 -34.7099 106.11C-33.6299 105.36 -32.6799 104.87 -31.6599 104.51L-31.6099 105.78L-31.4099 107.04L-31.3099 107.67L-31.2599 107.98C-31.2599 108.09 -31.2399 108.21 -31.0899 108.15L-29.6999 108.02C-27.8399 107.86 -26.0799 107.46 -24.4099 106.98C-21.0599 105.99 -18.1099 104.53 -15.3999 102.89C-13.9999 103.48 -11.4599 99.7599 -9.65988 97.8799C-9.00988 97.4299 -8.23988 96.8999 -7.58988 96.4399C-6.59988 95.8599 -5.72988 95.4599 -4.85988 94.9899C-2.72988 94.5499 -1.73988 91.6899 -0.839882 91.2199C-0.309882 90.6299 0.210119 90.0299 0.770119 89.5499C2.00012 89.9099 3.34012 88.9099 4.42012 87.7299C5.52012 86.5599 6.43012 85.2399 6.97012 85.3299C7.41012 85.5499 7.86012 85.7599 8.36012 86.1299C9.11012 85.0899 9.77012 84.2499 10.4201 83.4099C10.9301 83.1199 11.3101 82.8999 11.6901 82.6899C15.1901 82.0499 15.1501 77.8999 17.3101 77.1099C17.7401 77.0099 18.2201 77.0599 18.7201 77.0899C20.1101 75.5899 21.4501 74.1899 22.7601 72.8499C22.9101 73.2899 23.5301 74.5499 23.5601 76.4299C23.8601 76.2299 24.0001 76.1399 24.2901 75.9499C26.1801 73.0599 28.7101 70.2299 31.2501 67.6599C33.7801 65.1099 36.3201 62.8499 38.1201 61.5099C40.9501 57.8399 45.5401 55.3399 49.3801 52.7799C52.2101 47.6599 55.8201 45.5999 58.7701 43.6399L66.7001 37.0299L74.9301 29.9999C75.0601 26.7399 78.3301 25.8099 78.4801 23.9699C79.6901 21.8199 85.1901 17.2499 86.6401 18.0499C87.0401 17.7599 87.4401 17.4599 87.9701 17.0699C89.4101 13.5099 90.2801 14.1299 92.4901 10.6199L92.9501 10.3299L72.2701 0.719933C71.7901 3.26993 71.1001 5.89993 70.2601 8.55993C69.3901 11.2499 68.3701 13.9699 67.2801 16.7099C67.0401 18.0399 68.5601 17.5699 67.7501 18.7899C67.5901 22.2299 65.4801 19.5999 64.5301 22.4499C66.1501 25.2899 62.8001 28.4599 64.2501 30.7899C60.0401 33.9599 61.0401 40.8699 58.0501 46.4699C56.4301 54.8399 54.2901 64.0899 52.7301 73.7199C51.9601 77.7399 50.0401 83.1599 48.0001 87.3299C47.8601 88.2499 47.6901 89.3799 47.5701 90.6599C47.4701 91.3499 47.3701 92.0299 47.2901 92.8399C47.2001 93.6099 47.1201 94.3899 47.0701 95.3299C46.9401 97.0199 46.9601 99.2599 47.3201 101.89C48.5601 103.34 49.7401 104.73 50.8201 106C51.0101 106.47 51.2001 106.93 51.4101 107.4L51.7301 108.09C51.8301 108.31 52.0501 108.7 52.2201 108.99C52.9201 110.22 53.8401 111.54 54.6501 112.52C56.0401 114.11 57.4401 115.57 59.2701 116.92C61.2001 118.26 63.3101 119.53 65.4901 120.26C66.5901 120.66 67.7201 121 68.8501 121.27C69.9801 121.54 70.8801 121.63 71.9301 121.75C72.9201 121.85 74.0101 121.92 74.9301 121.92C75.7501 121.9 76.5801 121.86 77.4001 121.79C78.1801 121.72 79.1401 121.62 79.7701 121.51C80.4201 121.39 81.0701 121.27 81.7101 121.12C82.3401 120.98 83.0501 120.81 83.5901 120.66L85.1301 120.18L86.6601 119.66L87.9501 119.16C91.4301 117.76 93.8201 116.42 96.0901 115.12C98.3501 113.81 100.23 112.57 102.05 111.34C104.7 108.28 106.9 106.36 109.28 104.55C111.63 102.75 114.08 101.08 116.69 98.7499C117.39 97.4399 117.38 95.9699 118.6 94.9799C119.4 94.3399 120.34 93.5999 121.14 92.9599C122.78 91.0099 124.15 89.6499 125.32 88.7999C126.44 87.9799 127.58 87.4499 128 87.7499C128.02 87.7499 128.06 87.7299 128.07 87.7499C128.12 87.8299 127.94 87.5999 127.81 87.4399L127.41 86.9299L126.62 85.8999C125.58 84.5199 124.59 83.0999 123.64 81.6499C122.64 80.0199 121.91 79.0999 121.2 77.9499C120.49 76.8199 119.85 75.6399 119.27 74.4199L111.63 70.8299C111.95 70.4899 112.23 70.2699 112.43 70.1299C112.63 69.9999 112.74 69.9599 112.73 69.9599C112.73 69.9599 112.19 70.1299 111.21 70.0299L91.6201 68.1299H91.6101H91.5801L91.5301 68.1499L91.4301 68.1699L91.2401 68.2099C91.1201 68.2299 91.0001 68.2399 90.8901 68.2299C90.6701 68.2299 90.4901 68.1799 90.3301 68.0999L90.2201 68.0299L90.1701 67.9899L90.1401 67.9699L111.25 70.0099L111.49 70.0299C111.67 70.0399 111.88 70.0399 112.07 70.0299C112.46 70.0299 112.78 69.9299 112.74 69.9399C112.71 69.9499 112.3 70.1299 111.65 70.7999L119.29 74.3899C120.04 75.9799 120.92 77.5199 121.92 78.9799L122.69 80.0699L123.62 81.5299C124.25 82.4999 124.9 83.4499 125.56 84.3799C126.23 85.3099 126.91 86.2199 127.61 87.1099C127.98 87.5899 128.27 87.8899 128.72 88.5399L129.74 89.9299H129.59L129.6 89.9099Z" fill="#BFBFBF"/>
<path d="M118.64 94.9399C117.42 95.9299 117.42 97.3999 116.73 98.7099C114.13 101.04 111.67 102.72 109.32 104.51C106.94 106.32 104.74 108.24 102.09 111.3C100.27 112.53 98.3901 113.77 96.1301 115.08C93.8601 116.38 91.4701 117.72 87.9901 119.12L86.7001 119.62L85.1701 120.14L83.6301 120.62C83.0801 120.78 82.3701 120.94 81.7501 121.08C81.1001 121.22 80.4601 121.35 79.8101 121.47C79.1801 121.59 78.2201 121.69 77.4401 121.75C76.6101 121.82 75.7901 121.86 74.9701 121.88C74.0401 121.88 72.9601 121.81 71.9701 121.71C70.9201 121.59 70.0201 121.49 68.8901 121.23C67.7601 120.96 66.6301 120.62 65.5301 120.22C63.3501 119.49 61.2401 118.22 59.3101 116.88C57.4801 115.53 56.0801 114.08 54.6901 112.48C53.8801 111.5 52.9701 110.17 52.2601 108.95C52.0901 108.66 51.8701 108.27 51.7701 108.05L51.4501 107.36C51.2401 106.9 51.0401 106.43 50.8601 105.96C49.7801 104.69 48.6001 103.3 47.3601 101.85C47.0001 99.2299 46.9901 96.9799 47.1101 95.2899C47.1501 94.3499 47.2401 93.5699 47.3301 92.7999C47.4101 91.9899 47.5201 91.3099 47.6101 90.6199C47.7301 89.3299 47.9001 88.2099 48.0401 87.2899C50.0701 83.1199 52.0001 77.6899 52.7701 73.6799C54.3401 64.0499 56.4801 54.7999 58.0901 46.4299C61.0801 40.8299 60.0801 33.9099 64.2901 30.7499C62.8401 28.4199 66.2001 25.2499 64.5701 22.4099C65.5201 19.5699 67.6301 22.1899 67.7901 18.7499C68.6001 17.5299 67.0901 17.9999 67.3201 16.6699C68.4101 13.9299 69.4301 11.2099 70.3001 8.51993C71.1401 5.84993 71.8301 3.22993 72.3101 0.679932L92.9901 10.2899L92.5301 10.5799C90.3201 14.0899 89.4601 13.4699 88.0101 17.0299C87.4801 17.4199 87.0801 17.7199 86.6801 18.0099C85.2301 17.2199 79.7301 21.7899 78.5201 23.9299C78.3701 25.7699 75.1001 26.6999 74.9701 29.9599L66.7401 36.9899L58.8101 43.5999C55.8601 45.5599 52.2501 47.6199 49.4201 52.7399C45.5801 55.2999 40.9901 57.7999 38.1601 61.4699C36.3601 62.8099 33.8201 65.0699 31.2901 67.6199C28.7501 70.1899 26.2201 73.0199 24.3301 75.9099C24.0401 76.0999 23.9001 76.1999 23.6001 76.3899C23.5701 74.5099 22.9601 73.2399 22.8001 72.8099C21.4801 74.1499 20.1501 75.5499 18.7601 77.0499C18.2601 77.0199 17.7801 76.9699 17.3501 77.0699C15.1901 77.8599 15.2201 82.0199 11.7301 82.6499C11.3501 82.8599 10.9701 83.0799 10.4601 83.3699C10.1801 83.9999 9.90009 84.6399 9.52009 85.4899L8.40009 86.0899C7.90009 85.7299 7.45009 85.5099 7.01009 85.2899C6.47009 85.2099 5.56009 86.5199 4.46009 87.6899C3.37009 88.8699 2.04009 89.8699 0.810089 89.5099C1.13009 88.2299 1.59009 86.9099 2.03009 85.5799C2.94009 84.1799 3.98009 82.5799 5.03009 81.0699C8.56009 78.9799 9.69009 77.0199 12.0801 74.9599C12.6501 75.9299 14.6601 73.7299 15.6801 73.3699C16.8001 72.7999 17.7301 72.5199 18.8001 72.1799C23.2201 67.4399 26.3201 64.5699 29.2401 62.0099C32.1501 59.4699 34.9001 57.1099 38.3001 53.5199C41.7201 52.3799 43.2501 49.4399 45.3501 45.8899C40.9501 47.1199 40.9401 49.8599 38.7701 51.5299C38.2901 51.2299 38.0101 50.6299 37.6201 50.0899C31.8601 57.0499 26.5701 59.8699 23.8901 59.9099C22.9201 61.1699 21.9801 62.3899 21.0601 63.5999C20.1201 64.7799 19.2001 65.9299 18.3001 67.0699C16.7501 68.6299 15.0801 70.2599 13.4201 72.0099C12.7801 71.4999 12.6701 69.6799 12.4901 68.2399C10.1501 67.5699 8.77009 68.4599 8.20009 67.8399C6.42009 70.0999 4.77009 72.2099 3.12009 74.3099C1.83009 74.7399 0.610088 75.0199 -0.909912 75.4299C1.01009 71.8399 3.10009 67.9399 5.01009 64.3699C5.58009 64.1499 6.14009 63.8899 6.70009 63.6099C6.19009 66.5599 6.94009 66.0999 7.90009 64.9299C8.87009 63.7399 10.0801 61.7799 10.8401 61.1899C10.4901 62.2399 10.3001 62.9999 10.1901 63.6799C11.3501 62.3099 12.6201 60.7999 13.8101 59.3899C14.5601 60.4499 15.5901 61.1299 16.6601 61.8699C20.9701 53.6699 21.8601 54.1699 22.8701 53.3399C22.5101 55.3099 23.3601 54.4899 24.4401 53.1199C25.5201 51.7399 26.8101 49.8399 27.5501 49.4699C28.5301 47.7199 30.1401 46.3199 31.4101 44.2099C32.0901 43.7699 32.6701 43.3899 33.3601 42.9499C33.4601 42.8799 33.6601 42.7499 33.7601 42.6799C33.4401 43.7999 33.1201 44.9099 32.8001 46.0199C33.8801 45.4799 35.0401 45.0399 36.1401 44.6299C38.0901 41.5199 38.9201 40.9599 40.3601 39.9399C41.1001 37.6999 41.7601 35.6899 42.4101 33.5399C43.0301 33.1099 43.7501 32.6199 44.3701 32.1899C44.8101 32.3899 45.2601 32.5799 45.7101 32.9299C46.8701 30.9299 48.0501 29.1099 49.1901 27.3199C49.5001 27.2599 49.8001 27.3699 50.1101 27.3199L51.7601 26.1299C52.1501 27.4699 52.6801 28.6999 53.2501 29.7199C54.0801 27.0599 55.4801 25.8799 57.0201 24.6299C58.5401 23.3999 60.2201 22.0799 61.0901 19.7499C64.8501 18.4699 65.7801 17.2299 66.5401 16.1699C67.1501 16.1399 67.6501 16.1999 68.1901 16.3799C68.0101 17.4399 67.8101 18.5299 67.4801 19.8899C67.8401 20.0599 68.2201 20.2199 68.4501 20.4999C70.0301 19.2099 71.7501 17.7999 73.3201 16.5099C71.6701 19.8299 70.0201 22.1699 68.6101 21.1499C67.5201 22.3099 66.4501 23.4499 65.3601 24.6199C62.1101 28.7899 58.3301 31.9999 54.9801 34.9899C51.5901 38.0099 48.5901 40.8699 46.0401 45.4199C48.8301 44.5799 50.4101 44.1499 51.2701 42.0399C57.0601 37.8699 63.5901 31.3299 70.4501 24.8599C73.8901 21.6099 77.4701 18.3399 81.3001 15.3399C84.4801 12.9799 87.7801 10.9799 91.2001 9.57993C91.3601 9.27993 91.5101 8.97993 91.6701 8.68993L74.5001 0.70993C74.9101 1.79993 75.3501 2.87993 75.7401 4.03993C74.6501 11.3199 70.2801 19.3499 69.7301 26.1499C69.3901 25.7499 68.9001 26.0599 68.5101 26.4199C66.8801 29.6299 69.5801 31.2699 69.1501 33.6599C68.2701 34.9799 67.3201 36.4599 66.3801 37.9799C62.9501 38.2299 65.5201 43.5499 63.9601 46.4899C63.2801 47.7799 62.6201 49.2999 62.0101 50.5999C61.4801 51.5099 60.8501 52.8299 60.2801 53.9599C59.3201 57.7499 57.5401 65.4299 60.1501 68.4199C60.1501 69.2199 60.1901 69.8599 60.1401 70.4399C58.9801 75.9499 57.7501 81.5999 57.0501 87.7799C55.8501 87.2599 54.5301 86.6999 53.3301 86.1799C52.1601 87.4499 52.1901 90.8999 51.8501 93.7699C51.8001 95.1499 51.8001 96.3199 51.9301 98.0499C52.4701 98.9499 53.0001 99.9999 53.4201 100.49C53.6201 101.44 53.8501 102.38 54.1801 103.43C54.4101 104.07 54.6601 104.71 54.9401 105.34L55.3701 106.28C55.5901 106.69 55.8401 107.13 56.1001 107.54C56.6001 108.35 57.2201 109.23 57.7501 109.88C58.2101 110.42 58.6901 110.94 59.2001 111.45C60.2001 112.46 61.2401 113.4 62.6501 114.28C64.0001 115.14 65.4201 115.93 66.8901 116.42C68.3201 116.93 70.0301 117.43 71.3001 117.56C71.9801 117.65 72.6701 117.72 73.3601 117.77C74.0401 117.82 74.7901 117.85 75.3001 117.82C76.4301 117.78 77.5601 117.68 78.6901 117.53C82.6901 115.89 81.2601 114.81 84.7701 112.96C86.7901 112.16 88.2301 111.44 89.7901 110.61C91.3301 111.1 93.1001 111.29 94.6001 111.72C95.9101 112.02 97.9301 110.04 99.4001 109.3C99.9601 106.97 103.54 104.66 104.6 102.08C106.1 100.91 107.46 99.8499 108.96 98.6699C110.13 98.9199 111.46 97.1199 112.64 96.3099C115.81 96.1199 116.9 94.5099 117.82 95.0999C118.02 95.0999 118.4 95.0799 118.73 94.9599L118.64 94.9399Z" fill="#A8A8A8"/>
<path d="M70.1 73.4999C67.15 70.0599 71.64 65.8599 70.27 62.3699C70.96 61.7499 71.76 61.1899 72.56 60.6299C73.17 60.9599 73.9 61.3499 74.52 61.6799C74.64 63.7399 74.77 65.7299 74.88 67.5599C73.44 69.7299 72.08 71.7599 70.64 73.7599C70.53 73.7099 70.32 73.5999 70.11 73.4999H70.1Z" fill="#BFBFBF"/>
<path d="M79.5 32.98C80.51 31.97 81.53 30.95 82.44 29.87C83.77 28.01 82.88 26.47 83.35 24.51C83.32 22.89 83.28 21.26 83.24 19.63C82.68 19.12 82.17 18.46 81.51 17.91C82.29 16.36 82.99 14.78 83.56 13.31C84.59 13.04 85.58 12.92 86.57 12.81C88.2 9.64003 88.49 7.34003 88.37 5.51003C88.29 3.69003 87.68 2.30003 87.52 0.700027L86.91 -5.45997L83.13 -1.34997C83.03 -1.23997 82.92 -1.11997 82.81 -0.999969C82.36 -0.699969 81.91 -0.399969 81.32 3.05176e-05C79.19 1.31003 77.03 2.57003 74.82 4.08003C74.02 4.82003 73.08 5.82003 72.34 6.54003C71.17 7.70003 70.15 8.77003 68.96 9.84003C68.6 10.12 68.23 10.4 67.86 10.69C66.67 11.62 65.48 12.55 64.4 13.38C63.94 13.74 63.59 14.01 63.24 14.28C62.02 15.49 60.83 16.68 59.61 17.89C59.16 18.24 58.82 18.5 58.49 18.76C56.54 20.74 54.7 22.63 52.72 24.73C52.39 25.13 52.05 25.7 51.72 26.11L50.07 27.3C49.75 27.36 49.45 27.25 49.15 27.3C46.97 27.7 44.65 28.22 44.33 32.18C43.71 32.61 42.99 33.1 42.37 33.53C41.49 33.96 40.56 34.24 39.68 34.47C37.6 38.65 35.5 40.24 33.71 42.67C33.61 42.74 33.41 42.87 33.31 42.94C32.63 43.38 32.04 43.76 31.36 44.2C30.87 43.77 30.5 43.08 30.17 42.34C29.38 42.81 28.52 43.32 27.73 43.79C25.92 47.75 23.06 50.64 25.3 45.18C22.71 49.23 22.08 48.59 21.64 48.19C21.06 48.7 20.28 49.52 19.57 50.32C16.96 55.5 16.46 54.27 14.91 56.82C13.86 57.39 12.97 57.95 12.04 58.51C12.18 57.57 12.14 56.96 12.19 56.27C9.30003 61.66 7.69003 62.61 8.75003 60.42C9.68003 58.09 10.76 55.68 10.32 57.3C8.98003 57.98 8.46003 57.62 6.47003 61.47C5.02003 62.79 3.49003 64.04 1.80003 65.19C1.30003 64.91 0.930029 64.27 0.350029 63.82C-0.459971 65.17 -1.47997 66.85 -2.48997 68.52C-2.87997 68.45 -3.27997 68.38 -3.68997 68.31C-4.09997 68.18 -4.51997 68.04 -4.90997 67.92C-5.13997 67.61 -5.35997 67.31 -5.57997 67.01L-5.90997 66.57L-5.60997 65.37C-5.24997 63.78 -4.77997 62.22 -4.21997 60.56L-7.21997 64.97C-6.42997 62.19 -5.52997 59.48 -4.45997 56.87L-3.92997 55.54C-6.75997 58.98 -4.34997 54.5 -3.91997 53.34C-1.39997 49.4 1.54003 45.09 -0.209969 46.43C0.180031 45.46 0.850029 44.08 1.26003 43.12C2.90003 40.05 4.46003 37.14 6.02003 34.22C4.29003 36.15 6.24003 32.55 5.22003 33.08C6.66003 30.51 8.06003 28.03 9.58003 25.5C12.05 20.07 11.54 19.27 12.98 14.79C15.08 11.33 15.16 10.32 15.97 9.86003C17.8 9.14003 16.3 11.67 17.61 10.71C17.19 11.81 16.7 13.04 16.13 14.29C17.36 13.13 16.62 14.5 16.12 15.59C15.62 16.67 15.38 17.41 17.77 14.58C16.63 16.4 15.48 18.23 14.44 19.88C13.95 21.44 13.09 23.77 12.16 25.92C11.24 28.06 10.38 30.07 10.41 30.81C9.30003 32.76 8.19003 34.71 7.08003 36.66C7.00003 37.02 5.17003 40.04 6.60003 38.16C6.67003 38.52 6.05003 40.25 4.18003 43.94C3.25003 45.74 2.03003 48 0.400032 50.76L-0.149971 52.27C2.01003 50.65 0.580031 53.94 2.02003 52.39C3.63003 49.67 4.12003 49.36 4.23003 49.79C4.20003 49.97 4.41003 49.88 4.55003 49.88C4.70003 49.88 4.83003 49.88 4.97003 49.89C5.24003 49.9 5.51003 49.94 5.80003 49.77C7.85003 48.64 4.83003 52.91 3.76003 56.97C9.08003 49.89 9.62003 51.3 12.6 46.37C12.38 49.29 14.35 47.65 16.37 45.53C18.44 43.38 20.58 40.75 21.98 40.66C21.61 41.95 21.31 43.2 20.57 45.52C21.61 44.17 22.74 42.55 23.84 40.97C24.74 39.58 25.74 38.04 26.59 36.72C26.46 40.16 28.56 36.78 30.19 33.96C31.89 31.07 33.15 28.69 33.07 32.5C33.65 31.81 33.92 32.78 34.82 30.6C35.51 27.01 36.27 27.19 37.07 26.75C36.68 28.26 35.73 31.21 36.75 30.43C37.93 31 39.97 25.11 40.87 23.73C41.97 23.07 43.15 22.37 44.26 21.72C47.4 19.96 50.8 18.13 54.45 15.81C55.01 15.25 55.62 15.11 55.81 14.04C54.98 11.99 56.26 11.39 57.29 10.65C57.23 11.47 57.65 11.47 58.01 11.66C59.57 9.89003 59.72 8.43003 61.9 7.29003C62.41 8.86003 63.44 7.35003 64.17 8.59003C65.02 7.32003 65.92 6.20003 66.9 5.14003C67.39 4.62003 67.89 4.10003 68.41 3.61003L70.3 1.89003C73.2 -0.66997 76.37 -3.07997 79.63 -5.51997L94.1 -16.37L93 0.690033C92.76 4.35003 92.36 7.95003 92.07 11.56C94.01 8.76003 95.52 4.93003 96.23 0.690033L99.82 -20.96L77.55 -7.98997C73.23 -5.46997 69.49 -2.17997 67.28 0.680031C65.87 2.52003 65.68 0.540031 64.29 1.50003C63.16 3.63003 61.14 5.17003 59.23 6.46003C57.29 7.78003 55.46 8.86003 54 10.78C52.61 12.27 50.74 13.7 49.01 15.11C47.27 16.53 45.68 17.97 44.53 19.84C43.9 19.71 43.24 19.57 42.62 19.38C42.74 17.56 42.87 15.75 42.98 14.09C43.9 12.95 44.71 12.04 45.57 11.1C46.12 7.79003 47.42 9.19003 48.4 8.17003C49.44 7.63003 50.51 7.03003 51.63 6.37003C52.1 5.00003 52.3 3.21003 52.9 2.56003C54.04 2.50003 55.26 2.20003 56.57 1.80003C58.17 -0.0999664 60.07 -1.52997 62.21 -3.01997C62.5 -3.22997 62.69 -3.32997 63.12 -3.67997L64.58 -4.84997L67.52 -7.19997C69.51 -8.79997 71.47 -10.38 73.42 -11.95C73.61 -12.08 73.79 -12.2 73.92 -12.29L105.59 -33.72L101.85 0.690033C100.97 8.75003 100.35 12.73 99.92 16.63C98.62 20.85 97.04 24.72 95.37 28.61C94.87 28.31 94.46 28.07 93.96 27.77C93.95 26.07 93.94 24.36 93.93 22.66C91.89 20.45 91.48 25.9 90.4 27.75C90.34 27.92 90.21 28.26 90.15 28.43C87.3 32.74 86.64 34.36 86.06 35.85C85.28 37.41 84.51 38.95 83.8 40.35C82.87 40.2 82 39.89 81.07 39.74C80.07 39.15 79.06 38.55 78.16 38.01C78.63 36.25 79.05 34.69 79.52 32.93L79.5 32.98Z" fill="#848484"/>
<path d="M52.8701 2.60004C52.2701 3.25004 52.0801 5.04004 51.6001 6.41004C50.4801 7.07004 49.4101 7.67004 48.3701 8.21004C48.6701 6.11004 48.8301 4.27004 48.9501 2.48004C49.9201 1.73004 50.8601 1.12004 51.8801 0.290039C52.1901 1.03004 52.5401 1.89004 52.8701 2.60004Z" fill="#BFBFBF"/>
<path d="M-47.2899 117.8C-46.8899 113.45 -49.6799 115.86 -46.2999 108.76C-45.9499 107.49 -45.6699 106.2 -45.3899 104.9C-45.9199 104.47 -45.2899 102.12 -44.2599 98.8801C-43.1299 95.3001 -41.9299 91.5001 -40.8699 88.1701C-44.3099 91.3601 -44.3899 89.2901 -43.8599 86.2801C-43.5999 84.8201 -43.1899 83.0601 -43.0199 81.6701C-42.8499 80.2801 -42.9299 79.3101 -43.6799 79.1301C-43.1199 76.3201 -41.9299 73.5401 -40.5699 70.2701C-39.2199 67.0701 -37.9399 64.0701 -36.8099 60.2401C-37.1499 59.9801 -37.3899 59.5801 -37.5599 59.1001C-37.7299 58.6201 -37.8499 58.0701 -37.7699 57.2501C-37.6799 55.7301 -37.4399 54.0401 -37.3099 52.5701C-37.2799 51.2101 -36.9099 49.5801 -37.1399 48.7501C-37.3399 47.8901 -37.9599 47.6501 -39.2999 48.4301C-38.8199 47.2801 -38.3399 46.1501 -37.8799 45.0501C-37.4299 43.9601 -36.7899 42.7301 -36.2399 41.6001C-35.0999 39.3001 -33.8999 37.0401 -32.5699 34.7701C-32.8599 30.7201 -28.5099 22.0201 -26.0499 15.3201C-25.9299 14.5901 -25.8099 13.8601 -25.6799 13.1301L-25.4599 11.0201C-25.3099 9.60007 -25.1399 8.16007 -24.9399 6.71007C-24.5699 5.86007 -24.2199 5.03007 -23.8799 4.23007C-23.5899 3.46007 -23.3899 2.76007 -23.1699 2.05007C-22.7499 0.660072 -22.3899 -0.649933 -22.0899 -1.89993C-21.8199 -3.12993 -21.4499 -4.35993 -21.3699 -5.45993C-21.3299 -6.54993 -21.3199 -7.59993 -21.3199 -8.64993C-21.3199 -9.69993 -21.3199 -10.7299 -21.3299 -11.7799V-13.3599C-21.3799 -13.6099 -21.4399 -13.7699 -21.4799 -13.9799C-21.6699 -14.7699 -21.7999 -15.5999 -21.7699 -16.5499L11.6801 -0.839928C11.9301 0.210072 12.2701 1.29007 12.7101 2.36007C12.9201 2.86007 13.1701 3.39007 13.4501 3.93007C13.6001 4.19007 13.7501 4.46007 13.9001 4.74007C13.9801 4.86007 14.0601 5.00007 14.1501 5.23007C14.2401 5.44007 14.1701 5.32007 14.1901 5.38007C14.1601 5.52007 14.1001 5.61007 14.0801 5.73007C14.0701 5.79007 14.0701 5.86007 14.0801 5.95007C14.0801 6.07007 14.0701 6.28007 14.1201 6.48007C14.2001 6.89007 14.4401 7.39007 14.9101 8.08007C14.2101 8.02007 13.4001 8.81007 12.9501 9.46007C12.7101 9.80007 12.4801 10.4001 12.3201 10.9201C12.1501 11.5101 12.0101 12.0001 11.8901 12.8101C13.4701 13.1901 14.6201 12.9701 15.6401 12.7801C16.6401 12.7401 17.4301 13.1001 18.5701 14.4401C19.5301 16.1701 18.1501 16.5001 16.7901 16.9201C15.4201 17.5301 14.1301 18.1201 15.8901 20.1501C14.9801 20.6701 14.1401 22.3601 13.2601 21.8601C10.6701 23.5501 7.0001 22.0501 3.9101 24.2801C2.8001 25.0001 1.0201 26.6101 -0.0899048 25.0501C-0.569905 23.9701 -1.05991 22.7001 -1.51991 21.3801C-0.979905 20.4001 -0.409904 19.4301 0.180096 18.4801C1.1901 17.9301 2.30009 17.5101 3.42009 17.1601C3.46009 15.7101 4.3901 13.8601 3.6501 12.8801C4.7201 12.2301 5.3401 11.7801 5.7001 11.1701C6.0701 10.6001 6.1501 9.82007 6.1101 8.40007C6.1301 6.78007 6.2201 5.48007 6.3801 4.00007C8.2501 2.20007 10.1901 0.720067 11.2401 0.420067C11.3601 0.360067 11.4801 0.30007 11.6001 0.22007C11.7301 0.13007 11.7301 0.24007 11.7901 0.22007C11.8301 0.23007 11.8701 0.24007 11.9001 0.22007L11.9501 0.200066L11.6801 -0.839928L-16.3499 -17.4299L-16.2099 -15.0999L-16.1299 -13.9399L-16.2799 -11.3999C-14.8099 -7.91993 -16.7099 -0.579929 -17.2199 4.58007C-17.7599 5.80007 -18.5199 7.35007 -19.1799 8.92007C-19.9499 12.0801 -20.8899 15.1001 -21.7699 18.3201C-22.7599 20.7001 -23.7799 23.1701 -24.7999 25.6401C-25.3399 26.9001 -25.8099 28.1201 -26.3999 29.4201C-26.9999 30.7301 -27.5899 32.0301 -28.1699 33.3001C-28.0399 34.2401 -28.4499 35.7701 -29.1599 37.6101C-29.8099 39.3901 -30.6199 41.3901 -31.4899 43.4301C-31.9099 44.4401 -32.3299 45.4401 -32.7299 46.4101C-32.9199 46.8801 -33.0999 47.3501 -33.2799 47.8001C-33.4199 48.2101 -33.5099 48.5801 -33.5999 48.9301C-33.9499 50.3401 -33.9999 51.3601 -33.4399 51.5901C-33.7099 52.7201 -33.9699 53.7801 -34.2299 54.8601C-34.3999 55.8001 -34.6099 56.8001 -34.8999 57.9601C-34.3599 58.4001 -33.9399 59.1501 -33.4699 59.7501C-37.0699 67.7501 -35.9299 70.4001 -37.2899 75.4501C-36.9699 77.3701 -36.9299 79.4101 -36.6999 81.1301C-36.8799 81.7201 -37.0599 82.3201 -37.3099 83.1301C-37.1799 84.0901 -36.9199 84.8601 -36.6599 85.6101C-39.4899 89.7801 -40.9499 92.9401 -41.3199 95.0401C-41.0199 95.4701 -40.8099 95.9201 -40.5599 96.3001C-41.0399 97.6601 -41.4599 98.8501 -41.9999 100.38C-42.2099 101.38 -42.3799 102.22 -42.7799 103.54C-43.3499 104.51 -43.9199 105.49 -44.5399 106.57C-44.3199 106.75 -44.2299 107.1 -44.1399 107.45C-44.3799 108.52 -44.5899 109.44 -44.8499 110.64C-45.3099 112.15 -45.8399 113.8 -46.2499 115.37C-46.6599 116.34 -46.9599 117.06 -47.2699 117.8H-47.2899Z" fill="#D5D5D5"/>
<path d="M11.3699 12.7899C11.2499 12.8799 11.0099 13.0699 10.7699 13.2599C11.0099 12.4699 11.2799 11.5299 11.5199 10.7499C12.2499 9.09991 12.9099 7.30991 13.5699 5.70991L14.8599 2.23991C13.7999 2.67991 14.0899 1.66991 14.5099 0.399914C14.9499 -0.880086 15.5799 -2.36009 15.1899 -3.22009C14.6399 -3.05009 14.1999 -2.92009 13.6499 -2.75009C13.3599 -2.80009 13.1099 -3.02009 12.7599 -3.21009C12.9799 -3.27009 13.1999 -3.33009 13.3099 -3.35009C14.3399 -5.15009 15.1999 -6.87009 16.0099 -8.48009C16.2999 -9.60009 16.4399 -10.7001 16.6499 -11.7901C16.4499 -13.1301 14.8499 -12.7401 14.8399 -13.8801C14.8999 -14.4401 14.9699 -15.1501 15.0399 -15.8501C14.0299 -15.9601 12.8999 -16.1001 11.7699 -16.2701C10.8899 -17.8701 9.79994 -18.6901 10.1499 -20.1001C10.1499 -20.7201 10.1299 -21.2501 10.0999 -21.6801L9.73994 -27.3301L4.08994 -25.4101C-0.990057 -23.6801 3.55994 -23.2401 2.89994 -21.6301C3.30994 -21.1401 3.69994 -20.7701 3.90994 -20.2301C4.46994 -20.4501 5.01994 -20.6601 5.49994 -20.8501L5.39994 -20.9101C6.40994 -14.5401 7.18994 -9.82009 7.42994 -6.18009C7.03994 -5.28009 6.63994 -4.36009 6.34994 -3.44009C6.16994 -1.81009 5.93994 -0.0200877 5.67994 1.74991C5.96994 2.19991 6.39994 2.59991 6.78994 2.95991C5.98994 5.61991 5.25994 8.16992 4.33994 10.7299L3.16994 13.1599C2.75994 13.9899 2.16994 14.9399 1.66994 15.8399L-1.46006 21.4799C-2.30006 21.5199 -2.87006 21.0799 -3.56006 20.7099C-2.25006 18.4199 -2.95006 18.0599 -2.81006 16.1699C-2.29006 12.7499 -0.840057 8.74992 0.0899429 5.54992C0.529943 3.93992 0.879942 2.48991 0.979942 1.24991C1.03994 0.0199122 0.809941 -0.990089 0.259941 -1.79009C0.749941 -2.74009 1.10994 -3.63009 1.39994 -4.49009C1.61994 -5.34009 1.75994 -6.16009 1.84994 -6.97009C2.00994 -8.59009 2.02994 -10.1701 1.73994 -11.7401C1.62994 -12.5301 1.51994 -13.3201 1.40994 -14.1001C1.30994 -14.9001 1.22994 -15.7101 1.08994 -16.3101C0.859943 -17.6101 0.779943 -18.9001 1.01994 -20.2101L6.80994 -16.6201C5.83994 -16.5701 4.76994 -16.7801 3.46994 -17.2801C2.09994 -15.1801 1.01994 -13.1501 0.199944 -10.8901C1.12994 -10.6201 1.89994 -10.2501 2.80994 -9.83009C3.19994 -8.86009 3.64994 -7.79009 4.31994 -6.32009C4.85994 -6.44009 5.38994 -6.69009 5.86994 -6.72009L7.26994 -6.87009C8.20994 -7.11009 8.88994 -6.78009 9.53994 -6.74009C9.19994 -4.52009 7.78994 -4.66009 7.46994 -3.55009C7.08994 -3.36009 6.79994 -3.22009 6.51994 -3.08009C5.87994 -1.88009 5.13994 -0.170087 4.52994 1.21991C4.42994 1.27991 4.22994 1.44991 4.12994 1.52991C3.25994 1.97991 2.40994 2.40991 1.56994 2.83991C0.699942 3.28991 -0.150059 3.85991 -1.08006 4.37991C-1.18006 4.46991 -1.40006 4.65991 -1.50006 4.75991C-1.11006 6.13991 -1.35006 7.17991 -1.90006 8.04991C-2.44006 8.92991 -3.30006 9.61991 -3.93006 10.5599C-5.11006 12.0799 -6.12006 13.5799 -7.20006 15.2199C-7.22006 15.6099 -7.23006 16.0099 -7.24006 16.1999C-6.30006 16.4799 -5.35006 16.7699 -4.32006 16.9499C-3.12006 17.2899 -2.46006 14.5899 -1.39006 16.0299C-1.06006 16.3499 -0.640057 16.7499 -0.230057 17.1599C-0.150057 17.6199 -0.0700569 18.0699 0.179943 18.4899C-0.400057 19.4299 -0.980058 20.3999 -1.52006 21.3899C-3.09006 22.5699 -3.57006 21.0899 -4.43006 20.6999C-5.53006 20.6799 -6.07006 22.3199 -6.77006 23.1999C-9.39006 24.3799 -10.2901 25.5099 -10.6701 26.7299C-11.0901 27.9499 -11.1701 29.2699 -12.1101 30.9899C-13.9301 31.6799 -15.7601 32.3399 -17.5001 33.1299C-17.9501 31.9199 -18.4401 30.6699 -18.6901 29.2199C-19.5601 28.6499 -20.5201 28.0099 -21.5001 27.3699C-20.9501 26.2399 -20.3501 25.1199 -19.7001 24.0099C-20.4901 22.8299 -21.2601 21.6199 -22.0301 20.3799C-20.9601 18.8999 -19.7701 17.3499 -18.5801 15.9899C-18.4701 15.4299 -18.3601 14.8699 -18.0701 14.2399C-17.7001 13.9099 -17.2501 13.6599 -16.8001 13.4099C-14.2601 10.8999 -15.1001 9.19991 -16.1601 6.06991C-16.5401 3.87991 -14.0401 2.70992 -13.9501 0.159916C-14.4601 -0.480084 -14.8901 -1.03009 -15.3301 -1.58009C-16.3101 -2.56009 -17.3301 -3.32009 -18.2301 -4.22009C-19.0801 -3.28009 -19.8401 -2.48009 -20.6701 -1.52009C-21.5801 -1.51009 -22.6801 -1.43009 -23.7201 -1.26009C-25.0901 -0.900086 -26.8801 1.31991 -27.6101 3.74991C-27.7201 3.89991 -27.9401 4.19991 -28.0501 4.34991C-29.8101 3.81991 -31.5001 3.38991 -33.2001 2.98991C-34.3001 4.59991 -34.4001 1.42991 -36.1401 2.37991C-37.4301 4.37991 -38.7201 6.16991 -39.8101 8.07991C-39.9101 6.62991 -39.8601 5.28991 -39.9901 4.01991C-40.0401 2.83991 -40.2801 1.70991 -40.4301 0.679913C-42.0401 1.87991 -43.6501 2.83992 -45.2701 4.11992C-45.7001 0.729915 -43.6201 -2.17009 -43.6401 -4.44009C-42.7001 -5.58009 -41.7301 -6.77009 -40.7601 -7.95009C-39.7401 -9.12009 -38.7101 -10.2801 -37.7101 -11.3601C-36.9101 -10.3201 -36.1101 -9.28009 -35.2401 -8.14009C-34.2001 -9.44009 -33.1901 -10.7401 -32.0301 -12.0101C-31.9301 -14.5601 -30.9801 -16.7501 -29.4101 -18.7001C-28.6501 -19.6801 -27.8101 -20.6001 -26.9001 -21.5001C-25.9201 -22.3701 -24.9201 -23.2501 -23.9401 -24.1301C-24.0401 -22.8101 -24.1701 -21.5901 -24.1701 -20.2001C-22.5801 -21.4701 -21.4001 -22.5401 -20.4401 -23.4801C-19.3901 -24.4101 -18.5501 -25.2101 -17.7701 -25.9401C-16.9701 -26.6601 -16.3101 -27.3301 -15.3401 -27.9201C-14.3701 -28.5101 -13.2601 -29.0601 -11.8401 -29.5701C-10.4201 -30.8101 -9.17006 -31.6501 -8.42006 -32.3601C-7.65006 -33.0601 -7.23006 -33.5901 -6.91006 -34.0601C-6.59006 -34.5401 -6.38006 -34.9601 -5.98006 -35.4401C-5.51006 -35.9001 -4.84006 -36.4201 -3.64006 -37.0601C-4.51006 -36.9101 -5.35006 -36.7301 -6.15006 -36.5301C-6.94006 -36.3301 -7.53006 -36.0701 -8.18006 -35.8301C-9.44006 -35.3301 -10.5701 -34.7801 -11.5801 -34.2201C-12.6501 -33.6601 -13.3501 -33.0701 -14.0701 -32.5001C-14.7701 -31.9301 -15.4001 -31.3601 -15.9901 -30.8201C-17.2101 -29.7501 -18.0701 -28.7601 -19.0101 -27.9701C-19.9701 -27.1701 -21.0201 -26.5701 -22.4501 -26.1801C-22.8501 -27.7801 -23.0101 -29.5601 -23.1001 -31.3901C-22.1601 -32.5301 -21.6001 -33.4901 -20.4601 -34.6401C-18.0701 -36.7601 -15.8401 -38.8101 -12.7001 -40.7801C-10.0101 -42.7501 -6.10006 -44.5601 -2.33006 -46.1301L24.6199 -57.3401L31.4999 -25.1301C31.7599 -23.9201 32.0199 -22.6801 32.2899 -21.4301C32.5299 -20.5701 32.7399 -19.6801 32.9099 -18.7601C32.9599 -18.4601 32.9699 -18.4801 32.9899 -18.4101L33.0299 -18.2401C33.0599 -18.1201 33.0699 -18.0101 33.0899 -17.8901C33.1399 -17.4201 33.1399 -16.9201 33.0599 -16.4001C32.9599 -15.3701 32.7599 -14.2301 33.1499 -13.4501C33.2399 -13.0301 33.3499 -12.6301 33.5599 -12.3101C31.4499 -9.42009 32.3599 -9.26009 32.6099 -8.88009L32.2699 -8.22009C31.2099 -7.46009 30.0199 -6.62009 28.8399 -5.77009C28.4499 -7.10009 26.4999 -6.73009 27.1299 -8.35009C27.3699 -8.91009 27.5799 -9.56009 27.7799 -10.1101C27.6099 -10.4401 27.4199 -10.6801 27.1199 -11.0101C27.5699 -11.8301 28.0099 -12.6001 28.3499 -13.3201C29.2599 -15.0001 26.4299 -14.4201 26.3599 -15.5601C26.5699 -16.1901 26.7899 -16.8501 27.0099 -17.5001L27.1699 -17.9701L27.2099 -19.1601C27.2399 -19.9601 27.2699 -20.7501 27.2999 -21.5301C27.2999 -23.7701 26.5699 -23.9401 25.6999 -24.1901L-0.610058 -40.5201C-0.810058 -39.8201 -1.07006 -39.0301 -2.39006 -38.0601L-0.0600586 -38.7601L23.2899 -45.7401L23.8899 -23.8901L23.9899 -20.3201C23.7799 -19.4401 23.7799 -18.7001 23.8999 -18.0301C23.9699 -17.6201 24.0199 -17.5401 24.0999 -17.4001C24.1799 -17.2601 24.2799 -17.1401 24.3899 -17.0201C24.8199 -16.5301 25.3599 -16.1301 25.2499 -15.5001C24.6699 -14.7001 23.8999 -13.8401 23.1699 -12.9001C21.4099 -10.1601 25.0399 -11.9801 24.4699 -10.2301C22.7999 -7.82009 22.6299 -6.83009 22.8699 -6.37009C23.0699 -5.89009 23.5999 -5.85009 23.1099 -4.76009C21.7299 -2.97009 21.4499 -2.21009 21.4099 -1.74009C21.3599 -1.26009 21.5199 -1.05008 20.8299 -0.0900841C20.4399 0.239916 19.9899 0.699916 19.5399 1.15992C18.6699 2.42992 17.8899 3.67991 17.0999 4.96991C16.3299 6.70991 15.6199 8.30992 14.8499 10.0399C13.2799 11.2899 12.3199 12.0599 11.3499 12.8399L11.3699 12.7899Z" fill="#848484"/>
<path d="M110.36 126.55C109.44 127.38 108.58 128.18 107.47 129.1L105.89 130.45C105.27 130.94 104.65 131.44 104.02 131.94C103.54 132.1 103.04 132.25 102.53 132.42C101.94 132.63 101.33 132.84 100.73 133.05C99.4399 133.49 98.1499 133.92 96.9499 134.32C95.8999 134.81 94.9599 135.25 93.7999 135.73C92.4899 136.26 91.1599 136.75 89.8199 137.2C89.2299 137.41 88.3199 137.68 87.4299 137.92C86.5499 138.16 85.6599 138.38 84.7699 138.58C83.2299 138.96 80.6499 139.36 78.2899 139.56L76.5099 139.68C75.8999 139.71 75.3999 139.74 74.5699 139.73C73.0599 139.72 71.5399 139.64 70.0299 139.5C69.2699 139.43 68.5199 139.34 67.7699 139.23C67.0199 139.12 66.3099 139.02 65.3999 138.81C63.6699 138.44 61.9499 137.96 60.2599 137.4C56.9099 136.33 53.6399 134.68 50.5499 132.71C48.9999 131.72 47.5199 130.64 46.3799 129.65C45.1599 128.61 43.9799 127.51 42.8699 126.36C41.7199 125.15 40.8599 124.27 39.2999 122.17C38.6099 121.24 37.9599 120.29 37.3499 119.31L36.4599 117.83C36.1799 117.35 35.8599 116.77 35.7299 116.49C34.3599 113.85 33.0599 110.42 32.6499 108.77C32.3599 107.76 32.0799 106.7 31.8499 105.71L31.4299 103.44C31.3099 102.73 31.1599 101.82 31.1099 101.27L30.9399 99.5099C30.5799 94.9599 30.7699 92.0299 30.9499 89.2999C29.9099 79.2999 33.9499 70.2699 35.7899 62.5199C35.5999 59.3599 36.7299 55.6599 37.9799 52.0599C38.5599 50.4099 39.1499 48.7299 39.7199 47.1099L39.8699 46.6899L39.9099 46.6199L39.9299 46.5799V46.5599L44.0099 47.2699L44.6199 47.3799L44.9299 47.4299C34.9699 45.6399 42.1699 46.9299 39.9499 46.5299V46.4999L39.9699 46.4499L39.9899 46.3499L40.0399 46.1499L40.1399 45.7399L40.3199 44.9299C40.5499 43.8699 40.7299 42.7599 40.8699 41.7999C42.9499 32.3599 45.7699 24.3899 48.0499 17.3799C50.3599 10.4399 52.0699 4.46991 52.5599 0.659912L105.75 25.3799C103.9 26.7199 102.02 28.1899 100.15 29.7699L98.7399 30.9999L98.0399 31.6199L97.0799 32.5099C95.2599 34.2399 93.4199 36.0899 91.6299 37.8799C91.8899 39.0599 88.7099 41.1699 85.9899 41.5799C85.2199 38.6099 91.8099 35.1899 90.4699 32.9699C91.4999 32.3499 92.4899 31.6799 93.4899 31.0199C94.4599 30.3599 95.5499 29.5699 95.9499 29.3999C97.0399 28.7999 98.0299 28.1099 98.9399 27.4299C100.77 26.0199 102.29 24.5399 103.75 23.0199L55.6499 0.659912C56.1299 4.14991 56.5099 9.29991 52.1499 14.8599C52.6699 15.1299 53.3399 15.2899 53.3299 16.2999C53.0699 16.9999 52.8099 17.9699 52.0199 18.0699C51.2599 17.4799 50.9799 19.7999 50.3999 20.6399C50.9899 21.3499 52.2699 20.9399 52.1199 22.5499C50.4799 24.2099 48.9199 27.2499 47.5599 30.8399C46.2099 34.4099 45.0899 38.4399 44.4599 41.5699C44.1899 42.9999 43.9099 44.4399 43.6299 45.9099L43.3299 47.4399L42.9999 48.8899C42.4699 51.1399 41.8099 53.6999 41.1299 56.2299C39.7499 61.3199 38.2199 66.4799 36.7199 71.4299C37.2699 72.5199 37.0799 74.7799 36.5799 76.9699C36.0699 79.1299 35.2299 81.2599 34.3499 81.5699C35.7999 83.8499 34.9799 84.9299 34.1699 86.0799C33.7599 86.6299 33.3599 87.2299 33.2699 88.0099C33.2199 88.3899 33.2499 88.8199 33.3799 89.2899C33.5199 89.7999 33.7799 90.3999 34.1999 91.0499C34.0699 93.7699 33.8699 96.7799 34.1099 100.84C34.2999 103.08 34.4699 105.06 35.0899 107.83C35.2299 108.44 35.3599 109.04 35.4899 109.61C35.5299 109.84 35.6599 110.27 35.7799 110.64C35.8999 111.01 36.0099 111.38 36.1299 111.73C36.5899 113.14 37.0399 114.37 37.4099 115.38C38.7299 117.33 41.0199 120.45 43.0599 122.56C44.7199 124.23 46.5899 125.96 48.6699 127.65C49.6299 128.46 51.0199 129.42 52.3599 130.28C53.7299 131.16 55.1899 132 56.7299 132.78C59.7599 134.3 63.1699 135.48 66.8799 136.34C68.4599 136.67 70.1299 136.93 71.8499 137.11C73.5499 137.29 75.4999 137.38 76.7699 137.36C78.2099 137.36 79.7099 137.28 81.2299 137.14L82.3799 137.02L83.2999 136.9C83.8999 136.81 84.5099 136.71 85.1199 136.62C86.3199 136.42 87.6799 136.13 88.8099 135.86C89.7999 135.61 90.8099 135.33 91.8399 135.02C92.3499 134.85 92.8699 134.69 93.3999 134.52C93.8299 134.37 94.2699 134.21 94.6999 134.05C95.5499 133.73 96.4099 133.39 97.2799 133.01C98.0999 132.24 98.8999 131.66 100.04 131C101.03 130.44 102.13 129.82 103.16 129.23C103.64 128.95 104.13 128.66 104.53 128.39C104.9 128.13 105.23 127.88 105.49 127.61C106.02 127.09 106.3 126.56 106.14 126.01C108.43 124.94 110.1 124.2 111.9 123.49C111.42 124.54 110.98 125.44 110.36 126.55Z" fill="#D5D5D5"/>
<path d="M40.0401 88.4199C38.8301 82.5199 39.3901 78.8399 40.3201 75.4299C41.2701 72.0699 42.6601 69.1499 43.5301 65.6499C43.1801 69.4399 42.8701 72.9599 42.3601 76.5599C41.8601 80.2199 41.1001 83.7399 40.0401 88.4099V88.4199Z" fill="#D5D5D5"/>
<path d="M68.53 81.2601C66.88 78.7901 68.37 73.6001 70.1 73.5001C70.31 73.6001 70.5199 73.7101 70.6299 73.7601C72.0699 71.7601 73.44 69.7301 74.87 67.5601C75.31 68.7701 75.71 69.9101 76.15 71.1201C75.53 75.0301 73.7599 73.7601 71.42 75.1201C71.33 75.8501 71.39 76.4601 71.46 77.0601C71.07 78.4201 70.69 79.7601 70.35 81.1301C70.09 81.2001 69.7899 81.4501 69.5899 81.7401C69.2699 81.6001 68.9499 81.4501 68.5199 81.2601H68.53Z" fill="#D5D5D5"/>
<path d="M60.0801 68.39L63.4501 63.51C63.8501 65.93 62.9901 71.1 60.0701 70.42C60.1201 69.84 60.0701 69.2 60.0801 68.4V68.39Z" fill="#D5D5D5"/>
<path d="M63.55 57.7401C64.38 56.0001 64.78 54.3101 65.04 52.7001L65.2 51.5401L65.35 50.3401C65.48 49.4301 65.62 48.5001 65.83 47.5601C67.83 41.9301 69.91 38.2301 71.09 34.8401C71.6 33.5201 72.12 32.2101 72.64 30.8801C74 30.8901 74.42 27.9201 75.76 28.9101C76.98 30.2401 78.28 31.6401 79.5 32.9701C79.03 34.7301 78.61 36.2901 78.14 38.0501C77.11 40.6701 76.12 43.3201 75.15 46.0001C75.2 47.6301 76.48 49.1201 75.22 50.8001C74.43 54.1101 73.52 57.3901 72.55 60.6301C71.75 61.1801 70.95 61.7501 70.26 62.3701C69.83 57.8101 70.63 54.1201 69.19 51.4701C67.03 52.5201 69.16 54.8101 68.11 56.4401C66.99 57.2201 65.8 60.3601 63.99 61.8001C63.84 60.5001 63.68 59.0401 63.53 57.7401H63.55Z" fill="#D5D5D5"/>
<path d="M48.5199 45.23C49.2899 45.69 49.7599 46.44 49.8599 47.44C49.8899 47.69 49.8899 47.96 49.8699 48.24C49.8699 48.43 49.8699 48.49 49.8399 48.63C49.7499 49 49.5499 49.47 49.2299 50.04C48.0299 49.99 47.3499 49.21 47.1799 48.44C47.1399 48.25 47.1299 48.04 47.1299 47.96C47.1299 47.89 47.1299 47.89 47.1699 47.75C47.2099 47.58 47.2599 47.41 47.3299 47.24C47.5799 46.55 47.9699 45.85 48.5199 45.23Z" fill="#D5D5D5"/>
<path d="M73.3999 -11.9099C71.4499 -10.3399 69.4899 -8.75992 67.4999 -7.15992L64.5599 -4.80992L63.0999 -3.63992C62.6699 -3.29992 62.4799 -3.18992 62.1899 -2.97992C60.0499 -1.48992 58.1499 -0.0599273 56.5499 1.84007C55.2399 2.24007 54.0199 2.55007 52.8799 2.60007C52.5499 1.89007 52.1999 1.03008 51.8899 0.290077C52.5899 -1.93992 53.7199 -2.58992 55.0499 -3.36992C56.3499 -4.10992 57.8599 -4.96992 58.3599 -6.60992C59.1299 -6.08992 62.2899 -8.58992 64.7799 -10.1199C67.3799 -11.7899 70.1399 -13.2499 72.7399 -13.5599L72.7699 -13.5899L103.81 -40.9199L103.59 0.73008C103.57 4.11008 103.43 7.44008 103.08 10.5701C103.6 11.7801 102.7 18.0101 99.9099 16.6701C100.34 12.7601 100.96 8.78008 101.84 0.73008L105.58 -33.6799L73.9099 -12.2499C73.7799 -12.1599 73.5899 -12.0399 73.4099 -11.9099H73.3999Z" fill="#D5D5D5"/>
<path d="M48.3799 8.20992C47.4099 9.22992 46.0999 7.82992 45.5499 11.1399C44.6799 12.0799 43.8799 12.9899 42.9599 14.1299C42.2899 14.4499 41.5799 14.7799 40.9599 15.0399C41.0499 14.6299 41.1399 14.2199 41.1799 14.0199C41.0899 12.5799 41.0599 11.0699 41.0899 9.50993C40.5299 9.64993 39.6099 11.8799 38.8699 12.8999C38.6999 12.9499 38.5599 12.9799 38.4299 13.0199C37.8699 13.1499 37.3399 13.2599 36.8799 13.3199C36.0199 15.2499 35.6999 15.2999 34.6999 17.0699C34.5399 17.0899 34.4199 17.1099 34.2999 17.1299C33.4799 18.6899 32.5299 20.4999 31.6999 22.0599C31.0099 22.2099 30.3599 22.2999 29.7599 22.3399C29.3799 22.0999 29.3999 20.8799 29.3099 20.0699C29.1999 19.2799 28.9899 18.8899 27.6999 20.7099C26.5499 21.2999 25.4499 21.7199 23.9699 21.9499C23.0099 22.9299 22.2099 23.4599 21.6299 23.4399C21.1099 23.3899 20.4299 23.1699 21.3699 21.0399C23.8199 16.5799 24.0499 15.7899 23.6899 15.9199C23.3099 16.0699 22.3499 17.1099 22.3499 16.7099C22.3499 16.6799 22.3499 16.6399 22.3699 16.5899C21.8699 17.2699 21.2599 18.1099 20.6399 18.9599C20.7499 18.7299 20.8599 18.4999 20.9199 18.3899C21.6699 17.0899 22.3099 15.9799 22.9499 14.8699C23.1199 14.2599 23.3099 13.6499 23.5199 13.0499C24.0299 11.8399 24.7499 10.4099 25.3899 9.11993C26.0499 8.20993 26.6799 7.32992 27.3699 6.37992C28.9399 4.38992 30.5799 2.25992 32.2999 -7.62939e-05C31.4999 1.28992 32.6999 -0.130078 32.9299 -0.260078C33.1499 -0.360078 32.3399 0.949924 27.1099 8.67992C33.2999 -0.070076 31.0999 3.35992 29.5899 5.88992C29.3799 6.23992 29.1899 6.55992 29.0299 6.81992C29.7499 6.04992 30.5399 5.20993 31.2499 4.43993C31.7299 4.50993 28.4999 9.02992 25.2299 15.0299C27.4799 11.7699 30.2899 7.83993 32.8099 3.93993C32.2599 5.88993 32.8299 5.86992 33.2799 5.77992C33.7499 5.67992 34.1299 5.53992 33.7299 6.95992C35.8799 2.61992 36.1099 2.71992 35.8699 3.67992C35.9299 4.54992 36.1799 5.20993 36.7099 5.75993C36.3299 6.86993 36.3899 6.89993 36.8599 5.89993C39.1599 -0.190075 38.9399 2.28992 40.6099 -2.08008C40.7299 -1.82008 39.4199 2.13993 38.4999 5.36993C39.2299 3.99993 39.9499 2.66993 40.7199 1.22993C40.2299 3.59993 41.4099 1.27993 41.0799 3.50993C42.7499 0.669926 41.1299 7.47993 42.6099 3.50993C42.7399 2.90993 42.8599 2.29992 42.9899 1.69992C42.9999 3.59992 43.7899 2.48992 44.3999 1.81992C45.0199 1.13992 45.5099 0.849924 45.5899 3.74992C45.8899 3.31992 46.2999 4.17993 46.5499 2.57993C47.1899 2.14993 48.0399 -0.810079 48.9699 2.44992C48.8499 4.24992 48.6899 6.07992 48.3899 8.17992L48.3799 8.20992Z" fill="#D5D5D5"/>
<path d="M45.3001 45.9099C43.2001 49.4699 41.6701 52.3999 38.2501 53.5399C34.8501 57.1299 32.1001 59.4999 29.1901 62.0299C26.2701 64.5899 23.1701 67.4599 18.7501 72.1999C17.6801 72.5499 16.7501 72.8299 15.6301 73.3899C14.4401 74.1599 13.3601 74.8599 12.1601 75.6399C12.2301 75.2899 12.0901 75.2399 12.0401 74.9799C9.65009 77.0399 8.52009 78.9999 4.99009 81.0899C3.95009 82.5999 2.90009 84.1999 1.99009 85.5999C1.55009 86.9199 1.09009 88.2499 0.770088 89.5299C0.210088 89.9999 -0.309912 90.6099 -0.839912 91.1999C-1.12991 90.8599 -1.58991 90.8099 -1.94991 90.6999C-2.37991 91.0099 -2.70991 91.2499 -3.02991 91.4799L-3.12991 90.5399C-3.55991 90.8699 -3.87991 91.1099 -4.20991 91.3599C-5.29991 93.0499 -6.28991 94.5399 -7.58991 96.4199C-8.24991 96.8699 -9.00991 97.4099 -9.65991 97.8599L-9.23991 96.0399C-12.1699 99.3999 -14.3599 101.07 -15.3999 102.87C-18.1099 104.5 -21.0599 105.97 -24.4099 106.96C-26.0799 107.45 -27.8399 107.84 -29.6999 108L-31.0899 108.13C-31.2499 108.19 -31.2499 108.07 -31.2599 107.96L-31.3099 107.65L-31.4099 107.02L-31.6099 105.76L-31.6599 104.49C-31.4999 101.85 -30.8099 98.9499 -30.1299 96.2799C-29.8799 95.4399 -29.8999 95.1899 -30.0599 95.2099C-30.3199 95.1399 -31.2499 96.3299 -31.0299 95.2599C-30.4699 93.2099 -29.6699 90.9899 -31.4299 91.9499C-30.0299 88.9799 -28.7399 86.3399 -27.3099 83.4899C-23.8199 78.3299 -23.4599 77.2499 -23.4199 76.3899C-23.3499 75.5199 -23.6399 74.9099 -20.8699 70.1899C-22.3399 71.4099 -19.9899 67.2799 -18.5599 64.3999C-16.9499 60.6399 -15.3399 56.8299 -13.5499 52.8399C-12.8299 51.2399 -12.1099 49.6299 -11.3799 48.0199C-12.0999 46.0599 -6.81991 37.4299 -10.9399 41.0599C-9.80991 38.6299 -8.74991 36.2499 -7.48991 33.8199C-6.22991 31.3099 -4.78991 28.7299 -2.92991 25.9299C-2.82991 25.4299 -2.90991 25.0699 -2.80991 24.5699C-4.96991 26.6299 -7.29991 28.8499 -9.44991 30.8999C-12.9199 35.9499 -12.4599 33.3199 -14.3899 34.4799C-15.4299 35.5699 -16.3099 36.5599 -17.2599 37.4199C-17.8899 38.4299 -18.3699 39.3199 -19.1099 40.6199C-20.7299 44.6499 -22.3499 48.6699 -23.9699 52.6799C-25.3999 55.7299 -25.0499 56.1599 -24.5699 56.3399C-24.0899 56.5499 -23.4699 56.5499 -24.2499 58.6499C-25.6499 61.3499 -26.2999 64.4599 -28.7599 67.0599C-28.3599 63.0999 -28.4099 59.3399 -28.2499 54.5999C-27.6999 52.9399 -27.1699 51.3499 -26.6499 49.7599C-26.3799 48.9599 -26.1199 48.1699 -25.8399 47.3599C-25.5699 46.5699 -25.1899 45.5899 -24.8699 44.6999C-24.4599 42.8399 -24.0499 41.0299 -23.6499 39.2399C-23.1299 37.2699 -22.6099 35.3199 -22.0999 33.3699C-21.1099 30.9599 -24.6199 33.2599 -21.2699 27.7999L-19.2899 23.8099L-17.5099 19.9899C-17.6599 19.2299 -17.9399 18.4599 -18.1799 17.6399C-16.7899 15.0499 -15.5499 12.5999 -14.1799 10.1699C-13.6299 8.69991 -13.0599 7.21991 -12.6399 5.82991C-13.0199 5.57991 -13.1899 5.00992 -13.4299 4.72992C-13.7699 4.72992 -14.1099 4.72992 -14.5699 4.72992C-13.9499 3.28992 -13.3399 1.86991 -12.7299 0.459911C-12.2599 -0.850089 -11.7899 -2.15009 -11.3299 -3.44009C-10.8899 -4.69009 -10.4399 -5.94009 -9.99991 -7.18009C-9.62991 -8.38009 -9.42991 -9.52009 -9.13991 -10.6601L-8.98991 -13.3801C-8.96991 -13.8001 -8.91991 -14.3501 -8.91991 -14.6701L-8.95991 -15.4501L-9.09991 -18.5901L9.79009 -6.86009L9.51009 -6.75009C8.86009 -6.79009 8.18009 -7.11009 7.24009 -6.88009L5.84009 -6.73009C5.35009 -6.70009 4.82009 -6.46009 4.29009 -6.33009C4.13009 -6.38009 3.82009 -6.47009 3.54009 -6.46009C2.98009 -9.93009 0.900086 -9.74009 0.170086 -10.9001C0.990086 -13.1601 2.07009 -15.1901 3.44009 -17.2901C4.74009 -16.7901 5.81009 -16.5901 6.78009 -16.6301L0.990089 -20.2201C0.750089 -18.9101 0.830089 -17.6201 1.06009 -16.3201C1.20009 -15.7201 1.28009 -14.9101 1.38009 -14.1101C1.49009 -13.3301 1.60009 -12.5401 1.71009 -11.7501C2.00009 -10.1901 1.98009 -8.60009 1.82009 -6.98009C1.74009 -6.17009 1.60009 -5.35009 1.37009 -4.50009C1.09009 -3.64009 0.720087 -2.74009 0.230087 -1.80009C0.780087 -1.01009 1.01009 0.00991011 0.950089 1.23991C0.850088 2.47991 0.500089 3.91991 0.0600891 5.53991C-0.869911 8.73991 -2.32991 12.7399 -2.83991 16.1599C-2.97991 18.0499 -2.27991 18.4099 -3.58991 20.6999C-2.89991 21.0699 -2.32991 21.5099 -1.48991 21.4699L1.64009 15.8299C2.14009 14.9199 2.73009 13.9799 3.14009 13.1499L4.31009 10.7199C5.23009 8.15991 5.96009 5.60991 6.76009 2.94991C6.37009 2.58991 5.94009 2.18991 5.65009 1.73991C5.90009 -0.0400898 6.14009 -1.82009 6.32009 -3.45009C6.61009 -4.37009 7.00009 -5.29009 7.40009 -6.19009C7.16009 -9.82009 6.38009 -14.5501 5.37009 -20.9201L5.47009 -20.8601C5.00009 -20.6801 4.45009 -20.4601 3.88009 -20.2401C3.67009 -20.7801 3.28009 -21.1501 2.87009 -21.6401C3.53009 -23.2501 -1.01991 -23.6901 4.06009 -25.4201L9.71009 -27.3401L10.0701 -21.6901C10.1001 -21.2601 10.1201 -20.7301 10.1201 -20.1101C9.78009 -18.7001 10.8601 -17.8801 11.7401 -16.2801C12.8701 -16.1101 14.0001 -15.9701 15.0101 -15.8601C14.9401 -15.1601 14.8701 -14.4601 14.8101 -13.8901C14.8101 -12.7501 16.4101 -13.1301 16.6201 -11.8001C16.4201 -10.7101 16.2701 -9.61009 15.9801 -8.49009C15.2401 -6.62009 14.5201 -4.80009 13.6201 -2.76009C14.1701 -2.93009 14.6101 -3.06009 15.1601 -3.23009C15.5501 -2.37009 14.9201 -0.880088 14.4801 0.389912C14.0601 1.65991 13.7701 2.66992 14.8301 2.22992L13.5401 5.69991C12.7501 6.16991 12.0601 6.56991 11.2701 7.02991C10.2801 10.0099 11.2001 10.1399 11.4901 10.7399C11.2601 11.5299 10.9801 12.4599 10.7401 13.2499C10.9801 13.0599 11.2201 12.8699 11.3401 12.7799C12.3101 12.0099 13.2701 11.2399 14.8401 9.97992C15.4501 9.47992 16.0601 8.97991 16.5501 8.56991C16.3701 8.95991 16.1801 9.35991 15.9401 9.87991C15.1301 10.3399 15.0501 11.3499 12.9501 14.8099C11.5101 19.2799 12.0201 20.0899 9.55009 25.5199C8.03009 28.0599 6.63009 30.5299 5.19009 33.0999C6.22009 32.5699 4.27009 36.1699 5.99009 34.2399C4.43009 37.1599 2.87009 40.0699 1.23009 43.1399C0.820087 44.0999 0.150086 45.4799 -0.239914 46.4499C1.73009 44.1299 0.760087 46.8099 -2.10991 50.7999C-2.84991 51.8199 -3.39991 52.5899 -3.94991 53.3499C-4.37991 54.5099 -6.78991 58.9899 -3.95991 55.5499L-4.48991 56.8799C-5.55991 59.4799 -6.45991 62.1999 -7.24991 64.9799L-4.24991 60.5699C-4.80991 62.2299 -5.26991 63.7899 -5.63991 65.3799L-5.93991 66.5799L-5.60991 67.0199C-5.38991 67.3199 -5.15991 67.6199 -4.93991 67.9299C-4.54991 68.0599 -4.12991 68.1899 -3.71991 68.3199C-3.30991 68.3899 -2.89991 68.4599 -2.51991 68.5299C-1.50991 66.8499 -0.489913 65.1699 0.320087 63.8299C0.890087 64.2799 1.27009 64.9199 1.77009 65.1999C3.46009 64.0499 4.99009 62.7999 6.44009 61.4799C8.43009 57.6299 8.95009 57.9899 10.2901 57.3099C10.7301 55.6899 9.65009 58.0999 8.72009 60.4299C7.65009 62.6199 9.26009 61.6699 12.1601 56.2799C12.1101 56.9799 12.1601 57.5899 12.0101 58.5199C12.9401 57.9599 13.8301 57.4099 14.8801 56.8299C16.4301 54.2899 16.9301 55.5099 19.5401 50.3299C20.2501 49.5399 21.0201 48.7199 21.6101 48.1999C22.0501 48.5999 22.6701 49.2399 25.2701 45.1899C23.0301 50.6499 25.8901 47.7599 27.7001 43.7999C28.4801 43.3299 29.3501 42.8199 30.1401 42.3499C30.4601 43.0899 30.8401 43.7899 31.3301 44.2099C30.0601 46.3199 28.4401 47.7199 27.4701 49.4699C26.7301 49.8499 25.4401 51.7499 24.3601 53.1199C23.2801 54.4899 22.4301 55.3199 22.7901 53.3399C21.7801 54.1699 20.8901 53.6599 16.5801 61.8699C15.5101 61.1299 14.4801 60.4399 13.7301 59.3899C12.5401 60.7999 11.2601 62.3099 10.1101 63.6799C10.2201 62.9999 10.4101 62.2499 10.7601 61.1899C9.42009 63.0799 8.09009 64.9699 6.75009 66.8699C6.55009 66.1599 2.94009 70.8899 6.63009 63.6099C6.07009 63.8899 5.51009 64.1499 4.94009 64.3699C3.03009 67.9399 0.940088 71.8399 -0.979912 75.4299C0.540088 75.0199 1.76009 74.7399 3.05009 74.3099C4.70009 72.2099 6.35009 70.1099 8.13009 67.8399C8.70009 68.4599 10.0801 67.5699 12.4201 68.2399C12.6001 69.6699 12.7101 71.4899 13.3501 72.0099C15.0101 70.2699 16.6801 68.6299 18.2301 67.0699C19.1401 65.9299 20.0601 64.7699 20.9901 63.5999C21.9201 62.3999 22.8601 61.1699 23.8201 59.9099C26.5001 59.8799 31.7901 57.0599 37.5501 50.0899C37.9401 50.6299 38.2201 51.2399 38.7001 51.5299C40.8701 49.8599 40.8801 47.1199 45.2801 45.8899L45.3001 45.9099Z" fill="#979797"/>
<path d="M27.2399 5.19C25.9999 6 30.8799 0.230002 28.9099 2.19C29.8299 0.310002 29.6799 -0.439999 29.8999 -1.71C30.3099 -2.44 30.6299 -3 30.9999 -3.65C32.1099 -5.09 33.1799 -6.43 34.1799 -7.64C34.7199 -8.62 32.7499 -7.39 31.5299 -6.82C31.7699 -7.27 32.0399 -7.8 32.2799 -8.25L32.6199 -8.91C32.3699 -9.29 31.4599 -9.45 33.5699 -12.34C33.3599 -12.66 33.2499 -13.06 33.1599 -13.48C32.7699 -14.26 32.9699 -15.41 33.0699 -16.43C33.1499 -16.95 33.1499 -17.45 33.0999 -17.92C33.0899 -18.04 33.0699 -18.16 33.0399 -18.27L32.9999 -18.44C32.9799 -18.51 32.9799 -18.48 32.9199 -18.79C32.7499 -19.71 32.5399 -20.6 32.2999 -21.46C32.0299 -22.71 31.7699 -23.95 31.5099 -25.16L24.6299 -57.37L-2.32012 -46.16C-6.09012 -44.59 -10.0001 -42.78 -12.6901 -40.81C-15.8201 -38.84 -18.0601 -36.8 -20.4501 -34.67C-22.9601 -34.82 -25.4101 -34.74 -28.1201 -34.54C-26.9801 -35.88 -25.8901 -37.21 -24.7201 -38.54C-23.3801 -39.9 -22.0201 -41.23 -20.6101 -42.54C-19.3301 -43.83 -17.4001 -45.16 -15.6301 -46.38C-14.7201 -46.99 -13.7901 -47.59 -12.8401 -48.16C-11.8601 -48.73 -10.5801 -49.29 -9.42011 -49.81C-7.53011 -50.61 -5.71011 -51.33 -4.10011 -51.93L30.5999 -65L37.4699 -26.13C37.8099 -24.19 38.1399 -22.35 38.4499 -20.56L38.6899 -19.22C38.7399 -18.97 38.7599 -19.05 38.7899 -18.95L38.9499 -18.6C39.1399 -18.14 39.1699 -17.69 38.8099 -16.98C40.1899 -17.38 39.5599 -16.91 39.0399 -16.36C38.5099 -15.83 38.0799 -15.27 39.9699 -16.23C39.4699 -15.71 38.1999 -14.47 38.9299 -14.58C41.4899 -16.38 41.2099 -15.72 39.8299 -14.47C39.2999 -14.12 38.9399 -13.77 38.4799 -13.35C38.4399 -13.19 37.9999 -12.69 38.6299 -13.11C40.9199 -15.08 40.0899 -14.03 41.1099 -14.86C40.3699 -14.02 41.0799 -14.49 42.1599 -15.48C42.5199 -15.67 41.1099 -14.12 40.1999 -12.95C39.2999 -11.82 38.9299 -11.18 41.7699 -14.29C41.7999 -14.23 40.8899 -13.08 40.4099 -12.39C39.9299 -11.71 39.8999 -11.55 41.8499 -13.89C45.5699 -18.43 43.1499 -15.35 46.7699 -19.86C43.7299 -15.87 42.8099 -14.66 41.6299 -13.11C38.2899 -8.67 33.9699 -3 29.8899 2.68C29.0699 3.52 28.1299 4.44 27.2299 5.19H27.2399Z" fill="#D5D5D5"/>
<path d="M72.5601 60.63C73.5301 57.39 74.4401 54.11 75.2301 50.8C76.7901 51.59 78.2501 52.33 79.7001 53.08L79.2001 54.66C77.6701 57.11 76.0801 59.55 74.5201 61.68C73.9001 61.35 73.1801 60.96 72.5601 60.63Z" fill="#A8A8A8"/>
<path d="M60.08 68.39C57.48 65.4 59.26 57.72 60.21 53.93C60.78 52.8 61.41 51.48 61.94 50.57C62.56 49.28 63.21 47.75 63.89 46.46C64.03 44.19 64.21 41.95 64.4 39.74C65.4 37.38 67.24 35.17 69.08 33.62C69.51 31.23 66.81 29.6 68.44 26.38C68.83 26.02 69.32 25.71 69.66 26.11C70.21 19.31 74.58 11.27 75.67 4.00003C75.27 2.83003 74.84 1.76003 74.43 0.670029L91.6 8.65003C91.45 8.94003 91.29 9.24003 91.13 9.54003C87.71 10.95 84.41 12.95 81.23 15.3C77.4 18.29 73.83 21.57 70.38 24.82C63.51 31.29 56.99 37.83 51.2 42C50.34 44.1 48.77 44.54 45.97 45.38C48.52 40.83 51.52 37.98 54.91 34.95C58.26 31.96 62.05 28.75 65.29 24.58C66.34 23.25 67.39 21.91 68.39 20.47C68.16 20.19 67.78 20.03 67.42 19.86C67.75 18.5 67.94 17.41 68.13 16.35C67.59 16.17 67.09 16.11 66.48 16.14C65.72 17.2 64.79 18.44 61.03 19.72C60.16 22.06 58.48 23.37 56.96 24.6C55.42 25.85 54.02 27.03 53.19 29.69C52.62 28.67 52.09 27.44 51.7 26.1C52.04 25.69 52.38 25.12 52.7 24.72C54.68 22.62 56.51 20.73 58.47 18.75C58.8 18.49 59.14 18.23 59.59 17.88C60.81 16.67 62 15.48 63.22 14.27C63.57 14 63.92 13.73 64.38 13.37C65.45 12.53 66.65 11.61 67.84 10.68C68.21 10.4 68.58 10.11 68.94 9.83003C70.13 8.77003 71.15 7.69003 72.32 6.53003C73.06 5.81003 74 4.82003 74.8 4.07003C77.01 2.56003 79.17 1.30003 81.3 -0.00997162C81.9 -0.409972 82.34 -0.709968 82.79 -1.00997C82.9 -1.12997 83.01 -1.24997 83.11 -1.35997L86.89 -5.46997L87.5 0.690033C87.66 2.29003 88.27 3.68003 88.35 5.50003C88.47 7.32003 88.18 9.62003 86.55 12.8C85.56 12.92 84.57 13.03 83.54 13.3C82.97 14.77 82.27 16.35 81.49 17.9C82.16 18.45 82.67 19.11 83.22 19.62C83.26 21.25 83.29 22.87 83.33 24.5C82.86 26.46 83.75 28 82.42 29.86C81.51 30.94 80.49 31.96 79.48 32.97C78.26 31.65 76.96 30.24 75.74 28.91C74.4 27.91 73.98 30.89 72.62 30.88C72.1 32.2 71.59 33.52 71.07 34.84C69.89 38.23 67.81 41.93 65.81 47.56C65.6 48.5 65.46 49.43 65.33 50.34L65.18 51.54L65.02 52.7C64.76 54.31 64.36 56 63.53 57.74C63.68 59.04 63.84 60.5 63.99 61.8C63.76 62.49 63.59 63 63.42 63.51L60.05 68.39H60.08Z" fill="#979797"/>
<path d="M44.2401 21.7399C43.1401 22.3999 41.9601 23.1 40.8501 23.75C39.9501 25.13 37.9101 31.02 36.7301 30.45C35.7101 31.23 36.6601 28.2799 37.0501 26.7699C36.2501 27.1999 35.4901 27.0299 34.8001 30.6199C33.9001 32.8099 33.6301 31.8299 33.0501 32.5199C33.1401 28.7099 31.8701 31.0899 30.1701 33.9799C28.5501 36.7999 26.4401 40.1799 26.5701 36.7399C25.7201 38.0499 24.7201 39.5999 23.8201 40.9899C22.7301 42.5699 21.5901 44.1899 20.5501 45.5399C21.3001 43.2199 21.5901 41.9699 21.9601 40.6799C20.5601 40.7699 18.4201 43.4 16.3501 45.55C14.3301 47.66 12.3601 49.3 12.5801 46.39C9.6001 51.32 9.0601 49.9099 3.7401 56.9899C4.8101 52.9299 7.8301 48.6599 5.7801 49.7899C5.4901 49.9599 5.2201 49.92 4.9501 49.91C4.8101 49.91 4.6801 49.8899 4.5301 49.8999C4.3901 49.8999 4.1801 49.99 4.2101 49.81C4.0901 49.38 3.6101 49.69 2.0001 52.41C0.560099 53.96 2.0001 50.6699 -0.169899 52.2899L0.3801 50.78C2.0101 48.02 3.2301 45.7599 4.1601 43.9599C6.0301 40.2599 6.6501 38.5399 6.5801 38.1799C5.1401 40.0599 6.9801 37.0399 7.0601 36.6799C8.1701 34.7299 9.2801 32.78 10.3901 30.83C10.3601 30.1 11.2301 28.09 12.1401 25.94C13.0801 23.79 13.9301 21.4599 14.4201 19.8999C15.4601 18.2499 16.6001 16.4199 17.7501 14.5999C15.3601 17.4299 15.6001 16.69 16.1001 15.61C16.6001 14.53 17.3401 13.1499 16.1101 14.3099C16.6801 13.0699 17.1701 11.83 17.5901 10.73C16.2801 11.69 17.7801 9.14995 15.9501 9.87995C16.1901 9.35995 16.3801 8.95995 16.5601 8.56995C16.0701 8.96995 15.4601 9.46995 14.8501 9.97995C16.4401 6.96995 18.0201 3.95995 19.5301 1.09995C19.9801 0.639949 20.4301 0.179949 20.8201 -0.150051C21.5001 -1.11005 21.3501 -1.32005 21.4001 -1.80005C21.4401 -2.27005 21.7201 -3.03005 23.1001 -4.82005C23.6001 -5.92005 23.0601 -5.95005 22.8601 -6.43005C22.6201 -6.89005 22.7901 -7.88005 24.4601 -10.2901C25.0401 -12.0301 21.4001 -10.22 23.1601 -12.96C23.8901 -13.9 24.6601 -14.7601 25.2401 -15.5601C25.3501 -16.1901 24.8001 -16.5901 24.3801 -17.0801C24.2701 -17.2001 24.1701 -17.33 24.0901 -17.46C24.0101 -17.6 23.9601 -17.68 23.8901 -18.09C23.7701 -18.76 23.7701 -19.5101 23.9801 -20.3801L23.8801 -23.9501L23.2801 -45.8L-0.0699005 -38.82L-2.3999 -38.1201C-1.0699 -39.0901 -0.8199 -39.87 -0.6199 -40.58L25.6901 -24.25C26.5601 -24 27.2901 -23.83 27.2901 -21.59C27.2601 -20.81 27.2301 -20.0201 27.2001 -19.2201L27.1601 -18.03L27.0001 -17.5601C26.7801 -16.9001 26.5601 -16.25 26.3501 -15.62C26.4201 -14.48 29.2501 -15.0601 28.3401 -13.3801C28.0101 -12.6601 27.5601 -11.89 27.1101 -11.07C27.4001 -10.75 27.5901 -10.5 27.7701 -10.17C27.5601 -9.63005 27.3601 -8.97005 27.1201 -8.41005C26.4901 -6.79005 28.4401 -7.16005 28.8301 -5.83005C30.0101 -6.67005 31.1901 -7.52005 32.2601 -8.28005C32.0201 -7.83005 31.7501 -7.30005 31.5101 -6.85005C32.7401 -7.43005 34.7001 -8.65005 34.1601 -7.67005C33.1601 -6.46005 32.0901 -5.11005 30.9801 -3.68005C30.6101 -3.03005 30.2901 -2.47005 29.8801 -1.74005C29.6701 -0.460051 29.8201 0.289954 28.8901 2.15995C30.8601 0.199954 25.9701 5.96995 27.2201 5.15995C25.9101 7.10995 24.5801 9.07995 23.3901 10.8499C21.8501 13.2899 25.1001 9.17995 24.5301 10.22C21.8601 14.09 19.0201 18.3099 16.1401 22.6299C17.1801 21.4699 18.4401 19.9599 19.5701 18.6199C18.0401 21.1099 16.5001 23.63 14.8301 26.36C17.8701 22.03 17.9401 22.67 20.9001 18.36C20.8501 18.47 20.7301 18.6999 20.6201 18.9299C20.1701 19.7099 19.7001 20.51 19.2301 21.33C18.2701 23.02 17.2801 24.7499 16.3601 26.3799C17.8101 24.8899 20.7301 21.09 21.3601 21C20.4101 23.13 21.1001 23.3499 21.6201 23.3999C22.2001 23.4299 23.0001 22.9 23.9601 21.91C25.4401 21.69 26.5401 21.26 27.6901 20.67C28.9801 18.86 29.1901 19.24 29.3001 20.03C29.3901 20.83 29.3701 22.06 29.7501 22.3C30.3501 22.26 31.0001 22.1599 31.6901 22.0199C31.3701 23.9699 31.1501 25.82 31.0301 27.58C31.3501 28.72 33.0401 24.68 33.5601 23.67C34.0101 23.71 34.4301 23.94 34.8901 23.95C36.0101 22.28 36.6701 17.4099 37.6201 17.2799C37.7101 17.4499 37.7401 17.8299 37.8401 17.9899L40.9601 15C41.5801 14.73 42.2901 14.4099 42.9601 14.0899C42.8501 15.7499 42.7201 17.5599 42.6001 19.3799C43.2101 19.5699 43.8801 19.7 44.5101 19.84C45.6601 17.97 47.2501 16.53 48.9901 15.11C50.7201 13.71 52.6001 12.2699 53.9801 10.7799C55.4401 8.85995 57.2701 7.78995 59.2101 6.45995C61.1201 5.15995 63.1401 3.61995 64.2701 1.49995C65.6601 0.52995 65.8501 2.51995 67.2601 0.679951C69.4701 -2.18005 73.2101 -5.47005 77.5301 -7.99005L99.8001 -20.96L96.2101 0.689953C95.5101 4.92995 93.9901 8.75995 92.0501 11.5599C92.3401 7.94995 92.7501 4.34995 92.9801 0.689953L94.0801 -16.37L79.6101 -5.52005C76.3501 -3.08005 73.1801 -0.66005 70.2801 1.88995L68.3901 3.60995C67.8701 4.09995 67.3701 4.61995 66.8801 5.13995C65.9001 6.18995 65.0001 7.31995 64.1501 8.58995C63.4201 7.34995 62.3901 8.85995 61.8801 7.28995C59.7101 8.42995 59.5601 9.88995 57.9901 11.66C57.6301 11.47 57.2101 11.46 57.2701 10.65C56.2501 11.39 54.9601 11.99 55.7901 14.04C55.6001 15.12 54.9901 15.2499 54.4301 15.8099C50.7801 18.1299 47.3801 19.96 44.2401 21.72V21.7399Z" fill="#707070"/>
<path d="M84.3901 4.61994C82.2101 6.42994 80.0201 8.23994 77.8601 10.0399C78.6101 10.3499 79.4101 10.7599 80.2901 10.9699C79.5901 11.4999 78.9301 11.9899 78.2701 12.4899C77.5501 13.0599 76.8401 13.6299 76.0801 14.2299C76.2401 13.1899 76.3401 12.0899 76.6001 11.0099C74.9801 11.8199 73.4301 12.6099 72.0501 13.2399C71.7301 12.4499 71.4501 11.7799 71.1201 10.9899L72.3101 10.0699C73.8301 9.47994 75.4001 8.70994 76.8401 8.05994C79.2501 6.66994 81.7001 5.34994 84.1901 4.18994C84.2401 4.28994 84.3401 4.50994 84.3901 4.60994V4.61994Z" fill="#A8A8A8"/>
<path d="M40.9601 15.05L37.8401 18.04C37.7401 17.88 37.7101 17.5 37.6201 17.33C38.0601 15.78 38.4301 14.45 38.8701 12.9C39.6201 11.88 40.5401 9.65001 41.0901 9.51001C41.0501 11.08 41.0901 12.58 41.1801 14.02C41.1401 14.22 41.0501 14.63 40.9601 15.04V15.05Z" fill="#A8A8A8"/>
<path d="M21.3799 21.04C20.7499 21.13 17.8299 24.93 16.3799 26.42C17.3099 24.79 18.2899 23.06 19.2499 21.37C19.7199 20.55 20.1899 19.74 20.6399 18.97C21.2599 18.12 21.8699 17.29 22.3699 16.6L22.5999 16.35C23.3499 15.49 24.1299 14.61 24.8799 13.76C24.2599 15.19 23.6799 16.67 23.1899 18.22C21.9699 20.11 21.5699 20.73 21.3699 21.05L21.3799 21.04Z" fill="#A8A8A8"/>
<path d="M24.5499 10.2499C25.1199 9.20993 21.8599 13.3199 23.4099 10.8799C24.6099 9.09993 25.9299 7.12993 27.2399 5.18993C28.1399 4.43993 29.0799 3.51993 29.8999 2.67993C29.0999 3.84993 28.1799 5.20993 27.3799 6.37993C26.6899 7.32993 26.0599 8.20993 25.3999 9.11993C25.2299 9.34993 24.8899 9.79993 24.5499 10.2499Z" fill="#A8A8A8"/>
<path d="M11.52 10.74C11.22 10.14 10.3 10.01 11.3 7.02995C12.1 6.55995 12.78 6.15995 13.57 5.69995C12.91 7.29995 12.25 9.08995 11.52 10.74Z" fill="#A8A8A8"/>
<path d="M-21.7901 18.3199C-20.9101 15.1099 -19.9701 12.0799 -19.2001 8.91991C-18.5401 7.34991 -17.7701 5.79991 -17.2401 4.57991C-16.7301 -0.580086 -14.84 -7.92009 -16.3 -11.4001L-16.1501 -13.9401L-16.23 -15.1001L-16.37 -17.4301L11.66 -0.840084L11.93 0.199909L11.88 0.219913C11.88 0.219913 11.81 0.219913 11.77 0.219913C11.71 0.229913 11.71 0.119913 11.58 0.219913C11.46 0.289913 11.34 0.35991 11.22 0.41991C10.16 0.70991 8.22995 2.19991 6.35995 3.99991C6.19995 5.47991 6.09995 6.77991 6.08995 8.39991C5.47995 8.92991 4.89995 9.43991 4.30995 9.93991C3.71995 10.4699 3.14995 11.0899 2.53995 11.6899C2.23995 10.3399 1.93995 8.99991 1.68995 7.83991C2.67995 7.26991 3.12995 6.48991 3.65995 5.64991C4.18995 4.83991 4.81995 4.10991 6.02995 3.51991L4.49995 1.21991C5.10995 -0.170087 5.84995 -1.88009 6.48995 -3.08009C8.23995 -4.63009 9.30995 -4.83009 9.50995 -6.75009L9.78995 -6.86009L-9.10005 -18.5901L-8.96005 -15.4501L-8.92005 -14.6701C-8.92005 -14.3601 -8.97005 -13.8101 -8.99005 -13.3801L-9.14005 -10.6601C-9.43005 -9.51009 -9.63005 -8.38009 -10 -7.18009C-10.44 -5.94009 -10.8801 -4.70009 -11.3301 -3.44009C-11.7901 -2.15009 -12.26 -0.850089 -12.73 0.459911C-13.34 1.86991 -13.95 3.28992 -14.57 4.72992C-14.12 4.72992 -13.77 4.72992 -13.43 4.72992C-13.18 5.01992 -13.02 5.57991 -12.64 5.82991C-13.06 7.21991 -13.64 8.69991 -14.18 10.1699C-15.56 12.5999 -16.8 15.0499 -18.18 17.6399C-19.44 17.9099 -20.55 18.1099 -21.8 18.3199H-21.7901Z" fill="#A8A8A8"/>
<path d="M33.57 23.7201C33.06 24.7301 31.36 28.7701 31.04 27.6301C31.16 25.8701 31.39 24.0101 31.7 22.0701C32.52 20.5101 33.47 18.7001 34.3 17.1401C34.42 17.1201 34.54 17.1001 34.7 17.0801C34.27 19.2201 33.9 21.5101 33.57 23.7301V23.7201Z" fill="#848484"/>
<path d="M19.5899 18.6599C18.4599 19.9999 17.1999 21.5099 16.1599 22.6699C19.0299 18.3399 21.8699 14.1299 24.5499 10.2599C24.8899 9.79989 25.2299 9.34988 25.3999 9.12988C24.7599 10.4199 24.0399 11.8599 23.5299 13.0599C21.9599 15.3699 20.8699 16.8999 19.5899 18.6599Z" fill="#848484"/>
<path d="M75.2299 50.8101C76.4899 49.1301 75.2099 47.6401 75.1599 46.0101C76.1199 43.3301 77.1199 40.6901 78.1499 38.0601C79.0499 38.6001 80.0599 39.1901 81.0599 39.7901C81.9999 39.9401 82.8599 40.2501 83.7899 40.4001L83.2099 44.8201C82.0299 47.6601 80.8399 50.2801 79.6999 53.0801C78.2399 52.3401 76.7899 51.6001 75.2299 50.8001V50.8101Z" fill="#979797"/>
<path d="M45.6601 32.9401C45.2101 32.5901 44.7501 32.4001 44.3201 32.2001C44.6501 28.2401 46.9601 27.7201 49.1401 27.3201C48.0001 29.1101 46.8101 30.9401 45.6601 32.9301V32.9401Z" fill="#979797"/>
<path d="M40.31 39.95C38.86 40.97 38.04 41.53 36.09 44.64C34.99 45.05 33.83 45.49 32.75 46.03C33.07 44.92 33.38 43.81 33.71 42.69C35.5 40.26 37.6 38.67 39.68 34.49C40.56 34.25 41.48 33.98 42.37 33.55C41.72 35.7 41.06 37.71 40.32 39.95H40.31Z" fill="#979797"/>
<path d="M37.6201 17.3299C36.6701 17.4599 36.0101 22.3299 34.8901 23.9999C34.4301 23.9999 34.0201 23.7599 33.5601 23.7199C33.8901 21.4999 34.2601 19.2199 34.6901 17.0699C35.6901 15.2999 36.0101 15.2499 36.8701 13.3199C37.3301 13.2599 37.8601 13.1499 38.4201 13.0199C38.5501 12.9799 38.6801 12.9499 38.8601 12.8999C38.4201 14.4499 38.0501 15.7799 37.6101 17.3299H37.6201Z" fill="#979797"/>
<path d="M19.5901 18.6601C20.8601 16.8901 21.9601 15.3601 23.5301 13.0601C23.3201 13.6601 23.1201 14.2701 22.9601 14.8801C22.3201 16.0001 21.6801 17.1101 20.9301 18.4001C17.9701 22.7101 17.8901 22.0701 14.8601 26.4001C16.5401 23.6601 18.0801 21.1501 19.6001 18.6601H19.5901Z" fill="#979797"/>
<path d="M6.03999 3.51996C4.82999 4.10996 4.18999 4.82996 3.66999 5.64996C3.13999 6.48996 2.68999 7.27996 1.69999 7.83996C1.95999 8.99996 2.25999 10.34 2.54999 11.69C2.35999 11.88 2.26999 11.97 2.07999 12.16C-1.37001 13.8 -0.600011 15.3 -1.41001 16.02C-2.48001 14.58 -3.14001 17.28 -4.34001 16.94C-5.37001 16.76 -6.32001 16.47 -7.26001 16.19C-7.26001 15.99 -7.24001 15.6 -7.22001 15.21C-6.13001 13.57 -5.13001 12.07 -3.95001 10.55C-3.33001 9.60996 -2.46001 8.90996 -1.92001 8.03996C-1.37001 7.17996 -1.14001 6.12996 -1.52001 4.74996C-1.41001 4.64996 -1.20001 4.45996 -1.10001 4.36996C-0.17001 3.85996 0.679988 3.27996 1.54999 2.82996C2.39999 2.39996 3.23999 1.96996 4.10999 1.51996C4.20999 1.44996 4.40999 1.26996 4.50999 1.20996L6.03999 3.50996V3.51996Z" fill="#979797"/>
<path d="M43.53 65.6499C42.11 63.1499 43.81 60.0399 44.76 58.2699C45.16 56.4199 45.52 54.7799 45.93 52.9299C47.36 54.1199 48.23 56.1999 46.21 59.0599C45.36 61.3199 44.47 63.3599 43.54 65.6499H43.53Z" fill="#D5D5D5"/>
<path d="M74.88 67.5599C74.77 65.7299 74.65 63.7399 74.52 61.6799C76.09 59.5499 77.68 57.1099 79.2 54.6599C79.95 56.0999 80.17 57.2299 80.41 58.3399C79.24 62.4699 77.56 65.6299 74.88 67.5599Z" fill="#D5D5D5"/>
</g>
</g>
</svg>
