<svg width="55" height="19" viewBox="0 0 55 19" fill="none" xmlns="http://www.w3.org/2000/svg">
<path d="M54.7255 7.93371C54.4269 7.8484 54.1426 7.8484 53.8866 7.90527C52.3795 7.8484 50.4743 7.66356 49.0098 6.99531C48.043 6.55455 47.3321 5.85786 47.1473 5.17539C47.0477 4.80572 47.1046 4.45027 47.3321 4.13747C47.4174 4.02373 47.4174 3.88154 47.3605 3.7678C47.2894 3.65405 47.1615 3.56875 47.0335 3.58296C45.0714 3.68249 43.2799 2.78675 41.3747 1.84835C39.5406 0.938395 37.6638 0 35.6164 0C35.5168 0 35.4315 0.0426543 35.3604 0.113745C35.2893 0.184835 35.2609 0.270144 35.2609 0.369671C35.2609 0.75356 35.204 1.13745 35.1329 1.53556C35.0619 1.94788 34.9766 2.38864 34.9908 2.84362C34.9908 3.02846 35.1472 3.18486 35.332 3.18486C37.9339 3.27017 41.5738 4.62089 41.9576 6.01426C42.0287 6.29862 42.0287 6.49768 41.915 6.65408C41.787 6.85313 41.5027 7.03796 41.0335 7.23702C39.8534 7.74887 38.4173 7.99058 37.0382 8.23229C36.2704 8.36025 35.46 8.50243 34.6922 8.68727C34.223 8.80101 33.7538 8.92897 33.2988 9.07115C32.7017 9.24177 32.0903 9.41239 31.4647 9.54035C30.6685 9.69675 29.9291 9.76784 29.2751 9.7394C29.2751 9.7394 29.2751 9.72519 29.2751 9.71097C29.2609 9.54035 29.1187 9.39817 28.9481 9.38395C28.6068 9.35552 28.2656 9.42661 27.9812 9.56879C27.0855 9.71097 26.1329 9.7394 25.1945 9.76784C24.7395 9.76784 24.2845 9.79628 23.858 9.71097C23.6163 9.66831 23.3746 9.58301 23.1471 9.51192C23.0049 9.46926 22.8627 9.41239 22.7205 9.36973C22.0096 9.15646 21.2419 9.09959 20.5025 9.0285L20.2324 9.00006C16.9622 8.70148 14.3887 8.0901 12.3698 7.16593L11.9432 6.96687C11.4882 6.7536 11.0333 6.52611 10.5072 6.36971C10.3792 6.32706 10.2513 6.29862 10.1091 6.25597C9.88159 6.1991 9.63988 6.12801 9.42661 6.0427C9.14224 5.91473 9.0285 5.78677 9.0285 5.74412C9.0285 5.63037 9.48348 5.4171 9.71097 5.30336C9.93846 5.18961 10.1659 5.09008 10.365 4.9479C10.5498 4.81994 10.692 4.66354 10.82 4.53558C10.9053 4.43605 10.9906 4.35074 11.1043 4.26543C11.1328 4.25121 11.1612 4.22278 11.1897 4.20856C11.3318 4.16591 11.4882 4.10903 11.602 3.99529C11.602 3.99529 11.6304 3.96685 11.6304 3.95263C11.9006 3.83889 12.1991 3.73936 12.5262 3.63984C12.8105 3.55453 13.0949 3.455 13.3508 3.35547C13.8484 3.15642 15.512 2.44551 15.9954 1.62086C16.0807 1.46447 16.0522 1.26541 15.8958 1.15167C15.7537 1.03792 15.5404 1.06636 15.4266 1.19432C15.0712 1.56399 14.0191 2.04741 13.2939 2.24646C13.1518 2.28912 12.9954 2.31755 12.8532 2.34599C12.6115 2.40286 12.3555 2.45973 12.128 2.53082C11.7442 2.65879 11.2607 2.90049 11.1186 3.32704C11.1186 3.32704 11.1186 3.36969 11.1186 3.39813C11.0475 3.44078 10.9764 3.48344 10.9053 3.51187C10.8769 3.51187 10.8626 3.51187 10.8342 3.51187C9.48348 3.7678 7.96214 4.09482 6.82469 4.87681C5.91473 5.50241 5.23226 6.2844 4.56401 7.03796C3.42656 8.33181 2.34599 9.55457 0.29858 9.92424C0.199054 9.93846 0.113745 10.0095 0.0568724 10.0949C0 10.1802 -0.0142181 10.2939 0.0142181 10.3792C0.341235 11.4598 1.06636 12.4977 2.10428 13.3792C2.17537 13.4361 2.2749 13.4646 2.37442 13.4646L4.69198 13.2371C4.87681 14.1044 6.07113 14.7442 7.35076 15.0285C7.76309 15.1139 8.18963 15.1992 8.63039 15.2702C9.52613 15.4124 10.365 15.5546 11.0617 15.8816L11.2607 15.9812C11.474 16.0949 11.7299 16.2229 12.0285 16.2797C12.5688 16.3935 13.1375 16.2797 13.7063 16.1802C18.5404 15.2703 23.9149 16.1518 28.2372 16.8769C30.0429 17.1755 31.9054 17.4883 33.5405 18.0712C33.5832 18.0712 33.6258 18.0854 33.6543 18.0854C33.7111 18.0854 33.768 18.0854 33.8107 18.0428C33.896 18.0001 33.9671 17.929 33.9955 17.8295L34.3225 16.7916C36.5832 17.2181 38.8723 17.4598 40.5358 16.5783C40.8486 16.4077 41.1188 16.2086 41.3747 16.0238C41.6591 15.8105 41.9434 15.6115 42.2704 15.4551C42.9387 15.1565 43.8629 15.0428 44.7444 14.9432C46.0667 14.8011 47.3036 14.6589 47.9861 13.8911C48.3131 13.5214 48.4269 13.0664 48.5122 12.6826C48.6402 12.0996 48.7397 11.7868 49.2515 11.6162C49.8914 11.4029 50.8013 11.6162 51.5975 11.3887C52.5928 11.0759 52.8061 10.2655 52.9625 9.66831L53.0193 9.44082C53.1189 9.08537 53.5028 8.68727 53.972 8.5593C54.1994 8.5593 54.4269 8.5593 54.6402 8.57352C54.8108 8.57352 54.9672 8.44556 54.9956 8.27494C55.0241 8.10432 54.9103 7.93371 54.7397 7.87683L54.7255 7.93371Z" fill="#141414"/>
</svg>
