<svg width="55" height="32" viewBox="0 0 55 32" fill="none" xmlns="http://www.w3.org/2000/svg">
<path d="M17.2507 1.4793C18.6462 1.78194 21.0505 1.91645 22.4965 2.05096C23.8416 2.18547 25.4053 2.1014 26.2459 1.3616C26.2964 1.96689 26.9353 2.52174 27.7592 2.68988C27.86 2.43767 27.9609 2.18547 28.045 1.93326C29.0706 2.52174 30.567 2.15184 31.8785 1.9837C32.3661 1.91645 32.8537 1.88282 33.3413 1.86601C33.5935 1.86601 33.8289 1.83238 34.0811 1.81557C35.0563 1.74831 36.0651 1.69787 37.0234 1.81557C37.0234 1.15984 37.7801 0.537736 38.7216 0.436855C39.6632 0.335973 40.6552 0.773127 40.941 1.39523C41.0755 1.68106 41.0587 1.9837 41.0923 2.26954C41.3109 4.573 43.5471 6.57381 44.1692 8.84365C44.7913 11.1639 43.6816 13.5346 43.8329 15.8885C43.8329 14.2744 44.0683 12.6603 44.5896 11.0799C45.7497 12.778 47.078 14.4258 48.5576 16.0062C49.5328 17.0319 50.592 18.0407 51.9203 18.8477C53.1309 19.5707 54.7281 20.3441 54.5432 21.4538C53.3831 21.1848 52.1389 21.2521 50.9283 21.3193C49.7345 21.3866 48.2885 21.6052 47.9355 22.3954C47.2965 21.4034 46.6408 20.4282 46.0019 19.4362C47.1284 21.1512 48.2717 22.8662 49.3982 24.5643L48.0532 24.682C48.07 25.136 48.1036 25.59 48.1204 26.0439C46.4727 25.859 44.8418 25.674 43.194 25.5059C42.9082 25.4723 42.5887 25.4387 42.387 25.2705C42.0675 25.0183 42.2188 24.6484 42.202 24.3121C42.202 23.6396 41.3782 23.0175 40.403 22.9502C40.6552 23.6228 40.941 24.2953 41.2605 24.9679C39.5455 25.1865 38.8729 26.8174 37.2084 27.1536C36.2668 27.3386 35.1067 27.0864 34.3501 27.5067C34.3501 27.1368 34.3669 26.7669 34.1483 26.4307C33.9297 26.0944 33.3749 25.8422 32.8873 25.9599C32.3325 26.0776 31.9289 26.582 31.3741 26.4475C31.0714 26.3802 30.9369 26.1448 30.8529 25.9262C28.8352 21.5883 27.8769 17.0319 27.9777 12.4754C28.2972 18.5115 29.7432 24.5139 32.2484 30.2978C31.0042 30.7013 29.4237 30.55 28.4149 29.8943C27.4901 29.3058 26.6999 28.2801 25.4725 28.4819C25.1699 28.5324 24.9009 28.6669 24.5982 28.6669C24.0602 28.6669 23.6735 28.297 23.5221 27.9271C23.3708 27.5572 23.3372 27.1705 23.0345 26.851C22.3452 26.1616 20.8488 26.3466 19.655 26.1953C18.5958 26.0439 17.6542 25.5732 16.5613 25.4891C14.3419 25.3041 12.4084 26.8006 10.1722 26.6829C9.9872 26.313 10.3403 25.9094 10.6429 25.5732C12.7614 23.2697 13.8207 20.4955 13.6021 17.7548C13.7871 19.7388 12.9968 21.7733 11.3995 23.421C11.2482 23.5892 11.0633 23.7573 10.7943 23.8077C10.5084 23.8582 10.2058 23.7741 9.91995 23.7741C9.07927 23.7741 8.57486 24.5139 7.751 24.5812C7.31385 24.6148 6.89351 24.4467 6.47317 24.4971C5.66611 24.598 5.16171 25.4218 4.37147 25.2873C3.81662 25.1864 3.63167 24.6989 3.14408 24.4971C2.35384 24.1776 1.07601 24.6989 0.554785 24.1776C-0.0505043 23.5555 1.64767 22.9334 1.63085 22.1936C1.27777 22.0759 1.07601 21.7901 1.16007 21.5211C2.43791 21.3866 3.1777 20.4618 3.68211 19.638C6.32184 15.3673 7.95276 10.8445 9.55005 6.33842C8.75981 10.4746 7.98639 14.6107 7.19615 18.73C8.20497 15.6868 8.81025 12.5763 9.02883 9.44894C9.09608 8.59144 9.12971 7.71714 9.4828 6.91008C9.83588 6.10303 10.5757 5.31279 11.6854 4.9429C12.1057 4.80839 12.5765 4.72432 12.9296 4.50574C13.2154 4.32079 13.3835 4.06859 13.5517 3.81639C14.0729 2.95889 14.4764 2.06777 15.3171 1.34479C15.8383 0.907635 15.5861 0.722686 16.3932 0.604991C17.9064 0.403228 17.5365 0.7395 17.2507 1.46248V1.4793Z" fill="#141414"/>
<path d="M30.7857 30.9704C29.8441 30.9704 28.8857 30.735 28.1796 30.281C27.9274 30.1297 27.692 29.9447 27.4566 29.743C26.8177 29.2386 26.246 28.8014 25.5398 28.9191C25.439 28.9191 25.3381 28.9695 25.254 28.9864C25.0691 29.0368 24.8505 29.104 24.6151 29.104C23.8921 29.104 23.3709 28.5996 23.1691 28.112C23.1187 27.9943 23.0851 27.8598 23.0346 27.7421C22.9674 27.5068 22.9001 27.3218 22.7656 27.1705C22.3789 26.7838 21.5382 26.7501 20.7311 26.7165C20.3612 26.6997 19.9914 26.6829 19.6383 26.6325C19.117 26.5652 18.6294 26.4139 18.1419 26.2794C17.6038 26.128 17.0994 25.9767 16.5614 25.9263C15.5189 25.8422 14.5269 26.1617 13.4845 26.4979C12.4421 26.8342 11.366 27.1705 10.189 27.12C10.0377 27.12 9.9032 27.0192 9.83595 26.8847C9.5333 26.2457 10.0545 25.6573 10.374 25.321C10.7439 24.9175 11.097 24.4803 11.3996 24.0432C11.2651 24.1272 11.097 24.2113 10.912 24.2449C10.6766 24.2954 10.458 24.2617 10.2563 24.2449C10.1554 24.2449 10.0545 24.2113 9.95364 24.2281C9.63418 24.2281 9.36517 24.3962 9.04571 24.5644C8.69262 24.7661 8.30591 24.9847 7.8015 25.0183C7.5493 25.0183 7.33072 25.0015 7.09533 24.9679C6.89357 24.9343 6.70862 24.9175 6.54048 24.9343C6.27147 24.9679 6.01926 25.1192 5.76706 25.2874C5.36353 25.5396 4.92638 25.8254 4.32109 25.7245C3.88394 25.6573 3.61492 25.4051 3.39634 25.2033C3.26184 25.0688 3.14414 24.9679 2.99282 24.9007C2.7238 24.783 2.32027 24.8166 1.93356 24.8334C1.32827 24.867 0.689357 24.9007 0.269017 24.4803C0.0336272 24.2785 0 24.0432 0 23.8918C0 23.4715 0.353085 23.152 0.70617 22.8326C0.840679 22.7149 1.02563 22.5468 1.12651 22.3954C0.807052 22.1432 0.65573 21.7733 0.756611 21.4034C0.807052 21.2353 0.941561 21.1176 1.1097 21.1008C2.21939 20.9831 2.8415 20.176 3.32909 19.4194C5.95201 15.1824 7.58293 10.6091 9.1634 6.18713C9.23066 6.00218 9.41561 5.88449 9.61737 5.91812C10.105 5.29601 10.7943 4.80842 11.5846 4.55621C11.7191 4.50577 11.8536 4.47215 11.9881 4.43852C12.2739 4.35445 12.5429 4.2872 12.7279 4.1695C12.9465 4.03499 13.0642 3.85004 13.1987 3.61465C13.2995 3.44652 13.4004 3.27838 13.4845 3.11025C13.888 2.40408 14.3084 1.66428 15.0482 1.04218C15.1827 0.924481 15.2499 0.840413 15.3172 0.756345C15.5358 0.453701 15.7375 0.302378 16.3428 0.218311C17.133 0.117429 17.587 0.117429 17.8224 0.436887C17.9905 0.672277 17.9401 0.924481 17.856 1.17668C18.848 1.34482 20.1763 1.4457 21.286 1.52977C21.74 1.5634 22.1771 1.59702 22.547 1.63065C24.1443 1.78197 25.3717 1.58021 25.977 1.04218C26.0947 0.941295 26.2628 0.907667 26.4141 0.974922C26.5655 1.04218 26.6663 1.17668 26.6832 1.32801C26.7168 1.66428 27.0531 2.00055 27.5238 2.1855L27.6752 1.79879C27.7256 1.68109 27.8097 1.59702 27.9274 1.54658C28.0451 1.51296 28.1628 1.51296 28.2804 1.58021C29.0202 2.00055 30.1131 1.83241 31.1892 1.66428C31.4078 1.63065 31.6264 1.59702 31.8449 1.5634C32.3325 1.49614 32.8369 1.46252 33.3413 1.4457L34.0811 1.39526C34.9386 1.34482 35.8297 1.29438 36.7209 1.36163C36.9731 0.672277 37.7465 0.117429 38.7049 0.0165475C39.8314 -0.101148 40.9915 0.420074 41.3446 1.22713C41.4791 1.52977 41.4959 1.8156 41.5127 2.0678V2.23594C41.6304 3.41289 42.3198 4.52259 43.0596 5.68272C43.6649 6.65791 44.287 7.66673 44.5896 8.7428C44.7746 9.39853 44.8082 10.0543 44.7914 10.71C44.8586 10.7436 44.9091 10.7941 44.9427 10.8445C46.086 12.5259 47.4143 14.1568 48.8771 15.7204C49.785 16.6788 50.8106 17.6876 52.1557 18.4947L52.5593 18.7301C53.7867 19.4531 55.1822 20.2601 54.9804 21.5379C54.9636 21.6556 54.8964 21.7565 54.7955 21.8238C54.6946 21.891 54.5769 21.9078 54.4592 21.891C53.3495 21.622 52.0885 21.7061 50.962 21.7733C49.4151 21.8742 48.7426 22.1432 48.4567 22.4122L49.7514 24.3794C49.8355 24.4971 49.8523 24.6653 49.785 24.7998C49.7178 24.9343 49.5833 25.0183 49.4487 25.0352L48.5072 25.1192L48.5576 26.0776C48.5576 26.1953 48.524 26.313 48.4231 26.3971C48.3391 26.4811 48.2045 26.5316 48.0868 26.5148L43.1605 25.9767C42.7906 25.9431 42.4207 25.8758 42.1348 25.6573C41.7145 25.321 41.7481 24.8502 41.7818 24.5812C41.7818 24.5139 41.7818 24.4467 41.7818 24.3794C41.7818 24.1104 41.5127 23.791 41.0924 23.606C41.2605 24.0263 41.4455 24.4467 41.6472 24.8502C41.6977 24.9679 41.6977 25.1192 41.6472 25.2369C41.58 25.3546 41.4623 25.4387 41.3278 25.4555C40.5712 25.5564 40.0163 25.9935 39.4447 26.4643C38.8394 26.9519 38.2173 27.4563 37.3093 27.6413C36.889 27.7253 36.4687 27.7253 36.0483 27.7253C35.4767 27.7253 34.9386 27.7253 34.5687 27.9439C34.4342 28.0112 34.2829 28.0112 34.1484 27.9439C34.0139 27.8598 33.9466 27.7253 33.9466 27.574C33.9466 27.2209 33.9466 26.9519 33.8121 26.7501C33.6776 26.5484 33.2909 26.3802 32.9714 26.4475C32.8201 26.4811 32.652 26.5652 32.4838 26.6661C32.1812 26.8342 31.7945 27.036 31.3405 26.9519C31.7272 28.0448 32.1644 29.1377 32.6352 30.2137C32.6856 30.3146 32.6856 30.4491 32.6352 30.55C32.5847 30.6509 32.5007 30.735 32.383 30.7854C31.8954 30.9535 31.3405 31.0376 30.8025 31.0376L30.7857 30.9704Z" fill="#141414"/>
</svg>
