<svg width="75" height="76" viewBox="0 0 75 76" fill="none" xmlns="http://www.w3.org/2000/svg">
<path d="M44.7582 13C44.4219 16.3085 44.8764 33.2058 43.3221 36.1416C41.7678 39.0775 38.8228 41.5044 35.5052 41.4953C32.2966 41.4953 29.4335 39.2048 27.8519 36.4052C26.2704 33.6057 26.6339 16.1813 26.2158 13H44.7582Z" fill="#141414"/>
<path d="M40.6868 26.9704C40.8504 31.5151 41.1049 36.3325 43.6681 40.0864C45.5223 42.795 48.3673 44.622 51.1941 46.2854C54.0209 47.9487 56.9568 49.5576 59.1474 51.9935C61.3379 54.4295 62.6831 57.9289 61.656 61.0375C60.2108 55.393 56.1842 50.4756 50.9487 47.9306C48.4219 46.7035 45.6041 45.9763 43.4409 44.1857C41.2776 42.386 40.0323 39.6774 39.4688 36.9233C38.9961 34.5873 38.9416 30.6062 39.1143 28.2247L40.6777 26.9613L40.6868 26.9704Z" fill="#141414"/>
<path d="M37.5865 36.3416C36.6958 38.6413 34.3053 39.9865 31.9875 40.8318C29.6697 41.6771 27.1701 42.2407 25.225 43.7586C23.5798 45.0402 22.489 46.8945 21.5347 48.7487C20.5803 50.6029 19.7077 52.5299 18.3624 54.1205C17.0172 55.7112 15.0903 56.9655 13.0088 56.9473C13.1542 55.4112 14.8267 54.6204 16.0083 53.6297C17.9534 51.9936 18.7624 49.4213 20.0349 47.2217C21.6346 44.4403 24.0342 42.1952 26.6702 40.3683C29.3061 38.5413 32.1965 37.1324 35.0779 35.7145L37.5956 36.3416H37.5865Z" fill="#141414"/>
<path d="M33.3333 40.1409C30.3247 45.94 29.7611 53.2297 31.8153 59.4377C32.7424 62.2554 34.2058 65.0459 33.9968 68.009C31.9062 60.5739 31.7881 52.5934 33.6787 45.1037C34.1695 43.1495 34.7967 41.2226 35.4238 39.3047" fill="#141414"/>
<path d="M45.1217 44.9947C45.0763 42.9314 45.1035 44.5402 45.0672 45.0492C45.0399 45.3764 45.0036 45.7127 44.9672 46.04C44.8854 46.7307 44.7854 47.4215 44.6673 48.1123C44.4491 49.4485 44.2037 50.7846 43.9674 52.1208C43.9037 52.4753 43.9583 52.8934 43.9583 53.2569C43.9583 53.6205 44.031 54.0386 43.9674 54.3931C44.2855 52.5843 44.64 50.7755 44.8854 48.9486C45.149 46.9852 45.1763 45.0128 45.1308 43.0314C45.1217 42.6042 45.1126 43.404 45.1126 43.4404C45.1126 43.9585 45.1126 44.4766 45.1126 44.9947H45.1217Z" fill="#141414"/>
<path d="M44.8402 49.2304C45.9401 50.4211 46.8581 51.7845 47.5489 53.2479C47.5307 53.2024 47.5489 52.9297 47.5489 52.9116C47.5489 52.648 47.5489 52.3753 47.5489 52.1117C47.5489 51.8481 47.5489 51.5754 47.5489 51.3118C47.5489 51.2209 47.5762 51.0573 47.5489 50.9755C46.8581 49.503 45.9401 48.1487 44.8402 46.958C44.8584 46.9762 44.8402 47.3216 44.8402 47.2943C44.8402 47.5579 44.8402 47.8306 44.8402 48.0942C44.8402 48.3578 44.8402 48.6305 44.8402 48.8941C44.8402 48.9577 44.813 49.1849 44.8402 49.2304Z" fill="#141414"/>
<path d="M46.0305 45.6037C46.7667 45.6582 47.503 45.8582 48.2301 46.0218C49.239 46.249 50.2389 46.4853 51.2387 46.7126C51.9386 46.8671 52.6567 47.058 53.3747 47.1125C54.8199 47.2307 56.4015 47.3215 57.3014 48.6395C57.2832 48.6122 57.3014 48.2941 57.3014 48.3032C57.3014 48.0396 57.3014 47.7669 57.3014 47.5033C57.3014 47.2397 57.3014 46.9671 57.3014 46.7035C57.3014 46.6308 57.3286 46.4308 57.3014 46.3672C56.4015 45.0492 54.8199 44.9583 53.3747 44.8401C52.6567 44.7765 51.9386 44.5947 51.2387 44.4402C50.2298 44.213 49.23 43.9766 48.2301 43.7494C47.5121 43.5858 46.7758 43.3858 46.0305 43.3313C46.0668 43.3313 45.9578 45.5946 46.0305 45.6037Z" fill="#141414"/>
<path d="M59.129 54.6113C60.747 54.0841 62.6012 54.5295 63.8101 55.7384C63.7919 55.7202 63.8101 55.3748 63.8101 55.4021C63.8101 55.1385 63.8101 54.8658 63.8101 54.6022C63.8101 54.3386 63.8101 54.0659 63.8101 53.8023C63.8101 53.7387 63.8374 53.5115 63.8101 53.466C62.6012 52.2571 60.756 51.8117 59.129 52.3389C59.12 52.3389 59.129 52.7207 59.129 52.6752C59.129 52.9388 59.129 53.2115 59.129 53.4751C59.129 53.7387 59.129 54.0114 59.129 54.275C59.129 54.3113 59.1472 54.6022 59.129 54.6113Z" fill="#141414"/>
<path d="M58.1289 51.3573C57.4199 52.4026 56.7019 53.4751 56.3928 54.7113C56.2201 55.393 56.2201 56.0838 56.211 56.7837C56.211 57.6926 56.1656 58.6288 56.3383 59.5196C56.3201 59.4287 56.3383 59.2651 56.3383 59.1833C56.3383 58.9197 56.3383 58.647 56.3383 58.3834C56.3383 58.0198 56.4019 57.6017 56.3292 57.2472C56.2747 56.9836 56.2383 56.711 56.2201 56.4383C56.1565 55.5475 56.1474 58.9379 56.2201 57.9017C56.2292 57.7653 56.2474 57.629 56.2656 57.5017C56.3383 57.0291 56.4655 56.5655 56.6473 56.1292C57.02 55.2294 57.5654 54.4295 58.1016 53.6297C58.1289 53.5842 58.1016 53.3024 58.1016 53.2933C58.1016 53.0298 58.1016 52.7571 58.1016 52.4935C58.1016 52.2299 58.1016 51.9572 58.1016 51.6936C58.1016 51.63 58.0653 51.4118 58.1016 51.3573H58.1289Z" fill="#141414"/>
<path d="M31.2879 50.3666C28.8428 51.7391 27.1613 54.275 26.8432 57.0564C26.7977 57.429 26.8341 57.8199 26.8341 58.1926C26.8341 58.5652 26.8886 58.9652 26.8432 59.3287C27.1613 56.5474 28.8428 54.0114 31.2879 52.6389C31.3061 52.6298 31.2879 52.2663 31.2879 52.3026C31.2879 52.039 31.2879 51.7663 31.2879 51.5028C31.2879 51.2392 31.2879 50.9665 31.2879 50.7029C31.2879 50.6665 31.2606 50.3757 31.2879 50.3666Z" fill="#141414"/>
<path d="M29.2517 39.0684C28.8881 40.8499 28.5609 42.6405 28.17 44.4129C27.8882 45.6945 27.4701 47.067 26.3067 47.8215C26.2067 47.8851 26.2976 48.8213 26.2976 48.9576C26.2976 49.2212 26.2976 49.4939 26.2976 49.7575C26.2976 49.8029 26.3249 50.0756 26.2976 50.0938C27.461 49.3485 27.8882 47.9669 28.1609 46.6853C28.5518 44.9128 28.879 43.1222 29.2426 41.3407C29.3153 40.9862 29.2517 40.559 29.2517 40.2045C29.2517 39.85 29.1699 39.4138 29.2426 39.0684H29.2517Z" fill="#141414"/>
<path d="M32.0062 56.002C30.5973 57.1564 29.1157 58.3743 28.3159 60.0559C27.9523 60.8285 27.7796 61.6374 27.7614 62.4828C27.7432 63.628 27.616 64.8733 27.9977 65.9731C27.9795 65.9095 27.9977 65.6822 27.9977 65.6368C27.9977 65.3732 27.9977 65.1005 27.9977 64.8369C27.9977 64.5733 27.9977 64.3006 27.9977 64.037C27.9977 63.9371 28.025 63.7916 27.9977 63.7007C27.9432 63.5462 27.8977 63.3826 27.8614 63.219C27.8432 63.1372 27.825 63.0554 27.8159 62.9736C27.8068 62.9009 27.7978 62.8191 27.7887 62.7463C27.7523 62.3646 27.7523 62.61 27.7796 63.4917C27.7796 65.1732 27.8159 63.828 27.9432 63.3281C28.1341 62.6282 28.4522 61.9737 28.8612 61.3829C29.7065 60.1559 30.87 59.2015 32.0062 58.2653C32.0243 58.2471 32.0062 57.9108 32.0062 57.929C32.0062 57.6654 32.0062 57.3927 32.0062 57.1291C32.0062 56.8655 32.0062 56.5928 32.0062 56.3292C32.0062 56.2838 31.9698 56.0202 32.0062 55.9929V56.002Z" fill="#141414"/>
<path d="M37.0957 42.2134C39.3317 45.5674 39.6771 49.9939 37.9865 53.6479C38.3046 52.9661 38.8318 52.3844 39.15 51.6936C40.8315 48.0397 40.4861 43.6131 38.2592 40.2592C38.2955 40.3137 37.7229 41.1408 37.6684 41.2317C37.6048 41.3317 37.0321 42.1225 37.0957 42.2134Z" fill="#141414"/>
<path d="M40.0051 45.8945C39.0507 46.1218 38.169 46.5762 37.4328 47.2216C37.0783 47.5306 36.7511 47.8851 36.4784 48.276C35.9148 49.0667 35.4331 49.9302 34.9695 50.7846C34.8968 50.9119 35.0786 50.6301 35.0332 50.6937C35.1513 50.5029 35.2695 50.3029 35.3876 50.112C35.624 49.7121 35.8694 49.3121 36.0966 48.9122C36.4875 48.1942 34.7423 51.0755 35.2786 50.2938C35.3422 50.2029 35.4058 50.1211 35.4695 50.0302C35.5876 49.8757 35.7149 49.7303 35.8512 49.5848C36.1148 49.3031 36.4148 49.0395 36.7329 48.8122C37.3691 48.3578 38.0872 48.0305 38.8507 47.8488C38.8871 47.8488 39.0325 47.5488 39.0325 47.567C39.1688 47.3397 39.3143 47.1125 39.4506 46.8762C39.587 46.6399 39.7233 46.4126 39.8596 46.1854C39.8869 46.1399 39.9869 45.9036 40.0232 45.8945H40.0051Z" fill="#141414"/>
</svg>
