<svg width="79" height="83" viewBox="0 0 79 83" fill="none" xmlns="http://www.w3.org/2000/svg">
<path d="M17.1796 34.8904C17.1796 39.6353 15.0656 43.3094 10.3207 43.3094C5.57574 43.3094 0 39.6353 0 34.8904C0 30.1455 5.82499 25.7791 10.5699 25.7791C15.3148 25.7791 17.1796 30.1455 17.1796 34.8904Z" fill="#1A1A1A"/>
<path d="M23.577 1.61136C23.577 6.35628 21.463 10.0304 16.7181 10.0304C11.9732 10.0304 6.38818 6.35628 6.38818 1.61136C6.38818 -3.13356 12.2224 -7.5 16.9673 -7.5C21.7122 -7.5 23.577 -3.13356 23.577 1.61136Z" fill="#1A1A1A"/>
<path d="M44.5875 49.8545C44.5875 54.5994 42.4735 58.2735 37.7286 58.2735C32.9837 58.2735 27.3987 54.5994 27.3987 49.8545C27.3987 45.1096 33.2237 40.7432 37.9686 40.7432C42.7135 40.7432 44.5783 45.1096 44.5783 49.8545H44.5875Z" fill="#1A1A1A"/>
<path d="M72.8263 32.3333C72.8263 37.0782 70.7123 40.7523 65.9673 40.7523C61.2224 40.7523 55.6375 37.0782 55.6375 32.3333C55.6375 27.5884 61.4624 23.2219 66.2074 23.2219C70.9523 23.2219 72.817 27.5884 72.817 32.3333H72.8263Z" fill="#1A1A1A"/>
<path d="M75.1527 66.1292C75.1527 70.8741 73.0387 74.5482 68.2938 74.5482C63.5488 74.5482 57.9639 70.8741 57.9639 66.1292C57.9639 61.3843 63.7889 57.0178 68.5338 57.0178C73.2787 57.0178 75.1434 61.3843 75.1434 66.1292H75.1527Z" fill="#1A1A1A"/>
<path d="M20.2166 78.6563C20.2166 83.4012 18.1027 87.0753 13.3577 87.0753C8.61281 87.0753 3.02783 83.4012 3.02783 78.6563C3.02783 73.9114 8.85282 69.5449 13.5977 69.5449C18.3427 69.5449 20.2074 73.9114 20.2074 78.6563H20.2166Z" fill="#1A1A1A"/>
<path d="M28.9678 15.9846C29.6232 20.6833 32.2172 24.0343 36.916 23.3789C41.6147 22.7235 46.6366 18.3293 45.9904 13.6213C45.3442 8.91335 38.9653 5.3962 34.2666 6.05163C29.5678 6.70705 28.3216 11.2766 28.9678 15.9753V15.9846Z" fill="#1A1A1A"/>
</svg>
