<svg width="83" height="83" viewBox="0 0 83 83" fill="none" xmlns="http://www.w3.org/2000/svg">
<path d="M61.4001 -20.01C63.6801 -19.36 63.6601 -17.66 61.3501 -14.89C63.0801 -13.88 63.4801 -12.14 62.9001 -10.22C60.4501 -0.649971 57.4301 8.74003 53.8301 17.94L55.4301 19.64C58.0301 20.13 57.9101 20.7 55.4301 21.62L56.0301 22.98C53.0301 31.99 49.1801 40.46 44.4801 48.4C42.8001 51.74 38.8101 53.21 39.5101 48.4C38.2101 47.28 38.5401 45.3 40.5001 42.45C38.6301 41.79 41.5401 39.28 41.4101 39.41C39.2601 42.96 35.7101 44.96 36.5201 39.47C33.9301 38.66 35.2301 35.65 37.5101 35.5C37.3701 34.75 36.8501 34.35 36.1801 34.01C32.7601 32.26 25.8501 46.64 27.5601 50.38L28.7101 52.35C24.9001 62.47 21.1601 73.02 22.0901 84.07C21.5801 88.76 20.1801 95.09 15.6201 96.99H11.6401C9.87009 95.96 9.92009 93.86 11.7901 90.68C9.39009 91.53 7.42009 90.76 6.97009 88.12C8.67009 79.98 2.32009 91.84 1.24009 95.56L-1.28991 96.99H-13.2299L-14.6599 94.91C-10.4899 86.64 -7.49991 77.92 -5.66991 68.74L-4.26991 68.23C-4.80991 67.93 -5.22991 67.67 -5.18991 67.53C-4.13991 63.62 -0.979912 56.5 1.70009 54.35C1.49009 52.63 1.76009 51.22 2.77009 49.81L17.0401 26.02L15.6301 25.59C9.59009 30.19 10.7301 23.65 13.6401 19.64C12.7201 15.83 16.5501 7.42003 20.6001 6.75003L28.5001 -11.23C30.2901 -16.63 36.4901 -22.32 37.5101 -13.85C39.3401 -16.18 41.8901 -18.66 43.4801 -15.06C44.1101 -14.23 44.7301 -13.3 44.7601 -12.22C44.8501 -9.39997 42.1901 0.550028 39.5001 1.80003C40.2601 7.19003 37.3501 14.78 33.5301 18.66C29.6701 18.44 27.4901 20.86 27.0001 25.93L24.5801 26.59C25.0601 27.08 25.4201 27.54 25.3401 27.9C24.1601 33.03 16.2301 45.18 12.1501 48.6C11.8901 48.82 11.3101 48.67 10.6501 48.41L10.5601 49.84C3.24009 58.03 8.07009 66.05 11.7401 50.77C19.8201 46.75 24.1801 38.99 27.5401 30.83L29.5501 30.56C33.7101 22.09 37.3301 13.4 40.4201 4.48003L42.4901 3.79003C40.3701 0.47003 43.7501 -13.43 48.4301 -5.49997C49.8701 -12.49 52.8601 -17.32 57.4101 -20.01C58.6101 -20.79 60.1901 -20.79 61.3901 -20.01H61.4001Z" fill="#F3F3F3"/>
<path d="M-12.22 27.5901C-15.06 22.7901 -5.62 22.0901 -9.24 27.5901L-8.43 30.9201L-13.67 47.1201L-16.2 49.4101C-14.74 50.2601 -14.46 51.9601 -15.35 54.4901C-14.21 52.3801 -12.83 51.0201 -11.22 50.4001C-14.57 48.3601 -9.61 40.4601 -6.25 40.4801C-4.93 37.9301 -3.54 38.5901 -2.26 40.9701C-1.05 38.0901 0.44 36.6201 2.23 36.5401C4.84 30.8601 11.89 25.6901 9.67 35.5201C9.97 35.9901 10.22 36.4601 10.31 36.9701C10.46 37.8501 2.34 50.8001 0.709999 51.3901C-0.0900009 56.5901 -2.84 63.8001 -6.25 67.2601C-4.99 68.8101 -6.61 74.1601 -9.23 73.2101C-10.3 74.9201 -11.96 75.1401 -14.21 73.8701C-14.87 77.6701 -15.86 81.4201 -17.19 85.1101C-14.46 87.9401 -17.76 96.8501 -22.16 97.0101H-33.1C-34.07 95.9501 -35.39 95.9501 -37.08 97.0101H-42.05L-43.5 94.8701L-37.07 77.1801C-37.55 71.7101 -33.6 62.5301 -29.11 59.3301C-30.24 57.8201 -30.06 56.0301 -28.57 53.9501C-29.73 53.7701 -30.36 53.0801 -30.89 52.1001C-32.17 49.7101 -26.24 40.5701 -24.14 38.5001C-26.53 36.6301 -23.91 32.6301 -21.16 33.5401C-19.75 31.8501 -19.09 31.8501 -19.17 33.5401L-17.74 34.3501C-16.56 30.9601 -14.71 28.7001 -12.2 27.5901H-12.22Z" fill="#F3F3F3"/>
<path d="M30.5599 80.1399C30.7499 77.0099 31.9599 75.5899 35.0999 76.4499L40.5099 76.0399C44.4299 72.0999 45.7599 72.7999 44.4899 78.1499C46.3299 78.5899 46.2099 79.4199 44.4899 80.1299C47.0599 84.3899 41.7399 94.9299 37.5299 96.9899H22.6099C21.3099 93.3199 24.5999 84.9599 28.5799 84.0999C27.9999 80.4699 28.6599 79.1499 30.5699 80.1299L30.5599 80.1399Z" fill="#F7F7F7"/>
<path d="M37.5199 35.5199C36.9999 36.5899 37.0499 38.4399 36.5299 39.4899L36.9799 43.0899C31.3699 54.7999 26.3399 67.0199 25.5499 79.7599C29.8999 78.6199 29.8699 80.6399 28.5699 84.1099C26.3999 88.1999 24.9599 92.9499 22.5999 96.9999H15.6399C16.0699 93.9599 18.2999 92.0899 19.1799 89.1199C20.9599 83.0799 19.9499 76.7699 20.8599 70.9599C21.5399 66.5899 25.8099 55.1199 27.5899 50.3899C27.2799 45.8599 28.4899 41.8399 31.0099 38.0899C32.7399 35.4999 38.6899 29.8999 37.5399 35.5199H37.5199Z" fill="#D2D2D2"/>
<path d="M70.36 26.6001C73.64 26.7001 73.32 31.3001 72.65 33.8201C68.32 41.1501 63.51 48.0701 58.23 54.5901C61.36 51.8801 64.18 61.3401 64.31 63.7201C64.45 66.2801 60.45 84.4801 56.42 76.1701C55.51 75.7701 55.09 75.1101 55.23 74.1701L47.12 96.5101L45.48 97.0001H37.52C39.83 91.1801 43.02 86.3201 44.48 80.1401C47.88 70.5001 51.03 60.6001 53.94 50.4401L67.68 27.5001L70.35 26.5901L70.36 26.6001Z" fill="#F1F1F1"/>
<path d="M80.2999 70.23C82.2899 72.66 74.3299 88.45 73.1299 89.3C72.2999 89.89 71.3799 90.14 70.3599 90.07C72.0599 93.18 68.4699 95.99 65.3899 97.01H60.4199C60.1499 96.1 59.9499 95.2 60.0199 94.32C60.2199 91.54 69.6199 69.05 71.6899 65.87C72.6399 64.41 73.8599 63.23 75.3399 62.31C77.2699 58.37 79.2499 56.72 81.3099 57.35L82.3599 59.73L78.2799 68.38L80.3099 70.24L80.2999 70.23Z" fill="#ECECEC"/>
<path d="M-1.28003 96.9999C1.53997 86.7699 9.11997 79.0799 13.5 69.5899C15.82 64.5699 16.66 59.6799 18.5 54.7399C18.97 53.4699 18.72 51.6999 20.6 51.3899C19.6 63.4199 14.81 74.0399 7.66997 83.6399C12.13 83.9499 6.57997 89.8399 10.17 89.0899C14.05 88.2799 12.91 82.9799 16.63 83.1299L11.66 97.0099H-1.27003L-1.28003 96.9999Z" fill="#DADADA"/>
<path d="M79.3101 44.4501C80.0101 42.5001 80.8101 42.0401 82.3101 43.4601C85.5201 46.4801 78.5401 59.4801 75.3301 62.3001C70.5801 73.9201 64.7701 85.2001 60.4101 97.0101H56.4301L56.0901 93.6701C60.7401 84.3201 65.1701 74.8501 69.3601 65.2801C68.2401 64.7401 68.5701 63.4201 70.3501 61.3101C69.1101 60.3001 69.2801 59.5801 69.5501 58.4201C69.7201 57.6901 76.4301 45.9801 76.9401 45.3901L79.3101 44.4601V44.4501Z" fill="#CECECE"/>
<path d="M99.2099 75.1799C99.3299 76.4599 98.3399 78.1099 96.2299 80.1399C91.1299 84.3399 88.4899 90.6799 87.2799 96.9999H72.3599C69.8199 95.0999 71.4599 92.2299 74.3499 93.0299L75.8699 90.9799C78.1299 91.3799 80.2699 90.7399 82.3099 89.0599C80.3299 86.1699 83.8399 80.2199 87.2799 80.1399C90.0999 85.3599 95.3899 74.8199 99.2199 75.1799H99.2099Z" fill="#EFEFEF"/>
<path d="M56.43 96.9999H48.47C46.94 94.7999 49.57 87.5899 52.45 87.0799L55.13 87.7399C56.49 87.7499 62.63 74.1799 62.16 72.2299C63.74 67.1099 66.14 64.7799 69.37 65.2699C65.1 75.8099 62.55 87.2099 56.44 96.9999H56.43Z" fill="#F1F1F1"/>
<path d="M56.43 76.18C57.41 80.73 56.11 84.2 52.45 87.09C51.34 90.21 49.41 93.67 48.47 97.01H45.49C50.11 86.32 51.44 73.44 58.93 64.29C60.31 67.98 57.76 72.53 56.44 76.18H56.43Z" fill="#CDCDCD"/>
<path d="M29.5599 -20.01L30.6599 -17.44C27.1199 -9.44001 23.7599 -1.37001 20.6099 6.76999C18.0799 10.97 16.5499 15.43 13.6499 19.66C14.1999 22.6 1.7799 37.92 0.3999 37.64C-2.6601 37.02 -0.0801008 27.92 1.4499 27.41L0.709898 25.61C-4.0301 26.69 -4.3801 16.52 -0.2801 16.69C2.0999 17.18 -0.0100997 19.52 -0.1701 18.98C-0.5801 17.61 4.7499 13.36 5.8299 15.03C6.9599 12.49 8.5799 10.4 10.6699 8.75999C10.8599 -0.71001 15.0399 -12.08 20.6199 -20C23.5999 -20 26.5999 -20.02 29.5699 -20L29.5599 -20.01Z" fill="#D2D2D2"/>
<path d="M33.5401 18.66L34.4901 19.95C33.1901 23.64 31.4901 27.16 29.5601 30.56C29.0401 32.36 22.2301 45.12 21.3001 46.13C19.5901 47.97 15.9101 48.01 14.1901 50.44C12.6601 52.6 11.7201 58.89 10.1901 60.35C8.81006 61.68 6.78005 60.91 5.89005 61.49C5.00005 62.07 5.00005 64.98 4.67005 65.26C3.57005 66.2 2.58006 65.39 2.66006 63.76C2.73006 62.45 6.51006 51.49 7.22006 50.42C8.52006 48.45 10.3601 48.71 10.6501 48.41C11.0701 48.68 11.4901 48.89 11.8901 48.86C13.2201 48.77 27.0201 30.2 24.5801 26.6C26.9601 21.46 26.8001 13.94 33.5301 18.67L33.5401 18.66Z" fill="#E4E4E4"/>
<path d="M61.4 -20.01C63.38 -19.93 65.39 -20.07 67.38 -20.01C67.33 -18.7 67.46 -17.35 67.38 -16.04C70.57 -15.76 69.55 -7.27997 66.39 -7.11997C65.94 -5.87997 66.1 -5.06997 67.53 -4.51997C63.25 1.00003 60.89 6.74003 60.42 12.71C62.11 15.13 58.58 20.23 55.45 19.65L50.49 20.64C54.82 9.69003 59.83 -1.50997 61.43 -13.56L57.93 -11.09C56.64 -13.95 61.5 -16.54 61.42 -20.01H61.4Z" fill="#DCDCDC"/>
<path d="M36.5299 39.49L38.0599 41.49L41.4999 38.5C42.2999 40.34 40.7299 41.58 40.5099 42.46C36.1099 53.03 32.1299 63.61 28.5699 74.19C32.3399 73.55 33.6699 77.72 30.5599 80.14C30.3399 80.38 29.0399 83.22 28.5699 84.11C29.1099 77.96 26.0399 83.3 23.5999 83.11C22.6099 81.99 25.4399 68.76 26.0699 66.25C28.5999 56.24 32.1899 48.24 36.5299 39.49Z" fill="#EBEBEB"/>
<path d="M45.4801 -20.0099C48.6201 -18.5799 46.6401 -14.3399 43.4901 -15.0499C38.7601 -15.8999 38.7201 -8.7199 35.5401 -7.1199L35.5201 -16.0299C32.7201 -19.0799 26.5501 -0.989905 25.7401 0.490095C24.2301 3.2401 21.4601 5.3501 20.6001 6.7701C20.7201 -2.9499 26.1301 -11.2999 29.5501 -19.9999C34.8301 -19.9599 40.2001 -20.2099 45.4701 -19.9999L45.4801 -20.0099Z" fill="#E9E9E9"/>
<path d="M45.48 -20.0099C49.32 -19.8599 50.16 -21.2399 48.47 -17.0399C51.28 -21.2799 52.9 -19.8399 57.42 -20.0099C56.46 -17.6399 54.67 -15.7399 53.56 -13.4399C52.76 -11.7699 48.6 2.14011 46.48 -0.17989C45.99 -2.24989 48.05 -6.91989 44.49 -6.12989C44.87 -2.51989 43.55 0.500112 42.5 3.79011C39.89 7.37011 38.43 5.84011 39.52 1.81011C41.24 -3.60989 41.86 -9.63989 43.5 -15.0499C43.88 -16.2899 45.74 -18.0499 45.49 -20.0099H45.48Z" fill="#CDCDCD"/>
<path d="M13.64 19.6599C12.82 23.1499 10.82 26.5299 15.63 25.6099C16.99 28.1599 12.66 35.6499 9.65997 35.5299C8.16997 23.9899 0.0599674 42.6299 -1.80003 43.4399C-5.74003 45.1499 -2.77003 39.4499 -6.26003 40.4799C-8.39003 37.1399 -3.77003 25.0799 0.699967 25.6099C0.779967 25.7199 2.57997 25.1599 2.76997 26.2299C2.85997 26.7499 -1.51003 39.6399 2.67997 35.5299C2.90997 35.3099 4.34997 31.4299 5.45997 29.8499C7.83997 26.4599 11.57 22.6799 13.64 19.6599Z" fill="#E7E7E7"/>
<path d="M37.5201 35.52C36.8101 33.28 34.6601 35.6499 34.0001 36.4799C31.1301 40.0999 29.2301 45.98 27.5701 50.4C25.5301 44.9 26.4201 40.96 30.1501 36.61C31.5001 35.04 33.5301 34.6 34.9501 32.47C38.2201 27.56 38.1101 19.35 43.9901 15.7C44.9601 20.13 42.7401 26.33 41.0001 30.56C40.1101 32.73 38.2101 34.1199 37.5201 35.5299V35.52Z" fill="#DCDCDC"/>
<path d="M1.71011 54.3601C0.320114 55.2001 -0.0198836 54.2101 0.720116 51.3901C3.91012 45.0101 5.78011 41.5201 9.67011 35.5201C12.1801 31.6701 13.4001 29.5701 15.6401 25.6001C16.5701 23.9501 18.5601 20.1201 20.6201 20.1501C17.2901 33.3201 7.28011 42.4701 1.71011 54.3501V54.3601Z" fill="#CFCFCF"/>
<path d="M39.5101 1.81005C39.0501 4.46005 40.1401 3.83005 42.4901 3.79005C41.5601 6.68005 40.8801 6.72005 40.5801 7.54005C37.6001 15.5501 35.5501 24.1401 29.5601 30.5601C30.7801 26.3701 31.8901 23.22 33.5401 18.66C35.5401 13.14 37.7401 7.38005 39.5101 1.80005V1.81005Z" fill="#D6D6D6"/>
<path d="M44.4901 48.4099C44.0801 52.4699 43.2901 56.5299 42.1201 60.5999C39.9401 59.7999 38.4801 62.1399 37.7501 67.6299L35.5401 68.2499C34.5401 70.9499 32.3701 70.0199 32.5601 67.2599C31.0101 65.6999 37.1501 49.0799 38.0601 48.6399C38.4901 48.4299 38.9901 48.3999 39.5301 48.4199C40.6501 50.6799 43.1201 48.6899 44.5001 48.4199L44.4901 48.4099Z" fill="#EBEBEB"/>
<path d="M24.59 26.6C27.6 26.17 26.68 27.67 26.11 29.6C23.83 37.32 17.85 44.71 12.74 49.76C11.05 51.44 10.27 50.24 10.66 48.41C15.93 42.95 21.41 33.47 24.59 26.59V26.6Z" fill="#D0D0D0"/>
<path d="M60.41 12.71C59.44 11.49 65.61 -2.47999 66.4 -2.82999C71.41 -5.07999 73.09 2.37001 68.37 2.80001C68.9 3.84001 69.37 5.00001 69.14 6.19001C68.42 9.93001 60.93 23.9 58.46 27.84L55.43 29.57C52.62 29.94 52.7 27.98 55.67 23.7L55.43 21.64C55.65 21.23 55.21 20.05 55.43 19.66C56.47 17.82 58.75 15.61 60.4 12.72L60.41 12.71Z" fill="#D1D1D1"/>
<path d="M39.5101 48.41C37.8301 53.58 34.6601 62.29 32.5501 67.25C35.1701 69.1 31.3801 74.01 28.5701 74.19C28.3801 73.73 27.4801 73.84 27.7201 72.02C28.0701 69.44 31.6101 61.24 32.8001 58.08C34.7001 53.01 36.7501 46.21 40.5101 42.46C40.0301 44.36 39.9301 47.13 39.5201 48.41H39.5101Z" fill="#CFCFCF"/>
<path d="M55.4299 21.6399L57.4299 22.1499C57.4899 24.5299 52.9899 27.9699 55.4299 29.5799L56.4799 31.7599L47.7999 48.8199L45.4799 49.4099C44.7599 50.1999 44.4199 49.8699 44.4899 48.4199C45.4199 45.9199 51.8099 33.4699 51.2099 32.7399C50.9799 32.4599 49.2999 32.6699 49.4599 32.0799C51.9099 28.8699 53.5199 25.1599 55.4399 21.6499L55.4299 21.6399Z" fill="#DCDCDC"/>
<path d="M97.22 58.3301C93.74 65.4701 90.75 73.0401 87.27 80.1501C85.88 82.9801 83.74 85.9201 82.3 89.0701C81.98 91.8401 78.24 91.3501 77.35 89.2801C76.78 87.9501 81.21 78.0301 83.3 78.1701C84.71 71.4601 89.03 61.9001 94.24 57.3501L97.22 58.3401V58.3301Z" fill="#CFCFCF"/>
<path d="M10.6599 -20.01C12.5399 -17.84 12.5399 -14.87 10.6599 -11.09L11.5399 -8.83002C7.52991 -1.09002 3.9799 6.83998 0.889904 14.95L-0.280094 15.68C0.559906 16.01 0.559906 16.34 -0.280094 16.67C-2.46009 18.69 -0.730096 23.64 0.709904 25.59C-2.8501 29.78 -4.1301 35.86 -6.2501 40.46C-8.2501 44.79 -9.5401 44.59 -11.2201 50.38C-12.6301 54.14 -16.9401 53.02 -16.1901 49.39C-14.7701 42.11 -12.0201 34.42 -9.23009 27.57C-9.02009 24.7 -8.0301 21.76 -6.2501 18.76C-2.7501 11.13 -3.44009 11.46 -8.30009 19.74C-12.9901 24.2 -17.2801 28.8 -21.1601 33.52C-22.0801 35.24 -23.3901 36.92 -24.1401 38.48L-28.0901 44.02C-29.7801 49.68 -32.4401 53.45 -36.0801 55.33C-36.6401 60.15 -40.1001 66.26 -45.0301 67.23C-46.8301 69.71 -49.1801 71.9 -51.0001 75.16C-52.4001 76.47 -52.9101 75.92 -51.9901 74.17C-48.8101 64.77 -42.7401 60.31 -39.1901 51.73C-36.7801 45.92 -36.0301 40.74 -33.0901 34.51C-27.8301 29.26 -23.1901 23.31 -19.1601 16.66C-16.6401 12.39 -15.5701 11.9 -12.2001 8.72998L-4.2401 -0.19002C-1.4501 -5.59002 -0.730096 -9.25002 0.729904 -15.06C-2.3801 -17.7 -2.72009 -19.35 -0.260094 -20.02H10.6799L10.6599 -20.01Z" fill="#CDCDCD"/>
<path d="M68.3701 2.80011C73.9001 -1.46989 73.6701 7.58011 71.3501 11.7201C73.3001 13.4701 73.1801 16.0101 71.0001 19.3201C55.2501 35.6801 50.7501 55.2901 46.0401 77.1901L44.4901 78.1501C44.9201 72.3201 42.6401 76.5101 40.7601 76.9101C37.3701 77.6201 33.1901 77.3101 30.5701 80.1401C31.3901 77.4001 29.3201 75.9801 28.5801 74.1901C29.1401 71.7701 31.7701 69.1101 32.5601 67.2501L35.5401 68.2401C37.4501 68.7901 37.4701 69.6701 35.5401 70.2201C34.5701 74.8401 39.4501 74.5301 42.5001 72.2001L40.7701 69.9901C41.1901 62.9501 42.5401 55.6101 45.4901 49.3901C47.3001 43.7601 52.7101 35.4201 55.4401 29.5601C59.4301 21.0001 65.0501 11.4301 68.3701 2.79011V2.80011Z" fill="#F1F1F1"/>
<path d="M71.3501 11.7201L72.8601 4.52012C74.2901 -1.40988 81.4901 -3.33988 79.3101 3.78012C79.7901 8.62012 76.5401 19.0201 73.9301 23.3601C73.5201 25.1501 72.1301 26.1001 70.3601 26.5901C66.2401 35.2801 57.9201 45.6201 54.5401 53.9601C51.7201 60.9101 51.1901 69.7101 47.9801 77.1701C47.7501 77.7101 45.6501 82.2301 44.4901 80.1401C44.6301 79.5601 44.3601 78.7601 44.4901 78.1601C47.6901 62.8101 50.3301 43.1301 60.0601 29.8201C64.3601 23.9401 69.9201 21.1701 71.3601 11.7201H71.3501Z" fill="#D3D3D3"/>
<path d="M100.2 -20.01C103.76 -18.19 100.2 -13.81 97.22 -16.04C90.84 -11.43 87.78 -4.94995 87.27 2.80005L88.74 4.46004C88 7.83004 86.84 11.06 85.27 14.14C92.39 4.34004 99.39 -5.90996 102.59 -17.75L105.18 -20C107.18 -19.9 109.23 -18.33 110.83 -18.25C112.43 -18.17 114.45 -19.86 117.12 -20C116.96 -18.5 111.35 -2.51995 110.17 -4.12995C109.35 -6.99995 113.46 -14.69 109.15 -12.57C106.65 -5.59996 101.41 -0.359953 99.22 6.78005C94.24 12.46 95.36 21.08 93.99 27.85C91.26 41.29 87.9 54.75 82.31 67.27C84.12 68.97 82.71 70.82 80.32 70.24L75.35 71.71C76.26 66.42 79.05 62.14 81.32 57.35L80.12 55.63C84.89 49.49 84.63 44.78 79.33 41.49C77.81 39.04 77.81 35.89 79.32 32.04C78.08 31.34 64.45 50.22 64.74 55.89C64.99 60.8 66 62.64 70.38 61.32C69.88 62.51 69.87 64.1 69.39 65.29C63.48 70.09 63.07 77.41 60.33 83.53C59.11 86.26 54.19 94.55 52.47 87.1C53.78 83.42 55.13 79.83 56.45 76.19C63.67 76.59 59.97 74.05 60.35 70.76C60.84 66.51 64.42 62.15 61.44 57.03C58.97 52.78 56.05 62.77 55.44 63.29C51.25 66.82 56.44 53.49 57.02 52.46C58.33 50.14 62 47.84 63.83 45.36C68.34 39.27 72.67 34.48 70.38 26.6C73.88 19.21 75.8 11.13 79.33 3.79005C78.69 1.96005 79.3 -0.0999534 81.18 -2.37995C80.98 -8.51995 81.68 -13.58 84.25 -19.28L86.29 -20.02C90.91 -20.11 95.6 -20.07 100.22 -20.02L100.2 -20.01Z" fill="#F1F1F1"/>
<path d="M85.2801 68.24C86.4501 71.08 83.9201 75.76 81.3001 77.16C81.6101 77.84 81.8101 78.48 81.6301 78.99C80.1101 83.16 77.5001 90.03 74.3401 92.04C72.6001 92.21 70.8801 91.88 70.3601 90.06C73.8601 84.43 77.4301 76.36 80.3101 70.23C80.9101 68.96 82.0101 67.91 82.3001 67.26L85.2801 68.25V68.24Z" fill="#CCCCCC"/>
<path d="M79.3101 41.47L84.2801 36.52C84.9901 38.75 82.9701 42 83.4401 43.76C83.7901 45.09 85.8901 45.91 86.1301 47.07C86.3701 48.23 82.2101 55.44 81.3001 57.34L75.3301 62.3C77.2601 57.58 79.6601 52.43 80.8701 47.49C81.3401 45.57 82.3301 44.01 79.3101 44.46C76.6601 43.41 76.6301 42.63 79.3101 41.49V41.47Z" fill="#E4E4E4"/>
<path d="M70.36 61.3C64.53 69.3 61.89 56.2 62.83 52.37C63.86 48.14 75.26 32.09 79 29.75C79.85 29.22 81.62 27.64 82.31 29.09C80.93 33.1 80.34 37.47 79.31 41.47C79.1 42.3 79.53 43.62 79.31 44.44C77.59 50.92 72.57 56.09 70.36 61.3Z" fill="#F7F7F7"/>
<path d="M79.3099 -20.0101C79.8799 -19.0201 80.8799 -19.0201 82.2899 -20.0101C83.6099 -20.0601 84.9399 -19.9801 86.2699 -20.0101C86.2299 -16.5401 83.8799 -13.9301 83.3699 -10.5101C82.9499 -7.67007 83.6999 -4.71007 83.0799 -1.88007C82.5199 0.679932 80.1099 2.10993 79.3099 3.77993L77.2999 0.289932L71.3499 11.7099C71.8599 8.38993 72.4299 3.07993 68.3699 2.78993C68.8799 1.46993 70.0899 -3.64007 67.3899 -1.17007C67.0899 -0.900069 65.3099 5.06993 64.5599 6.43993C63.3599 8.64993 61.6499 10.5499 60.4099 12.7099C58.2099 11.9799 58.2299 10.3899 58.5799 8.48993C59.4399 3.82993 65.2599 -2.99007 66.3799 -7.12007L67.4399 -6.83007C70.5499 -11.3901 73.8399 -15.7801 77.3199 -20.0101C77.9399 -20.1001 78.6599 -19.9601 79.3099 -20.0101Z" fill="#E9E9E9"/>
<path d="M10.66 8.75C7.59997 12.6 5.28997 15.4 0.799969 16.91L-0.280029 15.69C0.359971 9.55 7.00997 -6.03 10.66 -11.08C10.02 -15.68 15.8 -18.67 19.61 -20C19.94 -20 20.27 -20 20.6 -20C17.16 -10.48 14.66 -0.55 10.65 8.76L10.66 8.75Z" fill="#F6F6F6"/>
<path d="M83.2901 78.1601C82.4301 79.8101 78.9201 86.2301 78.7401 87.0401C78.2901 89.1201 81.0001 89.2201 82.3001 89.0601C81.8901 89.9601 81.7301 92.5401 81.1701 92.8901C79.9501 93.6301 76.1001 92.7001 74.3401 93.0301C74.4501 92.7401 74.2301 92.3201 74.3401 92.0401C76.3501 86.8401 78.9501 82.1701 81.3001 77.1701C82.6901 74.7501 83.8301 75.5101 83.2901 78.1601Z" fill="#E4E4E4"/>
<path d="M10.6599 8.75C9.63991 11.11 6.55991 21.75 4.19991 15.69L-0.270096 19.65C-0.310096 18.66 -0.250096 17.67 -0.270096 16.68C-0.270096 16.36 -0.300096 16.01 -0.270096 15.69C4.2999 15.71 5.3599 9.58 10.6699 8.75H10.6599Z" fill="#E6E6E6"/>
<path d="M45.48 49.4C43.14 56.68 43.5 64.99 42.5 72.21C40.26 74.91 33.24 74.82 35.54 70.23C35.67 69.63 35.4 68.84 35.54 68.25C35.79 67.16 39.96 51.38 41.5 53.38V60.31C42.18 56.34 43.09 52.18 44.49 48.42C44.92 48.34 45.68 48.81 45.48 49.41V49.4Z" fill="#D4D4D4"/>
<path d="M35.5299 70.23C35.6299 70.8 35.3699 72.08 35.5299 72.22C35.7899 72.45 41.3799 72.28 42.4899 72.22C41.8599 76.75 38.0599 74.94 34.5299 75.19C33.7099 73.1 35.2599 71.48 35.5299 70.23Z" fill="#EBEBEB"/>
</svg>
