<svg width="55" height="21" viewBox="0 0 55 21" fill="none" xmlns="http://www.w3.org/2000/svg">
<path d="M4.2672 9.2298C3.50859 12.8016 1.16953 15.0775 0 16.7527C1.64366 15.0775 4.33042 14.5401 6.51144 15.4252C8.37636 16.1838 9.89359 17.8906 11.885 18.0171C12.612 18.0803 13.339 17.8906 14.0344 18.0487C14.8562 18.2067 15.5516 18.8073 16.2786 19.2498C18.5228 20.6722 21.6205 20.9251 23.8647 19.5027C25.2239 18.6493 26.1722 17.3217 27.4365 16.3102C29.7124 14.4769 32.9365 13.9395 35.6865 14.8878C37.4882 15.52 39.3531 13.9711 40.8071 12.7384C42.2611 11.5056 43.7783 10.1149 45.6433 9.83037C46.7496 9.67233 47.8875 9.89359 48.9938 9.76716C50.1317 9.64072 51.2064 9.13498 52.2179 8.66084C53.5139 8.06027 55.0311 7.14362 54.9995 5.68961C54.9995 4.39364 53.7035 3.50859 52.5972 2.8448C51.4909 2.18102 49.4996 1.99136 50.1633 0" fill="#141414"/>
</svg>
