<svg width="83" height="83" viewBox="0 0 83 83" fill="none" xmlns="http://www.w3.org/2000/svg">
<path fill-rule="evenodd" clip-rule="evenodd" d="M39.5374 1.31396C39.9945 1.33189 39.8152 1.42151 39.869 1.48424C39.0893 1.46631 39.0983 1.36774 39.5374 1.31396Z" fill="#1A1A1A"/>
<path fill-rule="evenodd" clip-rule="evenodd" d="M41.2133 0.0414821C40.7562 0.0952528 40.6307 0.292412 41.5449 0.301374C42.1363 0.220718 41.7868 0.0235581 41.8854 -0.128792C41.8854 -0.21841 42.7995 -0.182563 42.5575 -0.299066C41.8316 -0.299066 42.4052 -0.451417 42.2259 -0.514149C42.8802 -0.702347 43.14 -1.00705 42.8981 -1.28486C42.7457 -1.4641 42.2887 -1.6971 41.5628 -1.7688C41.1864 -1.63437 41.5269 -1.67022 41.5628 -1.50891C39.1789 -1.30279 40.2812 -0.729231 40.2185 -0.442454C40.1647 -0.191524 39.2775 0.0862908 40.2185 0.328259C40.7741 0.256565 40.0034 0.0145966 41.2222 0.0325201L41.2133 0.0414821ZM41.2222 -1.33863C42.2618 -1.32071 41.7868 -1.12355 41.8944 -0.989124C41.0251 -1.02497 40.5232 -1.24005 41.2222 -1.33863Z" fill="#1A1A1A"/>
<path fill-rule="evenodd" clip-rule="evenodd" d="M42.8891 0.220645C42.1632 0.157913 42.5306 -0.110941 43.5612 -0.0750936C43.2655 0.0503714 43.2655 0.0593331 43.5612 0.184798C43.1759 0.175836 42.9698 0.184798 42.8891 0.220645Z" fill="#1A1A1A"/>
<path fill-rule="evenodd" clip-rule="evenodd" d="M-7.05495 12.3279C-7.43134 12.525 -7.53888 12.6684 -7.3955 12.7939C-7.30588 12.8746 -7.70916 12.9373 -7.72708 12.9642C-8.04074 13.3316 -8.07659 13.8693 -7.72708 14.1561C-7.18937 14.6221 -7.512 15.0881 -7.40446 15.572C-7.35069 15.8051 -7.24315 16.1187 -7.07287 16.298C-7.00118 16.3786 -7.41342 16.4234 -7.41342 16.4682C-7.38653 16.6564 -7.19834 16.8984 -7.08183 17.1135C-6.94741 17.3644 -6.96533 17.6153 -6.75025 17.7587C-6.68751 17.7946 -7.08183 17.8035 -7.08183 17.8035C-7.18041 18.0545 -6.51724 18.1441 -6.41866 18.3233C-6.41866 18.3233 -6.75025 18.395 -6.75921 18.4488C-6.75921 18.5294 -6.43658 18.5832 -6.42762 18.6191C-6.34697 18.8969 -6.62478 19.1657 -6.42762 19.4346C-6.27527 19.6497 -5.55833 19.8737 -5.43286 20.0888C-5.35221 20.2232 -5.76445 20.2591 -5.76445 20.3039C-5.76445 20.3308 -5.43286 20.3487 -5.43286 20.3487C-5.37909 20.743 -5.43286 21.209 -5.43286 21.4599C-5.43286 21.5227 -5.15505 21.5496 -5.10128 21.5944C-4.79658 21.8274 -4.82346 21.9887 -4.76969 22.2396C-4.71592 22.4905 -4.25887 22.849 -4.10652 23.1448C-4.06171 23.2344 -4.16029 23.315 -4.10652 23.4046C-3.66739 24.1574 -3.75701 25.2956 -3.12072 26.1559C-2.46651 27.0342 -1.65099 27.8676 -1.13121 28.7011C-0.826507 29.176 -0.333608 29.5972 -0.136449 29.9916C0.132405 30.5382 -0.181259 31.0759 0.186174 31.6226C0.311639 31.8018 0.688036 31.9721 0.849348 32.1424C1.44979 32.7608 1.78137 33.164 1.85307 33.648C1.96957 34.4097 1.94268 35.1804 1.85307 35.9691C1.66487 37.4298 1.97853 38.9354 1.51252 40.441C1.18093 41.5254 0.840385 42.6366 1.17197 43.6762C1.4946 44.662 1.24367 45.9167 1.51252 47.0906C1.68279 47.8524 1.53044 48.5962 1.85307 49.3311C1.96957 49.582 2.42662 49.815 2.5252 50.066C2.93744 51.1055 2.54312 52.163 2.87471 53.1757C2.98225 53.4983 3.43034 53.8299 3.54684 54.1615C3.67231 54.4931 3.21526 54.8247 3.21526 55.1563C3.21526 55.5058 3.511 55.8463 3.55581 56.1869C3.61854 56.6618 3.97701 57.1906 4.2369 57.5222C4.46095 57.8089 4.25483 58.0419 4.2369 58.257C4.21002 58.7051 4.81046 59.1532 4.918 59.5923C4.95384 59.7268 4.50575 59.8612 4.58641 59.9867C4.66707 60.1121 5.16893 60.2286 5.25854 60.372C5.25854 60.372 4.87319 60.4796 4.92696 60.5513C5.18685 60.9187 4.98969 61.2951 5.27647 61.6267C5.4109 61.788 5.55429 61.8955 5.61702 62.0568C5.67975 62.2271 5.60806 62.4243 5.61702 62.4422C5.69767 62.6035 6.21746 62.72 6.28915 62.8634C6.325 62.944 5.97549 62.9978 5.95756 63.0426C5.92172 63.1054 6.28019 63.195 6.29811 63.2577C6.42358 63.7148 6.325 64.2435 6.65659 64.7274C6.73724 64.8439 7.21222 64.9425 7.32872 65.059C7.47211 65.2024 7.23014 65.3458 7.32872 65.4892C7.52588 65.758 7.83058 66 8.00982 66.2599C8.37725 66.7797 8.7626 67.2815 9.04042 67.7924C9.57813 68.7961 9.95452 69.7998 10.77 70.7766C11.9978 71.6101 12.5266 72.4704 13.1718 73.3039C13.2614 73.4293 13.0732 73.5369 13.1718 73.6444C13.2525 73.7251 13.7543 73.7968 13.8439 73.8864C14.0769 74.1015 13.9336 74.3434 14.1934 74.5675C14.4265 74.7646 14.8566 74.9618 15.2061 75.141C15.3764 75.2307 15.3585 75.3472 15.5467 75.4368C15.5825 75.4547 16.165 75.4816 16.2188 75.5085C16.3801 75.5712 16.1113 75.6608 16.2188 75.7236C17.4914 76.4674 18.3159 77.2829 18.9701 78.0895C19.6332 78.905 20.5474 79.6847 21.3808 80.4106C22.268 80.7511 22.5458 81.1634 23.0925 81.5487C23.2807 81.6831 23.675 81.8176 23.7736 81.952C23.9349 82.1581 23.675 82.409 23.8005 82.6331C23.9259 82.8482 24.383 83.0364 24.4905 83.2425C25.1985 84.5868 23.4062 86.0834 24.9745 87.1767C25.2254 87.356 23.8991 87.3918 23.6481 87.5262C24.625 87.5979 23.2269 87.8399 23.9976 87.8937C24.5891 88.0191 25.9065 88.0281 26.6862 88.1177C27.7974 87.9922 28.5681 88.0819 29.0252 87.9295C30.5129 87.9026 31.0326 87.7861 32.3679 87.7503C32.6278 87.4814 34.2858 87.3201 34.3485 87.0333C32.4038 86.9616 34.1155 86.7465 34.3306 86.6121C34.465 86.5225 34.2947 86.4598 34.3216 86.3612C34.4202 86.0117 33.6405 85.6891 33.6136 85.3395C33.5867 84.999 33.7122 84.6316 33.9094 84.2821C33.9452 84.2193 34.5546 84.1207 34.5725 84.049C34.5905 83.9684 34.1782 83.8967 34.223 83.8071C34.3395 83.6189 34.8145 83.4128 34.8683 83.2335C34.8862 83.1708 34.5457 83.1529 34.5277 83.117C34.5008 83.0633 34.8683 83.0095 34.8593 82.9826C34.7607 82.7496 34.6084 82.5524 34.5009 82.409C34.1693 81.9789 33.5151 81.4143 33.1118 81.0289C33.0401 80.9572 33.4702 80.8855 33.4434 80.8497C33.3717 80.769 32.8608 80.6973 32.7623 80.6167C32.6099 80.5002 32.816 80.3568 32.7533 80.2403C32.5561 79.846 32.2783 79.4427 31.7137 79.0484C31.427 78.8512 30.9072 78.6899 30.6921 78.4927C30.6025 78.4121 31.0147 78.3404 31.0237 78.2687C31.0237 78.2149 30.7279 78.1163 30.6831 78.0715C30.5577 77.9282 30.1902 77.9282 30.3426 77.8296C30.4412 77.7579 30.0289 77.74 30.002 77.7131C29.6704 77.4353 29.6167 77.2112 28.9804 77.0678C28.2186 76.8886 28.0932 76.6018 27.9587 76.333C27.6451 76.2344 27.1611 76.1358 26.9461 76.0193C26.8206 75.9566 27.0178 75.8759 26.9461 75.8042C26.8564 75.7236 26.3725 75.7146 26.2739 75.6519C26.0768 75.5264 26.1216 75.374 25.9334 75.2396C25.7273 75.0962 25.3867 74.9708 25.2523 74.8363C25.0372 74.6123 25.1537 74.4062 25.2344 74.2449C25.2612 74.1911 24.8938 74.1104 24.8938 74.0387C24.8938 73.8953 25.2523 73.7609 25.2164 73.6086C25.1896 73.4652 24.84 73.3308 24.8759 73.1963C24.9386 72.9185 25.6556 72.6407 25.1896 72.3808C26.1126 72.1926 25.4674 71.9775 25.5122 71.7804C25.557 71.5832 25.781 71.3681 25.8348 71.1799C25.8796 71.0186 26.1037 70.8394 26.1574 70.6601C26.2202 70.4451 25.7362 70.1941 26.8116 69.9701C26.1037 69.8894 27.0895 69.764 26.1305 69.6833C26.489 69.4413 26.4352 69.2352 26.4532 69.0381C26.4532 69.0201 25.9244 68.9933 26.1126 68.9216C26.1843 68.8947 26.7668 68.8767 26.7848 68.823C26.7848 68.823 26.1485 68.7782 26.1126 68.7513C26.023 68.6796 26.4263 68.6348 26.7758 68.6079C27.2239 68.8319 27.43 69.0649 27.7974 69.3069C27.896 69.3786 28.4248 69.3965 28.4696 69.4234C28.5502 69.4772 28.0036 69.513 28.138 69.6027C28.3262 69.7281 28.6398 69.8446 28.8101 69.9701C30.1902 70.9559 31.185 72.0044 32.5651 72.9275C32.9236 73.1874 33.2283 73.4025 33.5867 73.6623C33.7481 73.7699 34.1513 73.8864 34.2678 73.985C34.4471 74.1463 34.0707 74.2897 34.2768 74.451C34.3664 74.5227 34.7787 74.5764 34.9489 74.6481C35.1282 74.7198 35.1551 74.8095 35.2895 74.8901C35.9258 75.2755 36.2574 75.858 36.6696 76.4046C37.055 76.4584 36.7323 76.4674 36.6696 76.5301C36.5979 76.6018 36.6517 76.6287 36.6696 76.7004C36.7951 77.1664 36.9474 77.5518 37.046 78.0715C37.1625 78.6989 37.0998 79.3531 37.4403 79.9446C37.7629 80.5002 38.5874 81.0558 38.8294 81.6114C38.8652 81.6921 38.4978 81.719 38.4978 81.7907C38.4978 81.8713 38.7935 81.9251 38.8384 81.9878C39.6539 83.0453 39.2147 84.1387 38.6233 85.0438C38.5337 85.1782 38.4978 85.3216 38.3006 85.474C38.22 85.5367 37.7809 85.5905 37.6375 85.6711C37.4941 85.7518 37.7719 85.8504 37.6464 85.9221C37.1625 86.1909 35.9079 86.4777 36.0064 86.7376C36.9385 86.7197 36.9474 86.8631 37.3507 86.9347C37.4403 86.9706 38.6053 87.0244 38.686 86.9168C39.2775 86.9258 39.6718 86.9796 40.3619 86.9706C41.5269 87.0512 43.0952 86.8093 44.7083 86.7914C46.2498 86.8451 47.5761 86.7555 49.0548 86.6928C50.408 86.639 50.4528 86.6749 51.3938 86.5942C51.6896 86.5673 52.1197 86.5584 52.066 86.5673C53.2758 86.4598 53.8762 86.3164 54.7276 86.173C55.561 86.0296 56.6992 85.8773 57.0577 85.707C56.4483 85.3396 56.9501 84.9094 57.3444 84.5957C57.4609 84.5061 57.5326 84.3806 57.6671 84.3C57.9897 84.0939 58.7604 83.9594 58.6529 83.7712C58.5901 83.6637 58.5095 83.6278 58.3123 83.583C58.2496 83.5741 57.7119 83.583 57.6402 83.5651C57.2459 83.4665 57.1294 83.35 56.9591 83.2694C56.1167 82.8482 57.1204 82.3553 55.9016 81.961C56.9949 81.7817 56.7082 81.486 57.21 81.2619C57.2996 81.1006 55.7761 81.1902 55.8657 81.02C55.5969 80.8945 55.3997 80.769 54.8531 80.6884C55.3191 80.1686 53.9121 79.6578 54.1361 79.1111C54.2347 78.8602 53.8135 78.5286 54.1092 78.2508C54.3781 77.9998 55.4894 77.7489 55.4266 77.5159C55.3908 77.3815 54.3064 77.2829 54.4139 77.2202C54.5932 77.1037 53.8493 76.9513 53.7328 76.8259C53.6791 76.7721 54.1003 76.6735 54.0644 76.6108C53.93 76.3867 53.7956 76.1358 53.706 75.8849C53.5357 75.392 52.5051 74.926 53.6611 74.451C54.4587 74.1284 52.9532 73.9581 52.6395 73.6982C52.4423 73.5369 52.4244 73.3218 52.29 73.1336C52.0032 72.7124 52.2721 72.345 52.2631 71.9775C52.2631 71.7893 51.815 71.6191 51.9136 71.4488C52.0301 71.2516 52.756 71.0365 52.9084 70.8483C52.9711 70.7677 53.2848 70.6333 53.2399 70.5526C53.1951 70.4809 52.5857 70.4002 52.5678 70.3196C52.5409 70.221 52.9263 70.1314 52.8994 70.0239C52.8636 69.9163 52.5768 69.8088 52.5588 69.7012C52.523 69.513 52.9352 69.3069 52.8815 69.1187C52.8546 69.0201 52.2631 68.9574 52.2093 68.8857C52.1287 68.7782 52.4692 68.6527 52.5409 68.5452C52.6574 68.357 53.0338 68.1508 53.2041 67.9537C53.2937 67.8461 53.1145 67.7296 53.2041 67.6221C53.2937 67.5146 53.8404 67.416 53.8673 67.3174C53.8942 67.2188 53.5715 67.1023 53.5267 66.9948C53.4909 66.8872 53.5715 66.7349 53.5267 66.6184C53.4013 66.3764 52.9352 66.1524 52.8456 65.9283C52.8098 65.8297 53.1503 65.7312 53.1772 65.6326C53.2041 65.5161 52.8456 65.4175 52.8367 65.31C52.8098 65.068 53.0786 64.8171 52.8277 64.602C52.6305 64.4317 51.6089 64.2614 51.4834 64.1718C51.4028 64.118 51.815 64.0015 51.815 64.0015C51.4117 63.7416 50.65 63.5534 50.4618 63.3204C50.4349 63.2756 50.7934 63.2398 50.7934 63.2308C50.8113 63.186 50.4708 63.186 50.4528 63.1502C50.3901 62.944 50.5245 62.7917 50.4528 62.7379C50.3453 62.6573 50.1929 62.5856 50.1123 62.496C49.2788 61.5191 48.7501 60.5154 48.7411 59.5565C48.7411 58.9381 48.3916 58.1226 48.3827 57.6387C48.3827 57.6297 48.759 57.5759 48.7142 57.5132C48.6336 57.3877 48.0869 57.3788 48.0421 57.3519C47.9435 57.2892 48.4095 57.1727 48.3737 57.101C48.3289 57.0024 48.069 56.9128 48.0421 56.85C48.0152 56.7963 48.4095 56.7873 48.3737 56.7246C48.3378 56.6529 48.1048 56.6081 48.0421 56.5184C47.8898 56.3123 47.352 56.0883 47.37 55.8553C47.3789 55.676 47.6209 55.5237 48.0331 55.3445C47.7105 55.2011 46.9846 55.0935 47.6926 54.9322C47.2804 54.8067 46.8054 54.6634 47.3521 54.52C47.7195 54.1973 47.0294 53.8478 47.0115 53.5162C46.9846 53.0413 47.1818 52.5484 47.0025 52.0465C46.7695 51.3833 46.2139 50.4424 46.653 49.9943C46.6889 49.9495 46.3483 49.9495 46.3214 49.9136C45.7748 49.2236 46.5813 48.5693 46.653 48.0585C46.653 48.0316 46.3125 47.6821 46.3125 47.6821C46.3125 47.6821 46.6172 47.6463 46.6441 47.6015C46.8233 47.2968 46.4021 47.1086 45.9719 46.8845C46.9488 46.8487 46.3483 46.8218 46.3035 46.7143C45.7837 45.4865 45.5955 44.3125 45.963 43.0937C46.2318 42.2154 46.0167 41.3282 46.3035 40.3066C46.3573 40.1005 45.9361 39.9302 45.9719 39.7958C46.0078 39.6434 46.653 39.4821 46.6441 39.3297C46.6351 39.1505 46.0257 38.9623 45.9719 38.7831C45.9271 38.6128 46.2229 38.4246 46.3035 38.2364C46.4021 38.0303 46.6261 37.8062 46.6441 37.6091C46.662 37.4209 46.2856 37.2416 46.3125 37.0624C46.4469 36.22 47.3252 35.3866 46.9936 34.5262C48.069 34.5083 47.3162 34.356 47.3252 34.2753C47.3789 33.9347 47.5223 33.5584 47.6657 33.2178C46.3573 33.0296 47.0653 32.7966 47.0025 32.5815C46.4379 30.8519 46.9577 28.719 47.0294 27.1507C47.0294 26.9894 46.6978 26.7474 46.6978 26.6399C46.6978 26.4696 47.3969 26.3979 47.37 26.2635C47.3252 26.0573 46.5186 25.8333 47.7105 25.672C46.8143 25.197 48.3737 24.7668 47.0473 24.3904C48.0063 23.9872 47.0742 23.548 47.0473 23.1179C47.0384 22.9118 47.4237 22.6877 47.3879 22.4816C47.2804 21.9528 46.7158 21.2359 46.7337 20.9043C46.7337 20.8147 47.2804 20.6803 47.0742 20.5638C46.9667 20.51 46.429 20.4831 46.4021 20.4293C46.4021 20.4293 46.7158 20.3487 46.7426 20.3039C46.7695 20.2322 46.4111 20.1515 46.4111 20.1336C46.4021 19.9992 46.7695 19.9006 46.7516 19.793C46.7068 19.569 46.2139 19.3718 46.0884 19.1478C45.945 18.8969 45.9092 18.6549 45.7569 18.4219C45.4432 17.929 45.0489 17.4988 44.7621 17.0866C44.556 16.7998 44.7621 16.4234 44.7621 16.2711C44.7621 16.2352 44.4305 16.2263 44.4305 16.2263C44.0183 15.7423 43.8838 15.357 43.7673 14.9806C43.7673 14.9806 44.1168 14.9178 44.0989 14.8551C44.081 14.7744 43.8121 14.7565 43.7673 14.6848C43.5971 14.4249 43.7225 14.2278 43.7673 14.0037C43.7853 13.8962 43.0773 13.7618 44.1079 13.708C44.1258 13.5825 43.1221 13.484 43.7763 13.4033C43.1848 12.4354 44.0183 11.2525 43.1311 10.2756C43.0594 10.195 42.9877 10.1502 42.7995 10.0606C42.3693 9.85443 42.7726 9.66623 42.7995 9.46011C42.8532 9.1823 42.6919 8.95825 42.7995 8.7342C42.8443 8.65355 43.14 8.56393 43.14 8.48328C43.14 8.33093 42.5306 8.02622 42.4768 7.96349C42.432 7.91868 42.8263 7.91868 42.8084 7.88284C42.7726 7.79322 42.8353 7.71256 42.8084 7.62294C42.7905 7.56021 42.8084 7.34513 42.8084 7.3272C42.7278 6.87015 42.5127 6.39518 42.4858 5.91124C42.441 5.23911 42.3514 4.47736 42.4948 3.89484C42.5485 3.67976 42.9608 3.4109 42.8353 3.21374C42.7278 3.04347 41.975 2.89112 41.8316 2.73877C41.724 2.62227 42.1632 2.50576 42.1632 2.39822C42.1632 2.31757 41.8764 2.29964 41.8316 2.22795C41.7868 2.15626 42.1453 2.12041 41.8316 2.05768C41.4104 1.80675 41.2491 1.44828 41.5 1.24215C40.2005 1.22423 40.6486 1.43931 40.4963 1.53789C40.4067 1.60062 39.8421 1.64543 39.8242 1.66336C39.7614 1.74401 40.9981 1.76194 40.4873 1.84259C39.4746 1.82467 39.7883 1.97702 39.4836 2.04871C38.9907 2.23691 40.4604 2.18314 40.1468 2.35341C38.7756 2.84631 38.8652 3.39298 38.8025 3.93069C38.8025 3.93069 39.152 3.93069 39.1341 3.9755C38.928 4.50424 38.7577 5.17638 38.7846 5.73201C38.8115 6.26075 38.7398 6.79846 38.7756 7.31824C38.7756 7.45267 38.7129 7.56021 38.7756 7.7036C38.9728 8.15169 38.5874 8.58185 38.7667 9.02994C38.8294 9.17333 38.9907 9.32568 39.0982 9.46011C39.1968 9.58558 39.1341 9.67519 39.0982 9.80066C39.0534 9.94405 38.7935 10.0695 38.7577 10.2308C38.7487 10.2936 39.1251 10.3832 39.0893 10.4459C39.0355 10.5445 38.7129 10.5714 38.7487 10.661C38.8652 10.9209 39.5195 11.1718 39.4119 11.4317C39.3402 11.6109 38.8563 11.7991 38.7398 11.9873C38.686 12.068 39.0624 12.1128 39.0714 12.2024C39.0714 12.2741 38.7129 12.3458 38.7308 12.4175C38.7756 12.5698 39.0176 12.7401 39.0624 12.8925C39.152 13.1793 39.5015 13.5108 39.394 13.7887C39.3313 13.95 38.7487 14.1292 38.7219 14.2995C38.6591 14.6848 40.3977 15.0971 38.7219 15.4555C38.9907 15.7692 38.8563 16.0291 39.0534 16.3159C39.5015 16.9611 40.3708 17.7766 40.7114 18.3771C40.8548 18.637 41.267 18.7804 41.3745 18.9327C41.5269 19.1478 41.1595 19.3718 41.3745 19.569C41.3745 19.569 42.0108 19.6138 42.0377 19.6138C42.5127 19.7393 42.3155 19.9902 42.3693 20.0888C42.5575 20.3935 41.9571 20.6803 42.0287 20.8953C42.0556 20.976 42.6113 21.0746 42.6919 21.1552C42.8264 21.2807 42.6202 21.3882 42.6919 21.4958C43.0683 22.0514 43.4895 22.6967 42.683 23.2881C42.4948 23.3509 42.3334 23.548 42.3514 23.5839C42.441 23.8079 43.0504 24.0857 43.3461 24.1843C43.4626 24.2202 43.0145 24.265 43.0145 24.265C43.2027 24.6503 43.3551 25.1164 43.3372 25.4569C43.3372 25.5734 43.0235 25.7168 43.0056 25.8333C42.9877 25.9498 43.0056 26.0573 43.0056 26.1738C43.0056 26.3262 43.0952 26.4965 43.0056 26.6399C42.8891 26.8101 42.3335 26.9804 42.3335 27.1417C42.3335 27.303 42.916 27.4643 42.9966 27.6167C43.0325 27.6794 42.6919 27.7153 42.6561 27.7422C42.5665 27.8138 42.9966 27.8945 42.9877 27.9124C42.9249 28.0917 42.6561 28.5577 42.6471 28.719C42.6471 28.7369 43.0504 28.8176 42.9787 28.8893C42.8084 29.0775 42.1273 29.2746 41.966 29.4807C41.742 29.7675 41.7151 30.0991 41.6255 30.2873C41.5896 30.368 41.975 30.4665 41.9571 30.5472C41.9123 30.7264 41.6792 30.8877 41.6255 31.058C41.5986 31.1387 41.9839 31.2462 41.9571 31.3179C41.9302 31.3986 41.3297 31.4434 41.2849 31.524C40.9623 32.1962 41.491 32.9848 40.9444 33.4329C40.8189 33.5315 40.9533 33.6211 40.9444 33.648C40.2902 34.7234 39.869 35.8257 39.2596 36.9101C39.0714 37.2416 38.2827 37.5732 38.2558 37.8779C38.2379 38.0482 38.8563 38.335 38.928 38.4336C38.9817 38.5142 38.5785 38.568 38.5964 38.6486C38.7129 39.4911 38.7667 40.2707 38.928 41.0594C39.0355 41.606 38.5785 42.1258 38.5874 42.6635C38.6053 43.8017 38.5068 45.1101 38.928 46.2124C39.0176 46.4454 38.9549 46.6694 38.928 46.8039C38.91 46.9025 38.9011 47.01 38.928 47.0996C39.3313 48.3184 39.2685 49.5462 39.2685 50.7739C39.2685 51.4192 39.5822 52.0734 39.618 52.7097C39.7077 54.4393 39.385 56.0524 39.9855 57.6745C40.0392 57.8269 40.3529 57.9703 40.326 58.1316C40.2991 58.275 39.6539 58.4452 39.6628 58.5976C39.6628 58.6514 39.9138 58.732 39.9944 58.8037C40.2812 59.0457 40.2543 59.2339 40.335 59.5117C40.4336 59.8612 40.326 60.2017 40.3439 60.5602C40.3619 60.7574 40.8906 61.1338 41.025 61.304C41.0609 61.3578 40.6755 61.3668 40.6934 61.4385C40.7562 61.6536 41.267 62.0299 41.3745 62.2271C41.4014 62.2809 41.0161 62.2898 41.043 62.3615C41.2312 62.9082 41.742 63.5714 42.0736 64.0643C42.1453 64.1629 41.6972 64.2256 41.742 64.3242C41.8226 64.4765 42.2976 64.6109 42.4231 64.7723C42.4589 64.8171 42.1094 64.8439 42.0915 64.8619C42.0108 64.9246 42.4141 64.9425 42.432 64.9784C42.5933 65.4713 43.4089 65.8387 43.4537 66.2599C43.4716 66.4391 43.2655 66.6722 43.1311 66.8514C42.9787 67.0485 42.5933 67.2457 42.4679 67.4518C42.0736 68.115 42.3424 68.9484 42.1721 69.4234C42.0467 69.764 42.5575 70.1672 41.8674 70.5526C40.7831 70.23 40.9175 69.8267 40.5052 69.4503C40.0572 69.056 39.5643 68.6617 38.8115 68.2674C38.6502 68.1867 38.3006 68.106 38.1393 68.0254C37.4941 67.6938 37.1894 67.416 36.7861 67.1292C36.4993 66.9231 36.3828 66.717 36.105 66.5108C35.7913 66.2868 35.3612 66.1076 35.4239 65.9731C34.5277 65.3458 33.8198 64.6737 33.3806 63.9836C32.9325 63.2846 32.117 62.5766 31.6779 61.8507C31.651 61.8059 32.0095 61.7969 32.0095 61.7611C32.0095 61.7611 31.7227 61.6804 31.6689 61.6356C31.3911 61.3847 31.1043 61.0979 30.9878 60.838C30.6831 60.13 30.952 59.3773 30.2978 58.6424C30.2261 58.5707 29.7421 58.5169 29.6256 58.4363C29.5091 58.3556 29.6884 58.2212 29.6256 58.1405C29.3568 57.7821 29.4016 57.4594 29.6167 57.1637C29.787 56.9217 29.7869 56.4736 29.9483 56.3123C30.002 56.2586 30.2799 56.1421 30.2799 56.0972C30.2888 55.9718 29.7153 55.6671 29.6077 55.5506C29.5629 55.5058 29.9483 55.4968 29.9393 55.461C29.8676 55.21 29.4912 54.9501 29.5988 54.6992C29.7332 54.3766 30.9878 54.0988 29.5988 53.812C30.1723 53.7224 30.1902 53.6238 30.2709 53.5073C30.3157 53.4356 29.9393 53.3639 29.9393 53.337C29.9124 53.2564 30.2619 53.2384 30.2709 53.1667C30.2978 52.9158 30.0648 52.6201 30.2709 52.3602C30.4412 52.1451 31.1223 51.93 31.2746 51.7149C31.418 51.4998 31.194 51.2579 31.2746 51.0338C31.3732 50.756 31.893 50.5589 31.9378 50.3975C31.9647 50.3169 31.6241 50.1825 31.5972 50.1018C31.4538 49.6179 32.5741 49.1967 32.601 48.8292C32.601 48.7217 32.1977 48.641 32.2604 48.5335C32.2604 48.5335 32.8698 48.4708 32.9325 48.4439C33.2731 48.2915 32.5382 48.2646 32.601 48.1481C32.6278 48.0854 32.9057 48.0675 32.9325 47.9779C33.0401 47.6284 32.8608 47.2699 33.2641 46.9562C33.4165 46.8397 33.8735 46.786 33.9363 46.6605C34.008 46.5081 33.6136 46.3916 33.5957 46.2393C33.5957 46.0869 33.9094 45.9256 33.9273 45.7733C34.0617 44.886 33.7929 43.9719 34.2589 43.3177C34.3127 43.2371 34.2858 43.1475 34.2589 43.0668C34.1872 42.8428 33.8466 42.5739 33.5867 42.4305C33.4792 42.3678 33.6226 42.3319 33.5867 42.2602C33.5867 42.2692 33.9004 42.2423 33.9273 42.2154C33.9721 42.1706 33.6047 42.1617 33.5867 42.1348C33.5688 42.09 33.6316 42.0272 33.5867 41.9645C33.4792 41.8032 33.6226 41.6957 33.5867 41.5433C33.3 40.3155 32.117 39.1236 32.2514 37.9317C32.2873 37.6539 32.601 37.3582 32.592 37.0803C32.592 36.7846 31.9467 36.5157 31.9288 36.229C31.9109 35.9422 32.592 35.3059 32.601 34.9564C32.601 34.7861 32.2335 34.6517 32.2694 34.4904C32.3769 33.8989 33.067 33.3253 32.9505 32.7518C32.816 32.1155 32.8071 31.5599 32.9505 30.9684C33.058 30.5382 32.9773 30.117 32.9505 29.6869C32.9505 29.5704 33.291 29.1402 33.291 29.0506C33.291 28.8265 32.6278 28.1006 32.6278 27.9393C32.6278 27.9214 32.9594 27.8855 32.9594 27.8945C32.8608 27.6794 32.3411 27.4643 32.2873 27.2493C32.2425 27.0521 32.6637 26.8639 32.6278 26.6578C32.5024 25.8512 32.5024 25.0088 31.6331 24.1843C31.2208 23.6287 32.0364 22.8849 31.3105 22.1769C30.9789 21.8543 30.002 21.5227 30.9789 21.1911C29.8766 21.0029 30.6921 20.7609 30.6473 20.51C30.6025 20.2501 29.9751 19.9275 29.9841 19.6497C29.9841 19.345 30.4949 19.0761 30.3247 18.7983C30.2261 18.637 29.769 18.4936 29.6615 18.3233C29.6167 18.2606 29.9751 18.2158 30.002 18.1979C30.0737 18.1172 29.6525 18.0634 29.6704 18.0276C29.7153 17.9021 29.9841 17.7767 30.011 17.6422C30.0289 17.5168 29.6346 17.4182 29.6794 17.3017C29.7063 17.2389 30.3605 17.1135 30.3515 17.0956C30.3515 17.0776 30.02 17.0597 30.02 17.0059C29.9931 16.6743 29.4106 16.298 29.3568 15.9753C29.3389 15.8499 29.778 15.7154 29.6973 15.59C29.6346 15.5004 29.1507 15.4107 29.0342 15.3301C28.3172 14.8282 29.2851 14.3174 28.0394 13.7887C28.8191 13.5825 28.3979 13.3316 28.3799 13.1076C28.3799 13.0807 28.4068 12.8745 28.3799 12.767C28.2634 12.2831 28.4696 11.9873 28.3799 11.6557C28.2097 10.9836 28.4068 10.5355 28.0573 9.98886C27.9498 9.82754 28.0753 9.72 28.0573 9.64831C27.9498 9.23607 28.0215 8.76109 27.7347 8.49224C27.6092 8.37573 27.2597 8.30404 27.4031 8.18754C27.3135 7.99038 27.0446 7.98142 27.4031 7.80218C26.3098 7.55125 25.9603 7.25551 26.0678 6.94185C26.2291 6.4848 25.5211 5.54381 26.0768 4.93441C26.2739 4.72829 27.3673 4.50424 27.421 4.29812C27.4569 4.14577 26.8833 3.96654 26.7489 3.82315C26.5876 3.63495 26.4532 3.46468 26.4173 3.31233C26.3635 3.0614 26.8116 2.82839 26.7579 2.58642C26.7131 2.39822 26.1933 2.1921 26.0947 1.98598C25.9782 1.74401 26.1933 1.49308 26.0947 1.21527C25.4853 1.14357 26.4173 1.06292 26.4352 1.00019C26.4621 0.901606 26.0947 0.803026 26.1037 0.695485C26.1126 0.480402 26.1664 0.283242 26.1037 0.0502358C25.9872 -0.397853 25.799 -0.854904 25.781 -1.32092C25.7631 -1.7242 25.781 -2.1454 25.781 -2.55764C25.781 -3.00573 25.9065 -3.46278 25.1179 -3.84814C25.082 -3.98257 26.1664 -3.96464 25.79 -4.14388C24.3113 -4.93252 25.2612 -5.91831 24.4637 -6.54564C24.3023 -6.6711 24.1948 -6.78761 24.1321 -6.93099C24.0962 -7.00269 24.5174 -7.08335 24.4726 -7.14608C24.3471 -7.29843 23.8453 -7.42389 23.8005 -7.57624C23.7557 -7.71067 24.1321 -7.87198 24.1321 -8.00641C24.1321 -8.08707 23.8543 -8.14084 23.8005 -8.22149C23.7288 -8.32007 24.159 -8.39177 24.1321 -8.48138C24.0962 -8.6427 23.451 -8.79505 23.4599 -8.95636C23.4689 -9.10871 24.1321 -9.26106 24.1321 -9.42237C24.1321 -9.58368 23.8991 -9.76292 23.8005 -9.93319C23.5675 -10.3365 23.3882 -10.686 23.1373 -10.9638C22.976 -11.143 22.5548 -11.3043 22.4652 -11.4746C22.3935 -11.627 22.8595 -11.7793 22.7968 -11.9406C22.743 -12.1109 22.1336 -12.326 21.793 -12.4963C21.4615 -12.6576 21.7393 -12.9712 19.7856 -12.9623C18.8267 -13.0071 18.6743 -12.8458 18.4503 -12.7472C18.3338 -12.7024 18.2083 -12.6038 18.1187 -12.5321C17.7065 -12.2364 17.5183 -11.8331 17.7782 -11.4657C17.9036 -11.2864 18.3428 -11.1251 18.4503 -10.9548C18.8984 -10.211 17.9753 -9.38652 18.4503 -8.73231C18.6564 -8.4545 20.162 -8.16772 18.7819 -7.9616C19.7139 -7.7734 19.687 -7.34324 19.4451 -7.02061C19.3106 -6.84138 19.0866 -6.70695 18.7729 -6.59941C19.8663 -5.62257 19.1314 -4.55612 19.4271 -3.52552C19.7139 -2.5218 19.5436 -1.55392 19.7498 -0.666706C20.0903 0.794065 19.8573 2.10248 19.7229 3.51845C19.7049 3.75145 20.0455 3.99342 20.0545 4.24435C20.0545 4.49528 20.1351 4.75517 20.0545 5.01506C19.454 5.06883 20.3502 5.13157 20.386 5.23015C20.4219 5.32873 20.0634 5.45419 20.0545 5.5707C20.0365 5.79474 20.3502 6.02775 19.7139 6.16217C20.4757 6.43999 19.9917 6.87015 20.7087 7.14797C20.5653 7.22863 19.7498 7.06731 20.0365 7.27343C20.4936 7.32721 20.3681 7.46163 20.3681 7.57814C19.6153 7.67671 19.8304 7.8918 20.3681 8.04415C19.9469 8.71628 20.3143 9.4153 20.3502 10.0964C20.4667 11.8888 20.8969 14.1471 20.3054 15.9484C20.2427 16.1546 20.2427 16.3517 20.3054 16.5489C20.6549 17.696 21.0044 18.8341 20.9506 19.9723C20.9506 20.0978 20.9148 20.1963 20.9506 20.3128C21.0492 20.6623 21.2016 21.1732 21.2822 21.3793C21.3091 21.4689 20.9327 21.5137 20.9417 21.5944C21.0492 22.1231 21.0044 22.6608 21.2643 23.1806C21.3808 23.4136 21.8289 23.6287 21.9275 23.8707C21.9275 23.8707 21.5421 23.9334 21.5959 23.9961C22.0888 24.6593 22.2142 25.3045 22.5906 25.9229C23.7019 27.7601 22.9401 29.7765 23.2269 31.3C23.2538 31.4344 22.8953 31.542 22.8953 31.6853C22.8953 31.9273 23.2717 32.1603 23.2269 32.4112C23.2 32.6084 22.9581 32.8773 22.8953 32.9669C22.8416 33.0386 23.2359 33.1282 23.2269 33.1371C23.1015 33.5135 22.985 33.8989 22.8864 34.2484C22.8595 34.3291 23.4779 34.5442 22.2142 34.589C22.5279 34.0064 21.9185 33.4418 21.5511 32.9669C21.2733 32.6084 21.4973 32.008 21.5511 31.6405C21.569 31.533 21.2284 31.4165 21.2195 31.3C21.1747 30.7892 21.3091 30.2694 21.2195 29.8034C21.1836 29.6062 21.3629 29.3642 20.5563 29.2029C20.8789 28.4591 20.3233 27.5898 19.5616 26.7653C19.454 26.6399 19.4719 26.3979 19.23 26.2903C19.1941 26.2724 18.5758 26.2187 18.5578 26.2007C18.4861 26.1111 18.8984 26.0036 18.8984 25.905C18.8984 25.5734 18.8267 25.3225 18.8984 25.0536C18.9522 24.8475 18.4682 24.6324 19.2389 24.4621C18.997 24.2022 18.4861 23.8707 18.2442 23.5122C18.1725 23.4047 17.9126 23.1806 17.9126 23.1716C17.9126 23.1268 18.2711 23.1179 18.2442 23.091C18.1277 22.9297 17.6706 22.7863 17.581 22.616C17.1777 21.8901 19.3106 20.6892 14.9194 20.5458C13.0463 20.4831 11.6573 20.5906 10.9045 20.734C10.6804 20.7788 10.8328 20.9222 10.5639 21.0298C10.3488 21.1194 10.1248 21.2269 9.5602 21.2807C9.83802 21.9528 10.8776 22.6877 11.2181 23.4315C11.254 23.5032 11.5497 23.6018 11.5497 23.6914C11.5497 23.7721 11.1733 23.8527 11.2092 23.9424C11.2898 24.1216 11.8096 24.3188 11.8723 24.498C11.8992 24.5607 11.5497 24.6772 11.5408 24.7489C11.5228 24.8565 11.8544 24.9461 11.8723 25.0536C11.8903 25.1432 11.5318 25.2239 11.5408 25.3045C11.5587 25.6003 12.2487 25.8333 11.2002 26.0753C11.8634 26.362 11.944 26.6847 12.2039 26.9356C12.3563 27.0879 12.1412 27.07 12.2039 27.1955C12.4369 27.6077 13.118 28.0289 13.1987 28.4412C13.2256 28.6025 12.8044 28.7548 12.8581 28.9072C12.894 29.0327 13.3958 29.1671 13.5303 29.2925C14.5878 30.35 13.5751 31.3627 14.1845 32.4202C14.3099 32.6353 14.7401 32.8504 14.8477 33.0655C14.8477 33.0655 14.4802 33.1282 14.5161 33.1909C14.5878 33.3343 14.767 33.5673 14.8477 33.7465C15.475 35.1087 16.2995 36.453 16.5056 37.8152C16.6042 38.4336 16.7744 39.1415 16.5056 39.6972C16.3084 40.1005 16.6848 40.7816 15.8335 41.1938C15.7528 41.2386 16.174 41.2476 16.165 41.2834C16.0127 41.9376 16.0754 42.6366 15.8245 42.9951C15.4571 43.5149 15.7438 44.1243 15.4929 44.7516C15.2151 45.4238 14.3279 46.0511 14.4981 46.8128C14.5609 47.0996 14.4981 47.252 14.4981 47.4133C14.4981 47.718 14.8297 48.0406 14.8297 48.3543C14.8297 48.4708 14.4981 48.5873 14.4981 48.6948C14.4533 49.6806 14.3637 50.6664 14.5071 51.6522C14.6505 52.638 14.9194 53.5969 15.1972 54.52C15.233 54.6275 14.8208 54.7261 14.8656 54.8247C14.9194 54.9322 15.466 55.0039 15.5377 55.1204C15.5825 55.1831 15.2061 55.219 15.2061 55.2548C15.2061 55.4161 15.699 55.9359 15.8783 56.0166C15.9589 56.0524 15.5377 56.0704 15.5467 56.1062C15.5646 56.1689 15.8603 56.1958 15.8872 56.2317C15.932 56.3123 15.5288 56.3302 15.5556 56.4019C15.6184 56.6081 16.0933 56.7963 16.2367 56.9934C16.2815 57.0562 15.9051 57.092 15.9051 57.1279C15.9051 57.1816 16.2098 57.1906 16.2457 57.2533C16.3353 57.4684 16.5862 57.6656 16.5862 57.8896C16.5862 57.9882 16.2278 58.1226 16.2547 58.2391C16.2995 58.4721 16.8013 58.6872 16.9268 58.9202C17.1508 59.3235 17.2763 59.7895 17.2763 60.2824C17.2763 60.5602 16.9268 60.8291 16.9447 61.0173C16.9537 61.1158 17.5989 61.2144 17.6168 61.304C17.6437 61.4116 17.3032 61.546 17.2853 61.6535C17.2853 61.7073 17.6975 61.7073 17.6168 61.779C17.5989 61.7969 16.9626 61.8776 16.9447 61.9134C16.9089 62.0299 17.2315 62.1464 17.2853 62.254C17.4914 62.6842 18.3428 63.0964 18.6385 63.5176C18.7998 63.7506 18.8088 63.9657 18.988 64.1987C19.0238 64.2525 19.3106 64.3062 19.3285 64.3242C19.4002 64.4048 18.979 64.4586 18.997 64.5034C19.0238 64.5751 18.997 64.7812 18.997 64.7991C19.1583 65.6505 19.5167 66.466 18.3696 67.3353C17.7065 67.0575 17.7961 66.7707 17.6885 66.4929C17.4376 65.8656 16.882 65.2741 16.3264 64.7185C16.1919 64.5841 16.174 64.4317 15.9858 64.2973C15.8066 64.1718 15.1344 64.0553 14.9731 63.9298C14.8477 63.8223 14.6326 63.5445 14.6326 63.5445C14.6326 63.5266 15.0179 63.4818 14.9642 63.4101C14.9104 63.3473 14.3548 63.2667 14.292 63.2039C14.2472 63.1591 14.6057 63.1502 14.6236 63.1143C14.6505 63.0606 14.3099 63.0516 14.2831 62.9889C14.1576 62.6393 14.7939 62.263 13.9336 61.9224C15.4839 61.3668 14.5967 60.7215 14.2472 60.0315C14.1486 59.8433 13.8977 59.6282 13.9067 59.431C13.9067 59.3504 14.525 59.2876 14.5698 59.207C14.6146 59.1263 14.2293 59.0009 14.2293 58.9112C14.2293 58.5617 13.9963 58.2122 13.8798 57.8448C13.6737 57.2085 13.9425 56.7246 13.5303 56.2137C13.127 55.7298 12.661 55.2638 12.5176 54.8067C12.4997 54.7351 12.9029 54.6634 12.8492 54.5917C12.7864 54.502 12.5355 54.4572 12.5086 54.3766C12.4728 54.2242 12.8761 54.045 12.8402 53.9016C12.8223 53.8209 12.2667 53.812 12.1681 53.7313C12.0695 53.6507 12.5176 53.5879 12.4997 53.5162C12.4817 53.4356 12.4459 53.4177 12.4997 53.346C12.7954 52.9427 11.4063 52.7455 11.1554 52.4498C10.9045 52.1541 11.1554 51.8314 11.1554 51.5088C11.1554 51.0786 10.9134 50.5678 11.487 50.3079C12.4011 49.8778 11.3794 49.4476 11.1464 49.0174C10.9941 48.7307 11.3705 48.417 11.478 48.2467C11.5408 48.1571 11.1375 48.0764 11.1464 47.9868C11.1464 47.8255 11.1912 47.6732 11.1464 47.5119C11.1016 47.3416 10.7611 47.1623 11.1464 47.001C11.0927 46.8218 10.2323 46.7501 10.1427 46.5709C10.8686 46.3827 9.84698 46.1228 9.80217 45.9704C9.78425 45.9077 10.1606 45.827 10.1338 45.7553C10.0621 45.5134 9.55124 45.2445 9.46162 45.0653C9.42578 45.0025 9.8201 44.9219 9.79321 44.8502C9.56917 44.2139 9.11211 43.5328 9.12108 42.8786C9.12108 42.3947 9.38097 41.9466 9.12108 41.5075C9.12108 41.5075 9.50643 41.4447 9.46162 41.382C9.34512 41.2386 8.87911 41.0504 8.78949 40.907C8.66402 40.7099 9.16589 40.5217 8.4579 40.3514C8.38621 40.1184 8.94184 39.9033 8.79845 39.7061C8.73572 39.6255 8.39517 39.5807 8.4579 39.4911C8.5296 39.4014 8.9508 39.3387 9.13004 39.2312C9.49747 39.025 9.38097 38.8727 9.13004 38.7203C8.23386 38.1468 9.75736 37.161 9.47059 36.5337C9.43474 36.453 9.47059 36.3992 9.47059 36.3186C9.47059 36.1304 9.12108 35.9332 9.139 35.763C9.17485 35.3686 9.89179 35.0102 9.81113 34.6517C9.76633 34.4366 9.21069 34.2036 9.14796 34.0064C9.04042 33.6928 9.29135 33.415 9.48851 33.1461C9.09419 33.0565 9.13004 32.9041 8.48479 32.8414C8.39517 32.7428 9.16588 32.7339 9.15692 32.6263C9.15692 32.6263 8.52064 32.5457 8.48479 32.5367C8.37725 32.4919 8.48479 32.4112 8.48479 32.3664C8.44894 32.1245 8.94184 31.8467 8.48479 31.6405C6.48631 30.7085 7.5438 29.5793 5.82314 28.6742C5.51844 28.1723 5.40193 27.3478 3.82466 26.8639C4.6133 26.4337 3.52892 25.9588 3.16149 25.4838C2.95537 25.2149 3.09876 24.9461 2.8299 24.6683C2.78509 24.6145 2.16673 24.4532 2.16673 24.4532C2.16673 24.4353 2.57897 24.4353 2.49831 24.3725C2.337 24.2381 1.92476 24.1216 1.83514 23.9872C1.70072 23.79 1.78137 23.5749 1.83514 23.3867C1.89788 23.1537 2.27427 22.9297 2.17569 22.7056C1.96957 22.2575 -0.136449 21.8095 0.840386 21.3703C0.10552 21.1911 0.338526 21.0477 0.840386 20.8953C-0.333608 20.5638 -0.190221 20.2232 -0.48596 19.9006C-0.656233 19.7214 -1.04159 19.56 -1.15809 19.3808C-1.25667 19.2105 -0.808584 19.1568 -1.15809 19.0403C-1.5793 18.8879 -1.3911 18.3502 -1.48968 18.2247C-1.54345 18.153 -1.77646 18.0813 -1.82127 18.0545C-1.86607 18.0276 -1.48968 18.0097 -1.48968 18.0186C-1.66891 17.7498 -2.05427 17.2927 -2.48444 17.2031C-3.11176 17.0687 -2.52028 16.8894 -2.48444 16.7729C-2.3052 16.2531 -2.88772 15.9305 -3.81078 15.5272C-3.91832 15.4287 -3.75701 15.3659 -3.47023 15.3122C-3.03111 15.2046 -4.79658 15.1688 -3.80182 15.1419C-4.29472 14.9447 -3.80182 14.891 -3.80182 14.6759C-5.14609 14.649 -4.13341 14.416 -4.13341 14.416C-4.05275 14.3532 -4.48292 14.3174 -4.46499 14.2816C-4.38434 14.1023 -3.67635 13.941 -3.79286 13.7707C-3.88248 13.6363 -4.3933 13.5377 -4.79658 13.4212C-5.4956 13.0986 -5.75549 12.6236 -6.12292 12.1755C-7.512 12.1397 -6.96533 12.3458 -7.12664 12.4265L-7.05495 12.3279ZM22.2501 47.4133C22.6713 45.827 23.0656 43.954 23.5854 42.2513C24.4457 43.9271 23.8991 45.6299 22.9222 47.1534C22.8774 47.2161 23.4599 47.4133 22.2501 47.4133ZM22.2591 34.8309C23.1194 34.6875 23.0656 35.055 22.2591 34.8309ZM30.9609 33.0296V32.94H31.6331V33.0206H30.9609V33.0296ZM52.4423 86.2357V86.1551L53.1055 86.1282V86.2088L52.4423 86.2357Z" fill="#1A1A1A"/>
<path fill-rule="evenodd" clip-rule="evenodd" d="M-1.91992 -13.491C-0.790736 -13.5448 -0.539806 -13.276 -1.25675 -13.2401C-0.432265 -13.1595 -0.781776 -13.0071 -0.25303 -12.8996C0.0427087 -12.8368 0.0695939 -12.6934 0.410142 -12.559C0.589377 -12.4873 1.01058 -12.4425 1.08228 -12.3887C1.44971 -12.1199 1.25255 -11.7973 1.75441 -11.5015C1.90676 -11.4119 2.0143 -11.3223 2.086 -11.2506C2.10392 -11.2237 1.96949 -11.1162 2.086 -10.9997C2.33693 -10.7398 2.6954 -10.5336 2.75813 -10.3186C2.87463 -9.91529 2.53409 -9.49408 2.41758 -9.0908C2.39966 -9.01911 2.75813 -8.94741 2.74917 -8.87572C2.72228 -8.6696 2.24731 -8.34697 2.41758 -8.03331C2.45343 -7.97058 3.10764 -7.88096 2.41758 -7.81823C4.9 -7.23571 5.15989 -6.15134 5.08819 -5.38958C5.85891 -5.20139 6.31596 -4.79811 6.4235 -4.4486C6.45039 -4.36794 6.80886 -4.24248 6.75509 -4.1887C6.70132 -4.12597 4.97169 -4.09909 6.4235 -4.06324C6.99705 -3.7675 6.52208 -3.42695 6.75509 -3.08641C6.90744 -2.86236 7.66023 -2.62935 7.75881 -2.40531C7.81258 -2.27984 7.41826 -2.14542 7.41826 -2.01995C7.41826 -1.84968 7.92012 -1.69733 8.09039 -1.50913C8.09039 -1.50913 8.00078 -1.35678 8.09039 -1.29405C8.33236 -1.13274 8.45783 -0.908692 8.42198 -0.657762C8.40405 -0.541258 8.04558 -0.424755 8.08143 -0.317214C8.11728 -0.20071 8.67291 -0.0842071 8.7446 0.0233344C8.83422 0.157761 8.66395 0.274265 8.7446 0.408691C8.95072 0.767163 9.43466 1.10771 9.40778 1.56476C9.39881 1.80673 9.2375 2.0487 9.40778 2.33547C9.6139 2.66706 9.38985 2.98969 9.40778 3.31231C9.40778 3.4557 10.4922 3.65286 9.40778 3.77832C10.0082 4.22641 9.9186 4.70139 10.0709 5.18532C10.1247 5.3556 10.3398 5.51691 10.4025 5.69614C10.4115 5.73199 9.99925 5.75888 10.062 5.82161C10.4115 6.16216 10.8237 6.77156 11.3883 7.15692C11.8723 7.4885 12.2397 7.78424 11.0478 8.08894C11.693 8.43845 11.46 8.93135 11.711 9.24501C11.8095 9.37048 12.1322 9.46009 11.711 9.58556C12.0425 9.72895 12.3114 9.8813 12.7147 10.0157C12.159 10.643 12.5265 11.2614 13.0373 11.8977C13.2613 12.1755 13.7542 12.4892 13.7005 12.758C13.6646 12.9373 13.1359 13.1255 13.0283 13.3047C12.8222 13.6632 13.1986 14.0396 13.3599 14.416C13.4675 14.6669 13.7542 14.9089 13.6915 15.1867C13.6646 15.2853 12.8401 15.4286 13.351 15.572C13.4047 15.572 13.9962 15.6168 14.0231 15.6168C14.3995 15.7961 14.2203 16.1008 14.3547 16.3069C14.5429 16.6026 14.9551 16.8805 15.0179 17.1672C15.0716 17.4182 14.4264 17.6422 15.0179 17.9827C15.1523 18.0634 15.6183 18.1441 15.681 18.2426C15.7706 18.3681 14.9193 18.5025 15.681 18.628C14.6146 18.8072 14.9282 19.1836 13.333 19.2912C11.0657 19.336 10.1247 19.1836 8.64602 19.2553C7.83946 19.0582 7.35553 18.8072 8.31444 18.6101C7.31968 18.2426 8.06351 17.8662 7.99181 17.4988C7.9022 17.0597 7.5258 16.6833 7.32864 16.1725C7.30176 16.1097 6.97017 16.0918 6.99705 16.038C7.01498 16.0022 7.35553 16.0022 7.32864 15.9574C7.1046 15.5093 6.47727 14.873 6.34284 14.2815C6.29804 14.1202 6.27115 13.941 6.34284 13.7707C6.39662 13.6452 6.70132 13.475 6.68339 13.3495C6.6117 12.8387 6.47727 12.2741 6.36077 11.7633C6.36077 11.7274 6.73716 11.7274 6.69235 11.6826C6.64754 11.6378 6.34284 11.602 6.36077 11.4675C6.38765 11.3152 6.59377 11.118 6.36077 10.8312C6.32492 10.7864 6.02022 10.7416 6.02918 10.661C6.02918 10.6072 6.36973 10.5355 6.36973 10.5355C6.31596 10.419 5.71552 10.3025 5.70656 10.186C5.68863 10.0695 6.10088 9.96196 6.04711 9.84545C5.97541 9.68414 5.45563 9.53179 5.38393 9.37048C5.31224 9.2002 5.71552 9.02993 5.72448 8.85966C5.72448 8.80588 5.77825 8.74315 5.72448 8.68938C5.72448 8.68938 5.16885 8.6625 5.3929 8.64457C5.88579 8.59976 5.47355 7.92763 5.06131 7.62293C4.97169 7.5602 4.47879 7.4885 4.38917 7.40785C4.29956 7.31823 4.41606 7.20172 4.38917 7.11211C4.38917 7.10314 4.00382 7.0673 4.05759 7.02249C4.18305 6.92391 3.83354 6.66402 3.726 6.46686C3.53781 6.10839 3.51988 5.74992 3.40338 5.40041C3.34961 5.23909 3.37649 5.0957 3.40338 4.93439C3.43026 4.81789 3.75289 4.6745 3.73496 4.558C3.70808 4.35188 3.12556 4.12783 3.07179 3.91275C3.01802 3.6887 3.45715 3.46466 3.41234 3.23165C3.34065 2.8463 2.83879 2.46094 2.74917 2.07558C2.74917 2.05766 3.14349 1.977 3.08076 1.90531C3.02698 1.84258 2.74021 1.82465 2.74917 1.77985C2.76709 1.56476 3.41234 1.33176 3.4213 1.09875C3.43026 0.794049 3.21518 0.489347 3.4213 0.166723C3.48403 0.0681432 2.83879 -0.0662836 3.75289 -0.129016C2.94633 -0.487487 2.82982 -0.836997 2.75813 -1.28509C2.72228 -1.49121 1.98742 -2.18126 2.09496 -2.52181C2.12184 -2.61143 2.12184 -2.70105 2.09496 -2.77274C2.00534 -3.05952 1.07331 -3.33733 2.09496 -3.5793C1.34217 -3.77646 0.840308 -4.34105 2.09496 -4.51133C0.822385 -4.94149 1.8261 -5.46128 0.428066 -5.91833C0.562492 -6.3485 -0.100679 -6.91309 0.0964806 -7.53145C0.230907 -7.95265 1.1002 -8.3649 -0.566693 -8.71441C-0.656311 -8.92053 -0.889316 -8.95637 -0.898278 -9.22523C-1.27467 -9.37758 -2.24255 -9.52993 -1.57041 -9.69124C-2.63686 -9.95113 -1.82134 -10.3096 -2.23358 -10.7039C-2.35009 -10.8204 -2.85195 -10.9549 -2.90572 -11.0893C-2.95053 -11.2147 -2.57413 -11.3671 -2.57413 -11.5105C-2.57413 -11.627 -2.94157 -11.7525 -2.90572 -11.851C-2.80714 -12.1737 -1.64211 -12.4246 -3.2373 -12.6128C-2.0185 -12.8099 -2.59206 -13.2311 -1.89304 -13.5L-1.91992 -13.491Z" fill="#1A1A1A"/>
<path fill-rule="evenodd" clip-rule="evenodd" d="M40.8636 64.2256C40.7919 64.3242 41.24 64.387 41.1952 64.4855C41.1145 64.6379 40.6396 64.7723 40.5141 64.9336C40.4783 64.9784 40.8278 65.0053 40.8457 65.0232C40.9263 65.086 40.5231 65.1039 40.5051 65.1397C40.3438 65.6326 39.5283 66.0001 39.4835 66.4213C39.4656 66.6005 39.6717 66.8335 39.8061 67.0128C39.9585 67.2099 40.3438 67.4071 40.4693 67.6132C40.8636 68.2764 40.5948 69.1098 40.765 69.5848C40.8905 69.9253 40.3797 70.3286 41.0697 70.714C42.1541 70.3914 42.0197 69.9881 42.4319 69.6117C42.88 69.2174 43.3729 68.823 44.1257 68.4287C44.287 68.3481 44.6365 68.2674 44.7978 68.1868C45.4431 67.8552 45.7478 67.5774 46.1511 67.2906C46.4378 67.0845 46.5543 66.8783 46.8322 66.6722C47.1458 66.4482 47.576 66.2689 47.5133 66.1345C48.4094 65.5072 49.1174 64.835 49.5565 64.145C50.0046 63.446 50.8202 62.738 51.2593 62.0121C51.2862 61.9673 50.9277 61.9583 50.9277 61.9225C50.9277 61.9225 51.2145 61.8418 51.2682 61.797C51.5461 61.5461 51.8328 61.2593 51.9493 60.9994C52.254 60.2914 51.9852 59.5386 52.6394 58.8038C52.7111 58.7321 53.195 58.6783 53.3115 58.5976C53.428 58.517 53.2488 58.3826 53.3115 58.3019C53.5804 57.9434 53.5356 57.6208 53.3205 57.3251C53.1502 57.0831 53.1502 56.635 52.9889 56.4737C52.9351 56.4199 52.6573 56.3034 52.6573 56.2586C52.6484 56.1332 53.2219 55.8285 53.3294 55.712C53.3743 55.6671 52.9889 55.6582 52.9979 55.6223C53.0696 55.3714 53.446 55.1115 53.3384 54.8606C53.204 54.538 51.9493 54.2601 53.3384 53.9734C52.7649 53.8837 52.7469 53.7852 52.6663 53.6687C52.6215 53.597 52.9979 53.5253 52.9979 53.4984C53.0248 53.4177 52.6752 53.3998 52.6663 53.3281C52.6394 53.0772 52.8724 52.7815 52.6663 52.5216C52.496 52.3065 51.8149 52.0914 51.6626 51.8763C51.5192 51.6612 51.7432 51.4193 51.6626 51.1952C51.564 50.9174 51.0442 50.7202 50.9994 50.5589C50.9725 50.4783 51.313 50.3438 51.3399 50.2632C51.4833 49.7792 50.3631 49.358 50.3362 48.9906C50.3362 48.8831 50.7395 48.8024 50.6768 48.6949C50.6768 48.6949 50.0674 48.6321 50.0046 48.6053C49.6641 48.4529 50.3989 48.426 50.3362 48.3095C50.3093 48.2468 50.0315 48.2289 50.0046 48.1392C49.8971 47.7897 50.0763 47.4313 49.673 47.1176C49.5207 47.0011 49.0636 46.9473 49.0009 46.8219C48.9292 46.6695 49.3235 46.553 49.3415 46.4007C49.3415 46.2483 49.0278 46.087 49.0099 45.9346C48.8754 45.0474 49.1443 44.1333 48.6783 43.4791C48.6245 43.3985 48.6514 43.3088 48.6783 43.2282C48.75 43.0041 49.0905 42.7353 49.3504 42.5919C49.458 42.5292 49.3146 42.4933 49.3504 42.4216C49.3504 42.4306 49.0368 42.4037 49.0099 42.3768C48.9651 42.332 49.3325 42.323 49.3504 42.2962C49.3683 42.2513 49.3056 42.1886 49.3504 42.1259C49.458 41.9646 49.3146 41.857 49.3504 41.7047C49.6372 40.4769 50.8202 39.285 50.6857 38.0931C50.6499 37.8153 50.3362 37.5195 50.3452 37.2417C50.3452 36.946 50.9904 36.6771 51.0083 36.3903C51.0263 36.1036 50.3452 35.4673 50.3362 35.1178C50.3362 34.9475 50.7036 34.8131 50.6678 34.6518C50.5603 34.0603 49.8702 33.4867 49.9867 32.9132C50.1211 32.2769 50.1301 31.7213 49.9867 31.1298C49.8792 30.6996 49.9598 30.2784 49.9867 29.8482C49.9867 29.7317 49.6462 29.3016 49.6462 29.212C49.6462 28.9879 50.3093 28.262 50.3093 28.1007C50.3093 28.0828 49.9777 28.0469 49.9777 28.0559C50.0763 27.8408 50.5961 27.6257 50.6499 27.4106C50.6947 27.2135 50.2735 27.0253 50.3093 26.8192C50.4348 26.0126 50.4348 25.1702 51.3041 24.3457C51.7163 23.7901 50.9008 23.0462 51.6267 22.3383C51.9583 22.0156 52.9351 21.6841 51.9583 21.3525C53.0606 21.1643 52.2451 20.9223 52.2899 20.6714C52.3347 20.4115 52.962 20.0889 52.9531 19.811C52.9531 19.5063 52.4422 19.2375 52.6125 18.9597C52.7111 18.7984 53.1681 18.655 53.2757 18.4847C53.3205 18.422 52.962 18.3772 52.9351 18.3592C52.8634 18.2786 53.2846 18.2248 53.2667 18.189C53.2219 18.0635 52.9531 17.938 52.9262 17.8036C52.9082 17.6781 53.3026 17.5796 53.2578 17.4631C53.2309 17.4003 52.5767 17.2749 52.5856 17.2569C52.5856 17.239 52.9172 17.2211 52.9172 17.1673C52.9441 16.8357 53.5266 16.4593 53.5804 16.1367C53.5983 16.0112 53.1592 15.8768 53.2398 15.7513C53.3026 15.6617 53.7865 15.5721 53.903 15.4915C54.6199 14.9896 53.6521 14.4788 54.8978 13.95C54.1181 13.7439 54.5393 13.493 54.5572 13.2689C54.5572 13.242 54.5303 13.0359 54.5572 12.9284C54.6737 12.4444 54.4676 12.1487 54.5572 11.8171C54.7275 11.145 54.5303 10.6969 54.8798 10.1502C54.9874 9.98892 54.8619 9.88138 54.8798 9.80968C54.9874 9.39744 54.9157 8.92247 55.2025 8.65361C55.3279 8.53711 55.6774 8.46542 55.534 8.34891C55.6237 8.15175 55.8925 8.14279 55.534 7.96356C56.6274 7.71263 56.9769 7.41689 56.8694 7.10322C56.708 6.64617 57.416 5.70519 56.8604 5.09578C56.6632 4.88966 55.5699 4.66562 55.5161 4.4595C55.4803 4.30715 56.0538 4.12791 56.1883 3.98452C56.3496 3.79633 56.484 3.62605 56.5198 3.4737C56.5736 3.22277 56.1255 2.98977 56.1793 2.7478C56.2241 2.5596 56.7439 2.35348 56.8425 2.14736C56.959 1.90539 56.7439 1.65446 56.8425 1.37665C57.4519 1.30495 56.5198 1.22429 56.5019 1.16156C56.475 1.06298 56.8425 0.964403 56.8335 0.856862C56.8245 0.641779 56.7708 0.444619 56.8335 0.211613C56.95 -0.236476 57.1382 -0.693527 57.1561 -1.15954C57.1741 -1.56282 57.1561 -1.98402 57.1561 -2.39627C57.1561 -2.84436 57.0307 -3.30141 57.8193 -3.68676C57.8552 -3.82119 56.7708 -3.80327 57.1472 -3.9825C58.6259 -4.77114 57.6759 -5.75694 58.4735 -6.38426C58.6348 -6.50973 58.7424 -6.62623 58.8051 -6.76962C58.8409 -6.84131 58.4197 -6.92197 58.4646 -6.9847C58.59 -7.13705 59.0919 -7.26252 59.1367 -7.41487C59.1815 -7.54929 58.8051 -7.71061 58.8051 -7.84503C58.8051 -7.92569 59.0829 -7.97946 59.1367 -8.06012C59.2084 -8.15869 58.7782 -8.23039 58.8051 -8.32001C58.8409 -8.48132 59.4862 -8.63367 59.4772 -8.79498C59.4683 -8.94733 58.8051 -9.09968 58.8051 -9.26099C58.8051 -9.42231 59.0381 -9.60154 59.1367 -9.77182C59.3697 -10.1751 59.5489 -10.5246 59.7999 -10.8024C59.9612 -10.9817 60.3824 -11.143 60.472 -11.3132C60.5437 -11.4656 60.0777 -11.6179 60.1404 -11.7793C60.1942 -11.9495 60.8036 -12.1646 61.1441 -12.3349C61.4757 -12.4962 61.1979 -12.8099 63.1516 -12.8009C64.1105 -12.8457 64.2628 -12.6844 64.4869 -12.5858C64.6034 -12.541 64.7288 -12.4424 64.8185 -12.3707C65.2307 -12.075 65.4189 -11.6717 65.159 -11.3043C65.0335 -11.125 64.5944 -10.9637 64.4869 -10.7935C64.0388 -10.0496 64.9618 -9.22515 64.4869 -8.57094C64.2808 -8.29312 62.7752 -8.00634 64.1553 -7.80022C63.2233 -7.61203 63.2501 -7.18186 63.4921 -6.85924C63.6265 -6.68 63.8506 -6.54557 64.1643 -6.43803C63.0709 -5.4612 63.8058 -4.39474 63.51 -3.36414C63.2233 -2.36042 63.3935 -1.39255 63.1874 -0.50533C62.8469 0.955441 63.0799 2.26386 63.2143 3.67982C63.2322 3.91283 62.8917 4.1548 62.8827 4.40573C62.8827 4.65666 62.8021 4.91655 62.8827 5.17644C63.4832 5.23021 62.587 5.29294 62.5511 5.39152C62.5153 5.4901 62.8738 5.61557 62.8827 5.73207C62.9006 5.95612 62.587 6.18912 63.2233 6.32355C62.4615 6.60137 62.9454 7.03153 62.2285 7.30935C62.3719 7.39 63.1874 7.22869 62.9006 7.43481C62.4436 7.48858 62.5691 7.62301 62.5691 7.73951C63.3218 7.83809 63.1068 8.05317 62.5691 8.20552C62.9903 8.87766 62.6228 9.57668 62.587 10.2578C62.4705 12.0501 62.0403 14.3085 62.6318 16.1098C62.6945 16.3159 62.6945 16.5131 62.6318 16.7103C62.2823 17.8574 61.9328 18.9955 61.9865 20.1337C61.9865 20.2591 62.0224 20.3577 61.9865 20.4742C61.888 20.8237 61.7356 21.3345 61.6549 21.5407C61.6281 21.6303 62.0045 21.6751 61.9955 21.7557C61.888 22.2845 61.9328 22.8222 61.6729 23.342C61.5564 23.575 61.1083 23.7901 61.0097 24.032C61.0097 24.032 61.3951 24.0948 61.3413 24.1575C60.8484 24.8207 60.7229 25.4659 60.3465 26.0843C59.2353 27.9215 59.997 29.9379 59.7102 31.4614C59.6834 31.5958 60.0418 31.7033 60.0418 31.8467C60.0418 32.0887 59.6654 32.3217 59.7102 32.5726C59.7371 32.7698 59.9791 33.0386 60.0418 33.1283C60.0956 33.1999 59.7013 33.2896 59.7102 33.2985C59.8357 33.6749 59.9522 34.0603 60.0508 34.4098C60.0777 34.4904 59.4593 34.7055 60.7229 34.7503C60.4093 34.1678 61.0187 33.6032 61.3861 33.1283C61.6639 32.7698 61.4399 32.1693 61.3861 31.8019C61.3682 31.6944 61.7087 31.5779 61.7177 31.4614C61.7625 30.9505 61.6281 30.4308 61.7177 29.9647C61.7535 29.7676 61.5743 29.5256 62.3809 29.3643C62.0582 28.6205 62.6139 27.7512 63.3756 26.9267C63.4832 26.8012 63.4652 26.5593 63.7072 26.4517C63.743 26.4338 64.3614 26.38 64.3793 26.3621C64.451 26.2725 64.0388 26.1649 64.0388 26.0664C64.0388 25.7348 64.1105 25.4838 64.0388 25.215C63.985 25.0089 64.4689 24.7938 63.6982 24.6235C63.9402 24.3636 64.451 24.032 64.693 23.6736C64.7647 23.566 65.0246 23.342 65.0246 23.333C65.0246 23.2882 64.6661 23.2792 64.693 23.2524C64.8095 23.0911 65.2665 22.9477 65.3562 22.7774C65.7594 22.0515 63.6265 20.8506 68.0178 20.7072C69.8908 20.6445 71.2799 20.752 72.0327 20.8954C72.2567 20.9402 72.1044 21.0836 72.3732 21.1912C72.5883 21.2808 72.8124 21.3883 73.377 21.4421C73.0991 22.1142 72.0596 22.8491 71.719 23.5929C71.6832 23.6646 71.3874 23.7632 71.3874 23.8528C71.3874 23.9335 71.7638 24.0141 71.728 24.1037C71.6473 24.283 71.1276 24.4801 71.0648 24.6594C71.0379 24.7221 71.3874 24.8386 71.3964 24.9103C71.4143 25.0178 71.0827 25.1075 71.0648 25.215C71.0469 25.3046 71.4054 25.3853 71.3964 25.4659C71.3785 25.7617 70.6884 25.9947 71.737 26.2366C71.0738 26.5234 70.9931 26.846 70.7332 27.097C70.5809 27.2493 70.796 27.2314 70.7332 27.3569C70.5002 27.7691 69.8191 28.1903 69.7385 28.6026C69.7116 28.7639 70.1328 28.9162 70.079 29.0686C70.0432 29.194 69.5413 29.3285 69.4069 29.4539C68.3494 30.5114 69.3621 31.5241 68.7527 32.5816C68.6272 32.7967 68.1971 33.0117 68.0895 33.2268C68.0895 33.2268 68.4569 33.2896 68.4211 33.3523C68.3494 33.4957 68.1702 33.7287 68.0895 33.9079C67.4622 35.2701 66.6377 36.6144 66.4316 37.9766C66.333 38.5949 66.1627 39.3029 66.4316 39.8586C66.6287 40.2618 66.2523 40.9429 67.1037 41.3552C67.1844 41.4 66.7632 41.4089 66.7721 41.4448C66.9245 42.099 66.8617 42.798 67.1127 43.1565C67.4801 43.6763 67.1933 44.2857 67.4443 44.913C67.7221 45.5851 68.6093 46.2125 68.439 46.9742C68.3763 47.261 68.439 47.4133 68.439 47.5746C68.439 47.8793 68.1074 48.202 68.1074 48.5156C68.1074 48.6321 68.439 48.7486 68.439 48.8562C68.4838 49.842 68.5734 50.8278 68.4301 51.8136C68.2867 52.7994 68.0178 53.7583 67.74 54.6813C67.7042 54.7889 68.1164 54.8875 68.0716 54.986C68.0178 55.0936 67.4711 55.1653 67.3995 55.2818C67.3546 55.3445 67.731 55.3804 67.731 55.4162C67.731 55.5775 67.2381 56.0973 67.0589 56.178C66.9782 56.2138 67.3995 56.2317 67.3905 56.2676C67.3726 56.3303 67.0768 56.3572 67.0499 56.393C67.0051 56.4737 67.4084 56.4916 67.3815 56.5633C67.3188 56.7694 66.8438 56.9576 66.7004 57.1548C66.6556 57.2175 67.032 57.2534 67.032 57.2892C67.032 57.343 66.7273 57.352 66.6915 57.4147C66.6019 57.6298 66.3509 57.8269 66.3509 58.051C66.3509 58.1496 66.7094 58.284 66.6825 58.4005C66.6377 58.6335 66.1358 58.8486 66.0104 59.0816C65.7863 59.4849 65.6609 59.9509 65.6609 60.4438C65.6609 60.7216 66.0104 60.9904 65.9925 61.1786C65.9835 61.2772 65.3382 61.3758 65.3203 61.4654C65.2934 61.573 65.634 61.7074 65.6519 61.8149C65.6519 61.8687 65.2397 61.8687 65.3203 61.9404C65.3382 61.9583 65.9745 62.039 65.9925 62.0748C66.0283 62.1913 65.7057 62.3078 65.6519 62.4154C65.4458 62.8455 64.5944 63.2578 64.2987 63.679C64.1374 63.912 64.1284 64.1271 63.9492 64.3601C63.9133 64.4138 63.6265 64.4676 63.6086 64.4855C63.5369 64.5662 63.9581 64.62 63.9402 64.6648C63.9133 64.7365 63.9402 64.9426 63.9402 64.9605C63.7789 65.8119 63.4204 66.6274 64.5675 67.4967C65.2307 67.2189 65.1411 66.9321 65.2486 66.6543C65.4996 66.027 66.0552 65.4355 66.6108 64.8799C66.7452 64.7454 66.7632 64.5931 66.9514 64.4587C67.1306 64.3332 67.8027 64.2167 67.964 64.0912C68.0895 63.9837 68.3046 63.7059 68.3046 63.7059C68.3046 63.6879 67.9192 63.6431 67.973 63.5714C68.0268 63.5087 68.5824 63.4281 68.6451 63.3653C68.69 63.3205 68.3315 63.3115 68.3136 63.2757C68.2867 63.2219 68.6272 63.213 68.6541 63.1502C68.7796 62.8007 68.1433 62.4243 69.0036 62.0838C67.4532 61.5282 68.3404 60.8829 68.6899 60.1928C68.7885 60.0046 69.0395 59.7896 69.0305 59.5924C69.0305 59.5118 68.4121 59.449 68.3673 59.3684C68.3225 59.2877 68.7079 59.1622 68.7079 59.0726C68.7079 58.7231 68.9409 58.3736 69.0574 58.0062C69.2635 57.3699 68.9947 56.8859 69.4069 56.3751C69.8102 55.8912 70.2762 55.4252 70.4196 54.9681C70.4375 54.8964 70.0342 54.8247 70.088 54.753C70.1507 54.6634 70.4017 54.6186 70.4285 54.538C70.4644 54.3856 70.0611 54.2064 70.0969 54.063C70.1149 53.9823 70.6705 53.9734 70.7691 53.8927C70.8677 53.8121 70.4196 53.7493 70.4375 53.6776C70.4554 53.597 70.4913 53.579 70.4375 53.5074C70.1418 53.1041 71.5308 52.9069 71.7818 52.6112C72.0327 52.3154 71.7818 51.9928 71.7818 51.6702C71.7818 51.24 72.0237 50.7292 71.4502 50.4693C70.5361 50.0391 71.5577 49.609 71.7907 49.1788C71.9431 48.892 71.5667 48.5784 71.4591 48.4081C71.3964 48.3185 71.7997 48.2378 71.7907 48.1482C71.7907 47.9869 71.7459 47.8345 71.7907 47.6732C71.8355 47.503 72.1761 47.3237 71.7907 47.1624C71.8445 46.9832 72.7048 46.9115 72.7944 46.7322C72.0685 46.544 73.0902 46.2842 73.135 46.1318C73.1529 46.0691 72.7765 45.9884 72.8034 45.9167C72.8751 45.6748 73.3859 45.4059 73.4755 45.2267C73.5114 45.1639 73.1171 45.0833 73.144 45.0116C73.368 44.3753 73.8251 43.6942 73.8161 43.04C73.8161 42.5561 73.5562 42.108 73.8161 41.6688C73.8161 41.6688 73.4307 41.6061 73.4755 41.5434C73.592 41.4 74.0581 41.2118 74.1477 41.0684C74.2731 40.8712 73.7713 40.683 74.4793 40.5128C74.551 40.2798 73.9953 40.0647 74.1387 39.8675C74.2014 39.7869 74.542 39.742 74.4793 39.6524C74.4076 39.5628 73.9864 39.5001 73.8071 39.3925C73.4397 39.1864 73.5562 39.0341 73.8071 38.8817C74.7033 38.3082 73.1798 37.3224 73.4666 36.695C73.5024 36.6144 73.4666 36.5606 73.4666 36.48C73.4666 36.2918 73.8161 36.0946 73.7982 35.9243C73.7623 35.53 73.0454 35.1715 73.126 34.8131C73.1708 34.598 73.7265 34.365 73.7892 34.1678C73.8967 33.8542 73.6458 33.5763 73.4487 33.3075C73.843 33.2179 73.8071 33.0655 74.4524 33.0028C74.542 32.9042 73.7713 32.8952 73.7802 32.7877C73.7802 32.7877 74.4165 32.707 74.4524 32.6981C74.5599 32.6533 74.4524 32.5726 74.4524 32.5278C74.4882 32.2858 73.9953 32.008 74.4524 31.8019C76.4509 30.8699 75.3934 29.7407 77.114 28.8356C77.4187 28.3337 77.5352 27.5092 79.1125 27.0253C78.3239 26.5951 79.4082 26.1201 79.7757 25.6452C79.9818 25.3763 79.8384 25.1075 80.1073 24.8296C80.1521 24.7759 80.7704 24.6146 80.7704 24.6146C80.7704 24.5966 80.3582 24.5966 80.4388 24.5339C80.6002 24.3995 81.0124 24.283 81.102 24.1485C81.2364 23.9514 81.1558 23.7363 81.102 23.5481C81.0393 23.3151 80.6629 23.0911 80.7615 22.867C80.9676 22.4189 83.0736 21.9708 82.0968 21.5317C82.8316 21.3525 82.5986 21.2091 82.0968 21.0567C83.2708 20.7251 83.1274 20.3846 83.4231 20.062C83.5934 19.8827 83.9788 19.7214 84.0953 19.5422C84.1938 19.3719 83.7457 19.3181 84.0953 19.2016C84.5165 19.0493 84.3283 18.5116 84.4268 18.3861C84.4806 18.3144 84.7136 18.2427 84.7584 18.2158C84.8032 18.189 84.4268 18.171 84.4268 18.18C84.6061 17.9111 84.9914 17.4541 85.4216 17.3645C86.0489 17.23 85.4575 17.0508 85.4216 16.9343C85.2424 16.4145 85.8249 16.0919 86.7479 15.6886C86.8555 15.59 86.6942 15.5273 86.4074 15.4735C85.9683 15.366 87.7337 15.3301 86.739 15.3033C87.2319 15.1061 86.739 15.0523 86.739 14.8372C88.0833 14.8104 87.0706 14.5774 87.0706 14.5774C86.9899 14.5146 87.4201 14.4788 87.4022 14.4429C87.3215 14.2637 86.6135 14.1024 86.73 13.9321C86.8196 13.7977 87.3305 13.6991 87.7337 13.5826C88.4328 13.26 88.6927 12.785 89.0601 12.3369C90.4492 12.3011 89.9025 12.5072 90.0638 12.5878C90.4402 12.785 90.5477 12.9284 90.4044 13.0539C90.3147 13.1345 90.718 13.1972 90.7359 13.2241C91.0496 13.5916 91.0854 14.1293 90.7359 14.416C90.1982 14.8821 90.5209 15.3481 90.4133 15.832C90.3596 16.065 90.252 16.3787 90.0817 16.5579C90.01 16.6386 90.4223 16.6834 90.4223 16.7282C90.3954 16.9164 90.2072 17.1583 90.0907 17.3734C89.9563 17.6244 89.9742 17.8753 89.7591 18.0187C89.6964 18.0545 90.0907 18.0635 90.0907 18.0635C90.1893 18.3144 89.5261 18.404 89.4275 18.5833C89.4275 18.5833 89.7591 18.655 89.7681 18.7087C89.7681 18.7894 89.4454 18.8432 89.4365 18.879C89.3558 19.1568 89.6336 19.4257 89.4365 19.6945C89.2841 19.9096 88.5672 20.1337 88.4417 20.3487C88.3611 20.4832 88.7733 20.519 88.7733 20.5638C88.7733 20.5907 88.4417 20.6086 88.4417 20.6086C88.388 21.003 88.4417 21.469 88.4417 21.7199C88.4417 21.7826 88.1639 21.8095 88.1101 21.8543C87.8054 22.0873 87.8323 22.2486 87.7786 22.4996C87.7248 22.7505 87.2677 23.109 87.1154 23.4047C87.0706 23.4943 87.1692 23.575 87.1154 23.6646C86.6763 24.4174 86.7659 25.5555 86.1296 26.4159C85.4754 27.2941 84.6599 28.1276 84.1401 28.961C83.8354 29.436 83.3425 29.8572 83.1453 30.2515C82.8765 30.7982 83.1901 31.3359 82.8227 31.8826C82.6972 32.0618 82.3208 32.2321 82.1595 32.4023C81.5591 33.0207 81.2275 33.424 81.1558 33.9079C81.0393 34.6697 81.0662 35.4404 81.1558 36.229C81.344 37.6898 81.0303 39.1954 81.4963 40.701C81.8279 41.7853 82.1685 42.8966 81.8369 43.9362C81.5143 44.922 81.7652 46.1766 81.4963 47.3506C81.3261 48.1124 81.4784 48.8562 81.1558 49.5911C81.0393 49.842 80.5822 50.075 80.4837 50.3259C80.0714 51.3655 80.4657 52.423 80.1342 53.4357C80.0266 53.7583 79.5785 54.0899 79.462 54.4215C79.3366 54.753 79.7936 55.0846 79.7936 55.4162C79.7936 55.7657 79.4979 56.1063 79.4531 56.4468C79.3903 56.9218 79.0318 57.4505 78.772 57.7821C78.5479 58.0689 78.754 58.3019 78.772 58.517C78.7988 58.9651 78.1984 59.4132 78.0909 59.8523C78.055 59.9867 78.5031 60.1211 78.4224 60.2466C78.3418 60.3721 77.8399 60.4886 77.7503 60.632C77.7503 60.632 78.1357 60.7395 78.0819 60.8112C77.822 61.1786 78.0192 61.555 77.7324 61.8866C77.598 62.0479 77.4546 62.1555 77.3918 62.3168C77.3291 62.4871 77.4008 62.6842 77.3918 62.7021C77.3112 62.8635 76.7914 62.98 76.7197 63.1233C76.6839 63.204 77.0334 63.2578 77.0513 63.3026C77.0871 63.3653 76.7287 63.4549 76.7108 63.5177C76.5853 63.9747 76.6839 64.5035 76.3523 64.9874C76.2716 65.1039 75.7966 65.2025 75.6801 65.319C75.5368 65.4624 75.7787 65.6058 75.6801 65.7491C75.483 66.018 75.1783 66.26 74.999 66.5199C74.6316 67.0396 74.2463 67.5415 73.9684 68.0523C73.4307 69.056 73.0543 70.0598 72.2388 71.0366C71.011 71.87 70.4823 72.7304 69.8371 73.5638C69.7474 73.6893 69.9356 73.7968 69.8371 73.9044C69.7564 73.985 69.2545 74.0567 69.1649 74.1463C68.9319 74.3614 69.0753 74.6034 68.8154 74.8274C68.5824 75.0246 68.1522 75.2218 67.8027 75.401C67.6325 75.4906 67.6504 75.6071 67.4622 75.6967C67.4263 75.7147 66.8438 75.7415 66.7901 75.7684C66.6287 75.8312 66.8976 75.9208 66.7901 75.9835C65.5175 76.7273 64.693 77.5429 64.0388 78.3494C63.3756 79.1649 62.4615 79.9446 61.6281 80.6705C60.7408 81.0111 60.463 81.4233 59.9164 81.8087C59.7282 81.9431 59.3338 82.0775 59.2353 82.212C59.074 82.4181 59.3338 82.669 59.2084 82.893C59.0829 83.1081 58.6259 83.2963 58.5183 83.5025C57.8103 84.8467 59.6027 86.3433 58.0344 87.4367C57.7835 87.6159 59.1098 87.6518 59.3607 87.7862C58.3839 87.8579 59.7819 88.0998 59.0112 88.1536C58.4197 88.2791 57.1024 88.288 56.3227 88.3777C55.2114 88.2522 54.4407 88.3418 53.9837 88.1895C52.496 88.1626 51.9762 88.0461 50.6409 88.0102C50.381 87.7414 48.7231 87.5801 48.6604 87.2933C50.6051 87.2216 48.8934 87.0065 48.6783 86.8721C48.5439 86.7825 48.7141 86.7197 48.6872 86.6211C48.5887 86.2716 49.3683 85.949 49.3952 85.5995C49.4221 85.259 49.2966 84.8915 49.0995 84.542C49.0636 84.4793 48.4542 84.3807 48.4363 84.309C48.4184 84.2283 48.8306 84.1567 48.7858 84.067C48.6693 83.8788 48.1943 83.6727 48.1406 83.4935C48.1227 83.4308 48.4632 83.4128 48.4811 83.377C48.508 83.3232 48.1406 83.2694 48.1495 83.2426C48.2481 83.0096 48.4005 82.8124 48.508 82.669C48.8396 82.2388 49.4938 81.6742 49.8971 81.2889C49.9688 81.2172 49.5386 81.1455 49.5655 81.1096C49.6372 81.029 50.148 80.9573 50.2466 80.8766C50.3989 80.7601 50.1928 80.6168 50.2556 80.5002C50.4527 80.1059 50.7305 79.7027 51.2951 79.3083C51.5819 79.1112 52.1017 78.9499 52.3168 78.7527C52.4064 78.672 51.9941 78.6004 51.9852 78.5287C51.9852 78.4749 52.2809 78.3763 52.3257 78.3315C52.4512 78.1881 52.8186 78.1881 52.6663 78.0895C52.5677 78.0178 52.9799 77.9999 53.0068 77.973C53.3384 77.6952 53.3922 77.4712 54.0285 77.3278C54.7902 77.1485 54.9157 76.8618 55.0501 76.5929C55.3638 76.4943 55.8477 76.3958 56.0628 76.2792C56.1883 76.2165 55.9911 76.1359 56.0628 76.0642C56.1524 75.9835 56.6363 75.9745 56.7349 75.9118C56.9321 75.7864 56.8873 75.634 57.0755 75.4996C57.2816 75.3562 57.6221 75.2307 57.7566 75.0963C57.9717 74.8722 57.8551 74.6661 57.7745 74.5048C57.7476 74.451 58.115 74.3704 58.115 74.2987C58.115 74.1553 57.7566 74.0209 57.7924 73.8685C57.8193 73.7251 58.1688 73.5907 58.133 73.4563C58.0702 73.1785 57.3533 72.9007 57.8193 72.6408C56.8962 72.4526 57.5415 72.2375 57.4967 72.0403C57.4519 71.8432 57.2278 71.6281 57.1741 71.4399C57.1292 71.2786 56.9052 71.0993 56.8514 70.9201C56.7887 70.705 57.2726 70.4541 56.1972 70.23C56.9052 70.1494 55.9194 70.0239 56.8783 69.9433C56.5198 69.7013 56.5736 69.4952 56.5557 69.298C56.5557 69.2801 57.0844 69.2532 56.8962 69.1815C56.8245 69.1546 56.242 69.1367 56.2241 69.0829C56.2241 69.0829 56.8604 69.0381 56.8962 69.0112C56.9859 68.9395 56.5826 68.8947 56.2331 68.8679C55.785 69.0919 55.5789 69.3249 55.2114 69.5669C55.1128 69.6386 54.5841 69.6565 54.5393 69.6834C54.4586 69.7371 55.0053 69.773 54.8709 69.8626C54.6827 69.9881 54.369 70.1046 54.1987 70.23C52.8186 71.2158 51.8239 72.2644 50.4438 73.1874C50.0853 73.4473 49.7806 73.6624 49.4221 73.9223C49.2608 74.0298 48.8575 74.1463 48.741 74.2449C48.5618 74.4062 48.9382 74.5496 48.7321 74.7109C48.6424 74.7826 48.2302 74.8364 48.0599 74.9081C47.8807 74.9798 47.8538 75.0694 47.7194 75.1501C47.0831 75.5354 46.7515 76.1179 46.3393 76.6646C45.9539 76.7184 46.2765 76.7273 46.3393 76.7901C46.411 76.8618 46.3572 76.8887 46.3393 76.9603C46.2138 77.4264 46.0614 77.8117 45.9629 78.3315C45.8464 78.9588 45.9091 79.613 45.5685 80.2045C45.2459 80.7601 44.4214 81.3158 44.1795 81.8714C44.1436 81.9521 44.5111 81.9789 44.5111 82.0506C44.5111 82.1313 44.2153 82.1851 44.1705 82.2478C43.355 83.3053 43.7941 84.3986 44.3856 85.3038C44.4752 85.4382 44.5111 85.5816 44.7082 85.7339C44.7889 85.7967 45.228 85.8504 45.3714 85.9311C45.5148 86.0117 45.237 86.1103 45.3624 86.182C45.8464 86.4509 47.101 86.7376 47.0024 86.9975C46.0704 86.9796 46.0614 87.123 45.6582 87.1947C45.5685 87.2305 44.4035 87.2843 44.3229 87.1768C43.7314 87.1857 43.3371 87.2395 42.647 87.2305C41.482 87.3112 39.9137 87.0692 38.3005 87.0513M60.7498 47.6463C60.3286 46.0601 59.9343 44.1871 59.4145 42.4844C58.5542 44.1602 59.1008 45.8629 60.0777 47.3865C60.1225 47.4492 59.54 47.6463 60.7498 47.6463ZM60.7408 35.064C59.9343 35.288 59.8805 34.9206 60.7408 35.064ZM52.03 33.2627V33.1731H51.3579V33.2537H52.03V33.2627Z" fill="#1A1A1A"/>
<path fill-rule="evenodd" clip-rule="evenodd" d="M84.9109 -13.2491C83.7817 -13.3029 83.5308 -13.034 84.2477 -12.9982C83.4232 -12.9175 83.7727 -12.7652 83.244 -12.6576C82.9483 -12.5949 82.9214 -12.4515 82.5808 -12.3171C82.4016 -12.2454 81.9804 -12.2006 81.9087 -12.1468C81.5412 -11.8779 81.7384 -11.5553 81.2365 -11.2596C81.0842 -11.17 80.9767 -11.0803 80.905 -11.0086C80.887 -10.9818 81.0215 -10.8742 80.905 -10.7577C80.654 -10.4978 80.2956 -10.2917 80.2328 -10.0766C80.1163 -9.67334 80.4569 -9.25214 80.5734 -8.84886C80.5913 -8.77716 80.2328 -8.70547 80.2418 -8.63378C80.2687 -8.42765 80.7437 -8.10503 80.5734 -7.79137C80.5375 -7.72863 79.8833 -7.63902 80.5734 -7.57628C78.091 -6.99377 77.8311 -5.90939 77.9028 -5.14764C77.132 -4.95944 76.675 -4.55616 76.5675 -4.20665C76.5406 -4.126 76.1821 -4.00053 76.2359 -3.94676C76.2896 -3.88403 78.0193 -3.85714 76.5675 -3.8213C75.9939 -3.52556 76.4689 -3.18501 76.2359 -2.84446C76.0835 -2.62042 75.3307 -2.38741 75.2322 -2.16337C75.1784 -2.0379 75.5727 -1.90347 75.5727 -1.77801C75.5727 -1.60774 75.0708 -1.45539 74.9006 -1.26719C74.9006 -1.26719 74.9902 -1.11484 74.9006 -1.0521C74.6586 -0.890793 74.5331 -0.666748 74.569 -0.415818C74.5869 -0.299315 74.9454 -0.182812 74.9095 -0.0752702C74.8737 0.041233 74.3181 0.157736 74.2464 0.265278C74.1567 0.399705 74.327 0.516207 74.2464 0.650634C74.0402 1.00911 73.5563 1.34965 73.5832 1.8067C73.5921 2.04867 73.7535 2.29064 73.5832 2.57742C73.3771 2.909 73.6011 3.23163 73.5832 3.55425C73.5832 3.69764 72.4988 3.8948 73.5832 4.02027C72.9827 4.46836 73.0724 4.94333 72.92 5.42727C72.8662 5.59754 72.6512 5.75885 72.5884 5.93809C72.5795 5.97393 72.9917 6.00082 72.929 6.06355C72.5795 6.4041 72.1672 7.0135 71.6026 7.39886C71.1187 7.73044 70.7513 8.02618 71.9432 8.33088C71.2979 8.68039 71.5309 9.17329 71.28 9.48695C71.1814 9.61242 70.8588 9.70204 71.28 9.8275C70.9484 9.97089 70.6796 10.1232 70.2763 10.2577C70.8319 10.885 70.4645 11.5034 69.9537 12.1396C69.7296 12.4175 69.2367 12.7311 69.2905 13C69.3263 13.1792 69.8551 13.3674 69.9626 13.5466C70.1687 13.9051 69.7923 14.2815 69.631 14.6579C69.5235 14.9088 69.2367 15.1508 69.2994 15.4286C69.3263 15.5272 70.1508 15.6706 69.64 15.814C69.5862 15.814 68.9948 15.8588 68.9679 15.8588C68.5915 16.038 68.7707 16.3427 68.6363 16.5488C68.4481 16.8446 68.0358 17.1224 67.9731 17.4092C67.9193 17.6601 68.5646 17.8841 67.9731 18.2247C67.8387 18.3054 67.3727 18.386 67.3099 18.4846C67.2203 18.6101 68.0717 18.7445 67.3099 18.8699C68.3764 19.0492 68.0627 19.4256 69.6579 19.5331C71.9253 19.5779 72.8662 19.4256 74.3449 19.4973C75.1515 19.3001 75.6354 19.0492 74.6765 18.852C75.6713 18.4846 74.9275 18.1082 74.9991 17.7408C75.0888 17.3016 75.4652 16.9252 75.6623 16.4144C75.6892 16.3517 76.0208 16.3338 75.9939 16.28C75.976 16.2441 75.6354 16.2441 75.6623 16.1993C75.8864 15.7512 76.5137 15.115 76.6481 14.5235C76.6929 14.3622 76.7198 14.1829 76.6481 14.0127C76.5943 13.8872 76.2896 13.7169 76.3076 13.5915C76.3793 13.0806 76.5137 12.516 76.6302 12.0052C76.6302 11.9694 76.2538 11.9694 76.2986 11.9246C76.3434 11.8798 76.6481 11.8439 76.6302 11.7095C76.6033 11.5571 76.3972 11.36 76.6302 11.0732C76.666 11.0284 76.9707 10.9836 76.9618 10.9029C76.9618 10.8491 76.6212 10.7775 76.6212 10.7775C76.675 10.6609 77.2754 10.5444 77.2844 10.4279C77.3023 10.3114 76.8901 10.2039 76.9439 10.0874C77.0155 9.92608 77.5353 9.77373 77.607 9.61242C77.6787 9.44215 77.2754 9.27187 77.2665 9.1016C77.2665 9.04783 77.2127 8.9851 77.2665 8.93132C77.2665 8.93132 77.8221 8.90444 77.5981 8.88651C77.1052 8.84171 77.5174 8.16957 77.9297 7.86487C78.0193 7.80214 78.5122 7.73044 78.6018 7.64979C78.6914 7.56017 78.5749 7.44367 78.6018 7.35405C78.6018 7.34509 78.9871 7.30924 78.9334 7.26443C78.8079 7.16585 79.1574 6.90596 79.265 6.7088C79.4532 6.35033 79.4711 5.99186 79.5876 5.64235C79.6414 5.48104 79.6145 5.33765 79.5876 5.17634C79.5607 5.05983 79.2381 4.91644 79.256 4.79994C79.2829 4.59382 79.8654 4.36978 79.9192 4.15469C79.9729 3.93065 79.5338 3.7066 79.5786 3.4736C79.6503 3.08824 80.1522 2.70288 80.2418 2.31753C80.2418 2.2996 79.8475 2.21895 79.9102 2.14725C79.964 2.08452 80.2507 2.0666 80.2418 2.02179C80.2239 1.8067 79.5786 1.5737 79.5697 1.34069C79.5607 1.03599 79.7758 0.73129 79.5697 0.408666C79.5069 0.310087 80.1522 0.17566 79.2381 0.112927C80.0446 -0.245544 80.1611 -0.595054 80.2328 -1.04314C80.2687 -1.24926 81.0035 -1.93932 80.896 -2.27987C80.8691 -2.36949 80.8691 -2.45911 80.896 -2.5308C80.9856 -2.81758 81.9176 -3.09539 80.896 -3.33736C81.6488 -3.53452 82.1507 -4.09911 80.896 -4.26939C82.1686 -4.69955 81.1649 -5.21934 82.5629 -5.67639C82.4285 -6.10655 83.0916 -6.67114 82.8945 -7.28951C82.76 -7.71071 81.8908 -8.12295 83.5577 -8.47246C83.6473 -8.67858 83.8803 -8.71443 83.8892 -8.98328C84.2656 -9.13563 85.2335 -9.28799 84.5614 -9.4493C85.6278 -9.70919 84.8123 -10.0677 85.2245 -10.462C85.341 -10.5785 85.8429 -10.7129 85.8967 -10.8473C85.9415 -10.9728 85.5651 -11.1252 85.5651 -11.2685C85.5651 -11.385 85.9325 -11.5105 85.8967 -11.6091C85.7981 -11.9317 84.6331 -12.1826 86.2283 -12.3708C85.0095 -12.568 85.583 -12.9892 84.884 -13.2581L84.9109 -13.2491Z" fill="#1A1A1A"/>
</svg>
