<svg width="55" height="37" viewBox="0 0 55 37" fill="none" xmlns="http://www.w3.org/2000/svg">
<path d="M9.4866 0C7.89067 5.88128 3.95997 10.8464 4.01908 16.2548C4.04863 20.3037 3.98952 24.5299 1.95029 28.0173C1.32965 29.1108 0.502133 30.1157 0.147483 31.3274C-0.207167 32.5391 0.0588202 34.0759 1.15232 34.6966C1.47742 33.4257 1.95029 32.214 2.57092 31.0614C3.72354 31.9185 11.0825 31.7412 12.5011 32.0071C14.4812 32.3914 16.1954 33.81 16.9638 35.6719C17.4071 34.6079 18.2346 33.7213 19.2395 33.1893C20.4807 34.3419 21.722 35.4945 22.9633 36.6472C24.441 34.5784 28.7264 35.1694 29.1106 32.6573C29.2879 31.5343 28.4604 30.3226 29.0219 29.3177C29.347 28.7562 30.0267 28.4902 30.6474 28.2833C32.7162 27.6036 34.8441 27.1012 36.972 26.717C36.7355 28.3424 36.5286 29.9679 36.2922 31.5934C39.9865 31.948 42.4395 27.3671 46.1338 26.9238C47.2568 26.7761 48.4094 27.0716 49.562 26.9238C50.7146 26.7761 51.9264 26.0963 52.0446 24.9733C53.0199 24.9733 54.0247 24.9437 55 24.9142C54.6158 22.8454 52.9608 21.3381 51.6604 19.6831C50.36 18.028 49.2074 18.56 49.2074 16.4617C49.2074 2.57121 49.2074 13.3289 49.2074 2.57121" fill="#141414"/>
</svg>
