<svg width="134" height="150" viewBox="0 0 134 150" fill="none" xmlns="http://www.w3.org/2000/svg">
<path d="M115.962 20.8003C103.411 7.3851 85.9062 0 66.6609 0C47.4156 0 29.9104 7.3851 17.3652 20.8003C6.49009 32.4204 0 48.0006 0 62.4708C0 64.6809 1.79003 66.4709 4.00505 66.4709H35.0555V94.8513C35.0555 112.282 49.2357 126.462 66.6609 126.462C84.0861 126.462 98.2713 112.282 98.2713 94.8513V66.4709H129.322C131.532 66.4709 133.322 64.6809 133.322 62.4708C133.322 48.0006 126.832 32.4204 115.957 20.8003H115.962ZM90.2612 94.8563C90.2612 107.871 79.6711 118.462 66.6559 118.462C53.6407 118.462 43.0556 107.871 43.0556 94.8563V66.4759H90.2612V94.8563ZM8.19511 58.4708C9.25513 47.1506 14.7002 35.3655 23.2103 26.2703C31.0054 17.9402 44.8706 8.00511 66.6609 8.00511C88.4512 8.00511 102.321 17.9402 110.111 26.2703C118.622 35.3655 124.067 47.1506 125.127 58.4708H8.19511ZM66.6609 108.786C60.4058 108.786 54.8857 104.571 53.2257 98.5413C52.7857 96.9413 53.7257 95.2913 55.3257 94.8513C56.9258 94.4113 58.5758 95.3513 59.0158 96.9513C59.9608 100.386 63.1009 102.781 66.6609 102.781C70.2209 102.781 73.366 100.381 74.306 96.9513C74.746 95.3513 76.396 94.4113 77.9961 94.8513C79.5961 95.2863 80.5361 96.9413 80.0961 98.5413C78.4411 104.571 72.916 108.786 66.6609 108.786ZM55.7357 86.9012C53.5257 86.9012 51.7357 85.1111 51.7357 82.9011V79.7711C51.7357 77.561 53.5257 75.766 55.7357 75.766C57.9458 75.766 59.7408 77.561 59.7408 79.7711V82.9011C59.7408 85.1111 57.9458 86.9012 55.7357 86.9012ZM77.5861 86.9012C75.376 86.9012 73.586 85.1111 73.586 82.9011V79.7711C73.586 77.561 75.381 75.766 77.5861 75.766C79.7911 75.766 81.5861 77.561 81.5861 79.7711V82.9011C81.5861 85.1111 79.7961 86.9012 77.5861 86.9012ZM37.5105 42.9556C34.9455 47.2556 30.0954 49.0907 26.6754 47.0506C23.2553 45.0106 22.5603 39.8705 25.1253 35.5755C27.6904 31.2754 32.5404 29.4404 35.9605 31.4804C39.3805 33.5205 40.0755 38.6555 37.5155 42.9556H37.5105ZM49.0857 27.7004C46.3056 29.7304 42.7406 29.5854 41.1255 27.3754C39.5105 25.1653 40.4555 21.7253 43.2306 19.6953C46.0106 17.6652 49.5757 17.8102 51.1907 20.0203C52.8057 22.2303 51.8607 25.6703 49.0857 27.7004Z" fill="#E74826"/>
<path d="M17.1352 79.341L13.5402 79.086C13.2202 79.061 12.9102 79.031 12.6102 78.991C12.3102 78.951 12.0452 78.8709 11.8152 78.7459C11.5851 78.6209 11.4051 78.4409 11.2801 78.2009C11.1501 77.9609 11.1051 77.6259 11.1351 77.1959C11.1651 76.7809 11.2601 76.4659 11.4201 76.2509C11.5802 76.0359 11.7802 75.8859 12.0252 75.7959C12.2702 75.7109 12.5452 75.6659 12.8502 75.6709C13.1552 75.6709 13.4652 75.6859 13.7852 75.7109L24.2603 76.4509C24.5803 76.4759 24.8903 76.5059 25.1903 76.5459C25.4903 76.5859 25.7553 76.6659 25.9853 76.7859C26.2153 76.9059 26.3954 77.0859 26.5204 77.3209C26.6504 77.5559 26.7004 77.8809 26.6704 78.2959L26.4104 81.956C26.3003 82.871 26.0503 83.676 25.6603 84.381C25.4903 84.681 25.2853 84.971 25.0403 85.246C24.7953 85.521 24.5053 85.7661 24.1703 85.9761C23.8303 86.1861 23.4403 86.3461 22.9853 86.4561C22.5353 86.5661 22.0203 86.6011 21.4453 86.5561C20.6553 86.501 19.9703 86.3261 19.3903 86.0361C18.8103 85.746 18.3402 85.351 17.9702 84.856C17.6002 84.356 17.3352 83.761 17.1802 83.071C17.0252 82.381 16.9752 81.606 17.0352 80.756L17.1352 79.336V79.341ZM19.6653 81.036C19.6653 81.406 19.7253 81.746 19.8603 82.056C19.9203 82.186 19.9953 82.316 20.0903 82.441C20.1853 82.566 20.3053 82.681 20.4503 82.791C20.5953 82.896 20.7703 82.986 20.9703 83.056C21.1753 83.126 21.4103 83.171 21.6753 83.191C21.9253 83.211 22.1503 83.196 22.3403 83.156C22.5353 83.116 22.7003 83.056 22.8453 82.976C22.9903 82.896 23.1103 82.806 23.2153 82.701C23.3203 82.596 23.4103 82.486 23.4853 82.376C23.6453 82.106 23.7503 81.796 23.8053 81.451L23.9203 79.831L19.7703 79.536L19.6653 81.046V81.036Z" fill="#E74826"/>
<path d="M23.6653 88.571C23.9853 88.561 24.2954 88.571 24.6004 88.596C24.9054 88.621 25.1804 88.691 25.4254 88.806C25.6704 88.921 25.8704 89.101 26.0254 89.341C26.1804 89.581 26.2654 89.916 26.2754 90.346C26.2904 90.776 26.2254 91.116 26.0804 91.366C25.9404 91.616 25.7504 91.806 25.5104 91.931C25.2754 92.061 25.0004 92.146 24.7004 92.186C24.3954 92.231 24.0853 92.256 23.7653 92.261L13.3102 92.566C12.9852 92.576 12.6702 92.566 12.3652 92.551C12.0602 92.531 11.7852 92.461 11.5402 92.346C11.2952 92.231 11.0952 92.051 10.9452 91.806C10.7952 91.561 10.7102 91.226 10.7002 90.796C10.6902 90.366 10.7502 90.026 10.8852 89.776C11.0202 89.526 11.2102 89.336 11.4452 89.211C11.6802 89.081 11.9502 88.996 12.2552 88.956C12.5602 88.911 12.8752 88.886 13.2002 88.876L23.6553 88.571H23.6653Z" fill="#E74826"/>
<path d="M27.1504 99.6462C27.2654 100.451 27.2754 101.161 27.1754 101.771C27.0754 102.381 26.9104 102.906 26.6704 103.351C26.4354 103.791 26.1504 104.161 25.8104 104.456C25.4754 104.751 25.1254 104.991 24.7603 105.176C24.3953 105.361 24.0403 105.496 23.6953 105.586C23.3503 105.676 23.0453 105.741 22.7903 105.776C22.6803 105.791 22.5453 105.801 22.3853 105.806C22.2253 105.806 22.0653 105.766 21.9003 105.681C21.7353 105.591 21.5853 105.436 21.4503 105.211C21.3153 104.986 21.2153 104.656 21.1503 104.216C21.1303 104.071 21.1103 103.886 21.1003 103.661C21.0853 103.436 21.1003 103.221 21.1503 103.001C21.1953 102.786 21.2803 102.591 21.4053 102.426C21.5303 102.261 21.7153 102.156 21.9753 102.121C22.3703 102.066 22.7253 101.986 23.0353 101.896C23.3453 101.801 23.6003 101.676 23.8003 101.521C24.0003 101.366 24.1453 101.166 24.2303 100.931C24.3153 100.691 24.3353 100.401 24.2853 100.056C24.2353 99.6962 24.1203 99.4312 23.9403 99.2562C23.7603 99.0812 23.5803 98.9661 23.3903 98.9011C23.1603 98.8311 22.9153 98.8061 22.6503 98.8261L15.6702 99.8312C15.3502 99.8912 15.0752 99.9912 14.8452 100.131C14.6452 100.251 14.4702 100.421 14.3252 100.641C14.1802 100.861 14.1302 101.151 14.1802 101.511C14.2302 101.856 14.3402 102.126 14.5152 102.326C14.6902 102.526 14.9052 102.671 15.1652 102.761C15.4252 102.851 15.7152 102.896 16.0402 102.901C16.3652 102.906 16.6952 102.881 17.0402 102.831C17.1502 102.816 17.2653 102.816 17.3903 102.836C17.5103 102.856 17.6352 102.926 17.7502 103.041C17.8703 103.161 17.9803 103.341 18.0803 103.591C18.1853 103.836 18.2653 104.181 18.3303 104.621C18.3953 105.061 18.3953 105.411 18.3303 105.661C18.2653 105.916 18.1753 106.106 18.0653 106.231C17.9503 106.361 17.8353 106.441 17.7203 106.476C17.6002 106.511 17.5252 106.531 17.4852 106.536C16.6752 106.651 15.9352 106.621 15.2652 106.441C14.5902 106.261 14.0002 105.956 13.4852 105.521C12.9752 105.086 12.5502 104.546 12.2202 103.891C11.8902 103.236 11.6652 102.501 11.5502 101.676C11.5302 101.546 11.5102 101.326 11.4902 101.026C11.4702 100.726 11.4802 100.386 11.5252 100.006C11.5652 99.6262 11.6552 99.2261 11.7902 98.8111C11.9252 98.3961 12.1402 98.0011 12.4352 97.6361C12.7302 97.2661 13.1202 96.9461 13.6002 96.6661C14.0802 96.3861 14.6902 96.1961 15.4202 96.0911L21.5653 95.2061C22.1653 95.1211 22.7103 95.1161 23.1953 95.1961C23.6803 95.2761 24.1103 95.4111 24.4853 95.6011C24.8603 95.7911 25.1854 96.0211 25.4604 96.2961C25.7354 96.5711 25.9754 96.8611 26.1754 97.1611C26.6354 97.8611 26.9604 98.6861 27.1504 99.6412V99.6462Z" fill="#E74826"/>
<path d="M25.7503 107.186C26.0504 107.081 26.3504 106.996 26.6504 106.921C26.9454 106.851 27.2254 106.826 27.4854 106.856C27.7454 106.886 27.9804 106.981 28.1904 107.141C28.4004 107.301 28.5654 107.566 28.6954 107.931C28.8254 108.301 28.8554 108.621 28.7954 108.886C28.7354 109.151 28.6104 109.376 28.4254 109.561C28.2404 109.746 28.0054 109.906 27.7304 110.031C27.4504 110.156 27.1654 110.276 26.8604 110.381L23.0753 111.691L23.4903 112.891C24.1753 112.916 24.8453 112.941 25.5053 112.971C25.7854 112.986 26.0754 112.996 26.3754 113.011C26.6754 113.026 26.9654 113.041 27.2554 113.056C27.5404 113.071 27.8204 113.086 28.0904 113.096C28.3604 113.111 28.5954 113.126 28.8104 113.146C29.0354 113.161 29.2554 113.186 29.4704 113.216C29.6854 113.246 29.8854 113.301 30.0704 113.381C30.2554 113.456 30.4154 113.561 30.5554 113.691C30.6954 113.821 30.8004 113.991 30.8704 114.201C30.9404 114.406 30.9804 114.616 30.9854 114.831C30.9904 115.046 30.9554 115.256 30.8854 115.456C30.8104 115.656 30.7004 115.831 30.5504 115.991C30.4004 116.151 30.2054 116.271 29.9704 116.351C29.7904 116.416 29.5604 116.461 29.2904 116.486C29.0204 116.511 28.7454 116.516 28.4654 116.496L23.3303 116.156C23.3253 116.566 23.2153 116.966 23.0153 117.351C22.9303 117.511 22.8203 117.686 22.6803 117.861C22.5403 118.041 22.3703 118.216 22.1603 118.386C21.9553 118.561 21.7053 118.726 21.4203 118.891C21.1353 119.051 20.8003 119.201 20.4253 119.331L18.9303 119.846C18.8553 119.871 18.8003 119.921 18.7703 119.996C18.7403 120.071 18.7053 120.146 18.6603 120.221C18.5453 120.416 18.4353 120.546 18.3253 120.606C18.2153 120.666 18.1202 120.711 18.0402 120.741C17.7902 120.826 17.5602 120.856 17.3602 120.816C17.1602 120.781 16.9802 120.701 16.8202 120.581C16.6602 120.461 16.5252 120.301 16.4102 120.111C16.2952 119.921 16.2002 119.716 16.1252 119.496C16.0452 119.266 16.0002 119.016 15.9852 118.756C15.9702 118.496 16.0052 118.241 16.0802 117.991C16.1552 117.746 16.2802 117.521 16.4552 117.326C16.6302 117.126 16.8602 116.981 17.1502 116.881L19.3153 116.131C19.6153 116.026 19.8903 115.906 20.1403 115.776C20.3903 115.646 20.5903 115.481 20.7403 115.296C20.8903 115.111 20.9853 114.896 21.0203 114.646C21.0553 114.401 21.0203 114.106 20.9003 113.771L20.4903 112.596L16.9602 113.821C16.6502 113.926 16.3502 114.016 16.0502 114.086C15.7552 114.156 15.4702 114.181 15.2052 114.151C14.9402 114.121 14.7002 114.021 14.4902 113.851C14.2802 113.681 14.1102 113.411 13.9802 113.036C13.8552 112.671 13.8202 112.361 13.8852 112.101C13.9502 111.841 14.0752 111.621 14.2702 111.441C14.4602 111.256 14.6952 111.101 14.9752 110.971C15.2552 110.846 15.5452 110.726 15.8552 110.621L25.7554 107.191L25.7503 107.186Z" fill="#E74826"/>
<path d="M31.9804 136.942C31.7754 137.177 31.5604 137.397 31.3404 137.602C31.1204 137.807 30.8904 137.962 30.6504 138.067C30.4104 138.172 30.1604 138.207 29.8954 138.167C29.6304 138.127 29.3554 137.982 29.0654 137.727C28.7704 137.467 28.5854 137.212 28.5154 136.952C28.4454 136.692 28.4454 136.442 28.5154 136.187C28.5854 135.932 28.7104 135.682 28.8854 135.437C29.0604 135.192 29.2504 134.952 29.4604 134.717L32.0154 131.807L33.4355 125.172C33.5055 124.822 33.5805 124.477 33.6555 124.147C33.7305 123.812 33.8705 123.532 34.0705 123.302C34.2055 123.152 34.3805 123.037 34.6005 122.962C34.8205 122.887 35.1055 122.882 35.4505 122.947C35.8205 123.032 36.1105 123.172 36.3305 123.362C36.4955 123.507 36.6155 123.682 36.6855 123.877C36.7555 124.072 36.7905 124.282 36.7955 124.502C36.7955 124.722 36.7805 124.947 36.7305 125.182C36.6855 125.412 36.6305 125.637 36.5655 125.857L35.2805 130.387L35.5455 130.622L39.8705 128.767C40.0805 128.672 40.2955 128.592 40.5205 128.517C40.7456 128.442 40.9656 128.392 41.1856 128.367C41.4056 128.342 41.6156 128.352 41.8156 128.397C42.0206 128.442 42.2056 128.537 42.3706 128.682C42.4856 128.787 42.5856 128.902 42.6706 129.032C42.7506 129.162 42.8306 129.317 42.8956 129.497C42.9956 129.822 43.0256 130.102 42.9806 130.337C42.9356 130.572 42.8506 130.762 42.7206 130.912C42.6306 131.012 42.4456 131.137 42.1556 131.282C41.8656 131.427 41.4656 131.597 40.9456 131.782L34.5305 134.022L31.9754 136.932L31.9804 136.942Z" fill="#E74826"/>
<path d="M41.4706 133.377C41.7406 132.717 42.0606 132.192 42.4456 131.807C42.8256 131.422 43.2306 131.132 43.6556 130.947C44.0806 130.762 44.5106 130.652 44.9406 130.622C45.3706 130.592 45.7757 130.602 46.1557 130.652C46.5307 130.702 46.8607 130.772 47.1457 130.862C47.4307 130.952 47.6357 131.027 47.7657 131.077L48.1157 131.217C48.2457 131.272 48.4457 131.362 48.7107 131.497C48.9757 131.632 49.2607 131.807 49.5607 132.037C49.8607 132.267 50.1557 132.537 50.4457 132.857C50.7357 133.177 50.9657 133.552 51.1307 133.982C51.2957 134.412 51.3807 134.892 51.3807 135.437C51.3807 135.982 51.2457 136.577 50.9807 137.237L48.4807 143.402C48.2057 144.082 47.8757 144.622 47.4957 145.017C47.1157 145.417 46.7107 145.712 46.2907 145.912C45.8706 146.112 45.4406 146.227 45.0056 146.262C44.5706 146.297 44.1656 146.292 43.7956 146.242C43.4206 146.197 43.0956 146.127 42.8106 146.037C42.5256 145.947 42.3206 145.872 42.1906 145.822L41.8406 145.682C41.7106 145.627 41.5106 145.537 41.2456 145.402C40.9806 145.267 40.6956 145.092 40.3906 144.862C40.0856 144.632 39.7906 144.357 39.5056 144.027C39.2206 143.697 38.9906 143.317 38.8206 142.877C38.6506 142.442 38.5656 141.942 38.5656 141.392C38.5656 140.842 38.7056 140.222 38.9806 139.542L41.4806 133.377H41.4706ZM42.2356 141.322C42.1456 141.582 42.1156 141.827 42.1406 142.062C42.1606 142.272 42.2356 142.477 42.3606 142.692C42.4856 142.902 42.7206 143.077 43.0556 143.212C43.3856 143.347 43.6656 143.382 43.9006 143.317C44.1356 143.252 44.3306 143.152 44.4906 143.017C44.6656 142.862 44.8156 142.662 44.9356 142.417L47.6607 135.697C47.7407 135.442 47.7707 135.192 47.7557 134.957C47.7307 134.757 47.6607 134.547 47.5407 134.337C47.4207 134.122 47.1907 133.952 46.8657 133.817C46.5307 133.682 46.2407 133.647 46.0007 133.712C45.7606 133.777 45.5657 133.877 45.4056 134.007C45.2206 134.167 45.0706 134.367 44.9606 134.607L42.2356 141.327V141.322Z" fill="#E74826"/>
<path d="M53.6958 135.892C53.7308 135.577 53.7858 135.267 53.8558 134.967C53.9258 134.672 54.0358 134.412 54.1808 134.187C54.3258 133.962 54.5358 133.797 54.7958 133.682C55.0558 133.567 55.4008 133.537 55.8258 133.587C56.2508 133.637 56.5808 133.747 56.8108 133.922C57.0408 134.097 57.2008 134.307 57.2958 134.557C57.3908 134.807 57.4308 135.087 57.4258 135.392C57.4208 135.697 57.3958 136.007 57.3608 136.327L56.3358 145.032C56.3208 145.357 56.3508 145.652 56.4308 145.917C56.4608 146.032 56.5058 146.147 56.5708 146.257C56.6358 146.367 56.7108 146.472 56.7958 146.562C56.8858 146.657 56.9958 146.732 57.1258 146.797C57.2558 146.862 57.4108 146.902 57.5858 146.922C57.7608 146.942 57.9258 146.937 58.0708 146.907C58.2158 146.877 58.3458 146.827 58.4508 146.757C58.5558 146.687 58.6558 146.607 58.7408 146.512C58.8258 146.417 58.8958 146.317 58.9558 146.212C59.0958 145.972 59.1908 145.692 59.2458 145.372L60.2709 136.667C60.3059 136.352 60.3609 136.042 60.4259 135.742C60.4909 135.442 60.5959 135.182 60.7459 134.962C60.8959 134.742 61.1009 134.572 61.3609 134.457C61.6209 134.342 61.9659 134.312 62.4009 134.362C62.8259 134.412 63.1559 134.522 63.3809 134.697C63.6109 134.867 63.7659 135.082 63.8609 135.332C63.9559 135.582 64.0009 135.862 63.9959 136.167C63.9959 136.472 63.9709 136.787 63.9359 137.102L62.9459 145.522C62.8559 146.287 62.6509 146.942 62.3409 147.492C62.0259 148.037 61.6209 148.477 61.1209 148.812C60.6209 149.147 60.0459 149.372 59.3959 149.492C58.7458 149.612 58.0358 149.627 57.2808 149.537C56.5158 149.447 55.8308 149.262 55.2308 148.987C54.6308 148.712 54.1258 148.352 53.7158 147.907C53.3108 147.462 53.0158 146.937 52.8358 146.337C52.6558 145.732 52.6108 145.062 52.7008 144.317L53.6908 135.897L53.6958 135.892Z" fill="#E74826"/>
<path d="M66.6259 137.097C66.6059 136.777 66.5909 136.467 66.5909 136.162C66.5909 135.857 66.6309 135.582 66.7209 135.342C66.8059 135.097 66.9609 134.897 67.1759 134.737C67.391 134.577 67.706 134.482 68.121 134.457L71.786 134.212C72.701 134.197 73.526 134.337 74.266 134.627C74.581 134.757 74.8911 134.917 75.1961 135.117C75.5011 135.317 75.7811 135.567 76.0311 135.877C76.2811 136.182 76.4911 136.552 76.6611 136.977C76.8311 137.402 76.9361 137.907 76.9711 138.482C76.9811 138.602 76.9761 138.757 76.9711 138.957C76.9661 139.157 76.9261 139.372 76.8711 139.612C76.8111 139.852 76.7311 140.102 76.6211 140.362C76.5111 140.622 76.3611 140.872 76.1711 141.117C75.9811 141.362 75.7411 141.587 75.4511 141.802C75.1661 142.012 74.821 142.192 74.421 142.337C74.686 142.422 74.9611 142.542 75.2361 142.687C75.5111 142.832 75.7661 143.032 76.0011 143.277C76.2311 143.522 76.4311 143.822 76.5911 144.172C76.7511 144.527 76.8461 144.942 76.8811 145.422L76.9861 146.997C76.9911 147.087 77.0211 147.157 77.0661 147.217C77.1161 147.272 77.1611 147.322 77.2111 147.362C77.4011 147.527 77.5161 147.672 77.5511 147.802C77.5911 147.927 77.6111 148.032 77.6161 148.117C77.6311 148.377 77.5961 148.597 77.5061 148.782C77.4161 148.967 77.2911 149.122 77.1311 149.242C76.9711 149.362 76.7861 149.457 76.5811 149.517C76.3761 149.577 76.1561 149.617 75.9361 149.632C75.6911 149.647 75.4411 149.627 75.1861 149.567C74.931 149.507 74.6911 149.407 74.4761 149.272C74.261 149.137 74.076 148.962 73.936 148.752C73.796 148.542 73.711 148.287 73.691 147.997L73.536 145.642C73.516 145.317 73.471 145.017 73.411 144.747C73.351 144.477 73.246 144.247 73.106 144.052C72.966 143.857 72.781 143.717 72.551 143.622C72.321 143.527 72.031 143.492 71.676 143.512L70.431 143.597L70.676 147.307C70.696 147.632 70.711 147.952 70.711 148.262C70.711 148.572 70.671 148.852 70.581 149.102C70.496 149.347 70.341 149.552 70.121 149.712C69.901 149.872 69.581 149.967 69.161 149.992C68.746 150.022 68.421 149.967 68.186 149.837C67.951 149.707 67.771 149.527 67.656 149.292C67.536 149.057 67.456 148.787 67.416 148.477C67.3759 148.167 67.346 147.852 67.326 147.527L66.6309 137.092L66.6259 137.097ZM71.771 141.012C72.141 140.972 72.466 140.862 72.751 140.677C72.871 140.602 72.991 140.507 73.101 140.397C73.211 140.287 73.311 140.147 73.396 139.987C73.481 139.827 73.546 139.637 73.586 139.427C73.626 139.217 73.641 138.972 73.621 138.702C73.606 138.457 73.561 138.242 73.496 138.057C73.426 137.872 73.346 137.712 73.246 137.577C73.146 137.442 73.041 137.332 72.916 137.242C72.796 137.152 72.671 137.082 72.551 137.032C72.261 136.912 71.936 136.852 71.581 136.852L69.981 136.957L70.256 141.107L71.766 141.007L71.771 141.012Z" fill="#E74826"/>
<path d="M93.0913 138.052L94.8863 141.182C95.0463 141.457 95.1913 141.732 95.3263 142.007C95.4613 142.282 95.5413 142.547 95.5663 142.807C95.5913 143.067 95.5363 143.317 95.4113 143.557C95.2863 143.797 95.0313 144.022 94.6613 144.237C94.3013 144.442 93.9863 144.542 93.7163 144.527C93.4463 144.512 93.2113 144.432 93.0013 144.277C92.7913 144.122 92.6063 143.917 92.4363 143.662C92.2713 143.407 92.1063 143.142 91.9463 142.867L86.7262 133.752C86.5662 133.477 86.4212 133.202 86.2862 132.927C86.1512 132.657 86.0712 132.387 86.0412 132.132C86.0112 131.877 86.0612 131.627 86.1862 131.387C86.3112 131.147 86.5512 130.927 86.9112 130.722L90.0962 128.896C90.9162 128.476 91.7263 128.236 92.5263 128.171C92.8713 128.146 93.2263 128.156 93.5913 128.201C93.9563 128.246 94.3213 128.356 94.6813 128.516C95.0413 128.676 95.3963 128.916 95.7363 129.231C96.0763 129.546 96.3913 129.951 96.6813 130.452C97.0763 131.142 97.3163 131.807 97.3963 132.447C97.4763 133.087 97.4163 133.702 97.2063 134.287C97.0013 134.872 96.6513 135.422 96.1613 135.937C95.6763 136.452 95.0613 136.922 94.3213 137.342L93.0863 138.052H93.0913ZM93.0913 135.002C93.4013 134.797 93.6463 134.557 93.8263 134.272C93.9013 134.152 93.9663 134.017 94.0163 133.867C94.0663 133.717 94.0963 133.552 94.1063 133.372C94.1163 133.192 94.0913 132.997 94.0363 132.792C93.9813 132.587 93.8863 132.367 93.7563 132.132C93.6313 131.912 93.4963 131.737 93.3563 131.602C93.2163 131.467 93.0713 131.362 92.9263 131.287C92.7813 131.212 92.6363 131.162 92.4913 131.132C92.3463 131.102 92.2063 131.092 92.0713 131.092C91.7563 131.112 91.4413 131.192 91.1213 131.342L89.7112 132.147L91.7813 135.757L93.0963 135.007L93.0913 135.002Z" fill="#E74826"/>
<path d="M97.3564 129.432C96.8063 128.977 96.4063 128.512 96.1513 128.037C95.8963 127.557 95.7413 127.087 95.6913 126.627C95.6363 126.167 95.6613 125.727 95.7663 125.302C95.8663 124.882 95.9963 124.497 96.1563 124.152C96.3163 123.806 96.4813 123.512 96.6513 123.272C96.8213 123.031 96.9563 122.851 97.0413 122.741L97.2813 122.451C97.3713 122.341 97.5214 122.181 97.7264 121.966C97.9314 121.751 98.1864 121.536 98.4914 121.316C98.7964 121.096 99.1464 120.896 99.5414 120.716C99.9364 120.536 100.361 120.431 100.816 120.401C101.276 120.371 101.761 120.436 102.276 120.596C102.791 120.756 103.326 121.066 103.876 121.516L109.012 125.752C109.577 126.217 109.992 126.697 110.257 127.177C110.522 127.657 110.687 128.132 110.747 128.592C110.812 129.052 110.792 129.497 110.697 129.922C110.602 130.347 110.472 130.732 110.317 131.072C110.162 131.412 109.997 131.707 109.827 131.947C109.657 132.192 109.522 132.367 109.437 132.477L109.197 132.767C109.107 132.877 108.957 133.037 108.751 133.252C108.546 133.467 108.287 133.687 107.981 133.907C107.676 134.127 107.321 134.327 106.921 134.502C106.521 134.677 106.086 134.782 105.621 134.812C105.151 134.842 104.656 134.777 104.126 134.612C103.596 134.447 103.051 134.132 102.486 133.662L97.3564 129.427V129.432ZM105.161 131.087C105.381 131.252 105.611 131.357 105.841 131.402C106.046 131.447 106.266 131.437 106.506 131.382C106.746 131.327 106.981 131.157 107.211 130.877C107.436 130.602 107.556 130.342 107.561 130.102C107.571 129.857 107.531 129.642 107.451 129.447C107.356 129.237 107.211 129.032 107.011 128.842L101.416 124.227C101.196 124.077 100.971 123.972 100.736 123.912C100.536 123.872 100.321 123.881 100.076 123.931C99.8364 123.987 99.6014 124.147 99.3764 124.422C99.1464 124.702 99.0264 124.967 99.0164 125.217C99.0064 125.467 99.0414 125.682 99.1164 125.872C99.2114 126.097 99.3564 126.297 99.5514 126.477L105.146 131.092L105.161 131.087Z" fill="#E74826"/>
<path d="M103.336 118.081C103.046 117.946 102.771 117.796 102.511 117.636C102.251 117.476 102.036 117.291 101.871 117.076C101.706 116.861 101.606 116.611 101.576 116.326C101.546 116.041 101.621 115.706 101.806 115.316C101.986 114.926 102.201 114.651 102.436 114.496C102.671 114.341 102.931 114.256 103.201 114.246C103.471 114.236 103.751 114.286 104.041 114.381C104.331 114.481 104.621 114.596 104.906 114.731L114.367 119.186C114.662 119.326 114.942 119.471 115.207 119.626C115.472 119.781 115.682 119.966 115.852 120.181C116.017 120.396 116.112 120.646 116.137 120.931C116.162 121.216 116.082 121.556 115.897 121.946C115.717 122.336 115.507 122.611 115.272 122.771C115.037 122.932 114.782 123.017 114.512 123.022C114.242 123.032 113.962 122.986 113.672 122.886C113.382 122.786 113.092 122.666 112.797 122.531L103.331 118.076L103.336 118.081Z" fill="#E74826"/>
<path d="M108.152 109.556C108.457 109.631 108.747 109.616 109.032 109.511C109.317 109.406 109.602 109.246 109.892 109.031C110.182 108.811 110.477 108.556 110.777 108.261C111.077 107.966 111.387 107.666 111.712 107.356C112.037 107.051 112.382 106.756 112.742 106.476C113.102 106.196 113.487 105.961 113.902 105.776C114.312 105.586 114.757 105.466 115.222 105.406C115.692 105.346 116.197 105.386 116.737 105.516L116.822 105.541C117.407 105.701 117.902 105.911 118.297 106.171C118.697 106.431 119.017 106.726 119.272 107.046C119.522 107.366 119.707 107.716 119.827 108.086C119.947 108.456 120.017 108.831 120.047 109.211C120.077 109.591 120.067 109.966 120.017 110.331C119.972 110.701 119.907 111.041 119.832 111.356L119.802 111.466C119.637 112.076 119.432 112.591 119.187 113.016C118.942 113.441 118.672 113.791 118.377 114.066C118.082 114.341 117.777 114.551 117.452 114.696C117.127 114.841 116.807 114.941 116.487 114.996C116.172 115.051 115.862 115.066 115.567 115.046C115.272 115.026 115.002 114.986 114.762 114.921C114.512 114.851 114.307 114.751 114.142 114.616C113.977 114.481 113.857 114.326 113.777 114.156C113.697 113.986 113.652 113.801 113.642 113.601C113.632 113.401 113.657 113.206 113.712 113.001C113.762 112.816 113.842 112.631 113.952 112.451C114.062 112.271 114.197 112.116 114.362 111.986C114.522 111.856 114.712 111.766 114.922 111.711C115.132 111.656 115.362 111.661 115.607 111.716C116.147 111.846 116.547 111.826 116.807 111.646C117.067 111.471 117.252 111.166 117.367 110.736C117.417 110.521 117.447 110.311 117.447 110.116C117.447 109.921 117.412 109.741 117.327 109.581C117.242 109.421 117.112 109.276 116.937 109.146C116.762 109.016 116.522 108.911 116.222 108.831C115.847 108.731 115.492 108.726 115.142 108.811C114.797 108.896 114.457 109.041 114.127 109.246C113.797 109.451 113.467 109.696 113.137 109.981C112.807 110.271 112.482 110.566 112.147 110.866C111.817 111.166 111.477 111.461 111.127 111.736C110.777 112.016 110.417 112.251 110.042 112.451C109.667 112.651 109.272 112.781 108.862 112.851C108.452 112.921 108.012 112.896 107.547 112.776L107.377 112.731C106.612 112.516 106.002 112.241 105.547 111.906C105.092 111.571 104.767 111.171 104.567 110.706C104.372 110.241 104.287 109.716 104.312 109.121C104.337 108.526 104.447 107.871 104.642 107.146L104.717 106.866C104.897 106.206 105.117 105.666 105.387 105.251C105.657 104.836 105.942 104.501 106.242 104.256C106.547 104.011 106.862 103.841 107.187 103.741C107.512 103.641 107.822 103.586 108.122 103.571C108.417 103.561 108.687 103.571 108.927 103.616C109.167 103.661 109.362 103.701 109.507 103.736C109.722 103.796 109.907 103.886 110.057 104.016C110.207 104.146 110.327 104.296 110.412 104.471C110.497 104.646 110.547 104.836 110.562 105.041C110.577 105.251 110.557 105.466 110.497 105.686C110.452 105.856 110.372 106.021 110.257 106.176C110.142 106.331 110.012 106.461 109.867 106.566C109.722 106.671 109.572 106.751 109.407 106.796C109.242 106.841 109.092 106.851 108.947 106.811C108.362 106.651 107.922 106.646 107.637 106.796C107.352 106.946 107.152 107.226 107.042 107.631C106.987 107.826 106.947 108.016 106.922 108.201C106.892 108.391 106.912 108.566 106.967 108.731C107.027 108.896 107.147 109.046 107.322 109.186C107.502 109.321 107.772 109.441 108.137 109.536L108.152 109.556Z" fill="#E74826"/>
<path d="M110.516 102.001C109.806 101.931 109.216 101.766 108.736 101.506C108.261 101.251 107.871 100.946 107.571 100.586C107.271 100.231 107.046 99.8512 106.901 99.4462C106.751 99.0412 106.646 98.6511 106.591 98.2761C106.531 97.9011 106.506 97.5661 106.516 97.2661C106.521 96.9711 106.536 96.7511 106.551 96.6111L106.591 96.2361C106.606 96.0961 106.636 95.8811 106.691 95.5861C106.746 95.2911 106.836 94.9711 106.971 94.6211C107.106 94.2711 107.281 93.9111 107.511 93.5411C107.736 93.1711 108.031 92.8511 108.396 92.5661C108.761 92.2861 109.201 92.071 109.721 91.916C110.241 91.766 110.851 91.726 111.561 91.796L118.182 92.4661C118.912 92.5411 119.522 92.7061 120.012 92.9611C120.502 93.2161 120.897 93.5161 121.207 93.8661C121.517 94.2161 121.747 94.5911 121.902 95.0011C122.057 95.4061 122.167 95.7961 122.227 96.1711C122.287 96.5411 122.312 96.8761 122.302 97.1761C122.297 97.4711 122.282 97.6911 122.267 97.8311L122.227 98.2061C122.212 98.3461 122.182 98.5611 122.127 98.8561C122.072 99.1511 121.982 99.4762 121.847 99.8312C121.712 100.186 121.532 100.546 121.297 100.916C121.062 101.286 120.757 101.611 120.387 101.896C120.017 102.181 119.562 102.401 119.032 102.556C118.502 102.711 117.872 102.751 117.142 102.676L110.521 102.006L110.516 102.001ZM117.927 99.0411C118.202 99.0511 118.447 99.0161 118.667 98.9261C118.862 98.8511 119.042 98.7211 119.212 98.5411C119.382 98.3611 119.482 98.0911 119.517 97.7261C119.552 97.3711 119.507 97.0911 119.377 96.8861C119.252 96.6811 119.097 96.5211 118.922 96.4061C118.727 96.2811 118.492 96.1961 118.222 96.1461L111.006 95.4161C110.736 95.4111 110.491 95.4511 110.266 95.5311C110.081 95.6111 109.901 95.7361 109.731 95.9111C109.561 96.0861 109.456 96.3511 109.421 96.7061C109.386 97.0661 109.431 97.3561 109.561 97.5661C109.691 97.7761 109.841 97.9411 110.011 98.0511C110.216 98.1861 110.446 98.2711 110.711 98.3111L117.927 99.0411Z" fill="#E74826"/>
<path d="M117.827 80.2409L117.817 79.9759L108.592 80.3959C108.357 80.4059 108.132 80.4009 107.917 80.3809C107.702 80.3609 107.517 80.3059 107.357 80.2109C107.197 80.1159 107.066 79.9759 106.966 79.7809C106.866 79.5909 106.806 79.3208 106.791 78.9808C106.771 78.6008 106.806 78.3008 106.891 78.0808C106.976 77.8558 107.091 77.6858 107.241 77.5708C107.392 77.4508 107.571 77.3758 107.782 77.3358C107.992 77.2958 108.217 77.2708 108.452 77.2608L119.722 76.7458C120.047 76.7308 120.362 76.7258 120.667 76.7308C120.972 76.7308 121.247 76.7808 121.492 76.8708C121.737 76.9608 121.937 77.1158 122.092 77.3358C122.247 77.5558 122.332 77.8708 122.352 78.2758L122.417 79.7409C122.432 80.0909 122.377 80.3809 122.252 80.6209C122.127 80.8609 121.967 81.0609 121.777 81.2259C121.587 81.3909 121.387 81.5259 121.177 81.6259C120.967 81.7309 120.787 81.8109 120.642 81.8659L111.702 85.6359L111.712 85.9009L120.937 85.4809C121.177 85.4709 121.397 85.4759 121.612 85.4959C121.827 85.5159 122.012 85.5709 122.172 85.6659C122.332 85.7609 122.462 85.9009 122.562 86.0959C122.662 86.2909 122.722 86.556 122.737 86.896C122.757 87.281 122.722 87.586 122.642 87.816C122.557 88.041 122.442 88.216 122.292 88.331C122.142 88.446 121.962 88.526 121.752 88.566C121.542 88.606 121.317 88.631 121.082 88.641L109.812 89.156C109.492 89.171 109.182 89.176 108.872 89.171C108.562 89.171 108.287 89.116 108.042 89.026C107.797 88.936 107.597 88.776 107.441 88.556C107.286 88.336 107.202 88.021 107.182 87.606L107.111 86.1409C107.096 85.7709 107.151 85.4659 107.286 85.2259C107.422 84.9859 107.572 84.7859 107.732 84.6309C107.922 84.4609 108.147 84.3209 108.402 84.2109L117.822 80.2409H117.827Z" fill="#E74826"/>
</svg>
