<svg width="25" height="43" viewBox="0 0 25 43" fill="none" xmlns="http://www.w3.org/2000/svg">
<path d="M7.85996 2.1401C8.30996 9.3001 5.60996 16.4001 4.26996 23.4501C1.54996 28.0801 -1.54005 34.6501 3.70995 38.6501C9.18995 43.2001 20.16 43.5101 23.75 36.6401C25.99 32.1501 22.91 27.6801 20.27 23.9601C19.46 16.1601 21.83 8.5801 20.55 0.850098C20.55 0.850098 15.78 2.1501 14.14 2.3201C10.12 2.7201 7.86996 2.1501 7.86996 2.1501L7.85996 2.1401Z" fill="white" stroke="#141414" stroke-width="0.5" stroke-miterlimit="10"/>
<path d="M4.08995 28.5701C3.36995 29.7801 3.08995 31.2501 3.30995 32.6401C3.52995 34.0301 4.24995 35.3401 5.30995 36.2701" fill="white"/>
<path d="M4.08995 28.5701C3.36995 29.7801 3.08995 31.2501 3.30995 32.6401C3.52995 34.0301 4.24995 35.3401 5.30995 36.2701" stroke="#141414" stroke-width="0.5" stroke-linecap="round" stroke-linejoin="round"/>
</svg>
