<svg width="340" height="300" viewBox="0 0 340 300" fill="none" xmlns="http://www.w3.org/2000/svg">
<path d="M281.309 125.65C279.099 94.3064 242.86 39.6336 157.309 50.2367C92.9755 58.208 59.7364 104.487 63.4838 135.777C64.1228 141.084 67.6319 148.979 71.0544 152.965C79.7513 163.102 93.7119 165.962 106.698 167.326C151.092 171.983 189.985 172.557 239.914 160.059C248.568 157.893 257.763 155.607 265.323 150.69C272.882 145.773 281.98 135.17 281.309 125.65Z" fill="white"/>
<path d="M281.309 125.65C279.099 94.3064 242.86 39.6336 157.309 50.2367C92.9755 58.208 59.7364 104.487 63.4838 135.777C64.1228 141.084 67.6319 148.979 71.0544 152.965C79.7513 163.102 93.7119 165.962 106.698 167.326C151.092 171.983 189.985 172.557 239.914 160.059C248.568 157.893 257.763 155.607 265.323 150.69C272.882 145.773 281.98 135.17 281.309 125.65Z" fill="#ED2214"/>
<path d="M157.721 171.453C140.771 171.453 124.038 170.262 106.579 168.432C93.6902 167.078 79.2855 164.273 70.2095 153.691C66.6246 149.511 63.0397 141.377 62.379 135.918C58.7616 105.701 90.4302 57.4073 157.179 49.1327C205.364 43.1651 235.214 58.133 251.752 71.747C272.785 89.0543 281.384 110.9 282.413 125.564C283.085 135.084 274.42 146.088 265.918 151.612C258.25 156.605 249.131 158.89 240.315 161.089C210.097 168.648 183.66 171.443 157.71 171.443L157.721 171.453ZM178.331 49.9992C171.8 49.9992 164.847 50.4107 157.439 51.3313C92.1198 59.4435 61.0793 106.329 64.5884 135.647C65.1949 140.651 68.6066 148.406 71.8991 152.24C80.4769 162.226 94.3617 164.912 106.817 166.222C152.013 170.966 189.996 171.41 239.643 158.977C248.427 156.778 257.362 154.536 264.716 149.749C271.539 145.308 280.854 134.922 280.204 125.716C279.207 111.506 270.835 90.3215 250.344 73.4582C236.665 62.2053 213.671 49.9992 178.342 49.9992H178.331Z" fill="black"/>
<path d="M74.455 139.969C70.9784 131.207 79.8053 122.239 84.0726 120.214C100.73 112.329 111.474 112.307 129.843 113.921C139.579 114.777 149.186 116.997 158.966 117.419C171.833 117.972 184.635 115.394 197.111 112.188C208.364 109.296 219.639 105.841 231.249 105.636C269.135 104.964 275.265 123.246 271.16 130.102C262.366 144.799 244.03 150.334 227.188 153.399C187.321 160.633 144.94 162.215 104.856 156.312C83.0761 153.106 77.7367 148.222 74.455 139.969Z" fill="white"/>
<path d="M155.641 161.023C138.182 161.023 121.081 159.821 104.705 157.417C82.708 154.178 76.9136 149.142 73.437 140.38C69.603 130.708 79.1664 121.318 83.6069 119.217C100.405 111.267 111.117 111.17 129.951 112.816C134.197 113.184 138.475 113.823 142.601 114.441C147.973 115.242 153.529 116.076 159.009 116.304C172.299 116.91 185.588 113.997 196.83 111.105C198.411 110.704 199.982 110.282 201.563 109.87C211.17 107.336 221.112 104.704 231.239 104.52C258.748 104.054 268.182 113.217 271.377 118.741C274.236 123.679 273.64 128.142 272.124 130.676C262.777 146.294 243.315 151.601 227.394 154.492C203.404 158.846 179.198 161.023 155.641 161.023ZM75.4948 139.557C78.6573 147.528 84.0943 152.131 105.019 155.207C143.273 160.839 185.447 159.832 226.993 152.294C242.448 149.489 261.326 144.366 270.218 129.528C271.355 127.632 271.832 123.961 269.449 119.845C267.077 115.741 258.608 106.188 231.271 106.74C221.415 106.914 211.614 109.502 202.126 112.015C200.545 112.437 198.964 112.849 197.382 113.26C185.978 116.195 172.515 119.098 158.912 118.535C153.313 118.297 147.691 117.452 142.265 116.639C138.161 116.033 133.926 115.394 129.745 115.026C111.333 113.412 100.86 113.499 84.5492 121.221C80.7585 123.019 72.2348 131.369 75.4948 139.557Z" fill="black"/>
<path d="M145.731 116.12C147.865 149.728 135.171 183.021 128.879 216.097C126.03 231.044 124.265 246.596 127.839 261.391C131.402 276.186 141.171 290.222 155.5 295.367C161.013 297.349 166.927 297.955 172.775 298.107C177.952 298.247 183.237 298.02 188.111 296.265C201.671 291.37 208.559 275.763 209.101 261.358C209.632 246.943 205.397 232.82 203.913 218.48C200.133 181.884 211.235 146.348 205.224 110.055C205.224 110.055 182.848 116.174 175.169 116.933C156.291 118.806 145.742 116.12 145.742 116.12H145.731Z" fill="white"/>
<path d="M175.234 299.265C174.389 299.265 173.555 299.254 172.743 299.232C165.41 299.037 159.984 298.171 155.121 296.427C141.626 291.575 130.752 278.254 126.756 261.661C122.976 245.968 125.153 229.722 127.785 215.891C129.669 205.992 132.16 195.909 134.576 186.161C140.24 163.265 146.099 139.6 144.616 116.196C144.594 115.838 144.746 115.502 145.016 115.275C145.287 115.047 145.655 114.961 146.002 115.058C146.11 115.08 156.627 117.668 175.05 115.849C182.544 115.102 204.693 109.069 204.92 109.004C205.224 108.917 205.549 108.972 205.808 109.145C206.068 109.318 206.253 109.589 206.307 109.892C209.545 129.42 207.834 149.012 206.177 167.966C204.736 184.428 203.252 201.443 205.007 218.382C205.549 223.613 206.469 228.909 207.368 234.043C208.928 242.957 210.541 252.184 210.195 261.423C209.707 274.55 203.729 291.835 188.48 297.337C184.071 298.929 179.436 299.276 175.234 299.276V299.265ZM146.923 117.506C148.103 140.77 142.33 164.11 136.742 186.692C134.337 196.418 131.846 206.468 129.973 216.313C127.384 229.906 125.24 245.859 128.922 261.141C132.745 277.019 143.078 289.734 155.869 294.337C160.493 296.005 165.724 296.828 172.797 297.012C177.4 297.142 182.772 297.012 187.721 295.236C201.021 290.438 207.476 274.744 207.975 261.325C208.31 252.325 206.718 243.217 205.18 234.411C204.281 229.245 203.339 223.906 202.798 218.599C201.021 201.443 202.516 184.32 203.967 167.76C205.57 149.337 207.238 130.308 204.314 111.452C199.527 112.741 182.014 117.376 175.277 118.037C160.201 119.531 150.453 118.167 146.933 117.506H146.923Z" fill="black"/>
<path d="M144.453 204.638C144.355 204.638 144.258 204.628 144.16 204.595C143.565 204.433 143.218 203.826 143.381 203.231C148.016 186.389 151.525 169.071 153.8 151.774C153.875 151.168 154.439 150.745 155.045 150.821C155.652 150.897 156.085 151.46 155.998 152.067C153.713 169.472 150.182 186.876 145.514 203.826C145.373 204.314 144.929 204.638 144.442 204.638H144.453Z" fill="black"/>
<path d="M143.771 267.531C143.305 267.531 142.872 267.238 142.72 266.773C137.792 252.141 137.272 238.353 141.106 223.407C141.258 222.811 141.865 222.454 142.46 222.606C143.056 222.757 143.413 223.364 143.262 223.959C139.536 238.483 140.034 251.859 144.832 266.069C145.027 266.654 144.713 267.282 144.139 267.477C144.02 267.52 143.901 267.531 143.782 267.531H143.771Z" fill="black"/>
<path d="M74.455 141.074C74.2601 141.074 74.0651 141.02 73.8918 140.922C73.3611 140.608 73.1878 139.926 73.5019 139.406C77.5092 132.615 87.2134 118.276 87.3109 118.135C87.6575 117.626 88.3507 117.496 88.8489 117.842C89.3579 118.189 89.4879 118.882 89.1413 119.38C89.0438 119.521 79.3829 133.796 75.4081 140.533C75.2023 140.879 74.8341 141.074 74.455 141.074Z" fill="black"/>
<path d="M84.0727 150.28C83.8886 150.28 83.7153 150.236 83.542 150.15C83.0005 149.857 82.8055 149.186 83.0871 148.644C89.4122 136.915 95.2824 126.279 103.037 114.842C103.384 114.333 104.077 114.203 104.575 114.549C105.084 114.896 105.214 115.589 104.867 116.087C97.156 127.46 91.5566 137.619 85.0366 149.706C84.8308 150.074 84.4518 150.29 84.0619 150.29L84.0727 150.28Z" fill="black"/>
<path d="M97.4268 155.674C97.2535 155.674 97.0694 155.63 96.8961 155.544C96.3546 155.251 96.1596 154.58 96.4412 154.038C103.958 140.088 112.243 126.312 121.059 113.12C121.406 112.611 122.088 112.47 122.597 112.817C123.106 113.153 123.247 113.846 122.9 114.355C114.117 127.492 105.875 141.204 98.3907 155.089C98.185 155.457 97.8059 155.674 97.416 155.674H97.4268Z" fill="black"/>
<path d="M111.701 158.533C111.496 158.533 111.301 158.479 111.116 158.36C110.597 158.035 110.434 157.352 110.759 156.833C110.932 156.551 128.738 128.077 137.467 114.994C137.803 114.485 138.507 114.355 139.005 114.691C139.514 115.026 139.655 115.72 139.308 116.229C130.601 129.279 112.817 157.731 112.633 158.013C112.427 158.349 112.059 158.533 111.69 158.533H111.701Z" fill="black"/>
<path d="M129.269 159.68C129.041 159.68 128.814 159.615 128.608 159.463C128.121 159.095 128.012 158.402 128.37 157.915C133.98 150.301 139.254 142.297 144.042 134.12C144.345 133.589 145.027 133.416 145.558 133.719C146.089 134.033 146.262 134.716 145.959 135.235C141.139 143.477 135.821 151.546 130.157 159.225C129.94 159.518 129.604 159.68 129.269 159.68Z" fill="black"/>
<path d="M266.135 137.272C265.713 137.272 265.301 137.023 265.117 136.612L253.257 109.882C253.008 109.319 253.257 108.669 253.821 108.42C254.384 108.171 255.034 108.42 255.283 108.983L267.142 135.713C267.391 136.276 267.142 136.926 266.579 137.175C266.427 137.24 266.276 137.272 266.124 137.272H266.135Z" fill="black"/>
<path d="M255.261 145.698C254.817 145.698 254.394 145.427 254.221 144.983C249.207 131.878 244.04 119.261 238.398 106.405C238.149 105.842 238.398 105.192 238.972 104.943C239.535 104.704 240.196 104.943 240.434 105.517C246.087 118.405 251.275 131.055 256.301 144.193C256.517 144.767 256.236 145.406 255.662 145.622C255.532 145.677 255.402 145.698 255.261 145.698Z" fill="black"/>
<path d="M241.539 151.092C241.095 151.092 240.683 150.821 240.51 150.388L223.257 106.676C223.029 106.102 223.311 105.463 223.885 105.235C224.459 105.008 225.098 105.289 225.325 105.863L242.578 149.575C242.806 150.15 242.524 150.789 241.95 151.016C241.82 151.07 241.679 151.092 241.539 151.092Z" fill="black"/>
<path d="M225.877 154.298C225.444 154.298 225.032 154.038 224.848 153.616L206.61 109.86C206.371 109.297 206.642 108.647 207.205 108.409C207.768 108.181 208.418 108.441 208.657 109.004L226.895 152.76C227.134 153.323 226.863 153.973 226.3 154.211C226.159 154.265 226.018 154.298 225.877 154.298Z" fill="black"/>
<rect x="3" width="101.854" height="50.2985" rx="25.1493" fill="#E84827"/>
<path d="M36.0333 25.067C36.0333 23.911 36.2996 22.874 36.8323 21.956C37.3763 21.038 38.1073 20.324 39.0253 19.814C39.9546 19.2927 40.969 19.032 42.0683 19.032C43.3263 19.032 44.4426 19.3437 45.4173 19.967C46.4033 20.579 47.1173 21.4517 47.5593 22.585H45.2303C44.9243 21.9617 44.4993 21.497 43.9553 21.191C43.4113 20.885 42.7823 20.732 42.0683 20.732C41.2863 20.732 40.5893 20.9077 39.9773 21.259C39.3653 21.6103 38.8836 22.1147 38.5323 22.772C38.1923 23.4293 38.0223 24.1943 38.0223 25.067C38.0223 25.9397 38.1923 26.7047 38.5323 27.362C38.8836 28.0193 39.3653 28.5293 39.9773 28.892C40.5893 29.2433 41.2863 29.419 42.0683 29.419C42.7823 29.419 43.4113 29.266 43.9553 28.96C44.4993 28.654 44.9243 28.1893 45.2303 27.566H47.5593C47.1173 28.6993 46.4033 29.572 45.4173 30.184C44.4426 30.796 43.3263 31.102 42.0683 31.102C40.9576 31.102 39.9433 30.847 39.0253 30.337C38.1073 29.8157 37.3763 29.096 36.8323 28.178C36.2996 27.26 36.0333 26.223 36.0333 25.067ZM49.1817 26.274C49.1817 25.3333 49.3744 24.5003 49.7597 23.775C50.1564 23.0497 50.6891 22.4887 51.3577 22.092C52.0377 21.684 52.7857 21.48 53.6017 21.48C54.3384 21.48 54.9787 21.6273 55.5227 21.922C56.0781 22.2053 56.5201 22.5623 56.8487 22.993V21.633H58.8037V31H56.8487V29.606C56.5201 30.048 56.0724 30.4163 55.5057 30.711C54.9391 31.0057 54.2931 31.153 53.5677 31.153C52.7631 31.153 52.0264 30.949 51.3577 30.541C50.6891 30.1217 50.1564 29.5437 49.7597 28.807C49.3744 28.059 49.1817 27.2147 49.1817 26.274ZM56.8487 26.308C56.8487 25.662 56.7127 25.101 56.4407 24.625C56.1801 24.149 55.8344 23.7863 55.4037 23.537C54.9731 23.2877 54.5084 23.163 54.0097 23.163C53.5111 23.163 53.0464 23.2877 52.6157 23.537C52.1851 23.775 51.8337 24.132 51.5617 24.608C51.3011 25.0727 51.1707 25.628 51.1707 26.274C51.1707 26.92 51.3011 27.4867 51.5617 27.974C51.8337 28.4613 52.1851 28.8353 52.6157 29.096C53.0577 29.3453 53.5224 29.47 54.0097 29.47C54.5084 29.47 54.9731 29.3453 55.4037 29.096C55.8344 28.8467 56.1801 28.484 56.4407 28.008C56.7127 27.5207 56.8487 26.954 56.8487 26.308ZM63.2872 23.01C63.6159 22.5793 64.0636 22.2167 64.6302 21.922C65.1969 21.6273 65.8372 21.48 66.5512 21.48C67.3672 21.48 68.1096 21.684 68.7782 22.092C69.4582 22.4887 69.9909 23.0497 70.3762 23.775C70.7616 24.5003 70.9542 25.3333 70.9542 26.274C70.9542 27.2147 70.7616 28.059 70.3762 28.807C69.9909 29.5437 69.4582 30.1217 68.7782 30.541C68.1096 30.949 67.3672 31.153 66.5512 31.153C65.8372 31.153 65.2026 31.0113 64.6472 30.728C64.0919 30.4333 63.6386 30.0707 63.2872 29.64V35.454H61.3492V21.633H63.2872V23.01ZM68.9822 26.274C68.9822 25.628 68.8462 25.0727 68.5742 24.608C68.3136 24.132 67.9622 23.775 67.5202 23.537C67.0896 23.2877 66.6249 23.163 66.1262 23.163C65.6389 23.163 65.1742 23.2877 64.7322 23.537C64.3016 23.7863 63.9502 24.149 63.6782 24.625C63.4176 25.101 63.2872 25.662 63.2872 26.308C63.2872 26.954 63.4176 27.5207 63.6782 28.008C63.9502 28.484 64.3016 28.8467 64.7322 29.096C65.1742 29.3453 65.6389 29.47 66.1262 29.47C66.6249 29.47 67.0896 29.3453 67.5202 29.096C67.9622 28.8353 68.3136 28.4613 68.5742 27.974C68.8462 27.4867 68.9822 26.92 68.9822 26.274Z" fill="white"/>
<rect x="238.146" width="101.854" height="50.2985" rx="25.1493" fill="#807A72"/>
<path d="M280.988 22.585C280.682 21.9957 280.257 21.5537 279.713 21.259C279.169 20.953 278.54 20.8 277.826 20.8C277.044 20.8 276.347 20.9757 275.735 21.327C275.123 21.6783 274.641 22.177 274.29 22.823C273.95 23.469 273.78 24.217 273.78 25.067C273.78 25.917 273.95 26.6707 274.29 27.328C274.641 27.974 275.123 28.4727 275.735 28.824C276.347 29.1753 277.044 29.351 277.826 29.351C278.88 29.351 279.735 29.0563 280.393 28.467C281.05 27.8777 281.452 27.0787 281.6 26.07H277.163V24.523H283.674V26.036C283.549 26.954 283.22 27.7983 282.688 28.569C282.166 29.3397 281.481 29.9573 280.631 30.422C279.792 30.8753 278.857 31.102 277.826 31.102C276.715 31.102 275.701 30.847 274.783 30.337C273.865 29.8157 273.134 29.096 272.59 28.178C272.057 27.26 271.791 26.223 271.791 25.067C271.791 23.911 272.057 22.874 272.59 21.956C273.134 21.038 273.865 20.324 274.783 19.814C275.712 19.2927 276.726 19.032 277.826 19.032C279.084 19.032 280.2 19.3437 281.175 19.967C282.161 20.579 282.875 21.4517 283.317 22.585H280.988ZM286.571 20.392C286.22 20.392 285.925 20.273 285.687 20.035C285.449 19.797 285.33 19.5023 285.33 19.151C285.33 18.7997 285.449 18.505 285.687 18.267C285.925 18.029 286.22 17.91 286.571 17.91C286.911 17.91 287.2 18.029 287.438 18.267C287.676 18.505 287.795 18.7997 287.795 19.151C287.795 19.5023 287.676 19.797 287.438 20.035C287.2 20.273 286.911 20.392 286.571 20.392ZM287.523 21.633V31H285.585V21.633H287.523ZM292.005 18.42V31H290.067V18.42H292.005ZM296.488 18.42V31H294.55V18.42H296.488ZM302.432 31.153C301.696 31.153 301.033 31.0227 300.443 30.762C299.865 30.49 299.406 30.1273 299.066 29.674C298.726 29.2093 298.545 28.6937 298.522 28.127H300.528C300.562 28.5237 300.749 28.858 301.089 29.13C301.441 29.3907 301.877 29.521 302.398 29.521C302.942 29.521 303.362 29.419 303.656 29.215C303.962 28.9997 304.115 28.7277 304.115 28.399C304.115 28.0477 303.945 27.787 303.605 27.617C303.277 27.447 302.75 27.26 302.024 27.056C301.322 26.8633 300.749 26.6763 300.307 26.495C299.865 26.3137 299.48 26.036 299.151 25.662C298.834 25.288 298.675 24.795 298.675 24.183C298.675 23.6843 298.823 23.231 299.117 22.823C299.412 22.4037 299.831 22.075 300.375 21.837C300.931 21.599 301.565 21.48 302.279 21.48C303.345 21.48 304.2 21.752 304.846 22.296C305.504 22.8287 305.855 23.5597 305.9 24.489H303.962C303.928 24.0697 303.758 23.7353 303.452 23.486C303.146 23.2367 302.733 23.112 302.211 23.112C301.701 23.112 301.31 23.2083 301.038 23.401C300.766 23.5937 300.63 23.8487 300.63 24.166C300.63 24.4153 300.721 24.625 300.902 24.795C301.084 24.965 301.305 25.101 301.565 25.203C301.826 25.2937 302.211 25.4127 302.721 25.56C303.401 25.7413 303.957 25.9283 304.387 26.121C304.829 26.3023 305.209 26.5743 305.526 26.937C305.844 27.2997 306.008 27.7813 306.019 28.382C306.019 28.9147 305.872 29.3907 305.577 29.81C305.283 30.2293 304.863 30.558 304.319 30.796C303.787 31.034 303.158 31.153 302.432 31.153Z" fill="white"/>
<path d="M152 251C152 253.209 153.791 255 156 255C158.209 255 160 253.209 160 251C160 248.791 158.209 247 156 247C153.791 247 152 248.791 152 251ZM105 251.75H156V250.25H105V251.75Z" fill="#807A72"/>
<path d="M179 204.743C179 202.534 177.209 200.743 175 200.743C172.791 200.743 171 202.534 171 204.743C171 206.952 172.791 208.743 175 208.743C177.209 208.743 179 206.952 179 204.743ZM238 203.993H175V205.493H238V203.993Z" fill="#807A72"/>
<path d="M290 128L290 128.75L290.75 128.75L290.75 128L290 128ZM243 124C240.791 124 239 125.791 239 128C239 130.209 240.791 132 243 132C245.209 132 247 130.209 247 128C247 125.791 245.209 124 243 124ZM289.25 50L289.25 128L290.75 128L290.75 50L289.25 50ZM290 127.25L243 127.25L243 128.75L290 128.75L290 127.25Z" fill="#807A72"/>
<path d="M127.5 26H128.25V25.25H127.5V26ZM123.5 73C123.5 75.2091 125.291 77 127.5 77C129.709 77 131.5 75.2091 131.5 73C131.5 70.7909 129.709 69 127.5 69C125.291 69 123.5 70.7909 123.5 73ZM105 26.75H127.5V25.25H105V26.75ZM126.75 26V73H128.25V26H126.75Z" fill="#807A72"/>
<rect x="238.146" y="180" width="101.854" height="50.2985" rx="25.1493" fill="#807A72"/>
<path d="M277.519 211.131L274.799 206.405H273.32V211.131H271.382V199.316H275.462C276.369 199.316 277.134 199.475 277.757 199.792C278.392 200.109 278.862 200.534 279.168 201.067C279.486 201.6 279.644 202.195 279.644 202.852C279.644 203.623 279.418 204.325 278.964 204.96C278.522 205.583 277.837 206.008 276.907 206.235L279.831 211.131H277.519ZM273.32 204.858H275.462C276.188 204.858 276.732 204.677 277.094 204.314C277.468 203.951 277.655 203.464 277.655 202.852C277.655 202.24 277.474 201.764 277.111 201.424C276.749 201.073 276.199 200.897 275.462 200.897H273.32V204.858ZM283.11 200.523C282.758 200.523 282.464 200.404 282.226 200.166C281.988 199.928 281.869 199.633 281.869 199.282C281.869 198.931 281.988 198.636 282.226 198.398C282.464 198.16 282.758 198.041 283.11 198.041C283.45 198.041 283.739 198.16 283.977 198.398C284.215 198.636 284.334 198.931 284.334 199.282C284.334 199.633 284.215 199.928 283.977 200.166C283.739 200.404 283.45 200.523 283.11 200.523ZM284.062 201.764V211.131H282.124V201.764H284.062ZM291.332 201.611C292.069 201.611 292.726 201.764 293.304 202.07C293.893 202.376 294.352 202.829 294.681 203.43C295.01 204.031 295.174 204.756 295.174 205.606V211.131H293.253V205.895C293.253 205.056 293.043 204.416 292.624 203.974C292.205 203.521 291.632 203.294 290.907 203.294C290.182 203.294 289.604 203.521 289.173 203.974C288.754 204.416 288.544 205.056 288.544 205.895V211.131H286.606V201.764H288.544V202.835C288.861 202.45 289.264 202.149 289.751 201.934C290.25 201.719 290.777 201.611 291.332 201.611ZM301.42 201.611C302.145 201.611 302.786 201.758 303.341 202.053C303.908 202.336 304.35 202.693 304.667 203.124V201.764H306.622V211.284C306.622 212.145 306.441 212.91 306.078 213.579C305.715 214.259 305.188 214.792 304.497 215.177C303.817 215.562 303.001 215.755 302.049 215.755C300.78 215.755 299.726 215.455 298.887 214.854C298.048 214.265 297.572 213.46 297.459 212.44H299.38C299.527 212.927 299.839 213.318 300.315 213.613C300.802 213.919 301.38 214.072 302.049 214.072C302.831 214.072 303.46 213.834 303.936 213.358C304.423 212.882 304.667 212.191 304.667 211.284V209.72C304.338 210.162 303.891 210.536 303.324 210.842C302.769 211.137 302.134 211.284 301.42 211.284C300.604 211.284 299.856 211.08 299.176 210.672C298.507 210.253 297.975 209.675 297.578 208.938C297.193 208.19 297 207.346 297 206.405C297 205.464 297.193 204.631 297.578 203.906C297.975 203.181 298.507 202.62 299.176 202.223C299.856 201.815 300.604 201.611 301.42 201.611ZM304.667 206.439C304.667 205.793 304.531 205.232 304.259 204.756C303.998 204.28 303.653 203.917 303.222 203.668C302.791 203.419 302.327 203.294 301.828 203.294C301.329 203.294 300.865 203.419 300.434 203.668C300.003 203.906 299.652 204.263 299.38 204.739C299.119 205.204 298.989 205.759 298.989 206.405C298.989 207.051 299.119 207.618 299.38 208.105C299.652 208.592 300.003 208.966 300.434 209.227C300.876 209.476 301.341 209.601 301.828 209.601C302.327 209.601 302.791 209.476 303.222 209.227C303.653 208.978 303.998 208.615 304.259 208.139C304.531 207.652 304.667 207.085 304.667 206.439Z" fill="white"/>
<rect x="4" y="225" width="101.854" height="50.2985" rx="25.1493" fill="#807A72"/>
<path d="M37.2974 256.507C36.5041 256.507 35.7901 256.371 35.1554 256.099C34.5207 255.816 34.0221 255.419 33.6594 254.909C33.2967 254.399 33.1154 253.804 33.1154 253.124H35.1894C35.2347 253.634 35.4331 254.054 35.7844 254.382C36.1471 254.711 36.6514 254.875 37.2974 254.875C37.9661 254.875 38.4874 254.717 38.8614 254.399C39.2354 254.071 39.4224 253.651 39.4224 253.141C39.4224 252.745 39.3034 252.422 39.0654 252.172C38.8387 251.923 38.5497 251.73 38.1984 251.594C37.8584 251.458 37.3824 251.311 36.7704 251.152C35.9997 250.948 35.3707 250.744 34.8834 250.54C34.4074 250.325 33.9994 249.996 33.6594 249.554C33.3194 249.112 33.1494 248.523 33.1494 247.786C33.1494 247.106 33.3194 246.511 33.6594 246.001C33.9994 245.491 34.4754 245.1 35.0874 244.828C35.6994 244.556 36.4077 244.42 37.2124 244.42C38.3571 244.42 39.2921 244.709 40.0174 245.287C40.7541 245.854 41.1621 246.636 41.2414 247.633H39.0994C39.0654 247.203 38.8614 246.834 38.4874 246.528C38.1134 246.222 37.6204 246.069 37.0084 246.069C36.4531 246.069 35.9997 246.211 35.6484 246.494C35.2971 246.778 35.1214 247.186 35.1214 247.718C35.1214 248.081 35.2291 248.381 35.4444 248.619C35.6711 248.846 35.9544 249.027 36.2944 249.163C36.6344 249.299 37.0991 249.447 37.6884 249.605C38.4704 249.821 39.1051 250.036 39.5924 250.251C40.0911 250.467 40.5104 250.801 40.8504 251.254C41.2017 251.696 41.3774 252.291 41.3774 253.039C41.3774 253.64 41.2131 254.207 40.8844 254.739C40.5671 255.272 40.0967 255.703 39.4734 256.031C38.8614 256.349 38.1361 256.507 37.2974 256.507ZM45.9252 248.602V253.787C45.9252 254.139 46.0045 254.394 46.1632 254.552C46.3332 254.7 46.6165 254.773 47.0132 254.773H48.2032V256.388H46.6732C45.8005 256.388 45.1318 256.184 44.6672 255.776C44.2025 255.368 43.9702 254.705 43.9702 253.787V248.602H42.8652V247.021H43.9702V244.692H45.9252V247.021H48.2032V248.602H45.9252ZM58.5744 251.475C58.5744 251.827 58.5517 252.144 58.5064 252.427H51.3494C51.406 253.175 51.6837 253.776 52.1824 254.229C52.681 254.683 53.293 254.909 54.0184 254.909C55.061 254.909 55.7977 254.473 56.2284 253.6H58.3194C58.036 254.462 57.5204 255.17 56.7724 255.725C56.0357 256.269 55.1177 256.541 54.0184 256.541C53.123 256.541 52.3184 256.343 51.6044 255.946C50.9017 255.538 50.3464 254.972 49.9384 254.246C49.5417 253.51 49.3434 252.66 49.3434 251.696C49.3434 250.733 49.536 249.889 49.9214 249.163C50.318 248.427 50.8677 247.86 51.5704 247.463C52.2844 247.067 53.1004 246.868 54.0184 246.868C54.9024 246.868 55.69 247.061 56.3814 247.446C57.0727 247.832 57.611 248.376 57.9964 249.078C58.3817 249.77 58.5744 250.569 58.5744 251.475ZM56.5514 250.863C56.54 250.149 56.285 249.577 55.7864 249.146C55.2877 248.716 54.67 248.5 53.9334 248.5C53.2647 248.5 52.6924 248.716 52.2164 249.146C51.7404 249.566 51.457 250.138 51.3664 250.863H56.5514ZM71.8205 246.868C72.5572 246.868 73.2145 247.021 73.7925 247.327C74.3819 247.633 74.8409 248.087 75.1695 248.687C75.5095 249.288 75.6795 250.013 75.6795 250.863V256.388H73.7585V251.152C73.7585 250.314 73.5489 249.673 73.1295 249.231C72.7102 248.778 72.1379 248.551 71.4125 248.551C70.6872 248.551 70.1092 248.778 69.6785 249.231C69.2592 249.673 69.0495 250.314 69.0495 251.152V256.388H67.1285V251.152C67.1285 250.314 66.9189 249.673 66.4995 249.231C66.0802 248.778 65.5079 248.551 64.7825 248.551C64.0572 248.551 63.4792 248.778 63.0485 249.231C62.6292 249.673 62.4195 250.314 62.4195 251.152V256.388H60.4815V247.021H62.4195V248.092C62.7369 247.707 63.1392 247.407 63.6265 247.191C64.1139 246.976 64.6352 246.868 65.1905 246.868C65.9385 246.868 66.6072 247.027 67.1965 247.344C67.7859 247.662 68.2392 248.121 68.5565 248.721C68.8399 248.155 69.2819 247.707 69.8825 247.378C70.4832 247.038 71.1292 246.868 71.8205 246.868Z" fill="white"/>
<path d="M28.5064 36.6572C28.6394 36.7133 28.7848 36.7447 28.9384 36.7447C29.5497 36.7447 30.0446 36.2491 30.0446 35.6386V30.1062C30.0446 29.4948 29.5497 29 28.9384 29C28.3271 29 27.8323 29.4957 27.8323 30.1062V35.6378C27.8323 36.0954 28.1107 36.4886 28.5064 36.6563V36.6572Z" fill="white"/>
<path d="M34.3742 39.0876C34.7773 39.2587 35.2606 39.1802 35.5894 38.8514L39.501 34.9398C39.933 34.5077 39.933 33.8072 39.501 33.3751C39.0689 32.9423 38.3684 32.9431 37.9363 33.3751L34.0247 37.2867C33.5927 37.7188 33.5927 38.4193 34.0247 38.8514C34.128 38.9546 34.2469 39.034 34.3742 39.0876Z" fill="white"/>
<path d="M36.1313 43.9387C36.1313 44.3963 36.4097 44.7896 36.8054 44.9573C36.9385 45.0134 37.0838 45.0448 37.2375 45.0448H42.7691C43.3804 45.0448 43.8753 44.5492 43.8753 43.9387C43.8753 43.3274 43.3796 42.8325 42.7691 42.8325H37.2375C36.6262 42.8325 36.1313 43.3282 36.1313 43.9387Z" fill="white"/>
<path d="M22.2867 38.8514C22.3899 38.9555 22.5089 39.034 22.6361 39.0876C23.0393 39.2587 23.5225 39.1802 23.8513 38.8514C24.2834 38.4193 24.2834 37.7188 23.8513 37.2867L19.9397 33.3751C19.5077 32.9423 18.8071 32.9431 18.3751 33.3751C17.943 33.8072 17.943 34.5077 18.3751 34.9398L22.2867 38.8514Z" fill="white"/>
<path d="M21.7447 43.9377C21.7447 43.3264 21.2491 42.8315 20.6386 42.8315H15.1062C14.4948 42.8315 14 43.3272 14 43.9377C14 44.3954 14.2784 44.7886 14.6741 44.9563C14.8071 45.0125 14.9525 45.0439 15.1062 45.0439H20.6378C21.2491 45.0439 21.7439 44.5482 21.7439 43.9377H21.7447Z" fill="white"/>
<path d="M50.7881 72.4401C50.7881 75.4223 49.7075 78.1559 47.9207 80.2748C49.1714 80.5326 50.114 81.6412 50.114 82.9671V86.2517C50.114 87.7676 48.8814 89.0002 47.3655 89.0002H26.0157C24.4998 89.0002 23.2664 87.7676 23.2664 86.2517V82.9671C23.2664 81.6437 24.2073 80.5359 25.4547 80.2765C25.0417 79.7874 24.6658 79.2637 24.3312 78.7077L16.4841 65.647C15.306 63.6867 15.9421 61.1323 17.9017 59.9535C18.5419 59.5661 19.2804 59.3604 20.0347 59.3604C21.4878 59.3604 22.8533 60.1328 23.5977 61.3752L24.7889 63.3587V45.1505C24.7889 42.9266 26.4841 41.0679 28.6468 40.92C29.8504 40.8349 31.0243 41.2769 31.8719 42.1245C32.6551 42.9076 33.0863 43.9502 33.0863 45.0588V53.1447C33.6646 52.8383 34.3238 52.6648 35.0227 52.6648C36.1313 52.6648 37.173 53.096 37.9562 53.8791C38.3858 54.3079 38.7088 54.8151 38.9136 55.367C39.5506 54.9696 40.3023 54.7391 41.1078 54.7391C42.2164 54.7391 43.2581 55.1703 44.0413 55.9535C44.4452 56.3566 44.755 56.8292 44.9607 57.3438C45.5349 57.0068 46.2032 56.8135 46.9153 56.8135C47.9496 56.8135 48.9211 57.2158 49.653 57.9477C50.3849 58.6796 50.7881 59.652 50.7881 60.6854V72.4401Z" fill="white"/>
<path d="M28.5064 36.6572C28.6394 36.7133 28.7848 36.7447 28.9384 36.7447C29.5497 36.7447 30.0446 36.2491 30.0446 35.6386V30.1062C30.0446 29.4948 29.5497 29 28.9384 29C28.3271 29 27.8323 29.4957 27.8323 30.1062V35.6378C27.8323 36.0954 28.1107 36.4886 28.5064 36.6563V36.6572Z" fill="black"/>
<path d="M34.3742 39.0876C34.7773 39.2587 35.2606 39.1802 35.5894 38.8514L39.501 34.9398C39.933 34.5077 39.933 33.8072 39.501 33.3751C39.0689 32.9423 38.3684 32.9431 37.9363 33.3751L34.0247 37.2867C33.5927 37.7188 33.5927 38.4193 34.0247 38.8514C34.128 38.9546 34.2469 39.034 34.3742 39.0876Z" fill="black"/>
<path d="M36.1313 43.9377C36.1313 44.3954 36.4097 44.7886 36.8054 44.9563C36.9385 45.0125 37.0838 45.0439 37.2375 45.0439H42.7691C43.3804 45.0439 43.8753 44.5482 43.8753 43.9377C43.8753 43.3264 43.3796 42.8315 42.7691 42.8315H37.2375C36.6262 42.8315 36.1313 43.3272 36.1313 43.9377Z" fill="black"/>
<path d="M22.2867 38.8514C22.3899 38.9555 22.5089 39.034 22.6361 39.0876C23.0393 39.2587 23.5225 39.1802 23.8513 38.8514C24.2834 38.4193 24.2834 37.7188 23.8513 37.2867L19.9397 33.3751C19.5077 32.9423 18.8071 32.9431 18.3751 33.3751C17.943 33.8072 17.943 34.5077 18.3751 34.9398L22.2867 38.8514Z" fill="black"/>
<path d="M21.7447 43.9377C21.7447 43.3264 21.2491 42.8315 20.6386 42.8315H15.1062C14.4948 42.8315 14 43.3272 14 43.9377C14 44.3954 14.2784 44.7886 14.6741 44.9563C14.8071 45.0125 14.9525 45.0439 15.1062 45.0439H20.6378C21.2491 45.0439 21.7439 44.5482 21.7439 43.9377H21.7447Z" fill="black"/>
<path d="M50.7881 60.6844C50.7881 59.651 50.3849 58.6787 49.6538 57.9467C48.9219 57.2156 47.9496 56.8125 46.9161 56.8125C46.204 56.8125 45.5357 57.0058 44.9616 57.3429C44.7559 56.8282 44.4452 56.3557 44.0421 55.9525C43.259 55.1694 42.2164 54.7381 41.1078 54.7381C40.3032 54.7381 39.5514 54.9686 38.9145 55.3668C38.7096 54.8141 38.3858 54.3077 37.957 53.8782C37.1739 53.095 36.1313 52.6638 35.0235 52.6638C34.3246 52.6638 33.6654 52.8373 33.0871 53.1438V45.0578C33.0871 43.9492 32.6559 42.9067 31.8728 42.1235C31.0252 41.2759 29.8513 40.834 28.6476 40.9191C26.4841 41.0678 24.7897 42.9257 24.7897 45.1495V63.3577L23.5977 61.3742C22.8533 60.1318 21.4886 59.3594 20.0347 59.3594C19.2804 59.3594 18.5419 59.5642 17.9017 59.9525C15.9421 61.1314 15.306 63.6857 16.4841 65.6469L24.3321 78.7076C24.6658 79.2635 25.0425 79.7873 25.4556 80.2755C24.2081 80.5349 23.2672 81.6427 23.2672 82.9661V86.2507C23.2672 87.7666 24.5006 88.9992 26.0157 88.9992H47.3655C48.8814 88.9992 50.114 87.7658 50.114 86.2507V82.9661C50.114 81.6411 49.1706 80.5316 47.9207 80.2739C49.7075 78.1549 50.7881 75.4213 50.7881 72.4391V60.6844ZM47.9017 86.2516C47.9017 86.5473 47.6613 86.7877 47.3655 86.7877H26.0157C25.7199 86.7877 25.4795 86.5473 25.4795 86.2516V82.967C25.4795 82.6712 25.7199 82.4308 26.0157 82.4308H47.3655C47.6613 82.4308 47.9017 82.6712 47.9017 82.967V86.2516ZM48.5749 72.4391C48.5749 75.5849 47.107 78.3912 44.8219 80.2177H28.5625C27.6439 79.4874 26.8467 78.5961 26.228 77.5676L18.38 64.5077C17.8298 63.5923 18.1272 62.3994 19.0442 61.8476C19.3416 61.6683 19.6836 61.5725 20.0347 61.5725C20.7245 61.5725 21.3473 61.9236 21.7001 62.5126L24.9475 67.917C25.2036 68.3433 25.7125 68.5465 26.1916 68.4135C26.6708 68.2805 27.002 67.8443 27.002 67.3478V45.1504C27.002 44.0847 27.791 43.1958 28.7988 43.1264C29.3721 43.0901 29.9066 43.2875 30.3081 43.6882C30.6732 44.0533 30.8748 44.5399 30.8748 45.0578V62.8976C30.8748 63.5089 31.3705 64.0037 31.981 64.0037C32.5915 64.0037 33.0871 63.5081 33.0871 62.8976V56.8125C33.0871 55.7452 33.9554 54.8761 35.0235 54.8761C35.5415 54.8761 36.0272 55.0777 36.3932 55.4428C36.7583 55.8079 36.9599 56.2945 36.9599 56.8125V64.2805C36.9599 64.8918 37.4547 65.3866 38.0661 65.3866C38.6774 65.3866 39.1722 64.891 39.1722 64.2805V58.8868C39.1722 57.8195 40.0413 56.9505 41.1086 56.9505C41.6266 56.9505 42.1123 57.152 42.4783 57.5172C42.8434 57.8823 43.045 58.3689 43.045 58.8868V65.6634C43.045 66.2747 43.5407 66.7695 44.1512 66.7695C44.7616 66.7695 45.2573 66.2739 45.2573 65.6634V60.6853C45.2573 59.7699 46.0016 59.0256 46.9169 59.0256C47.3597 59.0256 47.7761 59.1983 48.09 59.5122C48.4039 59.8261 48.5766 60.2425 48.5766 60.6853V72.4399L48.5749 72.4391Z" fill="black"/>
</svg>
