<svg width="23" height="8" viewBox="0 0 23 8" fill="none" xmlns="http://www.w3.org/2000/svg">
<g clip-path="url(#clip0_692_3305)">
<path d="M4.76 1.09999C4.48 1.40999 1.99 2.43999 1.99 2.43999C1.54 3.80999 0.78 4.79999 0.25 5.41999C0.97 4.82999 2.05 4.72999 2.87 5.16999C3.57 5.54999 4.1 6.27999 4.88 6.40999C5.16 6.45999 5.45 6.42999 5.72 6.50999C6.04 6.60999 6.28 6.86999 6.55 7.07999C7.38 7.73999 8.58 7.95999 9.52 7.48999C10.09 7.20999 10.52 6.72999 11.06 6.37999C12.03 5.75999 13.32 5.66999 14.36 6.15999C15.04 6.47999 15.84 5.95999 16.46 5.52999C17.08 5.09999 17.73 4.61999 18.49 4.57999C18.93 4.55999 19.36 4.69999 19.8 4.69999C20.25 4.69999 20.69 4.54999 21.12 4.39999C21.66 4.20999 22.28 3.91999 22.34 3.34999C22.39 2.83999 21.93 2.42999 21.51 2.12999C21.09 1.82999 20.24 1.13999 20.03 0.23999C20.03 0.23999 17.69 0.91999 16.99 0.61999" fill="white"/>
<path d="M4.76 1.09999C4.48 1.40999 1.99 2.43999 1.99 2.43999C1.54 3.80999 0.78 4.79999 0.25 5.41999C0.97 4.82999 2.05 4.72999 2.87 5.16999C3.57 5.54999 4.1 6.27999 4.88 6.40999C5.16 6.45999 5.45 6.42999 5.72 6.50999C6.04 6.60999 6.28 6.86999 6.55 7.07999C7.38 7.73999 8.58 7.95999 9.52 7.48999C10.09 7.20999 10.52 6.72999 11.06 6.37999C12.03 5.75999 13.32 5.66999 14.36 6.15999C15.04 6.47999 15.84 5.95999 16.46 5.52999C17.08 5.09999 17.73 4.61999 18.49 4.57999C18.93 4.55999 19.36 4.69999 19.8 4.69999C20.25 4.69999 20.69 4.54999 21.12 4.39999C21.66 4.20999 22.28 3.91999 22.34 3.34999C22.39 2.83999 21.93 2.42999 21.51 2.12999C21.09 1.82999 20.24 1.13999 20.03 0.23999C20.03 0.23999 17.69 0.91999 16.99 0.61999" stroke="black" stroke-width="0.5" stroke-linecap="round" stroke-linejoin="round"/>
</g>
<defs>
<clipPath id="clip0_692_3305">
<rect width="22.6" height="7.98" fill="white"/>
</clipPath>
</defs>
</svg>
