<svg width="21" height="12" viewBox="0 0 21 12" fill="none" xmlns="http://www.w3.org/2000/svg">
<g clip-path="url(#clip0_692_3381)">
<path d="M6.00989 0.25H3.78989C3.29989 0.25 2.88989 0.57 2.73989 1.04C2.21989 2.7 0.759894 4.62 0.299894 6.12C0.269894 6.22 0.239894 6.33 0.259894 6.44C0.289894 6.56 0.379894 6.66 0.469894 6.74C0.919894 7.18 1.36989 7.61 1.82989 8.05C1.58989 6.18 2.07989 4.24 3.16989 2.7C2.37989 4 1.94989 5.5 1.76989 7.01C1.71989 7.4 1.68989 7.81 1.79989 8.19C2.10989 9.3 3.36989 9.78 4.46989 10.1C4.32989 8.01 4.68989 5.89 5.51989 3.97C4.69989 5.73 4.36989 7.71 4.57989 9.63C4.60989 9.91 4.64989 10.21 4.81989 10.44C5.19989 10.99 5.99989 10.98 6.65989 10.92C6.52989 10.57 6.88989 10.25 7.00989 9.91C7.08989 9.69 7.07989 9.45 7.06989 9.22C7.01989 7.62 7.17989 6.01 7.54989 4.44C7.16989 6.17 6.97989 7.93 6.97989 9.7C7.88989 9.76 8.80989 9.68 9.69989 9.46C9.57989 7.86 9.64989 6.25 9.92989 4.68C9.74989 6.22 9.60989 7.76 9.50989 9.3C10.2199 9.23 10.9299 9.24 11.6299 9.33C11.4899 7.75 11.4099 6.16 11.3999 4.58C11.3299 6.17 11.3199 7.77 11.3699 9.36C11.9799 9.2 12.6099 9.14 13.2299 9.17C13.3799 7.54 13.4199 5.9 13.3299 4.27C13.1599 5.72 13.0899 7.19 13.0999 8.65C13.8899 8.24 14.8199 8.1 15.6999 8.24C15.6599 6.83 15.4499 5.42 15.0799 4.06C15.1799 5.32 15.3899 6.57 15.7199 7.8C16.5699 7.92 17.4099 8.09 18.2399 8.31C18.2999 6.48 17.9199 4.64 17.1399 2.98C17.9599 4.4 18.4599 6.01 18.5799 7.64C18.7099 7.19 19.3999 7.3 19.7799 7.02C20.2299 6.7 20.0699 6 19.8599 5.49C19.4899 4.55 18.8499 3.24 18.6899 2.11C18.6199 1.61 18.1699 1.25 17.6699 1.25H15.6699" fill="white"/>
<path d="M6.11006 11.2C5.53006 11.2 4.94006 11.08 4.60006 10.58C4.55006 10.51 4.51006 10.43 4.47006 10.35C4.44006 10.35 4.41006 10.35 4.38006 10.35C3.16006 9.99 1.87006 9.46 1.53006 8.26C1.51006 8.2 1.50006 8.15 1.49006 8.09L0.280057 6.92C0.190057 6.83 0.0400572 6.69 5.71804e-05 6.49C-0.0399428 6.31 0.0100572 6.15 0.0500572 6.04C0.280057 5.29 0.750057 4.46 1.24006 3.58C1.73006 2.7 2.24006 1.79 2.50006 0.96C2.68006 0.39 3.20006 0 3.79006 0H6.01006C6.15006 0 6.26006 0.11 6.26006 0.25C6.26006 0.39 6.15006 0.5 6.01006 0.5H3.79006C3.42006 0.5 3.10006 0.75 2.98006 1.11C2.71006 1.98 2.19006 2.92 1.68006 3.82C1.20006 4.68 0.750057 5.48 0.530057 6.19C0.510057 6.25 0.480057 6.34 0.490057 6.38C0.500057 6.43 0.580057 6.5 0.630057 6.55L1.46006 7.35C1.46006 7.22 1.48006 7.09 1.50006 6.97C1.50006 6.94 1.50006 6.92 1.50006 6.89C1.54006 5.34 2.04006 3.81 2.94006 2.54C3.02006 2.43 3.17006 2.4 3.28006 2.48C3.39006 2.55 3.43006 2.7 3.36006 2.82C2.66006 3.97 2.21006 5.35 2.01006 6.94C2.01006 7.3 2.01006 7.66 2.06006 8.01C2.06006 8.07 2.06006 8.12 2.03006 8.17C2.29006 9 3.22006 9.45 4.18006 9.76C4.14006 8.83 4.20006 7.9 4.36006 6.99C4.51006 5.91 4.82006 4.86 5.28006 3.87C5.34006 3.75 5.48006 3.69 5.61006 3.75C5.73006 3.81 5.79006 3.95 5.74006 4.08C5.33006 5.04 5.03006 6.04 4.86006 7.07C4.74006 7.91 4.73006 8.77 4.82006 9.62C4.84006 9.86 4.88006 10.12 5.01006 10.31C5.27006 10.69 5.84006 10.73 6.37006 10.7C6.39006 10.48 6.51006 10.29 6.61006 10.12C6.66006 10.03 6.72006 9.94 6.76006 9.84C6.74006 9.8 6.72006 9.76 6.72006 9.71C6.72006 8.66 6.79006 7.61 6.92006 6.57C7.00006 5.84 7.13006 5.11 7.30006 4.39C7.33006 4.26 7.46006 4.17 7.60006 4.2C7.73006 4.23 7.82006 4.36 7.79006 4.5C7.63006 5.21 7.51006 5.93 7.42006 6.65C7.33006 7.5 7.29006 8.36 7.32006 9.21C7.32006 9.3 7.32006 9.38 7.32006 9.47C7.97006 9.49 8.61006 9.43 9.25006 9.31C9.25006 9.31 9.25006 9.3 9.25006 9.29C9.29006 8.65 9.34006 8 9.40006 7.35C9.43006 6.44 9.52006 5.54 9.68006 4.64C9.70006 4.51 9.83006 4.42 9.96006 4.44C10.0901 4.46 10.1901 4.58 10.1701 4.72C10.0701 5.6 9.97006 6.5 9.90006 7.39C9.88006 7.94 9.89006 8.49 9.92006 9.03C10.3101 9.01 10.7101 9.01 11.1001 9.03C11.0601 7.55 11.0801 6.05 11.1401 4.57C11.1401 4.43 11.2601 4.33 11.3901 4.33C11.5301 4.33 11.6301 4.44 11.6401 4.58C11.6501 6.06 11.7201 7.54 11.8501 9C12.2301 8.94 12.6201 8.9 13.0001 8.91C13.0001 8.9 13.0001 8.88 13.0001 8.87C13.0001 8.87 12.9801 8.87 12.9701 8.86C12.9001 8.82 12.8501 8.74 12.8501 8.65C12.8301 7.18 12.9101 5.7 13.0801 4.24C13.1001 4.11 13.2301 4.03 13.3401 4.02C13.4701 4.02 13.5801 4.13 13.5801 4.26C13.6501 5.56 13.6401 6.88 13.5501 8.19C14.1501 7.98 14.8001 7.9 15.4401 7.96C15.4401 7.86 15.4401 7.76 15.4201 7.65C15.1201 6.48 14.9201 5.29 14.8301 4.09C14.8201 3.96 14.9101 3.85 15.0401 3.82C15.1701 3.79 15.2901 3.88 15.3201 4C15.6401 5.17 15.8401 6.36 15.9201 7.57C16.6101 7.67 17.3101 7.81 18.0001 7.98C18.0001 6.29 17.6401 4.61 16.9201 3.08C16.8601 2.96 16.9201 2.81 17.0301 2.75C17.1501 2.69 17.3001 2.73 17.3601 2.85C18.1101 4.15 18.6001 5.61 18.7801 7.1C18.9101 7.04 19.0501 7.01 19.1801 6.98C19.3501 6.94 19.5301 6.9 19.6401 6.82C19.9701 6.58 19.7801 5.94 19.6401 5.59C19.5601 5.39 19.4701 5.18 19.3801 4.95C19.0101 4.07 18.5901 3.07 18.4601 2.15C18.4101 1.78 18.0801 1.5 17.6801 1.5H15.6801C15.5401 1.5 15.4301 1.39 15.4301 1.25C15.4301 1.11 15.5401 1 15.6801 1H17.6801C18.3201 1 18.8701 1.46 18.9501 2.08C19.0701 2.94 19.4701 3.9 19.8301 4.75C19.9301 4.98 20.0201 5.2 20.1001 5.4C20.5301 6.49 20.2501 6.99 19.9301 7.22C19.7401 7.36 19.5001 7.42 19.2901 7.47C18.9901 7.54 18.8501 7.59 18.8201 7.7C18.7901 7.82 18.6701 7.89 18.5601 7.88C18.5401 7.88 18.5201 7.88 18.5001 7.87C18.5001 8.02 18.5001 8.16 18.5001 8.31C18.5001 8.39 18.4601 8.46 18.4001 8.5C18.3401 8.55 18.2601 8.56 18.1901 8.54C17.4601 8.35 16.7101 8.19 15.9601 8.08C15.9601 8.13 15.9601 8.18 15.9601 8.23C15.9601 8.3 15.9301 8.38 15.8701 8.42C15.8101 8.47 15.7401 8.49 15.6701 8.48C14.9501 8.36 14.2001 8.45 13.5201 8.73C13.5101 8.88 13.4901 9.04 13.4801 9.19C13.4701 9.32 13.3501 9.43 13.2201 9.42C12.7501 9.4 12.2701 9.43 11.8001 9.52C11.7501 9.57 11.6701 9.59 11.6001 9.58C11.5801 9.58 11.5601 9.58 11.5401 9.58C11.5001 9.58 11.4701 9.6 11.4301 9.61C11.3601 9.63 11.2801 9.61 11.2201 9.57C11.2201 9.57 11.2101 9.56 11.2001 9.55C10.7901 9.52 10.3701 9.51 9.95006 9.53C9.93006 9.62 9.86006 9.69 9.77006 9.71C8.95006 9.92 8.10006 10.01 7.26006 9.98C7.26006 9.99 7.26006 10 7.25006 10.01C7.20006 10.14 7.13006 10.26 7.06006 10.38C6.93006 10.59 6.86006 10.73 6.90006 10.85C6.93006 10.92 6.92006 11 6.88006 11.07C6.84006 11.14 6.77006 11.18 6.69006 11.19C6.51006 11.21 6.32006 11.22 6.13006 11.22L6.11006 11.2Z" fill="black"/>
</g>
<defs>
<clipPath id="clip0_692_3381">
<rect width="20.32" height="11.2" fill="white"/>
</clipPath>
</defs>
</svg>
