<svg width="27" height="21" viewBox="0 0 27 21" fill="none" xmlns="http://www.w3.org/2000/svg">
<path d="M10.3399 16.8102C9.87994 15.8302 10.5499 14.5802 9.72994 13.7502C10.2999 14.0202 10.7599 14.4502 10.9999 14.9502C10.8699 14.0602 9.92994 13.3902 8.93994 12.9502C7.94994 12.5102 6.85994 12.2102 6.00994 11.6302C5.10994 11.0102 4.56994 10.1302 4.06994 9.27017C2.85994 7.19017 1.73994 5.08017 0.689941 2.95017C3.06994 2.55017 5.69994 3.30017 7.20994 4.81017C7.51994 4.41017 7.65994 3.93017 7.61994 3.46017C9.08994 3.91017 10.7199 3.54017 12.2599 3.30017C13.7999 3.06017 15.6199 3.03017 16.6999 3.94017C17.3999 3.30017 18.4699 2.93017 19.5299 2.97017L19.5699 2.45017C20.7099 2.30017 21.8299 2.05017 22.9099 1.72017C22.5099 2.19017 21.8899 3.55017 21.8299 4.12017C21.8699 2.79017 23.7199 0.770172 25.3999 0.710172C25.6599 0.700172 25.9499 0.720173 26.1399 0.870173C26.5099 1.15017 26.2599 1.63017 25.9899 1.97017C24.2699 4.12017 22.2199 6.11017 20.7999 8.39017C19.3799 10.6702 18.6199 13.3702 19.6899 15.7702C18.8299 15.6602 18.8399 15.2502 19.1699 14.6202C19.8799 15.9702 16.7399 15.3502 16.8899 16.8002C16.9199 16.6302 16.8099 17.9602 16.5999 17.9902C16.3899 18.0202 16.2299 18.1602 16.0899 18.2902C15.4199 18.8902 14.7399 19.4902 14.0899 20.1002C13.4099 19.7202 13.1199 18.9002 12.3399 18.4302C11.5599 17.9602 10.6799 17.5802 10.3299 16.8202L10.3399 16.8102Z" fill="white" stroke="#141414" stroke-width="0.5" stroke-linecap="round" stroke-linejoin="round"/>
</svg>
