<svg width="17" height="40" viewBox="0 0 17 40" fill="none" xmlns="http://www.w3.org/2000/svg">
<path d="M10.425 1.07007C12.675 9.04007 14.335 17.5701 15.605 25.7601C16.155 29.3001 16.535 33.2301 14.495 36.1901C13.165 38.1101 10.885 39.3401 8.54496 39.4001C6.20496 39.4601 3.87496 38.3801 2.39496 36.5601C1.03496 34.8901 0.424963 32.7101 0.294963 30.5601C0.164963 28.4101 0.504963 26.2601 0.844963 24.1401C1.64496 19.2001 2.51496 14.2601 3.46496 9.35007C3.83496 7.43007 4.97496 1.44007 4.97496 1.44007C4.97496 1.44007 8.89496 1.26007 10.415 1.08007L10.425 1.07007Z" fill="white"/>
<path d="M8.33759 39.65C6.00759 39.65 3.66759 38.54 2.18759 36.72C0.577588 34.75 0.127588 32.2901 0.0275879 30.58C-0.0924121 28.49 0.197588 26.5 0.577588 24.1C1.36759 19.18 2.25759 14.2 3.19759 9.30005C3.56759 7.38005 4.70759 1.39005 4.70759 1.39005L4.74759 1.20005H4.94759C4.94759 1.20005 8.86759 1.00005 10.3676 0.830049L10.5776 0.800049L10.6376 1.01005C12.6376 8.09005 14.3376 16.18 15.8276 25.73C16.3776 29.26 16.7876 33.28 14.6776 36.34C13.3076 38.32 10.9576 39.59 8.53759 39.66C8.47759 39.66 8.40759 39.66 8.34759 39.66L8.33759 39.65ZM5.16759 1.68005C4.96759 2.72005 4.02759 7.68005 3.69759 9.39005C2.74759 14.29 1.86759 19.26 1.07759 24.18C0.697588 26.54 0.417588 28.51 0.537588 30.55C0.627588 32.19 1.06759 34.54 2.57759 36.4C4.00759 38.15 6.28759 39.22 8.52759 39.15C10.7976 39.09 12.9976 37.9 14.2776 36.05C16.2776 33.14 15.8776 29.24 15.3476 25.8C13.8576 16.36 12.1776 8.36005 10.2076 1.35005C8.78759 1.50005 5.93759 1.64005 5.15759 1.68005H5.16759Z" fill="#141414"/>
<path d="M2.74492 28.5898C1.94492 31.2298 2.98492 34.1698 5.39492 36.0798L2.74492 28.5898Z" fill="white"/>
<path d="M5.39497 36.3299C5.34497 36.3299 5.28497 36.31 5.23497 36.28C2.74497 34.3 1.67497 31.2599 2.49497 28.5199C2.53497 28.3899 2.66497 28.3099 2.80497 28.3499C2.93497 28.3899 3.01497 28.53 2.97497 28.66C2.20497 31.2 3.21497 34.03 5.54497 35.88C5.65497 35.97 5.67497 36.12 5.58497 36.23C5.53497 36.29 5.46497 36.32 5.38497 36.32L5.39497 36.3299Z" fill="#141414"/>
</svg>
