<svg width="20" height="56" viewBox="0 0 20 56" fill="none" xmlns="http://www.w3.org/2000/svg">
<path d="M18.6042 27.12C18.6042 27.12 18.5842 27.08 18.5642 27.06C18.3942 26.12 18.2342 25.15 18.1342 24.2C17.7642 20.59 18.0842 16.96 18.3842 13.46C18.7442 9.41005 19.1042 5.24005 18.4142 1.07005L18.3742 0.800049L18.1042 0.870049C18.0542 0.880049 13.3342 2.17005 11.7342 2.33005C7.81423 2.72005 5.57423 2.17005 5.55423 2.16005L5.21423 2.08005L5.24423 2.42005C5.55423 7.41005 4.30423 12.45 3.09423 17.33C2.58423 19.41 2.05423 21.56 1.65423 23.67C1.48423 24.56 1.32423 25.49 1.20423 26.46C1.20423 26.46 1.17423 26.52 1.17423 26.54C1.03423 27.28 0.984229 28.0201 1.00423 28.76V29.01C1.04423 29.74 1.14423 30.4601 1.32423 31.17C1.44423 31.67 1.59423 32.1601 1.77423 32.6401C2.28423 33.9501 3.01423 35.16 3.93423 36.21C4.10423 36.72 4.16423 37.28 4.16423 37.86C4.16423 37.99 4.15423 38.11 4.14423 38.24C4.14423 38.35 4.13423 38.47 4.12423 38.58C4.07423 39.13 3.98423 39.69 3.90423 40.23C3.65423 41.82 3.48423 44.08 4.91423 45.38C5.54423 45.96 6.35423 46.22 7.14423 46.47C7.17423 46.49 7.21423 46.5 7.25423 46.51C7.95423 47.57 9.00423 49.61 8.12423 51.42C7.99423 51.69 7.81423 51.97 7.63423 52.24C7.19423 52.91 6.73423 53.61 6.87423 54.45C6.89423 54.55 6.96423 54.64 7.07423 54.66C7.40423 54.75 7.73423 54.79 8.07423 54.79C9.07423 54.79 10.0742 54.43 10.8342 53.77C11.6342 53.08 12.1342 52.11 12.5842 51.25C13.2442 49.97 13.9842 48.53 14.1442 46.97C14.1842 46.66 14.1942 46.35 14.1942 46.03C14.2142 45.56 14.2242 45.12 14.3142 44.68C14.3342 44.59 14.3642 44.49 14.3942 44.4L15.6142 43.08C15.6942 42.99 15.7142 42.86 15.6442 42.75C15.6242 42.71 15.5842 42.68 15.5442 42.65C15.8542 41.92 15.9442 41.16 15.9142 40.37C15.9142 40.2701 15.9142 40.17 15.9042 40.07C15.9042 39.9701 15.8942 39.87 15.8842 39.77C15.8342 39.22 15.7542 38.66 15.6642 38.1C15.4342 36.63 15.1942 35.1101 15.7342 33.8C16.0342 33.06 16.5642 32.4401 17.1142 31.7801C17.3742 31.4801 17.6242 31.18 17.8642 30.8601C18.0442 30.6201 18.2942 30.25 18.4942 29.79C18.5642 29.64 18.6342 29.48 18.6842 29.31C18.7542 29.11 18.8042 28.89 18.8342 28.67C18.9042 28.16 18.8542 27.63 18.6042 27.12Z" fill="white" stroke="#141414" stroke-width="0.5" stroke-miterlimit="10"/>
<path d="M3.8741 26.4201C3.8741 26.4201 3.8341 26.4201 3.8141 26.4201C3.6841 26.3901 3.6141 26.2501 3.6441 26.1301C4.6341 22.5401 5.3841 18.8501 5.8641 15.1601C5.8841 15.0301 6.0041 14.9401 6.1341 14.9601C6.2641 14.9801 6.3541 15.1001 6.3341 15.2301C5.8441 18.9401 5.0941 22.6501 4.1041 26.2601C4.0741 26.3601 3.9841 26.4301 3.8741 26.4301V26.4201Z" fill="#141414"/>
</svg>
