<svg width="23" height="43" viewBox="0 0 23 43" fill="none" xmlns="http://www.w3.org/2000/svg">
<path d="M7.8601 2.1401C8.3101 9.3001 5.6101 16.4001 4.2701 23.4501C3.6601 26.6401 3.2901 29.9501 4.0501 33.1101C4.8101 36.2601 6.8901 39.2601 9.9501 40.3501C11.1201 40.7701 12.3901 40.9001 13.6301 40.9301C14.7301 40.9601 15.8601 40.9101 16.9001 40.5401C19.7901 39.5001 21.2601 36.1701 21.3701 33.1001C21.4801 30.0301 20.5801 27.0201 20.2601 23.9601C19.4501 16.1601 21.8201 8.5801 20.5401 0.850098C20.5401 0.850098 15.7701 2.1501 14.1301 2.3201C10.1101 2.7201 7.8601 2.1501 7.8601 2.1501V2.1401Z" fill="white"/>
<path d="M14.14 41.19C13.96 41.19 13.78 41.19 13.61 41.19C12.05 41.15 10.89 40.96 9.84999 40.59C6.96999 39.55 4.64999 36.71 3.78999 33.17C2.97999 29.82 3.44999 26.36 4.00999 23.41C4.40999 21.3 4.93999 19.15 5.45999 17.07C6.66999 12.19 7.91999 7.15004 7.59999 2.16004L7.57999 1.82004L7.90999 1.90004C7.90999 1.90004 10.17 2.46004 14.1 2.07004C15.7 1.91004 20.42 0.620039 20.47 0.610039L20.74 0.540039L20.79 0.810038C21.48 4.98004 21.12 9.15004 20.76 13.19C20.45 16.7 20.14 20.33 20.51 23.94C20.63 25.05 20.82 26.18 21.01 27.27C21.34 29.17 21.69 31.14 21.61 33.11C21.51 35.91 20.23 39.6 16.97 40.78C16.03 41.12 15.04 41.2 14.14 41.2V41.19ZM8.11999 2.45004C8.36999 7.41004 7.13999 12.38 5.94999 17.19C5.43999 19.26 4.90999 21.41 4.50999 23.5C3.95999 26.4 3.49999 29.8 4.27999 33.05C5.08999 36.43 7.28999 39.14 10.02 40.12C11.01 40.47 12.12 40.65 13.62 40.69C14.6 40.72 15.75 40.69 16.8 40.31C19.63 39.29 21 35.95 21.11 33.09C21.18 31.17 20.84 29.23 20.51 27.35C20.32 26.25 20.12 25.11 20 23.98C19.62 20.32 19.94 16.67 20.25 13.14C20.59 9.22004 20.95 5.17004 20.33 1.15004C19.29 1.43004 15.58 2.41004 14.15 2.55004C10.96 2.87004 8.88999 2.58004 8.11999 2.44004V2.45004Z" fill="#141414"/>
<path d="M21.3685 38.7406L21.3687 38.7404C22.5947 37.0453 22.7686 35.1159 22.7485 33.152C22.7435 32.7886 22.7334 32.4214 22.7233 32.0593L21.3685 38.7406ZM21.3685 38.7406C20.0802 40.5264 17.5949 41.9369 14.702 42.4858L14.7018 42.4859M21.3685 38.7406L14.7018 42.4859M14.7018 42.4859C11.8068 43.0376 8.57321 42.7131 6.05122 41.6237L6.0511 41.6236M14.7018 42.4859L6.0511 41.6236M6.0511 41.6236C2.60809 40.1385 0.705421 37.3965 0.323524 34.6866C0.269934 34.2983 0.250041 33.9007 0.25 33.4887C0.273709 31.1833 1.18064 28.6734 2.24331 26.4812C2.55715 26.8755 2.96985 27.2813 3.44193 27.6409C4.04886 28.1037 4.77454 28.4961 5.5325 28.6668C7.02068 29.0052 8.7103 28.9003 10.0889 28.3836L10.0892 28.3835M6.0511 41.6236L10.0892 28.3835M10.0892 28.3835C10.513 28.224 10.9193 28.0229 11.3109 27.8291M10.0892 28.3835L11.3109 27.8291M11.3109 27.8291C11.4797 27.7455 11.6458 27.6633 11.8094 27.5863M11.3109 27.8291L11.8094 27.5863M11.8094 27.5863C12.3634 27.3258 12.917 27.1099 13.5483 27.0342M11.8094 27.5863L13.5483 27.0342M13.5483 27.0342C14.2423 26.9521 14.9264 27.051 15.6162 27.2249C16.0447 27.3329 16.4572 27.4643 16.8748 27.5974C17.1426 27.6827 17.4125 27.7687 17.69 27.8496C18.0774 27.9627 18.4998 28.0506 18.9265 28.1069C19.5023 28.1842 20.0997 28.1988 20.6406 28.1128C21.1684 28.0289 21.6636 27.8458 22.0258 27.5102C22.1018 27.9827 22.1943 28.4571 22.2862 28.9287C22.3194 29.0988 22.3525 29.2685 22.3847 29.4377C22.5527 30.3194 22.6986 31.192 22.7233 32.0591L13.5483 27.0342ZM22.0479 27.4893C22.1223 27.4181 22.1856 27.3181 22.235 27.2273C22.3157 27.7731 22.423 28.3235 22.5308 28.8767L22.0479 27.4893Z" fill="white" stroke="#141414" stroke-width="0.5"/>
</svg>
