<svg width="43" height="13" viewBox="0 0 43 13" fill="none" xmlns="http://www.w3.org/2000/svg">
<path d="M0.420108 7.56294C-0.319892 5.69294 1.56011 3.78294 2.47011 3.35294C6.02011 1.67294 8.31011 1.66294 12.2301 2.01294C14.3101 2.19294 16.3501 2.67294 18.4401 2.76294C21.1801 2.88294 23.9101 2.33294 26.5701 1.64294C28.9701 1.02294 31.3701 0.29294 33.8501 0.24294C41.9301 0.10294 43.2301 3.99294 42.3601 5.46294C40.4901 8.59294 36.5801 9.77294 32.9901 10.4329C24.4901 11.9729 15.4601 12.3129 6.91011 11.0529C2.27011 10.3729 1.13011 9.32294 0.430108 7.57294L0.420108 7.56294Z" fill="white"/>
<path d="M17.7301 12.073C14.0101 12.073 10.3601 11.813 6.8701 11.303C2.1701 10.613 0.940101 9.53301 0.190101 7.66301C-0.629899 5.59301 1.4101 3.58301 2.3701 3.13301C5.9601 1.43301 8.2401 1.41301 12.2601 1.76301C13.1701 1.84301 14.0801 1.98301 14.9601 2.11301C16.1001 2.28301 17.2901 2.46301 18.4601 2.51301C21.2901 2.63301 24.1201 2.02301 26.5201 1.40301C26.8601 1.31301 27.1901 1.23301 27.5301 1.14301C29.5801 0.603009 31.7001 0.0430088 33.8601 0.00300881C39.7301 -0.0869912 41.7501 1.86301 42.4301 3.04301C42.9401 3.93301 43.0001 4.91301 42.5901 5.60301C40.6001 8.93301 36.4401 10.073 33.0501 10.683C27.9301 11.613 22.7701 12.073 17.7501 12.073H17.7301ZM8.9701 2.08301C6.7901 2.08301 4.9801 2.44301 2.5801 3.58301C1.7801 3.96301 -0.0398989 5.73301 0.660101 7.47301C1.3501 9.20301 2.4601 10.143 6.9401 10.803C15.0901 12.003 24.0801 11.793 32.9401 10.183C36.2301 9.58301 40.2501 8.49301 42.1501 5.33301C42.3901 4.93301 42.4901 4.15301 41.9901 3.28301C41.4801 2.41301 39.6801 0.403008 33.8601 0.493008C31.7601 0.533008 29.6701 1.08301 27.6501 1.61301C27.3101 1.70301 26.9801 1.79301 26.6401 1.87301C24.2101 2.50301 21.3301 3.12301 18.4301 2.99301C17.2301 2.94301 16.0401 2.76301 14.8801 2.59301C14.0101 2.46301 13.1001 2.32301 12.2101 2.25301C11.0001 2.14301 9.9501 2.07301 8.9801 2.07301L8.9701 2.08301Z" fill="#141414"/>
<mask id="mask0_744_466" style="mask-type:alpha" maskUnits="userSpaceOnUse" x="0" y="0" width="43" height="12">
<path d="M0.420108 7.56294C-0.319892 5.69294 1.56011 3.78294 2.47011 3.35294C6.02011 1.67294 8.31011 1.66294 12.2301 2.01294C14.3101 2.19294 16.3501 2.67294 18.4401 2.76294C21.1801 2.88294 23.9101 2.33294 26.5701 1.64294C28.9701 1.02294 31.3701 0.29294 33.8501 0.24294C41.9301 0.10294 43.2301 3.99294 42.3601 5.46294C40.4901 8.59294 36.5801 9.77294 32.9901 10.4329C24.4901 11.9729 15.4601 12.3129 6.91011 11.0529C2.27011 10.3729 1.13011 9.32294 0.430108 7.57294L0.420108 7.56294Z" fill="#333333"/>
</mask>
<g mask="url(#mask0_744_466)">
<path d="M19.86 18.359L19.8321 -0.394394C19.9079 -0.394394 19.9798 -0.394394 20.0516 -0.394394L20.4347 18.3551C20.2432 18.3551 20.0516 18.363 19.8561 18.363L19.86 18.359ZM18.0881 18.3072C17.8885 18.2952 17.693 18.2832 17.4974 18.2673L19.006 -0.426316C19.0738 -0.422326 19.1417 -0.414345 19.2135 -0.410355L18.0921 18.3112L18.0881 18.3072ZM22.2107 18.2593L20.6782 -0.430304C20.75 -0.434294 20.8219 -0.442275 20.8937 -0.450255L22.7854 18.2074C22.5938 18.2274 22.3983 18.2433 22.2067 18.2593H22.2107ZM15.7454 18.0718C15.5538 18.0438 15.3583 18.0159 15.1667 17.984L18.1519 -0.530056C18.2238 -0.518086 18.2956 -0.506118 18.3674 -0.498138L15.7454 18.0718ZM24.5494 17.972L21.5203 -0.534047C21.5841 -0.546017 21.652 -0.557988 21.7158 -0.565968L25.148 17.8723C24.9485 17.9082 24.7529 17.9441 24.5534 17.976L24.5494 17.972ZM13.4147 17.6448C13.2231 17.6009 13.0356 17.557 12.844 17.5092L17.3418 -0.697642C17.4096 -0.681682 17.4815 -0.66572 17.5493 -0.64976L13.4147 17.6408V17.6448ZM26.8721 17.4932L22.3344 -0.70163C22.4023 -0.71759 22.4701 -0.737543 22.534 -0.753503L27.4428 17.3456C27.2512 17.3974 27.0597 17.4453 26.8681 17.4932H26.8721ZM11.1279 17.0264C10.9363 16.9665 10.7448 16.9027 10.5572 16.8388L16.5556 -0.929065C16.6194 -0.909115 16.6833 -0.885176 16.7511 -0.865225L11.1319 17.0264H11.1279ZM29.1429 16.8268L23.1286 -0.937047C23.1925 -0.956998 23.2523 -0.980937 23.3122 -1.00089L29.7136 16.6273C29.526 16.6952 29.3345 16.763 29.1429 16.8268ZM8.88901 16.2243C8.70543 16.1485 8.52184 16.0727 8.33826 15.9929L15.7733 -1.22433C15.8372 -1.1964 15.9011 -1.17246 15.9649 -1.14453L8.88901 16.2243ZM31.3659 15.969L23.8909 -1.23231C23.9587 -1.26024 24.0226 -1.28818 24.0864 -1.3201L31.8966 15.7296C31.721 15.8094 31.5415 15.8892 31.3659 15.969ZM6.72992 15.2388C6.55831 15.151 6.38271 15.0632 6.2111 14.9715L15.0111 -1.59142C15.0749 -1.55551 15.1388 -1.52359 15.2066 -1.49167L6.72992 15.2388ZM33.4771 14.9475L24.6531 -1.5994C24.713 -1.63132 24.7729 -1.66324 24.8327 -1.69517L34.0039 14.6642C33.8322 14.76 33.6566 14.8557 33.481 14.9515L33.4771 14.9475ZM4.65864 14.0817C4.49501 13.9819 4.33537 13.8822 4.17574 13.7784L14.2887 -2.01437C14.3526 -1.97447 14.4164 -1.93058 14.4843 -1.89068L4.66263 14.0857L4.65864 14.0817ZM35.5124 13.7545L25.3755 -2.02235C25.4274 -2.05427 25.4793 -2.09018 25.5311 -2.12609L36.0233 13.4193C35.8556 13.535 35.684 13.6467 35.5124 13.7545ZM2.69511 12.7609C2.53946 12.6452 2.38381 12.5295 2.22817 12.4138L13.6143 -2.48919C13.6741 -2.4453 13.73 -2.40141 13.7899 -2.35752L2.69511 12.7609ZM37.448 12.3939L26.0539 -2.50116C26.1058 -2.54106 26.1577 -2.58097 26.2096 -2.62087L37.9229 12.0268C37.7673 12.1505 37.6076 12.2742 37.448 12.3978V12.3939ZM0.855293 11.2926C0.699647 11.1569 0.547992 11.0253 0.396337 10.8856L12.9877 -3.01589C13.0356 -2.97598 13.0795 -2.93209 13.1274 -2.89219L0.855293 11.2926ZM39.2838 10.8657L26.6805 -3.02386C26.7364 -3.07574 26.7923 -3.12362 26.8441 -3.17549L39.7029 10.4786C39.5632 10.6103 39.4235 10.742 39.2798 10.8696L39.2838 10.8657ZM-0.864793 9.68059C-1.00447 9.53695 -1.14416 9.39331 -1.28384 9.24567L12.3691 -3.61041C12.413 -3.56253 12.4609 -3.51465 12.5048 -3.46676L-0.868784 9.68458L-0.864793 9.68059ZM40.952 9.22971L27.2991 -3.62637C27.347 -3.67824 27.3989 -3.73011 27.4468 -3.78597L41.3511 8.80277C41.2194 8.94642 41.0877 9.09006 40.956 9.2337L40.952 9.22971ZM-2.45318 7.92894C-2.5769 7.78131 -2.70061 7.62969 -2.82433 7.47806L11.8104 -4.24882C11.8543 -4.19296 11.9022 -4.1371 11.9461 -4.08124L-2.45717 7.93293L-2.45318 7.92894ZM42.4965 7.45013L27.8499 -4.26478C27.8898 -4.31665 27.9297 -4.36853 27.9696 -4.4204L42.8677 6.97132C42.744 7.13092 42.6202 7.29053 42.4965 7.45013ZM-3.88592 6.06158C-3.99766 5.90197 -4.10941 5.74237 -4.21716 5.58277L11.3155 -4.93512C11.3554 -4.87527 11.3953 -4.81542 11.4392 -4.75557L-3.88193 6.06158H-3.88592ZM43.8894 5.55484L28.3487 -4.94709C28.3846 -5.00295 28.4206 -5.05482 28.4565 -5.11068L44.2206 5.05208C44.1128 5.22366 44.0011 5.39124 43.8894 5.55882V5.55484ZM-5.17498 4.06254C-5.27077 3.89895 -5.36256 3.73535 -5.45834 3.57176L10.8765 -5.64935C10.9124 -5.58152 10.9523 -5.51368 10.9922 -5.44984L-5.17498 4.06254ZM45.1465 3.51191L28.7718 -5.63339C28.8117 -5.70122 28.8476 -5.76905 28.8835 -5.84087L45.4179 3.01315C45.3301 3.18073 45.2383 3.34432 45.1465 3.51191ZM-6.28446 1.99567C-6.37226 1.81213 -6.46006 1.62858 -6.54387 1.44504L10.5093 -6.36357C10.5373 -6.30771 10.5612 -6.24786 10.5891 -6.192L-6.28446 1.99567ZM46.22 1.39317L29.1469 -6.37554C29.1748 -6.43938 29.2068 -6.50323 29.2347 -6.57106L46.4595 0.850516C46.3797 1.03007 46.2999 1.20962 46.22 1.38918V1.39317ZM-7.2343 -0.190899C-7.30214 -0.362473 -7.366 -0.538036 -7.42985 -0.7136L10.1821 -7.16558C10.21 -7.08977 10.2379 -7.01396 10.2659 -6.93815L-7.2343 -0.190899ZM47.11 -0.777443L29.4781 -7.17356C29.4981 -7.23341 29.5221 -7.29326 29.542 -7.35312L47.3136 -1.35601C47.2497 -1.16049 47.1819 -0.968967 47.11 -0.777443ZM-7.99257 -2.41737C-8.05243 -2.61688 -8.10831 -2.82037 -8.16418 -3.01988L9.9466 -7.90375C9.96257 -7.84789 9.97853 -7.79203 9.99449 -7.73617L-7.99257 -2.41737ZM47.8284 -3.05978L29.7176 -7.94365C29.7376 -8.01547 29.7575 -8.08729 29.7735 -8.15912L47.9721 -3.61839C47.9242 -3.43086 47.8763 -3.24731 47.8284 -3.05978ZM-8.56726 -4.70768C-8.60717 -4.9032 -8.64708 -5.09871 -8.683 -5.29822L9.75504 -8.74566C9.76701 -8.68182 9.77898 -8.61398 9.79495 -8.55014L-8.56726 -4.70768ZM48.3512 -5.35807L29.9052 -8.76162C29.9172 -8.82546 29.9291 -8.89329 29.9411 -8.95713L48.455 -5.9486C48.423 -5.7491 48.3871 -5.55358 48.3512 -5.35807ZM-8.95837 -7.05386C-8.98232 -7.24937 -9.00626 -7.44888 -9.02622 -7.64838L9.63132 -9.56363C9.6393 -9.4958 9.64728 -9.42797 9.65526 -9.36013L-8.95837 -7.05386ZM48.6864 -7.71222L30.0209 -9.57959C30.0289 -9.6554 30.0369 -9.73121 30.0409 -9.80702L48.7343 -8.27882C48.7184 -8.0873 48.7024 -7.89976 48.6824 -7.71222H48.6864ZM-9.15393 -9.416C-9.16191 -9.60353 -9.1659 -9.79106 -9.16989 -9.98259L9.58343 -10.4215C9.58343 -10.3457 9.58742 -10.2659 9.59141 -10.1901L-9.15393 -9.416ZM48.8261 -10.0504L30.0728 -10.4335C30.0728 -10.5013 30.0728 -10.5731 30.0728 -10.641V-10.7168H48.8301V-10.641C48.8301 -10.4414 48.8301 -10.2459 48.8261 -10.0504ZM9.58742 -11.0479L-9.15792 -11.7582C-9.14994 -11.9577 -9.14195 -12.1532 -9.12998 -12.3527L9.5954 -11.2554C9.59141 -11.1876 9.58742 -11.1198 9.58742 -11.0479ZM30.0528 -11.3153C30.0489 -11.3831 30.0449 -11.4509 30.0369 -11.5188L48.7263 -13.1108C48.7423 -12.9153 48.7583 -12.7158 48.7702 -12.5163L30.0528 -11.3113V-11.3153ZM9.65127 -11.8739L-8.97035 -14.1163C-8.9464 -14.3039 -8.92245 -14.4954 -8.89851 -14.6829L9.67921 -12.1053C9.66724 -12.0295 9.65926 -11.9537 9.65127 -11.8779V-11.8739ZM29.969 -12.1452C29.9571 -12.221 29.9451 -12.2968 29.9331 -12.3687L48.439 -15.441C48.4709 -15.2535 48.4989 -15.066 48.5268 -14.8744L29.969 -12.1412V-12.1452ZM9.78697 -12.7158L-8.5952 -16.4346C-8.55529 -16.6301 -8.51538 -16.8256 -8.47148 -17.0211L9.83087 -12.9113C9.8149 -12.8475 9.80293 -12.7796 9.78697 -12.7158ZM29.8094 -12.9752C29.7934 -13.039 29.7775 -13.1028 29.7615 -13.1667L47.9441 -17.7713C47.992 -17.5757 48.0399 -17.3802 48.0878 -17.1847L29.8094 -12.9712V-12.9752ZM9.98252 -13.5019L-8.0245 -18.7568C-7.97262 -18.9403 -7.91674 -19.1239 -7.85688 -19.3074L10.0504 -13.7213C10.0264 -13.6495 10.0065 -13.5777 9.98651 -13.5019H9.98252ZM29.5819 -13.8051C29.566 -13.857 29.546 -13.9088 29.53 -13.9647L47.2736 -20.0496C47.3415 -19.8501 47.4093 -19.6506 47.4732 -19.4471L29.5859 -13.8051H29.5819ZM10.2459 -14.2919L-7.27021 -21.0032C-7.20237 -21.1868 -7.13053 -21.3663 -7.05471 -21.5459L10.3257 -14.4954C10.2978 -14.4276 10.2699 -14.3597 10.2459 -14.2919ZM29.3145 -14.5313C29.2826 -14.6031 29.2547 -14.6749 29.2227 -14.7468L46.4156 -22.2402C46.4914 -22.0686 46.5633 -21.897 46.6351 -21.7214L29.3105 -14.5313H29.3145ZM10.5732 -15.054L-6.32836 -23.1858C-6.24455 -23.3574 -6.16074 -23.529 -6.07693 -23.7005L10.6729 -15.2575C10.637 -15.1897 10.6051 -15.1218 10.5732 -15.05V-15.054ZM28.9513 -15.3173C28.9234 -15.3732 28.8955 -15.4251 28.8675 -15.4809L45.378 -24.3788C45.4737 -24.1993 45.5695 -24.0157 45.6613 -23.8362L28.9513 -15.3173ZM10.9723 -15.8041L-5.22287 -25.2646C-5.11911 -25.4402 -5.01535 -25.6158 -4.90759 -25.7913L11.068 -15.9637C11.0361 -15.9119 11.0042 -15.856 10.9723 -15.8041ZM28.5483 -16.0276C28.5123 -16.0834 28.4764 -16.1433 28.4405 -16.1992L44.1727 -26.4098C44.2805 -26.2422 44.3882 -26.0746 44.492 -25.9071L28.5483 -16.0316V-16.0276ZM11.4193 -16.5024L-3.94179 -27.2677C-3.83004 -27.4273 -3.7183 -27.5869 -3.60256 -27.7425L11.543 -16.678C11.4991 -16.6181 11.4592 -16.5623 11.4153 -16.5024H11.4193ZM28.0773 -16.7219C28.0374 -16.7737 28.0015 -16.8256 27.9616 -16.8775L42.8038 -28.345C42.9275 -28.1854 43.0473 -28.0258 43.167 -27.8622L28.0773 -16.7258V-16.7219ZM11.9221 -17.1648L-2.50107 -29.151C-2.37735 -29.3026 -2.24964 -29.4503 -2.12193 -29.5979L12.0658 -17.3284C12.0179 -17.2725 11.974 -17.2206 11.9261 -17.1648H11.9221ZM27.5386 -17.3922C27.4987 -17.4401 27.4548 -17.484 27.4148 -17.5318L41.2953 -30.1485C41.4309 -29.9969 41.5706 -29.8453 41.7023 -29.6897L27.5386 -17.3962V-17.3922ZM12.4928 -17.7992L-0.932638 -30.8947C-0.800938 -31.0303 -0.665247 -31.166 -0.529556 -31.3017L12.6524 -17.9588C12.6006 -17.9069 12.5447 -17.8511 12.4928 -17.7992ZM26.9798 -17.9787C26.928 -18.0306 26.8761 -18.0785 26.8242 -18.1264L39.643 -31.8164C39.7867 -31.6847 39.9264 -31.549 40.0661 -31.4134L26.9798 -17.9747V-17.9787ZM13.0994 -18.3698L0.787447 -32.5186C0.935111 -32.6463 1.08277 -32.774 1.23044 -32.8977L13.267 -18.5134C13.2112 -18.4655 13.1553 -18.4216 13.0994 -18.3738V-18.3698ZM26.3493 -18.5453C26.2934 -18.5892 26.2375 -18.6371 26.1817 -18.681L37.8511 -33.3605C38.0027 -33.2408 38.1544 -33.1172 38.3061 -32.9895L26.3453 -18.5413L26.3493 -18.5453ZM13.7619 -18.9004L2.61928 -33.991C2.77492 -34.1067 2.93456 -34.2224 3.0942 -34.3341L13.9335 -19.0281C13.8737 -18.9882 13.8178 -18.9443 13.7619 -18.9044V-18.9004ZM25.6828 -19.0521C25.6269 -19.092 25.571 -19.1279 25.5152 -19.1678L35.9394 -34.7571C36.1071 -34.6454 36.2707 -34.5336 36.4343 -34.4179L25.6868 -19.0481L25.6828 -19.0521ZM14.4523 -19.3673L4.57882 -35.3157C4.74644 -35.4194 4.91805 -35.5232 5.09365 -35.6269L14.624 -19.475C14.5681 -19.4431 14.5082 -19.4072 14.4523 -19.3713V-19.3673ZM24.9724 -19.5069C24.9125 -19.5389 24.8567 -19.5748 24.7968 -19.6067L33.92 -35.994C34.0956 -35.8982 34.2673 -35.7985 34.4389 -35.6987L24.9724 -19.5109V-19.5069ZM15.1667 -19.7703L6.64611 -36.4808C6.81373 -36.5686 6.98534 -36.6524 7.15695 -36.7362L15.3703 -19.874C15.3024 -19.8421 15.2346 -19.8062 15.1667 -19.7743V-19.7703ZM24.2381 -19.894C24.1742 -19.9219 24.1144 -19.9538 24.0505 -19.9818L31.8009 -37.0594C31.9805 -36.9756 32.164 -36.8918 32.3396 -36.808L24.2381 -19.894ZM15.925 -20.1214L8.78924 -37.4664C8.97282 -37.5422 9.1564 -37.614 9.33998 -37.6858L16.1166 -20.2012C16.0527 -20.1773 15.9889 -20.1493 15.925 -20.1254V-20.1214ZM23.4758 -20.2212C23.412 -20.2451 23.3441 -20.269 23.2803 -20.293L29.6019 -37.9492C29.7894 -37.8813 29.973 -37.8135 30.1566 -37.7417L23.4758 -20.2172V-20.2212ZM16.7112 -20.4087L11.0122 -38.2763C11.1997 -38.3362 11.3873 -38.3921 11.5709 -38.4479L16.9147 -20.4725C16.8469 -20.4526 16.7791 -20.4326 16.7112 -20.4087ZM22.6896 -20.4845C22.6218 -20.5045 22.5579 -20.5204 22.4901 -20.5404L27.335 -38.6594C27.5266 -38.6075 27.7182 -38.5556 27.9057 -38.4998L22.6856 -20.4885L22.6896 -20.4845ZM17.5054 -20.6242L13.307 -38.9028C13.4985 -38.9467 13.6901 -38.9906 13.8856 -39.0305L17.7129 -20.672C17.6451 -20.6561 17.5772 -20.6441 17.5094 -20.6282L17.5054 -20.6242ZM21.8794 -20.684C21.8116 -20.696 21.7477 -20.708 21.6799 -20.7239L25.0203 -39.1741C25.2159 -39.1382 25.4114 -39.1023 25.607 -39.0624L21.8755 -20.684H21.8794ZM18.3235 -20.7798L15.6337 -39.3377C15.8252 -39.3656 16.0208 -39.3936 16.2123 -39.4175L18.539 -20.8077C18.4672 -20.7997 18.3954 -20.7878 18.3235 -20.7798ZM21.0693 -20.8157C20.9975 -20.8237 20.9216 -20.8317 20.8498 -20.8396L22.6856 -39.5013C22.8772 -39.4813 23.0687 -39.4614 23.2643 -39.4375L21.0733 -20.8117L21.0693 -20.8157ZM19.1616 -20.8676L17.9803 -39.5811C18.1719 -39.5931 18.3674 -39.605 18.559 -39.613L19.3771 -20.8755C19.3053 -20.8755 19.2295 -20.8676 19.1576 -20.8636L19.1616 -20.8676ZM20.2272 -20.8795C20.1554 -20.8795 20.0795 -20.8835 20.0077 -20.8875L20.335 -39.637C20.5305 -39.637 20.7221 -39.629 20.9136 -39.621L20.2272 -20.8795Z" fill="#141414"/>
</g>
</svg>
