<svg width="19" height="12" viewBox="0 0 19 12" fill="none" xmlns="http://www.w3.org/2000/svg">
<path d="M9.28995 9.48966C9.28995 9.48966 9.17995 9.51966 9.04995 9.54966C8.90995 9.57966 8.78995 9.58966 8.76995 9.57966C8.52995 9.46966 8.48995 9.08966 8.49995 8.55966C8.49995 8.37966 8.50995 8.16966 8.49995 7.93966C8.48995 7.74966 8.46995 7.58966 8.44995 7.40966C8.40995 7.05966 8.33995 6.70966 8.19995 6.35966C8.16995 6.27966 8.26995 6.18966 8.25995 6.10966C8.17995 5.55966 7.98995 5.02966 7.99995 4.45966C8.00995 3.67966 7.84995 2.91966 7.81995 2.14966C7.86995 2.14966 7.91995 2.14966 7.95995 2.14966C7.98995 3.15966 8.27995 4.16966 8.37995 5.17966C8.39995 5.35966 8.55995 5.53966 8.61995 5.72966C8.78995 6.22966 8.84995 6.70966 9.10995 7.21966C9.21995 7.41966 9.19995 7.61966 9.17995 7.82966C9.14995 8.08966 9.09995 8.35966 9.13995 8.55966C9.24995 9.09966 9.41995 9.39966 9.28995 9.49966V9.48966Z" fill="#141414"/>
<path d="M8.39003 9.74987C8.39003 9.74987 8.28003 9.80987 8.15003 9.84987C8.02003 9.88987 7.89003 9.90987 7.88003 9.88987C7.59003 9.64987 7.52003 9.19987 7.49003 8.68987C7.49003 8.50987 7.46003 8.30987 7.44003 8.10987C7.42003 7.92987 7.39003 7.75987 7.35003 7.58987C7.28003 7.24987 7.18003 6.90987 7.03003 6.56987C6.99003 6.49987 7.08003 6.39987 7.06003 6.32987C6.94003 5.77987 6.71003 5.26987 6.68003 4.70987C6.62003 3.83987 6.35003 2.99987 6.28003 2.11987C6.33003 2.12987 6.39003 2.12987 6.44003 2.12987C6.49003 3.22987 6.91003 4.28987 7.11003 5.37987C7.14003 5.55987 7.31003 5.71987 7.39003 5.89987C7.60003 6.38987 7.70003 6.85987 8.00003 7.33987C8.12003 7.52987 8.12003 7.72987 8.11003 7.93987C8.10003 8.16987 8.07003 8.42987 8.13003 8.61987C8.27003 9.14987 8.47003 9.48987 8.39003 9.74987Z" fill="#141414"/>
<path d="M7.07993 10.0798C7.07993 10.0798 6.97993 10.1598 6.84993 10.1998C6.70993 10.2398 6.58993 10.2498 6.56993 10.2198C6.24993 9.82976 6.17993 9.31976 6.14993 8.81976C6.13993 8.63976 6.11993 8.46976 6.09993 8.28976C6.07993 8.10976 6.04993 7.93976 6.01993 7.76976C5.94993 7.42976 5.84993 7.09976 5.68993 6.75976C5.64993 6.68976 5.73993 6.59976 5.72993 6.51976C5.59993 5.97976 5.37993 5.46976 5.33993 4.91976C5.27993 3.92976 4.93993 2.99976 4.92993 1.99976C4.98993 1.99976 5.04993 2.00976 5.09993 2.00976C5.06993 3.23976 5.55993 4.37976 5.77993 5.57976C5.80993 5.75976 5.97993 5.91976 6.05993 6.09976C6.26993 6.57976 6.35993 7.04976 6.65993 7.51976C6.77993 7.70976 6.77993 7.90976 6.76993 8.11976C6.75993 8.32976 6.72993 8.55976 6.77993 8.75976C6.92993 9.25976 7.12993 9.67976 7.07993 10.0798Z" fill="#141414"/>
<path d="M5.76997 10.3998C5.76997 10.3998 5.67997 10.4998 5.54996 10.5398C5.40996 10.5798 5.27997 10.5798 5.25997 10.5398C4.90997 10.0098 4.82996 9.43983 4.79996 8.94983C4.78996 8.77983 4.77997 8.61982 4.76997 8.46982C4.73997 8.29982 4.70997 8.12982 4.67997 7.95982C4.60997 7.61982 4.50997 7.28982 4.35997 6.95982C4.30997 6.87982 4.40997 6.78982 4.38997 6.70982C4.26997 6.17982 4.03997 5.66982 4.00997 5.12982C3.93997 4.14982 3.60997 3.20982 3.59997 2.21982C3.59997 2.07982 3.58997 1.94982 3.58997 1.81982C3.64997 1.82982 3.69997 1.82982 3.75997 1.83982C3.76997 1.95982 3.76997 2.06983 3.76997 2.18983C3.72997 3.43983 4.21997 4.57983 4.43997 5.77983C4.46997 5.95983 4.63996 6.11982 4.71996 6.29982C4.92997 6.76982 5.02997 7.23982 5.32997 7.70982C5.55997 8.08982 5.33997 8.50982 5.43997 8.88982C5.58997 9.37982 5.78997 9.85982 5.76997 10.3998Z" fill="#141414"/>
<path d="M4.44993 10.7099C4.47993 10.7599 4.37993 10.8299 4.23993 10.8699C4.09993 10.8999 3.96993 10.8999 3.94993 10.8499C3.56993 10.1799 3.48993 9.54987 3.45993 9.08987C3.44993 8.91987 3.44993 8.78987 3.42993 8.64987C3.40993 8.47987 3.37993 8.30987 3.33993 8.13987C3.26993 7.80987 3.17993 7.47987 3.01993 7.14987C2.97993 7.06987 3.06993 6.97987 3.05993 6.90987C2.92993 6.37987 2.70993 5.87987 2.67993 5.32987C2.60993 4.35987 2.27993 3.42987 2.26993 2.43987C2.26993 2.15987 2.23993 1.88987 2.25993 1.61987C2.30993 1.62987 2.35993 1.62987 2.40993 1.63987C2.40993 1.88987 2.44993 2.13987 2.43993 2.40987C2.39993 3.65987 2.88993 4.78987 3.10993 5.97987C3.13993 6.15987 3.30993 6.31987 3.38993 6.48987C3.59993 6.96987 3.68993 7.42987 3.98993 7.88987C4.10993 8.07987 4.10993 8.27987 4.09993 8.47987C4.07993 8.67987 4.03993 8.82987 4.09993 9.01987C4.24993 9.48987 4.43993 10.0299 4.44993 10.7099Z" fill="#141414"/>
<path d="M3.13997 11.0097C3.15997 11.0697 3.06997 11.1497 2.92997 11.1897C2.78997 11.2197 2.65997 11.2097 2.62997 11.1497C2.21997 10.3397 2.14997 9.65972 2.11997 9.21972V9.00972C2.09997 8.93972 2.09997 8.90972 2.08997 8.82972C2.06997 8.65972 2.03997 8.48972 2.00997 8.32972C1.93997 7.98972 1.83997 7.66972 1.68997 7.33972C1.64997 7.26972 1.73997 7.17972 1.71997 7.09972C1.59997 6.57972 1.37997 6.07972 1.34997 5.53972C1.30997 5.05972 1.20997 4.58972 1.11997 4.10972C1.02997 3.64972 0.939973 3.12972 0.939973 2.65972C0.939973 2.23972 0.869974 1.85972 0.989974 1.45972C1.02997 1.45972 1.05997 1.45972 1.09997 1.46972C1.02997 1.85972 1.11997 2.22972 1.10997 2.63972C1.06997 3.87972 1.55997 4.99972 1.76997 6.17972C1.79997 6.35972 1.97997 6.51972 2.05997 6.68972C2.25997 7.15972 2.34997 7.61972 2.64997 8.07972C2.76997 8.25972 2.76997 8.45972 2.75997 8.65972C2.75997 8.76972 2.73997 8.82972 2.72997 8.90972C2.72997 8.97972 2.72997 9.06972 2.75997 9.15972C2.90997 9.60972 3.09997 10.1997 3.13997 11.0097Z" fill="#141414"/>
<path d="M11.02 4.43983C11.05 4.99983 10.88 5.53982 10.82 6.09982C10.81 6.17982 10.91 6.25982 10.88 6.33982C10.76 6.69982 10.7 7.04982 10.67 7.39982C10.65 7.57982 10.64 7.73983 10.64 7.93983C10.64 8.16983 10.65 8.36982 10.66 8.55982C10.69 9.08982 10.65 9.46982 10.42 9.58982C10.4 9.59982 10.28 9.58982 10.14 9.55982C10.01 9.53982 9.89996 9.50982 9.89996 9.50982C9.75996 9.40982 9.92996 9.10982 10.02 8.56982C10.05 8.35982 9.98996 8.08982 9.95996 7.82982C9.91996 7.62982 9.89996 7.41982 9.99996 7.21982C10.25 6.70982 10.29 6.21982 10.44 5.71982C10.5 5.52982 10.65 5.34982 10.66 5.15982C10.74 4.04982 11.04 2.93982 10.98 1.83982C11.03 1.83982 11.07 1.81982 11.12 1.81982C11.16 2.68982 10.98 3.55983 11.02 4.43983Z" fill="#141414"/>
<path d="M13.01 1.42969C13 1.50969 13 1.58969 13 1.66969C12.99 2.66969 12.65 3.61969 12.58 4.61969C12.55 5.16969 12.32 5.67969 12.2 6.22969C12.18 6.29969 12.27 6.39969 12.23 6.46969C12.07 6.80969 11.98 7.14969 11.91 7.48969C11.87 7.65969 11.84 7.82969 11.82 8.00969C11.79 8.20969 11.78 8.40969 11.77 8.58969C11.74 9.09969 11.66 9.54969 11.38 9.78969C11.36 9.80969 11.24 9.78969 11.1 9.74969C10.98 9.70969 10.87 9.66969 10.87 9.64969C10.79 9.38969 10.98 9.04969 11.13 8.52969C11.19 8.32969 11.16 8.06969 11.15 7.83969C11.14 7.62969 11.14 7.42969 11.26 7.23969C11.56 6.75969 11.66 6.28969 11.87 5.80969C11.95 5.62969 12.12 5.45969 12.15 5.27969C12.37 4.05969 12.87 2.88969 12.83 1.64969C12.83 1.58969 12.83 1.52969 12.84 1.46969C12.9 1.45969 12.95 1.44969 13.01 1.42969Z" fill="#141414"/>
<path d="M14.36 1.10986C14.36 1.37986 14.33 1.62986 14.33 1.88986C14.32 2.88986 13.98 3.82986 13.91 4.81986C13.88 5.36986 13.66 5.87986 13.53 6.41986C13.52 6.49986 13.61 6.58986 13.57 6.65986C13.41 6.99986 13.31 7.32986 13.24 7.66986C13.21 7.83986 13.18 8.00986 13.16 8.18986C13.13 8.36986 13.12 8.53986 13.11 8.71986C13.08 9.21986 13.01 9.72986 12.69 10.1199C12.67 10.1499 12.55 10.1399 12.41 10.0999C12.27 10.0599 12.16 10.0099 12.18 9.97986C12.13 9.57986 12.33 9.15986 12.47 8.65986C12.53 8.45986 12.5 8.22986 12.49 8.01986C12.49 7.80986 12.49 7.60986 12.6 7.41986C12.9 6.94986 12.99 6.47986 13.2 5.99986C13.28 5.81986 13.45 5.65986 13.48 5.47986C13.7 4.26986 14.2 3.10986 14.16 1.86986C14.15 1.62986 14.18 1.38986 14.19 1.14986C14.25 1.14986 14.31 1.12986 14.36 1.10986Z" fill="#141414"/>
<path d="M15.66 2.11979C15.65 3.10979 15.31 4.04979 15.25 5.02979C15.21 5.56979 14.99 6.07979 14.87 6.60979C14.85 6.68979 14.94 6.77979 14.9 6.85979C14.75 7.18979 14.65 7.51979 14.58 7.85979C14.54 8.02979 14.52 8.19979 14.49 8.36979C14.47 8.51979 14.46 8.67979 14.45 8.84979C14.42 9.33979 14.35 9.90979 14 10.4398C13.98 10.4798 13.85 10.4798 13.71 10.4398C13.58 10.3998 13.47 10.3398 13.49 10.2998C13.47 9.75979 13.67 9.27979 13.82 8.78979C13.92 8.40979 13.7 7.98979 13.93 7.60979C14.23 7.13979 14.33 6.66979 14.53 6.19979C14.61 6.01979 14.79 5.85979 14.82 5.67979C15.03 4.47979 15.53 3.33979 15.49 2.08979C15.49 1.65979 15.58 1.25979 15.5 0.819794C15.54 0.809794 15.57 0.799795 15.61 0.789795C15.74 1.24979 15.66 1.66979 15.66 2.11979Z" fill="#141414"/>
<path d="M16.99 2.33977C16.99 3.32977 16.65 4.25976 16.58 5.22976C16.55 5.77977 16.32 6.27977 16.2 6.80976C16.19 6.87977 16.28 6.96976 16.24 7.04976C16.08 7.37976 15.98 7.70977 15.91 8.03977C15.88 8.20977 15.85 8.37976 15.83 8.54976C15.81 8.68976 15.81 8.81977 15.8 8.98977C15.77 9.44977 15.69 10.0798 15.31 10.7498C15.29 10.7998 15.16 10.7998 15.02 10.7698C14.88 10.7298 14.78 10.6598 14.8 10.6098C14.8 9.92977 15.01 9.38977 15.16 8.91977C15.22 8.72977 15.17 8.57976 15.16 8.37976C15.15 8.17976 15.15 7.97977 15.27 7.78977C15.57 7.32977 15.66 6.86976 15.87 6.38976C15.95 6.21976 16.12 6.05976 16.15 5.87976C16.37 4.68976 16.86 3.55976 16.82 2.30976C16.8 1.69976 17.01 1.17977 16.62 0.529766C16.64 0.519766 16.66 0.519766 16.68 0.509766C17.13 1.17977 16.99 1.71977 16.99 2.33977Z" fill="#141414"/>
<path d="M17.7599 0.599844C18.3799 1.31984 18.12 1.86984 18.15 2.53984C18.18 3.78984 17.7 4.89984 17.48 6.08984C17.45 6.26984 17.28 6.42984 17.2 6.59984C16.99 7.06984 16.9 7.52984 16.6 7.98984C16.48 8.16984 16.48 8.36984 16.49 8.56984C16.49 8.67984 16.51 8.73984 16.52 8.81984C16.52 8.89984 16.52 8.97984 16.49 9.06984C16.34 9.51984 16.15 10.1098 16.11 10.9298C16.09 10.9798 16.18 11.0598 16.32 11.0998C16.46 11.1398 16.59 11.1198 16.61 11.0598C17.02 10.2598 17.09 9.56984 17.12 9.12984V8.91984C17.14 8.84984 17.14 8.81984 17.15 8.72984C17.17 8.55984 17.2 8.39984 17.23 8.22984C17.3 7.89984 17.4 7.56984 17.55 7.23984C17.59 7.16984 17.4999 7.06984 17.5099 6.99984C17.6299 6.47984 17.86 5.97984 17.89 5.43984C17.92 4.95984 18.02 4.48984 18.11 4.00984C18.2 3.54984 18.29 3.02984 18.29 2.55984C18.29 1.88984 18.46 1.32984 17.8 0.599844C17.8 0.599844 17.7799 0.589844 17.7599 0.589844C17.7399 0.589844 17.74 0.589844 17.74 0.589844L17.7599 0.599844Z" fill="#141414"/>
</svg>
