<svg width="20" height="12" viewBox="0 0 20 12" fill="none" xmlns="http://www.w3.org/2000/svg">
<path d="M5.57927 2.29003C4.23927 1.88003 2.84927 1.62003 1.44927 1.50003C1.76927 4.40003 1.08927 7.31003 0.689266 10.2C0.639266 10.57 0.659267 11.05 1.00927 11.17C1.22927 11.25 1.46927 11.12 1.67927 11.01C4.00927 9.74003 6.83927 9.41003 9.40927 10.12C9.77927 9.09003 9.94927 7.98003 9.90927 6.88003C9.88927 8.05003 9.64927 9.22003 9.20927 10.3C10.0793 9.63003 10.9993 8.94003 12.0893 8.82003C12.7393 8.75003 13.3993 8.88003 14.0393 9.02003C15.3793 9.31003 16.7193 9.60003 18.0593 9.88003C18.5493 6.87003 18.8793 3.83003 19.0493 0.780029C18.0693 0.970029 17.0993 1.23003 16.1293 1.48003C15.2093 1.72003 14.2893 1.97003 13.3593 2.21003C13.1093 2.28003 12.8393 2.35003 12.6993 2.57003C12.5893 2.73003 12.5693 2.95003 12.5593 3.15003C12.5193 3.86003 12.4793 4.57003 12.4393 5.29003C12.1193 4.59003 12.4893 3.77003 12.3693 3.02003C12.2193 2.15003 11.4193 1.51003 10.5693 1.29003C9.71927 1.07003 8.81927 1.17003 7.94927 1.27003C7.96927 2.02003 7.92927 3.13003 7.41927 3.70003C6.89927 3.09003 6.45927 2.55003 5.59927 2.29003H5.57927Z" fill="white"/>
<path d="M1.14954 11.45C1.06954 11.45 0.999539 11.44 0.919539 11.41C0.519539 11.27 0.349539 10.83 0.439539 10.17C0.529539 9.53002 0.629539 8.89002 0.729539 8.25002C1.07954 6.04002 1.43954 3.76002 1.19954 1.53002C1.19954 1.46002 1.21954 1.38002 1.26954 1.33002C1.31954 1.28002 1.39954 1.25002 1.46954 1.26002C2.87954 1.37002 4.28954 1.64002 5.64954 2.06002C6.45954 2.31002 6.92954 2.78002 7.37954 3.30002C7.59954 2.88002 7.69954 2.21002 7.66954 1.29002C7.66954 1.16002 7.75954 1.05002 7.88954 1.04002C8.73954 0.94002 9.69954 0.820019 10.6095 1.06002C11.4595 1.29002 12.1395 1.83002 12.4395 2.50002C12.4395 2.48002 12.4595 2.47002 12.4695 2.45002C12.6795 2.15002 13.0395 2.06002 13.2695 2.00002L16.0395 1.27002C16.9895 1.02002 17.9795 0.760019 18.9695 0.560019C19.0495 0.550019 19.1195 0.56002 19.1795 0.62002C19.2395 0.67002 19.2695 0.750019 19.2595 0.820019C19.0795 3.87002 18.7495 6.94002 18.2695 9.95002C18.2595 10.02 18.2195 10.08 18.1595 10.12C18.0995 10.16 18.0295 10.17 17.9695 10.16L13.9495 9.30002C13.3395 9.17002 12.6995 9.03002 12.0795 9.10002C11.0295 9.22002 10.1295 9.91002 9.32954 10.53C9.23954 10.6 9.11954 10.6 9.02954 10.53C8.94954 10.47 8.91954 10.38 8.93954 10.28C6.53954 9.72002 3.95954 10.06 1.78954 11.25C1.62954 11.34 1.39954 11.47 1.14954 11.47V11.45ZM1.72954 1.78002C1.91954 3.98002 1.56954 6.19002 1.22954 8.33002C1.12954 8.97002 1.02954 9.60002 0.939539 10.24C0.899539 10.54 0.919539 10.88 1.08954 10.94C1.20954 10.98 1.40954 10.88 1.55954 10.8C3.84954 9.55002 6.58954 9.19002 9.12954 9.80002C9.45954 8.86002 9.63954 7.89002 9.64954 6.89002C9.64954 6.75002 9.75954 6.65002 9.89954 6.64002C10.0395 6.66002 10.1495 6.74002 10.1495 6.88002C10.1795 7.76002 10.0795 8.66002 9.84954 9.52002C10.4895 9.08002 11.2195 8.68002 12.0395 8.59002C12.7395 8.51002 13.4495 8.66002 14.0695 8.80002L17.8295 9.61002C18.2695 6.81002 18.5795 3.95002 18.7595 1.12002C17.8895 1.30002 17.0195 1.53002 16.1795 1.75002L13.4095 2.48002C13.1895 2.54002 12.9795 2.60002 12.8895 2.74002C12.8095 2.85002 12.7995 3.03002 12.7895 3.19002L12.6695 5.33002C12.6695 5.45002 12.5795 5.54002 12.4695 5.56002C12.3595 5.58002 12.2395 5.52002 12.1995 5.42002C11.9895 4.96002 12.0395 4.47002 12.0895 3.99002C12.1195 3.67002 12.1495 3.37002 12.1095 3.08002C11.9695 2.28002 11.1995 1.73002 10.4895 1.55002C9.74954 1.35002 8.95954 1.42002 8.17954 1.51002C8.17954 2.66002 7.98954 3.44002 7.58954 3.88002C7.53954 3.93002 7.47954 3.98002 7.39954 3.96002C7.32954 3.96002 7.25954 3.93002 7.20954 3.87002C6.67954 3.25002 6.28954 2.77002 5.49954 2.53002C4.26954 2.15002 2.99954 1.90002 1.71954 1.78002H1.72954Z" fill="#141414"/>
</svg>
