<svg width="35" height="10" viewBox="0 0 35 10" fill="none" xmlns="http://www.w3.org/2000/svg">
<path d="M21.05 1.42991C22.25 1.48991 23.47 1.11991 24.45 0.409912C26.84 3.36991 30.53 4.90991 34.05 6.32991C32.63 7.29991 30.88 7.62991 29.19 7.90991C21.22 9.22991 13.11 10.0099 5.07002 9.26991C3.42002 9.11991 1.63002 8.82991 0.52002 7.60991C3.69002 6.05991 6.78002 4.33991 9.78002 2.47991C10.61 2.56991 11.44 2.47991 12.24 2.22991" fill="white"/>
<path d="M11.4901 9.80999C9.27009 9.80999 7.13009 9.70999 5.05009 9.51999C3.28009 9.35999 1.48009 9.03999 0.340088 7.77999C0.290088 7.71999 0.270088 7.63999 0.280088 7.56999C0.290088 7.48999 0.340088 7.42999 0.420088 7.38999C3.57009 5.84999 6.67009 4.11999 9.66009 2.26999C9.71009 2.23999 9.76009 2.22999 9.82009 2.22999C10.6101 2.31999 11.4101 2.22999 12.1801 1.98999C12.3101 1.94999 12.4501 2.01999 12.4901 2.14999C12.5301 2.27999 12.4601 2.41999 12.3301 2.45999C11.5201 2.71999 10.6901 2.80999 9.85009 2.72999C6.98009 4.50999 3.99009 6.16999 0.960088 7.66999C2.00009 8.60999 3.56009 8.86999 5.11009 9.00999C12.1001 9.64999 19.7501 9.21999 29.1701 7.64999C30.8101 7.37999 32.2701 7.08999 33.5301 6.35999C30.3301 5.05999 26.8101 3.54999 24.4301 0.729988C23.4401 1.38999 22.2601 1.71999 21.0701 1.65999C20.9301 1.65999 20.8301 1.53999 20.8301 1.39999C20.8301 1.25999 20.9501 1.14999 21.0901 1.15999C22.2401 1.21999 23.3901 0.869989 24.3301 0.189989C24.4401 0.109989 24.5901 0.129988 24.6701 0.229988C27.0801 3.20999 30.8501 4.72999 34.1701 6.07999C34.2601 6.10999 34.3201 6.18999 34.3201 6.28999C34.3201 6.37999 34.2901 6.46999 34.2101 6.51999C32.7901 7.48999 31.0501 7.83999 29.2501 8.13999C22.5901 9.24999 16.8001 9.78999 11.5101 9.78999L11.4901 9.80999Z" fill="#141414"/>
<path d="M5.45008 9.60999C5.37008 9.60999 5.30008 9.57999 5.25008 9.50999C5.17008 9.39999 5.19008 9.23999 5.30008 9.15999C6.64008 8.12999 7.81008 6.90999 8.76008 5.51999C8.84008 5.40999 8.99008 5.37999 9.11008 5.45999C9.22008 5.53999 9.25008 5.68999 9.17008 5.80999C8.19008 7.24999 6.98008 8.50999 5.60008 9.56999C5.55008 9.59999 5.50008 9.61999 5.45008 9.61999V9.60999Z" fill="#141414"/>
<path d="M13.5101 9.81011C13.5101 9.81011 13.4201 9.80011 13.3801 9.78011C13.2601 9.71011 13.2201 9.56011 13.2901 9.44011C13.3801 9.29011 13.4701 9.14011 13.5501 8.98011C13.8001 8.53011 14.0601 8.05011 14.2201 7.55011C14.3901 7.01011 14.4401 6.51011 14.3701 6.06011C14.3501 5.92011 14.4401 5.79011 14.5801 5.77011C14.7101 5.75011 14.8501 5.84011 14.8701 5.98011C14.9601 6.51011 14.9001 7.10011 14.7101 7.71011C14.5301 8.26011 14.2601 8.77011 14.0001 9.24011C13.9101 9.40011 13.8201 9.55011 13.7301 9.71011C13.6801 9.79011 13.6001 9.83011 13.5101 9.83011V9.81011Z" fill="#141414"/>
<path d="M21.3501 9.21004C21.3001 9.21004 21.2401 9.19004 21.2001 9.16004C20.1801 8.37004 19.4901 7.14005 19.3601 5.86005C19.3501 5.72005 19.4501 5.60004 19.5801 5.59004C19.7101 5.58004 19.8401 5.68005 19.8501 5.81005C19.9701 6.96005 20.5801 8.07005 21.5001 8.77005C21.6101 8.85005 21.6301 9.01004 21.5501 9.12004C21.5001 9.18004 21.4301 9.22005 21.3501 9.22005V9.21004Z" fill="#141414"/>
<path d="M29.34 8.17004C29.34 8.17004 29.24 8.16004 29.2 8.13004L25.3 5.42004C25.19 5.34004 25.16 5.19004 25.24 5.07004C25.32 4.96004 25.47 4.93004 25.59 5.01004L29.49 7.72004C29.6 7.80004 29.63 7.95004 29.55 8.07004C29.5 8.14004 29.42 8.18004 29.34 8.18004V8.17004Z" fill="#141414"/>
</svg>
