<svg width="18" height="7" viewBox="0 0 18 7" fill="none" xmlns="http://www.w3.org/2000/svg">
<path d="M12.7591 5.72992C12.6791 5.35992 12.7891 4.96992 13.0391 4.68992C13.3191 4.38992 13.7191 4.24992 14.0591 4.00992C14.3691 3.78992 14.6091 3.47992 14.8391 3.17992C15.2291 2.67992 15.6191 2.16992 16.0091 1.66992C16.2391 1.68992 16.4391 1.87992 16.4791 2.09992C16.4891 2.16992 16.4891 2.23992 16.5291 2.28992C16.5991 2.40992 16.7792 2.39992 16.8991 2.46992C17.0791 2.56992 17.1191 2.81992 17.0391 3.00992C16.9591 3.19992 16.8091 3.33992 16.6591 3.47992C16.1991 3.89992 15.7691 4.34992 15.3691 4.81992C15.8591 4.87992 16.3291 5.04992 16.7591 5.29992C15.9691 5.83992 15.0491 6.19992 14.1091 6.33992" fill="white"/>
<path d="M14.1095 6.57991C13.9895 6.57991 13.8795 6.48991 13.8595 6.36991C13.8395 6.22991 13.9295 6.10991 14.0695 6.07991C14.8395 5.95991 15.5895 5.69991 16.2595 5.30991C15.9695 5.17991 15.6595 5.09991 15.3495 5.05991C15.2595 5.04991 15.1795 4.98991 15.1495 4.89991C15.1195 4.81991 15.1295 4.71991 15.1895 4.64991C15.5995 4.16991 16.0395 3.70991 16.4995 3.27991C16.6395 3.14991 16.7695 3.03991 16.8195 2.90991C16.8595 2.81991 16.8295 2.70991 16.7895 2.67991C16.7695 2.66991 16.7295 2.65991 16.6895 2.64991C16.5795 2.61991 16.4195 2.56991 16.3195 2.41991C16.2695 2.32991 16.2495 2.23991 16.2395 2.17991C16.2195 2.07991 16.1695 1.99991 16.0995 1.95991L15.0295 3.33991C14.7895 3.64991 14.5395 3.97991 14.1895 4.21991C14.0595 4.31991 13.9195 4.39991 13.7695 4.47991C13.5595 4.59991 13.3495 4.70991 13.2095 4.86991C13.0095 5.08991 12.9295 5.39991 12.9895 5.68991C13.0195 5.82991 12.9295 5.95991 12.7995 5.97991C12.6695 6.00991 12.5295 5.91991 12.5095 5.78991C12.4195 5.34991 12.5495 4.86991 12.8495 4.52991C13.0495 4.30991 13.2995 4.16991 13.5395 4.03991C13.6695 3.96991 13.7895 3.89991 13.9095 3.80991C14.1895 3.60991 14.4195 3.30991 14.6395 3.02991L15.8095 1.50991C15.8595 1.43991 15.9395 1.40991 16.0295 1.40991C16.3695 1.43991 16.6595 1.70991 16.7195 2.04991L16.7395 2.15991C16.7395 2.15991 16.7895 2.15991 16.8095 2.15991C16.8695 2.17991 16.9395 2.19991 17.0095 2.23991C17.3095 2.40991 17.3795 2.79991 17.2595 3.08991C17.1695 3.32991 16.9895 3.48991 16.8295 3.63991C16.4795 3.95991 16.1495 4.29991 15.8295 4.64991C16.1995 4.73991 16.5495 4.88991 16.8695 5.07991C16.9395 5.11991 16.9895 5.19991 16.9895 5.28991C16.9895 5.37991 16.9495 5.45991 16.8795 5.49991C16.0595 6.05991 15.1095 6.42991 14.1195 6.57991C14.1095 6.57991 14.0895 6.57991 14.0795 6.57991H14.1095Z" fill="#141414"/>
<path d="M9.61947 5.17982C9.52947 4.74982 9.61947 4.29982 9.62947 3.85982C9.63947 3.41982 9.52947 2.92982 9.15947 2.67982C8.91947 2.51982 8.60947 2.49981 8.32947 2.45981C8.04947 2.41981 7.72947 2.30981 7.58947 2.05981C7.62947 2.55981 7.38947 3.03982 7.22947 3.51982C7.14947 3.75982 7.08947 4.04981 7.25947 4.22981C7.32947 4.30981 7.43947 4.34982 7.51947 4.41982C7.66947 4.52981 7.74947 4.69982 7.85947 4.84982C7.96947 4.99982 8.10947 5.13981 8.28947 5.15981" fill="white"/>
<path d="M9.61952 5.4298C9.49952 5.4298 9.39952 5.3498 9.37952 5.2298C9.30952 4.8998 9.33952 4.5798 9.35952 4.2598C9.36952 4.1198 9.37952 3.9898 9.37952 3.8498C9.37952 3.6298 9.35952 3.1098 9.01952 2.8898C8.86952 2.7898 8.65952 2.7598 8.43952 2.7298L8.27952 2.7098C8.08952 2.6798 7.92952 2.6298 7.78952 2.5698C7.73952 2.8298 7.64952 3.0798 7.54952 3.3198C7.51952 3.4098 7.47952 3.5098 7.44952 3.5998C7.36952 3.8298 7.36952 3.9898 7.42952 4.0598C7.44952 4.0798 7.49952 4.1098 7.53952 4.1398C7.57952 4.1698 7.61952 4.1898 7.65952 4.2198C7.79952 4.3298 7.89952 4.4698 7.97952 4.5998L8.04952 4.6998C8.13952 4.8198 8.22952 4.8998 8.29952 4.8998C8.43952 4.9098 8.53952 5.0298 8.52952 5.1698C8.51952 5.3098 8.39952 5.4198 8.25952 5.3998C8.02952 5.3798 7.81952 5.2398 7.63952 4.9898L7.55952 4.8698C7.48952 4.7698 7.42952 4.6698 7.34952 4.6098C7.31952 4.5898 7.29952 4.5698 7.26952 4.5598C7.19952 4.5198 7.11952 4.4698 7.04952 4.3898C6.84952 4.1698 6.81952 3.8498 6.95952 3.4298C6.98952 3.3298 7.02952 3.2398 7.06952 3.1398C7.20952 2.7698 7.33952 2.4198 7.30952 2.0798C7.30952 1.9598 7.36952 1.8598 7.48952 1.8198C7.59952 1.7898 7.71952 1.8298 7.77952 1.9298C7.85952 2.0698 8.04952 2.1598 8.33952 2.2098L8.48952 2.2298C8.73952 2.2698 9.02952 2.3098 9.26952 2.4698C9.79952 2.8098 9.85952 3.4898 9.85952 3.8598C9.85952 4.0098 9.84952 4.1498 9.82952 4.2998C9.80952 4.5898 9.77952 4.8698 9.82952 5.1298C9.85952 5.2698 9.76952 5.3998 9.63952 5.4298C9.61952 5.4298 9.60952 5.4298 9.58952 5.4298H9.61952Z" fill="#141414"/>
<path d="M5.15928 4.96987C4.79928 4.17987 4.42928 3.35987 4.34928 2.49987C4.30928 2.10987 4.32928 1.68987 4.11928 1.35987C3.80928 0.869872 3.01928 0.799871 2.62928 1.21987C2.49928 1.34987 2.41928 1.51987 2.30928 1.66987C2.15928 1.87987 1.95928 2.05987 1.72928 2.17987C1.62928 2.22987 1.52928 2.27987 1.45928 2.35987C1.39928 2.43987 1.36928 2.53987 1.34928 2.63987C1.26928 3.10987 1.38928 3.58987 1.58928 4.01987C1.78928 4.44987 2.08928 4.82987 2.36928 5.20987" fill="white"/>
<path d="M2.17942 5.3498C1.88942 4.9698 1.58942 4.5698 1.36942 4.1198C1.11942 3.5898 1.02942 3.0598 1.10942 2.5898C1.12942 2.4698 1.16942 2.3198 1.26942 2.1898C1.35942 2.0798 1.47942 2.0198 1.56942 1.9698C1.80942 1.8398 1.97942 1.6898 2.10942 1.5098C2.14942 1.4598 2.17942 1.4098 2.20942 1.3598C2.27942 1.2498 2.35942 1.1298 2.44942 1.0398C2.68942 0.7898 3.05942 0.659799 3.42942 0.689799C3.80942 0.729799 4.14942 0.919798 4.32942 1.2198C4.52942 1.5398 4.55942 1.9198 4.57942 2.2598L4.59942 2.4798C4.67942 3.3198 5.03942 4.1098 5.37942 4.8698C5.43942 4.9998 5.37942 5.1398 5.25942 5.1998C5.12942 5.2598 4.98942 5.1998 4.92942 5.0798C4.57942 4.3098 4.18942 3.4498 4.09942 2.5298L4.07942 2.2998C4.05942 1.9998 4.03942 1.7098 3.90942 1.4998C3.80942 1.3398 3.60942 1.2298 3.37942 1.1998C3.15942 1.1798 2.93942 1.2498 2.80942 1.3898C2.73942 1.4698 2.68942 1.5498 2.62942 1.6398C2.58942 1.6998 2.54942 1.7598 2.50942 1.8198C2.33942 2.0598 2.10942 2.2598 1.84942 2.3998C1.73942 2.4598 1.67942 2.4898 1.64942 2.5198C1.60942 2.5598 1.59942 2.6498 1.58942 2.6798C1.50942 3.1498 1.65942 3.6098 1.80942 3.9098C1.99942 4.3098 2.28942 4.6898 2.56942 5.0498L2.16942 5.3498H2.17942Z" fill="#141414"/>
<path d="M2.8795 5.98963C2.9795 5.88963 2.9295 5.70963 2.8295 5.60963C2.7295 5.50963 2.5995 5.42963 2.5395 5.29963C2.4995 5.21963 2.4795 5.11963 2.4695 5.02963C2.4095 4.54963 2.3095 4.07963 2.1895 3.61963C1.6795 3.85963 1.2095 4.21963 0.839496 4.64963C0.799496 4.69963 0.749496 4.74963 0.739496 4.81963C0.719496 4.88963 0.739496 4.96963 0.769496 5.03963C0.929496 5.50963 1.3195 5.88963 1.7795 6.02963" fill="white"/>
<path d="M1.77949 6.2797C1.77949 6.2797 1.72949 6.2797 1.69949 6.2697C1.15949 6.0997 0.709487 5.6597 0.519487 5.1197C0.489487 5.0197 0.449486 4.8897 0.489486 4.7597C0.519486 4.6397 0.589486 4.5597 0.649486 4.4897C1.03949 4.0297 1.53949 3.6597 2.07949 3.3997C2.14949 3.3697 2.21949 3.3697 2.28949 3.3997C2.35949 3.4297 2.40949 3.4897 2.42949 3.5597C2.55949 4.0297 2.65949 4.5197 2.71949 4.9997C2.71949 5.0797 2.73949 5.1497 2.75949 5.1897C2.77949 5.2297 2.82949 5.2797 2.88949 5.3197C2.93949 5.3597 2.97949 5.3997 3.01949 5.4397C3.19949 5.6397 3.26949 5.9697 3.05949 6.1697C2.95949 6.2697 2.79949 6.2697 2.70949 6.1697C2.61949 6.0797 2.60949 5.9397 2.68949 5.8397C2.68949 5.8197 2.66949 5.7997 2.64949 5.7797C2.61949 5.7497 2.58949 5.7197 2.55949 5.6897C2.47949 5.6197 2.38949 5.5397 2.31949 5.4197C2.25949 5.2997 2.23949 5.1697 2.22949 5.0697C2.17949 4.6997 2.11949 4.3397 2.02949 3.9897C1.65949 4.2097 1.31949 4.4897 1.02949 4.8097C1.01949 4.8197 0.989486 4.8597 0.979486 4.8797C0.979486 4.8797 0.979486 4.8997 0.999486 4.9597C1.12949 5.3497 1.45949 5.6697 1.84949 5.7997C1.97949 5.8397 2.04949 5.9797 2.00949 6.1097C1.97949 6.2197 1.87949 6.2797 1.76949 6.2797H1.77949Z" fill="#141414"/>
<path d="M9.43973 6.05972C9.72973 5.39972 8.96973 4.16972 9.43973 3.58972C9.66973 3.35972 10.4197 4.44972 10.7097 4.46972C11.6597 4.51972 12.2197 4.82972 11.5497 5.39972C11.3297 5.62972 11.0497 5.88972 10.7897 6.09972" fill="white"/>
<path d="M10.7896 6.34976C10.7196 6.34976 10.6396 6.31976 10.5896 6.25976C10.4996 6.14976 10.5196 5.98977 10.6296 5.90977C10.8896 5.69977 11.1696 5.44977 11.3596 5.23977C11.5896 5.04977 11.5896 4.95977 11.5896 4.95977C11.5796 4.91977 11.3796 4.76977 10.6896 4.72977C10.4796 4.71977 10.2696 4.52977 9.95956 4.21977C9.84956 4.10977 9.66956 3.92977 9.55956 3.85977C9.46956 4.08977 9.54956 4.47977 9.62956 4.86977C9.72956 5.32977 9.82956 5.79977 9.65956 6.17977C9.59956 6.30977 9.45956 6.35977 9.32956 6.30977C9.19956 6.24977 9.14956 6.10977 9.19956 5.97977C9.29956 5.74977 9.21956 5.35977 9.13956 4.97977C9.01956 4.42977 8.89956 3.85977 9.22956 3.44977C9.54956 3.12977 9.93956 3.49977 10.3096 3.86977C10.4396 3.99977 10.6596 4.20977 10.7396 4.23977C11.4996 4.27977 11.9496 4.46977 12.0596 4.80977C12.1496 5.06977 12.0196 5.32977 11.6996 5.60977C11.5096 5.81977 11.2196 6.08977 10.9296 6.30977C10.8796 6.34977 10.8296 6.35977 10.7696 6.35977L10.7896 6.34976Z" fill="#141414"/>
</svg>
