<svg width="21" height="56" viewBox="0 0 21 56" fill="none" xmlns="http://www.w3.org/2000/svg">
<path d="M9.82974 40.164C10.202 41.1566 9.89591 42.2732 9.4079 43.2162C8.91989 44.1591 8.26645 45.011 7.89424 46.0036C7.52203 46.9796 7.43932 48.0632 6.93476 48.9813C6.56255 49.6678 5.97528 50.222 5.50381 50.8424C4.45335 52.2237 3.93225 54.002 4.07286 55.7308C4.36236 53.7456 5.7106 52.1162 6.80242 50.4453C8.98606 47.1037 10.3012 43.2492 11.0787 39.3286" fill="white"/>
<path d="M4.07252 55.9376C3.96499 55.9376 3.88228 55.8549 3.87401 55.7474C3.72512 53.969 4.26276 52.1411 5.34631 50.7184C5.51174 50.5033 5.68544 50.2965 5.86741 50.0897C6.20654 49.6927 6.52912 49.3205 6.76072 48.8821C7.04195 48.361 7.19083 47.782 7.33972 47.1782C7.43897 46.7647 7.5465 46.3428 7.70366 45.9292C7.94353 45.3006 8.29092 44.7216 8.63005 44.1592C8.83684 43.82 9.04362 43.4726 9.22559 43.117C9.62262 42.3477 10.0114 41.2228 9.63916 40.2303C9.5978 40.1227 9.6557 40.0069 9.76323 39.9656C9.87076 39.9242 9.98656 39.9821 10.0279 40.0897C10.458 41.2228 10.0279 42.4718 9.5978 43.3072C9.40756 43.6712 9.1925 44.0268 8.98572 44.3742C8.65486 44.9201 8.31574 45.4826 8.09241 46.0781C7.94353 46.4669 7.84427 46.8805 7.74501 47.2775C7.59613 47.8813 7.43897 48.5099 7.12466 49.0806C6.86825 49.5521 6.52085 49.9657 6.18172 50.3544C6.00802 50.5529 5.83432 50.7597 5.67717 50.9665C4.99064 51.8681 4.53572 52.9351 4.35375 54.0517C4.78386 53.0426 5.42076 52.1162 6.04111 51.2147C6.24789 50.9169 6.44641 50.6191 6.63665 50.3296C8.59697 47.3271 10.0279 43.6133 10.8799 39.2873C10.9047 39.1715 11.0122 39.1054 11.1197 39.1219C11.2355 39.1467 11.3017 39.2542 11.2852 39.3618C10.4167 43.7373 8.96918 47.5091 6.97578 50.5529C6.77726 50.8507 6.57875 51.1485 6.37196 51.4463C5.45384 52.7862 4.50263 54.1758 4.27931 55.7556C4.26276 55.8549 4.18005 55.9293 4.07252 55.9293V55.9376Z" fill="#1A1A1A"/>
<path d="M13.2126 39.6924C13.742 39.5683 14.2713 39.8578 14.7428 40.1308C15.2722 40.4451 15.8263 40.7677 16.1572 41.2971C16.3888 41.6693 16.4881 42.1159 16.6618 42.5212C16.2813 41.8512 15.6609 41.3219 14.9413 41.0655C14.5112 40.9083 14.048 40.8421 13.6262 40.6602C13.2043 40.4782 12.799 40.1556 12.7163 39.7007" fill="white"/>
<path d="M16.6619 42.7281C16.5874 42.7281 16.5213 42.6868 16.4799 42.6206C16.1242 42.0002 15.537 41.4957 14.867 41.2558C14.6768 41.1896 14.4865 41.14 14.2963 41.0904C14.0481 41.0242 13.7917 40.958 13.5436 40.8505C12.9729 40.6106 12.6006 40.2053 12.5097 39.7422C12.4848 39.6264 12.5593 39.5188 12.6751 39.5023C12.7909 39.4857 12.8984 39.5519 12.915 39.6677C12.9729 39.9903 13.2706 40.2881 13.7007 40.47C13.9241 40.561 14.1474 40.6272 14.3955 40.6851C14.6023 40.7347 14.8091 40.7926 15.0076 40.8671C15.3633 40.9994 15.7024 41.1896 15.9919 41.4295C15.9919 41.4295 15.9836 41.413 15.9754 41.4047C15.6693 40.9167 15.1151 40.5941 14.6354 40.3129C14.1639 40.0399 13.7007 39.8001 13.2541 39.8993C13.1383 39.9241 13.0308 39.858 13.0059 39.7422C12.9811 39.6346 13.0473 39.5188 13.1631 39.494C13.7586 39.3534 14.3211 39.6429 14.8422 39.9572C15.3385 40.2467 15.9671 40.6106 16.3228 41.1896C16.4882 41.4543 16.5874 41.7438 16.6867 42.0168C16.7363 42.1574 16.786 42.3063 16.8439 42.4469C16.8852 42.5461 16.8439 42.6619 16.7446 42.7116C16.7115 42.7281 16.6867 42.7364 16.6536 42.7364L16.6619 42.7281Z" fill="#1A1A1A"/>
<path d="M13.0055 41.0986C12.7325 41.3137 12.6498 41.6776 12.5588 42.0085C12.3768 42.6702 12.1122 43.3071 11.773 43.9026C11.5249 44.3245 11.2354 44.738 11.1196 45.2095C11.0452 45.5321 11.0452 45.8629 11.0534 46.1938C11.0782 47.3353 11.0948 48.4767 11.1196 49.6182C11.2685 47.7323 11.4339 45.7637 12.4017 44.1342C12.5754 43.8447 12.7656 43.5718 12.9145 43.2657C13.1295 42.8108 13.2371 42.3063 13.2205 41.8017" fill="white"/>
<path d="M11.1199 49.8251C11.0123 49.8251 10.9214 49.7341 10.9214 49.6183L10.8552 46.194C10.8552 45.8548 10.8386 45.4992 10.9296 45.1518C11.0289 44.7382 11.2439 44.3825 11.459 44.0351L11.6079 43.7953C11.9387 43.2163 12.2034 42.5959 12.3771 41.9507L12.3937 41.8928C12.4846 41.5537 12.5839 41.1815 12.8899 40.9334C12.9809 40.8589 13.1133 40.8755 13.1794 40.9664C13.2539 41.0574 13.2373 41.1898 13.1464 41.2559C12.9478 41.4131 12.8651 41.7109 12.7907 41.9921L12.7741 42.05C12.5922 42.7282 12.3192 43.3817 11.9635 43.9938L11.8147 44.2419C11.6079 44.581 11.4176 44.8953 11.3349 45.2427C11.2605 45.5405 11.2687 45.8631 11.277 46.1774V46.6158C11.4673 45.7142 11.7568 44.8209 12.2365 44.0103C12.2944 43.9111 12.3523 43.8201 12.4102 43.7208C12.5343 43.5306 12.6418 43.3486 12.7411 43.1584C12.9478 42.7365 13.0471 42.265 13.0223 41.7936C13.0223 41.6778 13.105 41.5868 13.2208 41.5785C13.3449 41.5785 13.4276 41.6612 13.4359 41.777C13.4607 42.3147 13.3449 42.8523 13.1133 43.3403C13.014 43.5554 12.8817 43.7539 12.7659 43.9441C12.708 44.0351 12.6501 44.1261 12.5922 44.2254C11.6327 45.8466 11.4755 47.8482 11.3349 49.6183C11.3349 49.7258 11.2357 49.8085 11.1281 49.8085L11.1199 49.8251Z" fill="#1A1A1A"/>
<path d="M10.7642 38.6753C10.5575 39.3866 9.85439 39.825 9.16786 40.1062C8.48134 40.3875 7.73691 40.5943 7.191 41.0988C6.42177 41.8184 6.26461 42.9764 5.68561 43.8614C4.99082 44.9202 3.76665 45.4826 2.66656 46.1113C1.56647 46.7399 0.433288 47.6084 0.209961 48.8574C0.56563 48.4024 0.913028 47.9558 1.2687 47.5009C1.3266 48.2039 1.3845 48.907 1.4424 49.6101C1.10327 48.8574 1.35968 47.9392 1.86424 47.2858C2.36879 46.6324 3.10494 46.194 3.81628 45.7804C4.52762 45.3668 5.26377 44.9285 5.78487 44.2916C6.33905 43.6216 6.62855 42.7531 7.22409 42.1245C7.80309 41.5041 8.61368 41.1732 9.36638 40.7928C10.1191 40.4123 10.8883 39.916 11.2357 39.1468" fill="white"/>
<path d="M1.44239 49.8251C1.35968 49.8251 1.28523 49.7755 1.25215 49.7011C1.07018 49.304 1.03709 48.8408 1.12808 48.3776L1.10326 48.0468L0.36711 48.9814C0.309211 49.0559 0.209954 49.0807 0.118969 49.0393C0.0362551 48.998 -0.0133731 48.907 0.00316962 48.816C0.193411 47.7407 1.02882 46.7895 2.55075 45.921C2.70791 45.83 2.86507 45.7473 3.03049 45.6563C3.96516 45.1435 4.93291 44.6059 5.50364 43.7374C5.72696 43.3983 5.89239 43.0012 6.04955 42.6208C6.29769 42.0252 6.5541 41.4049 7.04211 40.9417C7.49704 40.5116 8.08431 40.2882 8.64676 40.0732C8.78737 40.0153 8.93626 39.9656 9.07687 39.9077C9.90401 39.5686 10.4003 39.1302 10.5574 38.6091C10.5905 38.5016 10.6981 38.4354 10.8139 38.4685C10.9214 38.5016 10.9876 38.6174 10.9545 38.7249C10.7642 39.3784 10.1852 39.8995 9.23403 40.2882C9.09341 40.3461 8.94453 40.404 8.79564 40.4619C8.24146 40.6687 7.72037 40.8672 7.32334 41.2394C6.89323 41.6365 6.6699 42.1906 6.43003 42.7696C6.3804 42.8937 6.33077 43.0095 6.28115 43.1336C6.51274 42.7366 6.75261 42.323 7.0752 41.9756C7.58802 41.4297 8.26628 41.0988 8.91972 40.7762L9.27538 40.5943C9.92882 40.2634 10.7146 39.7919 11.0537 39.0475C11.1034 38.94 11.2274 38.8986 11.3267 38.9483C11.4342 38.9979 11.4756 39.122 11.4259 39.2212C11.0372 40.0814 10.1687 40.6025 9.45736 40.9665L9.09341 41.1484C8.47306 41.4545 7.82789 41.7688 7.37297 42.2568C7.06693 42.5794 6.8436 42.9682 6.612 43.3817C6.41349 43.7291 6.2067 44.0931 5.94202 44.4156C5.39611 45.0856 4.64341 45.524 3.9238 45.9458C3.27036 46.3346 2.52594 46.773 2.02139 47.4099C1.78152 47.7159 1.61609 48.055 1.54165 48.3859L1.6409 49.5853C1.64917 49.6845 1.583 49.7755 1.48375 49.8003C1.4672 49.8003 1.45066 49.8003 1.43412 49.8003L1.44239 49.8251ZM1.34313 47.3106C1.41758 47.3354 1.4672 47.4099 1.47547 47.4843V47.5009C1.54165 47.3851 1.62436 47.2693 1.70707 47.1617C1.86423 46.955 2.0462 46.773 2.23644 46.6076C1.88904 46.8392 1.59127 47.0708 1.34313 47.3106Z" fill="#1A1A1A"/>
<path d="M19.8545 48.1956C19.8545 48.1956 19.8462 48.1956 19.838 48.1956C19.4409 48.1625 19.0687 47.8565 18.8868 47.4098C18.7544 47.079 18.7379 46.7316 18.7213 46.3924V46.2932C18.6965 45.9871 18.6634 45.6315 18.5063 45.3585C18.1672 44.7878 17.3648 44.6968 17.0422 44.6885C16.7941 44.6803 16.546 44.6885 16.2978 44.7051C15.9173 44.7216 15.5286 44.7464 15.1316 44.6885C15.0158 44.672 14.9413 44.5645 14.9579 44.4569C14.9744 44.3494 15.0819 44.2667 15.1895 44.2832C15.5451 44.3329 15.9008 44.3163 16.273 44.2915C16.5294 44.275 16.7941 44.2667 17.0505 44.275C17.8859 44.3081 18.5476 44.6224 18.862 45.1517C19.0687 45.5074 19.1101 45.9127 19.1349 46.2766V46.3759C19.1597 46.6902 19.1763 46.9963 19.2838 47.2609C19.383 47.5091 19.6064 47.7655 19.8793 47.782C19.9951 47.7903 20.0778 47.8896 20.0696 48.0054C20.0696 48.1129 19.9703 48.1956 19.8628 48.1956H19.8545Z" fill="#1A1A1A"/>
<path d="M13.1633 39.5602C13.4528 41.5453 14.3626 43.4312 15.7274 44.9035C16.4387 45.6645 17.2907 46.3427 17.7456 47.2856C18.275 48.394 18.1757 49.7422 18.763 50.8258C19.16 51.5702 19.8465 52.1161 20.3345 52.8027C20.8226 53.4892 21.0045 54.581 20.4834 55.2427C20.8887 54.5314 20.5082 53.6133 19.9789 52.9929C19.4495 52.3725 18.7547 51.868 18.3825 51.1318C17.9028 50.1889 18.0434 49.0226 17.5885 48.0714C17.1997 47.2691 16.447 46.7232 15.7936 46.1194C13.8994 44.3741 12.7083 41.8927 12.5264 39.3203" fill="white"/>
<path d="M20.4832 55.4495C20.4832 55.4495 20.4005 55.4413 20.3674 55.4165C20.2764 55.3586 20.2516 55.2345 20.3012 55.1435C20.6652 54.4983 20.2682 53.6547 19.8215 53.1253C19.6478 52.9185 19.4493 52.7283 19.2591 52.5298C18.8703 52.141 18.4567 51.7357 18.2003 51.2229C17.9439 50.71 17.8529 50.1476 17.7702 49.61C17.6875 49.0889 17.613 48.6008 17.4063 48.1625C17.1168 47.5587 16.6039 47.112 16.0663 46.6323C15.9257 46.5082 15.7933 46.3924 15.661 46.2683C13.7255 44.4817 12.5096 41.9589 12.3276 39.3286C12.3276 39.2128 12.4021 39.1136 12.5179 39.1053C12.6171 39.097 12.7329 39.1797 12.7412 39.2955C12.9149 41.8183 14.0894 44.2418 15.9422 45.954C16.0746 46.0781 16.2069 46.1939 16.3393 46.3097C16.8852 46.7894 17.4559 47.2857 17.7785 47.964C17.795 47.997 17.8116 48.0301 17.8198 48.0632C17.7537 47.8151 17.6709 47.5835 17.5634 47.3519C17.2408 46.6819 16.7115 46.1525 16.149 45.5901C15.9588 45.3998 15.7685 45.2096 15.5866 45.0193C14.197 43.5222 13.2623 41.5867 12.9645 39.5685C12.948 39.4527 13.0224 39.3534 13.1382 39.3369C13.254 39.3204 13.3533 39.3948 13.3698 39.5106C13.6511 41.4461 14.5444 43.3072 15.8843 44.7381C16.0663 44.9284 16.2483 45.1186 16.4385 45.3006C17.001 45.8548 17.58 46.4337 17.9356 47.1699C18.2003 47.7241 18.3161 48.3362 18.4236 48.9234C18.5477 49.5603 18.6552 50.1641 18.9447 50.7018C19.1681 51.1153 19.4824 51.4627 19.805 51.8267C20.0448 52.0914 20.2847 52.3643 20.4998 52.6621C21.0126 53.3982 21.2442 54.5976 20.6404 55.3503C20.599 55.3999 20.5411 55.4247 20.4749 55.4247L20.4832 55.4495ZM18.2913 50.2055C18.3492 50.5033 18.4319 50.7845 18.5643 51.0409C18.7959 51.4958 19.1598 51.8598 19.5485 52.2403C19.714 52.4057 19.8794 52.5711 20.0366 52.7448C19.8711 52.5298 19.6809 52.323 19.5072 52.1245C19.1763 51.7522 18.8289 51.3718 18.5891 50.9168C18.465 50.6852 18.3657 50.4454 18.2913 50.1972V50.2055Z" fill="#1A1A1A"/>
<path d="M5.37127 49.8498C5.3051 49.8498 5.23893 49.8168 5.20584 49.7589C5.13967 49.6679 5.16449 49.5355 5.25547 49.4694C5.66077 49.1799 5.92545 48.6174 5.95027 47.9474C5.96681 47.4677 5.8841 47.0045 5.80138 46.5082C5.77657 46.3676 5.75175 46.2187 5.72694 46.0781C5.63595 45.4991 5.56151 44.7464 5.81792 44.0681C5.85928 43.9606 5.97508 43.9027 6.08261 43.9441C6.19014 43.9854 6.23976 44.1012 6.20668 44.2088C5.99162 44.7878 6.04952 45.4412 6.14051 46.0119C6.16532 46.1525 6.19014 46.2931 6.21495 46.4338C6.29766 46.93 6.38865 47.4429 6.37211 47.964C6.33902 48.7663 6.02471 49.4363 5.50361 49.8085C5.47053 49.8333 5.42917 49.8498 5.38781 49.8498H5.37127Z" fill="#1A1A1A"/>
<path d="M13.7254 48.4685C13.6096 48.4685 13.5186 48.3775 13.5186 48.2617C13.5186 47.5835 13.4855 46.9797 13.1712 46.5247C13.0636 46.3759 12.9313 46.2435 12.7907 46.1029C12.6004 45.9127 12.4019 45.7142 12.2613 45.466C12.0876 45.1434 12.0463 44.7547 12.1372 44.399C12.1703 44.2915 12.2779 44.217 12.3937 44.2501C12.5012 44.2832 12.5674 44.3907 12.5425 44.5065C12.4764 44.7629 12.5095 45.0442 12.6335 45.2758C12.7411 45.4743 12.9065 45.6397 13.0885 45.8134C13.2373 45.9623 13.3945 46.1112 13.5186 46.3014C13.9321 46.897 13.9321 47.6579 13.9404 48.27C13.9404 48.3858 13.8494 48.4768 13.7336 48.4768L13.7254 48.4685Z" fill="#1A1A1A"/>
<path d="M20.7727 46.4585C20.7727 46.4585 20.7644 46.4585 20.7561 46.4585C20.6403 46.4503 20.5576 46.351 20.5659 46.2352C20.5659 46.1442 20.5245 46.0367 20.4418 45.9457C20.3508 45.8465 20.2267 45.772 20.0861 45.6893C19.9538 45.6149 19.8297 45.5404 19.6891 45.4825C19.4906 45.3998 19.2755 45.3502 19.0522 45.2923C18.6552 45.193 18.2499 45.0938 17.919 44.8125C17.8363 44.7381 17.8198 44.6058 17.8942 44.523C17.9687 44.4403 18.101 44.4238 18.1837 44.4982C18.4401 44.7133 18.7875 44.796 19.1515 44.887C19.3831 44.9449 19.6229 45.0028 19.8545 45.0938C20.0117 45.1599 20.1606 45.2426 20.3012 45.3254C20.4666 45.4163 20.6238 45.5156 20.7478 45.6562C20.9133 45.8299 20.996 46.0532 20.9794 46.26C20.9712 46.3676 20.8802 46.4503 20.7727 46.4503V46.4585Z" fill="#1A1A1A"/>
<path d="M5.85961 1.60006C6.30961 8.76006 3.60961 15.8601 2.26961 22.9101C1.65961 26.1001 1.28961 29.4101 2.04961 32.5701C2.80961 35.7201 4.88961 38.7201 7.94961 39.8101C9.11961 40.2301 10.3896 40.3601 11.6296 40.3901C12.7296 40.4201 13.8596 40.3701 14.8996 40.0001C17.7896 38.9601 19.2596 35.6301 19.3696 32.5601C19.4796 29.4901 18.5796 26.4801 18.2596 23.4201C17.4496 15.6201 19.8196 8.04006 18.5396 0.310059C18.5396 0.310059 13.7696 1.61006 12.1296 1.78006C8.10961 2.18006 5.85961 1.61006 5.85961 1.61006V1.60006Z" fill="white"/>
<path d="M12.1397 40.65C11.9597 40.65 11.7797 40.65 11.6097 40.65C10.0497 40.61 8.88974 40.42 7.84974 40.05C4.96974 39.01 2.64974 36.17 1.78974 32.63C0.979745 29.28 1.44974 25.82 2.00974 22.87C2.40974 20.76 2.93974 18.61 3.45974 16.53C4.66974 11.65 5.91974 6.61 5.59974 1.62L5.57974 1.28L5.90974 1.36C5.90974 1.36 8.16974 1.92 12.0997 1.53C13.6997 1.37 18.4197 0.0799997 18.4697 0.0699997L18.7397 0L18.7897 0.269999C19.4797 4.44 19.1197 8.61 18.7597 12.65C18.4497 16.16 18.1397 19.79 18.5097 23.4C18.6297 24.51 18.8197 25.64 19.0097 26.73C19.3397 28.63 19.6897 30.6 19.6097 32.57C19.5097 35.37 18.2297 39.06 14.9697 40.24C14.0297 40.58 13.0397 40.66 12.1397 40.66V40.65ZM6.11975 1.91C6.36975 6.87 5.13975 11.84 3.94975 16.65C3.43975 18.72 2.90974 20.87 2.50974 22.96C1.95974 25.86 1.49974 29.26 2.27974 32.51C3.08974 35.89 5.28974 38.6 8.01974 39.58C9.00974 39.93 10.1197 40.11 11.6197 40.15C12.5997 40.18 13.7497 40.15 14.7997 39.77C17.6297 38.75 18.9997 35.41 19.1097 32.55C19.1797 30.63 18.8397 28.69 18.5097 26.81C18.3197 25.71 18.1197 24.57 17.9997 23.44C17.6197 19.78 17.9397 16.13 18.2497 12.6C18.5897 8.68 18.9497 4.63 18.3297 0.609999C17.2897 0.889999 13.5797 1.87 12.1497 2.01C8.95974 2.33 6.88975 2.04 6.11975 1.9V1.91Z" fill="#141414"/>
<path d="M5.43978 33.8801C5.33978 33.8801 5.24978 33.8201 5.21978 33.7201C4.16978 30.6001 4.05978 27.6601 4.87978 24.4701C4.90978 24.3401 5.03978 24.2701 5.16978 24.3001C5.29978 24.3301 5.36978 24.4601 5.33978 24.5901C4.54978 27.6901 4.64978 30.5401 5.66978 33.5701C5.70978 33.6901 5.64978 33.8301 5.51978 33.8701C5.48978 33.8701 5.46978 33.8801 5.43978 33.8801Z" fill="#141414"/>
</svg>
