<svg width="44" height="13" viewBox="0 0 44 13" fill="none" xmlns="http://www.w3.org/2000/svg">
<path d="M0.589969 8.1999C-0.150031 6.3299 1.72997 4.4199 2.63997 3.9899C6.18997 2.3099 8.47997 2.2999 12.4 2.6499C14.48 2.8299 16.52 3.3099 18.61 3.3999C21.35 3.5199 24.08 2.9699 26.74 2.2799C29.14 1.6599 31.54 0.929903 34.02 0.879903C42.1 0.739903 43.4 4.6299 42.53 6.0999C40.66 9.2299 36.75 10.4099 33.16 11.0699C24.66 12.6099 15.63 12.9499 7.07997 11.6899C2.43997 11.0099 1.29997 9.9599 0.599969 8.2099L0.589969 8.1999Z" fill="white"/>
<path d="M17.9 12.71C14.18 12.71 10.53 12.45 7.04002 11.94C2.34002 11.25 1.11002 10.17 0.360023 8.29997C-0.459977 6.22997 1.58002 4.21997 2.54002 3.76997C6.13002 2.06997 8.41002 2.04997 12.43 2.39997C13.34 2.47997 14.25 2.61997 15.13 2.74997C16.27 2.91997 17.46 3.09997 18.63 3.14997C21.46 3.26997 24.29 2.65997 26.69 2.03997C27.03 1.94997 27.36 1.86997 27.7 1.77997C29.75 1.23997 31.87 0.679972 34.03 0.639972C39.9 0.549972 41.92 2.49997 42.6 3.67997C43.11 4.56997 43.17 5.54997 42.76 6.23997C40.77 9.56997 36.61 10.71 33.22 11.32C28.1 12.25 22.94 12.71 17.92 12.71H17.9ZM9.14002 2.71997C6.96002 2.71997 5.15002 3.07997 2.75002 4.21997C1.95002 4.59997 0.130023 6.36997 0.830023 8.10997C1.52002 9.83997 2.63002 10.78 7.11002 11.44C15.26 12.64 24.25 12.43 33.11 10.82C36.4 10.22 40.42 9.12997 42.32 5.96997C42.56 5.56997 42.66 4.78997 42.16 3.91997C41.65 3.04997 39.85 1.03997 34.03 1.12997C31.93 1.16997 29.84 1.71997 27.82 2.24997C27.48 2.33997 27.15 2.42997 26.81 2.50997C24.38 3.13997 21.5 3.75997 18.6 3.62997C17.4 3.57997 16.21 3.39997 15.05 3.22997C14.18 3.09997 13.27 2.95997 12.38 2.88997C11.17 2.77997 10.12 2.70997 9.15002 2.70997L9.14002 2.71997Z" fill="#141414"/>
<mask id="mask0_744_474" style="mask-type:alpha" maskUnits="userSpaceOnUse" x="0" y="0" width="43" height="13">
<path d="M0.590091 8.1999C-0.149909 6.3299 1.73009 4.4199 2.64009 3.9899C6.19009 2.3099 8.48009 2.2999 12.4001 2.6499C14.4801 2.8299 16.5201 3.3099 18.6101 3.3999C21.3501 3.5199 24.0801 2.9699 26.7401 2.2799C29.1401 1.6599 31.5401 0.929903 34.0201 0.879903C42.1001 0.739903 43.4001 4.6299 42.5301 6.0999C40.6601 9.2299 36.7501 10.4099 33.1601 11.0699C24.6601 12.6099 15.6301 12.9499 7.08009 11.6899C2.44009 11.0099 1.30009 9.9599 0.600091 8.2099L0.590091 8.1999Z" fill="#333333"/>
</mask>
<g mask="url(#mask0_744_474)">
<path d="M18.2581 18.9441C18.0585 18.9322 17.863 18.9202 17.6674 18.9042L19.176 0.210648C19.2438 0.214638 19.3117 0.222618 19.3835 0.226608L18.2621 18.9481L18.2581 18.9441ZM22.3807 18.8963L20.8482 0.206657C20.92 0.202667 20.9919 0.194687 21.0637 0.186707L22.9554 18.8444C22.7638 18.8643 22.5683 18.8803 22.3767 18.8963H22.3807ZM13.5847 18.2818C13.3932 18.2379 13.2056 18.194 13.014 18.1461L17.5118 -0.0606804C17.5796 -0.04472 17.6515 -0.0287587 17.7193 -0.0127983L13.5847 18.2778V18.2818ZM27.0421 18.1302L22.5044 -0.0646667C22.5723 -0.0806271 22.6401 -0.100579 22.704 -0.116539L27.6128 17.9825C27.4212 18.0344 27.2297 18.0823 27.0381 18.1302H27.0421ZM9.05902 16.8613C8.87544 16.7855 8.69186 16.7097 8.50828 16.6299L15.9434 -0.587372C16.0072 -0.559441 16.0711 -0.535499 16.1349 -0.507568L9.05902 16.8613ZM31.5359 16.6059L24.0609 -0.595352C24.1287 -0.623283 24.1926 -0.651211 24.2564 -0.683132L32.0667 16.3665C31.8911 16.4463 31.7115 16.5261 31.5359 16.6059ZM4.82865 14.7186C4.66502 14.6189 4.50539 14.5191 4.34575 14.4154L14.4587 -1.37741C14.5226 -1.33751 14.5864 -1.29362 14.6543 -1.25372L4.83264 14.7226L4.82865 14.7186ZM35.6824 14.3914L25.5455 -1.38539C25.5974 -1.41731 25.6493 -1.45322 25.7011 -1.48913L36.1933 14.0563C36.0256 14.172 35.854 14.2837 35.6824 14.3914ZM1.02531 11.9296C0.869661 11.7939 0.718005 11.6622 0.56635 11.5226L13.1577 -2.37892C13.2056 -2.33902 13.2495 -2.29513 13.2974 -2.25523L1.02531 11.9296ZM39.4538 11.5026L26.8505 -2.3869C26.9064 -2.43877 26.9623 -2.48666 27.0142 -2.53853L39.8729 11.1156C39.7332 11.2472 39.5935 11.3789 39.4499 11.5066L39.4538 11.5026ZM-2.28316 8.5659C-2.40688 8.41827 -2.5306 8.26665 -2.65432 8.11502L11.9804 -3.61186C12.0243 -3.556 12.0722 -3.50014 12.1161 -3.44428L-2.28716 8.5699L-2.28316 8.5659ZM42.6665 8.08709L28.0199 -3.62782C28.0598 -3.67969 28.0997 -3.73156 28.1396 -3.78344L43.0377 7.60828C42.914 7.76788 42.7903 7.92749 42.6665 8.08709ZM-3.7159 6.69854C-3.82765 6.53894 -3.93939 6.37933 -4.04715 6.21973L11.4855 -4.29816C11.5254 -4.23831 11.5653 -4.17845 11.6092 -4.1186L-3.71191 6.69854H-3.7159ZM-5.00497 4.6995C-5.10075 4.53591 -5.19254 4.37231 -5.28832 4.20872L11.0465 -5.01238C11.0824 -4.94455 11.1223 -4.87672 11.1622 -4.81288L-5.00497 4.6995ZM45.3165 4.14887L28.9418 -4.99642C28.9817 -5.06425 29.0176 -5.13209 29.0535 -5.20391L45.5879 3.65011C45.5001 3.81769 45.4083 3.98129 45.3165 4.14887ZM-6.11444 2.63263C-6.20224 2.44909 -6.29005 2.26555 -6.37385 2.082L10.6793 -5.72661C10.7073 -5.67075 10.7312 -5.6109 10.7592 -5.55504L-6.11444 2.63263ZM46.3901 2.03013L29.3169 -5.73858C29.3449 -5.80242 29.3768 -5.86626 29.4047 -5.93409L46.6295 1.48748C46.5497 1.66703 46.4699 1.84659 46.3901 2.02614V2.03013ZM-7.06428 0.446064C-7.13213 0.27449 -7.19598 0.0989268 -7.25984 -0.0766373L10.3521 -6.52862C10.38 -6.45281 10.408 -6.377 10.4359 -6.30119L-7.06428 0.446064ZM47.28 -0.14048L29.6482 -6.5366C29.6681 -6.59645 29.6921 -6.6563 29.712 -6.71615L47.4836 -0.719044C47.4197 -0.523529 47.3519 -0.332005 47.28 -0.14048ZM-7.82256 -1.78041C-7.88242 -1.97991 -7.93829 -2.18341 -7.99417 -2.38291L10.1166 -7.26679C10.1326 -7.21093 10.1485 -7.15506 10.1645 -7.0992L-7.82256 -1.78041ZM47.9984 -2.42281L29.8876 -7.30669C29.9076 -7.37851 29.9275 -7.45033 29.9435 -7.52215L48.1421 -2.98143C48.0942 -2.79389 48.0463 -2.61035 47.9984 -2.42281ZM-8.39725 -4.07072C-8.43716 -4.26624 -8.47707 -4.46175 -8.51299 -4.66125L9.92505 -8.1087C9.93702 -8.04486 9.949 -7.97702 9.96496 -7.91318L-8.39725 -4.07072ZM48.5212 -4.7211L30.0752 -8.12466C30.0872 -8.1885 30.0991 -8.25633 30.1111 -8.32017L48.625 -5.31164C48.593 -5.11214 48.5571 -4.91662 48.5212 -4.7211ZM-8.78836 -6.4169C-8.8123 -6.61241 -8.83625 -6.81192 -8.8562 -7.01142L9.80133 -8.92666C9.80931 -8.85883 9.8173 -8.791 9.82528 -8.72317L-8.78836 -6.4169ZM48.8564 -7.07526L30.1909 -8.94263C30.1989 -9.01844 30.2069 -9.09425 30.2109 -9.17006L48.9043 -7.64186C48.8884 -7.45033 48.8724 -7.2628 48.8525 -7.07526H48.8564ZM-8.98391 -8.77903C-8.9919 -8.96657 -8.99589 -9.1541 -8.99988 -9.34562L9.75344 -9.78453C9.75344 -9.70872 9.75743 -9.62892 9.76142 -9.55311L-8.98391 -8.77903ZM48.9961 -9.41346L30.2428 -9.7965C30.2428 -9.86434 30.2428 -9.93616 30.2428 -10.004V-10.0798H49.0001V-10.004C49.0001 -9.80449 49.0001 -9.60897 48.9961 -9.41346ZM9.75743 -10.411L-8.98791 -11.1212C-8.97992 -11.3207 -8.97194 -11.5162 -8.95997 -11.7157L9.76542 -10.6185C9.76142 -10.5506 9.75743 -10.4828 9.75743 -10.411ZM30.2229 -10.6783C30.2189 -10.7461 30.2149 -10.814 30.2069 -10.8818L48.8964 -12.4739C48.9123 -12.2783 48.9283 -12.0788 48.9403 -11.8793L30.2229 -10.6743V-10.6783ZM9.82129 -11.2369L-8.80033 -13.4794C-8.77639 -13.6669 -8.75244 -13.8584 -8.7285 -14.046L9.84922 -11.4684C9.83725 -11.3925 9.82927 -11.3167 9.82129 -11.2409V-11.2369ZM30.139 -11.5083C30.1271 -11.5841 30.1151 -11.6599 30.1031 -11.7317L48.609 -14.8041C48.6409 -14.6165 48.6689 -14.429 48.6968 -14.2375L30.139 -11.5043V-11.5083ZM9.95698 -12.0788L-8.42519 -15.7976C-8.38528 -15.9931 -8.34537 -16.1886 -8.30147 -16.3841L10.0009 -12.2744C9.98492 -12.2105 9.97294 -12.1427 9.95698 -12.0788ZM29.9794 -12.3382C29.9634 -12.402 29.9475 -12.4659 29.9315 -12.5297L48.1141 -17.1343C48.162 -16.9388 48.2099 -16.7433 48.2578 -16.5477L29.9794 -12.3342V-12.3382ZM10.1525 -12.8649L-7.85448 -18.1198C-7.8026 -18.3034 -7.74673 -18.4869 -7.68687 -18.6705L10.2204 -13.0843C10.1964 -13.0125 10.1765 -12.9407 10.1565 -12.8649H10.1525ZM29.7519 -13.1681C29.736 -13.22 29.716 -13.2719 29.7 -13.3277L47.4437 -19.4126C47.5115 -19.2131 47.5794 -19.0136 47.6432 -18.8101L29.7559 -13.1681H29.7519ZM10.4159 -13.6549L-7.1002 -20.3663C-7.03236 -20.5498 -6.96052 -20.7294 -6.88469 -20.9089L10.4958 -13.8584C10.4678 -13.7906 10.4399 -13.7228 10.4159 -13.6549ZM29.4845 -13.8943C29.4526 -13.9662 29.4247 -14.038 29.3927 -14.1098L46.5856 -21.6032C46.6614 -21.4316 46.7333 -21.26 46.8051 -21.0845L29.4805 -13.8943H29.4845ZM10.7432 -14.417L-6.15834 -22.5488C-6.07454 -22.7204 -5.99073 -22.892 -5.90692 -23.0636L10.843 -14.6205C10.807 -14.5527 10.7751 -14.4849 10.7432 -14.413V-14.417ZM29.1214 -14.6804C29.0934 -14.7362 29.0655 -14.7881 29.0376 -14.844L45.548 -23.7419C45.6438 -23.5623 45.7395 -23.3788 45.8313 -23.1992L29.1214 -14.6804ZM11.1423 -15.1672L-5.05286 -24.6277C-4.9491 -24.8032 -4.84533 -24.9788 -4.73758 -25.1544L11.2381 -15.3268C11.2061 -15.2749 11.1742 -15.219 11.1423 -15.1672ZM28.7183 -15.3906C28.6824 -15.4465 28.6464 -15.5063 28.6105 -15.5622L44.3427 -25.7728C44.4505 -25.6053 44.5582 -25.4377 44.662 -25.2701L28.7183 -15.3946V-15.3906ZM11.5893 -15.8654L-3.77178 -26.6307C-3.66003 -26.7903 -3.54829 -26.9499 -3.43255 -27.1055L11.713 -16.041C11.6691 -15.9812 11.6292 -15.9253 11.5853 -15.8654H11.5893ZM28.2474 -16.0849C28.2074 -16.1368 28.1715 -16.1886 28.1316 -16.2405L42.9738 -27.708C43.0976 -27.5484 43.2173 -27.3888 43.337 -27.2252L28.2474 -16.0889V-16.0849ZM12.0921 -16.5278L-2.33106 -28.514C-2.20734 -28.6657 -2.07963 -28.8133 -1.95192 -28.9609L12.2358 -16.6914C12.1879 -16.6355 12.144 -16.5837 12.0961 -16.5278H12.0921ZM27.7086 -16.7552C27.6687 -16.8031 27.6248 -16.847 27.5849 -16.8949L41.4653 -29.5116C41.601 -29.3599 41.7406 -29.2083 41.8723 -29.0527L27.7086 -16.7592V-16.7552ZM12.6628 -17.1622L-0.762625 -30.2577C-0.630924 -30.3934 -0.495233 -30.529 -0.359542 -30.6647L12.8225 -17.3218C12.7706 -17.2699 12.7147 -17.2141 12.6628 -17.1622ZM27.1499 -17.3418C27.098 -17.3936 27.0461 -17.4415 26.9942 -17.4894L39.813 -31.1794C39.9567 -31.0477 40.0964 -30.9121 40.2361 -30.7764L27.1499 -17.3378V-17.3418ZM13.2694 -17.7328L0.95746 -31.8817C1.10512 -32.0094 1.25279 -32.137 1.40045 -32.2607L13.4371 -17.8764C13.3812 -17.8286 13.3253 -17.7847 13.2694 -17.7368V-17.7328ZM26.5193 -17.9084C26.4634 -17.9523 26.4075 -18.0001 26.3517 -18.044L38.0211 -32.7236C38.1728 -32.6039 38.3244 -32.4802 38.4761 -32.3525L26.5153 -17.9044L26.5193 -17.9084ZM13.9319 -18.2635L2.78929 -33.354C2.94494 -33.4697 3.10457 -33.5854 3.26421 -33.6972L14.1035 -18.3912C14.0437 -18.3513 13.9878 -18.3074 13.9319 -18.2675V-18.2635ZM25.8528 -18.4151C25.7969 -18.455 25.7411 -18.4909 25.6852 -18.5308L36.1095 -34.1201C36.2771 -34.0084 36.4407 -33.8967 36.6043 -33.781L25.8568 -18.4111L25.8528 -18.4151ZM14.6224 -18.7303L4.74883 -34.6787C4.91645 -34.7825 5.08806 -34.8862 5.26366 -34.99L14.794 -18.8381C14.7381 -18.8061 14.6782 -18.7702 14.6224 -18.7343V-18.7303ZM25.1424 -18.87C25.0826 -18.9019 25.0267 -18.9378 24.9668 -18.9697L34.0901 -35.357C34.2657 -35.2613 34.4373 -35.1615 34.6089 -35.0618L25.1424 -18.874V-18.87ZM15.3367 -19.1333L6.81613 -35.8438C6.98375 -35.9316 7.15535 -36.0154 7.32696 -36.0992L15.5403 -19.2371C15.4724 -19.2051 15.4046 -19.1692 15.3367 -19.1373V-19.1333ZM24.4081 -19.257C24.3442 -19.2849 24.2844 -19.3169 24.2205 -19.3448L31.9709 -36.4224C32.1505 -36.3386 32.3341 -36.2548 32.5097 -36.171L24.4081 -19.257ZM16.095 -19.4845L8.95925 -36.8294C9.14283 -36.9052 9.32641 -36.977 9.51 -37.0488L16.2866 -19.5643C16.2227 -19.5403 16.1589 -19.5124 16.095 -19.4884V-19.4845ZM23.6458 -19.5842C23.582 -19.6081 23.5141 -19.6321 23.4503 -19.656L29.7719 -37.3122C29.9595 -37.2444 30.143 -37.1765 30.3266 -37.1047L23.6458 -19.5802V-19.5842ZM16.8812 -19.7717L11.1822 -37.6394C11.3698 -37.6992 11.5573 -37.7551 11.7409 -37.811L17.0848 -19.8356C17.0169 -19.8156 16.9491 -19.7957 16.8812 -19.7717ZM22.8596 -19.8476C22.7918 -19.8675 22.7279 -19.8835 22.6601 -19.9034L27.505 -38.0224C27.6966 -37.9706 27.8882 -37.9187 28.0757 -37.8628L22.8556 -19.8515L22.8596 -19.8476ZM17.6754 -19.9872L13.477 -38.2658C13.6685 -38.3097 13.8601 -38.3536 14.0557 -38.3935L17.8829 -20.0351C17.8151 -20.0191 17.7472 -20.0072 17.6794 -19.9912L17.6754 -19.9872ZM22.0495 -20.0471C21.9816 -20.059 21.9178 -20.071 21.8499 -20.087L25.1903 -38.5371C25.3859 -38.5012 25.5814 -38.4653 25.777 -38.4254L22.0455 -20.0471H22.0495ZM18.4936 -20.1428L15.8037 -38.7007C15.9952 -38.7287 16.1908 -38.7566 16.3824 -38.7805L18.7091 -20.1707C18.6372 -20.1628 18.5654 -20.1508 18.4936 -20.1428ZM21.2393 -20.1787C21.1675 -20.1867 21.0916 -20.1947 21.0198 -20.2027L22.8556 -38.8643C23.0472 -38.8444 23.2387 -38.8244 23.4343 -38.8005L21.2433 -20.1747L21.2393 -20.1787ZM19.3316 -20.2306L18.1503 -38.9441C18.3419 -38.9561 18.5375 -38.9681 18.729 -38.9761L19.5472 -20.2386C19.4753 -20.2386 19.3995 -20.2306 19.3277 -20.2266L19.3316 -20.2306ZM20.3972 -20.2426C20.3254 -20.2426 20.2496 -20.2466 20.1777 -20.2505L20.505 -39C20.7005 -39 20.8921 -38.992 21.0837 -38.984L20.3972 -20.2426Z" fill="#141414"/>
</g>
</svg>
