<svg width="257" height="243" viewBox="0 0 257 243" fill="none" xmlns="http://www.w3.org/2000/svg">
<g filter="url(#filter0_d_752_567)">
<rect x="174" y="156" width="79" height="79" rx="39.5" fill="#D61B0E" shape-rendering="crispEdges"/>
<path d="M217.148 180.42L216.348 199.58H210.548L209.748 180.42H217.148ZM213.548 209.82C212.348 209.82 211.361 209.473 210.588 208.78C209.841 208.06 209.468 207.18 209.468 206.14C209.468 205.073 209.841 204.18 210.588 203.46C211.361 202.74 212.348 202.38 213.548 202.38C214.721 202.38 215.681 202.74 216.428 203.46C217.201 204.18 217.588 205.073 217.588 206.14C217.588 207.18 217.201 208.06 216.428 208.78C215.681 209.473 214.721 209.82 213.548 209.82Z" fill="white"/>
</g>
<path d="M211.283 75.0518C209.153 44.8413 174.224 -7.85492 91.7663 2.36489C29.7584 10.048 -2.27893 54.654 1.33297 84.8123C1.94888 89.9274 5.33112 97.5375 8.62985 101.379C17.0124 111.15 30.4683 113.906 42.9847 115.221C85.7743 119.71 123.261 120.263 171.385 108.217C179.726 106.129 188.588 103.926 195.875 99.1869C203.161 94.4475 211.93 84.2277 211.283 75.0518Z" fill="white"/>
<path d="M211.283 75.0518C209.153 44.8413 174.224 -7.85492 91.7663 2.36489C29.7584 10.048 -2.27893 54.654 1.33297 84.8123C1.94888 89.9274 5.33112 97.5375 8.62985 101.379C17.0124 111.15 30.4683 113.906 42.9847 115.221C85.7743 119.71 123.261 120.263 171.385 108.217C179.726 106.129 188.588 103.926 195.875 99.1869C203.161 94.4475 211.93 84.2277 211.283 75.0518Z" fill="#D61B0E"/>
<circle cx="49.9099" cy="37.1669" r="6.01751" fill="white" stroke="black" stroke-width="2"/>
<circle cx="78.2277" cy="20.1763" r="6.01751" fill="white" stroke="black" stroke-width="2"/>
<circle cx="96.6341" cy="52.0337" r="6.01751" fill="white" stroke="black" stroke-width="2"/>
<circle cx="118.58" cy="16.6367" r="6.01751" fill="white" stroke="black" stroke-width="2"/>
<circle cx="180.879" cy="45.6623" r="6.01751" fill="white" stroke="black" stroke-width="2"/>
<circle cx="199.994" cy="66.9006" r="6.01751" fill="white" stroke="black" stroke-width="2"/>
<circle cx="155.393" cy="101.59" r="6.01751" fill="white" stroke="black" stroke-width="2"/>
<circle cx="161.765" cy="18.0525" r="6.01751" fill="white" stroke="black" stroke-width="2"/>
<circle cx="13.8049" cy="93.8024" r="6.01751" fill="white" stroke="black" stroke-width="2"/>
<circle cx="10.2652" cy="61.945" r="6.01751" fill="white" stroke="black" stroke-width="2"/>
<path d="M92.1629 119.199C75.8258 119.199 59.6975 118.05 42.8698 116.286C30.4473 114.981 16.5634 112.278 7.81552 102.079C4.3602 98.0492 0.904887 90.2094 0.268106 84.9482C-3.21853 55.8233 27.3052 9.27568 91.6409 1.30027C138.084 -4.45163 166.854 9.9751 182.794 23.097C203.067 39.7785 211.356 60.834 212.347 74.9685C212.995 84.1444 204.643 94.7504 196.449 100.074C189.058 104.887 180.268 107.089 171.771 109.208C142.646 116.495 117.164 119.188 92.1524 119.188L92.1629 119.199ZM112.028 2.13539C105.734 2.13539 99.0317 2.53207 91.8914 3.41939C28.9337 11.2382 -0.984577 56.4288 2.39767 84.6872C2.98225 89.51 6.27055 96.9844 9.44401 100.68C17.7117 110.305 31.0946 112.893 43.0994 114.157C86.6615 118.729 123.271 119.157 171.124 107.173C179.59 105.054 188.202 102.893 195.29 98.2788C201.867 93.9988 210.844 83.9878 210.218 75.1146C209.257 61.4186 201.188 40.9999 181.437 24.7463C168.253 13.9002 146.091 2.13539 112.039 2.13539H112.028Z" fill="black"/>
<path d="M11.9075 88.8522C8.55658 80.4071 17.0644 71.7636 21.1774 69.8115C37.2326 62.2118 47.5881 62.191 65.2927 63.7464C74.6774 64.5711 83.9368 66.7111 93.3632 67.1182C105.765 67.6506 118.104 65.1661 130.129 62.0761C140.976 59.2889 151.843 55.9589 163.033 55.7605C199.549 55.1133 205.457 72.7344 201.501 79.3423C193.025 93.508 175.351 98.8424 159.119 101.797C120.693 108.77 79.8447 110.294 41.2099 104.605C20.217 101.515 15.0705 96.8068 11.9075 88.8522Z" fill="white"/>
<path d="M90.1585 109.146C73.3308 109.146 56.8476 107.987 41.0638 105.67C19.8621 102.548 14.2772 97.6941 10.9263 89.2489C7.23088 79.9269 16.4485 70.8762 20.7285 68.8511C36.9195 61.1888 47.2437 61.0949 65.3971 62.6816C69.4892 63.0365 73.6126 63.6524 77.5899 64.2474C82.7677 65.0199 88.1229 65.8237 93.405 66.043C106.214 66.6275 119.022 63.8194 129.858 61.0322C131.382 60.646 132.896 60.2389 134.42 59.8422C143.679 57.3994 153.262 54.8628 163.023 54.6853C189.538 54.2364 198.63 63.0678 201.71 68.3917C204.466 73.1519 203.892 77.4528 202.43 79.8955C193.421 94.9486 174.662 100.064 159.317 102.851C136.195 107.047 112.863 109.146 90.1585 109.146ZM12.9097 88.4555C15.9579 96.1387 21.1983 100.575 41.3665 103.54C78.2371 108.968 118.887 107.997 158.931 100.732C173.827 98.0281 192.023 93.0905 200.593 78.789C201.689 76.9622 202.148 73.4233 199.852 69.4565C197.566 65.5001 189.402 56.2929 163.054 56.8253C153.555 56.9923 144.107 59.4872 134.963 61.9091C133.439 62.3162 131.915 62.7129 130.391 63.1096C119.398 65.9386 106.423 68.7362 93.3111 68.1934C87.9141 67.9637 82.4963 67.1495 77.2663 66.3666C73.3099 65.782 69.2283 65.1661 65.1988 64.8112C47.4524 63.2557 37.3579 63.3392 21.6367 70.7823C17.9831 72.5151 9.76757 80.5636 12.9097 88.4555Z" fill="black"/>
<path d="M80.6069 65.8656C82.6634 98.2579 70.4289 130.347 64.3638 162.228C61.6183 176.634 59.9168 191.625 63.3616 205.884C66.7961 220.144 76.2121 233.673 90.0229 238.632C95.3364 240.542 101.036 241.126 106.673 241.273C111.663 241.408 116.757 241.189 121.455 239.498C134.524 234.78 141.164 219.737 141.686 205.853C142.197 191.959 138.115 178.346 136.685 164.525C133.042 129.251 143.742 95.001 137.948 60.0198C137.948 60.0198 116.381 65.9178 108.98 66.6486C90.785 68.4545 80.6173 65.8656 80.6173 65.8656H80.6069Z" fill="white"/>
<path d="M109.043 242.39C108.229 242.39 107.425 242.379 106.642 242.358C99.5746 242.17 94.3446 241.335 89.6575 239.655C76.6505 234.978 66.1697 222.138 62.3177 206.145C58.6745 191.019 60.7727 175.361 63.3094 162.03C65.1258 152.489 67.5268 142.77 69.8547 133.375C75.3143 111.307 80.9618 88.4974 79.5317 65.9387C79.5108 65.5942 79.6569 65.2706 79.9179 65.0514C80.1789 64.8322 80.5338 64.7487 80.8679 64.8426C80.9722 64.8635 91.1085 67.3584 108.865 65.6047C116.089 64.8844 137.437 59.0698 137.656 59.0072C137.948 58.9237 138.262 58.9759 138.512 59.1429C138.763 59.3099 138.94 59.5709 138.992 59.8632C142.114 78.6848 140.464 97.569 138.867 115.837C137.479 131.705 136.049 148.104 137.74 164.431C138.262 169.473 139.149 174.578 140.015 179.526C141.519 188.117 143.074 197.011 142.74 205.916C142.27 218.568 136.508 235.228 121.81 240.531C117.561 242.066 113.093 242.4 109.043 242.4V242.39ZM81.7552 67.2018C82.893 89.6249 77.329 112.121 71.9425 133.886C69.625 143.261 67.224 152.948 65.4181 162.437C62.9232 175.538 60.8562 190.915 64.4055 205.644C68.0905 220.948 78.0493 233.203 90.3778 237.64C94.8353 239.247 99.8773 240.041 106.694 240.218C111.131 240.344 116.308 240.218 121.079 238.506C133.898 233.882 140.12 218.756 140.6 205.822C140.924 197.147 139.389 188.368 137.907 179.881C137.04 174.901 136.132 169.755 135.61 164.64C133.898 148.104 135.339 131.6 136.738 115.639C138.282 97.8821 139.89 79.5408 137.072 61.3664C132.458 62.6087 115.578 67.0766 109.085 67.7133C94.5534 69.1539 85.1583 67.8386 81.7656 67.2018H81.7552Z" fill="black"/>
<path d="M79.3749 151.184C79.2809 151.184 79.187 151.173 79.093 151.142C78.5189 150.985 78.1848 150.401 78.3414 149.827C82.8093 133.594 86.1916 116.902 88.3838 100.231C88.4568 99.6464 88.9997 99.2392 89.5843 99.3123C90.1688 99.3854 90.5864 99.9282 90.5029 100.513C88.3003 117.288 84.8971 134.064 80.3979 150.401C80.2622 150.871 79.8342 151.184 79.3644 151.184H79.3749Z" fill="black"/>
<path d="M78.7175 211.803C78.2686 211.803 77.8511 211.521 77.7049 211.073C72.9552 196.969 72.4541 183.681 76.1495 169.275C76.2957 168.701 76.8802 168.356 77.4544 168.502C78.0285 168.648 78.373 169.233 78.2269 169.807C74.6358 183.806 75.116 196.698 79.7405 210.394C79.9284 210.958 79.6257 211.563 79.0724 211.751C78.9576 211.793 78.8428 211.803 78.728 211.803H78.7175Z" fill="black"/>
<path d="M11.9076 89.9172C11.7197 89.9172 11.5318 89.865 11.3647 89.7711C10.8532 89.4683 10.6862 88.8107 10.9889 88.3096C14.8514 81.7643 24.2047 67.9431 24.2987 67.8074C24.6327 67.3167 25.3008 67.1915 25.781 67.5255C26.2717 67.8595 26.3969 68.5276 26.0629 69.0078C25.9689 69.1435 16.6573 82.9022 12.8262 89.3953C12.6279 89.7293 12.2729 89.9172 11.9076 89.9172Z" fill="black"/>
<path d="M21.1774 98.7903C21 98.7903 20.833 98.7485 20.6659 98.665C20.144 98.3831 19.9561 97.7359 20.2275 97.214C26.3239 85.9085 31.9818 75.6574 39.4562 64.6338C39.7902 64.1431 40.4583 64.0179 40.9385 64.3519C41.4291 64.686 41.5544 65.3541 41.2204 65.8343C33.7878 76.7952 28.3908 86.587 22.1065 98.237C21.9082 98.5919 21.5428 98.8007 21.167 98.8007L21.1774 98.7903Z" fill="black"/>
<path d="M34.0488 103.989C33.8818 103.989 33.7043 103.947 33.5373 103.864C33.0154 103.582 32.8275 102.935 33.0989 102.413C40.3436 88.9672 48.3294 75.6888 56.8268 62.974C57.1608 62.4834 57.8185 62.3477 58.3091 62.6817C58.7998 63.0053 58.9355 63.6734 58.6014 64.1641C50.1354 76.8266 42.1913 90.0424 34.9779 103.425C34.7796 103.78 34.4142 103.989 34.0384 103.989H34.0488Z" fill="black"/>
<path d="M47.8073 106.745C47.6089 106.745 47.421 106.693 47.2436 106.578C46.7425 106.265 46.5859 105.607 46.8991 105.106C47.0661 104.835 64.2279 77.3904 72.6417 64.7801C72.9653 64.2895 73.6439 64.1642 74.1241 64.4878C74.6147 64.8114 74.7504 65.4795 74.4164 65.9702C66.0234 78.5492 48.8825 105.973 48.705 106.244C48.5067 106.568 48.1518 106.745 47.7968 106.745H47.8073Z" fill="black"/>
<path d="M64.7396 107.851C64.5204 107.851 64.3012 107.789 64.1028 107.642C63.6331 107.288 63.5287 106.619 63.8732 106.15C69.2806 98.811 74.3644 91.0966 78.9784 83.2151C79.2707 82.7036 79.9284 82.5366 80.4399 82.8289C80.9514 83.1316 81.1184 83.7893 80.8261 84.2903C76.1808 92.2344 71.0552 100.012 65.5956 107.413C65.3868 107.695 65.0632 107.851 64.7396 107.851Z" fill="black"/>
<path d="M196.657 86.2532C196.25 86.2532 195.854 86.0131 195.676 85.6164L184.245 59.8529C184.005 59.3101 184.245 58.6837 184.788 58.4436C185.331 58.2035 185.957 58.4436 186.198 58.9864L197.628 84.75C197.868 85.2928 197.628 85.9191 197.085 86.1592C196.939 86.2219 196.793 86.2532 196.647 86.2532H196.657Z" fill="black"/>
<path d="M186.177 94.3746C185.749 94.3746 185.342 94.1136 185.175 93.6856C180.341 81.0544 175.362 68.8929 169.923 56.5018C169.683 55.959 169.923 55.3326 170.476 55.0925C171.019 54.8629 171.656 55.0925 171.886 55.6458C177.335 68.0682 182.335 80.261 187.179 92.9236C187.388 93.4768 187.116 94.0927 186.563 94.3015C186.438 94.3537 186.312 94.3746 186.177 94.3746Z" fill="black"/>
<path d="M172.951 99.5731C172.523 99.5731 172.126 99.3122 171.959 98.8946L155.33 56.7627C155.11 56.2094 155.382 55.5935 155.935 55.3743C156.488 55.1551 157.104 55.4265 157.323 55.9798L173.953 98.1117C174.172 98.6649 173.901 99.2809 173.347 99.5001C173.222 99.5523 173.086 99.5731 172.951 99.5731Z" fill="black"/>
<path d="M157.855 102.663C157.438 102.663 157.041 102.413 156.864 102.006L139.284 59.8321C139.055 59.2893 139.316 58.6629 139.859 58.4333C140.401 58.2141 141.028 58.4646 141.257 59.0074L158.837 101.181C159.066 101.724 158.805 102.35 158.263 102.58C158.127 102.632 157.991 102.663 157.855 102.663Z" fill="black"/>
<path d="M152.924 29.9334C153.079 29.9989 153.249 30.0355 153.428 30.0355C154.141 30.0355 154.719 29.4572 154.719 28.745V22.2905C154.719 21.5773 154.141 21 153.428 21C152.715 21 152.138 21.5783 152.138 22.2905V28.744C152.138 29.278 152.462 29.7367 152.924 29.9324V29.9334Z" fill="white"/>
<path d="M159.77 32.7688C160.24 32.9683 160.804 32.8768 161.188 32.4932L165.751 27.9297C166.255 27.4256 166.255 26.6083 165.751 26.1042C165.247 25.5992 164.43 25.6002 163.926 26.1042L159.362 30.6678C158.858 31.1718 158.858 31.9891 159.362 32.4932C159.483 32.6137 159.621 32.7062 159.77 32.7688Z" fill="white"/>
<path d="M161.82 38.4282C161.82 38.9621 162.145 39.4209 162.606 39.6166C162.762 39.6821 162.931 39.7187 163.11 39.7187H169.564C170.277 39.7187 170.854 39.1404 170.854 38.4282C170.854 37.715 170.276 37.1377 169.564 37.1377H163.11C162.397 37.1377 161.82 37.716 161.82 38.4282Z" fill="white"/>
<path d="M145.668 32.4932C145.788 32.6146 145.927 32.7062 146.075 32.7688C146.546 32.9683 147.11 32.8768 147.493 32.4932C147.997 31.9891 147.997 31.1718 147.493 30.6678L142.93 26.1042C142.426 25.5992 141.608 25.6002 141.104 26.1042C140.6 26.6083 140.6 27.4256 141.104 27.9297L145.668 32.4932Z" fill="white"/>
<path d="M145.036 38.4272C145.036 37.714 144.457 37.1367 143.745 37.1367H137.291C136.577 37.1367 136 37.715 136 38.4272C136 38.9612 136.325 39.4199 136.786 39.6156C136.942 39.6811 137.111 39.7177 137.291 39.7177H143.744C144.457 39.7177 145.035 39.1395 145.035 38.4272H145.036Z" fill="white"/>
<path d="M178.919 71.6799C178.919 75.1592 177.659 78.3483 175.574 80.8205C177.033 81.1212 178.133 82.4146 178.133 83.9614V87.7935C178.133 89.562 176.695 91 174.926 91H150.018C148.25 91 146.811 89.562 146.811 87.7935V83.9614C146.811 82.4175 147.909 81.125 149.364 80.8224C148.882 80.2518 148.443 79.6408 148.053 78.9921L138.898 63.7546C137.524 61.4676 138.266 58.4875 140.552 57.1122C141.299 56.6602 142.161 56.4202 143.04 56.4202C144.736 56.4202 146.329 57.3213 147.197 58.7709L148.587 61.0849V39.8421C148.587 37.2475 150.565 35.079 153.088 34.9065C154.492 34.8072 155.862 35.3229 156.851 36.3117C157.764 37.2254 158.267 38.4417 158.267 39.7351V49.1687C158.942 48.8111 159.711 48.6087 160.527 48.6087C161.82 48.6087 163.035 49.1118 163.949 50.0255C164.45 50.5257 164.827 51.1174 165.066 51.7613C165.809 51.2977 166.686 51.0288 167.626 51.0288C168.919 51.0288 170.135 51.5319 171.048 52.4455C171.519 52.9159 171.881 53.4672 172.121 54.0676C172.791 53.6744 173.57 53.4488 174.401 53.4488C175.608 53.4488 176.741 53.9182 177.595 54.7721C178.449 55.626 178.919 56.7604 178.919 57.9661V71.6799Z" fill="white"/>
<path d="M152.924 29.9334C153.079 29.9989 153.249 30.0355 153.428 30.0355C154.141 30.0355 154.719 29.4572 154.719 28.745V22.2905C154.719 21.5773 154.141 21 153.428 21C152.715 21 152.138 21.5783 152.138 22.2905V28.744C152.138 29.278 152.462 29.7367 152.924 29.9324V29.9334Z" fill="black"/>
<path d="M159.77 32.7688C160.24 32.9683 160.804 32.8768 161.188 32.4932L165.751 27.9297C166.255 27.4256 166.255 26.6083 165.751 26.1042C165.247 25.5992 164.43 25.6002 163.926 26.1042L159.362 30.6678C158.858 31.1718 158.858 31.9891 159.362 32.4932C159.483 32.6137 159.621 32.7062 159.77 32.7688Z" fill="black"/>
<path d="M161.82 38.4272C161.82 38.9612 162.145 39.4199 162.606 39.6156C162.762 39.6811 162.931 39.7177 163.11 39.7177H169.564C170.277 39.7177 170.854 39.1395 170.854 38.4272C170.854 37.714 170.276 37.1367 169.564 37.1367H163.11C162.397 37.1367 161.82 37.715 161.82 38.4272Z" fill="black"/>
<path d="M145.668 32.4932C145.788 32.6146 145.927 32.7062 146.075 32.7688C146.546 32.9683 147.11 32.8768 147.493 32.4932C147.997 31.9891 147.997 31.1718 147.493 30.6678L142.93 26.1042C142.426 25.5992 141.608 25.6002 141.104 26.1042C140.6 26.6083 140.6 27.4256 141.104 27.9297L145.668 32.4932Z" fill="black"/>
<path d="M145.036 38.4272C145.036 37.714 144.457 37.1367 143.745 37.1367H137.291C136.577 37.1367 136 37.715 136 38.4272C136 38.9612 136.325 39.4199 136.786 39.6156C136.942 39.6811 137.111 39.7177 137.291 39.7177H143.744C144.457 39.7177 145.035 39.1395 145.035 38.4272H145.036Z" fill="black"/>
<path d="M178.919 57.9651C178.919 56.7594 178.449 55.6251 177.596 54.7711C176.742 53.9182 175.608 53.4479 174.402 53.4479C173.571 53.4479 172.792 53.6734 172.122 54.0666C171.882 53.4662 171.519 52.9149 171.049 52.4446C170.135 51.5309 168.919 51.0278 167.626 51.0278C166.687 51.0278 165.81 51.2967 165.067 51.7612C164.828 51.1165 164.45 50.5257 163.95 50.0245C163.036 49.1108 161.82 48.6077 160.527 48.6077C159.712 48.6077 158.943 48.8101 158.268 49.1677V39.7341C158.268 38.4407 157.765 37.2244 156.852 36.3107C155.863 35.3219 154.493 34.8063 153.089 34.9055C150.565 35.079 148.588 37.2466 148.588 39.8411V61.084L147.197 58.7699C146.329 57.3204 144.737 56.4192 143.04 56.4192C142.161 56.4192 141.299 56.6582 140.552 57.1112C138.266 58.4866 137.524 61.4666 138.898 63.7546L148.054 78.9921C148.443 79.6408 148.883 80.2518 149.365 80.8214C147.91 81.124 146.812 82.4165 146.812 83.9605V87.7925C146.812 89.561 148.251 90.999 150.018 90.999H174.926C176.695 90.999 178.133 89.5601 178.133 87.7925V83.9605C178.133 82.4145 177.032 81.1202 175.574 80.8195C177.659 78.3474 178.919 75.1582 178.919 71.6789V57.9651ZM175.552 87.7935C175.552 88.1385 175.272 88.419 174.926 88.419H150.018C149.673 88.419 149.393 88.1385 149.393 87.7935V83.9614C149.393 83.6164 149.673 83.3359 150.018 83.3359H174.926C175.272 83.3359 175.552 83.6164 175.552 83.9614V87.7935ZM176.337 71.6789C176.337 75.349 174.625 78.623 171.959 80.7539H152.99C151.918 79.9019 150.988 78.862 150.266 77.6621L141.11 62.4256C140.468 61.3577 140.815 59.966 141.885 59.3222C142.232 59.113 142.631 59.0012 143.04 59.0012C143.845 59.0012 144.572 59.4108 144.983 60.098L148.772 66.4031C149.071 66.9004 149.665 67.1375 150.224 66.9824C150.783 66.8272 151.169 66.3183 151.169 65.7391V39.8421C151.169 38.5988 152.09 37.5617 153.265 37.4808C153.934 37.4384 154.558 37.6687 155.026 38.1361C155.452 38.5621 155.687 39.1298 155.687 39.7341V60.5471C155.687 61.2603 156.266 61.8376 156.978 61.8376C157.69 61.8376 158.268 61.2594 158.268 60.5471V53.4479C158.268 52.2027 159.281 51.1887 160.527 51.1887C161.132 51.1887 161.698 51.4239 162.125 51.8499C162.551 52.2759 162.787 52.8436 162.787 53.4479V62.1605C162.787 62.8737 163.364 63.451 164.077 63.451C164.79 63.451 165.368 62.8728 165.368 62.1605V55.8679C165.368 54.6227 166.382 53.6088 167.627 53.6088C168.231 53.6088 168.798 53.844 169.225 54.27C169.651 54.696 169.886 55.2636 169.886 55.8679V63.7739C169.886 64.4871 170.464 65.0644 171.176 65.0644C171.889 65.0644 172.467 64.4861 172.467 63.7739V57.9661C172.467 56.8982 173.335 56.0299 174.403 56.0299C174.92 56.0299 175.405 56.2313 175.772 56.5975C176.138 56.9638 176.339 57.4495 176.339 57.9661V71.6799L176.337 71.6789Z" fill="black"/>
<defs>
<filter id="filter0_d_752_567" x="170" y="156" width="87" height="87" filterUnits="userSpaceOnUse" color-interpolation-filters="sRGB">
<feFlood flood-opacity="0" result="BackgroundImageFix"/>
<feColorMatrix in="SourceAlpha" type="matrix" values="0 0 0 0 0 0 0 0 0 0 0 0 0 0 0 0 0 0 127 0" result="hardAlpha"/>
<feOffset dy="4"/>
<feGaussianBlur stdDeviation="2"/>
<feComposite in2="hardAlpha" operator="out"/>
<feColorMatrix type="matrix" values="0 0 0 0 0 0 0 0 0 0 0 0 0 0 0 0 0 0 0.25 0"/>
<feBlend mode="normal" in2="BackgroundImageFix" result="effect1_dropShadow_752_567"/>
<feBlend mode="normal" in="SourceGraphic" in2="effect1_dropShadow_752_567" result="shape"/>
</filter>
</defs>
</svg>
