<svg width="338" height="243" viewBox="0 0 338 243" fill="none" xmlns="http://www.w3.org/2000/svg">
<g opacity="0.5">
<path d="M274.283 75.0518C272.153 44.8413 237.224 -7.85492 154.766 2.36489C92.7584 10.048 60.721 54.654 64.3329 84.8123C64.9488 89.9274 68.3311 97.5375 71.6298 101.379C80.0124 111.15 93.4683 113.906 105.985 115.221C148.774 119.71 186.261 120.263 234.385 108.217C242.725 106.129 251.588 103.926 258.875 99.1869C266.161 94.4475 274.93 84.2277 274.283 75.0518Z" fill="white"/>
<path d="M274.283 75.0518C272.153 44.8413 237.224 -7.85492 154.766 2.36489C92.7584 10.048 60.721 54.654 64.3329 84.8123C64.9488 89.9274 68.3311 97.5375 71.6298 101.379C80.0124 111.15 93.4683 113.906 105.985 115.221C148.774 119.71 186.261 120.263 234.385 108.217C242.725 106.129 251.588 103.926 258.875 99.1869C266.161 94.4475 274.93 84.2277 274.283 75.0518Z" fill="#D61B0E"/>
<circle cx="112.91" cy="37.1669" r="6.01751" fill="white" stroke="black" stroke-width="2"/>
<circle cx="141.228" cy="20.1764" r="6.01751" fill="white" stroke="black" stroke-width="2"/>
<circle cx="159.634" cy="52.0339" r="6.01751" fill="white" stroke="black" stroke-width="2"/>
<circle cx="181.58" cy="16.6367" r="6.01751" fill="white" stroke="black" stroke-width="2"/>
<circle cx="243.879" cy="45.6623" r="6.01751" fill="white" stroke="black" stroke-width="2"/>
<circle cx="262.994" cy="66.9006" r="6.01751" fill="white" stroke="black" stroke-width="2"/>
<circle cx="218.393" cy="101.59" r="6.01751" fill="white" stroke="black" stroke-width="2"/>
<circle cx="224.765" cy="18.0524" r="6.01751" fill="white" stroke="black" stroke-width="2"/>
<circle cx="76.8049" cy="93.8024" r="6.01751" fill="white" stroke="black" stroke-width="2"/>
<circle cx="73.2652" cy="61.945" r="6.01751" fill="white" stroke="black" stroke-width="2"/>
<path d="M155.163 119.199C138.826 119.199 122.697 118.05 105.87 116.286C93.4473 114.981 79.5634 112.278 70.8155 102.079C67.3602 98.0492 63.9049 90.2094 63.2681 84.9482C59.7815 55.8233 90.3052 9.27568 154.641 1.30027C201.084 -4.45163 229.854 9.9751 245.794 23.097C266.067 39.7785 274.356 60.834 275.347 74.9685C275.995 84.1444 267.643 94.7504 259.449 100.074C252.058 104.887 243.268 107.089 234.771 109.208C205.646 116.495 180.164 119.188 155.152 119.188L155.163 119.199ZM175.028 2.13539C168.734 2.13539 162.032 2.53207 154.891 3.41939C91.9337 11.2382 62.0154 56.4288 65.3977 84.6872C65.9823 89.51 69.2705 96.9844 72.444 100.68C80.7117 110.305 94.0946 112.893 106.099 114.157C149.661 118.729 186.271 119.157 234.124 107.173C242.59 105.054 251.202 102.893 258.29 98.2788C264.867 93.9988 273.844 83.9878 273.218 75.1146C272.257 61.4186 264.188 40.9999 244.437 24.7463C231.253 13.9002 209.091 2.13539 175.039 2.13539H175.028Z" fill="black"/>
<path d="M74.9075 88.8522C71.5566 80.4071 80.0644 71.7636 84.1774 69.8115C100.233 62.2118 110.588 62.191 128.293 63.7464C137.677 64.5711 146.937 66.7111 156.363 67.1182C168.765 67.6506 181.104 65.1661 193.129 62.0761C203.976 59.2889 214.843 55.9589 226.033 55.7605C262.549 55.1133 268.458 72.7344 264.501 79.3423C256.025 93.508 238.351 98.8424 222.119 101.797C183.693 108.77 142.845 110.294 104.21 104.605C83.217 101.515 78.0705 96.8068 74.9075 88.8522Z" fill="white"/>
<path d="M153.158 109.146C136.331 109.146 119.848 107.987 104.064 105.67C82.8621 102.548 77.2772 97.6942 73.9263 89.249C70.2309 79.927 79.4485 70.8763 83.7285 68.8512C99.9194 61.1889 110.244 61.095 128.397 62.6817C132.489 63.0366 136.613 63.6525 140.59 64.2476C145.768 65.0201 151.123 65.8239 156.405 66.0431C169.214 66.6277 182.022 63.8196 192.858 61.0323C194.382 60.6461 195.896 60.239 197.42 59.8423C206.679 57.3996 216.262 54.8629 226.023 54.6854C252.538 54.2365 261.63 63.068 264.71 68.3919C267.466 73.1521 266.892 77.4529 265.43 79.8957C256.421 94.9487 237.662 100.064 222.317 102.851C199.195 107.048 175.863 109.146 153.158 109.146ZM75.9097 88.4557C78.9579 96.1388 84.1983 100.575 104.366 103.54C141.237 108.968 181.887 107.998 221.931 100.732C236.827 98.0283 255.022 93.0906 263.593 78.7891C264.689 76.9623 265.148 73.4235 262.852 69.4566C260.566 65.5002 252.402 56.293 226.054 56.8254C216.555 56.9924 207.107 59.4874 197.963 61.9092C196.439 62.3163 194.915 62.713 193.39 63.1097C182.398 65.9387 169.422 68.7363 156.311 68.1935C150.914 67.9639 145.496 67.1496 140.266 66.3667C136.31 65.7821 132.228 65.1662 128.199 64.8113C110.452 63.2559 100.358 63.3394 84.6367 70.7824C80.983 72.5153 72.7675 80.5638 75.9097 88.4557Z" fill="black"/>
<path d="M143.607 65.8656C145.663 98.2579 133.429 130.347 127.364 162.228C124.618 176.634 122.917 191.625 126.362 205.884C129.796 220.144 139.212 233.673 153.023 238.632C158.336 240.542 164.036 241.126 169.673 241.273C174.663 241.408 179.757 241.189 184.455 239.498C197.525 234.78 204.164 219.737 204.686 205.853C205.197 191.959 201.116 178.346 199.685 164.525C196.042 129.251 206.742 95.001 200.949 60.0198C200.949 60.0198 179.381 65.9178 171.98 66.6486C153.785 68.4545 143.617 65.8656 143.617 65.8656H143.607Z" fill="white"/>
<path d="M172.043 242.39C171.229 242.39 170.425 242.379 169.642 242.358C162.575 242.17 157.345 241.335 152.658 239.655C139.65 234.978 129.17 222.138 125.318 206.145C121.674 191.019 123.773 175.361 126.309 162.03C128.126 152.489 130.527 142.77 132.855 133.375C138.314 111.307 143.962 88.4974 142.532 65.9387C142.511 65.5942 142.657 65.2706 142.918 65.0514C143.179 64.8322 143.534 64.7487 143.868 64.8426C143.972 64.8635 154.109 67.3584 171.865 65.6047C179.089 64.8844 200.437 59.0698 200.656 59.0072C200.948 58.9237 201.262 58.9759 201.512 59.1429C201.763 59.3099 201.94 59.5709 201.992 59.8632C205.114 78.6848 203.464 97.569 201.867 115.837C200.479 131.705 199.049 148.104 200.74 164.431C201.262 169.473 202.149 174.578 203.015 179.526C204.519 188.117 206.074 197.011 205.74 205.916C205.27 218.568 199.508 235.228 184.81 240.531C180.561 242.066 176.093 242.4 172.043 242.4V242.39ZM144.755 67.2018C145.893 89.6249 140.329 112.121 134.942 133.886C132.625 143.261 130.224 152.948 128.418 162.437C125.923 175.538 123.856 190.915 127.406 205.644C131.09 220.948 141.049 233.203 153.378 237.64C157.835 239.247 162.877 240.041 169.694 240.218C174.131 240.344 179.308 240.218 184.079 238.506C196.898 233.882 203.12 218.756 203.6 205.822C203.924 197.147 202.389 188.368 200.907 179.881C200.04 174.901 199.132 169.755 198.61 164.64C196.898 148.104 198.339 131.6 199.738 115.639C201.282 97.8821 202.89 79.5408 200.072 61.3664C195.458 62.6087 178.578 67.0766 172.085 67.7133C157.553 69.1539 148.158 67.8386 144.766 67.2018H144.755Z" fill="black"/>
<path d="M142.375 151.184C142.281 151.184 142.187 151.173 142.093 151.142C141.519 150.985 141.185 150.401 141.341 149.827C145.809 133.594 149.192 116.902 151.384 100.231C151.457 99.6462 152 99.2391 152.584 99.3122C153.169 99.3853 153.586 99.9281 153.503 100.513C151.3 117.288 147.897 134.064 143.398 150.401C143.262 150.871 142.834 151.184 142.364 151.184H142.375Z" fill="black"/>
<path d="M141.718 211.803C141.269 211.803 140.851 211.521 140.705 211.072C135.955 196.969 135.454 183.68 139.15 169.275C139.296 168.7 139.88 168.356 140.454 168.502C141.029 168.648 141.373 169.233 141.227 169.807C137.636 183.806 138.116 196.698 142.741 210.394C142.928 210.958 142.626 211.563 142.072 211.751C141.958 211.793 141.843 211.803 141.728 211.803H141.718Z" fill="black"/>
<path d="M74.9076 89.9173C74.7197 89.9173 74.5318 89.8651 74.3647 89.7712C73.8532 89.4685 73.6862 88.8108 73.9889 88.3097C77.8514 81.7644 87.2047 67.9432 87.2987 67.8075C87.6327 67.3168 88.3008 67.1916 88.781 67.5256C89.2717 67.8597 89.3969 68.5278 89.0629 69.008C88.9689 69.1437 79.6573 82.9023 75.8262 89.3954C75.6279 89.7294 75.2729 89.9173 74.9076 89.9173Z" fill="black"/>
<path d="M84.1774 98.7901C84 98.7901 83.833 98.7484 83.6659 98.6649C83.144 98.383 82.9561 97.7358 83.2275 97.2138C89.3239 85.9084 94.9818 75.6573 102.456 64.6336C102.79 64.143 103.458 64.0177 103.939 64.3518C104.429 64.6858 104.554 65.3539 104.22 65.8341C96.7878 76.7951 91.3908 86.5869 85.1065 98.2369C84.9082 98.5918 84.5428 98.8006 84.167 98.8006L84.1774 98.7901Z" fill="black"/>
<path d="M97.0488 103.989C96.8818 103.989 96.7044 103.947 96.5373 103.864C96.0154 103.582 95.8275 102.935 96.0989 102.413C103.344 88.9672 111.329 75.6888 119.827 62.974C120.161 62.4834 120.819 62.3477 121.309 62.6817C121.8 63.0053 121.935 63.6734 121.601 64.1641C113.135 76.8266 105.191 90.0424 97.9779 103.425C97.7796 103.78 97.4142 103.989 97.0384 103.989H97.0488Z" fill="black"/>
<path d="M110.807 106.745C110.609 106.745 110.421 106.693 110.244 106.578C109.742 106.265 109.586 105.607 109.899 105.106C110.066 104.835 127.228 77.3903 135.642 64.78C135.965 64.2893 136.644 64.1641 137.124 64.4877C137.615 64.8113 137.75 65.4794 137.416 65.97C129.023 78.5491 111.882 105.972 111.705 106.244C111.507 106.567 111.152 106.745 110.797 106.745H110.807Z" fill="black"/>
<path d="M127.74 107.851C127.52 107.851 127.301 107.789 127.103 107.643C126.633 107.288 126.529 106.62 126.873 106.15C132.281 98.8111 137.364 91.0967 141.978 83.2152C142.271 82.7037 142.928 82.5367 143.44 82.829C143.951 83.1317 144.118 83.7894 143.826 84.2905C139.181 92.2346 134.055 100.012 128.596 107.413C128.387 107.695 128.063 107.851 127.74 107.851Z" fill="black"/>
<path d="M259.657 86.2532C259.25 86.2532 258.854 86.0131 258.676 85.6164L247.245 59.8529C247.005 59.3101 247.245 58.6837 247.788 58.4436C248.331 58.2035 248.957 58.4436 249.198 58.9864L260.628 84.75C260.868 85.2928 260.628 85.9191 260.085 86.1592C259.939 86.2219 259.793 86.2532 259.647 86.2532H259.657Z" fill="black"/>
<path d="M249.177 94.3746C248.749 94.3746 248.342 94.1136 248.175 93.6856C243.341 81.0544 238.362 68.8929 232.923 56.5018C232.683 55.959 232.923 55.3326 233.476 55.0925C234.019 54.8629 234.656 55.0925 234.886 55.6458C240.335 68.0682 245.335 80.261 250.179 92.9236C250.388 93.4768 250.116 94.0927 249.563 94.3015C249.438 94.3537 249.312 94.3746 249.177 94.3746Z" fill="black"/>
<path d="M235.951 99.5731C235.523 99.5731 235.126 99.3122 234.959 98.8946L218.33 56.7627C218.11 56.2094 218.382 55.5935 218.935 55.3743C219.488 55.1551 220.104 55.4265 220.323 55.9798L236.953 98.1117C237.172 98.6649 236.901 99.2809 236.347 99.5001C236.222 99.5523 236.086 99.5731 235.951 99.5731Z" fill="black"/>
<path d="M220.855 102.663C220.438 102.663 220.041 102.413 219.864 102.006L202.284 59.832C202.055 59.2891 202.316 58.6628 202.859 58.4331C203.401 58.2139 204.028 58.4645 204.257 59.0073L221.837 101.181C222.066 101.724 221.805 102.35 221.263 102.58C221.127 102.632 220.991 102.663 220.855 102.663Z" fill="black"/>
</g>
<g filter="url(#filter0_d_752_661)">
<rect x="4" y="106" width="330" height="56" rx="10" fill="#D61B0E" shape-rendering="crispEdges"/>
<path d="M45.236 122.69L44.636 137.06H40.286L39.686 122.69H45.236ZM42.536 144.74C41.636 144.74 40.896 144.48 40.316 143.96C39.756 143.42 39.476 142.76 39.476 141.98C39.476 141.18 39.756 140.51 40.316 139.97C40.896 139.43 41.636 139.16 42.536 139.16C43.416 139.16 44.136 139.43 44.696 139.97C45.276 140.51 45.566 141.18 45.566 141.98C45.566 142.76 45.276 143.42 44.696 143.96C44.136 144.48 43.416 144.74 42.536 144.74Z" fill="white"/>
<path d="M77.4136 126.056V141.5H73.6516V132.238L70.1976 141.5H67.1616L63.6856 132.216V141.5H59.9236V126.056H64.3676L68.7016 136.748L72.9916 126.056H77.4136ZM85.7069 141.676C84.5042 141.676 83.4189 141.419 82.4509 140.906C81.4975 140.393 80.7422 139.659 80.1849 138.706C79.6422 137.753 79.3709 136.638 79.3709 135.362C79.3709 134.101 79.6495 132.993 80.2069 132.04C80.7642 131.072 81.5269 130.331 82.4949 129.818C83.4629 129.305 84.5482 129.048 85.7509 129.048C86.9535 129.048 88.0389 129.305 89.0069 129.818C89.9749 130.331 90.7375 131.072 91.2949 132.04C91.8522 132.993 92.1309 134.101 92.1309 135.362C92.1309 136.623 91.8449 137.738 91.2729 138.706C90.7155 139.659 89.9455 140.393 88.9629 140.906C87.9949 141.419 86.9096 141.676 85.7069 141.676ZM85.7069 138.42C86.4255 138.42 87.0342 138.156 87.5329 137.628C88.0462 137.1 88.3029 136.345 88.3029 135.362C88.3029 134.379 88.0535 133.624 87.5549 133.096C87.0709 132.568 86.4695 132.304 85.7509 132.304C85.0175 132.304 84.4089 132.568 83.9249 133.096C83.4409 133.609 83.1989 134.365 83.1989 135.362C83.1989 136.345 83.4335 137.1 83.9029 137.628C84.3869 138.156 84.9882 138.42 85.7069 138.42ZM99.1207 141.676C98.05 141.676 97.0967 141.493 96.2607 141.126C95.4247 140.759 94.7647 140.261 94.2807 139.63C93.7967 138.985 93.5254 138.266 93.4667 137.474H97.1847C97.2287 137.899 97.4267 138.244 97.7787 138.508C98.1307 138.772 98.5634 138.904 99.0767 138.904C99.546 138.904 99.9054 138.816 100.155 138.64C100.419 138.449 100.551 138.207 100.551 137.914C100.551 137.562 100.367 137.305 100.001 137.144C99.634 136.968 99.04 136.777 98.2187 136.572C97.3387 136.367 96.6054 136.154 96.0187 135.934C95.432 135.699 94.926 135.34 94.5007 134.856C94.0754 134.357 93.8627 133.69 93.8627 132.854C93.8627 132.15 94.0534 131.512 94.4347 130.94C94.8307 130.353 95.4027 129.891 96.1507 129.554C96.9134 129.217 97.8154 129.048 98.8567 129.048C100.397 129.048 101.607 129.429 102.487 130.192C103.381 130.955 103.895 131.967 104.027 133.228H100.551C100.492 132.803 100.301 132.465 99.9787 132.216C99.6707 131.967 99.26 131.842 98.7467 131.842C98.3067 131.842 97.9694 131.93 97.7347 132.106C97.5 132.267 97.3827 132.495 97.3827 132.788C97.3827 133.14 97.566 133.404 97.9327 133.58C98.314 133.756 98.9007 133.932 99.6927 134.108C100.602 134.343 101.343 134.577 101.915 134.812C102.487 135.032 102.985 135.399 103.411 135.912C103.851 136.411 104.078 137.085 104.093 137.936C104.093 138.655 103.887 139.3 103.477 139.872C103.081 140.429 102.501 140.869 101.739 141.192C100.991 141.515 100.118 141.676 99.1207 141.676ZM113.236 138.31V141.5H111.322C109.958 141.5 108.895 141.17 108.132 140.51C107.37 139.835 106.988 138.743 106.988 137.232V132.348H105.492V129.224H106.988V126.232H110.75V129.224H113.214V132.348H110.75V137.276C110.75 137.643 110.838 137.907 111.014 138.068C111.19 138.229 111.484 138.31 111.894 138.31H113.236ZM123.756 125.22V141.5H119.994V125.22H123.756ZM128.374 127.948C127.714 127.948 127.171 127.757 126.746 127.376C126.335 126.98 126.13 126.496 126.13 125.924C126.13 125.337 126.335 124.853 126.746 124.472C127.171 124.076 127.714 123.878 128.374 123.878C129.019 123.878 129.547 124.076 129.958 124.472C130.383 124.853 130.596 125.337 130.596 125.924C130.596 126.496 130.383 126.98 129.958 127.376C129.547 127.757 129.019 127.948 128.374 127.948ZM130.244 129.224V141.5H126.482V129.224H130.244ZM140.472 141.5L136.732 136.352V141.5H132.97V125.22H136.732V134.218L140.45 129.224H145.092L139.988 135.384L145.136 141.5H140.472ZM158.142 135.164C158.142 135.516 158.12 135.883 158.076 136.264H149.562C149.621 137.027 149.863 137.613 150.288 138.024C150.728 138.42 151.263 138.618 151.894 138.618C152.833 138.618 153.485 138.222 153.852 137.43H157.856C157.651 138.237 157.277 138.963 156.734 139.608C156.206 140.253 155.539 140.759 154.732 141.126C153.925 141.493 153.023 141.676 152.026 141.676C150.823 141.676 149.753 141.419 148.814 140.906C147.875 140.393 147.142 139.659 146.614 138.706C146.086 137.753 145.822 136.638 145.822 135.362C145.822 134.086 146.079 132.971 146.592 132.018C147.12 131.065 147.853 130.331 148.792 129.818C149.731 129.305 150.809 129.048 152.026 129.048C153.214 129.048 154.27 129.297 155.194 129.796C156.118 130.295 156.837 131.006 157.35 131.93C157.878 132.854 158.142 133.932 158.142 135.164ZM154.292 134.174C154.292 133.529 154.072 133.015 153.632 132.634C153.192 132.253 152.642 132.062 151.982 132.062C151.351 132.062 150.816 132.245 150.376 132.612C149.951 132.979 149.687 133.499 149.584 134.174H154.292ZM163.889 125.22V141.5H160.127V125.22H163.889ZM179.155 129.224L171.455 147.33H167.407L170.223 141.082L165.229 129.224H169.431L172.269 136.902L175.085 129.224H179.155ZM188.939 130.962C189.306 130.39 189.812 129.928 190.457 129.576C191.103 129.224 191.858 129.048 192.723 129.048C193.735 129.048 194.652 129.305 195.473 129.818C196.295 130.331 196.94 131.065 197.409 132.018C197.893 132.971 198.135 134.079 198.135 135.34C198.135 136.601 197.893 137.716 197.409 138.684C196.94 139.637 196.295 140.378 195.473 140.906C194.652 141.419 193.735 141.676 192.723 141.676C191.873 141.676 191.117 141.5 190.457 141.148C189.812 140.796 189.306 140.341 188.939 139.784V147.352H185.177V129.224H188.939V130.962ZM194.307 135.34C194.307 134.401 194.043 133.668 193.515 133.14C193.002 132.597 192.364 132.326 191.601 132.326C190.853 132.326 190.215 132.597 189.687 133.14C189.174 133.683 188.917 134.423 188.917 135.362C188.917 136.301 189.174 137.041 189.687 137.584C190.215 138.127 190.853 138.398 191.601 138.398C192.349 138.398 192.987 138.127 193.515 137.584C194.043 137.027 194.307 136.279 194.307 135.34ZM205.697 141.676C204.494 141.676 203.409 141.419 202.441 140.906C201.488 140.393 200.732 139.659 200.175 138.706C199.632 137.753 199.361 136.638 199.361 135.362C199.361 134.101 199.64 132.993 200.197 132.04C200.754 131.072 201.517 130.331 202.485 129.818C203.453 129.305 204.538 129.048 205.741 129.048C206.944 129.048 208.029 129.305 208.997 129.818C209.965 130.331 210.728 131.072 211.285 132.04C211.842 132.993 212.121 134.101 212.121 135.362C212.121 136.623 211.835 137.738 211.263 138.706C210.706 139.659 209.936 140.393 208.953 140.906C207.985 141.419 206.9 141.676 205.697 141.676ZM205.697 138.42C206.416 138.42 207.024 138.156 207.523 137.628C208.036 137.1 208.293 136.345 208.293 135.362C208.293 134.379 208.044 133.624 207.545 133.096C207.061 132.568 206.46 132.304 205.741 132.304C205.008 132.304 204.399 132.568 203.915 133.096C203.431 133.609 203.189 134.365 203.189 135.362C203.189 136.345 203.424 137.1 203.893 137.628C204.377 138.156 204.978 138.42 205.697 138.42ZM216.009 127.948C215.349 127.948 214.806 127.757 214.381 127.376C213.97 126.98 213.765 126.496 213.765 125.924C213.765 125.337 213.97 124.853 214.381 124.472C214.806 124.076 215.349 123.878 216.009 123.878C216.654 123.878 217.182 124.076 217.593 124.472C218.018 124.853 218.231 125.337 218.231 125.924C218.231 126.496 218.018 126.98 217.593 127.376C217.182 127.757 216.654 127.948 216.009 127.948ZM217.879 129.224V141.5H214.117V129.224H217.879ZM225.599 141.676C224.529 141.676 223.575 141.493 222.739 141.126C221.903 140.759 221.243 140.261 220.759 139.63C220.275 138.985 220.004 138.266 219.945 137.474H223.663C223.707 137.899 223.905 138.244 224.257 138.508C224.609 138.772 225.042 138.904 225.555 138.904C226.025 138.904 226.384 138.816 226.633 138.64C226.897 138.449 227.029 138.207 227.029 137.914C227.029 137.562 226.846 137.305 226.479 137.144C226.113 136.968 225.519 136.777 224.697 136.572C223.817 136.367 223.084 136.154 222.497 135.934C221.911 135.699 221.405 135.34 220.979 134.856C220.554 134.357 220.341 133.69 220.341 132.854C220.341 132.15 220.532 131.512 220.913 130.94C221.309 130.353 221.881 129.891 222.629 129.554C223.392 129.217 224.294 129.048 225.335 129.048C226.875 129.048 228.085 129.429 228.965 130.192C229.86 130.955 230.373 131.967 230.505 133.228H227.029C226.971 132.803 226.78 132.465 226.457 132.216C226.149 131.967 225.739 131.842 225.225 131.842C224.785 131.842 224.448 131.93 224.213 132.106C223.979 132.267 223.861 132.495 223.861 132.788C223.861 133.14 224.045 133.404 224.411 133.58C224.793 133.756 225.379 133.932 226.171 134.108C227.081 134.343 227.821 134.577 228.393 134.812C228.965 135.032 229.464 135.399 229.889 135.912C230.329 136.411 230.557 137.085 230.571 137.936C230.571 138.655 230.366 139.3 229.955 139.872C229.559 140.429 228.98 140.869 228.217 141.192C227.469 141.515 226.597 141.676 225.599 141.676ZM238.461 141.676C237.258 141.676 236.173 141.419 235.205 140.906C234.251 140.393 233.496 139.659 232.939 138.706C232.396 137.753 232.125 136.638 232.125 135.362C232.125 134.101 232.403 132.993 232.961 132.04C233.518 131.072 234.281 130.331 235.249 129.818C236.217 129.305 237.302 129.048 238.505 129.048C239.707 129.048 240.793 129.305 241.761 129.818C242.729 130.331 243.491 131.072 244.049 132.04C244.606 132.993 244.885 134.101 244.885 135.362C244.885 136.623 244.599 137.738 244.027 138.706C243.469 139.659 242.699 140.393 241.717 140.906C240.749 141.419 239.663 141.676 238.461 141.676ZM238.461 138.42C239.179 138.42 239.788 138.156 240.287 137.628C240.8 137.1 241.057 136.345 241.057 135.362C241.057 134.379 240.807 133.624 240.309 133.096C239.825 132.568 239.223 132.304 238.505 132.304C237.771 132.304 237.163 132.568 236.679 133.096C236.195 133.609 235.953 134.365 235.953 135.362C235.953 136.345 236.187 137.1 236.657 137.628C237.141 138.156 237.742 138.42 238.461 138.42ZM254.361 129.092C255.798 129.092 256.942 129.561 257.793 130.5C258.658 131.424 259.091 132.7 259.091 134.328V141.5H255.351V134.834C255.351 134.013 255.138 133.375 254.713 132.92C254.287 132.465 253.715 132.238 252.997 132.238C252.278 132.238 251.706 132.465 251.281 132.92C250.855 133.375 250.643 134.013 250.643 134.834V141.5H246.881V129.224H250.643V130.852C251.024 130.309 251.537 129.884 252.183 129.576C252.828 129.253 253.554 129.092 254.361 129.092ZM267.293 141.676C266.09 141.676 265.005 141.419 264.037 140.906C263.083 140.393 262.328 139.659 261.771 138.706C261.228 137.753 260.957 136.638 260.957 135.362C260.957 134.101 261.235 132.993 261.793 132.04C262.35 131.072 263.113 130.331 264.081 129.818C265.049 129.305 266.134 129.048 267.337 129.048C268.539 129.048 269.625 129.305 270.593 129.818C271.561 130.331 272.323 131.072 272.881 132.04C273.438 132.993 273.717 134.101 273.717 135.362C273.717 136.623 273.431 137.738 272.859 138.706C272.301 139.659 271.531 140.393 270.549 140.906C269.581 141.419 268.495 141.676 267.293 141.676ZM267.293 138.42C268.011 138.42 268.62 138.156 269.119 137.628C269.632 137.1 269.889 136.345 269.889 135.362C269.889 134.379 269.639 133.624 269.141 133.096C268.657 132.568 268.055 132.304 267.337 132.304C266.603 132.304 265.995 132.568 265.511 133.096C265.027 133.609 264.785 134.365 264.785 135.362C264.785 136.345 265.019 137.1 265.489 137.628C265.973 138.156 266.574 138.42 267.293 138.42ZM287.835 129.224V141.5H284.073V139.828C283.691 140.371 283.171 140.811 282.511 141.148C281.865 141.471 281.147 141.632 280.355 141.632C279.416 141.632 278.587 141.427 277.869 141.016C277.15 140.591 276.593 139.982 276.197 139.19C275.801 138.398 275.603 137.467 275.603 136.396V129.224H279.343V135.89C279.343 136.711 279.555 137.349 279.981 137.804C280.406 138.259 280.978 138.486 281.697 138.486C282.43 138.486 283.009 138.259 283.435 137.804C283.86 137.349 284.073 136.711 284.073 135.89V129.224H287.835ZM295.531 141.676C294.46 141.676 293.507 141.493 292.671 141.126C291.835 140.759 291.175 140.261 290.691 139.63C290.207 138.985 289.936 138.266 289.877 137.474H293.595C293.639 137.899 293.837 138.244 294.189 138.508C294.541 138.772 294.974 138.904 295.487 138.904C295.956 138.904 296.316 138.816 296.565 138.64C296.829 138.449 296.961 138.207 296.961 137.914C296.961 137.562 296.778 137.305 296.411 137.144C296.044 136.968 295.45 136.777 294.629 136.572C293.749 136.367 293.016 136.154 292.429 135.934C291.842 135.699 291.336 135.34 290.911 134.856C290.486 134.357 290.273 133.69 290.273 132.854C290.273 132.15 290.464 131.512 290.845 130.94C291.241 130.353 291.813 129.891 292.561 129.554C293.324 129.217 294.226 129.048 295.267 129.048C296.807 129.048 298.017 129.429 298.897 130.192C299.792 130.955 300.305 131.967 300.437 133.228H296.961C296.902 132.803 296.712 132.465 296.389 132.216C296.081 131.967 295.67 131.842 295.157 131.842C294.717 131.842 294.38 131.93 294.145 132.106C293.91 132.267 293.793 132.495 293.793 132.788C293.793 133.14 293.976 133.404 294.343 133.58C294.724 133.756 295.311 133.932 296.103 134.108C297.012 134.343 297.753 134.577 298.325 134.812C298.897 135.032 299.396 135.399 299.821 135.912C300.261 136.411 300.488 137.085 300.503 137.936C300.503 138.655 300.298 139.3 299.887 139.872C299.491 140.429 298.912 140.869 298.149 141.192C297.401 141.515 296.528 141.676 295.531 141.676Z" fill="white"/>
</g>
<defs>
<filter id="filter0_d_752_661" x="0" y="106" width="338" height="64" filterUnits="userSpaceOnUse" color-interpolation-filters="sRGB">
<feFlood flood-opacity="0" result="BackgroundImageFix"/>
<feColorMatrix in="SourceAlpha" type="matrix" values="0 0 0 0 0 0 0 0 0 0 0 0 0 0 0 0 0 0 127 0" result="hardAlpha"/>
<feOffset dy="4"/>
<feGaussianBlur stdDeviation="2"/>
<feComposite in2="hardAlpha" operator="out"/>
<feColorMatrix type="matrix" values="0 0 0 0 0 0 0 0 0 0 0 0 0 0 0 0 0 0 0.25 0"/>
<feBlend mode="normal" in2="BackgroundImageFix" result="effect1_dropShadow_752_661"/>
<feBlend mode="normal" in="SourceGraphic" in2="effect1_dropShadow_752_661" result="shape"/>
</filter>
</defs>
</svg>
