<svg width="340" height="300" viewBox="0 0 340 300" fill="none" xmlns="http://www.w3.org/2000/svg">
<path d="M281.309 125.65C279.099 94.3064 242.86 39.6336 157.309 50.2367C92.9755 58.208 59.7364 104.487 63.4838 135.777C64.1228 141.084 67.6319 148.979 71.0544 152.965C79.7513 163.102 93.7119 165.962 106.698 167.326C151.092 171.983 189.985 172.557 239.914 160.059C248.568 157.893 257.763 155.607 265.323 150.69C272.882 145.773 281.98 135.17 281.309 125.65Z" fill="white"/>
<path d="M281.309 125.65C279.099 94.3064 242.86 39.6336 157.309 50.2367C92.9755 58.208 59.7364 104.487 63.4838 135.777C64.1228 141.084 67.6319 148.979 71.0544 152.965C79.7513 163.102 93.7119 165.962 106.698 167.326C151.092 171.983 189.985 172.557 239.914 160.059C248.568 157.893 257.763 155.607 265.323 150.69C272.882 145.773 281.98 135.17 281.309 125.65Z" fill="#ED2214"/>
<mask id="mask0_856_7105" style="mask-type:alpha" maskUnits="userSpaceOnUse" x="63" y="48" width="219" height="123">
<path d="M281.309 125.65C279.099 94.3064 242.86 39.6336 157.309 50.2367C92.9755 58.208 59.7364 104.487 63.4838 135.777C64.1228 141.084 67.6319 148.979 71.0544 152.965C79.7513 163.102 93.7119 165.962 106.698 167.326C151.092 171.983 189.985 172.557 239.914 160.059C248.568 157.893 257.763 155.607 265.323 150.69C272.882 145.773 281.98 135.17 281.309 125.65Z" fill="#ED2214"/>
</mask>
<g mask="url(#mask0_856_7105)">
<circle cx="115.551" cy="82.6458" r="6.26642" fill="white" stroke="black" stroke-width="2"/>
<circle cx="145.04" cy="64.9525" r="6.26642" fill="white" stroke="black" stroke-width="2"/>
<circle cx="164.208" cy="98.1273" r="6.26642" fill="white" stroke="black" stroke-width="2"/>
<circle cx="187.062" cy="61.2664" r="6.26642" fill="white" stroke="black" stroke-width="2"/>
<circle cx="251.938" cy="91.4925" r="6.26642" fill="white" stroke="black" stroke-width="2"/>
<circle cx="271.843" cy="113.61" r="6.26642" fill="white" stroke="black" stroke-width="2"/>
<circle cx="225.398" cy="149.734" r="6.26642" fill="white" stroke="black" stroke-width="2"/>
<circle cx="232.033" cy="62.7405" r="6.26642" fill="white" stroke="black" stroke-width="2"/>
<circle cx="77.9526" cy="141.624" r="6.26642" fill="white" stroke="black" stroke-width="2"/>
<circle cx="74.2664" cy="108.449" r="6.26642" fill="white" stroke="black" stroke-width="2"/>
</g>
<path d="M157.721 171.453C140.771 171.453 124.038 170.262 106.579 168.432C93.6902 167.078 79.2855 164.273 70.2095 153.691C66.6246 149.511 63.0397 141.377 62.379 135.918C58.7616 105.701 90.4302 57.4073 157.179 49.1327C205.364 43.1651 235.214 58.133 251.752 71.747C272.785 89.0543 281.384 110.9 282.413 125.564C283.085 135.084 274.42 146.088 265.918 151.612C258.25 156.605 249.131 158.89 240.315 161.089C210.097 168.648 183.66 171.443 157.71 171.443L157.721 171.453ZM178.331 49.9992C171.8 49.9992 164.847 50.4107 157.439 51.3313C92.1198 59.4435 61.0793 106.329 64.5884 135.647C65.1949 140.651 68.6066 148.406 71.8991 152.24C80.4769 162.226 94.3617 164.912 106.817 166.222C152.013 170.966 189.996 171.41 239.643 158.977C248.427 156.778 257.362 154.536 264.716 149.749C271.539 145.308 280.854 134.922 280.204 125.716C279.207 111.506 270.835 90.3215 250.344 73.4582C236.665 62.2053 213.671 49.9992 178.342 49.9992H178.331Z" fill="black"/>
<path d="M74.455 139.969C70.9784 131.207 79.8053 122.239 84.0726 120.214C100.73 112.329 111.474 112.307 129.843 113.921C139.579 114.777 149.186 116.997 158.966 117.419C171.833 117.972 184.635 115.394 197.111 112.188C208.364 109.296 219.639 105.841 231.249 105.636C269.135 104.964 275.265 123.246 271.16 130.102C262.366 144.799 244.03 150.334 227.188 153.399C187.321 160.633 144.94 162.215 104.856 156.312C83.0761 153.106 77.7367 148.222 74.455 139.969Z" fill="white"/>
<path d="M155.641 161.023C138.182 161.023 121.081 159.821 104.705 157.417C82.708 154.178 76.9136 149.142 73.437 140.38C69.603 130.708 79.1664 121.318 83.6069 119.217C100.405 111.267 111.117 111.17 129.951 112.816C134.197 113.184 138.475 113.823 142.601 114.441C147.973 115.242 153.529 116.076 159.009 116.304C172.299 116.91 185.588 113.997 196.83 111.105C198.411 110.704 199.982 110.282 201.563 109.87C211.17 107.336 221.112 104.704 231.239 104.52C258.748 104.054 268.182 113.217 271.377 118.741C274.236 123.679 273.64 128.142 272.124 130.676C262.777 146.294 243.315 151.601 227.394 154.492C203.404 158.846 179.198 161.023 155.641 161.023ZM75.4948 139.557C78.6573 147.528 84.0943 152.131 105.019 155.207C143.273 160.839 185.447 159.832 226.993 152.294C242.448 149.489 261.326 144.366 270.218 129.528C271.355 127.632 271.832 123.961 269.449 119.845C267.077 115.741 258.608 106.188 231.271 106.74C221.415 106.914 211.614 109.502 202.126 112.015C200.545 112.437 198.964 112.849 197.382 113.26C185.978 116.195 172.515 119.098 158.912 118.535C153.313 118.297 147.691 117.452 142.265 116.639C138.161 116.033 133.926 115.394 129.745 115.026C111.333 113.412 100.86 113.499 84.5492 121.221C80.7585 123.019 72.2348 131.369 75.4948 139.557Z" fill="black"/>
<path d="M145.731 116.12C147.865 149.728 135.171 183.021 128.879 216.097C126.03 231.044 124.265 246.596 127.839 261.391C131.402 276.186 141.171 290.222 155.5 295.367C161.013 297.349 166.927 297.955 172.775 298.107C177.952 298.247 183.237 298.02 188.111 296.265C201.671 291.37 208.559 275.763 209.101 261.358C209.632 246.943 205.397 232.82 203.913 218.48C200.133 181.884 211.235 146.348 205.224 110.055C205.224 110.055 182.848 116.174 175.169 116.933C156.291 118.806 145.742 116.12 145.742 116.12H145.731Z" fill="white"/>
<path d="M175.234 299.265C174.389 299.265 173.555 299.254 172.743 299.232C165.41 299.037 159.984 298.171 155.121 296.427C141.626 291.575 130.752 278.254 126.756 261.661C122.976 245.968 125.153 229.722 127.785 215.891C129.669 205.992 132.16 195.909 134.576 186.161C140.24 163.265 146.099 139.6 144.616 116.196C144.594 115.838 144.746 115.502 145.016 115.275C145.287 115.047 145.655 114.961 146.002 115.058C146.11 115.08 156.627 117.668 175.05 115.849C182.544 115.102 204.693 109.069 204.92 109.004C205.224 108.917 205.549 108.972 205.808 109.145C206.068 109.318 206.253 109.589 206.307 109.892C209.545 129.42 207.834 149.012 206.177 167.966C204.736 184.428 203.252 201.443 205.007 218.382C205.549 223.613 206.469 228.909 207.368 234.043C208.928 242.957 210.541 252.184 210.195 261.423C209.707 274.55 203.729 291.835 188.48 297.337C184.071 298.929 179.436 299.276 175.234 299.276V299.265ZM146.923 117.506C148.103 140.77 142.33 164.11 136.742 186.692C134.337 196.418 131.846 206.468 129.973 216.313C127.384 229.906 125.24 245.859 128.922 261.141C132.745 277.019 143.078 289.734 155.869 294.337C160.493 296.005 165.724 296.828 172.797 297.012C177.4 297.142 182.772 297.012 187.721 295.236C201.021 290.438 207.476 274.744 207.975 261.325C208.31 252.325 206.718 243.217 205.18 234.411C204.281 229.245 203.339 223.906 202.798 218.599C201.021 201.443 202.516 184.32 203.967 167.76C205.57 149.337 207.238 130.308 204.314 111.452C199.527 112.741 182.014 117.376 175.277 118.037C160.201 119.531 150.453 118.167 146.933 117.506H146.923Z" fill="black"/>
<path d="M144.453 204.638C144.355 204.638 144.258 204.628 144.16 204.595C143.565 204.433 143.218 203.826 143.381 203.231C148.016 186.389 151.525 169.071 153.8 151.774C153.875 151.168 154.439 150.745 155.045 150.821C155.652 150.897 156.085 151.46 155.998 152.067C153.713 169.472 150.182 186.876 145.514 203.826C145.373 204.314 144.929 204.638 144.442 204.638H144.453Z" fill="black"/>
<path d="M143.771 267.531C143.305 267.531 142.872 267.238 142.72 266.773C137.792 252.141 137.272 238.353 141.106 223.407C141.258 222.811 141.865 222.454 142.46 222.606C143.056 222.757 143.413 223.364 143.262 223.959C139.536 238.483 140.034 251.859 144.832 266.069C145.027 266.654 144.713 267.282 144.139 267.477C144.02 267.52 143.901 267.531 143.782 267.531H143.771Z" fill="black"/>
<path d="M74.455 141.074C74.2601 141.074 74.0651 141.02 73.8918 140.922C73.3611 140.608 73.1878 139.926 73.5019 139.406C77.5092 132.615 87.2134 118.276 87.3109 118.135C87.6575 117.626 88.3507 117.496 88.8489 117.842C89.3579 118.189 89.4879 118.882 89.1413 119.38C89.0438 119.521 79.3829 133.796 75.4081 140.533C75.2023 140.879 74.8341 141.074 74.455 141.074Z" fill="black"/>
<path d="M84.0727 150.28C83.8886 150.28 83.7153 150.236 83.542 150.15C83.0005 149.857 82.8055 149.186 83.0871 148.644C89.4122 136.915 95.2824 126.279 103.037 114.842C103.384 114.333 104.077 114.203 104.575 114.549C105.084 114.896 105.214 115.589 104.867 116.087C97.156 127.46 91.5566 137.619 85.0366 149.706C84.8308 150.074 84.4518 150.29 84.0619 150.29L84.0727 150.28Z" fill="black"/>
<path d="M97.4268 155.674C97.2535 155.674 97.0694 155.63 96.8961 155.544C96.3546 155.251 96.1596 154.58 96.4412 154.038C103.958 140.088 112.243 126.312 121.059 113.12C121.406 112.611 122.088 112.47 122.597 112.817C123.106 113.153 123.247 113.846 122.9 114.355C114.117 127.492 105.875 141.204 98.3907 155.089C98.185 155.457 97.8059 155.674 97.416 155.674H97.4268Z" fill="black"/>
<path d="M111.701 158.533C111.496 158.533 111.301 158.479 111.116 158.36C110.597 158.035 110.434 157.352 110.759 156.833C110.932 156.551 128.738 128.077 137.467 114.994C137.803 114.485 138.507 114.355 139.005 114.691C139.514 115.026 139.655 115.72 139.308 116.229C130.601 129.279 112.817 157.731 112.633 158.013C112.427 158.349 112.059 158.533 111.69 158.533H111.701Z" fill="black"/>
<path d="M129.269 159.68C129.041 159.68 128.814 159.615 128.608 159.463C128.121 159.095 128.012 158.402 128.37 157.915C133.98 150.301 139.254 142.297 144.042 134.12C144.345 133.589 145.027 133.416 145.558 133.719C146.089 134.033 146.262 134.716 145.959 135.235C141.139 143.477 135.821 151.546 130.157 159.225C129.94 159.518 129.604 159.68 129.269 159.68Z" fill="black"/>
<path d="M266.135 137.272C265.713 137.272 265.301 137.023 265.117 136.612L253.257 109.882C253.008 109.319 253.257 108.669 253.821 108.42C254.384 108.171 255.034 108.42 255.283 108.983L267.142 135.713C267.391 136.276 267.142 136.926 266.579 137.175C266.427 137.24 266.276 137.272 266.124 137.272H266.135Z" fill="black"/>
<path d="M255.261 145.698C254.817 145.698 254.394 145.427 254.221 144.983C249.207 131.878 244.04 119.261 238.398 106.405C238.149 105.842 238.398 105.192 238.972 104.943C239.535 104.704 240.196 104.943 240.434 105.517C246.087 118.405 251.275 131.055 256.301 144.193C256.517 144.767 256.236 145.406 255.662 145.622C255.532 145.677 255.402 145.698 255.261 145.698Z" fill="black"/>
<path d="M241.539 151.092C241.095 151.092 240.683 150.821 240.51 150.388L223.257 106.676C223.029 106.102 223.311 105.463 223.885 105.235C224.459 105.008 225.098 105.289 225.325 105.863L242.578 149.575C242.806 150.15 242.524 150.789 241.95 151.016C241.82 151.07 241.679 151.092 241.539 151.092Z" fill="black"/>
<path d="M225.877 154.298C225.444 154.298 225.032 154.038 224.848 153.616L206.61 109.86C206.371 109.297 206.642 108.647 207.205 108.409C207.768 108.181 208.418 108.441 208.657 109.004L226.895 152.76C227.134 153.323 226.863 153.973 226.3 154.211C226.159 154.265 226.018 154.298 225.877 154.298Z" fill="black"/>
<g filter="url(#filter0_d_856_7105)">
<rect x="247" y="205" width="79" height="79" rx="39.5" fill="#D61B0E" shape-rendering="crispEdges"/>
<path d="M290.148 229.42L289.348 248.58H283.548L282.748 229.42H290.148ZM286.548 258.82C285.348 258.82 284.361 258.473 283.588 257.78C282.841 257.06 282.468 256.18 282.468 255.14C282.468 254.073 282.841 253.18 283.588 252.46C284.361 251.74 285.348 251.38 286.548 251.38C287.721 251.38 288.681 251.74 289.428 252.46C290.201 253.18 290.588 254.073 290.588 255.14C290.588 256.18 290.201 257.06 289.428 257.78C288.681 258.473 287.721 258.82 286.548 258.82Z" fill="white"/>
</g>
<defs>
<filter id="filter0_d_856_7105" x="243" y="205" width="87" height="87" filterUnits="userSpaceOnUse" color-interpolation-filters="sRGB">
<feFlood flood-opacity="0" result="BackgroundImageFix"/>
<feColorMatrix in="SourceAlpha" type="matrix" values="0 0 0 0 0 0 0 0 0 0 0 0 0 0 0 0 0 0 127 0" result="hardAlpha"/>
<feOffset dy="4"/>
<feGaussianBlur stdDeviation="2"/>
<feComposite in2="hardAlpha" operator="out"/>
<feColorMatrix type="matrix" values="0 0 0 0 0 0 0 0 0 0 0 0 0 0 0 0 0 0 0.25 0"/>
<feBlend mode="normal" in2="BackgroundImageFix" result="effect1_dropShadow_856_7105"/>
<feBlend mode="normal" in="SourceGraphic" in2="effect1_dropShadow_856_7105" result="shape"/>
</filter>
</defs>
</svg>
