<svg width="340" height="300" viewBox="0 0 340 300" fill="none" xmlns="http://www.w3.org/2000/svg">
<g opacity="0.4">
<path d="M281.309 125.65C279.099 94.3064 242.86 39.6336 157.309 50.2367C92.9755 58.208 59.7364 104.487 63.4838 135.777C64.1228 141.084 67.6319 148.979 71.0544 152.965C79.7513 163.102 93.7119 165.962 106.698 167.326C151.092 171.983 189.985 172.557 239.914 160.059C248.568 157.893 257.763 155.607 265.323 150.69C272.882 145.773 281.98 135.17 281.309 125.65Z" fill="white"/>
<path d="M281.309 125.65C279.099 94.3064 242.86 39.6336 157.309 50.2367C92.9755 58.208 59.7364 104.487 63.4838 135.777C64.1228 141.084 67.6319 148.979 71.0544 152.965C79.7513 163.102 93.7119 165.962 106.698 167.326C151.092 171.983 189.985 172.557 239.914 160.059C248.568 157.893 257.763 155.607 265.323 150.69C272.882 145.773 281.98 135.17 281.309 125.65Z" fill="#ED2214"/>
<mask id="mask0_856_7179" style="mask-type:alpha" maskUnits="userSpaceOnUse" x="63" y="48" width="219" height="123">
<path d="M281.309 125.65C279.099 94.3064 242.86 39.6336 157.309 50.2367C92.9755 58.208 59.7364 104.487 63.4838 135.777C64.1228 141.084 67.6319 148.979 71.0544 152.965C79.7513 163.102 93.7119 165.962 106.698 167.326C151.092 171.983 189.985 172.557 239.914 160.059C248.568 157.893 257.763 155.607 265.323 150.69C272.882 145.773 281.98 135.17 281.309 125.65Z" fill="#ED2214"/>
</mask>
<g mask="url(#mask0_856_7179)">
<circle cx="115.551" cy="82.6458" r="6.26642" fill="white" stroke="black" stroke-width="2"/>
<circle cx="145.04" cy="64.9525" r="6.26642" fill="white" stroke="black" stroke-width="2"/>
<circle cx="164.208" cy="98.1273" r="6.26642" fill="white" stroke="black" stroke-width="2"/>
<circle cx="187.062" cy="61.2664" r="6.26642" fill="white" stroke="black" stroke-width="2"/>
<circle cx="251.938" cy="91.4925" r="6.26642" fill="white" stroke="black" stroke-width="2"/>
<circle cx="271.843" cy="113.61" r="6.26642" fill="white" stroke="black" stroke-width="2"/>
<circle cx="225.398" cy="149.734" r="6.26642" fill="white" stroke="black" stroke-width="2"/>
<circle cx="232.033" cy="62.7405" r="6.26642" fill="white" stroke="black" stroke-width="2"/>
<circle cx="77.9527" cy="141.624" r="6.26642" fill="white" stroke="black" stroke-width="2"/>
<circle cx="74.2664" cy="108.449" r="6.26642" fill="white" stroke="black" stroke-width="2"/>
</g>
<path d="M157.721 171.453C140.771 171.453 124.038 170.262 106.579 168.432C93.6902 167.078 79.2855 164.273 70.2095 153.691C66.6246 149.511 63.0397 141.377 62.379 135.918C58.7616 105.701 90.4302 57.4073 157.179 49.1327C205.364 43.1651 235.214 58.133 251.752 71.747C272.785 89.0543 281.384 110.9 282.413 125.564C283.085 135.084 274.42 146.088 265.918 151.612C258.25 156.605 249.131 158.89 240.315 161.089C210.097 168.648 183.66 171.443 157.71 171.443L157.721 171.453ZM178.331 49.9992C171.8 49.9992 164.847 50.4107 157.439 51.3313C92.1198 59.4435 61.0793 106.329 64.5884 135.647C65.1949 140.651 68.6066 148.406 71.8991 152.24C80.4769 162.226 94.3617 164.912 106.817 166.222C152.013 170.966 189.996 171.41 239.643 158.977C248.427 156.778 257.362 154.536 264.716 149.749C271.539 145.308 280.854 134.922 280.204 125.716C279.207 111.506 270.835 90.3215 250.344 73.4582C236.665 62.2053 213.671 49.9992 178.342 49.9992H178.331Z" fill="black"/>
<path d="M74.4549 139.969C70.9782 131.207 79.8052 122.239 84.0724 120.214C100.73 112.329 111.474 112.307 129.842 113.921C139.579 114.777 149.186 116.997 158.966 117.419C171.833 117.972 184.634 115.394 197.111 112.188C208.364 109.296 219.639 105.841 231.249 105.636C269.135 104.964 275.265 123.246 271.16 130.102C262.366 144.799 244.029 150.334 227.188 153.399C187.32 160.633 144.94 162.215 104.856 156.312C83.076 153.106 77.7365 148.222 74.4549 139.969Z" fill="white"/>
<path d="M155.641 161.023C138.182 161.023 121.081 159.821 104.705 157.417C82.7078 154.178 76.9135 149.142 73.4369 140.38C69.6028 130.708 79.1662 121.318 83.6068 119.217C100.405 111.267 111.116 111.17 129.951 112.816C134.196 113.184 138.475 113.823 142.601 114.441C147.973 115.242 153.529 116.076 159.009 116.304C172.298 116.91 185.588 113.997 196.83 111.105C198.411 110.704 199.981 110.282 201.563 109.87C211.169 107.336 221.112 104.704 231.239 104.52C258.748 104.054 268.182 113.217 271.377 118.741C274.236 123.679 273.64 128.142 272.124 130.676C262.777 146.294 243.315 151.601 227.394 154.492C203.404 158.846 179.198 161.023 155.641 161.023ZM75.4947 139.557C78.6572 147.528 84.0942 152.131 105.019 155.207C143.272 160.839 185.447 159.832 226.993 152.294C242.448 149.489 261.326 144.366 270.218 129.528C271.355 127.632 271.832 123.961 269.449 119.845C267.077 115.741 258.607 106.188 231.271 106.74C221.415 106.914 211.614 109.502 202.126 112.015C200.545 112.437 198.963 112.849 197.382 113.26C185.978 116.195 172.515 119.098 158.912 118.535C153.312 118.297 147.691 117.452 142.265 116.639C138.16 116.033 133.926 115.394 129.745 115.026C111.333 113.412 100.86 113.499 84.549 121.221C80.7583 123.019 72.2347 131.369 75.4947 139.557Z" fill="black"/>
<path d="M145.731 116.12C147.865 149.728 135.171 183.021 128.879 216.097C126.03 231.044 124.265 246.596 127.839 261.391C131.402 276.186 141.171 290.222 155.5 295.367C161.013 297.349 166.927 297.955 172.775 298.107C177.952 298.247 183.237 298.02 188.111 296.265C201.671 291.37 208.559 275.763 209.101 261.358C209.632 246.943 205.397 232.82 203.913 218.48C200.133 181.884 211.235 146.348 205.224 110.055C205.224 110.055 182.848 116.174 175.169 116.933C156.291 118.806 145.742 116.12 145.742 116.12H145.731Z" fill="white"/>
<path d="M175.234 299.265C174.389 299.265 173.555 299.254 172.743 299.232C165.41 299.037 159.984 298.171 155.121 296.427C141.626 291.575 130.752 278.254 126.756 261.661C122.976 245.968 125.153 229.722 127.785 215.891C129.669 205.992 132.16 195.909 134.576 186.161C140.24 163.265 146.099 139.6 144.616 116.196C144.594 115.838 144.746 115.502 145.016 115.275C145.287 115.047 145.655 114.961 146.002 115.058C146.11 115.08 156.627 117.668 175.05 115.849C182.544 115.102 204.693 109.069 204.92 109.004C205.224 108.917 205.549 108.972 205.808 109.145C206.068 109.318 206.253 109.589 206.307 109.892C209.545 129.42 207.834 149.012 206.177 167.966C204.736 184.428 203.252 201.443 205.007 218.382C205.549 223.613 206.469 228.909 207.368 234.043C208.928 242.957 210.541 252.184 210.195 261.423C209.707 274.55 203.729 291.835 188.48 297.337C184.071 298.929 179.436 299.276 175.234 299.276V299.265ZM146.923 117.506C148.103 140.77 142.33 164.11 136.742 186.692C134.337 196.418 131.846 206.468 129.973 216.313C127.384 229.906 125.24 245.859 128.922 261.141C132.745 277.019 143.078 289.734 155.869 294.337C160.493 296.005 165.724 296.828 172.797 297.012C177.4 297.142 182.772 297.012 187.721 295.236C201.021 290.438 207.476 274.744 207.975 261.325C208.31 252.325 206.718 243.217 205.18 234.411C204.281 229.245 203.339 223.906 202.798 218.599C201.021 201.443 202.516 184.32 203.967 167.76C205.57 149.337 207.238 130.308 204.314 111.452C199.527 112.741 182.014 117.376 175.277 118.037C160.201 119.531 150.453 118.167 146.933 117.506H146.923Z" fill="black"/>
<path d="M144.453 204.638C144.355 204.638 144.258 204.628 144.16 204.595C143.565 204.433 143.218 203.826 143.381 203.231C148.016 186.389 151.525 169.071 153.8 151.774C153.875 151.168 154.439 150.745 155.045 150.821C155.652 150.897 156.085 151.46 155.998 152.067C153.713 169.472 150.182 186.876 145.514 203.826C145.373 204.314 144.929 204.638 144.442 204.638H144.453Z" fill="black"/>
<path d="M143.771 267.531C143.305 267.531 142.872 267.238 142.72 266.773C137.792 252.141 137.272 238.353 141.106 223.407C141.258 222.811 141.865 222.454 142.46 222.606C143.056 222.757 143.413 223.364 143.262 223.959C139.536 238.483 140.034 251.859 144.832 266.069C145.027 266.654 144.713 267.282 144.139 267.477C144.02 267.52 143.901 267.531 143.782 267.531H143.771Z" fill="black"/>
<path d="M74.455 141.074C74.2601 141.074 74.0651 141.02 73.8918 140.922C73.3611 140.608 73.1878 139.926 73.5019 139.406C77.5092 132.615 87.2134 118.276 87.3109 118.135C87.6575 117.626 88.3507 117.496 88.8489 117.842C89.3579 118.189 89.4879 118.882 89.1413 119.38C89.0438 119.521 79.3829 133.796 75.4081 140.533C75.2023 140.879 74.8341 141.074 74.455 141.074Z" fill="black"/>
<path d="M84.0727 150.28C83.8886 150.28 83.7153 150.236 83.542 150.15C83.0005 149.857 82.8055 149.186 83.0871 148.644C89.4122 136.915 95.2824 126.279 103.037 114.842C103.384 114.333 104.077 114.203 104.575 114.549C105.084 114.896 105.214 115.589 104.867 116.087C97.156 127.46 91.5566 137.619 85.0366 149.706C84.8308 150.074 84.4518 150.29 84.0619 150.29L84.0727 150.28Z" fill="black"/>
<path d="M97.4269 155.674C97.2537 155.674 97.0695 155.63 96.8962 155.544C96.3547 155.251 96.1598 154.58 96.4414 154.038C103.958 140.088 112.243 126.312 121.059 113.12C121.406 112.611 122.088 112.47 122.597 112.817C123.106 113.153 123.247 113.846 122.9 114.355C114.117 127.492 105.875 141.204 98.3909 155.089C98.1851 155.457 97.806 155.674 97.4161 155.674H97.4269Z" fill="black"/>
<path d="M111.701 158.533C111.495 158.533 111.3 158.479 111.116 158.36C110.596 158.035 110.434 157.352 110.759 156.833C110.932 156.551 128.738 128.077 137.467 114.994C137.803 114.485 138.507 114.355 139.005 114.691C139.514 115.026 139.655 115.72 139.308 116.229C130.601 129.279 112.817 157.731 112.633 158.013C112.427 158.349 112.059 158.533 111.69 158.533H111.701Z" fill="black"/>
<path d="M129.269 159.68C129.041 159.68 128.814 159.615 128.608 159.463C128.121 159.095 128.012 158.402 128.37 157.915C133.98 150.301 139.255 142.297 144.042 134.12C144.345 133.589 145.027 133.416 145.558 133.719C146.089 134.033 146.262 134.716 145.959 135.235C141.139 143.477 135.821 151.546 130.157 159.225C129.94 159.518 129.605 159.68 129.269 159.68Z" fill="black"/>
<path d="M266.135 137.272C265.713 137.272 265.301 137.023 265.117 136.612L253.257 109.882C253.008 109.319 253.257 108.669 253.821 108.42C254.384 108.171 255.034 108.42 255.283 108.983L267.142 135.713C267.391 136.276 267.142 136.926 266.579 137.175C266.427 137.24 266.276 137.272 266.124 137.272H266.135Z" fill="black"/>
<path d="M255.261 145.698C254.817 145.698 254.394 145.427 254.221 144.983C249.207 131.878 244.04 119.261 238.398 106.405C238.148 105.842 238.398 105.192 238.972 104.943C239.535 104.704 240.195 104.943 240.434 105.517C246.087 118.405 251.275 131.055 256.301 144.193C256.517 144.767 256.236 145.406 255.662 145.622C255.532 145.677 255.402 145.698 255.261 145.698Z" fill="black"/>
<path d="M241.539 151.092C241.095 151.092 240.683 150.821 240.51 150.388L223.257 106.676C223.029 106.102 223.311 105.463 223.885 105.235C224.459 105.008 225.098 105.289 225.325 105.863L242.578 149.575C242.806 150.15 242.524 150.789 241.95 151.016C241.82 151.07 241.679 151.092 241.539 151.092Z" fill="black"/>
<path d="M225.877 154.298C225.444 154.298 225.032 154.038 224.848 153.616L206.61 109.86C206.371 109.297 206.642 108.647 207.205 108.409C207.768 108.181 208.418 108.441 208.657 109.004L226.895 152.76C227.134 153.323 226.863 153.973 226.3 154.211C226.159 154.265 226.018 154.298 225.877 154.298Z" fill="black"/>
</g>
<g filter="url(#filter0_d_856_7179)">
<rect x="5" y="133" width="330" height="56" rx="10" fill="#D61B0E" shape-rendering="crispEdges"/>
<path d="M46.236 149.69L45.636 164.06H41.286L40.686 149.69H46.236ZM43.536 171.74C42.636 171.74 41.896 171.48 41.316 170.96C40.756 170.42 40.476 169.76 40.476 168.98C40.476 168.18 40.756 167.51 41.316 166.97C41.896 166.43 42.636 166.16 43.536 166.16C44.416 166.16 45.136 166.43 45.696 166.97C46.276 167.51 46.566 168.18 46.566 168.98C46.566 169.76 46.276 170.42 45.696 170.96C45.136 171.48 44.416 171.74 43.536 171.74Z" fill="white"/>
<path d="M78.4136 153.056V168.5H74.6516V159.238L71.1976 168.5H68.1616L64.6856 159.216V168.5H60.9236V153.056H65.3676L69.7016 163.748L73.9916 153.056H78.4136ZM86.7069 168.676C85.5042 168.676 84.4189 168.419 83.4509 167.906C82.4975 167.393 81.7422 166.659 81.1849 165.706C80.6422 164.753 80.3709 163.638 80.3709 162.362C80.3709 161.101 80.6495 159.993 81.2069 159.04C81.7642 158.072 82.5269 157.331 83.4949 156.818C84.4629 156.305 85.5482 156.048 86.7509 156.048C87.9535 156.048 89.0389 156.305 90.0069 156.818C90.9749 157.331 91.7375 158.072 92.2949 159.04C92.8522 159.993 93.1309 161.101 93.1309 162.362C93.1309 163.623 92.8449 164.738 92.2729 165.706C91.7155 166.659 90.9455 167.393 89.9629 167.906C88.9949 168.419 87.9096 168.676 86.7069 168.676ZM86.7069 165.42C87.4255 165.42 88.0342 165.156 88.5329 164.628C89.0462 164.1 89.3029 163.345 89.3029 162.362C89.3029 161.379 89.0535 160.624 88.5549 160.096C88.0709 159.568 87.4695 159.304 86.7509 159.304C86.0175 159.304 85.4089 159.568 84.9249 160.096C84.4409 160.609 84.1989 161.365 84.1989 162.362C84.1989 163.345 84.4335 164.1 84.9029 164.628C85.3869 165.156 85.9882 165.42 86.7069 165.42ZM100.121 168.676C99.05 168.676 98.0967 168.493 97.2607 168.126C96.4247 167.759 95.7647 167.261 95.2807 166.63C94.7967 165.985 94.5254 165.266 94.4667 164.474H98.1847C98.2287 164.899 98.4267 165.244 98.7787 165.508C99.1307 165.772 99.5634 165.904 100.077 165.904C100.546 165.904 100.905 165.816 101.155 165.64C101.419 165.449 101.551 165.207 101.551 164.914C101.551 164.562 101.367 164.305 101.001 164.144C100.634 163.968 100.04 163.777 99.2187 163.572C98.3387 163.367 97.6054 163.154 97.0187 162.934C96.432 162.699 95.926 162.34 95.5007 161.856C95.0754 161.357 94.8627 160.69 94.8627 159.854C94.8627 159.15 95.0534 158.512 95.4347 157.94C95.8307 157.353 96.4027 156.891 97.1507 156.554C97.9134 156.217 98.8154 156.048 99.8567 156.048C101.397 156.048 102.607 156.429 103.487 157.192C104.381 157.955 104.895 158.967 105.027 160.228H101.551C101.492 159.803 101.301 159.465 100.979 159.216C100.671 158.967 100.26 158.842 99.7467 158.842C99.3067 158.842 98.9694 158.93 98.7347 159.106C98.5 159.267 98.3827 159.495 98.3827 159.788C98.3827 160.14 98.566 160.404 98.9327 160.58C99.314 160.756 99.9007 160.932 100.693 161.108C101.602 161.343 102.343 161.577 102.915 161.812C103.487 162.032 103.985 162.399 104.411 162.912C104.851 163.411 105.078 164.085 105.093 164.936C105.093 165.655 104.887 166.3 104.477 166.872C104.081 167.429 103.501 167.869 102.739 168.192C101.991 168.515 101.118 168.676 100.121 168.676ZM114.236 165.31V168.5H112.322C110.958 168.5 109.895 168.17 109.132 167.51C108.37 166.835 107.988 165.743 107.988 164.232V159.348H106.492V156.224H107.988V153.232H111.75V156.224H114.214V159.348H111.75V164.276C111.75 164.643 111.838 164.907 112.014 165.068C112.19 165.229 112.484 165.31 112.894 165.31H114.236ZM124.756 152.22V168.5H120.994V152.22H124.756ZM129.374 154.948C128.714 154.948 128.171 154.757 127.746 154.376C127.335 153.98 127.13 153.496 127.13 152.924C127.13 152.337 127.335 151.853 127.746 151.472C128.171 151.076 128.714 150.878 129.374 150.878C130.019 150.878 130.547 151.076 130.958 151.472C131.383 151.853 131.596 152.337 131.596 152.924C131.596 153.496 131.383 153.98 130.958 154.376C130.547 154.757 130.019 154.948 129.374 154.948ZM131.244 156.224V168.5H127.482V156.224H131.244ZM141.472 168.5L137.732 163.352V168.5H133.97V152.22H137.732V161.218L141.45 156.224H146.092L140.988 162.384L146.136 168.5H141.472ZM159.142 162.164C159.142 162.516 159.12 162.883 159.076 163.264H150.562C150.621 164.027 150.863 164.613 151.288 165.024C151.728 165.42 152.263 165.618 152.894 165.618C153.833 165.618 154.485 165.222 154.852 164.43H158.856C158.651 165.237 158.277 165.963 157.734 166.608C157.206 167.253 156.539 167.759 155.732 168.126C154.925 168.493 154.023 168.676 153.026 168.676C151.823 168.676 150.753 168.419 149.814 167.906C148.875 167.393 148.142 166.659 147.614 165.706C147.086 164.753 146.822 163.638 146.822 162.362C146.822 161.086 147.079 159.971 147.592 159.018C148.12 158.065 148.853 157.331 149.792 156.818C150.731 156.305 151.809 156.048 153.026 156.048C154.214 156.048 155.27 156.297 156.194 156.796C157.118 157.295 157.837 158.006 158.35 158.93C158.878 159.854 159.142 160.932 159.142 162.164ZM155.292 161.174C155.292 160.529 155.072 160.015 154.632 159.634C154.192 159.253 153.642 159.062 152.982 159.062C152.351 159.062 151.816 159.245 151.376 159.612C150.951 159.979 150.687 160.499 150.584 161.174H155.292ZM164.889 152.22V168.5H161.127V152.22H164.889ZM180.155 156.224L172.455 174.33H168.407L171.223 168.082L166.229 156.224H170.431L173.269 163.902L176.085 156.224H180.155ZM189.939 157.962C190.306 157.39 190.812 156.928 191.457 156.576C192.103 156.224 192.858 156.048 193.723 156.048C194.735 156.048 195.652 156.305 196.473 156.818C197.295 157.331 197.94 158.065 198.409 159.018C198.893 159.971 199.135 161.079 199.135 162.34C199.135 163.601 198.893 164.716 198.409 165.684C197.94 166.637 197.295 167.378 196.473 167.906C195.652 168.419 194.735 168.676 193.723 168.676C192.873 168.676 192.117 168.5 191.457 168.148C190.812 167.796 190.306 167.341 189.939 166.784V174.352H186.177V156.224H189.939V157.962ZM195.307 162.34C195.307 161.401 195.043 160.668 194.515 160.14C194.002 159.597 193.364 159.326 192.601 159.326C191.853 159.326 191.215 159.597 190.687 160.14C190.174 160.683 189.917 161.423 189.917 162.362C189.917 163.301 190.174 164.041 190.687 164.584C191.215 165.127 191.853 165.398 192.601 165.398C193.349 165.398 193.987 165.127 194.515 164.584C195.043 164.027 195.307 163.279 195.307 162.34ZM206.697 168.676C205.494 168.676 204.409 168.419 203.441 167.906C202.488 167.393 201.732 166.659 201.175 165.706C200.632 164.753 200.361 163.638 200.361 162.362C200.361 161.101 200.64 159.993 201.197 159.04C201.754 158.072 202.517 157.331 203.485 156.818C204.453 156.305 205.538 156.048 206.741 156.048C207.944 156.048 209.029 156.305 209.997 156.818C210.965 157.331 211.728 158.072 212.285 159.04C212.842 159.993 213.121 161.101 213.121 162.362C213.121 163.623 212.835 164.738 212.263 165.706C211.706 166.659 210.936 167.393 209.953 167.906C208.985 168.419 207.9 168.676 206.697 168.676ZM206.697 165.42C207.416 165.42 208.024 165.156 208.523 164.628C209.036 164.1 209.293 163.345 209.293 162.362C209.293 161.379 209.044 160.624 208.545 160.096C208.061 159.568 207.46 159.304 206.741 159.304C206.008 159.304 205.399 159.568 204.915 160.096C204.431 160.609 204.189 161.365 204.189 162.362C204.189 163.345 204.424 164.1 204.893 164.628C205.377 165.156 205.978 165.42 206.697 165.42ZM217.009 154.948C216.349 154.948 215.806 154.757 215.381 154.376C214.97 153.98 214.765 153.496 214.765 152.924C214.765 152.337 214.97 151.853 215.381 151.472C215.806 151.076 216.349 150.878 217.009 150.878C217.654 150.878 218.182 151.076 218.593 151.472C219.018 151.853 219.231 152.337 219.231 152.924C219.231 153.496 219.018 153.98 218.593 154.376C218.182 154.757 217.654 154.948 217.009 154.948ZM218.879 156.224V168.5H215.117V156.224H218.879ZM226.599 168.676C225.529 168.676 224.575 168.493 223.739 168.126C222.903 167.759 222.243 167.261 221.759 166.63C221.275 165.985 221.004 165.266 220.945 164.474H224.663C224.707 164.899 224.905 165.244 225.257 165.508C225.609 165.772 226.042 165.904 226.555 165.904C227.025 165.904 227.384 165.816 227.633 165.64C227.897 165.449 228.029 165.207 228.029 164.914C228.029 164.562 227.846 164.305 227.479 164.144C227.113 163.968 226.519 163.777 225.697 163.572C224.817 163.367 224.084 163.154 223.497 162.934C222.911 162.699 222.405 162.34 221.979 161.856C221.554 161.357 221.341 160.69 221.341 159.854C221.341 159.15 221.532 158.512 221.913 157.94C222.309 157.353 222.881 156.891 223.629 156.554C224.392 156.217 225.294 156.048 226.335 156.048C227.875 156.048 229.085 156.429 229.965 157.192C230.86 157.955 231.373 158.967 231.505 160.228H228.029C227.971 159.803 227.78 159.465 227.457 159.216C227.149 158.967 226.739 158.842 226.225 158.842C225.785 158.842 225.448 158.93 225.213 159.106C224.979 159.267 224.861 159.495 224.861 159.788C224.861 160.14 225.045 160.404 225.411 160.58C225.793 160.756 226.379 160.932 227.171 161.108C228.081 161.343 228.821 161.577 229.393 161.812C229.965 162.032 230.464 162.399 230.889 162.912C231.329 163.411 231.557 164.085 231.571 164.936C231.571 165.655 231.366 166.3 230.955 166.872C230.559 167.429 229.98 167.869 229.217 168.192C228.469 168.515 227.597 168.676 226.599 168.676ZM239.461 168.676C238.258 168.676 237.173 168.419 236.205 167.906C235.251 167.393 234.496 166.659 233.939 165.706C233.396 164.753 233.125 163.638 233.125 162.362C233.125 161.101 233.403 159.993 233.961 159.04C234.518 158.072 235.281 157.331 236.249 156.818C237.217 156.305 238.302 156.048 239.505 156.048C240.707 156.048 241.793 156.305 242.761 156.818C243.729 157.331 244.491 158.072 245.049 159.04C245.606 159.993 245.885 161.101 245.885 162.362C245.885 163.623 245.599 164.738 245.027 165.706C244.469 166.659 243.699 167.393 242.717 167.906C241.749 168.419 240.663 168.676 239.461 168.676ZM239.461 165.42C240.179 165.42 240.788 165.156 241.287 164.628C241.8 164.1 242.057 163.345 242.057 162.362C242.057 161.379 241.807 160.624 241.309 160.096C240.825 159.568 240.223 159.304 239.505 159.304C238.771 159.304 238.163 159.568 237.679 160.096C237.195 160.609 236.953 161.365 236.953 162.362C236.953 163.345 237.187 164.1 237.657 164.628C238.141 165.156 238.742 165.42 239.461 165.42ZM255.361 156.092C256.798 156.092 257.942 156.561 258.793 157.5C259.658 158.424 260.091 159.7 260.091 161.328V168.5H256.351V161.834C256.351 161.013 256.138 160.375 255.713 159.92C255.287 159.465 254.715 159.238 253.997 159.238C253.278 159.238 252.706 159.465 252.281 159.92C251.855 160.375 251.643 161.013 251.643 161.834V168.5H247.881V156.224H251.643V157.852C252.024 157.309 252.537 156.884 253.183 156.576C253.828 156.253 254.554 156.092 255.361 156.092ZM268.293 168.676C267.09 168.676 266.005 168.419 265.037 167.906C264.083 167.393 263.328 166.659 262.771 165.706C262.228 164.753 261.957 163.638 261.957 162.362C261.957 161.101 262.235 159.993 262.793 159.04C263.35 158.072 264.113 157.331 265.081 156.818C266.049 156.305 267.134 156.048 268.337 156.048C269.539 156.048 270.625 156.305 271.593 156.818C272.561 157.331 273.323 158.072 273.881 159.04C274.438 159.993 274.717 161.101 274.717 162.362C274.717 163.623 274.431 164.738 273.859 165.706C273.301 166.659 272.531 167.393 271.549 167.906C270.581 168.419 269.495 168.676 268.293 168.676ZM268.293 165.42C269.011 165.42 269.62 165.156 270.119 164.628C270.632 164.1 270.889 163.345 270.889 162.362C270.889 161.379 270.639 160.624 270.141 160.096C269.657 159.568 269.055 159.304 268.337 159.304C267.603 159.304 266.995 159.568 266.511 160.096C266.027 160.609 265.785 161.365 265.785 162.362C265.785 163.345 266.019 164.1 266.489 164.628C266.973 165.156 267.574 165.42 268.293 165.42ZM288.835 156.224V168.5H285.073V166.828C284.691 167.371 284.171 167.811 283.511 168.148C282.865 168.471 282.147 168.632 281.355 168.632C280.416 168.632 279.587 168.427 278.869 168.016C278.15 167.591 277.593 166.982 277.197 166.19C276.801 165.398 276.603 164.467 276.603 163.396V156.224H280.343V162.89C280.343 163.711 280.555 164.349 280.981 164.804C281.406 165.259 281.978 165.486 282.697 165.486C283.43 165.486 284.009 165.259 284.435 164.804C284.86 164.349 285.073 163.711 285.073 162.89V156.224H288.835ZM296.531 168.676C295.46 168.676 294.507 168.493 293.671 168.126C292.835 167.759 292.175 167.261 291.691 166.63C291.207 165.985 290.936 165.266 290.877 164.474H294.595C294.639 164.899 294.837 165.244 295.189 165.508C295.541 165.772 295.974 165.904 296.487 165.904C296.956 165.904 297.316 165.816 297.565 165.64C297.829 165.449 297.961 165.207 297.961 164.914C297.961 164.562 297.778 164.305 297.411 164.144C297.044 163.968 296.45 163.777 295.629 163.572C294.749 163.367 294.016 163.154 293.429 162.934C292.842 162.699 292.336 162.34 291.911 161.856C291.486 161.357 291.273 160.69 291.273 159.854C291.273 159.15 291.464 158.512 291.845 157.94C292.241 157.353 292.813 156.891 293.561 156.554C294.324 156.217 295.226 156.048 296.267 156.048C297.807 156.048 299.017 156.429 299.897 157.192C300.792 157.955 301.305 158.967 301.437 160.228H297.961C297.902 159.803 297.712 159.465 297.389 159.216C297.081 158.967 296.67 158.842 296.157 158.842C295.717 158.842 295.38 158.93 295.145 159.106C294.91 159.267 294.793 159.495 294.793 159.788C294.793 160.14 294.976 160.404 295.343 160.58C295.724 160.756 296.311 160.932 297.103 161.108C298.012 161.343 298.753 161.577 299.325 161.812C299.897 162.032 300.396 162.399 300.821 162.912C301.261 163.411 301.488 164.085 301.503 164.936C301.503 165.655 301.298 166.3 300.887 166.872C300.491 167.429 299.912 167.869 299.149 168.192C298.401 168.515 297.528 168.676 296.531 168.676Z" fill="white"/>
</g>
<defs>
<filter id="filter0_d_856_7179" x="1" y="133" width="338" height="64" filterUnits="userSpaceOnUse" color-interpolation-filters="sRGB">
<feFlood flood-opacity="0" result="BackgroundImageFix"/>
<feColorMatrix in="SourceAlpha" type="matrix" values="0 0 0 0 0 0 0 0 0 0 0 0 0 0 0 0 0 0 127 0" result="hardAlpha"/>
<feOffset dy="4"/>
<feGaussianBlur stdDeviation="2"/>
<feComposite in2="hardAlpha" operator="out"/>
<feColorMatrix type="matrix" values="0 0 0 0 0 0 0 0 0 0 0 0 0 0 0 0 0 0 0.25 0"/>
<feBlend mode="normal" in2="BackgroundImageFix" result="effect1_dropShadow_856_7179"/>
<feBlend mode="normal" in="SourceGraphic" in2="effect1_dropShadow_856_7179" result="shape"/>
</filter>
</defs>
</svg>
