<svg width="230" height="243" viewBox="0 0 230 243" fill="none" xmlns="http://www.w3.org/2000/svg">
<path d="M211.283 75.0523C209.154 44.8417 174.225 -7.8547 91.7664 2.36513C29.7584 10.0483 -2.27903 54.6544 1.33288 84.8128C1.94879 89.9279 5.33104 97.538 8.62979 101.38C17.0124 111.151 30.4683 113.906 42.9847 115.222C85.7744 119.711 123.261 120.264 171.385 108.217C179.726 106.129 188.589 103.927 195.875 99.1874C203.162 94.4481 211.93 84.2282 211.283 75.0523Z" fill="white"/>
<path d="M211.283 75.0523C209.154 44.8417 174.225 -7.8547 91.7664 2.36513C29.7584 10.0483 -2.27903 54.6544 1.33288 84.8128C1.94879 89.9279 5.33104 97.538 8.62979 101.38C17.0124 111.151 30.4683 113.906 42.9847 115.222C85.7744 119.711 123.261 120.264 171.385 108.217C179.726 106.129 188.589 103.927 195.875 99.1874C203.162 94.4481 211.93 84.2282 211.283 75.0523Z" fill="#ED2214"/>
<path d="M92.1631 119.199C75.826 119.199 59.6977 118.051 42.8699 116.286C30.4474 114.982 16.5635 112.278 7.81555 102.079C4.36022 98.0495 0.904889 90.2097 0.268107 84.9484C-3.21854 55.8235 27.3053 9.27571 91.6412 1.30027C138.085 -4.45165 166.855 9.97513 182.795 23.097C203.068 39.7786 211.356 60.8342 212.348 74.9687C212.995 84.1446 204.644 94.7507 196.449 100.075C189.058 104.887 180.269 107.09 171.771 109.209C142.646 116.495 117.165 119.189 92.1527 119.189L92.1631 119.199ZM112.029 2.1354C105.734 2.1354 99.032 2.53208 91.8917 3.4194C28.9338 11.2383 -0.98458 56.4289 2.39767 84.6875C2.98226 89.5103 6.27057 96.9847 9.44404 100.68C17.7118 110.305 31.0946 112.894 43.0996 114.157C86.6618 118.729 123.272 119.157 171.124 107.173C179.59 105.054 188.202 102.893 195.291 98.2791C201.867 93.9991 210.845 83.988 210.218 75.1148C209.258 61.4188 201.189 41 181.438 24.7464C168.253 13.9002 146.091 2.1354 112.039 2.1354H112.029Z" fill="black"/>
<path d="M11.9076 88.8526C8.55665 80.4074 17.0645 71.7638 21.1775 69.8117C37.2327 62.2121 47.5883 62.1912 65.2929 63.7467C74.6777 64.5713 83.9371 66.7113 93.3636 67.1185C105.765 67.6509 118.104 65.1664 130.13 62.0764C140.976 59.2892 151.843 55.9591 163.034 55.7608C199.55 55.1136 205.458 72.7347 201.502 79.3426C193.025 93.5084 175.352 98.8428 159.119 101.797C120.693 108.77 79.845 110.294 41.21 104.605C20.2171 101.515 15.0706 96.8072 11.9076 88.8526Z" fill="white"/>
<path d="M90.1588 109.146C73.331 109.146 56.8477 107.987 41.0639 105.67C19.8621 102.549 14.2772 97.6946 10.9263 89.2494C7.23087 79.9273 16.4486 70.8766 20.7286 68.8515C36.9196 61.1892 47.2438 61.0952 65.3973 62.682C69.4894 63.0369 73.6128 63.6528 77.5901 64.2478C82.7679 65.0203 88.1231 65.8241 93.4053 66.0434C106.214 66.6279 119.023 63.8198 129.858 61.0326C131.383 60.6464 132.896 60.2392 134.42 59.8426C143.68 57.3998 153.263 54.8631 163.023 54.6857C189.539 54.2368 198.631 63.0682 201.711 68.3921C204.466 73.1524 203.892 77.4532 202.431 79.896C193.422 94.9491 174.663 100.064 159.318 102.851C136.195 107.048 112.864 109.146 90.1588 109.146ZM12.9097 88.456C15.9579 96.1392 21.1983 100.576 41.3666 103.54C78.2374 108.969 118.887 107.998 158.931 100.732C173.828 98.0286 192.023 93.091 200.594 78.7894C201.69 76.9626 202.149 73.4238 199.852 69.4569C197.566 65.5005 189.403 56.2933 163.055 56.8257C153.555 56.9927 144.108 59.4876 134.963 61.9095C133.439 62.3166 131.915 62.7133 130.391 63.11C119.399 65.939 106.423 68.7366 93.3113 68.1938C87.9144 67.9641 82.4965 67.1499 77.2665 66.367C73.3101 65.7824 69.2284 65.1665 65.199 64.8116C47.4526 63.2561 37.358 63.3396 21.6368 70.7827C17.9831 72.5156 9.76756 80.5641 12.9097 88.456Z" fill="black"/>
<path d="M80.6072 65.8659C82.6637 98.2583 70.4292 130.348 64.3641 162.229C61.6186 176.635 59.917 191.625 63.3619 205.885C66.7964 220.145 76.2124 233.674 90.0233 238.632C95.3368 240.543 101.036 241.127 106.674 241.273C111.663 241.409 116.758 241.19 121.455 239.499C134.525 234.78 141.164 219.738 141.686 205.854C142.198 191.959 138.116 178.347 136.686 164.525C133.043 129.252 143.743 95.0013 137.949 60.02C137.949 60.02 116.382 65.9181 108.981 66.6488C90.7853 68.4548 80.6177 65.8659 80.6177 65.8659H80.6072Z" fill="white"/>
<path d="M109.043 242.39C108.229 242.39 107.425 242.38 106.642 242.359C99.575 242.171 94.345 241.336 89.6578 239.655C76.6508 234.979 66.17 222.139 62.318 206.146C58.6747 191.02 60.773 175.361 63.3097 162.03C65.1261 152.489 67.527 142.77 69.855 133.375C75.3146 111.307 80.9621 88.4978 79.532 65.939C79.5111 65.5945 79.6572 65.2709 79.9182 65.0517C80.1792 64.8324 80.5341 64.7489 80.8682 64.8429C80.9726 64.8638 91.1089 67.3587 108.866 65.6049C116.09 64.8846 137.437 59.0701 137.657 59.0074C137.949 58.9239 138.262 58.9761 138.513 59.1431C138.763 59.3102 138.941 59.5711 138.993 59.8634C142.114 78.6851 140.465 97.5693 138.868 115.838C137.479 131.705 136.049 148.105 137.74 164.431C138.262 169.474 139.149 174.578 140.016 179.526C141.519 188.118 143.075 197.012 142.74 205.916C142.271 218.568 136.508 235.229 121.81 240.532C117.561 242.067 113.094 242.401 109.043 242.401V242.39ZM81.7555 67.2021C82.8933 89.6252 77.3293 112.121 71.9428 133.887C69.6253 143.261 67.2243 152.949 65.4184 162.438C62.9234 175.539 60.8565 190.915 64.4058 205.645C68.0908 220.949 78.0496 233.204 90.3781 237.641C94.8356 239.248 99.8777 240.042 106.694 240.219C111.131 240.344 116.309 240.219 121.079 238.507C133.899 233.883 140.12 218.756 140.6 205.822C140.924 197.147 139.39 188.368 137.907 179.881C137.041 174.902 136.133 169.755 135.611 164.64C133.899 148.105 135.339 131.601 136.738 115.639C138.283 97.8825 139.891 79.5411 137.072 61.3667C132.458 62.6089 115.578 67.0768 109.085 67.7136C94.5538 69.1542 85.1586 67.8389 81.7659 67.2021H81.7555Z" fill="black"/>
<path d="M79.3752 151.184C79.2812 151.184 79.1873 151.174 79.0933 151.143C78.5192 150.986 78.1851 150.401 78.3417 149.827C82.8096 133.595 86.1919 116.902 88.3841 100.231C88.4572 99.6467 89 99.2396 89.5846 99.3127C90.1692 99.3858 90.5867 99.9286 90.5032 100.513C88.3006 117.289 84.8974 134.064 80.3982 150.401C80.2625 150.871 79.8345 151.184 79.3647 151.184H79.3752Z" fill="black"/>
<path d="M78.7178 211.804C78.269 211.804 77.8514 211.522 77.7052 211.073C72.9555 196.97 72.4544 183.681 76.1498 169.275C76.296 168.701 76.8806 168.357 77.4547 168.503C78.0289 168.649 78.3733 169.234 78.2272 169.808C74.6362 183.806 75.1164 196.699 79.7409 210.395C79.9288 210.958 79.626 211.564 79.0728 211.752C78.9579 211.794 78.8431 211.804 78.7283 211.804H78.7178Z" fill="black"/>
<path d="M11.9076 89.9174C11.7197 89.9174 11.5318 89.8652 11.3648 89.7713C10.8533 89.4685 10.6862 88.8109 10.989 88.3098C14.8514 81.7645 24.2048 67.9432 24.2988 67.8075C24.6328 67.3168 25.3009 67.1916 25.7811 67.5256C26.2718 67.8597 26.397 68.5278 26.063 69.008C25.969 69.1437 16.6574 82.9024 12.8262 89.3954C12.6279 89.7295 12.273 89.9174 11.9076 89.9174Z" fill="black"/>
<path d="M21.1776 98.7907C21.0001 98.7907 20.8331 98.749 20.6661 98.6655C20.1441 98.3836 19.9562 97.7364 20.2276 97.2144C26.324 85.9089 31.982 75.6578 39.4564 64.6341C39.7904 64.1435 40.4585 64.0182 40.9387 64.3523C41.4293 64.6863 41.5546 65.3544 41.2206 65.8346C33.7879 76.7956 28.391 86.5875 22.1066 98.2375C21.9083 98.5924 21.5429 98.8012 21.1671 98.8012L21.1776 98.7907Z" fill="black"/>
<path d="M34.0489 103.989C33.8819 103.989 33.7044 103.948 33.5374 103.864C33.0155 103.582 32.8276 102.935 33.099 102.413C40.3437 88.9675 48.3296 75.689 56.827 62.9743C57.161 62.4836 57.8187 62.3479 58.3093 62.682C58.7999 63.0056 58.9357 63.6737 58.6016 64.1643C50.1355 76.8269 42.1914 90.0427 34.978 103.426C34.7797 103.781 34.4143 103.989 34.0385 103.989H34.0489Z" fill="black"/>
<path d="M47.8075 106.745C47.6092 106.745 47.4213 106.693 47.2438 106.578C46.7427 106.265 46.5861 105.607 46.8993 105.106C47.0663 104.835 64.2281 77.3906 72.642 64.7802C72.9656 64.2896 73.6442 64.1643 74.1244 64.4879C74.615 64.8115 74.7507 65.4796 74.4167 65.9703C66.0237 78.5493 48.8827 105.973 48.7053 106.244C48.5069 106.568 48.152 106.745 47.7971 106.745H47.8075Z" fill="black"/>
<path d="M64.7398 107.852C64.5205 107.852 64.3013 107.789 64.103 107.643C63.6332 107.288 63.5288 106.62 63.8733 106.15C69.2807 98.8114 74.3646 91.097 78.9786 83.2155C79.2709 82.704 79.9286 82.5369 80.4401 82.8292C80.9516 83.132 81.1186 83.7896 80.8263 84.2907C76.181 92.2348 71.0554 100.012 65.5958 107.413C65.387 107.695 65.0634 107.852 64.7398 107.852Z" fill="black"/>
<path d="M196.658 86.2535C196.251 86.2535 195.854 86.0134 195.677 85.6167L184.246 59.8531C184.006 59.3103 184.246 58.6839 184.789 58.4439C185.332 58.2038 185.958 58.4439 186.198 58.9867L197.629 84.7503C197.869 85.2931 197.629 85.9195 197.086 86.1596C196.94 86.2222 196.794 86.2535 196.648 86.2535H196.658Z" fill="black"/>
<path d="M186.177 94.3749C185.749 94.3749 185.342 94.114 185.175 93.686C180.342 81.0547 175.362 68.8932 169.924 56.502C169.684 55.9592 169.924 55.3329 170.477 55.0928C171.02 54.8631 171.657 55.0928 171.886 55.646C177.335 68.0685 182.336 80.2613 187.179 92.9239C187.388 93.4772 187.117 94.0931 186.564 94.3019C186.438 94.3541 186.313 94.3749 186.177 94.3749Z" fill="black"/>
<path d="M172.951 99.5735C172.523 99.5735 172.126 99.3126 171.959 98.895L155.33 56.7629C155.111 56.2097 155.382 55.5938 155.935 55.3746C156.489 55.1553 157.105 55.4267 157.324 55.98L173.953 98.1121C174.172 98.6653 173.901 99.2812 173.348 99.5005C173.223 99.5527 173.087 99.5735 172.951 99.5735Z" fill="black"/>
<path d="M157.856 102.663C157.438 102.663 157.042 102.413 156.864 102.006L139.285 59.832C139.055 59.2891 139.316 58.6628 139.859 58.4331C140.402 58.2139 141.028 58.4645 141.258 59.0073L158.837 101.181C159.067 101.724 158.806 102.35 158.263 102.58C158.127 102.632 157.992 102.663 157.856 102.663Z" fill="black"/>
<path d="M203.924 150.933C204.079 150.999 204.249 151.036 204.428 151.036C205.141 151.036 205.719 150.457 205.719 149.745V143.291C205.719 142.577 205.141 142 204.428 142C203.715 142 203.138 142.578 203.138 143.291V149.744C203.138 150.278 203.462 150.737 203.924 150.932V150.933Z" fill="white"/>
<path d="M210.77 153.769C211.24 153.968 211.804 153.877 212.188 153.493L216.751 148.93C217.255 148.426 217.255 147.608 216.751 147.104C216.247 146.599 215.43 146.6 214.926 147.104L210.362 151.668C209.858 152.172 209.858 152.989 210.362 153.493C210.483 153.614 210.622 153.706 210.77 153.769Z" fill="white"/>
<path d="M212.82 159.428C212.82 159.962 213.145 160.421 213.606 160.617C213.762 160.682 213.931 160.719 214.11 160.719H220.564C221.277 160.719 221.854 160.14 221.854 159.428C221.854 158.715 221.276 158.138 220.564 158.138H214.11C213.397 158.138 212.82 158.716 212.82 159.428Z" fill="white"/>
<path d="M196.668 153.493C196.788 153.615 196.927 153.706 197.075 153.769C197.546 153.968 198.11 153.877 198.493 153.493C198.997 152.989 198.997 152.172 198.493 151.668L193.93 147.104C193.426 146.599 192.608 146.6 192.104 147.104C191.6 147.608 191.6 148.426 192.104 148.93L196.668 153.493Z" fill="white"/>
<path d="M196.036 159.427C196.036 158.714 195.457 158.137 194.745 158.137H188.291C187.577 158.137 187 158.715 187 159.427C187 159.961 187.325 160.42 187.786 160.616C187.942 160.681 188.111 160.718 188.291 160.718H194.744C195.457 160.718 196.035 160.139 196.035 159.427H196.036Z" fill="white"/>
<path d="M229.919 192.68C229.919 196.159 228.659 199.348 226.574 201.821C228.033 202.121 229.133 203.415 229.133 204.962V208.794C229.133 210.562 227.695 212 225.926 212H201.018C199.25 212 197.811 210.562 197.811 208.794V204.962C197.811 203.418 198.909 202.125 200.364 201.823C199.882 201.252 199.443 200.641 199.053 199.992L189.898 184.755C188.524 182.468 189.266 179.488 191.552 178.112C192.299 177.66 193.161 177.42 194.04 177.42C195.736 177.42 197.329 178.321 198.197 179.771L199.587 182.085V160.842C199.587 158.248 201.565 156.079 204.088 155.907C205.492 155.807 206.862 156.323 207.851 157.312C208.764 158.226 209.267 159.442 209.267 160.735V170.169C209.942 169.811 210.711 169.609 211.526 169.609C212.82 169.609 214.035 170.112 214.949 171.026C215.45 171.526 215.827 172.118 216.066 172.761C216.809 172.298 217.686 172.029 218.626 172.029C219.919 172.029 221.135 172.532 222.048 173.446C222.519 173.916 222.881 174.467 223.121 175.068C223.791 174.674 224.57 174.449 225.401 174.449C226.608 174.449 227.741 174.918 228.595 175.772C229.449 176.626 229.919 177.761 229.919 178.966V192.68Z" fill="white"/>
<path d="M203.924 150.933C204.079 150.999 204.249 151.036 204.428 151.036C205.141 151.036 205.719 150.457 205.719 149.745V143.291C205.719 142.577 205.141 142 204.428 142C203.715 142 203.138 142.578 203.138 143.291V149.744C203.138 150.278 203.462 150.737 203.924 150.932V150.933Z" fill="black"/>
<path d="M210.77 153.769C211.24 153.968 211.804 153.877 212.188 153.493L216.751 148.93C217.255 148.426 217.255 147.608 216.751 147.104C216.247 146.599 215.43 146.6 214.926 147.104L210.362 151.668C209.858 152.172 209.858 152.989 210.362 153.493C210.483 153.614 210.622 153.706 210.77 153.769Z" fill="black"/>
<path d="M212.82 159.427C212.82 159.961 213.145 160.42 213.606 160.616C213.762 160.681 213.931 160.718 214.11 160.718H220.564C221.277 160.718 221.854 160.139 221.854 159.427C221.854 158.714 221.276 158.137 220.564 158.137H214.11C213.397 158.137 212.82 158.715 212.82 159.427Z" fill="black"/>
<path d="M196.668 153.493C196.788 153.615 196.927 153.706 197.075 153.769C197.546 153.968 198.11 153.877 198.493 153.493C198.997 152.989 198.997 152.172 198.493 151.668L193.93 147.104C193.426 146.599 192.608 146.6 192.104 147.104C191.6 147.608 191.6 148.426 192.104 148.93L196.668 153.493Z" fill="black"/>
<path d="M196.036 159.427C196.036 158.714 195.457 158.137 194.745 158.137H188.291C187.577 158.137 187 158.715 187 159.427C187 159.961 187.325 160.42 187.786 160.616C187.942 160.681 188.111 160.718 188.291 160.718H194.744C195.457 160.718 196.035 160.139 196.035 159.427H196.036Z" fill="black"/>
<path d="M229.919 178.965C229.919 177.76 229.449 176.625 228.596 175.771C227.742 174.918 226.608 174.448 225.402 174.448C224.571 174.448 223.792 174.674 223.122 175.067C222.882 174.466 222.519 173.915 222.049 173.445C221.135 172.531 219.919 172.028 218.626 172.028C217.687 172.028 216.81 172.297 216.067 172.761C215.828 172.117 215.45 171.526 214.95 171.025C214.036 170.111 212.82 169.608 211.527 169.608C210.712 169.608 209.943 169.81 209.268 170.168V160.734C209.268 159.441 208.765 158.225 207.852 157.311C206.863 156.322 205.493 155.806 204.089 155.906C201.565 156.079 199.588 158.247 199.588 160.841V182.084L198.197 179.77C197.329 178.32 195.737 177.419 194.04 177.419C193.161 177.419 192.299 177.658 191.552 178.111C189.266 179.487 188.524 182.467 189.898 184.755L199.054 199.992C199.443 200.641 199.883 201.252 200.365 201.822C198.91 202.124 197.812 203.417 197.812 204.961V208.793C197.812 210.561 199.251 211.999 201.018 211.999H225.926C227.695 211.999 229.133 210.56 229.133 208.793V204.961C229.133 203.415 228.032 202.12 226.574 201.82C228.659 199.347 229.919 196.158 229.919 192.679V178.965ZM226.552 208.794C226.552 209.139 226.272 209.419 225.926 209.419H201.018C200.673 209.419 200.393 209.139 200.393 208.794V204.962C200.393 204.617 200.673 204.336 201.018 204.336H225.926C226.272 204.336 226.552 204.617 226.552 204.962V208.794ZM227.337 192.679C227.337 196.349 225.625 199.623 222.959 201.754H203.99C202.918 200.902 201.988 199.862 201.266 198.662L192.11 183.426C191.468 182.358 191.815 180.966 192.885 180.322C193.232 180.113 193.631 180.001 194.04 180.001C194.845 180.001 195.572 180.411 195.983 181.098L199.772 187.403C200.071 187.901 200.665 188.138 201.224 187.982C201.783 187.827 202.169 187.318 202.169 186.739V160.842C202.169 159.599 203.089 158.562 204.265 158.481C204.934 158.438 205.558 158.669 206.026 159.136C206.452 159.562 206.687 160.13 206.687 160.734V181.547C206.687 182.26 207.266 182.838 207.978 182.838C208.69 182.838 209.268 182.259 209.268 181.547V174.448C209.268 173.203 210.281 172.189 211.527 172.189C212.132 172.189 212.698 172.424 213.125 172.85C213.551 173.276 213.787 173.844 213.787 174.448V183.161C213.787 183.874 214.364 184.451 215.077 184.451C215.79 184.451 216.368 183.873 216.368 183.161V176.868C216.368 175.623 217.382 174.609 218.627 174.609C219.231 174.609 219.798 174.844 220.225 175.27C220.651 175.696 220.886 176.264 220.886 176.868V184.774C220.886 185.487 221.464 186.065 222.176 186.065C222.889 186.065 223.467 185.486 223.467 184.774V178.966C223.467 177.898 224.335 177.03 225.403 177.03C225.92 177.03 226.405 177.231 226.772 177.598C227.138 177.964 227.339 178.45 227.339 178.966V192.68L227.337 192.679Z" fill="black"/>
</svg>
