<svg width="11" height="40" viewBox="0 0 11 40" fill="none" xmlns="http://www.w3.org/2000/svg">
<path d="M10.42 0.5L10.61 34.23C10.61 37.09 8.29 39.41 5.43 39.41C2.57 39.41 0.25 37.09 0.25 34.23L0.37 1.21C4.51 1.71 6.83 1.23 10.42 0.51V0.5Z" fill="white"/>
<path d="M5.43 39.66C2.44 39.66 0 37.22 0 34.2299L0.12 0.929951L0.4 0.959951C4.47 1.44995 6.79 0.979951 10.3 0.269951L10.67 0.199951L10.86 34.2299C10.86 37.2299 8.42 39.66 5.43 39.66ZM0.62 1.48995L0.5 34.2299C0.5 36.95 2.71 39.16 5.43 39.16C8.15 39.16 10.36 36.95 10.36 34.2299L10.17 0.809951C6.82 1.47995 4.5 1.91995 0.62 1.48995Z" fill="#141414"/>
<path d="M4.73998 37.3899C4.13998 37.3899 3.54998 37.2199 3.04998 36.8799C2.23998 36.3299 1.73998 35.3899 1.72998 34.4199C1.72998 34.2799 1.83998 34.1699 1.97998 34.1699C2.11998 34.1699 2.22998 34.2799 2.22998 34.4199C2.22998 35.2299 2.64998 36.0199 3.32998 36.4699C3.98998 36.9199 4.89998 37.0199 5.63998 36.7199C5.76998 36.6699 5.90998 36.7299 5.95998 36.8599C6.00998 36.9899 5.94998 37.1299 5.81998 37.1799C5.46998 37.3199 5.09998 37.3899 4.72998 37.3899H4.73998Z" fill="#141414"/>
</svg>
