<svg width="19" height="42" viewBox="0 0 19 42" fill="none" xmlns="http://www.w3.org/2000/svg">
<path d="M4.85999 2.1401C5.30999 9.3001 2.60999 16.4001 1.26999 23.4501C0.659991 26.6401 0.289991 29.9501 1.04999 33.1101C1.80999 36.2601 3.88999 39.2601 6.94999 40.3501C8.11999 40.7701 9.38999 40.9001 10.63 40.9301C11.73 40.9601 12.86 40.9101 13.9 40.5401C16.79 39.5001 18.26 36.1701 18.37 33.1001C18.48 30.0301 17.58 27.0201 17.26 23.9601C16.45 16.1601 18.82 8.5801 17.54 0.850098C17.54 0.850098 12.77 2.1501 11.13 2.3201C7.10999 2.7201 4.85999 2.1501 4.85999 2.1501V2.1401Z" fill="white"/>
<path d="M11.14 41.19C10.96 41.19 10.78 41.19 10.61 41.19C9.04999 41.15 7.88999 40.96 6.84999 40.59C3.96999 39.55 1.64999 36.71 0.789989 33.17C-0.0200113 29.82 0.449989 26.36 1.00999 23.41C1.40999 21.3 1.93999 19.15 2.45999 17.07C3.66999 12.19 4.91999 7.15004 4.59999 2.16004L4.57999 1.82004L4.90999 1.90004C4.90999 1.90004 7.16999 2.46004 11.1 2.07004C12.7 1.91004 17.42 0.620039 17.47 0.610039L17.74 0.540039L17.79 0.810038C18.48 4.98004 18.12 9.15004 17.76 13.19C17.45 16.7 17.14 20.33 17.51 23.94C17.63 25.05 17.82 26.18 18.01 27.27C18.34 29.17 18.69 31.14 18.61 33.11C18.51 35.91 17.23 39.6 13.97 40.78C13.03 41.12 12.04 41.2 11.14 41.2V41.19ZM5.11999 2.45004C5.36999 7.41004 4.13999 12.38 2.94999 17.19C2.43999 19.26 1.90999 21.41 1.50999 23.5C0.959989 26.4 0.499988 29.8 1.27999 33.05C2.08999 36.43 4.28999 39.14 7.01999 40.12C8.00999 40.47 9.11999 40.65 10.62 40.69C11.6 40.72 12.75 40.69 13.8 40.31C16.63 39.29 18 35.95 18.11 33.09C18.18 31.17 17.84 29.23 17.51 27.35C17.32 26.25 17.12 25.11 17 23.98C16.62 20.32 16.94 16.67 17.25 13.14C17.59 9.22004 17.95 5.17004 17.33 1.15004C16.29 1.43004 12.58 2.41004 11.15 2.55004C7.95999 2.87004 5.88999 2.58004 5.11999 2.44004V2.45004Z" fill="#141414"/>
<path d="M4.57998 21.0101C4.57998 21.0101 4.53999 21.0101 4.51999 21.0101C4.38999 20.9801 4.31999 20.8401 4.34999 20.7201C5.33999 17.1301 6.08998 13.4401 6.56998 9.75015C6.58998 9.62015 6.70999 9.53015 6.83999 9.55015C6.96999 9.57015 7.05999 9.69015 7.03999 9.82015C6.54999 13.5301 5.79998 17.2401 4.80998 20.8501C4.77998 20.9501 4.68998 21.0201 4.57998 21.0201V21.0101Z" fill="#141414"/>
<path d="M4.43998 34.4201C4.33998 34.4201 4.24998 34.3601 4.21998 34.2601C3.16998 31.1401 3.05998 28.2001 3.87998 25.0101C3.90998 24.8801 4.03998 24.8101 4.16998 24.8401C4.29998 24.8701 4.36998 25.0001 4.33998 25.1301C3.54998 28.2301 3.64998 31.0801 4.66998 34.1101C4.70998 34.2301 4.64998 34.3701 4.51998 34.4101C4.48998 34.4101 4.46998 34.4201 4.43998 34.4201Z" fill="#141414"/>
</svg>
