<svg width="23" height="43" viewBox="0 0 23 43" fill="none" xmlns="http://www.w3.org/2000/svg">
<path d="M7.8601 1.60006C8.3101 8.76006 5.6101 15.8601 4.2701 22.9101C3.6601 26.1001 3.2901 29.4101 4.0501 32.5701C4.8101 35.7201 6.8901 38.7201 9.9501 39.8101C11.1201 40.2301 12.3901 40.3601 13.6301 40.3901C14.7301 40.4201 15.8601 40.3701 16.9001 40.0001C19.7901 38.9601 21.2601 35.6301 21.3701 32.5601C21.4801 29.4901 20.5801 26.4801 20.2601 23.4201C19.4501 15.6201 21.8201 8.04006 20.5401 0.310059C20.5401 0.310059 15.7701 1.61006 14.1301 1.78006C10.1101 2.18006 7.8601 1.61006 7.8601 1.61006V1.60006Z" fill="white"/>
<path d="M14.14 40.65C13.96 40.65 13.78 40.65 13.61 40.65C12.05 40.61 10.89 40.42 9.84999 40.05C6.96999 39.01 4.64999 36.17 3.78999 32.63C2.97999 29.28 3.44999 25.82 4.00999 22.87C4.40999 20.76 4.93999 18.61 5.45999 16.53C6.66999 11.65 7.91999 6.61 7.59999 1.62L7.57999 1.28L7.90999 1.36C7.90999 1.36 10.17 1.92 14.1 1.53C15.7 1.37 20.42 0.0799997 20.47 0.0699997L20.74 0L20.79 0.269999C21.48 4.44 21.12 8.61 20.76 12.65C20.45 16.16 20.14 19.79 20.51 23.4C20.63 24.51 20.82 25.64 21.01 26.73C21.34 28.63 21.69 30.6 21.61 32.57C21.51 35.37 20.23 39.06 16.97 40.24C16.03 40.58 15.04 40.66 14.14 40.66V40.65ZM8.11999 1.91C8.36999 6.87 7.13999 11.84 5.94999 16.65C5.43999 18.72 4.90999 20.87 4.50999 22.96C3.95999 25.86 3.49999 29.26 4.27999 32.51C5.08999 35.89 7.28999 38.6 10.02 39.58C11.01 39.93 12.12 40.11 13.62 40.15C14.6 40.18 15.75 40.15 16.8 39.77C19.63 38.75 21 35.41 21.11 32.55C21.18 30.63 20.84 28.69 20.51 26.81C20.32 25.71 20.12 24.57 20 23.44C19.62 19.78 19.94 16.13 20.25 12.6C20.59 8.68 20.95 4.63 20.33 0.609999C19.29 0.889999 15.58 1.87 14.15 2.01C10.96 2.33 8.88999 2.04 8.11999 1.9V1.91Z" fill="#141414"/>
<path d="M22.0258 26.9701C21.6636 27.3057 21.1684 27.4888 20.6406 27.5727C20.0997 27.6587 19.5023 27.6442 18.9265 27.5668C18.9264 27.5668 18.9264 27.5668 18.9263 27.5668L18.9596 27.319C18.5446 27.2643 18.1346 27.1789 17.7601 27.0695C17.4957 26.9925 17.2304 26.9081 16.9638 26.8232C15.8472 26.4679 14.7077 26.1053 13.5187 26.246L22.0258 26.9701ZM22.0258 26.9701C22.1018 27.4426 22.1943 27.917 22.2862 28.3887C22.3194 28.5588 22.3525 28.7285 22.3847 28.8976C22.5527 29.7793 22.6986 30.652 22.7233 31.5191M22.0258 26.9701L13.5482 26.4942M13.5482 26.4942C12.917 26.5698 12.3634 26.7857 11.8094 27.0463C11.6458 27.1232 11.4797 27.2055 11.3109 27.289C10.9193 27.4828 10.513 27.6839 10.0892 27.8435L10.0889 27.8436C8.7103 28.3603 7.02068 28.4651 5.5325 28.1267C4.77458 27.9561 4.04894 27.5637 3.44203 27.101C2.9699 26.7413 2.55717 26.3355 2.24331 25.9412C1.18064 28.1334 0.273709 30.6432 0.25 32.9487C0.250041 33.3607 0.269934 33.7583 0.323524 34.1466C0.705421 36.8564 2.60809 39.5984 6.0511 41.0836L6.05122 41.0836C8.5732 42.1731 11.8068 42.4976 14.7018 41.9458L14.702 41.9458C17.5949 41.3968 20.0802 39.9864 21.3685 38.2006L21.3687 38.2003C22.5946 36.5054 22.7686 34.5762 22.7485 32.6125C22.7435 32.2488 22.7334 31.8815 22.7233 31.5191M13.5482 26.4942C14.2423 26.4121 14.9264 26.5109 15.6162 26.6849C16.0447 26.7929 16.4572 26.9243 16.8748 27.0573C17.1426 27.1427 17.4126 27.2286 17.6901 27.3096M13.5482 26.4942L17.6901 27.3096M22.7233 31.5191L22.9728 31.5121L22.7233 31.5192C22.7233 31.5192 22.7233 31.5192 22.7233 31.5191ZM17.6901 27.3096C17.6901 27.3095 17.69 27.3095 17.69 27.3095L17.7595 27.0716L17.6901 27.3096Z" fill="white" stroke="#141414" stroke-width="0.5"/>
</svg>
