<svg width="55" height="34" viewBox="0 0 55 34" fill="none" xmlns="http://www.w3.org/2000/svg">
<path d="M26.4575 28.3849C26.4575 28.3849 26.1098 28.4797 25.6989 28.5745C25.2564 28.6694 24.8771 28.701 24.8139 28.6694C24.0553 28.3217 23.9288 27.1205 23.9604 25.4452C23.9604 24.8763 23.992 24.2125 23.9604 23.4855C23.9288 22.8849 23.8656 22.3792 23.8024 21.8102C23.676 20.7039 23.4547 19.5976 23.0122 18.4913C22.9173 18.2384 23.2334 17.9539 23.2018 17.7011C22.949 15.9626 22.3484 14.2873 22.38 12.4856C22.4116 10.0201 21.9059 7.61784 21.811 5.18396C21.9691 5.18396 22.1271 5.18396 22.2536 5.18396C22.3484 8.37646 23.265 11.5689 23.5811 14.7614C23.6444 15.3304 24.1501 15.8994 24.3397 16.4999C24.8771 18.0804 25.0668 19.5976 25.8886 21.2097C26.2363 21.8418 26.1731 22.474 26.1098 23.1378C26.015 23.9596 25.857 24.8131 25.9834 25.4452C26.3311 27.1521 26.8685 28.1004 26.4575 28.4165V28.3849Z" fill="#141414"/>
<path d="M23.6128 29.2066C23.6128 29.2066 23.2651 29.3962 22.8542 29.5226C22.4433 29.6491 22.0324 29.7123 22.0008 29.6491C21.0841 28.8905 20.8629 27.4681 20.768 25.856C20.768 25.2871 20.6732 24.6549 20.61 24.0227C20.5468 23.4537 20.4519 22.9164 20.3255 22.379C20.1042 21.3043 19.7882 20.2296 19.314 19.1549C19.1876 18.9337 19.4721 18.6176 19.4089 18.3963C19.0295 16.6578 18.3025 15.0458 18.2077 13.2757C18.0181 10.5257 17.1646 7.87057 16.9434 5.08899C17.1014 5.1206 17.2911 5.1206 17.4491 5.1206C17.6071 8.59757 18.9347 11.9481 19.5669 15.3935C19.6617 15.9624 20.1991 16.4682 20.4519 17.0371C21.1157 18.586 21.4318 20.0716 22.3801 21.5888C22.7594 22.1894 22.7594 22.8216 22.7278 23.4854C22.6962 24.2124 22.6013 25.0342 22.791 25.6348C23.2335 27.31 23.8657 28.3847 23.6128 29.2066Z" fill="#141414"/>
<path d="M19.4722 30.2496C19.4722 30.2496 19.1561 30.5024 18.7452 30.6289C18.3026 30.7553 17.9233 30.7869 17.8601 30.6921C16.8486 29.4593 16.6274 27.8473 16.5325 26.2668C16.5009 25.6979 16.4377 25.1605 16.3745 24.5916C16.3113 24.0226 16.2165 23.4853 16.1216 22.9479C15.9004 21.8732 15.5843 20.8301 15.0785 19.7554C14.9521 19.5342 15.2366 19.2497 15.205 18.9968C14.7941 17.2899 14.0987 15.6779 13.9722 13.9394C13.7826 10.8101 12.7079 7.87048 12.6763 4.70959C12.8659 4.70959 13.0556 4.7412 13.2136 4.7412C13.1188 8.6291 14.6676 12.2325 15.363 16.0256C15.4579 16.5945 15.9952 17.1003 16.2481 17.6692C16.9119 19.1865 17.1963 20.6721 18.1446 22.1577C18.5239 22.7583 18.5239 23.3904 18.4923 24.0542C18.4607 24.718 18.3659 25.445 18.5239 26.0772C18.998 27.6576 19.6302 28.9852 19.4722 30.2496Z" fill="#141414"/>
<path d="M15.3317 31.2613C15.3317 31.2613 15.0472 31.5774 14.6363 31.7038C14.1937 31.8302 13.7828 31.8302 13.7196 31.7038C12.6133 30.0285 12.3604 28.2268 12.2656 26.678C12.234 26.1406 12.2024 25.6349 12.1708 25.1608C12.0759 24.6234 11.9811 24.0861 11.8863 23.5487C11.665 22.474 11.3489 21.4309 10.8748 20.3878C10.7168 20.135 11.0328 19.8505 10.9696 19.5976C10.5903 17.9223 9.86332 16.3103 9.76849 14.6034C9.54723 11.5057 8.50414 8.5345 8.47253 5.40522C8.47253 4.9627 8.44092 4.55178 8.44092 4.14087C8.63057 4.17248 8.78862 4.17248 8.97827 4.20409C9.00988 4.58339 9.00988 4.93109 9.00988 5.3104C8.88344 9.26151 10.4323 12.8649 11.1277 16.658C11.2225 17.2269 11.7599 17.7327 12.0127 18.3016C12.6765 19.7873 12.9926 21.2729 13.9409 22.7585C14.6679 23.9596 13.9725 25.2872 14.2886 26.4883C14.7627 28.0372 15.3949 29.5544 15.3317 31.2613Z" fill="#141414"/>
<path d="M11.1589 32.2409C11.2537 32.3989 10.9377 32.6202 10.4951 32.7466C10.0526 32.8415 9.64169 32.8415 9.57848 32.6834C8.37734 30.5656 8.12447 28.5743 8.02964 27.1203C7.99803 26.5829 7.99803 26.172 7.93481 25.7295C7.8716 25.1921 7.77677 24.6548 7.65033 24.1174C7.42907 23.0743 7.14459 22.0312 6.63885 20.9881C6.51241 20.7353 6.7969 20.4508 6.76529 20.2295C6.35437 18.5542 5.65897 16.9738 5.56415 15.2353C5.34289 12.1693 4.29979 9.22963 4.26818 6.10035C4.26818 5.2153 4.17336 4.36186 4.23657 3.50842C4.39462 3.54003 4.55266 3.54003 4.71071 3.57164C4.71071 4.36186 4.83714 5.15208 4.80554 6.00552C4.6791 9.95663 6.22793 13.5284 6.92333 17.2899C7.01816 17.8589 7.55551 18.3646 7.80838 18.9019C8.47217 20.4192 8.75664 21.8732 9.70491 23.3272C10.0842 23.9278 10.0842 24.5599 10.0526 25.1921C9.98939 25.8243 9.86295 26.2984 10.0526 26.899C10.5267 28.3846 11.1273 30.0915 11.1589 32.2409Z" fill="#141414"/>
<path d="M7.01811 33.1892C7.08133 33.3788 6.79684 33.6317 6.35432 33.7581C5.91179 33.8529 5.50088 33.8213 5.40605 33.6317C4.11009 31.0714 3.88883 28.922 3.794 27.5312V26.8674C3.73078 26.6461 3.73078 26.5513 3.69917 26.2984C3.63595 25.7611 3.54113 25.2237 3.4463 24.718C3.22504 23.6433 2.90895 22.6318 2.43482 21.5887C2.30838 21.3674 2.59286 21.083 2.52964 20.8301C2.15034 19.1864 1.45494 17.606 1.36012 15.8991C1.23368 14.3819 0.917593 12.8963 0.633113 11.379C0.348633 9.92503 0.0641526 8.28137 0.0641526 6.79575C0.0641526 5.46818 -0.157109 4.26704 0.222198 3.00269C0.348633 3.00269 0.443459 3.00269 0.569894 3.0343C0.348632 4.26704 0.633113 5.43657 0.601504 6.73253C0.475068 10.652 2.0239 14.1922 2.68769 17.9221C2.78252 18.491 3.35148 18.9968 3.60435 19.5341C4.23653 21.0197 4.521 22.4738 5.46927 23.9278C5.84857 24.4967 5.84858 25.1289 5.81697 25.7611C5.81697 26.1088 5.75375 26.2984 5.72214 26.5513C5.72214 26.7726 5.72214 27.057 5.81697 27.3415C6.2911 28.7639 6.89167 30.6288 7.01811 33.1892Z" fill="#141414"/>
<path d="M31.9269 12.4224C32.0217 14.1925 31.4844 15.8994 31.2947 17.6695C31.2631 17.9223 31.5792 18.1752 31.4844 18.4281C31.1051 19.566 30.9154 20.6723 30.8206 21.7786C30.7574 22.3476 30.7257 22.8533 30.7257 23.4855C30.7257 24.2125 30.7573 24.8447 30.789 25.4452C30.8838 27.1205 30.7574 28.3217 30.0303 28.701C29.9671 28.7326 29.5878 28.701 29.1453 28.6061C28.7344 28.5429 28.3867 28.4481 28.3867 28.4481C27.9442 28.132 28.4815 27.1837 28.766 25.4769C28.8608 24.8131 28.6712 23.9596 28.5763 23.1378C28.4499 22.5056 28.3867 21.8418 28.7028 21.2097C29.493 19.5976 29.6194 18.0488 30.0936 16.4683C30.2832 15.8678 30.7573 15.2988 30.789 14.6982C31.0418 11.1896 31.9901 7.68106 31.8004 4.20409C31.9585 4.20409 32.0849 4.14087 32.243 4.14087C32.3694 6.89084 31.8004 9.64081 31.9269 12.4224Z" fill="#141414"/>
<path d="M38.2153 2.90808C38.1837 3.16095 38.1837 3.41382 38.1837 3.66669C38.1521 6.82758 37.0774 9.83042 36.8561 12.9913C36.7613 14.7298 36.0343 16.3419 35.655 18.0803C35.5917 18.3016 35.8762 18.6177 35.7498 18.839C35.244 19.9137 34.9596 20.9884 34.7383 22.0631C34.6119 22.6004 34.517 23.1378 34.4538 23.7067C34.359 24.3389 34.3274 24.9711 34.2958 25.54C34.201 27.1521 33.9481 28.5745 33.063 29.3331C32.9998 29.3963 32.6205 29.3331 32.178 29.2067C31.7987 29.0802 31.451 28.9538 31.451 28.8906C31.1981 28.0687 31.7987 26.994 32.2728 25.3504C32.4625 24.7182 32.3676 23.8964 32.336 23.1694C32.3044 22.5056 32.3044 21.8734 32.6837 21.2728C33.632 19.7556 33.9481 18.27 34.6119 16.7528C34.8647 16.1838 35.4021 15.6465 35.4969 15.0775C36.1923 11.2212 37.7728 7.52298 37.6463 3.60348C37.6463 3.41382 37.6463 3.22417 37.6779 3.03452C37.8676 3.00291 38.0256 2.9713 38.2153 2.90808Z" fill="#141414"/>
<path d="M42.4829 1.89636C42.4829 2.7498 42.3881 3.54002 42.3881 4.36185C42.3565 7.52274 41.2818 10.494 41.0605 13.6233C40.9657 15.3617 40.2703 16.9738 39.8594 18.6807C39.8278 18.9335 40.1122 19.218 39.9858 19.4393C39.4801 20.514 39.164 21.5571 38.9427 22.6318C38.8479 23.1691 38.7531 23.7065 38.6898 24.2754C38.595 24.8444 38.5634 25.3818 38.5318 25.9507C38.437 27.5312 38.2157 29.1432 37.2042 30.376C37.141 30.4708 36.7617 30.4392 36.3192 30.3127C35.8767 30.1863 35.529 30.0283 35.5922 29.9334C35.4341 28.6691 36.0663 27.3415 36.5088 25.7611C36.6985 25.1289 36.6037 24.4019 36.572 23.7381C36.572 23.0743 36.572 22.4421 36.9197 21.8416C37.868 20.3559 38.1525 18.8703 38.8163 17.3531C39.0692 16.7841 39.6065 16.2784 39.7013 15.7094C40.3967 11.8848 41.9772 8.21813 41.8507 4.29863C41.8191 3.54002 41.9139 2.78141 41.9456 2.0228C42.1352 2.0228 42.3249 1.95958 42.4829 1.89636Z" fill="#141414"/>
<path d="M46.5927 5.08911C46.5611 8.21839 45.4864 11.1896 45.2967 14.2873C45.1703 15.9942 44.4749 17.6062 44.0956 19.2815C44.0323 19.5344 44.3168 19.8188 44.1904 20.0717C43.7163 21.1148 43.4002 22.1579 43.1789 23.2326C43.0525 23.77 42.9892 24.3073 42.8944 24.8447C42.8312 25.3188 42.7996 25.8245 42.768 26.3619C42.6732 27.9107 42.4519 29.7124 41.3456 31.3877C41.2824 31.5141 40.8715 31.5141 40.4289 31.3877C40.018 31.2613 39.6703 31.0716 39.7335 30.9452C39.6703 29.2383 40.3025 27.7211 40.7766 26.1722C41.0927 24.9711 40.3973 23.6435 41.1243 22.4424C42.0726 20.9568 42.3887 19.4711 43.0209 17.9855C43.2737 17.4166 43.8427 16.9108 43.9375 16.3419C44.6013 12.5488 46.1817 8.94539 46.0553 4.99429C46.0553 3.6351 46.3398 2.37075 46.0869 0.979961C46.2134 0.948352 46.3082 0.916741 46.4346 0.885132C46.8455 2.33914 46.5927 3.66671 46.5927 5.08911Z" fill="#141414"/>
<path d="M50.7966 5.78442C50.7966 8.9137 49.7219 11.8533 49.5006 14.9194C49.4058 16.6579 48.6788 18.2383 48.2995 19.9136C48.2679 20.1349 48.5524 20.4193 48.4259 20.6722C47.9202 21.7153 47.6041 22.7584 47.3828 23.8015C47.288 24.3388 47.1932 24.8762 47.13 25.4135C47.0668 25.8561 47.0668 26.267 47.0352 26.8043C46.9403 28.2583 46.6875 30.2497 45.4863 32.3675C45.4231 32.5255 45.0122 32.5255 44.5697 32.4307C44.1271 32.3043 43.811 32.083 43.8743 31.925C43.8743 29.7756 44.538 28.0687 45.0122 26.5831C45.2018 25.9825 45.0438 25.5084 45.0122 24.8762C44.9806 24.244 44.9806 23.6118 45.3599 23.0113C46.3081 21.5573 46.5926 20.1032 47.2564 18.586C47.5093 18.0487 48.0466 17.5429 48.1415 16.974C48.8369 13.2125 50.3857 9.64071 50.2593 5.6896C50.196 3.76146 50.8598 2.11779 49.6271 0.0632162C49.6903 0.0316073 49.7535 0.0316089 49.8167 0C51.2391 2.11779 50.7966 3.82467 50.7966 5.78442Z" fill="#141414"/>
<path d="M53.2628 0.252679C55.2226 2.52852 54.4007 4.267 54.4956 6.3848C54.5904 10.3359 53.0732 13.8445 52.3778 17.606C52.2829 18.1749 51.7456 18.6807 51.4927 19.218C50.8289 20.7036 50.5444 22.1576 49.5962 23.6116C49.2169 24.1806 49.2169 24.8128 49.2485 25.445C49.2485 25.7927 49.3117 25.9823 49.3433 26.2352C49.3433 26.488 49.3433 26.7409 49.2485 27.0254C48.7743 28.4478 48.1738 30.3127 48.0473 32.9046C47.9841 33.0627 48.2686 33.3156 48.7111 33.442C49.1537 33.5684 49.5646 33.5052 49.6278 33.3156C50.9238 30.7869 51.145 28.6058 51.2398 27.215V26.5513C51.3031 26.33 51.3031 26.2352 51.3347 25.9507C51.3979 25.4133 51.4927 24.9076 51.5875 24.3703C51.8088 23.3272 52.1249 22.2841 52.599 21.241C52.7255 21.0197 52.441 20.7036 52.4726 20.4824C52.8519 18.8387 53.5789 17.2583 53.6737 15.5514C53.7685 14.0341 54.0846 12.5485 54.3691 11.0313C54.6536 9.5773 54.9381 7.93364 54.9381 6.44802C54.9381 4.33022 55.4754 2.56013 53.3892 0.252679C53.3892 0.252679 53.326 0.221069 53.2628 0.221069C53.1996 0.221069 53.1996 0.221069 53.1996 0.221069L53.2628 0.252679Z" fill="#141414"/>
</svg>
