<svg width="75" height="76" viewBox="0 0 75 76" fill="none" xmlns="http://www.w3.org/2000/svg">
<path d="M51.8085 28.7422V10H27.2588V30.2754L51.8085 28.7422Z" fill="#141414"/>
<path d="M59.2233 38.8521C59.2048 43.8419 58.7773 48.8411 56.603 53.2827C54.1499 58.319 49.4666 62.2217 44.0772 63.7363C38.6785 65.2602 32.6479 64.3682 27.9275 61.3483C21.4695 57.2226 17.8642 49.5752 17.1394 41.9556C17.065 41.2308 17.0279 40.5061 17 39.772C17.0465 32.9887 18.9421 25.6294 21.0421 19.413H21.2651C22.408 21.9404 24.6381 23.9568 27.2585 24.8303C29.9067 25.7223 32.9174 25.4435 35.3612 24.0869C37.5449 22.8696 39.3568 20.8161 41.8192 20.3793C44.5232 19.9054 47.0879 21.5316 49.606 22.6187C50.2936 22.9161 51.0463 23.1484 51.8082 23.2971C53.8618 23.7059 56.0083 23.4364 57.1605 21.801C57.3835 21.4851 57.5415 21.132 57.6437 20.7696C57.6623 21.0112 57.6809 21.2528 57.7087 21.4944C58.0804 26.1962 59.084 31.0374 59.1769 35.8693C59.1955 36.8543 59.2141 37.8578 59.2233 38.8521Z" fill="white"/>
<path d="M59.2235 38.2201C59.2607 43.5909 58.9448 49.0268 56.6032 53.8216C54.15 58.8579 49.4668 62.7606 44.0774 64.2752C38.6787 65.7991 32.6481 64.907 27.9277 61.8871C21.4697 57.7614 17.8644 50.114 17.1396 42.4945C17.0374 41.398 16.9909 40.2829 17.0002 39.14C17.0466 32.3568 18.9422 24.9974 21.0423 18.781C21.6091 20.054 22.5104 21.4757 23.5976 22.7023C24.6755 23.9195 25.9485 24.9324 27.2587 25.3691C29.9069 26.2612 32.9176 25.9824 35.3614 24.6257C37.545 23.4085 39.357 21.3549 41.8194 20.9182C44.5234 20.4443 47.088 22.0704 49.6062 23.1576C50.2938 23.4549 51.0465 23.6872 51.8084 23.8359C53.862 24.2448 56.0085 23.9753 57.1607 22.3399C57.3837 22.024 57.6067 21.2248 57.7089 20.8624C58.0806 25.5642 59.0841 30.4054 59.1771 35.2373C59.1957 36.2223 59.2142 37.2258 59.2235 38.2201Z" fill="#141414"/>
</svg>
