<svg width="83" height="83" viewBox="0 0 83 83" fill="none" xmlns="http://www.w3.org/2000/svg">
<path d="M30.58 209.7L40.7 -106.05L31.06 -134.5C31.06 -134.5 30.1 201.16 30.58 209.7Z" fill="#1A1A1A"/>
<path d="M19.97 209.7L30.09 -106.05L20.45 -134.5C20.45 -134.5 19.49 201.16 19.97 209.7Z" fill="#1A1A1A"/>
<path d="M9.35999 209.7L19.48 -106.05L9.83999 -134.5C9.83999 -134.5 8.87999 201.16 9.35999 209.7Z" fill="#1A1A1A"/>
<path d="M-1.25 209.7L8.87 -106.05L-0.77 -134.5C-0.77 -134.5 -1.73 201.16 -1.25 209.7Z" fill="#1A1A1A"/>
<path d="M73.7501 209.7L83.8801 -106.05L74.2301 -134.5C74.2301 -134.5 73.2701 201.16 73.7501 209.7Z" fill="#1A1A1A"/>
<path d="M63.14 209.7L73.26 -106.05L63.62 -134.5C63.62 -134.5 62.66 201.16 63.14 209.7Z" fill="#1A1A1A"/>
<path d="M52.5299 209.7L62.6499 -106.05L53.0099 -134.5C53.0099 -134.5 52.0499 201.16 52.5299 209.7Z" fill="#1A1A1A"/>
<path d="M41.92 209.7L52.04 -106.05L42.4 -134.5C42.4 -134.5 41.44 201.16 41.92 209.7Z" fill="#1A1A1A"/>
</svg>
