<svg width="55" height="32" viewBox="0 0 55 32" fill="none" xmlns="http://www.w3.org/2000/svg">
<path d="M14.6933 4.51842C10.6836 3.29156 6.52424 2.51356 2.33498 2.15448C3.29253 10.8622 1.25774 19.5399 0.0608078 28.1878C-0.0888088 29.2949 -0.0289621 30.7312 1.01835 31.0903C1.67667 31.3297 2.39483 30.9407 3.02322 30.6115C9.99535 26.8113 18.4636 25.8238 26.1539 27.9484C27.2611 24.8663 27.7698 21.5448 27.6501 18.2532C27.5903 21.7542 26.8721 25.2553 25.5555 28.487C28.1588 26.4821 30.9117 24.4174 34.1734 24.0583C36.1184 23.8489 38.0933 24.2379 40.0084 24.6568C44.0182 25.5246 48.0279 26.3924 52.0376 27.2302C53.5038 18.2233 54.4913 9.12661 55 0C52.0675 0.568543 49.165 1.34655 46.2624 2.09463C43.5095 2.81279 40.7565 3.56087 37.9736 4.27903C37.2256 4.4885 36.4176 4.69796 35.9987 5.35627C35.6695 5.83505 35.6097 6.49336 35.5798 7.09182C35.4601 9.21638 35.3404 11.3409 35.2207 13.4954C34.2632 11.4008 35.3703 8.94707 35.0112 6.70282C34.5624 4.09949 32.1685 2.1844 29.625 1.52609C27.0816 0.867776 24.3885 1.16701 21.7851 1.46624C21.845 3.71049 21.7253 7.03198 20.1992 8.73761C18.6432 6.91228 17.3266 5.29643 14.7532 4.51842H14.6933Z" fill="#141414"/>
</svg>
