<svg width="75" height="76" viewBox="0 0 75 76" fill="none" xmlns="http://www.w3.org/2000/svg">
<path d="M45.8254 10C43.9024 14.2067 42.4601 18.4535 41.3383 22.9407C39.92 28.6138 39.8399 34.6154 41.0979 40.3285C42.0514 44.6474 43.7662 48.8221 44.1588 53.2292C44.5514 57.6362 43.2934 62.5881 39.5835 65C40.0883 58.2692 38.654 51.4022 35.4809 45.4487C30.7613 36.6026 28.2373 21.3702 31.4504 10H45.8254Z" fill="#141414"/>
<path d="M32.5161 35.4807C31.218 36.1618 30.2725 37.4358 30.0081 38.8782C29.9921 38.9663 30.0081 39.0865 30.0081 39.1746C30.0081 39.407 30.0081 39.6474 30.0081 39.8798C30.0081 40.1121 30.0081 40.3525 30.0081 40.5849C30.0081 40.673 30.0321 40.7932 30.0081 40.8814C30.2725 39.439 31.218 38.165 32.5161 37.4839C32.5321 37.4759 32.5161 37.1554 32.5161 37.1874C32.5161 36.9551 32.5161 36.7147 32.5161 36.4823C32.5161 36.2499 32.5161 36.0096 32.5161 35.7772C32.5161 35.7451 32.4921 35.4887 32.5161 35.4807Z" fill="#141414"/>
<path d="M35.6572 40.6571C34.6075 44.0385 30.5771 45.8654 30.4008 49.6074C30.3688 50.2084 30.4248 51.0658 30.4008 51.5385C30.5771 47.8446 34.6155 46.0017 35.6492 42.6603C35.7373 42.3799 35.6572 41.9472 35.6572 41.6587C35.6572 41.4263 35.6572 41.186 35.6572 40.9536C35.6572 40.8735 35.6252 40.7372 35.6572 40.6571Z" fill="#141414"/>
<path d="M37.1233 46.0016C36.6345 47.1955 36.1457 48.3894 35.665 49.5753C35.6409 49.6394 35.665 49.8237 35.665 49.8718C35.665 50.1041 35.665 50.3445 35.665 50.5769C35.665 50.8093 35.665 51.0497 35.665 51.282C35.665 51.3542 35.697 51.5064 35.665 51.5785C36.1538 50.3846 36.6425 49.1907 37.1233 48.0048C37.1474 47.9407 37.1233 47.7564 37.1233 47.7083C37.1233 47.4759 37.1233 47.2356 37.1233 47.0032C37.1233 46.7708 37.1233 46.5304 37.1233 46.2981C37.1233 46.2259 37.0913 46.0737 37.1233 46.0016Z" fill="#141414"/>
<path d="M40.1762 54.9119C39.1105 55.6571 38.0448 56.4023 36.9711 57.1474C36.5464 57.4439 35.9374 57.7484 35.7291 58.2532C35.5849 58.6138 35.649 59.0785 35.649 59.4471C35.649 59.8157 35.649 60.1843 35.649 60.5449C35.649 60.6731 35.673 60.7773 35.7291 60.8974C35.7131 60.8574 35.7291 60.617 35.7291 60.601C35.7291 60.3686 35.7291 60.1282 35.7291 59.8958C35.7291 59.6635 35.7291 59.4231 35.7291 59.1907C35.7291 59.1106 35.7531 58.9664 35.7291 58.8942C35.681 58.8061 35.657 58.718 35.657 58.6138V60.5449C35.681 60.1042 36.0336 59.8077 36.3701 59.5673C36.7868 59.2708 37.2034 58.9824 37.6201 58.6939C38.4695 58.101 39.3188 57.508 40.1682 56.9151C40.1842 56.899 40.1682 56.5946 40.1682 56.6186C40.1682 56.3862 40.1682 56.1458 40.1682 55.9135C40.1682 55.6811 40.1682 55.4407 40.1682 55.2083C40.1682 55.1683 40.1442 54.9279 40.1682 54.9119H40.1762Z" fill="#141414"/>
<path d="M42.6438 55.3286C43.0525 55.5609 43.2929 55.9616 43.4692 56.3863C43.7015 56.9391 43.8698 57.5161 44.0701 58.077C44.4948 59.2869 44.9195 60.4968 45.3442 61.7148C45.3281 61.6587 45.3442 61.4584 45.3442 61.4183C45.3442 61.1859 45.3442 60.9456 45.3442 60.7132C45.3442 60.4808 45.3442 60.2404 45.3442 60.0081C45.3442 59.9199 45.3682 59.7917 45.3442 59.7116C44.9195 58.5016 44.4948 57.2917 44.0701 56.0738C43.8778 55.5289 43.7015 54.968 43.4852 54.4311C43.3089 53.9904 43.0685 53.5738 42.6438 53.3334C42.6438 53.3334 42.6438 53.6699 42.6438 53.6298C42.6438 53.8622 42.6438 54.1026 42.6438 54.335C42.6438 54.5673 42.6438 54.8077 42.6438 55.0401C42.6438 55.0802 42.6278 55.3206 42.6438 55.3366V55.3286Z" fill="#141414"/>
<path d="M39.7033 37.4839C40.6247 38.4054 41.5783 39.3108 42.4677 40.2644C42.8443 40.673 43.2049 41.0977 43.4853 41.5785C43.6135 41.8028 43.7337 42.0352 43.8219 42.2836C43.8699 42.4118 43.902 42.54 43.934 42.6762C43.9501 42.7483 43.9661 42.8205 43.9741 42.9006C43.9741 42.9326 43.9821 42.9567 43.9821 42.9887C44.0382 43.5336 44.0462 43.0448 43.9901 41.5384C43.9821 41.9951 43.9901 42.4519 43.9901 42.9086C43.9901 43.0128 43.942 43.2852 43.9901 43.3653C44.0222 43.4134 43.9901 43.3493 43.9901 43.2612C44.0062 42.6041 44.0062 41.9471 43.9901 41.298C43.9821 40.9935 43.942 40.6971 43.8459 40.4086C43.6536 39.7836 43.277 39.2307 42.8683 38.7339C42.4276 38.2051 41.9308 37.7243 41.4501 37.2355L39.6953 35.4807C39.6953 35.4807 39.6953 35.8012 39.6953 35.7772C39.6953 36.0096 39.6953 36.2499 39.6953 36.4823C39.6953 36.7147 39.6953 36.9551 39.6953 37.1874C39.6953 37.2435 39.6712 37.4439 39.6953 37.4839H39.7033Z" fill="#141414"/>
</svg>
