<svg width="55" height="26" viewBox="0 0 55 26" fill="none" xmlns="http://www.w3.org/2000/svg">
<path d="M31.0728 22.4907C30.6297 20.4411 31.239 18.2806 32.6239 16.7296C34.175 15.0677 36.3908 14.2921 38.2743 12.9626C39.9916 11.7439 41.3211 10.0267 42.5952 8.36478C44.7556 5.59498 46.916 2.76979 49.0765 0C50.3506 0.110792 51.4585 1.16331 51.6801 2.38202C51.7355 2.76979 51.7355 3.15757 51.9571 3.43454C52.3448 4.0993 53.342 4.0439 54.0067 4.43167C55.0038 4.98563 55.2254 6.37053 54.7823 7.42305C54.3391 8.47557 53.5082 9.25111 52.6772 10.0267C50.129 12.3533 47.747 14.8461 45.5311 17.4497C48.2455 17.7821 50.8491 18.7238 53.2312 20.1087C48.8549 23.1001 43.7585 25.0943 38.5513 25.8699" fill="#141414"/>
<path d="M13.6777 19.4439C13.1791 17.0619 13.6777 14.5691 13.7331 12.1317C13.7885 9.69424 13.1791 6.97984 11.1295 5.59494C9.79999 4.70861 8.08271 4.59782 6.53163 4.37624C4.98054 4.15465 3.20788 3.5453 2.43233 2.1604C2.65392 4.93019 1.32442 7.5892 0.438082 10.2482C-0.00508514 11.5777 -0.33746 13.1842 0.60427 14.1813C0.992041 14.6245 1.6014 14.8461 2.04456 15.2338C2.8755 15.8432 3.31867 16.7849 3.92802 17.6159C4.53738 18.4468 5.31292 19.2223 6.31005 19.3331" fill="#141414"/>
<path d="M12.6792 24.319C14.2856 20.6629 10.0756 13.8492 12.6792 10.6362C13.9533 9.36211 18.108 15.4003 19.7144 15.511C24.9771 15.788 28.0792 17.5053 24.3677 20.6629C23.149 21.937 21.5979 23.3773 20.1576 24.5406" fill="#141414"/>
</svg>
