<svg width="55" height="42" viewBox="0 0 55 42" fill="none" xmlns="http://www.w3.org/2000/svg">
<path d="M20.6814 34.5452C19.6945 32.4427 21.1319 29.761 19.3727 27.9803C20.5956 28.5596 21.5825 29.4821 22.0974 30.5548C21.8185 28.6454 19.8018 27.208 17.6779 26.264C15.554 25.3201 13.2155 24.6765 11.3919 23.4321C9.4611 22.102 8.3026 20.2141 7.22991 18.3691C4.65546 13.9067 2.25264 9.37993 0 4.81028C5.10599 3.95213 10.7483 5.56116 13.9878 8.80068C14.6529 7.94253 14.9533 6.91275 14.8674 5.90442C18.0212 6.86984 21.5181 6.07605 24.822 5.56116C28.1259 5.04627 32.0305 4.98191 34.3475 6.9342C35.8492 5.56116 38.1448 4.76738 40.4189 4.85319L40.5047 3.7376C42.9504 3.41579 45.3532 2.87944 47.6702 2.17147C46.8121 3.1798 45.482 6.09751 45.3532 7.32037C45.439 4.46702 49.408 0.133365 53.0122 0.0046422C53.57 -0.0168116 54.1922 0.026096 54.5998 0.347902C55.3936 0.948607 54.8572 1.97839 54.278 2.70781C50.5879 7.32037 46.1899 11.5897 43.1435 16.4811C40.0971 21.3726 38.4666 27.1651 40.7621 32.314C38.9171 32.078 38.9386 31.1984 39.6465 29.8468C41.1698 32.7431 34.4333 31.4129 34.7551 34.5237C34.8194 34.159 34.5835 37.0124 34.1329 37.0767C33.6824 37.1411 33.3391 37.4414 33.0388 37.7203C31.6014 39.0076 30.1425 40.2948 28.748 41.6035C27.2892 40.7882 26.667 39.029 24.9936 38.0207C23.3202 37.0124 21.4323 36.1971 20.6814 34.5666V34.5452Z" fill="#141414"/>
</svg>
