<svg width="55" height="19" viewBox="0 0 55 19" fill="none" xmlns="http://www.w3.org/2000/svg">
<g clip-path="url(#clip0_722_515)">
<path d="M27.5 2.19706C31.205 2.19706 35.9528 0.75 40.2661 0.75C47.9954 0.75 55 5.67141 55 9.4347C55 13.198 49.1815 15.6296 42.0312 16.903C37.3125 17.7431 32.0439 18.1194 27.5 18.1194C22.9561 18.1194 17.6875 17.7431 12.9688 16.903C5.81854 15.6284 0 13.2842 0 9.4347C0 5.58519 7.00578 0.75 14.7339 0.75C19.0472 0.75 23.795 2.19706 27.5 2.19706Z" fill="#222222"/>
<path d="M27.4999 9.90075C21.6662 9.90075 18.7558 8.46418 18.6346 8.40359C18.4051 8.28708 18.3131 8.00746 18.4284 7.77793C18.5449 7.54841 18.8245 7.45636 19.0541 7.57171C19.082 7.58569 21.9144 8.96984 27.4999 8.96984C33.0854 8.96984 35.9178 7.58569 35.9458 7.57171C36.1753 7.45636 36.4561 7.54957 36.5714 7.7791C36.6868 8.00862 36.5947 8.28825 36.3652 8.40359C36.244 8.46418 33.3336 9.90075 27.4999 9.90075Z" fill="white"/>
</g>
<defs>
<clipPath id="clip0_722_515">
<rect width="55" height="17.3682" fill="white" transform="translate(0 0.75)"/>
</clipPath>
</defs>
</svg>
