<svg width="83" height="83" viewBox="0 0 83 83" fill="none" xmlns="http://www.w3.org/2000/svg">
<path d="M-82 -42.5901L-80.87 -45.4801C-80.16 -43.0301 -79.18 -40.6201 -76.7 -39.4801C-72.44 -37.5101 -69.4701 -39.6201 -65.6901 -41.2001C-63.8001 -41.9901 -61.81 -42.5601 -60.01 -43.5701C-57.52 -44.9701 -55.74 -47.4401 -53.33 -48.9701L-29.41 -49.0001C-29.29 -48.6201 -29.16 -48.2601 -28.82 -48.0201C-27.64 -47.1901 -25.29 -47.6601 -23.84 -47.5301C-22.72 -47.4301 -21.49 -47.0201 -20.39 -46.8501C-19.02 -46.6301 -17.53 -46.5501 -16.19 -46.3001C-11.73 -45.5001 -6.59004 -42.9401 -2.74004 -40.6301C-1.91004 -40.1301 -0.250044 -38.8701 0.509956 -38.6301C2.29996 -38.0601 3.82996 -39.3501 3.07996 -41.2001C2.57996 -42.4301 0.699953 -42.8301 -0.400047 -43.4001C-3.28005 -44.8801 -6.05005 -46.5901 -9.05005 -47.8601L-11.9 -49.0001H-2.35004C-1.84004 -49.0001 2.46996 -46.1201 3.11996 -45.5901C5.27996 -43.8201 6.10995 -41.9801 7.56995 -39.7201C8.68995 -37.9801 10.01 -36.2501 10.9 -34.3801C11.46 -33.2001 11.91 -31.1001 12.99 -30.3801C13.97 -29.7201 15.56 -29.8601 16 -31.0701C16.65 -32.8501 15.23 -33.9601 14.38 -35.2801C13.36 -36.8701 12.44 -38.6701 11.43 -40.3001C9.44995 -43.5001 7.62996 -46.7401 4.50996 -49.0001H9.09995C9.09995 -49.0001 9.29995 -48.7901 9.45995 -48.7401C9.96995 -48.5901 10.77 -48.5101 11.24 -48.7901C11.35 -48.8601 11.3 -48.9901 11.31 -48.9901H16.78C16.35 -48.5501 15.87 -48.1301 15.37 -47.7701C14.21 -46.9401 12.92 -46.6101 12.58 -44.9901C12.36 -43.9201 13.39 -42.8101 14.47 -42.8001C16.1 -42.7701 17.14 -44.5001 18.18 -45.4901C19.44 -46.6901 20.83 -47.7901 22.1 -48.9901H27.11C26.58 -47.8001 26.9 -46.5301 28.22 -46.1301C29.54 -45.7301 30.34 -46.3401 31.51 -46.6101C35.16 -47.4401 38.56 -45.9901 42.13 -46.1001C42.81 -46.1201 43.56 -46.2701 44.2 -46.3101C45.25 -46.3701 46.98 -46.2601 47.91 -46.4201C48.05 -46.4401 48.8999 -46.7601 49.0399 -46.8401C49.7399 -47.2401 50.0299 -48.2301 49.9299 -48.9901H53.85C54.63 -46.3201 56.9799 -42.8901 55.7899 -40.0801C54.7699 -37.6701 50.9 -36.3601 48.8 -34.9901C47.54 -34.1701 44.18 -31.1801 43.76 -29.8201C43.36 -28.5501 43.84 -27.1201 45.33 -27.0601C47.39 -26.9901 47.63 -28.8001 48.64 -30.0901C50.07 -31.9001 52.63 -32.9701 54.56 -34.1801C59.45 -37.2601 60.8099 -39.6501 58.9799 -45.5001C58.6099 -46.6801 58.04 -47.8101 57.67 -48.9901H61.8C63.07 -45.4101 63.22 -41.1501 67.14 -39.4201C71.45 -37.5201 75.0699 -39.9601 78.9299 -41.6101C80.3099 -42.2001 81.79 -42.5901 83.13 -43.3001C85.86 -44.7401 87.7399 -47.2601 90.2599 -48.9701L113.99 -49.0001C114.42 -49.0401 114.34 -48.6101 114.51 -48.3801C115.38 -47.2001 117.14 -47.6701 118.32 -47.6601C120.05 -47.6401 121.64 -47.0901 123.28 -46.8301C124.92 -46.5701 126.64 -46.4901 128.22 -46.2001C131.89 -45.5301 138.14 -42.4601 141.38 -40.4601C142.71 -39.6401 144.65 -37.6001 146.25 -38.9301C147.4 -39.8801 147.04 -41.3401 145.93 -42.1201C145.29 -42.5701 144.45 -42.8701 143.79 -43.2001C140.7 -44.7701 137.59 -46.4901 134.4 -47.9301L131.7 -49.0001H141.35C141.58 -49.0001 144.95 -46.9701 145.4 -46.6501C148.71 -44.3401 149.63 -42.2601 151.69 -39.0001C152.51 -37.7001 153.49 -36.4901 154.21 -35.1201C155.03 -33.5701 155.69 -30.2101 157.66 -30.0001C158.72 -29.8901 159.16 -30.1701 159.59 -31.0601C159.63 -31.1401 159.75 -31.1301 159.78 -31.2201C160.27 -32.7301 158.68 -34.2801 157.95 -35.4501C155.37 -39.5701 153.17 -44.5501 149.52 -47.8701L148.11 -49.0001H152.81C152.87 -49.0001 153.37 -48.6001 153.85 -48.5801C154.41 -48.5701 155.02 -49.0001 155.08 -49.0001H160.5C159.4 -47.5301 156.26 -46.8401 156.26 -44.7201C156.26 -43.7301 157.19 -42.8201 158.18 -42.8101C159.8 -42.8001 160.85 -44.5801 161.88 -45.5601C162.73 -46.3601 163.67 -47.0801 164.53 -47.8701V-38.9901C164.21 -39.1601 164.2 -39.5801 164.01 -39.8701C163.28 -40.9801 162 -41.7001 160.81 -40.8001C160.15 -40.3001 160.01 -39.6601 160.12 -38.8601C160.28 -37.6301 161.43 -36.7401 162.09 -35.7801C163.03 -34.4201 163.7 -32.8301 164.52 -31.4001L164.48 -12.9801C162.24 -7.95008 160.91 -1.78008 157.3 2.43992C155.59 4.43992 153.55 6.36992 152.1 8.58992C151.37 9.70992 150.86 11.8199 152.28 12.6299C153.7 13.4399 154.94 12.4999 155.53 11.1899C156.15 9.78992 156.28 8.99992 157.28 7.67992C159.68 4.50992 163.07 2.23992 163.92 -2.10008L164.54 -3.39008V6.35992C160.55 8.69992 157.27 13.6399 159.06 18.3399C159.91 20.5599 162.09 22.0199 163.56 23.7499C163.7 23.9099 164.54 24.9599 164.54 25.0399V45.7299C163.49 44.2699 162.39 43.0099 160.67 42.3199C157 40.8499 153.69 42.6299 150.14 42.9399C148.06 43.1199 145.73 42.7999 143.63 42.9399C140.46 43.1499 137.4 45.0899 134.24 45.3199C128.34 45.7499 126.69 44.2999 122.43 40.9199C120.96 39.7499 119.32 38.6499 118.19 37.0899C117.06 35.5299 116.43 33.7599 115.09 32.2599C112.91 29.8099 109.69 28.6099 107.29 26.4399C106.04 25.3099 105.06 23.9299 103.9 22.7599C102.31 21.1499 100.57 20.0799 99.46 17.9599C99.02 17.1199 98.82 16.0899 98 15.4999C97.3 14.9899 96.59 14.8299 95.81 15.2699C94.45 16.0499 94.7399 17.4599 95.3999 18.6099C97.2499 21.7799 99.79 23.5699 102.24 26.0599C103.25 27.0899 104.09 28.3499 105.15 29.3199C107.52 31.5099 110.81 32.3799 112.81 35.0799C114.52 37.3999 115 39.2699 117.35 41.3499C119.05 42.8599 121.22 44.4899 123.02 45.8899C126.41 48.5199 130.15 49.0599 134.43 48.8299C138.16 48.6199 140.97 46.5999 144.54 46.4499C146.13 46.3799 147.78 46.6799 149.4 46.5599C152.45 46.3199 156.54 44.5499 159.43 45.9199C161.88 47.0799 162.93 50.7599 164.52 52.7999V60.1799C164.4 60.1799 164.35 60.0399 164.29 59.9399C162.89 57.6099 161.6 55.1099 159.77 53.1099C158.85 52.0999 155.67 49.2799 154.44 48.9399C153.63 48.7199 152.52 48.8499 152.02 49.5999C151.93 49.7299 151.61 50.4999 151.6 50.6299C151.58 50.8699 151.79 51.3499 151.9 51.5799C152.55 52.8799 154.02 53.0499 155.15 53.7999C159.59 56.7199 161.74 63.1099 163.74 67.7099C163.85 67.9599 164.51 69.0299 164.51 69.0999V75.8599C163.76 75.7599 163.17 75.4099 162.39 75.3499C158.44 75.0199 155.58 76.6599 153.93 80.1999C152.8 82.5999 152.53 84.7999 150.21 86.4999C148.61 87.6699 145.19 88.0499 145.64 90.6599C145.97 92.5799 148.18 92.1899 149.43 91.3999C150.68 90.6099 153.44 88.6499 154.26 87.6099C156.46 84.8099 156.75 78.9599 161.37 79.0299C162.53 79.0499 163.45 79.5399 164.52 79.8999V85.3699C163.11 85.0099 161.9 84.1899 160.35 84.3499C158.94 84.4999 158.05 85.8599 158.61 87.1899C159.24 88.6999 161.01 88.5299 162.39 88.5699L164.51 89.1799V93.6199C163.71 93.2899 162.92 92.9299 162.08 92.6999C158.6 91.7399 156.41 92.1999 153.16 93.4699C149.16 95.0299 145.59 96.7999 141.77 98.6999C140.75 99.2099 139.55 99.5899 138.53 100.11C134.77 102.03 131.59 105.46 129 108.75C125.58 113.11 123.58 118.02 121.56 123.14H117.02C118.02 120.95 119.12 118.81 120.13 116.62C121.56 113.53 122.57 110.2 124.77 107.51C127.1 104.66 130.19 102.21 132.46 99.4099C135.5 95.6499 134.95 91.5799 135.41 87.0899C135.56 85.5899 136.54 82.8699 135.26 81.6899C134.13 80.6399 132.32 81.4199 132.04 82.8899C131.74 84.4899 132.01 87.2199 131.89 89.0399C131.63 92.8199 131.44 95.2699 128.85 98.1799C125.96 101.43 121.39 104.99 119.56 108.91C118.86 110.4 118.42 112.04 117.83 113.58L113 123.15H107.53C108 122.48 108.56 121.86 109.01 121.17C110.47 118.95 111.49 116.34 113.11 114.24C114.09 112.96 116.17 111.7 115.26 109.79C114.95 109.13 114.39 108.89 113.68 108.89C112.81 108.89 112.26 109.29 111.73 109.94C110.81 111.08 109.68 113.08 108.87 114.39C105.99 119.02 104.71 123.76 98.1 122.62C97.6 122.53 97.1 122.27 96.53 122.23C95.74 122.17 94.69 122.36 94.32 123.15H91.1199C91.2999 122.26 91.69 121.29 92.06 120.45C93.01 118.26 94.2699 115.53 95.4799 113.42C96.2599 112.06 97.26 110.8 98.03 109.44C99.2 107.39 100.46 103.47 102.28 102.16C104.1 100.85 105.74 101.37 107.75 101.02C109.97 100.64 109.86 97.4799 107.59 97.2499C106.1 97.0999 102.4 97.8699 101.04 98.5399C97.7499 100.14 96.4999 105.03 94.7599 108.05C94.2299 108.98 93.52 109.86 92.99 110.74C90.69 114.56 88.88 118.95 87.41 123.15H78.94C78.3 122.62 77.51 122.28 76.8 121.84C73.01 119.5 71.1999 118.03 66.3999 118.3C65.5599 118.35 64.67 118.63 63.92 118.71C62.58 118.85 59.94 118.8 58.84 119.2C57.5 119.69 57.04 121.36 58.09 122.38C58.86 123.12 60.2699 122.9 61.2299 122.73C65.15 122.02 67.72 121.25 71.63 122.89C71.79 122.96 71.9899 122.88 71.9299 123.15H54.7899C54.8799 121.91 54.82 120.57 53.47 120.09C51.57 119.41 50.4999 121.54 50.8699 123.15H47.67C47.67 122.82 47.52 122.43 47.38 122.15C46.41 120.23 43.66 121.11 43.75 123.15H21.76C20.75 122.3 20.2 121.08 19.73 119.87C19.01 118.03 18.77 116.43 18.33 114.56C18.12 113.67 17.5 112.34 16.42 112.34C14.34 112.33 14.05 113.83 14.54 115.56C14.94 116.98 15.58 118.67 16.05 120.14C16.37 121.16 16.78 122.14 17.11 123.16H12.57C12.26 120.97 11.46 118.83 11.33 116.6C11.2 114.37 11.61 112.59 11.84 110.41C12.05 108.38 11.7 106.79 11.43 104.84C11.29 103.8 11.49 102.94 10.93 101.93C10.22 100.63 8.27995 100.39 7.51995 101.76C6.75995 103.13 7.74996 104.68 8.04996 106.04C8.66996 108.83 7.98995 111.12 7.80995 113.82C7.59995 116.96 8.33996 120.11 8.93996 123.16H4.80995C4.72995 122.49 4.76995 121.71 4.69995 121.05C4.50995 119.44 4.06996 117.82 3.97996 116.19C3.81996 113.17 4.30996 110.18 4.39996 107.21C4.43996 105.84 4.38995 103.96 2.56995 103.89C0.919954 103.82 0.199951 105.31 0.379951 106.78C0.649951 109.13 0.649956 110.32 0.509956 112.69C0.339956 115.72 0.689956 117.21 1.07996 120.12C1.20996 121.12 1.16996 122.15 1.29996 123.15H-2.42004C-2.31004 122.46 -1.94005 121.83 -1.91005 121.14C-1.84005 119.9 -2.47005 118.78 -3.82005 118.81C-5.93005 118.87 -5.94005 121.6 -6.14005 123.15H-10.27C-9.77004 121.48 -9.06004 119.73 -8.10004 118.27C-6.92004 116.48 -2.53005 112.15 -2.32005 110.4C-2.05005 108.06 -4.56005 107.33 -5.93005 109.06C-7.11005 112.08 -9.64004 114.15 -11.28 116.82C-12.47 118.75 -13.3 120.99 -13.98 123.15H-18.32C-16.82 119.48 -15.36 115.81 -13.1 112.53C-9.74004 107.66 -6.64005 104.9 -1.41005 102.21C2.33995 100.28 6.78996 98.1899 10.79 96.7799C13 95.9999 14.85 95.4399 17.23 96.0099C25.03 97.8999 23.47 107.23 29.17 111.32C32.77 113.9 36.14 112.39 39.91 111.55C44.93 110.43 50.05 109.74 55.11 109.1C55.61 109.04 56.16 108.85 56.67 108.8C58.23 108.68 60.9 109.18 61.61 107.34C61.87 106.68 61.7999 106.19 61.3999 105.61C61.1999 105.32 60.58 104.88 60.25 104.8C59.4 104.58 57.8899 105.03 56.9799 105.2C51.6199 106.2 46.1 106.61 40.75 107.76C35.4 108.91 31.68 111.17 28.69 105.18C27.34 102.46 26.94 99.3399 24.96 96.9399C22.17 93.5699 16.97 91.4299 12.67 92.4899C7.80995 93.8099 3.31995 96.1599 -1.18005 98.3599C-4.44005 99.9499 -6.84005 100.72 -9.62005 103.24C-13.88 107.09 -17.17 111.74 -19.55 116.95C-20.47 118.97 -21.31 121.07 -22.05 123.17H-26.59C-25.79 120.95 -24.5101 118.93 -23.5201 116.79C-22.0701 113.66 -21.24 110.4 -19.05 107.66C-16.08 103.94 -10.08 99.8099 -9.05005 95.1299C-8.40005 92.1799 -8.49005 88.8699 -8.11005 85.8499C-7.98005 84.7999 -7.68005 84.0999 -7.80005 82.9499C-7.89005 81.9899 -8.75005 81.2499 -9.72005 81.2399C-10.32 81.2399 -11.04 81.5699 -11.34 82.0999C-11.4 82.1999 -11.71 82.9699 -11.73 83.0599C-11.94 84.2199 -11.69 86.2999 -11.73 87.5999C-11.87 91.5699 -12 94.8699 -14.68 97.9699C-18.14 101.98 -22.5701 105.03 -24.6501 110.09C-24.9801 110.88 -25.2 111.82 -25.53 112.62C-26.9 115.99 -28.82 119.38 -30.48 122.64C-30.57 122.81 -30.67 122.93 -30.64 123.15H-36.21L-35.2401 122C-33.3901 119.21 -32.09 116.14 -29.96 113.55C-29.51 113 -28.8001 112.49 -28.4901 111.82C-28.1201 111.02 -28.09 110.41 -28.5 109.62C-29.06 108.54 -31.07 108.77 -31.76 109.68C-32.89 111.43 -34.12 113.13 -35.21 114.9C-37.46 118.55 -38.96 123.18 -44.19 122.83C-45.82 122.72 -48.2301 121.33 -49.3101 123.15H-52.6101C-52.4101 122.47 -52.16 121.79 -51.89 121.14C-50.65 118.18 -49.1801 115.04 -47.5401 112.3C-46.8601 111.16 -46.0201 110.07 -45.3601 108.88C-43.9601 106.34 -42.99 102.31 -39.92 101.41C-38.2 100.91 -34.25 101.82 -34.32 99.0499C-34.34 98.2699 -35.0001 97.4499 -35.7701 97.2899C-37.2501 96.9799 -41.3 97.8599 -42.69 98.5299C-45.17 99.7299 -45.9701 102.09 -47.0801 104.36C-48.9601 108.2 -51.3 111.5 -53.14 115.33C-54.34 117.83 -55.51 120.46 -56.22 123.14H-64.6901C-66.7701 121.96 -68.83 120.4 -70.98 119.37C-72.1 118.83 -73.39 118.37 -74.64 118.29C-77.17 118.12 -79.55 118.66 -82.03 118.91V115.3C-80.07 114.78 -77.94 114.26 -76.51 112.72C-74 110.03 -74.05 103.3 -76.41 100.54C-77.84 98.8599 -79.9 98.2199 -82.04 97.9599V93.9299C-80.11 93.8699 -78.22 94.2399 -76.36 94.6999C-75.4 94.9399 -74.39 95.5299 -73.31 95.3799C-72.95 95.3299 -72.13 94.8999 -71.92 94.6099C-70.83 93.1099 -71.9 91.2199 -73.63 91.0499C-74.63 90.9499 -75.78 91.0599 -76.82 90.9399C-77.01 90.9199 -77.16 90.7699 -77.35 90.7499C-78.91 90.5599 -80.47 90.3199 -82.04 90.3299V84.2399C-79.36 86.9199 -75.03 87.3499 -71.9 85.1699C-68.6 82.8699 -67.0801 79.8099 -64.7901 76.7699C-62.7401 74.0599 -59.1201 72.4099 -56.6901 69.9599C-55.7101 68.9699 -54.9301 67.7099 -54.0201 66.6899C-53.2501 65.8199 -51.26 64.3399 -50.9 63.4099C-50.54 62.4799 -50.81 61.1599 -51.83 60.7899C-54 60.0099 -55.03 62.5099 -56.13 63.8499C-57.31 65.2899 -58.86 67.2199 -60.21 68.4399C-62.12 70.1699 -64.55 71.2099 -66.36 73.1299C-69.18 76.1299 -72.98 85.1199 -78.37 82.4599C-79.95 81.6799 -80.9 79.9099 -82.05 78.6499V73.3899C-80.25 74.4599 -79.15 73.2899 -78.61 71.6099C-77.87 69.3099 -77.2 66.9499 -76.5 64.6299C-76.17 63.5399 -75.25 61.6399 -75.46 60.5599C-75.7 59.2999 -76.81 58.6599 -78.02 59.0899C-79.51 59.6199 -79.34 61.6399 -79.59 62.8799C-79.93 64.5599 -80.74 66.9899 -81.45 68.5499C-81.59 68.8499 -81.83 69.3099 -82.04 69.5599V59.3399C-81.47 58.5399 -81 57.6699 -80.43 56.8699C-78.19 53.6999 -76.14 51.8599 -73.37 49.2799C-69.25 45.4399 -69.74 41.3699 -68.28 36.3099C-67.59 33.9299 -66.4901 31.7199 -65.7001 29.3899C-64.5001 25.8399 -64.43 23.1799 -62.06 20.0299C-61.17 18.8499 -58.8601 16.8299 -58.7001 15.4399C-58.4801 13.3599 -60.7601 12.4699 -62.2001 13.8999C-62.8101 14.4999 -63.06 15.4499 -63.47 16.1399C-64.47 17.8099 -66 19.1399 -66.83 20.9299C-67.71 22.8099 -67.97 24.9499 -68.58 26.9199C-69.27 29.1199 -70.4 31.2599 -71.12 33.4699C-72.09 36.4699 -72.39 39.5499 -73.24 42.4999C-74.51 46.9099 -77.48 47.7199 -80.23 50.7899C-80.88 51.5099 -81.4 52.3299 -82.04 53.0599V21.9899C-80.55 21.9899 -79.3 21.0599 -77.97 20.5399C-75.3 19.5099 -71.76 18.8399 -69.5 17.1399C-68.83 16.6399 -68.27 15.9799 -67.66 15.4199C-66.85 14.6899 -65.81 14.1599 -65.38 12.9999C-64.8 11.4099 -66.02 9.96992 -67.72 10.3499C-68.95 10.6199 -69.74 12.4299 -70.53 13.3199C-72.2 15.1699 -76.21 16.3899 -78.62 17.0999C-79.73 17.4299 -80.88 17.6599 -82.04 17.6499V13.8299C-80.02 13.5699 -78.08 12.8099 -76.12 12.2699C-75.17 12.0099 -73.9 11.9699 -73.06 11.3999C-71.76 10.5099 -71.79 8.43992 -73.42 7.94992C-74.84 7.52992 -76.76 8.81992 -78.17 9.27992C-79.39 9.67992 -80.78 9.99992 -82.03 10.2199V6.29992C-81.28 6.09992 -80.49 6.03992 -79.74 5.85992C-75.47 4.82992 -74.44 3.96992 -70 5.67992C-65.56 7.38992 -61.6 9.58992 -57.17 10.9099C-47.7 13.7299 -39.2901 11.6899 -33.7201 3.22992C-30.6601 -1.42008 -32.9 -5.64008 -35.66 -9.77008C-37.05 -11.8601 -38.66 -13.4301 -40.21 -15.3401C-41 -16.3201 -42.15 -18.6401 -43.32 -18.9401C-44.91 -19.3401 -46.0301 -18.2701 -45.7901 -16.6801C-45.5801 -15.2701 -43.7301 -14.0301 -42.8101 -13.0601C-40.4901 -10.6101 -35.89 -4.91008 -35.89 -1.49008C-35.89 2.13992 -40.59 6.01992 -43.64 7.37992C-52.31 11.2599 -61.48 4.99992 -69.39 2.05992C-73.88 0.389921 -75.38 1.12992 -79.7 2.28992C-80.46 2.48992 -81.27 2.60992 -82.04 2.78992V-0.720081C-80.68 -0.790081 -79.27 -0.370079 -78.32 -1.60008C-77.84 -2.22008 -77.84 -2.78008 -78.16 -3.51008C-78.4 -4.04008 -78.89 -4.36008 -79.43 -4.51008C-80.29 -4.74008 -81.21 -4.65008 -82.03 -4.34008V-8.16008C-79.71 -7.91008 -77.69 -7.08008 -75.76 -5.81008C-74.02 -4.67008 -72.67 -3.60008 -70.74 -2.67008C-67.33 -1.03008 -63.36 0.559918 -59.83 2.00992C-57.74 2.85992 -55.17 3.94992 -52.96 4.32992C-52.23 4.45992 -51.36 4.43992 -50.6 4.54992C-49.2 4.75992 -47.36 5.43992 -46.03 4.76992C-44.7 4.09992 -44.83 1.86992 -46.21 1.28992C-47.28 0.839921 -49.4401 1.23992 -50.6901 1.11992C-53.6101 0.849919 -56.64 -0.480079 -59.32 -1.60008C-62.3 -2.84008 -65.57 -4.19008 -68.48 -5.55008C-70.71 -6.60008 -72.47 -7.98008 -74.53 -9.20008C-76.82 -10.5501 -79.38 -11.3801 -82.03 -11.6601V-15.4801C-81.48 -14.7901 -80.78 -14.6101 -79.92 -14.5501C-79.34 -14.5101 -78.7 -14.6601 -78.19 -14.6301C-74.79 -14.4701 -71.04 -11.3801 -68.02 -9.84008C-63.47 -7.51008 -58.72 -5.90008 -54.17 -3.77008C-53.04 -3.24008 -51.8801 -2.23008 -50.6101 -2.17008C-47.9501 -2.04008 -47.79 -5.06008 -50.01 -6.07008C-50.62 -6.35008 -51.4 -6.44008 -51.99 -6.67008C-56.57 -8.39008 -61.25 -10.4901 -65.64 -12.6301C-69.79 -14.6601 -72.73 -17.3501 -77.46 -18.2501C-78.68 -18.4801 -80.66 -18.8301 -81.67 -17.9701C-81.81 -17.8501 -81.9 -17.6801 -82.03 -17.5601V-21.3801C-81.19 -21.7801 -80.39 -22.2801 -79.47 -22.4901C-75.77 -23.3301 -71.13 -20.9601 -68.35 -18.6001C-67.14 -17.5701 -65.77 -15.1801 -63.84 -16.0201C-63.76 -16.0501 -63.75 -16.1701 -63.68 -16.2201C-63.59 -16.2801 -63.4401 -16.2801 -63.3701 -16.3501C-63.3001 -16.4201 -63.31 -16.5701 -63.24 -16.6601C-63.19 -16.7301 -63.0701 -16.7401 -63.0401 -16.8201C-62.5301 -18.0001 -63.1201 -19.0701 -64.0201 -19.8301C-65.2901 -20.9101 -67.31 -22.2101 -68.74 -23.1401C-72.17 -25.3601 -75.77 -27.0401 -79.99 -26.1001C-80.68 -25.9501 -81.35 -25.5801 -82.03 -25.4101V-30.0501C-80.37 -31.0701 -78.67 -31.4301 -76.71 -31.2901C-74.2 -31.1001 -69.79 -28.4901 -67.54 -27.1401C-64.65 -25.4101 -60.8001 -22.5701 -59.9501 -19.1501C-59.5201 -17.4201 -59.71 -15.8701 -59.51 -14.2201C-59.34 -12.8101 -58.04 -11.8801 -56.65 -12.3701C-54.6 -13.1001 -55.78 -15.7701 -56.08 -17.2301C-56.4 -18.7701 -56.56 -20.4901 -57.14 -21.9501C-58.24 -24.7301 -62.73 -28.5001 -65.31 -29.9901C-67.22 -31.1001 -69.44 -32.4101 -71.39 -33.4101C-74.6 -35.0601 -78.66 -35.8101 -82.03 -34.1801V-42.5901H-82ZM7.36996 -31.9901C8.11996 -32.7901 7.91996 -34.3001 7.03996 -34.9501C5.79996 -35.8701 3.20995 -35.2701 1.66995 -35.3601C-2.70005 -35.6001 -6.08004 -38.3901 -9.92004 -40.0801C-15.36 -42.4901 -21.41 -42.7401 -27.1 -44.1601C-31.3 -45.2101 -33.2701 -46.5901 -37.9701 -46.4001C-41.6401 -46.2501 -45.56 -45.7101 -49.23 -45.3801C-50.64 -45.2501 -52.7701 -45.4601 -53.9501 -44.7401C-55.2001 -43.9701 -55.2101 -41.8801 -53.7701 -41.3501C-52.6201 -40.9301 -51.7501 -41.4101 -50.7001 -41.6001C-47.5901 -42.1701 -44.33 -42.2501 -41.17 -42.4901C-39.35 -42.6301 -37.5801 -42.9601 -35.7001 -42.8001C-32.9601 -42.5601 -29.9 -41.2301 -27.19 -40.5801C-21.76 -39.2701 -15.58 -38.9101 -10.54 -36.4801C-7.06005 -34.8001 -3.80005 -32.4601 0.129951 -31.9801C0.859951 -31.8901 1.73995 -31.9401 2.48995 -31.8601C3.79995 -31.7101 6.32996 -30.8801 7.36996 -32.0001V-31.9901ZM150.86 -34.8201C149.65 -35.8801 147.73 -35.3301 146.3 -35.3301C141.26 -35.3301 138.01 -38.1801 133.68 -40.1001C127.65 -42.7701 120.93 -42.7701 114.72 -44.6801C111.36 -45.7101 109.48 -46.6501 105.73 -46.4301C101.98 -46.2101 98.1799 -45.7201 94.4799 -45.4001C93.05 -45.2701 90.7799 -45.5201 89.6199 -44.6801C89.0299 -44.2501 88.58 -43.3201 88.75 -42.5901C88.77 -42.5201 88.91 -42.5101 88.94 -42.4401C89.36 -41.5601 89.7399 -41.2701 90.7599 -41.2401C91.6799 -41.2101 92.11 -41.4801 92.89 -41.6301C96.44 -42.3001 101.15 -42.6601 104.79 -42.8401C109.59 -43.0701 112.18 -41.6601 116.59 -40.5901C121.91 -39.3001 127.9 -38.9701 132.86 -36.6301C136.42 -34.9501 139.78 -32.5101 143.82 -32.0101C144.52 -31.9201 145.38 -31.9801 146.08 -31.9001C147.44 -31.7501 150.22 -30.8401 151.13 -32.2201C151.64 -32.9901 151.55 -34.2401 150.84 -34.8601L150.86 -34.8201ZM26.87 0.92992C27.6 -0.0700798 28.76 -3.01008 29.25 -4.27008C30.44 -7.33008 31.66 -10.4801 32.76 -13.5601C34.65 -18.8801 33.91 -22.0501 33.41 -27.4601C33.25 -29.2401 33.24 -30.8401 32.76 -32.5901C31.88 -35.8201 29.27 -39.0201 27.42 -41.8001C26.78 -42.7701 25.91 -44.6501 24.98 -45.2501C23.3 -46.3301 21.42 -45.1001 21.89 -43.0901C22.1 -42.2001 22.9 -41.7401 23.44 -41.1301C25.06 -39.2601 26.68 -36.8201 27.92 -34.6701C30.02 -31.0101 30.08 -26.8301 30.32 -22.7201C30.48 -19.8201 30.49 -18.0801 29.59 -15.2901C28.37 -11.5201 26.57 -7.76008 25.31 -3.98008C24.68 -2.50008 22.17 -0.57008 23.25 1.17992C24.16 2.65992 25.99 2.15992 26.87 0.939919V0.92992ZM52.28 -43.7001C52.24 -43.7501 51.84 -44.0301 51.77 -44.0601C49.99 -44.8701 48.4499 -43.2501 46.8999 -42.5901C46.0099 -42.2101 45.02 -41.9901 44.11 -41.6701C42.98 -41.2701 40.71 -40.1401 39.6 -40.3501C37.33 -40.7801 35.27 -44.4101 32.9 -43.6001C32.35 -43.4101 31.78 -42.8101 31.69 -42.2301C31.25 -39.2501 35.63 -39.3801 36.99 -37.4301C37.94 -36.0701 37.25 -34.5901 37.15 -33.1601C36.95 -30.4601 37.51 -27.7601 37.36 -25.1001C37.32 -24.3701 37.04 -23.7801 37.15 -22.9301C37.29 -21.8401 38.4 -20.7501 39.55 -21.0501C41.57 -21.5801 41.21 -24.0301 41.05 -25.5901C40.74 -28.6001 40.27 -32.5901 41.04 -35.5601C41.56 -37.5601 43.74 -37.6201 45.39 -38.2301C47.18 -38.8901 49.17 -39.5801 50.86 -40.3101C51.44 -40.5601 52.0399 -40.7501 52.3699 -41.3601C52.7399 -42.0601 52.8299 -43.0501 52.2899 -43.6901L52.28 -43.7001ZM19.86 -40.4901C18.99 -41.3201 17.59 -41.5101 16.8 -40.4701C15.46 -38.7201 17.61 -36.9401 18.52 -35.5801C19.88 -33.5301 21.9 -29.8301 22.51 -27.4901C23.89 -22.2201 22.04 -16.2101 20.21 -11.2501C19.07 -8.14008 17.65 -4.36008 16.22 -1.41008C14.97 1.16992 12.93 3.09992 11.12 5.25992C9.77996 6.85992 7.48995 9.05992 7.70995 11.2399C7.89995 13.1299 10.31 13.4799 11.37 12.1199C11.86 11.4899 11.95 10.6899 12.25 9.99992C13.49 7.16992 16.13 5.32992 17.93 2.87992C20.15 -1.42008 22.12 -6.21008 23.78 -10.7801C26.53 -18.3201 27.98 -25.3701 24.16 -32.8701C23.41 -34.3501 22.38 -35.7301 21.61 -37.1401C21.1 -38.0801 20.58 -39.7901 19.85 -40.4801L19.86 -40.4901ZM-39.7001 -38.8501C-43.1701 -38.5701 -46.1201 -37.6001 -49.7401 -37.7401C-53.3601 -37.8801 -56.5401 -39.2001 -60.3601 -38.5601C-61.0501 -38.4501 -61.95 -38.0801 -62.65 -37.9601C-64.15 -37.7001 -66.63 -38.1001 -67.45 -36.4601C-68.13 -35.1001 -67.11 -33.8801 -65.75 -33.6701C-64.39 -33.4601 -61.66 -34.6801 -60.16 -34.9501C-56.33 -35.6301 -52.71 -34.2701 -48.92 -34.1301C-47.26 -34.0701 -45.8401 -34.2401 -44.2401 -34.5201C-40.7301 -35.1401 -38.74 -35.5701 -35.1 -34.9301C-28.62 -33.7901 -22.22 -31.2201 -15.76 -30.4201C-14.52 -30.2701 -12.65 -29.8301 -11.79 -30.9801C-11.22 -31.7501 -11.22 -32.6601 -11.85 -33.4001C-12.88 -34.6001 -15.37 -34.1401 -16.8 -34.2301C-19.43 -34.4001 -23.1401 -35.7101 -25.8101 -36.3701C-29.8601 -37.3701 -35.59 -39.1901 -39.68 -38.8601L-39.7001 -38.8501ZM131.76 -33.4701C131.2 -34.0801 129.78 -34.2301 128.95 -34.2301C124.8 -34.2301 121.57 -35.4201 117.61 -36.4001C113.44 -37.4301 108.31 -39.0001 104.01 -38.8101C101.37 -38.6901 98.8 -37.8301 96.13 -37.7301C91.7 -37.5601 87.5 -39.2401 83.24 -38.5401C82.58 -38.4301 81.6999 -38.0701 81.0399 -37.9501C79.6899 -37.7201 77.4799 -38.0001 76.5099 -36.9001C75.6999 -35.9901 75.99 -34.3001 77.17 -33.8601C78.96 -33.2001 81.61 -34.6001 83.44 -34.9201C87.88 -35.7001 92.05 -33.9301 96.53 -34.1101C99.19 -34.2201 101.75 -35.2101 104.37 -35.3501C106.99 -35.4901 111.34 -34.3301 114.06 -33.6901C118.73 -32.6001 123.08 -31.0201 127.83 -30.4201C129.05 -30.2701 130.51 -29.8801 131.57 -30.6601C132.39 -31.2601 132.41 -32.7301 131.74 -33.4601L131.76 -33.4701ZM77.77 -30.2701C71.01 -34.1501 66.65 -37.3701 59.1 -32.6801C52.32 -28.4701 46.16 -22.4701 39.94 -17.4501C36.73 -14.4401 36.38 -11.4601 34.68 -7.74008C34.11 -6.50008 32.67 -4.84008 32.69 -3.53008C32.72 -1.38008 35.27 -1.12008 36.41 -2.71008C36.9 -3.38008 37.01 -4.21008 37.29 -4.93008C38.13 -7.07008 38.95 -9.60008 40 -11.6101C42.11 -15.6101 47.29 -19.0301 50.78 -21.8601C53.62 -24.1601 56.3299 -26.6901 59.3999 -28.6701C63.3199 -31.1901 65.89 -32.3101 70.44 -30.2401C72.23 -29.4201 74.54 -28.0901 76.25 -27.0701C78.79 -25.5401 82.47 -22.8101 83.49 -19.9601C84.23 -17.8701 83.87 -16.1701 84.22 -14.1901C84.69 -11.5001 87.9899 -11.5901 88.2299 -14.0801C88.3299 -15.1301 87.9299 -15.6601 87.7299 -16.5701C87.3699 -18.1701 87.24 -19.9801 86.69 -21.5201C85.46 -24.9301 80.82 -28.5501 77.77 -30.3001V-30.2701ZM-22.78 -27.5901C-26.7 -30.0801 -32.5601 -29.7101 -37.1101 -31.2701C-37.9901 -31.5701 -39.25 -32.4001 -40.21 -32.2501C-40.89 -32.1401 -41.78 -31.5801 -41.91 -30.8601C-42.43 -28.0901 -38.9101 -28.0801 -37.0801 -27.5801C-36.1001 -27.3201 -35.0701 -26.8601 -34.0401 -26.6501C-30.2801 -25.8801 -25.86 -26.6801 -23.26 -23.1201C-22.59 -22.2101 -22.2701 -21.1001 -20.9901 -20.8401C-19.3101 -20.5001 -18.3801 -21.8501 -18.8101 -23.4301C-19.1401 -24.6701 -21.66 -26.8801 -22.76 -27.5801L-22.78 -27.5901ZM119.58 -28.3101C116.29 -29.8201 112.3 -29.6501 108.84 -30.5301C107.14 -30.9601 105.55 -31.7801 103.86 -32.2701C102.61 -32.2701 101.36 -31.2101 101.7 -29.8901C102.14 -28.2101 104.27 -28.1901 105.62 -27.8201C106.65 -27.5401 107.67 -27.1301 108.71 -26.8801C112.1 -26.0501 117.26 -26.5701 119.83 -23.8601C120.99 -22.6401 121.2 -20.6101 123.38 -20.8201C123.94 -20.8801 124.43 -21.1601 124.69 -21.6801C125.05 -22.4101 125.02 -23.0301 124.71 -23.7801C124.08 -25.2801 121.05 -27.6401 119.59 -28.3101H119.58ZM-36.8301 -22.8401C-38.4601 -24.0701 -40.4301 -24.7401 -42.1501 -25.8301C-44.2701 -27.1901 -45.85 -29.1601 -48.35 -29.9501C-50.21 -30.5401 -52.3 -30.4901 -54.18 -30.9401C-55.6 -31.2801 -57.4101 -32.5101 -58.7901 -31.5001C-59.8001 -30.7701 -59.77 -29.3401 -58.89 -28.5001C-57.71 -27.3901 -53.63 -27.3501 -51.93 -27.1001C-47.86 -26.4901 -47.03 -24.6201 -43.91 -22.7301C-40.27 -20.5301 -39.2401 -20.6601 -36.4901 -17.0201C-34.3401 -14.1701 -31.44 -10.8201 -29.8 -7.74008C-28.29 -4.91008 -27.6601 -2.12008 -24.6501 -0.400082C-23.4301 0.299918 -22.11 0.56992 -20.8 1.01992C-19.41 1.48992 -17.05 2.84992 -15.79 1.57992C-14.53 0.309922 -15.64 -1.40008 -17.14 -1.82008C-19.07 -2.36008 -20.77 -2.36008 -22.59 -3.50008C-24.75 -4.86008 -25.23 -6.86008 -26.34 -8.94008C-28.06 -12.1601 -30.0701 -14.1101 -32.2001 -16.9101C-33.7001 -18.8801 -34.84 -21.3301 -36.84 -22.8501L-36.8301 -22.8401ZM99.42 -27.3601C98.89 -27.7601 98.3299 -28.3701 97.7599 -28.7501C95.1399 -30.4801 92.66 -30.2901 89.77 -30.8801C88.36 -31.1701 86.24 -32.4801 84.89 -31.5601C84.86 -31.5401 84.4199 -31.1001 84.3999 -31.0701C83.3699 -29.5201 84.88 -28.1001 86.34 -27.7701C88.66 -27.2401 91.31 -27.3601 93.64 -26.7001C95.97 -26.0401 97.56 -24.1401 99.55 -22.9101C101.54 -21.6801 103.66 -21.0401 105.43 -19.2401C106.45 -18.2001 107.13 -16.9201 108 -15.7801C110.01 -13.1401 112.38 -10.6201 113.95 -7.69008C115.32 -5.12008 115.95 -2.43008 118.55 -0.720081C120 0.229919 121.42 0.48992 123 1.01992C124.44 1.50992 126.47 2.83992 127.82 1.56992C128.06 1.34992 128.47 0.689921 128.48 0.379921C128.48 0.309921 128.21 -0.63008 128.16 -0.73008C127.58 -1.90008 125.96 -1.82008 124.96 -2.07008C123.48 -2.43008 121.57 -3.03008 120.39 -4.01008C118.59 -5.51008 117.92 -7.98008 116.81 -9.92008C115.27 -12.6201 113.31 -14.4801 111.48 -16.8701C109.65 -19.2601 108.72 -21.6601 106.02 -23.3901C103.72 -24.8701 101.73 -25.6301 99.42 -27.3701V-27.3601ZM-8.87005 -30.3801C-9.13005 -29.9601 -9.38005 -29.1001 -9.32005 -28.6101C-9.17005 -27.3401 -8.73004 -25.9301 -8.60004 -24.5901C-8.40004 -22.5401 -8.68005 -20.0901 -8.41005 -18.1801C-8.20005 -16.7101 -7.25005 -15.4001 -5.61005 -16.0401C-3.56005 -16.8401 -4.62004 -19.4601 -4.84004 -21.0001C-5.20004 -23.5501 -5.13004 -25.9801 -5.20004 -28.5101C-5.21004 -28.9301 -5.38004 -29.9201 -5.60004 -30.2801C-6.28004 -31.3601 -8.17005 -31.5301 -8.87005 -30.4001V-30.3801ZM135.8 -31.1101C134.95 -30.9001 134.42 -29.8401 134.38 -29.0201C134.31 -27.8301 134.98 -25.7801 135.11 -24.4801C135.32 -22.3701 135.01 -20.1001 135.21 -18.0801C135.38 -16.4001 137.13 -15.0901 138.57 -16.3701C139.87 -17.5301 139.03 -19.4401 138.84 -20.8801C138.67 -22.1401 138.49 -23.8401 138.41 -25.1001C138.32 -26.5301 138.75 -29.2301 137.98 -30.3501C137.52 -31.0201 136.59 -31.3101 135.8 -31.1201V-31.1101ZM11.88 -24.8001C11.98 -24.8901 12.1 -24.9101 12.2 -25.0501C12.88 -26.0401 12.52 -27.3801 11.47 -27.9101C10.12 -28.5901 9.05995 -28.1101 7.66995 -28.0301C6.08995 -27.9401 3.95996 -27.8801 2.40996 -28.0301C1.38996 -28.1301 0.389954 -28.5201 -0.680046 -28.3301C-2.14005 -28.0701 -2.82005 -26.2201 -1.87005 -25.0801C-0.710049 -23.6901 1.72995 -24.4501 3.33995 -24.5201C4.45995 -24.5701 5.83995 -24.5801 6.95995 -24.5201C8.39995 -24.4401 10.44 -23.7101 11.69 -24.5301C11.8 -24.6001 11.82 -24.7201 11.89 -24.7901L11.88 -24.8001ZM142.92 -28.3201C140.99 -27.8901 140.79 -25.1301 142.63 -24.4801C143.76 -24.0801 145.59 -24.5101 146.81 -24.5401C148.03 -24.5701 149.43 -24.6001 150.64 -24.5401C152.05 -24.4701 153.65 -23.9001 155.01 -24.4001C155.64 -24.6301 156.25 -25.5901 156.24 -26.2601C156.24 -26.5701 155.75 -27.5001 155.48 -27.7201C154.3 -28.6701 152.78 -28.1101 151.47 -28.0501C148.9 -27.9101 147.14 -28.0601 144.65 -28.3601C144.35 -28.4001 143.19 -28.3901 142.93 -28.3301L142.92 -28.3201ZM9.01995 1.54992C13.15 -2.79008 15.83 -9.78008 17.55 -15.4701C18.33 -18.0401 18.63 -20.6501 19.04 -23.2701C19.17 -24.1201 19.6 -25.6901 19.47 -26.4401C19.45 -26.5601 19.19 -27.2101 19.12 -27.3301C18.7 -28.1101 17.63 -28.3401 16.82 -28.0701C15.07 -27.4901 15.46 -24.4801 15.35 -23.0401C15.21 -21.1201 14.88 -18.8701 14.35 -17.0201C13.61 -14.4501 12.3 -10.8301 11.23 -8.38008C9.88996 -5.29008 6.66995 -0.110081 3.45995 1.18992C2.04995 1.75992 -4.48823e-05 1.44992 -0.960045 2.64992C-1.45004 3.25992 -1.38004 4.54992 -0.850044 5.12992C0.309956 6.40992 2.55995 5.60992 3.91995 5.04992C5.77995 4.28992 7.63995 2.98992 9.01995 1.52992V1.54992ZM162.11 -28.0001C161.45 -28.3101 160.41 -28.2001 159.87 -27.6801C158.85 -26.7101 159.14 -24.5001 159.05 -23.2301C158.74 -18.7601 157.3 -14.7101 155.75 -10.5401C154.34 -6.76008 150.67 0.339921 146.48 1.44992C145.28 1.76992 143.55 1.55992 142.74 2.66992C142.04 3.62992 142.31 5.08992 143.44 5.58992C144.84 6.20992 146.9 5.37992 148.24 4.75992C155.24 1.51992 158.85 -8.04008 161.05 -14.9501C161.84 -17.4201 162.16 -19.8001 162.54 -22.3401C162.73 -23.6401 163.37 -25.9701 162.92 -27.1101C162.87 -27.2501 162.7 -27.5201 162.61 -27.6201C162.59 -27.6401 162.14 -27.9901 162.12 -28.0001H162.11ZM-11.56 -15.5901C-12.77 -17.6301 -12.58 -20.5201 -12.42 -22.8301C-12.33 -24.1601 -11.78 -25.2401 -12.54 -26.5301C-13.48 -28.1301 -15.97 -27.6801 -16.14 -25.7301C-16.26 -24.3701 -15.92 -22.8301 -15.93 -21.3901C-15.96 -18.0501 -16.42 -16.3701 -14.4 -13.4201C-12.16 -10.1301 -8.32005 -8.13008 -4.30005 -8.95008C-2.99005 -9.22008 -0.0900488 -10.0201 0.699951 -11.0701C1.48995 -12.1201 1.21995 -13.7901 -0.120049 -14.0701C-2.15005 -14.5001 -3.05005 -12.9701 -4.79005 -12.5301C-7.43005 -11.8701 -10.2 -13.3201 -11.55 -15.5901H-11.56ZM144.26 -13.6601C144.13 -13.7801 143.67 -14.0501 143.5 -14.0901C141.65 -14.4801 140.63 -13.0301 139.08 -12.5701C136.46 -11.8001 133.63 -13.1601 132.24 -15.4201C130.39 -18.4401 131.47 -21.5601 131.5 -24.7901C131.52 -26.4901 130.76 -27.7401 128.89 -27.4001C127.6 -27.1601 127.37 -25.4601 127.48 -24.3801C127.5 -24.1901 127.66 -24.0401 127.68 -23.8501C127.97 -20.9901 127.16 -18.1301 128.2 -15.3901C129.38 -12.2501 133.3 -8.95008 136.72 -8.73008C138.38 -8.62008 142.58 -9.55008 143.9 -10.5401C144.83 -11.2301 145.16 -12.8301 144.27 -13.6601H144.26ZM79.7299 -19.7501C79.2999 -20.1201 78.56 -20.4801 78.08 -20.8401C72.78 -24.7701 67.46 -28.4001 60.8 -24.8701C57.9 -23.3301 56.24 -20.9701 53.8 -18.9701C51.36 -16.9701 48.3299 -15.5601 46.1799 -13.1801C45.0399 -11.9201 44.2 -10.4201 43.22 -9.04008C42.8 -8.45008 42.09 -7.85008 41.83 -7.10008C41.25 -5.46008 42.28 -3.86008 44.08 -4.23008C45.72 -4.57008 46.61 -7.92008 47.56 -9.32008C49.8 -12.6101 52.9 -13.6501 55.85 -15.9801C59.09 -18.5301 61.16 -22.6001 65.89 -22.6901C68.86 -22.7501 73.22 -20.4301 75.44 -18.5101C76.65 -17.4701 77.61 -15.5501 79.49 -15.9001C80.38 -16.0601 80.89 -17.1501 80.8 -17.9801C80.73 -18.5801 80.19 -19.3701 79.74 -19.7601L79.7299 -19.7501ZM-51.88 -23.7801C-53.37 -23.5001 -53.49 -21.7701 -53.16 -20.5801C-52.43 -17.8701 -51.89 -16.3801 -52.05 -13.4201C-52.11 -12.3001 -52.49 -11.7701 -51.93 -10.5601C-51.32 -9.27008 -49.5 -9.08008 -48.6 -10.1701C-48.48 -10.3201 -48.22 -10.7001 -48.17 -10.8701C-47.8 -12.0101 -48.61 -15.0301 -48.76 -16.4201C-48.94 -18.1101 -48.81 -20.6301 -49.3 -22.1701C-49.65 -23.2401 -50.74 -23.9801 -51.88 -23.7701V-23.7801ZM93.05 -23.6601C91.54 -24.2701 90.11 -23.0101 90.3 -21.4801C90.42 -20.4701 91.1 -19.2301 91.31 -18.1501C91.55 -16.9001 91.7499 -14.7901 91.6499 -13.5401C91.5599 -12.3601 91.19 -11.8101 91.78 -10.5701C92.5 -9.05008 94.8199 -9.14008 95.3999 -10.7201C95.9099 -12.1001 95.23 -13.5901 95.06 -14.9801C94.93 -16.0301 94.85 -17.1401 94.75 -18.1801C94.6 -19.8201 94.97 -22.8901 93.06 -23.6601H93.05ZM-26.8301 -21.4701C-27.1301 -21.7701 -27.4 -22.2001 -27.75 -22.4601C-28.59 -23.1001 -30.1401 -23.4001 -30.8301 -22.4501C-31.6601 -21.3201 -31.05 -20.0801 -30.12 -19.2701C-29.31 -18.5601 -28.3301 -18.0001 -27.4901 -17.2601C-24.9101 -14.9501 -23.5401 -12.7501 -21.6101 -10.0101C-19.4301 -6.92008 -17.77 -6.15008 -14.8 -4.04008C-12.22 -2.20008 -10.52 -0.310081 -7.11005 0.0299187C-3.47005 0.399919 2.41995 -2.70008 4.81995 -5.40008C5.74995 -6.44008 6.39996 -7.68008 7.15996 -8.85008C7.99996 -10.1401 9.73995 -11.7401 8.58995 -13.4001C8.05995 -14.1701 6.90995 -14.3501 6.09995 -13.9401C4.84995 -13.3001 4.68995 -11.9301 4.17995 -10.8001C2.05995 -6.09008 -4.83005 -1.98008 -9.76005 -4.75008C-11.77 -5.88008 -16.44 -9.27008 -17.86 -10.9901C-18.81 -12.1301 -19.4701 -13.5201 -20.3101 -14.7301C-22.1201 -17.3201 -24.62 -19.2601 -26.82 -21.4901L-26.8301 -21.4701ZM115.35 -22.8401C112.94 -23.9001 111.49 -21.3501 113.28 -19.4901C113.76 -18.9901 114.66 -18.5801 115.2 -18.1301C118.59 -15.3601 119.9 -12.8401 122.36 -9.47008C124.25 -6.88008 126.32 -5.88008 128.83 -4.09008C130.66 -2.79008 132.45 -0.950082 134.69 -0.330082C139.71 1.07992 146.52 -2.57008 149.43 -6.64008C150.12 -7.61008 152.46 -10.9401 152.54 -11.8901C152.64 -13.0301 152.18 -14.0101 150.94 -14.1101C148.56 -14.3001 148.38 -11.7501 147.58 -10.1701C145.72 -6.50008 139.68 -2.74008 135.53 -3.96008C134.66 -4.22008 133.56 -4.95008 132.79 -5.45008C130.66 -6.86008 127.42 -9.05008 125.81 -10.9601C124.73 -12.2301 124.03 -13.7901 123.06 -15.1301C121.64 -17.1101 119.81 -18.4201 118.11 -20.0901C117.41 -20.7701 116.13 -22.4901 115.34 -22.8401H115.35ZM-0.720047 -20.5701C-1.44005 -20.0901 -1.70005 -19.1501 -1.41005 -18.3501C-0.630049 -16.2101 2.08995 -17.0501 3.83995 -17.1001C5.79995 -17.3201 8.12995 -16.7701 10.03 -17.0001C11.8 -17.2201 12.39 -19.6601 10.78 -20.6201C9.42995 -21.4301 7.87995 -20.6801 6.42995 -20.6001C5.50995 -20.5501 4.23996 -20.5401 3.32996 -20.6001C2.04996 -20.6901 0.489955 -21.3701 -0.710045 -20.5601L-0.720047 -20.5701ZM144.57 -20.9801C142.97 -20.9601 141.6 -19.7501 142.35 -18.0901C143.15 -16.3201 146.01 -17.0301 147.54 -17.1001C149.46 -17.3501 151.89 -16.7401 153.73 -17.0001C155.3 -17.2201 155.91 -19.3601 154.76 -20.3801C153.47 -21.5101 151.83 -20.7001 150.34 -20.6001C149.36 -20.5401 148.01 -20.5401 147.03 -20.6001C146.25 -20.6501 145.31 -20.9901 144.57 -20.9801ZM102.93 -16.0001C102.09 -17.1201 101.55 -18.7801 99.94 -18.9601C98.1 -19.1701 97.47 -17.2501 98.24 -15.8001C98.74 -14.8701 99.72 -14.2601 100.41 -13.5301C102.86 -10.9501 107.83 -5.06008 107.83 -1.44008C107.83 2.17992 103.11 6.03992 100.1 7.42992C91.45 11.3999 82.09 4.96992 74.17 2.07992C72.87 1.60992 71.08 1.08992 69.7 1.07992C66.69 1.05992 63.88 2.69992 60.92 3.02992C59.61 3.17992 57.5999 2.70992 56.5399 3.60992C55.3499 4.61992 55.66 6.22992 57.06 6.80992C58.25 7.29992 59.16 6.78992 60.32 6.55992C61.48 6.32992 62.76 6.18992 63.91 5.91992C66.41 5.32992 68.2099 4.36992 70.9299 4.80992C72.3699 5.03992 73.72 5.81992 75 6.33992C82.53 9.34992 89.63 13.3799 98.07 11.7899C103.19 10.8199 107.53 7.23992 110.21 2.86992C113.3 -2.16008 109.84 -7.40008 106.76 -11.5001C105.57 -13.0801 104.09 -14.4501 102.94 -15.9801L102.93 -16.0001ZM73.1199 -15.4101C70.7899 -16.7801 68.78 -17.7601 66.07 -18.2201C64.46 -18.4901 61.92 -18.9001 61.41 -16.8101C61.25 -16.1401 61.78 -15.1601 62.38 -14.8401C63.49 -14.2701 64.49 -14.7101 65.55 -14.6001C69.3 -14.2201 72.6 -11.3601 75.91 -9.69008C80.98 -7.13008 86.36 -5.15008 91.39 -2.64008C92.33 -2.17008 93.74 -1.77008 94.64 -2.53008C95.3 -3.09008 95.33 -4.49008 94.82 -5.16008C94.13 -6.08008 91.72 -6.57008 90.59 -7.02008C84.48 -9.44008 78.7 -12.1001 73.1 -15.3901L73.1199 -15.4101ZM66.49 -6.61008C68.03 -5.80008 69.23 -4.73008 70.7 -3.85008C73.27 -2.29008 76.21 -1.33008 78.97 -0.140079C84.22 2.11992 87.97 4.03992 93.77 4.77992C95.58 5.00992 98.81 5.74992 98.56 2.87992C98.35 0.409921 94.57 1.32992 92.84 1.16992C88.99 0.809918 84.74 -1.49008 81.21 -3.00008C78.94 -3.97008 76.54 -4.80008 74.33 -5.92008C71.29 -7.47008 68.92 -9.74008 65.57 -10.7801C62.22 -11.8201 58.8099 -12.2201 55.5099 -10.8401C54.5399 -10.4301 51.0099 -8.87008 50.5099 -8.20008C50.3799 -8.02008 50.08 -7.43008 50.05 -7.22008C49.95 -6.60008 50.32 -5.57008 50.91 -5.31008C51.99 -4.84008 52.91 -5.19008 53.85 -5.79008C54.3 -6.08008 54.75 -6.53008 55.21 -6.80008C58.69 -8.87008 63.06 -8.39008 66.49 -6.60008V-6.61008ZM-43.43 -9.22008C-44.39 -9.82008 -46.1901 -9.62008 -46.4701 -8.36008C-46.8501 -6.65008 -45.3 -4.91008 -44.69 -3.37008C-43.94 -1.50008 -43.93 1.87992 -41.1 1.34992C-40.57 1.24992 -39.9801 0.639919 -39.8301 0.139919C-39.3301 -1.51008 -41.16 -3.81008 -41.76 -5.37008C-42.13 -6.33008 -42.59 -8.70008 -43.43 -9.22008ZM103.89 0.109921C103.99 -0.12008 103.93 -0.920079 103.87 -1.21008C103.63 -2.32008 102.58 -3.69008 102.11 -4.82008C101.64 -5.95008 101.13 -8.66008 100.13 -9.24008C99.18 -9.80008 97.49 -9.55008 97.22 -8.36008C96.8 -6.50008 98.59 -4.59008 99.19 -2.84008C99.79 -1.09008 99.84 1.61992 102.31 1.37992C103.13 1.29992 103.39 0.879921 103.71 0.219921C103.75 0.149921 103.86 0.139921 103.87 0.109921H103.89ZM65.46 -3.51008C65.01 -4.28008 64.1 -4.67008 63.2 -4.60008C61.77 -4.49008 59.46 -4.11008 58.05 -3.76008C56.29 -3.33008 54.61 -2.48008 52.85 -2.05008C50.46 -1.47008 47.03 -1.33008 44.52 -1.19008C42.97 -1.10008 41.19 -1.35008 39.68 -1.19008C37.05 -0.890079 37.02 2.51992 39.46 2.82992C40.61 2.96992 42.38 2.31992 43.59 2.20992C46.61 1.92992 49.67 2.33992 52.63 1.64992C55.14 1.05992 57.87 -0.51008 60.42 -0.68008C62.21 -0.80008 65.95 0.0299206 65.74 -2.89008C65.71 -3.32008 65.6 -3.28008 65.47 -3.50008L65.46 -3.51008ZM34.6 1.63992C34.08 0.989919 33.44 0.71992 32.59 0.90992C31.24 1.20992 30.53 2.42992 29.54 3.22992C26.68 5.54992 23.25 4.98992 20.27 6.75992C17.29 8.52992 14.64 12.5199 14.83 15.9799C15.1 20.8799 20.07 22.5799 21.72 26.6299C22.12 27.6099 22.25 29.0599 23.02 29.8199C23.04 29.8399 23.45 30.1399 23.48 30.1499C25.19 30.8599 26.47 29.7099 26.29 27.9399C26.19 26.9999 23.66 23.1599 22.97 22.1799C20.75 19.0399 16.74 17.1199 19.33 12.6199C21.86 8.22992 26.3 9.30992 30.1 7.07992C31.02 6.53992 33.46 5.11992 34.13 4.50992C34.94 3.75992 35.32 2.53992 34.59 1.63992H34.6ZM4.44995 12.4899C2.24995 10.3599 -0.0700443 9.08992 -2.60004 7.40992C-3.28004 6.95992 -3.92005 6.36992 -4.64005 5.93992C-10.01 2.71992 -13.99 5.43992 -19.48 5.08992C-22.8 4.87992 -24.94 4.05992 -28.44 4.80992C-29.44 5.02992 -31.8 5.63992 -32.5 6.32992C-33.89 7.68992 -33.1 9.69992 -31.14 9.69992C-29.93 9.69992 -28.8501 8.75992 -27.7201 8.42992C-24.4201 7.45992 -20.33 8.79992 -16.9 8.60992C-12.25 8.35992 -9.92005 6.93992 -5.51005 9.58992C-1.10005 12.2399 3.44995 15.9499 6.67995 19.6899C9.64995 23.1299 7.80996 25.7299 8.11996 29.6099C8.33996 32.4499 11.46 35.4199 13.98 36.4399C16.5 37.4599 19.45 37.0699 19.88 33.9299C20.09 32.4299 19.22 28.8999 18.74 27.3399C18.43 26.3299 17.86 25.3199 16.71 25.1299C15.98 25.0099 15.04 25.6799 14.82 26.3999C14.35 27.8999 15.66 29.0599 16.01 30.3799C16.84 33.4699 14.02 33.2799 12.61 31.2999C10.33 28.1099 12.9 23.8599 11.29 20.0299C10.29 17.6599 6.40996 14.3799 4.43996 12.4799L4.44995 12.4899ZM141.47 7.60992C140.21 6.77992 139 5.82992 137.62 5.20992C133.15 3.21992 128.75 5.38992 124.11 5.08992C122 4.94992 119.89 4.37992 117.7 4.46992C116.17 4.52992 111.98 5.37992 111 6.52992C110.21 7.45992 110.34 9.12992 111.61 9.52992C113.31 10.0699 114.32 8.93992 115.74 8.48992C118.79 7.50992 122.45 8.55992 125.66 8.53992C130.01 8.50992 133.54 6.96992 137.62 9.23992C141.7 11.5099 147.13 15.9299 150.29 19.5899C154.08 23.9799 150.13 28.0299 152.83 32.3299C154.06 34.2799 156.87 36.6299 159.22 36.8799C165.05 37.5099 163.6 31.5399 162.57 27.9499C162.47 27.5999 162.34 27.0799 162.21 26.7599C162.08 26.4199 161.66 25.7099 161.36 25.5199C161.31 25.4899 160.31 25.1099 160.25 25.0999C159.92 25.0699 158.96 25.5699 158.76 25.8699C157.45 27.8999 160.51 29.9399 159.77 31.9299C159.15 33.6099 157.2 32.3999 156.45 31.4799C154.42 28.9999 155.68 25.8099 155.56 22.9699C155.38 18.6599 152.99 17.3399 150.24 14.6699C149.26 13.7199 148.41 12.6399 147.4 11.7199C145.76 10.2399 143.36 8.81992 141.48 7.57992L141.47 7.60992ZM70.1 11.6399C70.55 11.4399 70.8499 11.3599 71.1799 10.9099C71.6499 10.2599 71.71 9.37992 71.24 8.71992C69.92 6.84992 67.25 8.75992 65.64 9.29992C63.71 9.94992 60.6599 10.7299 58.6499 10.5699C56.1999 10.3699 54.48 8.67992 52.46 7.56992C48.22 5.23992 42.69 5.79992 38.12 6.75992C37.09 6.97992 35.13 7.28992 34.34 7.93992C33.36 8.73992 33.13 10.1399 34.18 10.9899C35.83 12.3299 37.74 10.4899 39.42 10.0199C41.91 9.32992 46.62 9.26992 49.09 10.0199C51.35 10.7099 53.21 12.4399 55.35 13.3599C59.66 15.1999 63.43 13.4399 67.6 12.2899C68.48 12.0499 69.27 12.0099 70.1 11.6499V11.6399ZM77.77 10.7099C77.62 10.6099 77.49 10.5499 77.32 10.4899C74.83 9.72992 74.03 12.7699 72.47 14.0699C70.91 15.3699 66.03 16.9899 64 17.4399C62.81 17.7099 61.7 17.5399 60.58 18.1599C60.21 18.3599 59.73 18.9899 59.66 19.4099C59.52 20.3399 59.78 21.2299 60.64 21.6799C60.79 21.7599 61.4 21.9899 61.55 22.0099C62.75 22.1799 65.54 20.6299 66.8 20.1499C68.95 19.3399 71.65 18.8599 73.56 17.6199C74.38 17.0899 77.61 14.2799 78.05 13.5399C78.18 13.3199 78.48 12.4099 78.47 12.1899C78.46 11.7899 78.0999 10.9199 77.7599 10.6899L77.77 10.7099ZM-23.59 12.1399C-25.33 12.2699 -27.18 12.8199 -28.89 12.9299C-31.09 13.0799 -33.3 12.7199 -35.5 12.8199C-36.63 12.8699 -39.04 13.0899 -40.07 13.4099C-42.53 14.1699 -42.3101 17.3399 -39.8101 17.4599C-38.6601 17.5099 -37.7 16.8499 -36.66 16.5999C-34.38 16.0599 -33.04 16.4599 -30.84 16.5299C-26.99 16.6599 -23.55 15.3199 -19.48 15.4899C-16.2 15.6299 -12.8 15.9699 -9.56004 16.4099C-8.12004 16.6099 -5.90005 17.2499 -5.04005 15.6899C-4.68005 15.0299 -4.68005 14.5199 -5.04005 13.8599C-5.95005 12.2099 -9.11004 12.6899 -10.71 12.6099C-14.92 12.3999 -19.3601 11.7999 -23.5801 12.1199L-23.59 12.1399ZM138.68 15.6899C138.77 15.4999 138.83 15.0599 138.83 14.8499C138.81 12.0799 134.58 12.7199 132.78 12.6399C126.92 12.3599 122.39 11.8299 116.48 12.6399C112.63 13.1699 109.13 12.6599 105.21 13.2399C104.29 13.3799 103.76 13.2599 102.86 13.7799C102.46 14.0099 102.48 14.1199 102.27 14.4099C102.23 14.4699 102.12 14.4899 102.11 14.5099C101.6 15.5099 101.99 16.9499 103.1 17.3299C104.63 17.8399 106.55 16.5999 108.12 16.3499C110.35 15.9999 112.48 16.7299 114.72 16.5499C118.19 16.2699 120.68 15.3399 124.43 15.5199C127.83 15.6799 131.33 16.0299 134.67 16.5299C135.66 16.6799 137.22 16.9699 138.05 16.3499C138.12 16.2999 138.67 15.7399 138.69 15.6999L138.68 15.6899ZM35.32 15.9899C33.59 13.6099 31.07 12.3499 28.1 12.4199C26.73 12.4499 23.48 12.7399 22.63 13.8699C22.1 14.5799 22 15.8499 22.68 16.4899C23.96 17.6899 25.63 16.5299 26.91 16.1799C30.84 15.0999 34.16 18.4199 33.35 22.3299C32.88 24.6199 29.88 28.9999 28.44 31.0299C25.9 34.6099 23.21 36.5399 24.09 41.4999C24.68 44.8099 27.2 49.6699 29.24 52.3499C30.27 53.7099 31.51 54.9099 32.58 56.2299C35.27 59.5299 36.97 62.1599 40.71 64.5299C41.23 64.8599 42.34 65.4299 42.95 65.3599C43.04 65.3499 44.05 64.9599 44.12 64.9199C44.76 64.4499 44.85 63.2399 44.55 62.5399C44.04 61.3699 42.34 61.0599 41.33 60.4999C38.8 59.0799 37.06 55.8799 35.21 53.7199C33.15 51.2999 31.44 49.8999 29.94 46.9199C28.44 43.9399 26.78 40.3899 28.45 37.2199C31.7 31.0599 40.74 23.4699 35.32 15.9999V15.9899ZM51.24 15.4499C48.4 13.8399 45.42 13.3999 42.25 13.0299C41.86 12.9799 40.77 12.9799 40.39 13.0299C39.39 13.1899 38.49 14.2999 38.7 15.3199C38.91 16.3399 39.89 16.8899 40.89 16.9499C42.69 17.0499 43.98 16.6399 45.92 17.0799C50.77 18.1899 52.9799 21.6299 55.2899 25.5899C58.1399 30.4799 57.05 32.9199 56.34 38.0599C55.94 40.9499 55.98 43.6699 55.7 46.4999C55.27 50.9399 52.59 53.6699 50.81 57.4999C50.13 58.9599 49.4799 60.5799 48.8999 62.0899C47.7799 64.9999 47.53 68.5999 43.59 68.8599C38.49 69.1899 33.02 64.8899 30.24 60.9399C28.28 58.1599 26.35 54.9199 24.54 52.0099C23 49.5299 20.68 44.6499 18.39 43.0699C15.15 40.8399 11.52 42.0399 7.99995 42.6699C4.47995 43.2999 0.699952 42.5199 -2.94005 43.4999C-6.80005 44.5399 -8.54004 45.6399 -12.88 45.3299C-16.43 45.0799 -17.83 43.5099 -20.42 41.5199C-21.85 40.4199 -23.7401 39.2099 -24.9001 37.8499C-26.2201 36.3099 -26.92 34.1799 -28.26 32.6299C-30.7 29.7899 -34.14 28.6099 -36.73 26.1299C-37.68 25.2199 -38.4501 24.1199 -39.3601 23.1799C-40.8201 21.6799 -43 20.1699 -44.03 18.3499C-44.35 17.7799 -44.6101 16.8599 -44.9501 16.2799C-45.7601 14.8999 -47.73 14.3899 -48.6 15.9999C-49.47 17.6099 -47.5501 19.5699 -46.5801 20.8099C-45.0701 22.7499 -44.02 23.5899 -42.28 25.2299C-40.69 26.7299 -39.3701 28.7099 -37.6501 30.0399C-35.9301 31.3699 -33.92 32.1099 -32.28 33.5499C-29.83 35.6999 -29.0801 38.9199 -26.4501 41.2399C-24.6601 42.8199 -22.21 44.8299 -20.3 46.2399C-16.9 48.7599 -11.88 49.2199 -7.79005 48.6399C-4.71005 48.2099 -2.19005 46.5599 0.959953 46.4399C2.54995 46.3799 4.19995 46.6799 5.81995 46.5499C9.98995 46.2099 14.73 43.5299 17.85 47.7399C19.17 49.5199 20.55 52.2199 21.77 54.1599C23.71 57.2599 25.7 60.8799 27.82 63.7799C31.66 69.0099 39.66 73.8899 46.32 71.9699C50.61 70.7399 51.49 64.9299 52.94 61.3599C54.23 58.1999 55.9 55.7799 57.42 52.8399C59.53 48.7599 59.02 46.9399 59.28 42.6999C59.59 37.5399 61.78 32.3199 60.2 27.1699C57.76 23.0199 55.59 17.8699 51.25 15.4199L51.24 15.4499ZM84.3699 16.9199C85.3399 15.4599 85.18 13.1499 83.02 13.2399C81.22 13.3199 80.46 15.8899 79.56 17.1999C78.71 18.4299 77.65 19.4499 76.96 20.8199C76.22 22.2999 76.07 23.6399 75.63 25.1599C74.42 29.3399 72.54 33.0799 71.52 37.3599C70.92 39.8899 70.74 42.9499 69.32 45.1799C68.21 46.9099 66.4 47.9999 64.91 49.3399C60.24 53.5699 57.21 60.4999 55.09 66.3499C53.04 71.9999 53.04 73.7899 56.85 78.4299C58.13 79.9799 59.37 81.5299 60.67 83.0799C63.11 85.9999 66.46 87.5799 70.27 86.0699C73.51 84.7899 76.4 80.3599 78.33 77.6299C80.69 74.2799 83.81 73.0299 86.64 70.3299C87.94 69.0899 88.85 67.6299 90.03 66.3399C91 65.2799 92.7199 64.3299 92.9799 62.8399C93.0899 62.2099 92.76 61.2899 92.17 60.9799C89.85 59.7699 88.61 62.6199 87.41 64.0799C85.88 65.9599 84.1799 68.0999 82.2299 69.5299C80.5299 70.7799 78.8899 71.5699 77.3999 73.1599C74.5899 76.1499 71.77 83.2199 66.92 82.9199C64.2 82.7499 62.9199 80.0499 61.3999 78.2199C59.6099 76.0599 57.2799 74.3799 57.3699 71.2999C57.4299 69.3399 59.53 64.3499 60.36 62.3199C61.75 58.9299 63.79 55.9399 66.2 53.1899C69.43 49.4899 72.45 48.7499 73.84 43.4899C74.52 40.9199 74.8199 38.2299 75.6199 35.6699C76.3099 33.4299 77.3899 31.3099 78.1199 29.0899C79.1399 25.9699 79.27 23.4699 81.24 20.6499C82.15 19.3499 83.58 18.1299 84.38 16.9299L84.3699 16.9199ZM-54.18 14.9499C-54.82 14.9199 -55.45 15.2099 -55.83 15.7299C-57.03 17.3799 -55.11 19.7799 -54.47 21.3699C-52.57 26.0699 -54.43 29.5599 -53.51 34.0299C-52.73 37.7799 -51.3 39.4199 -51.56 43.7399C-51.65 45.2999 -52.63 47.4499 -51.64 48.7799C-50.65 50.1099 -48.6001 49.4299 -48.2201 47.8199C-48.0001 46.8599 -48.0201 43.5599 -48.0401 42.3999C-48.0901 39.1299 -49.16 36.7199 -49.87 33.6999C-50.84 29.6199 -49.1901 26.3099 -50.4501 22.2999C-51.0001 20.5499 -51.51 19.1499 -52 17.3399C-52.29 16.2599 -52.9001 15.0099 -54.1901 14.9399L-54.18 14.9499ZM94.91 48.9299C95.82 47.8999 95.45 45.3899 95.45 44.0499C95.45 42.3999 95.58 40.9199 95.33 39.2299C94.98 36.8999 93.82 34.5899 93.5 32.2899C93.21 30.2099 93.66 28.4999 93.81 26.5099C94.03 23.6599 92.77 21.6799 92.03 19.1099C91.63 17.7299 91.59 15.3899 89.82 15.0299C88.86 14.8299 87.64 15.4899 87.52 16.4999C87.29 18.4299 89.09 20.6999 89.69 22.5899C90.99 26.6699 89.23 30.3799 90.32 34.5599C91.51 39.1599 92.58 40.1599 91.89 45.3299C91.72 46.5599 91.21 48.4099 92.49 49.2199C93.18 49.6599 94.3799 49.5499 94.9299 48.9399L94.91 48.9299ZM0.649956 20.8499C2.07996 19.2199 0.969955 17.0099 -1.21004 17.3799C-2.32004 17.5699 -4.05005 19.2999 -5.33005 19.8699C-9.50005 21.7099 -12.33 20.1699 -16.41 19.5599C-18.3 19.2699 -20.22 19.1199 -22.1 18.8499C-23.17 18.6999 -24.8501 18.5299 -25.4001 19.7199C-25.9501 20.9099 -25.3301 22.1399 -24.0801 22.4799C-22.8301 22.8199 -21.7501 22.4399 -20.5201 22.5299C-15.3201 22.9099 -11.1 25.3899 -5.89005 23.8399C-4.31005 23.3699 -2.59005 22.4299 -1.08005 21.7299C-0.510048 21.4699 0.189956 21.3599 0.649956 20.8399V20.8499ZM118.62 21.9799C119.66 23.0499 121.85 22.4299 123.18 22.5299C128.23 22.8999 132.44 25.2999 137.48 23.9299C138.79 23.5799 142.63 21.9399 143.76 21.2299C144.7 20.6299 145.22 19.4599 144.74 18.4099C144.44 17.7399 143.6 17.3699 142.9 17.3799C141.46 17.4099 139.81 19.2399 138.37 19.8699C134.3 21.6499 131.86 20.3099 127.91 19.6499C126.14 19.3499 124.33 19.3499 122.56 19.1099C121.73 18.9999 120.97 18.6699 120.07 18.7099C118.33 18.7799 117.32 20.6599 118.61 21.9799H118.62ZM29.44 23.3099C30.7 22.3399 30.58 20.3599 29.22 19.5699C27.78 18.7299 26.25 19.4699 25.92 21.0599C25.69 22.1499 26.59 23.5199 27.7 23.6699C28.33 23.7599 28.96 23.6799 29.44 23.3099ZM-30.1101 21.6399C-31.2201 20.7899 -33.26 19.1799 -34.66 19.4499C-36.52 19.8099 -36.7201 21.9899 -35.2701 23.0299C-34.3601 23.6899 -33.05 24.0099 -32 24.7199C-30.05 26.0399 -28.48 27.8699 -26.32 28.9499C-23.46 30.3799 -20.8 29.6699 -17.73 29.7599C-16.93 29.5599 -16.12 29.3999 -15.7 28.5899C-15.28 27.7799 -15.52 26.8299 -16.23 26.2899C-17.62 25.2399 -20.12 26.5299 -21.76 26.4499C-25.63 26.2399 -27.35 23.7499 -30.1 21.6399H-30.1101ZM128.15 28.1799C128.48 27.2999 127.62 26.1999 126.76 25.9699C125.36 25.5999 123.41 26.5199 121.93 26.4599C117.85 26.2999 115.99 23.4399 113 21.2499C112.09 20.5799 110.68 19.4899 109.55 19.4299C107.79 19.3499 106.84 21.0899 107.9 22.5199C108.54 23.3699 110.41 23.8999 111.38 24.5099C113.31 25.7199 114.91 27.5799 116.95 28.7399C119.88 30.4099 122.7 29.6799 125.96 29.7599C127.03 29.4499 127.55 29.3599 127.98 28.2899C128.01 28.1999 128.13 28.1999 128.14 28.1799H128.15ZM48.45 23.1999C47.59 22.4099 44.39 20.1499 43.35 19.8799C41.99 19.5299 40.46 20.0299 40.53 21.6599C40.61 23.5799 42.95 23.7699 44.24 24.4599C46.43 25.6199 48.4599 28.7899 49.1199 31.1399C50.1299 34.7399 49 38.4499 48.49 41.9999C48.26 43.5899 48.23 45.2199 47.94 46.8199C47.77 47.7599 47.23 49.1499 47.24 50.0499C47.24 52.7099 50.97 53.0499 51.27 49.9499C51.47 47.9199 51.54 45.9099 51.8 43.8699C52.45 38.7099 54.01 33.5699 51.97 28.5099C51.26 26.7599 49.85 24.4899 48.45 23.2099V23.1999ZM-71.92 25.7999C-69.47 22.8799 -72.7 20.4799 -75.03 23.1599C-75.58 23.7999 -76.44 25.1899 -76.88 25.9499C-79.42 30.2599 -78.85 35.5099 -80.27 40.2099C-80.64 41.4499 -81.49 42.6099 -81.38 43.9499C-81.21 45.8999 -78.72 46.1099 -77.79 44.5499C-77.31 43.7499 -77.41 43.1299 -77.23 42.3199C-76.78 40.3199 -76.2 38.2899 -75.83 36.2899C-75.21 32.8899 -75.34 29.5499 -72.95 26.7799C-72.67 26.4499 -72.18 26.1199 -71.92 25.7999ZM69.92 27.8699C70.65 26.7299 72.4799 25.3499 72.6499 24.1399C72.8299 22.8099 71.71 21.8499 70.42 22.0199C69.04 22.1899 67.55 24.6799 66.88 25.8099C64.18 30.3899 64.89 35.6299 63.25 40.5599C62.93 41.5099 62.13 42.8399 62.27 43.8099C62.42 44.9199 62.95 45.5699 64.13 45.5699C66.31 45.5699 66.25 43.0699 66.6 41.5299C66.89 40.2699 67.31 39.0099 67.56 37.7399C68.19 34.5999 68.19 30.5599 69.92 27.8699ZM-59.1101 22.3499C-60.1001 22.5299 -60.6 23.4199 -60.73 24.3399C-60.92 25.6199 -60.86 27.0599 -61.05 28.3499C-61.61 32.0299 -63.78 34.9899 -64.89 38.4499C-65.66 40.8699 -66.38 44.5099 -66.52 47.0399C-66.81 52.2699 -64.68 57.8499 -65.56 63.0699C-65.64 63.5699 -65.98 64.8199 -65.97 65.1899C-65.97 65.4099 -65.72 66.3499 -65.59 66.5499C-64.73 67.8899 -62.66 67.3999 -62.13 65.9799C-61.6 64.5599 -61.6601 61.6799 -61.7701 60.1499C-62.2701 53.1799 -63.77 47.7299 -61.96 40.6499C-61.04 37.0499 -58.6001 34.2899 -57.8701 30.5999C-57.7301 29.9099 -57.7401 29.1599 -57.6101 28.4799C-57.3301 26.9899 -56.7001 25.3699 -56.9401 23.8399C-57.1001 22.7799 -58.0601 22.1499 -59.1101 22.3399V22.3499ZM81.28 66.4699C81.53 66.1199 81.79 65.1299 81.83 64.6899C82.18 60.6199 81.3799 56.5299 81.0099 52.5099C80.6099 48.2599 80.66 44.3599 81.82 40.2099C82.47 37.8599 83.75 36.0699 84.71 33.9199C85.67 31.7699 85.9699 29.4699 86.3699 27.2199C86.6099 25.8799 87.2099 24.2099 86.3699 23.0099C85.7099 22.0699 84.4599 22.1599 83.6499 22.8399C82.5799 23.7399 82.92 25.9999 82.77 27.3299C82.27 31.9399 79.77 34.9199 78.57 39.1299C78.1 40.7799 77.64 42.9999 77.41 44.6799C76.7 50.0399 78.09 55.3399 78.44 60.6699C78.53 62.0599 78.07 63.2099 77.83 64.4999C77.56 65.9899 78.37 67.7299 80.09 67.2799C80.4 67.1999 81.1099 66.7299 81.2899 66.4699H81.28ZM-21.8801 36.7399C-20.7201 37.5499 -19.3201 37.1499 -18.0801 36.7399C-14.8001 35.6699 -11.76 33.8099 -8.55005 32.6399C-5.76005 31.6199 -2.66004 31.3199 0.0399551 30.0799C1.33996 29.4899 4.59995 27.3799 5.10995 26.0699C5.81995 24.2499 4.65996 22.4599 2.64996 23.1999C1.72996 23.5399 1.46995 24.2799 0.889954 24.9499C-1.76005 27.9999 -6.77004 27.9999 -10.42 29.4399C-13.28 30.5699 -15.8501 32.7499 -18.9901 33.1499C-20.0201 33.2799 -20.9101 32.9899 -21.8601 33.6899C-22.2101 33.9499 -22.6201 34.7599 -22.6501 35.1799C-22.6701 35.5299 -22.21 36.5099 -21.89 36.7299L-21.8801 36.7399ZM148.48 23.6099C147.89 23.0699 147.21 22.9099 146.44 23.1899C145.35 23.5799 145.13 24.3499 144.45 25.1199C141.99 27.9099 136.81 28.0699 133.37 29.4199C130.45 30.5699 127.92 32.7499 124.72 33.1599C123.68 33.2899 122.69 32.9699 121.78 33.7299C121.34 34.0999 121.07 34.5899 121.06 35.1799C121.05 35.6899 121.4 36.4899 121.84 36.7799C122.45 37.1899 123.48 37.2999 124.19 37.1699C125.23 36.9699 127.45 36.0499 128.52 35.6099C131.01 34.5899 133.4 33.1699 135.98 32.3299C138.56 31.4899 141.21 31.1999 143.6 30.1399C144.8 29.6099 147.32 27.9499 148.16 26.9599C148.89 26.1099 149.14 25.2999 148.9 24.1699C148.84 23.9199 148.68 23.7799 148.49 23.5999L148.48 23.6099ZM42.44 27.0399C40.9 25.1099 37.83 26.3799 38.29 28.8599C38.73 31.1999 42.72 31.3599 42.91 28.4699C42.95 27.7999 42.82 27.5199 42.44 27.0399ZM-45.69 27.4099C-46.19 27.5199 -46.74 28.0799 -46.92 28.5499C-47.47 29.9999 -45.8701 32.1399 -45.4901 33.5599C-44.5501 37.0499 -43.99 43.6299 -44.73 47.1599C-44.93 48.1099 -45.45 49.1099 -45.66 50.0499C-46.32 53.0299 -42.7901 53.9099 -41.8601 51.1699C-41.2201 47.3899 -40.7 43.8999 -41.03 40.0399C-41.31 36.7699 -41.8201 32.3699 -42.9901 29.2999C-43.4401 28.1199 -44.2801 27.0799 -45.7001 27.4099H-45.69ZM98.0099 27.4099C97.2799 27.5499 96.74 28.2599 96.63 28.9699C96.45 30.0899 97.21 30.9899 97.57 31.9299C98.98 35.5299 99.69 42.8399 99.06 46.6299C98.81 48.1499 97.52 50.1799 98.09 51.6399C98.55 52.8099 99.9199 53.1399 100.93 52.4199C102.15 51.5499 101.97 49.4999 102.17 48.1899C102.51 45.9799 102.94 43.9799 102.78 41.6799C102.52 37.8799 101.99 33.3599 100.79 29.7399C100.35 28.4099 99.69 27.0999 98 27.4099H98.0099ZM45.95 32.9199C45.11 31.5299 43.26 31.7399 42.55 33.1699C42.14 33.9999 42.07 35.2199 41.9 36.1399C41.31 39.3499 40.92 42.3699 40.64 45.6099C40.36 48.8499 39.75 51.4299 41.41 54.4399C41.83 55.1999 43.91 58.3599 44.54 58.6599C45.5 59.1199 47.0099 58.9699 47.3999 57.8399C48.1199 55.7699 46.12 54.8599 45.08 53.5599C43.25 51.2699 43.89 48.9499 44.14 46.3199C44.39 43.6899 44.55 40.7899 45.09 38.1899C45.39 36.7399 46.69 34.4699 46.1 33.0499C46.06 32.9599 45.96 32.9599 45.95 32.9299V32.9199ZM34.38 48.4099C35.12 49.0899 36.22 49.1399 36.98 48.4499C38.38 47.1799 36.85 44.6899 36.72 43.1299C36.58 41.3799 36.72 39.3899 37.31 37.7299C37.71 36.6099 38.9 34.9699 38.63 33.7799C38.32 32.3899 37.01 31.7699 35.75 32.4599C34.58 33.0999 34.54 34.5999 34.23 35.6799C33.09 39.5599 32.91 40.5699 33.41 44.6799C33.55 45.8499 33.44 47.5399 34.38 48.3999V48.4099ZM1.28996 34.5399C-2.94004 34.9799 -6.75005 37.1499 -10.76 37.8699C-11.89 38.0699 -13.17 37.9599 -14.27 38.3799C-16.03 39.0599 -15.87 41.7899 -13.8 42.0299C-12.55 42.1799 -9.01005 41.0899 -7.62005 40.6899C-3.97005 39.6499 0.369957 37.5499 4.18996 38.4899C5.32996 38.7699 6.46996 39.6699 7.65996 39.6699C9.64996 39.6699 10.28 37.2999 8.73995 36.1099C7.61995 35.2399 2.71996 34.3799 1.28996 34.5299V34.5399ZM152.41 36.0999C151.35 35.3199 146.42 34.3999 145.08 34.5199C140.55 34.9399 136.26 37.3699 131.75 38.0199C131.01 38.1299 130.28 38.0899 129.51 38.3599C127.92 38.9199 127.66 41.2499 129.25 41.8599C130.7 42.4099 131.95 41.6699 133.3 41.3299C134.22 41.0999 135.24 40.9299 136.15 40.6699C139.73 39.6499 143.94 37.6199 147.72 38.4599C149.32 38.8199 151.42 40.6199 152.86 38.9699C153.62 38.0999 153.28 36.7399 152.41 36.0999ZM-34.57 35.9099C-35.88 33.7099 -38.6601 34.6599 -38.2201 37.2399C-38.1101 37.8799 -37.4801 38.8899 -37.2701 39.5899C-36.6401 41.6999 -36.9 44.2499 -37.21 46.4199C-37.54 48.7199 -38.24 51.6399 -39.57 53.5599C-40.12 54.3599 -41.23 55.2699 -41.5 56.1699C-42.25 58.5799 -39.67 59.7799 -38.01 58.1099C-37.35 57.4399 -36.06 54.5799 -35.62 53.5799C-33.87 49.5899 -32.85 43.5299 -33.6 39.2399C-33.77 38.2799 -34.1001 36.6999 -34.5601 35.9199L-34.57 35.9099ZM105.62 35.5799C105.53 35.7499 105.5 35.9299 105.48 36.1099C105.3 37.9799 106.58 39.2099 106.72 41.0599C106.98 44.5499 106.18 50.5599 104.18 53.4899C103.28 54.8199 101.09 56.3299 102.43 58.1499C103.61 59.7399 105.45 58.5599 106.24 57.2099C109.66 51.3799 111.45 43.1399 109.45 36.5699C109.05 35.2499 107.72 34.1999 106.33 34.8899C106.28 34.9199 105.64 35.5299 105.62 35.5699V35.5799ZM-58.1101 38.7799C-58.4301 39.2499 -58.63 40.0899 -58.67 40.6499C-59.05 45.6999 -58.49 50.7199 -58.67 55.7299C-58.69 56.4299 -58.93 57.1599 -58.88 57.8899C-58.68 60.6899 -55.22 60.5099 -54.96 57.9899C-54.83 56.7099 -55.13 55.3499 -55.17 54.0699C-55.31 49.7399 -55.5401 45.8999 -54.9501 41.5899C-54.8601 40.9499 -54.65 40.4699 -54.75 39.7199C-54.86 38.8999 -55.62 38.2399 -56.38 38.0499C-57 37.8899 -56.9201 38.1499 -57.1101 38.2199C-57.5201 38.3699 -57.83 38.3599 -58.13 38.7799H-58.1101ZM85.59 38.7799C84.73 39.8599 85.1199 42.3699 85.0399 43.7499C84.7899 48.0099 85.17 52.2299 84.84 56.4499C84.75 57.6599 84.7 59.5599 86.25 59.8799C87.41 60.1199 88.3 59.4899 88.66 58.4099C88.95 57.5299 88.61 55.4299 88.55 54.3799C88.33 50.4899 88.11 46.3199 88.64 42.4999C88.79 41.4099 89.21 39.4799 88.38 38.6499C87.55 37.8199 86.31 37.8799 85.59 38.7799ZM-24.05 48.4099C-24.53 47.8799 -25.06 47.3799 -25.53 46.8399C-26.46 45.7699 -27.23 44.0399 -28.87 44.0399C-29.66 44.0399 -30.56 44.5499 -30.68 45.3999C-31.01 47.7099 -28.89 48.4599 -27.5 49.7399C-24.15 52.8299 -24.5 56.7899 -21.76 59.9999C-21.13 60.7399 -20.2801 61.3799 -19.6501 62.1199C-16.7501 65.4599 -15.4 70.4299 -15.72 74.8199C-15.81 76.1199 -16.46 77.7499 -16.03 79.0399C-15.82 79.6799 -15.11 80.2799 -14.44 80.3399C-12.24 80.5399 -11.99 78.5999 -12.11 76.8799C-12.27 74.6699 -12.16 72.4699 -12.32 70.2699C-12.49 67.8299 -14.39 63.4899 -15.75 61.4099C-17.24 59.1199 -19.45 57.7999 -20.55 55.1699C-21.85 52.0499 -21.6 51.1099 -24.05 48.3999V48.4099ZM117.49 46.1399C117.05 45.6299 116.86 45.1199 116.26 44.6299C115.39 43.9399 114 43.7599 113.27 44.7299C112.38 45.9199 113.15 47.2799 114.1 48.1299C115.36 49.2699 116.58 49.9499 117.64 51.3999C119.22 53.5599 119.44 56.1499 120.77 58.3799C121.83 60.1599 123.37 61.1699 124.57 62.7399C126.96 65.8499 128.32 70.9199 127.98 74.8199C127.88 75.9299 127.26 77.6199 127.52 78.6899C128.09 81.0699 131.29 80.8899 131.5 78.5399C131.57 77.6999 131.4 76.8499 131.39 76.0599C131.37 74.2199 131.52 72.1899 131.39 70.3799C131.2 67.7699 128.88 62.5599 127.26 60.4699C126.14 59.0199 124.59 57.9599 123.66 56.3199C122.84 54.8699 122.55 53.0999 121.89 51.5899C120.91 49.3399 119.06 47.9599 117.49 46.1399ZM13.25 50.5499C12.01 49.5799 10.31 48.1399 8.70995 49.2899C7.77995 49.9599 7.86996 51.2799 8.53996 52.1099C9.20996 52.9399 10.46 53.1699 11.36 53.7299C14.15 55.4499 17.35 60.8099 18.6 63.8299C20.67 68.8099 20.54 70.0999 25.29 73.3299C29.35 76.0899 34.47 79.2199 39.46 79.8299C44.45 80.4399 47.53 78.6099 51.34 82.8199C52.49 84.0899 54.45 87.6999 55.99 87.9799C57.23 88.2099 58.32 87.3399 58.31 86.0699C58.31 85.6299 58.09 85.0199 57.83 84.6799C57.31 83.9799 56.38 83.4099 55.75 82.7799C54.61 81.6299 53.74 80.2199 52.57 79.0999C47.87 74.5799 42.68 77.3499 37.11 75.6699C34.15 74.7799 27.29 70.8499 25.12 68.6699C23.2 66.7399 22.59 63.8899 21.46 61.4899C19.59 57.5099 16.71 53.2799 13.25 50.5599V50.5499ZM4.02995 52.3299C2.74995 51.2199 0.399953 48.8099 -1.40005 50.0199C-1.77005 50.2599 -2.30004 51.0499 -2.31004 51.4999C-2.31004 51.6499 -2.10004 52.2999 -2.03004 52.4699C-1.52004 53.6499 0.479957 54.1299 1.54996 54.8699C2.00996 55.1899 2.52995 55.6699 2.94995 56.0499C4.85995 57.7899 10.32 63.0699 11.2 65.1399C12.38 67.9099 10.28 69.5099 8.01995 67.4899C6.86995 66.4699 6.06995 64.9999 5.06995 63.8299C2.76995 61.1499 -1.09004 57.5399 -3.85004 55.2999C-7.43004 52.4099 -9.40004 53.2599 -13.42 52.2699C-14.52 51.9999 -15.79 51.2299 -16.91 52.0499C-17.65 52.5799 -17.85 53.4999 -17.55 54.3399C-16.83 56.3499 -13.34 55.8999 -11.65 56.0799C-8.88005 56.3599 -7.23004 56.9899 -5.13004 58.7999C-2.30004 61.2499 0.769951 64.3699 3.26995 67.1699C4.94995 69.0499 6.49996 71.6399 9.22996 72.1499C14.09 73.0699 16.04 69.0499 14.8 64.8299C13.67 61.0199 7.12995 54.9999 4.02995 52.3199V52.3299ZM146.11 50.9599C144.97 50.1099 143.58 49.1199 142.18 50.0899C141.07 50.8599 141.28 52.4599 142.24 53.2299C143.32 54.1099 144.81 54.4099 146.05 55.5099C148.16 57.3599 150.99 60.2199 152.86 62.3199C153.98 63.5699 155.65 65.6499 155.08 67.4299C154.81 68.2599 153.74 68.5399 152.96 68.3099C151.49 67.8699 149.77 65.0799 148.73 63.8699C147.74 62.7199 146.64 61.7299 145.57 60.6799C143.34 58.4899 139.22 54.1599 136.33 53.2499C134.46 52.6599 132.32 52.7699 130.36 52.2999C129.83 52.1799 129.31 51.8899 128.72 51.7899C128.13 51.6899 127.27 51.6899 126.77 51.9999C126.74 52.0199 126.28 52.4499 126.26 52.4799C125.93 52.9699 125.97 53.9499 126.21 54.4799C127.05 56.3399 130.49 55.8899 132.16 56.0599C136.26 56.4799 137.18 57.6399 139.97 60.2299C142.02 62.1299 144.13 63.9799 146 66.0699C148.25 68.5799 150.32 72.2799 154.15 72.2599C156.68 72.2599 158.65 70.5099 158.85 67.9699C159.24 62.9999 155.03 59.4899 151.88 56.3599C150.04 54.5299 148.21 52.4899 146.11 50.9299V50.9599ZM-75.35 78.8399C-74.78 78.5299 -74.6 78.2599 -74.22 77.7499C-73.16 76.3299 -71.54 73.9199 -70.73 72.3599C-68.42 67.9299 -69.08 62.7699 -69.41 57.9999C-69.5 56.7499 -69.32 55.7799 -69.2 54.5899C-69.02 52.7099 -70.58 50.8599 -72.35 52.1599C-73.68 53.1499 -73.17 55.5999 -73.01 57.0599C-72.44 62.3699 -71.78 67.4499 -74.73 72.2799C-75.63 73.7599 -76.88 74.5599 -77.81 75.8099C-78.79 77.1299 -78.36 79.1499 -76.48 79.1499C-76 79.1499 -75.73 79.0499 -75.35 78.8399ZM72.3 73.4899C74.97 69.0299 74.71 64.6099 74.41 59.6299C74.38 59.1199 74.3199 58.5999 74.2899 58.0999C74.2199 56.6899 74.53 54.9699 74.38 53.6699C74.23 52.3699 73.36 51.6599 71.99 51.8799C70.62 52.0999 70.2299 53.9499 70.3699 55.0999C71.1299 61.4899 72.4299 68.2999 67.8699 73.7699C66.7599 75.0999 64.8599 75.9599 65.4799 78.0499C65.5999 78.4599 66.18 79.0199 66.6 79.0899C68.87 79.4699 69.4 77.6099 70.42 76.1099C71.01 75.2499 71.75 74.3699 72.28 73.4799L72.3 73.4899ZM-27.43 73.1799C-26.56 71.6999 -28.1801 69.0699 -28.0201 67.2799C-27.7601 64.4199 -26.84 62.0199 -27.41 59.0399C-27.53 58.4199 -27.8501 57.6599 -27.9901 57.0399C-28.2101 56.0099 -28.3801 53.9899 -28.9001 53.2099C-29.7901 51.8799 -31.87 51.8799 -32.42 53.4899C-32.94 55.0099 -31.35 57.5999 -31.03 59.2699C-30.47 62.1799 -31.24 64.0399 -31.42 66.7699C-31.5 67.9999 -31.5 69.6799 -31.42 70.9099C-31.36 71.8399 -31.0501 73.0099 -30.2701 73.5799C-29.4901 74.1499 -27.98 74.1299 -27.42 73.1899L-27.43 73.1799ZM114.71 53.1499C114.07 52.2499 112.87 51.9099 111.93 52.5799C110.93 53.2899 111.06 54.5899 111.37 55.6199C111.8 57.0499 112.56 58.4099 112.8 59.9699C113.18 62.3899 112.45 64.5499 112.18 66.8799C112.03 68.1399 112.12 71.1499 112.52 72.3299C113.28 74.5299 116.34 74.5599 116.52 72.2599C116.62 71.0699 116.12 70.5099 115.88 69.4799C115.14 66.3499 116.79 63.1299 116.41 59.8699C116.28 58.7999 115.75 57.3599 115.5 56.2399C115.27 55.1999 115.34 54.0399 114.71 53.1599V53.1499ZM-47.35 70.7999C-44.23 66.5199 -41.8901 63.1799 -44.9501 57.8999C-45.4501 57.0299 -47.96 53.3899 -48.6 52.8799C-50.2 51.5999 -52.38 52.7699 -51.93 54.7599C-51.64 55.9999 -50.29 56.8099 -49.48 57.6799C-46.77 60.5999 -46.25 63.8099 -48.96 66.9699C-49.79 67.9299 -51.54 68.9099 -51.72 70.1899C-51.92 71.6199 -51.22 72.5599 -49.73 72.4899C-48.67 72.4399 -47.93 71.5899 -47.35 70.7999ZM98.2899 57.3899C97.6699 56.4199 95.9799 53.6999 95.2599 53.0399C93.6799 51.5699 91.35 52.5199 91.77 54.7799C92 56.0199 94.04 57.3899 94.84 58.4399C97.04 61.3299 97.11 64.1899 94.74 66.9799C93.79 68.0999 92.1699 68.7599 91.8699 70.3099C91.7399 70.9799 92.04 71.7199 92.58 72.1399C93.55 72.8899 94.8199 72.4899 95.6199 71.6899C96.3499 70.9599 97.9199 68.5599 98.5399 67.5899C100.89 63.9099 100.55 60.9599 98.2899 57.4099V57.3899ZM61.0099 71.1799C60.7999 71.6399 61.05 72.6799 61.34 73.1099C61.93 73.9599 63.22 73.9999 64.02 73.4199C65.05 72.6699 65.07 71.2299 65.42 70.1799C66.27 67.6199 67.42 64.7899 68.05 62.1799C68.36 60.8999 68.21 58.9999 66.5 58.9799C64.11 58.9499 64.33 62.1299 63.94 63.7499C63.32 66.3599 62.0599 68.8499 61.0099 71.1899V71.1799ZM-7.63004 61.7199C-7.86004 61.4299 -8.06005 60.9599 -8.29005 60.6699C-9.05005 59.7399 -10.26 59.1199 -11.38 59.8499C-12.71 60.7199 -12.13 62.2999 -11.32 63.2899C-10.16 64.6999 -8.19004 66.5699 -6.81004 67.7599C-4.09004 70.0899 0.269956 73.6299 1.75996 76.9399C2.67996 78.9799 2.03995 79.8499 2.23995 81.7299C2.27995 82.1299 2.67995 83.0599 2.98995 83.2999C3.11995 83.3999 3.26996 83.3799 3.39996 83.4399C3.47996 83.4799 3.46995 83.5999 3.55995 83.6299C4.33995 83.8799 5.40995 83.4399 5.83995 82.7399C6.57995 81.5299 6.12996 78.9199 5.82996 77.5199C5.25996 74.8899 2.95996 72.2599 1.15996 70.3199C-1.67004 67.2399 -5.07004 64.9999 -7.63004 61.7199ZM138.86 64.8199C138.23 64.2299 137.53 63.5999 136.97 62.9499C136.27 62.1399 135.29 60.2399 134.42 59.8299C133.42 59.3599 132.13 59.5299 131.66 60.6299C131.3 61.4599 131.7 62.2699 132.08 62.9999C135.76 67.3599 140.62 70.2499 144.06 74.8099C145.04 76.1099 145.97 77.6999 146.06 79.3699C146.13 80.5599 145.52 81.4299 146.17 82.6599C147.08 84.3699 149.48 83.8599 149.83 82.0099C150.01 81.0399 149.82 79.3599 149.64 78.3699C148.7 72.8999 142.73 68.4099 138.86 64.8399V64.8199ZM-34.75 60.5599C-35.28 60.0699 -36.2 60.0399 -36.85 60.2999C-38.29 60.8699 -38.4101 63.0499 -38.8101 64.3299C-39.3401 66.0099 -40.4401 68.0699 -41.5801 69.4099C-42.3901 70.3699 -44.4801 71.8799 -44.6301 73.0699C-44.7201 73.7999 -44.57 74.6299 -43.92 75.0499C-43.09 75.5899 -42.1501 75.4599 -41.3801 74.8799C-40.5701 74.2699 -40.2001 73.3099 -39.6101 72.5199C-38.4301 70.9599 -37.2501 69.8099 -36.4001 67.9899C-36.1301 67.4199 -35.9601 66.7499 -35.7201 66.1999C-35.0701 64.7399 -33.26 61.9599 -34.76 60.5799L-34.75 60.5599ZM103.24 67.6799C102.84 68.3199 102.51 68.9199 102.01 69.4999C101.2 70.4499 99.21 71.8499 99.06 73.0599C98.75 75.5599 101.33 76.0399 102.78 74.3999C103.29 73.8199 103.63 72.9999 104.08 72.3999C104.74 71.5099 105.58 70.7199 106.21 69.7799C107.25 68.2499 107.71 66.7399 108.41 65.0599C108.97 63.7099 110.35 61.8899 108.87 60.5799C108.36 60.1299 107.53 60.0199 106.89 60.2399C105.39 60.7599 105.31 62.8899 104.92 64.1499C104.53 65.4099 103.93 66.5599 103.24 67.6799ZM-19.7901 76.6899C-19.3801 76.2699 -19.2101 75.4999 -19.2401 74.9299C-19.2901 73.6199 -19.92 72.0899 -20.16 70.7899C-20.42 69.3599 -20.5101 66.0299 -21.1501 64.9699C-22.0701 63.4699 -24.47 63.8299 -24.69 65.6499C-24.87 67.0899 -23.8 69.0899 -23.57 70.5999C-23.32 72.2299 -23.75 75.3099 -22.68 76.5199C-21.94 77.3699 -20.59 77.5299 -19.78 76.6999L-19.7901 76.6899ZM124.23 76.2799C124.46 75.7899 124.44 74.7499 124.36 74.2099C124.1 72.5999 123.53 70.8899 123.26 69.2199C123.08 68.0899 123.14 66.6199 122.75 65.5999C121.84 63.2299 118.9 63.6099 119 66.2499C119.05 67.5699 119.92 69.3099 120.13 70.6899C120.36 72.2299 120.02 75.0799 120.81 76.2999C121.35 77.1299 122.43 77.4099 123.34 77.0799C123.44 77.0399 124.2 76.3299 124.23 76.2699V76.2799ZM-3.29005 76.9899C-4.00005 75.7699 -4.81005 74.0799 -5.54005 72.9899C-6.90005 70.9699 -9.77005 71.6699 -9.32005 74.1899C-9.12005 75.3199 -7.49004 76.9699 -6.81004 77.9699C-3.98004 82.0899 -3.59005 85.4699 -4.50005 90.3699C-4.71005 91.5099 -5.62005 93.2499 -5.51005 94.3199C-5.27005 96.6099 -2.23005 96.5999 -1.55005 94.5599C-1.37005 94.0199 -1.44005 93.4199 -1.37005 92.8899C-0.700049 87.6799 0.179953 83.5899 -2.29005 78.6199C-2.57005 78.0499 -2.98005 77.5399 -3.30005 76.9999L-3.29005 76.9899ZM137.13 72.0199C135.42 71.2899 134.17 72.3899 134.39 74.1899C134.54 75.3799 135.97 76.6699 136.65 77.6299C139.41 81.5399 140 84.5799 139.33 89.3699C139.15 90.6299 138.61 91.7899 138.33 93.0199C137.49 96.7699 141.48 97.0299 142.19 94.2999C142.34 93.6999 142.35 92.9999 142.43 92.3699C142.92 88.1699 143.59 84.6999 142.19 80.5299C141.43 78.2599 140.01 76.6399 138.89 74.6399C138.69 74.2899 138.5 73.5499 138.29 73.1999C138.08 72.8499 137.48 72.1799 137.12 72.0199H137.13ZM-39.4001 80.6899C-41.9101 79.3899 -44.6 77.8599 -47.19 76.7599C-48.82 76.0699 -50.62 75.6699 -52.22 74.9799C-53.37 74.4799 -54.65 73.3699 -55.98 73.6999C-57.45 74.0599 -57.93 75.7999 -56.96 76.9399C-55.99 78.0799 -54.1801 78.0499 -52.8601 78.4199C-46.9001 80.0799 -42.23 83.7999 -36.67 86.0799C-33.67 87.3099 -30.17 88.1799 -27.35 89.7599C-25.95 90.5499 -25.16 91.6799 -23.32 91.2799C-22.81 91.1699 -22.5501 91.0099 -22.3101 90.5399C-22.2101 90.3499 -21.91 89.5699 -21.94 89.4099C-21.96 89.2799 -22.2201 88.5499 -22.2901 88.4099C-22.8601 87.2999 -24.7501 87.0699 -25.7901 86.6499C-30.3901 84.7699 -35.0301 82.9699 -39.4001 80.6999V80.6899ZM102.75 79.8599C100.69 78.8099 98.32 77.5299 96.21 76.6399C94.93 76.1099 93.5299 75.7999 92.2599 75.3199C90.7699 74.7499 89.44 73.5399 87.78 73.7299C86.12 73.9199 85.76 76.0299 86.82 77.0899C87.63 77.8999 90.8 78.3899 92.07 78.7999C97.46 80.5499 101.84 83.9399 107.02 86.0499C110.21 87.3499 113.51 88.1999 116.49 89.9199C117.76 90.6499 118.96 91.7399 120.54 91.2199C121.57 90.8799 121.87 89.5399 121.49 88.6199C120.95 87.3099 118.28 86.7799 117.03 86.2699C113.23 84.7099 109.08 83.2299 105.49 81.3799C104.56 80.8999 103.66 80.3299 102.75 79.8599ZM-19.5801 81.4099C-21.7401 80.3499 -24.09 79.1999 -26.3 78.2699C-28.51 77.3399 -30.8501 76.7899 -32.9901 75.4599C-33.7401 74.9899 -34.59 74.1299 -35.51 73.9599C-37.65 73.5599 -38.88 75.9099 -37.35 77.4499C-36.56 78.2399 -35.33 78.3799 -34.35 78.7799C-30.7 80.2899 -26.79 81.7599 -23.25 83.4799C-21.4 84.3799 -20.2401 85.2799 -18.5801 86.3399C-17.5501 86.9999 -16.01 87.5099 -15.15 86.3099C-14.18 84.9499 -15.17 83.6099 -16.41 82.9399C-17.35 82.4299 -18.61 81.8699 -19.57 81.3999L-19.5801 81.4099ZM118.45 78.7299C116.13 77.7199 113.25 77.0299 111.12 75.7799C109.71 74.9599 108.1 73.0399 106.37 74.3699C105.72 74.8699 105.56 75.5799 105.71 76.3399C105.77 76.6599 106.07 77.2699 106.31 77.4999C106.47 77.6599 107.32 78.1299 107.55 78.2199C112.57 80.3499 117.97 81.9099 122.69 84.6499C123.81 85.2999 125.34 86.8199 126.54 86.9999C128.3 87.2499 129.4 85.7899 128.63 84.1899C128.09 83.0799 126.21 82.5499 125.13 82.0099C122.94 80.9099 120.67 79.6999 118.46 78.7299H118.45ZM32.03 82.2399C30.83 81.6399 29.66 81.0199 28.49 80.3599C23.98 77.7999 18.99 73.2799 13.6 76.3799C9.19995 78.8999 10.21 84.5199 5.79996 87.0599C4.65996 87.7199 3.02996 87.9299 2.29996 89.1299C1.33996 90.6999 2.43996 92.2699 4.21996 92.0899C4.36996 92.0699 4.89996 91.9499 5.03996 91.8999C5.55996 91.6999 8.30995 89.6399 8.92995 89.1599C11.56 87.1299 11.74 85.2499 13.1 82.4899C14.55 79.5399 16.76 78.2199 19.99 79.5699C24.72 81.5399 29.24 85.7999 34.36 87.1899C37.58 88.0699 40.4 87.5299 43.58 87.7799C44.8 87.8799 46.2699 88.4499 47.3999 88.4999C48.8599 88.5699 49.99 87.8499 49.81 86.2899C49.75 85.7199 49.4199 85.1999 48.9299 84.8999C48.1599 84.4199 46.8799 84.3999 45.9599 84.3599C43.5899 84.2599 41.2 84.2799 38.83 84.1599C36.04 84.0199 34.43 83.4399 32.03 82.2399ZM-59.01 78.7199C-59.71 77.8699 -61.4601 77.7599 -62.1201 78.6899C-63.2401 80.2699 -61.96 82.3099 -61.5 83.9499C-60.56 87.3299 -60.29 90.8199 -60.74 94.3199C-61.4 99.4099 -64.67 104.79 -62.09 109.83C-61.6 110.78 -59.83 113.51 -59.08 114.15C-58.05 115.02 -56.26 115.13 -55.73 113.68C-54.92 111.49 -57.56 110.51 -58.49 109.01C-60.91 105.11 -58.1601 100.39 -57.4501 96.3699C-57.0301 93.9899 -56.8201 90.8599 -57.0201 88.4599C-57.1601 86.8199 -57.87 84.9299 -58.13 83.2799C-58.32 82.0799 -58.26 80.7999 -58.59 79.6099C-58.65 79.3699 -58.86 78.9099 -59.01 78.7299V78.7199ZM83.03 111.96C83.57 112.76 83.87 113.54 84.67 114.19C85.86 115.15 87.88 114.97 88.03 113.22C88.21 111.06 86.12 110.48 85.11 108.91C82.88 105.43 85.1299 101.26 85.9299 97.7099C86.6699 94.4299 86.92 90.2499 86.36 86.9099C86.11 85.4099 85.55 83.8599 85.34 82.3499C85.19 81.2299 85.4 79.8599 84.72 78.8499C83.99 77.7699 82.0299 77.7599 81.3699 78.9099C80.5399 80.3499 81.8999 82.8699 82.2899 84.3699C83.2999 88.2499 83.4099 92.1099 82.6199 96.0599C81.9499 99.3999 80.61 102.03 80.64 105.58C80.66 108.61 81.44 109.63 83.02 111.97L83.03 111.96ZM-43.7701 91.8599C-40.85 93.5699 -37.1 93.4399 -33.94 94.7899C-32.77 95.2899 -31.87 96.0299 -30.8 96.5999C-27.84 98.1899 -25.44 95.4499 -28.14 93.3199C-30.43 92.6099 -32.5901 91.4799 -34.8801 90.7699C-37.9401 89.8099 -40.25 89.7799 -43.05 87.8999C-45.85 86.0199 -48.36 84.2599 -51.2701 82.5999C-52.0401 82.1599 -52.4401 82.0299 -53.3601 82.0999C-54.0501 82.1499 -54.78 82.8199 -54.85 83.4999C-55.13 86.0999 -52.6 86.2599 -50.82 87.0099C-47.9 88.2399 -46.25 90.4199 -43.76 91.8699L-43.7701 91.8599ZM90.07 82.1199C89.54 82.2199 88.8 83.0599 88.75 83.5899C88.53 85.9499 91.33 86.3499 92.94 87.0499C96.61 88.6499 98.8399 91.9099 102.76 93.0299C105.51 93.8099 107.91 93.8099 110.61 95.1899C112.17 95.9899 113.47 97.4699 115.4 97.0199C116.55 96.7499 116.9 95.2699 116.48 94.2799C115.97 93.0899 114.2 92.9199 113.17 92.5299C111.73 91.9899 110.3 91.2299 108.83 90.7799C105.55 89.7799 103.39 89.8399 100.39 87.7599C98.08 86.1599 96.32 85.0499 93.89 83.6299C92.57 82.8499 91.84 81.8099 90.08 82.1299L90.07 82.1199ZM70.7599 91.2099C69.8799 90.8999 67.91 91.0899 66.82 90.9599C64.68 90.7099 62.74 90.1699 60.52 90.3499C58.3 90.5299 56.2399 90.7899 54.1199 90.9699C51.4299 91.1899 48.71 91.7899 46.08 91.9099C43.23 92.0299 40.13 91.7599 37.31 92.3299C36.37 92.5199 35.34 93.0699 34.31 93.0499C32.92 93.0099 30.61 90.7799 29.37 89.9299C27.04 88.3199 24.34 86.7499 21.71 85.7199C20.51 85.2499 18.17 84.3399 16.95 84.3799C15.24 84.4299 14.15 86.1299 15.17 87.6199C16 88.8399 17.5 88.4499 18.71 88.6199C21.84 89.0599 27.61 92.8099 30.12 94.8699C32.27 96.6299 31.45 98.3699 31.57 100.85C31.61 101.68 31.8 103.7 32.1 104.43C32.13 104.49 32.68 105.16 32.76 105.23C33.89 106.11 35.6 105.73 35.88 104.23C36.08 103.15 35.65 102.6 35.42 101.64C34.89 99.4899 34.25 96.7099 37.06 96.0099C39.87 95.3099 43.46 95.6599 46.49 95.4299C52.66 94.9699 60.15 93.0399 66.24 94.4599C67.38 94.7299 69.24 95.5799 70.33 95.4199C72.3 95.1299 72.87 92.7299 71.31 91.5599C71.26 91.5199 70.8 91.2399 70.77 91.2299L70.7599 91.2099ZM-64.07 114.64C-67.79 111.59 -67.45 108.28 -67.24 103.71C-67.08 100.39 -65.5701 97.6799 -65.0401 94.4499C-64.8001 92.9599 -64.85 91.8799 -64.75 90.3999C-64.65 88.8099 -63.56 85.8899 -65.22 84.8799C-66.08 84.3599 -67.5 84.7099 -67.98 85.6299C-68.79 87.1799 -68.19 88.9699 -68.16 90.6099C-68.1 93.7599 -69.03 95.6999 -69.95 98.5299C-71.05 101.9 -71.07 106.68 -70.74 110.22C-70.27 115.35 -67.11 116.7 -63.49 119.35C-62.55 120.04 -61.77 121.18 -60.46 121.3C-58.74 121.46 -57.7401 119.81 -58.6201 118.32C-59.2501 117.27 -60.7 116.92 -61.71 116.35C-62.56 115.87 -63.33 115.24 -64.07 114.63V114.64ZM82.52 116.61C80.32 115.39 77.46 113.53 76.78 110.94C76.1 108.35 76.21 103.61 76.8 100.86C77.23 98.8699 78.24 96.9499 78.6 94.9199C78.96 92.8899 78.8299 91.0299 79.0399 89.0699C79.1899 87.7399 79.83 86.4499 78.83 85.2499C78.07 84.3399 76.52 84.5099 75.84 85.4499C74.89 86.7699 75.4999 90.0399 75.4299 91.7499C75.2899 95.5099 73.6 97.5699 73.06 100.83C72.67 103.18 72.66 108.89 73.06 111.24C73.77 115.35 76.6299 116.8 79.6499 119C80.8799 119.9 82.4199 121.78 84.1199 121.18C85.0499 120.85 85.55 119.81 85.27 118.86C84.9 117.6 83.4899 117.16 82.5099 116.61H82.52ZM-15.86 90.2799C-16.85 89.2799 -18.3 89.9199 -19.07 90.8699C-19.91 91.9099 -20.5101 93.1399 -21.4501 94.2699C-22.5001 95.5299 -23.79 97.0599 -24.91 98.2399C-28.72 102.27 -34.7001 102.73 -38.6301 106.4C-41.0501 108.66 -42.1501 112.13 -44.2701 114.59C-45.2801 115.77 -46.53 116.3 -46.28 118.14C-46.24 118.42 -45.9501 119.03 -45.7401 119.2C-45.6101 119.3 -44.5501 119.65 -44.3801 119.64C-44.3201 119.64 -43.38 119.32 -43.3 119.27C-42.89 119.06 -42.18 118.18 -41.91 117.77C-39.91 114.74 -37.91 110.17 -35.03 108.03C-32.92 106.47 -30.5601 105.85 -28.2201 104.82C-23.7401 102.85 -21.2601 99.2299 -18.1501 95.6899C-17.4001 94.8299 -15.86 93.5799 -15.51 92.5499C-15.25 91.7899 -15.27 90.8599 -15.86 90.2599V90.2799ZM127.84 90.2799C127.36 89.7999 126.55 89.7399 125.91 89.8799C124.58 90.1699 123.72 92.4599 122.92 93.4999C121.89 94.8399 120.23 96.6299 119.05 97.8899C115.11 102.09 110.3 102.41 105.96 105.63C103.03 107.81 101.98 111.24 99.88 114.02C99.03 115.14 97.11 116.47 97.31 117.97C97.37 118.39 97.75 119.11 98.14 119.31C98.97 119.73 99.55 119.7 100.38 119.28C101.4 118.75 103.39 115.04 104.13 113.87C105.81 111.22 106.95 109 109.77 107.3C111.89 106.02 114.36 105.5 116.55 104.38C120.05 102.59 122.79 98.8399 125.34 95.9299C126.08 95.0899 127.82 93.5799 128.15 92.6499C128.4 91.9299 128.4 90.8599 127.83 90.2899L127.84 90.2799ZM-51.88 90.2699C-52.3 90.3299 -52.8 90.6199 -53.05 90.9599C-54.08 92.3699 -52.9201 93.9699 -52.7901 95.4599C-52.6101 97.5399 -53.7101 100.21 -54.4401 102.17C-54.8801 103.37 -56.1001 105.45 -55.8601 106.68C-55.5901 108.12 -54.09 108.78 -52.85 107.98C-51.72 107.25 -51.74 105.34 -51.41 104.16C-50.79 101.95 -49.48 99.8299 -49.19 97.5099C-49.01 96.0599 -48.95 92.6299 -49.67 91.4099C-50.15 90.6099 -50.93 90.1399 -51.88 90.2699ZM91.82 90.2699C91.33 90.3299 90.85 90.6799 90.56 91.0799C89.64 92.3799 90.7299 94.0199 90.8999 95.3599C91.1599 97.4099 89.7 100.9 88.95 102.89C88.47 104.15 87.5099 105.5 87.8999 106.93C88.2499 108.2 89.65 108.68 90.74 107.98C91.98 107.18 91.94 105.2 92.32 103.89C92.95 101.76 94.1499 99.7399 94.4799 97.4799C94.6799 96.1299 94.68 93.1899 94.22 91.9499C93.85 90.9399 92.97 90.1299 91.82 90.2799V90.2699ZM66 99.3699C61.55 96.5099 52.19 98.6399 47.09 99.2199C45.83 99.3599 44.42 99.5799 43.18 99.6399C41.76 99.7099 39.62 99.2499 38.74 100.67C37.86 102.09 38.69 103.64 40.29 103.76C41.56 103.86 42.7 103.26 43.91 103.05C45.93 102.7 48.15 102.68 50.19 102.42C53.78 101.96 60.3499 100.38 63.5399 102.19C65.7899 103.47 66.15 107.95 64.7 109.91C62.92 112.33 56.9499 112.6 54.1199 113.06C48.6899 113.94 43.62 114.89 38.23 116.16C34.21 117.11 29.6 118.95 26.5 115.06C25.6 113.92 25 112.57 24.21 111.36C22.45 108.67 20.35 106.09 18.99 103.16C18.21 101.48 17.92 98.9799 15.5 99.2199C14.78 99.2899 14.07 99.8899 14 100.61C13.84 102.33 14.71 102.89 15.46 104.2C16.09 105.3 16.6 106.48 17.26 107.56C18.24 109.17 19.54 110.61 20.59 112.18C22.4 114.9 23.58 118.35 26.63 119.97C31.7 122.66 39.16 119.35 44.42 118.21C50.11 116.97 56.12 116.63 61.83 115.28C63.81 114.81 66.5 113.9 67.67 112.14C69.83 108.89 69.57 101.64 66 99.3499V99.3699Z" fill="#1A1A1A"/>
</svg>
