<svg width="52" height="15" viewBox="0 0 52 15" fill="none" xmlns="http://www.w3.org/2000/svg">
<path d="M8.17102 3.77133C13.361 4.99133 15.901 3.01132 18.591 3.64132C22.961 4.66132 23.641 7.28132 27.981 8.47132C32.241 9.64132 36.371 8.51132 40.461 6.82132C44.541 5.13132 48.941 -0.838675 50.651 0.761325C51.671 1.71133 48.531 7.46133 42.061 10.9413C37.921 13.1613 32.621 13.9813 27.731 14.0913C19.241 14.2713 14.131 14.4713 6.48102 9.80132C3.73102 8.12132 -0.608987 1.99133 0.351013 0.611326C1.52101 -1.07867 5.48102 3.14132 8.17102 3.78132V3.77133Z" fill="white"/>
<path d="M23.031 14.3713C17.051 14.3713 12.561 13.7613 6.371 9.9713C4.031 8.5413 0.551007 3.9413 0.0610068 1.6413C-0.0489932 1.1413 -0.00900787 0.751296 0.170992 0.491296C0.990992 -0.688704 2.781 0.481295 4.681 1.7113C5.901 2.5013 7.171 3.3313 8.211 3.5713C11.191 4.2713 13.241 3.9113 15.051 3.5913C16.351 3.3613 17.471 3.1713 18.631 3.4413C20.911 3.9713 22.231 4.9513 23.501 5.8913C24.701 6.7813 25.941 7.7013 28.021 8.2713C32.461 9.4813 36.751 8.1213 40.361 6.6313C42.091 5.9213 43.911 4.3913 45.511 3.0513C47.741 1.1813 49.661 -0.428703 50.771 0.611297C50.981 0.811297 51.061 1.1413 51.011 1.5913C50.731 3.7413 47.491 8.2513 42.141 11.1213C37.561 13.5813 31.771 14.2013 27.721 14.2913H27.261C25.751 14.3313 24.341 14.3613 23.011 14.3613L23.031 14.3713ZM1.151 0.421296C0.881003 0.421296 0.670998 0.511296 0.520998 0.731296C0.410998 0.891296 0.39098 1.1813 0.47098 1.5613C0.93098 3.7413 4.36101 8.2613 6.59101 9.6313C14.051 14.1913 19.021 14.0813 27.261 13.9013H27.721C31.721 13.8013 37.441 13.1913 41.951 10.7713C47.111 8.0013 50.341 3.5613 50.601 1.5513C50.641 1.2513 50.601 1.0313 50.491 0.921296C49.651 0.131296 47.771 1.7113 45.781 3.37129C44.151 4.73129 42.311 6.2813 40.521 7.0213C36.841 8.5413 32.461 9.9313 27.911 8.6813C25.761 8.0913 24.481 7.1513 23.251 6.2413C21.951 5.2813 20.731 4.3713 18.531 3.8613C17.451 3.6113 16.371 3.8013 15.121 4.0213C13.361 4.3313 11.181 4.7213 8.11099 3.9913C6.99099 3.7313 5.70099 2.8913 4.45099 2.0713C3.16099 1.2313 1.93099 0.431296 1.14099 0.431296L1.151 0.421296Z" fill="#141414"/>
<path d="M31.331 14.0811C31.241 14.0811 31.161 14.0211 31.131 13.9311C31.101 13.8211 31.161 13.7111 31.271 13.6711C36.481 12.2111 40.221 10.4411 43.401 7.95114C45.921 5.97114 48.101 3.46114 49.711 0.681145C49.771 0.581145 49.891 0.551145 49.991 0.601145C50.091 0.661145 50.121 0.781143 50.071 0.881143C48.441 3.70114 46.221 6.25114 43.661 8.27114C40.441 10.8011 36.651 12.5911 31.391 14.0611C31.371 14.0611 31.351 14.0611 31.331 14.0611V14.0811Z" fill="#141414"/>
<path d="M30.631 14.1311C30.551 14.1311 30.4809 14.0911 30.4409 14.0211C30.3909 13.9211 30.441 13.7911 30.531 13.7411C33.561 12.2211 36.691 10.6611 39.561 8.7311C41.901 7.1611 44.871 4.9511 47.031 1.8211C47.091 1.7311 47.221 1.7011 47.321 1.7711C47.411 1.8311 47.441 1.9611 47.371 2.0611C45.171 5.2511 42.161 7.4911 39.791 9.0811C36.901 11.0211 33.7609 12.5911 30.7209 14.1111C30.6909 14.1311 30.661 14.1311 30.631 14.1311Z" fill="#141414"/>
<path d="M29.381 14.2612C29.311 14.2612 29.241 14.2212 29.201 14.1512C29.141 14.0512 29.181 13.9212 29.281 13.8712C32.981 11.8512 36.141 9.71115 39.241 7.14115C39.331 7.07115 39.461 7.08115 39.531 7.17115C39.601 7.26115 39.591 7.39115 39.501 7.46115C36.381 10.0512 33.201 12.2012 29.481 14.2312C29.451 14.2512 29.411 14.2612 29.381 14.2612Z" fill="#141414"/>
<path d="M27.771 14.2512C27.701 14.2512 27.641 14.2212 27.601 14.1612C27.531 14.0712 27.561 13.9412 27.651 13.8712C30.031 12.2212 32.071 10.6212 34.291 8.67119C34.381 8.59119 34.511 8.60119 34.581 8.69119C34.661 8.78119 34.651 8.91119 34.561 8.98119C32.331 10.9412 30.271 12.5512 27.881 14.2112C27.841 14.2312 27.801 14.2512 27.761 14.2512H27.771Z" fill="#141414"/>
<path d="M26.361 14.2813C26.301 14.2813 26.251 14.2613 26.211 14.2113C26.131 14.1213 26.141 13.9913 26.231 13.9213C27.571 12.7113 28.671 11.1613 29.721 9.66132C29.921 9.37132 30.131 9.08132 30.331 8.80132C30.401 8.71132 30.531 8.68132 30.621 8.75132C30.711 8.82132 30.731 8.95132 30.671 9.04132C30.471 9.32132 30.261 9.61132 30.061 9.90132C28.991 11.4213 27.881 12.9913 26.501 14.2313C26.461 14.2713 26.411 14.2813 26.361 14.2813Z" fill="#141414"/>
<path d="M25.441 14.2811C25.441 14.2811 25.381 14.2811 25.351 14.2611C25.251 14.2111 25.201 14.0911 25.251 13.9811C25.671 13.0911 26.111 12.1411 26.551 11.1911C26.981 10.2511 27.421 9.31114 27.831 8.43114C27.881 8.33114 28.001 8.28114 28.111 8.33114C28.211 8.38114 28.261 8.50114 28.211 8.61114C27.791 9.49114 27.361 10.4311 26.931 11.3611C26.491 12.3111 26.051 13.2611 25.631 14.1511C25.591 14.2311 25.521 14.2711 25.441 14.2711V14.2811Z" fill="#141414"/>
<path d="M19.471 13.9212C19.471 13.9212 19.451 13.9212 19.441 13.9212C14.081 13.2312 8.94099 10.5212 5.33099 6.50122C3.76099 4.76122 2.331 2.58122 0.870999 0.321216C0.810999 0.221216 0.840997 0.101215 0.930997 0.0312152C1.021 -0.0287848 1.15097 0.00121652 1.22097 0.0912165C2.67097 2.34122 4.09099 4.49122 5.64099 6.22122C9.18099 10.1712 14.231 12.8212 19.491 13.5012C19.601 13.5112 19.681 13.6212 19.671 13.7312C19.661 13.8312 19.571 13.9112 19.461 13.9112L19.471 13.9212Z" fill="#141414"/>
<path d="M19.731 14.1213C19.731 14.1213 19.671 14.1213 19.641 14.1013C15.601 12.1213 11.421 10.0713 8.10098 6.86129C6.32098 5.14129 5.17099 3.75129 3.70099 1.55129C3.64099 1.45129 3.66098 1.33129 3.76098 1.26129C3.85098 1.20129 3.98099 1.22129 4.05099 1.32129C5.50099 3.50129 6.64099 4.87129 8.39099 6.57129C11.661 9.73129 15.811 11.7713 19.821 13.7313C19.921 13.7813 19.971 13.9013 19.921 14.0113C19.881 14.0813 19.811 14.1313 19.731 14.1313V14.1213Z" fill="#141414"/>
<path d="M20.681 14.2612C20.681 14.2612 20.621 14.2612 20.591 14.2412C15.981 11.8812 11.491 8.13124 8.25096 3.96124C8.18096 3.87124 8.20094 3.74124 8.29094 3.67124C8.38094 3.60124 8.51095 3.62124 8.58095 3.71124C11.781 7.84124 16.231 11.5512 20.781 13.8812C20.881 13.9312 20.921 14.0612 20.871 14.1612C20.831 14.2312 20.7609 14.2712 20.6909 14.2712L20.681 14.2612Z" fill="#141414"/>
<path d="M21.391 14.3513C21.391 14.3513 21.311 14.3413 21.271 14.3113C17.341 11.5513 14.1209 8.18126 11.7009 4.31126C11.6409 4.21126 11.671 4.09126 11.771 4.02126C11.871 3.96126 11.991 3.99126 12.061 4.09126C14.451 7.92126 17.631 11.2413 21.521 13.9713C21.611 14.0413 21.6409 14.1713 21.5709 14.2613C21.5309 14.3213 21.471 14.3513 21.401 14.3513H21.391Z" fill="#141414"/>
<path d="M22.041 14.3712C21.981 14.3712 21.911 14.3412 21.871 14.2912C19.421 10.9612 17.091 7.38125 15.141 3.94125C15.081 3.84125 15.121 3.71125 15.221 3.66125C15.321 3.60125 15.451 3.64125 15.501 3.74125C17.441 7.17125 19.761 10.7412 22.201 14.0512C22.271 14.1412 22.251 14.2712 22.161 14.3412C22.121 14.3712 22.081 14.3812 22.041 14.3812V14.3712Z" fill="#141414"/>
<path d="M23.031 14.3311C22.951 14.3311 22.881 14.2911 22.841 14.2111C21.321 10.9411 19.7109 7.29115 18.1909 3.67115C18.1509 3.56115 18.191 3.44115 18.301 3.40115C18.401 3.36115 18.5309 3.40115 18.5709 3.51115C20.0909 7.13115 21.701 10.7611 23.211 14.0311C23.261 14.1311 23.211 14.2611 23.111 14.3111C23.081 14.3211 23.051 14.3311 23.021 14.3311H23.031Z" fill="#141414"/>
<path d="M23.971 14.3613C23.871 14.3613 23.781 14.2913 23.771 14.1913L23.701 13.7713C23.251 10.9813 22.781 8.09134 22.191 5.38133C22.171 5.27133 22.241 5.16133 22.351 5.13134C22.461 5.11134 22.571 5.18133 22.601 5.29133C23.201 8.00133 23.661 10.9013 24.111 13.7013L24.181 14.1213C24.201 14.2313 24.121 14.3413 24.011 14.3613C24.001 14.3613 23.991 14.3613 23.981 14.3613H23.971Z" fill="#141414"/>
<path d="M24.6909 14.3313C24.6909 14.3313 24.6609 14.3313 24.6409 14.3313C24.5309 14.3013 24.4609 14.1913 24.4809 14.0813C24.7109 13.0613 24.7909 12.0213 24.8609 11.0113C24.9409 9.8913 25.0209 8.7413 25.3209 7.6013C25.3509 7.4913 25.4609 7.4213 25.5709 7.4513C25.6809 7.4813 25.7509 7.5913 25.7209 7.7013C25.4309 8.8013 25.351 9.9313 25.281 11.0313C25.211 12.0613 25.1309 13.1213 24.8909 14.1713C24.8709 14.2713 24.7809 14.3313 24.6909 14.3313Z" fill="#141414"/>
</svg>
