<svg width="52" height="15" viewBox="0 0 52 15" fill="none" xmlns="http://www.w3.org/2000/svg">
<path d="M8.17102 3.76962C13.361 4.98962 15.901 3.00962 18.591 3.63962C22.961 4.65962 23.641 7.27961 27.981 8.46961C32.241 9.63961 36.371 8.50962 40.461 6.81962C44.541 5.12962 48.941 -0.840384 50.651 0.759616C51.671 1.70962 48.531 7.45962 42.061 10.9396C37.921 13.1596 32.621 13.9796 27.731 14.0896C19.241 14.2696 14.131 14.4696 6.48102 9.79961C3.73102 8.11961 -0.608987 1.98962 0.351013 0.609617C1.52101 -1.08038 5.48102 3.13961 8.17102 3.77961V3.76962Z" fill="white"/>
<path d="M23.031 14.3696C17.051 14.3696 12.561 13.7596 6.371 9.96959C4.031 8.53959 0.551007 3.93959 0.0610068 1.63959C-0.0489932 1.13959 -0.00900787 0.749587 0.170992 0.489587C0.990992 -0.690413 2.781 0.479586 4.681 1.70959C5.901 2.49959 7.171 3.32959 8.211 3.56959C11.191 4.26959 13.241 3.90959 15.051 3.58959C16.351 3.35959 17.471 3.16959 18.631 3.43959C20.911 3.96959 22.231 4.94959 23.501 5.88959C24.701 6.77959 25.941 7.69959 28.021 8.26959C32.461 9.47959 36.751 8.11959 40.361 6.62959C42.091 5.91959 43.911 4.38959 45.511 3.04959C47.741 1.17959 49.661 -0.430412 50.771 0.609588C50.981 0.809588 51.061 1.13959 51.011 1.58959C50.731 3.73959 47.491 8.24959 42.141 11.1196C37.561 13.5796 31.771 14.1996 27.721 14.2896H27.261C25.751 14.3296 24.341 14.3596 23.011 14.3596L23.031 14.3696ZM1.151 0.419587C0.881003 0.419587 0.670998 0.509587 0.520998 0.729587C0.410998 0.889587 0.39098 1.17959 0.47098 1.55959C0.93098 3.73959 4.36101 8.25959 6.59101 9.62959C14.051 14.1896 19.021 14.0796 27.261 13.8996H27.721C31.721 13.7996 37.441 13.1896 41.951 10.7696C47.111 7.99959 50.341 3.55959 50.601 1.54959C50.641 1.24959 50.601 1.02959 50.491 0.919587C49.651 0.129587 47.771 1.70959 45.781 3.36959C44.151 4.72959 42.311 6.27959 40.521 7.01959C36.841 8.53959 32.461 9.92959 27.911 8.67959C25.761 8.08959 24.481 7.14959 23.251 6.23959C21.951 5.27959 20.731 4.36959 18.531 3.85959C17.451 3.60959 16.371 3.79959 15.121 4.01959C13.361 4.32959 11.181 4.71959 8.11099 3.98959C6.99099 3.72959 5.70099 2.88959 4.45099 2.06959C3.16099 1.22959 1.93099 0.429587 1.14099 0.429587L1.151 0.419587Z" fill="#141414"/>
<path d="M31.331 14.0794C31.241 14.0794 31.161 14.0194 31.131 13.9294C31.101 13.8194 31.161 13.7094 31.271 13.6694C36.481 12.2094 40.221 10.4394 43.401 7.94943C45.921 5.96943 48.101 3.45944 49.711 0.679436C49.771 0.579436 49.891 0.549436 49.991 0.599436C50.091 0.659436 50.121 0.779434 50.071 0.879434C48.441 3.69943 46.221 6.24944 43.661 8.26944C40.441 10.7994 36.651 12.5894 31.391 14.0594C31.371 14.0594 31.351 14.0594 31.331 14.0594V14.0794Z" fill="#141414"/>
<path d="M29.381 14.2594C29.311 14.2594 29.241 14.2194 29.201 14.1494C29.141 14.0494 29.1811 13.9194 29.2811 13.8694C32.9811 11.8494 36.141 9.70944 39.241 7.13944C39.331 7.06944 39.4611 7.07944 39.5311 7.16944C39.6011 7.25944 39.5911 7.38944 39.5011 7.45944C36.3811 10.0494 33.201 12.1994 29.481 14.2294C29.451 14.2494 29.411 14.2594 29.381 14.2594Z" fill="#141414"/>
<path d="M26.361 14.2794C26.301 14.2794 26.251 14.2594 26.211 14.2094C26.131 14.1194 26.141 13.9894 26.231 13.9194C27.571 12.7094 28.671 11.1594 29.721 9.65937C29.921 9.36937 30.131 9.07937 30.331 8.79937C30.401 8.70937 30.531 8.67937 30.621 8.74937C30.711 8.81937 30.731 8.94937 30.671 9.03937C30.471 9.31937 30.261 9.60937 30.061 9.89937C28.991 11.4194 27.881 12.9894 26.501 14.2294C26.461 14.2694 26.411 14.2794 26.361 14.2794Z" fill="#141414"/>
<path d="M19.731 14.1193C19.731 14.1193 19.671 14.1193 19.641 14.0993C15.601 12.1193 11.421 10.0693 8.10098 6.85934C6.32098 5.13934 5.17099 3.74934 3.70099 1.54934C3.64099 1.44934 3.66098 1.32934 3.76098 1.25934C3.85098 1.19934 3.98099 1.21934 4.05099 1.31934C5.50099 3.49934 6.64099 4.86934 8.39099 6.56934C11.661 9.72934 15.811 11.7693 19.821 13.7293C19.921 13.7793 19.971 13.8993 19.921 14.0093C19.881 14.0793 19.811 14.1293 19.731 14.1293V14.1193Z" fill="#141414"/>
<path d="M21.391 14.3496C21.391 14.3496 21.311 14.3396 21.271 14.3096C17.341 11.5496 14.1209 8.17955 11.7009 4.30955C11.6409 4.20955 11.671 4.08955 11.771 4.01955C11.871 3.95955 11.991 3.98955 12.061 4.08955C14.451 7.91955 17.631 11.2396 21.521 13.9696C21.611 14.0396 21.6409 14.1696 21.5709 14.2596C21.5309 14.3196 21.471 14.3496 21.401 14.3496H21.391Z" fill="#141414"/>
<path d="M23.031 14.3294C22.951 14.3294 22.881 14.2894 22.841 14.2094C21.321 10.9394 19.7109 7.28944 18.1909 3.66944C18.1509 3.55944 18.191 3.43944 18.301 3.39944C18.401 3.35944 18.5309 3.39944 18.5709 3.50944C20.0909 7.12944 21.701 10.7594 23.211 14.0294C23.261 14.1294 23.211 14.2594 23.111 14.3094C23.081 14.3194 23.051 14.3294 23.021 14.3294H23.031Z" fill="#141414"/>
<path d="M24.6909 14.3293C24.6909 14.3293 24.6609 14.3293 24.6409 14.3293C24.5309 14.2993 24.4609 14.1894 24.4809 14.0794C24.7109 13.0594 24.7909 12.0194 24.8609 11.0094C24.9409 9.88935 25.0209 8.73935 25.3209 7.59935C25.3509 7.48935 25.4609 7.41935 25.5709 7.44935C25.6809 7.47935 25.7509 7.58935 25.7209 7.69935C25.4309 8.79935 25.351 9.92935 25.281 11.0294C25.211 12.0594 25.1309 13.1194 24.8909 14.1694C24.8709 14.2694 24.7809 14.3293 24.6909 14.3293Z" fill="#141414"/>
</svg>
