<svg width="52" height="16" viewBox="0 0 52 16" fill="none" xmlns="http://www.w3.org/2000/svg">
<path d="M8.76269 4.48104C13.9527 5.70104 16.4927 3.72104 19.1827 4.35104C23.5527 5.37104 24.2327 7.99104 28.5727 9.18104C32.8327 10.351 36.9627 9.22104 41.0527 7.53104C45.1327 5.84104 49.5327 -0.128958 51.2427 1.47104C52.2627 2.42104 49.1227 8.17104 42.6527 11.651C38.5127 13.871 33.2127 14.691 28.3227 14.801C19.8327 14.981 14.7227 15.181 7.07269 10.511C4.32269 8.83104 -0.0173124 2.70104 0.942688 1.32104C2.11269 -0.368958 6.07269 3.85104 8.76269 4.49104V4.48104Z" fill="white"/>
<path d="M23.6226 15.081C17.6426 15.081 13.1526 14.471 6.96256 10.681C4.62256 9.25101 1.14256 4.65101 0.65256 2.35101C0.54256 1.85101 0.582545 1.46101 0.762545 1.20101C1.58254 0.0210127 3.37255 1.19101 5.27255 2.42101C6.49255 3.21101 7.76255 4.04101 8.80255 4.28101C11.7826 4.98101 13.8326 4.62101 15.6425 4.30101C16.9425 4.07101 18.0625 3.88101 19.2225 4.15101C21.5025 4.68101 22.8226 5.66101 24.0926 6.60101C25.2926 7.49101 26.5326 8.41101 28.6126 8.98101C33.0526 10.191 37.3425 8.83101 40.9525 7.34101C42.6825 6.63101 44.5025 5.10101 46.1025 3.76101C48.3325 1.89101 50.2526 0.281014 51.3626 1.32101C51.5726 1.52101 51.6525 1.85101 51.6025 2.30101C51.3225 4.45101 48.0825 8.96101 42.7325 11.831C38.1525 14.291 32.3625 14.911 28.3125 15.001H27.8525C26.3425 15.041 24.9325 15.071 23.6025 15.071L23.6226 15.081ZM1.74256 1.13101C1.47256 1.13101 1.26255 1.22101 1.11255 1.44101C1.00255 1.60101 0.982533 1.89101 1.06253 2.27101C1.52253 4.45101 4.95256 8.97101 7.18256 10.341C14.6426 14.901 19.6125 14.791 27.8525 14.611H28.3125C32.3125 14.511 38.0325 13.901 42.5425 11.481C47.7025 8.71101 50.9325 4.27101 51.1925 2.26101C51.2325 1.96101 51.1926 1.74101 51.0826 1.63101C50.2426 0.841013 48.3626 2.42101 46.3726 4.08101C44.7426 5.44101 42.9026 6.99101 41.1126 7.73101C37.4326 9.25101 33.0525 10.641 28.5025 9.39101C26.3525 8.80101 25.0726 7.86101 23.8426 6.95101C22.5426 5.99101 21.3226 5.08101 19.1226 4.57101C18.0426 4.32101 16.9626 4.51101 15.7126 4.73101C13.9526 5.04101 11.7725 5.43101 8.70255 4.70101C7.58255 4.44101 6.29254 3.60101 5.04254 2.78101C3.75254 1.94101 2.52255 1.14101 1.73255 1.14101L1.74256 1.13101Z" fill="#141414"/>
</svg>
