<svg width="40" height="14" viewBox="0 0 40 14" fill="none" xmlns="http://www.w3.org/2000/svg">
<path d="M11.6096 1.35983C11.3096 1.67983 10.5296 2.01983 9.99959 2.15983C9.72959 2.22983 9.44959 2.27983 9.18959 2.35983C8.92959 2.43983 8.69959 2.57983 8.63959 2.75983C8.61959 2.82983 8.61959 2.89983 8.55959 2.95983C8.48959 3.02983 8.35959 3.04983 8.23959 3.06983C7.21959 3.25983 6.23959 3.48983 5.51959 3.98983C3.82959 5.15983 3.22959 7.14984 0.82959 7.57984C1.04959 8.29984 1.52959 8.97983 2.21959 9.56983C2.84959 9.50983 3.48959 9.44983 4.11959 9.37984C3.98959 9.97984 4.89959 10.4698 5.79959 10.6698C6.69959 10.8698 7.69959 10.9298 8.45959 11.2898C8.65959 11.3898 8.84959 11.4998 9.07959 11.5498C9.42959 11.6298 9.80959 11.5498 10.1596 11.4798C13.5096 10.8498 17.0896 11.4098 20.4696 11.9698C21.7596 12.1798 23.0696 12.3998 24.2396 12.8198C24.3396 12.5098 24.4396 12.1898 24.5396 11.8798C26.0096 12.1698 27.7796 12.4298 28.9696 11.7998C29.4196 11.5598 29.7296 11.2198 30.1996 10.9998C31.3896 10.4598 33.4196 10.7798 34.1396 9.96984C34.6196 9.42984 34.2896 8.57983 35.1396 8.28983C35.6396 8.12984 36.2896 8.28983 36.7896 8.12984C37.4296 7.92984 37.4996 7.37983 37.6296 6.92983C37.7596 6.47983 38.3596 5.95983 39.0196 6.13983C37.5996 6.11983 36.1096 5.98984 34.9496 5.46984C33.7896 4.94984 33.0796 3.91983 33.6696 3.08983C30.8596 3.20983 28.4496 0.589834 25.6396 0.579834C25.6596 1.16983 25.4296 1.72983 25.4496 2.31983C27.2696 2.37983 30.0196 3.33984 30.3396 4.48984C30.3996 4.70984 30.4096 4.93983 30.2796 5.13983C30.1396 5.34983 29.8496 5.50983 29.5496 5.63983C28.2196 6.20983 26.5496 6.30983 25.0496 6.66983C24.2796 6.84983 23.5496 7.10983 22.7696 7.26983C21.9896 7.42983 21.1096 7.48983 20.3496 7.28983C20.4996 7.19983 20.7196 7.14983 20.9196 7.16983C20.0996 7.38983 19.1996 7.41983 18.3096 7.43983C17.9796 7.43983 17.6296 7.45984 17.3096 7.39984C17.0196 7.33984 16.7596 7.22984 16.4896 7.14984C15.9596 6.98984 15.3596 6.94984 14.7896 6.89984C12.7996 6.70984 10.8096 6.33983 9.17959 5.58983C8.75959 5.39983 8.36959 5.17983 7.89959 5.03983C7.63959 4.95984 7.35959 4.90984 7.11959 4.80984C6.87959 4.70984 6.67959 4.53983 6.68959 4.35983C6.70959 4.01983 7.35959 3.85983 7.72959 3.60983C7.92959 3.46983 8.04959 3.28983 8.22959 3.13983C8.63959 2.80983 9.31959 2.68983 9.86959 2.46983C10.4696 2.22983 11.3596 1.77983 11.6096 1.35983Z" fill="white"/>
<path d="M24.2398 13.0799C24.2398 13.0799 24.1798 13.0799 24.1598 13.0699C23.0098 12.6599 21.6998 12.4399 20.4298 12.2299C17.3898 11.7299 13.6098 11.0999 10.2098 11.7399C9.80982 11.8199 9.40982 11.8899 9.02982 11.8099C8.81982 11.7599 8.64982 11.6799 8.48982 11.5999L8.34982 11.5299C7.85982 11.2999 7.26982 11.1999 6.63982 11.0999C6.33982 11.0499 6.03982 10.9999 5.73982 10.9299C4.84982 10.7299 3.99982 10.2799 3.86982 9.66986L2.23982 9.82986C2.17982 9.82986 2.10982 9.81986 2.04982 9.76986C1.32982 9.15986 0.819824 8.42986 0.579824 7.65986C0.559824 7.58986 0.569824 7.51986 0.609824 7.45986C0.649824 7.39986 0.709824 7.35986 0.779824 7.33986C2.21982 7.07986 2.97982 6.21986 3.77982 5.30986C4.24982 4.77986 4.72982 4.22986 5.36982 3.78986C6.15982 3.23986 7.23982 2.99986 8.18982 2.82986C8.19982 2.82986 8.21982 2.82986 8.23982 2.82986C8.28982 2.79986 8.33982 2.76986 8.38982 2.74986C8.38982 2.72986 8.38982 2.70986 8.38982 2.69986C8.48982 2.39986 8.82982 2.21986 9.09982 2.13986C9.25982 2.08986 9.43982 2.04986 9.60982 2.00986C9.70982 1.98986 9.81982 1.95986 9.91982 1.93986C10.4298 1.79986 11.1598 1.46986 11.4198 1.19986C11.5098 1.10986 11.6498 1.09986 11.7498 1.16986C11.8498 1.24986 11.8798 1.38986 11.8198 1.49986C11.4898 2.06986 10.3098 2.57986 9.95982 2.71986C9.77982 2.78986 9.57982 2.85986 9.37982 2.91986C9.15982 2.98986 8.93982 3.05986 8.74982 3.13986C8.74982 3.13986 8.72982 3.15986 8.72982 3.16986C8.64982 3.24986 8.53982 3.28986 8.43982 3.31986C8.41982 3.32986 8.39982 3.34986 8.37982 3.35986C8.30982 3.41986 8.24982 3.47986 8.17982 3.54986C8.08982 3.63986 7.98982 3.74986 7.85982 3.83986C7.71982 3.93986 7.55982 4.00986 7.39982 4.08986C7.24982 4.15986 6.92982 4.31986 6.91982 4.39986C6.91982 4.41986 6.99982 4.51986 7.19982 4.60986C7.34982 4.66986 7.50982 4.71986 7.67982 4.75986C7.76982 4.77986 7.85982 4.80986 7.94982 4.83986C8.31982 4.94986 8.64982 5.10986 8.95982 5.25986L9.25982 5.39986C10.6798 6.04986 12.4898 6.47986 14.7898 6.68986L14.9798 6.70986C15.4998 6.75986 16.0498 6.80986 16.5398 6.94986C16.6398 6.97986 16.7398 7.00986 16.8398 7.04986C16.9998 7.09986 17.1598 7.15986 17.3398 7.18986C17.6398 7.24986 17.9598 7.23986 18.2798 7.22986C18.9298 7.20986 19.5998 7.18986 20.2398 7.08986C20.4298 6.98986 20.6798 6.93986 20.9198 6.95986C21.0398 6.95986 21.1398 7.05986 21.1498 7.18986C21.1498 7.18986 21.1498 7.19986 21.1498 7.20986C21.6198 7.22986 22.1398 7.18986 22.6898 7.06986C23.1298 6.97986 23.5598 6.85986 23.9798 6.73986C24.2998 6.64986 24.6298 6.54986 24.9598 6.46986C25.4998 6.33986 26.0598 6.23986 26.6098 6.14986C27.5798 5.97986 28.5898 5.80986 29.4198 5.44986C29.7498 5.30986 29.9498 5.16986 30.0398 5.03986C30.1098 4.92986 30.1198 4.78986 30.0698 4.58986C29.7998 3.60986 27.2398 2.65986 25.4098 2.59986C25.2798 2.59986 25.1698 2.48986 25.1698 2.35986C25.1698 2.03986 25.2198 1.72986 25.2698 1.43986C25.3198 1.15986 25.3698 0.889863 25.3598 0.619864C25.3598 0.549864 25.3798 0.489863 25.4298 0.439863C25.4798 0.389863 25.5398 0.359863 25.6098 0.359863C27.0398 0.359863 28.3698 1.01986 29.6498 1.64986C30.9898 2.30986 32.2698 2.93986 33.6298 2.86986C33.7198 2.86986 33.8198 2.91986 33.8598 2.99986C33.9098 3.07986 33.8998 3.18986 33.8398 3.25986C33.6798 3.47986 33.6398 3.72986 33.7098 3.98986C33.8398 4.46986 34.3398 4.95986 35.0198 5.26986C36.0598 5.73986 37.3898 5.86986 38.4598 5.90986C38.6498 5.86986 38.8498 5.86986 39.0498 5.92986C39.1698 5.95986 39.2498 6.07986 39.2298 6.20986C39.2098 6.32986 39.1098 6.41986 38.9798 6.41986C38.8298 6.41986 38.6698 6.41986 38.5098 6.40986C38.1798 6.49986 37.9098 6.78986 37.8398 7.02986L37.7998 7.18986C37.6898 7.60986 37.5398 8.17986 36.8398 8.39986C36.2898 8.56986 35.6398 8.41986 35.1898 8.55986C34.8298 8.67986 34.7598 8.89986 34.6698 9.30986C34.6098 9.58986 34.5298 9.89986 34.2998 10.1599C33.8198 10.6999 32.9498 10.7899 32.0198 10.8999C31.3998 10.9699 30.7498 11.0399 30.2798 11.2599C30.0498 11.3699 29.8498 11.5099 29.6498 11.6599C29.4698 11.7899 29.2798 11.9299 29.0598 12.0499C27.8898 12.6699 26.2798 12.4999 24.6898 12.1999L24.4598 12.9299C24.4398 12.9899 24.3898 13.0499 24.3298 13.0799C24.2898 13.0999 24.2598 13.1099 24.2198 13.1099L24.2398 13.0799ZM13.3998 10.9699C15.8998 10.9699 18.3898 11.3799 20.5098 11.7399C21.7098 11.9399 22.9498 12.1499 24.0798 12.5199L24.2998 11.8199C24.3398 11.6999 24.4598 11.6199 24.5898 11.6499C26.0898 11.9499 27.7598 12.1699 28.8498 11.5999C29.0398 11.4999 29.1998 11.3799 29.3698 11.2499C29.5898 11.0899 29.8098 10.9199 30.0898 10.7899C30.6398 10.5399 31.3198 10.4699 31.9898 10.3899C32.8198 10.2999 33.5998 10.2099 33.9498 9.81986C34.0998 9.64986 34.1498 9.42986 34.2098 9.18986C34.2998 8.78986 34.4198 8.28986 35.0698 8.07986C35.6198 7.89986 36.2698 8.04986 36.7298 7.90986C37.1598 7.77986 37.2498 7.43986 37.3598 7.04986L37.4098 6.87986C37.4598 6.69986 37.5698 6.51986 37.7198 6.35986C36.7598 6.28986 35.7398 6.10986 34.8698 5.71986C34.0498 5.34986 33.4498 4.74986 33.2898 4.11986C33.2198 3.85986 33.2198 3.59986 33.2998 3.35986C31.9598 3.29986 30.6998 2.67986 29.4898 2.08986C28.3398 1.51986 27.1498 0.939863 25.9198 0.859863C25.8998 1.08986 25.8598 1.29986 25.8298 1.51986C25.7898 1.71986 25.7598 1.91986 25.7398 2.10986C27.5498 2.23986 30.2698 3.17986 30.6198 4.44986C30.7098 4.78986 30.6798 5.06986 30.5298 5.30986C30.3798 5.53986 30.1198 5.71986 29.6898 5.90986C28.7998 6.28986 27.7698 6.46986 26.7598 6.63986C26.2198 6.72986 25.6698 6.82986 25.1498 6.94986C24.8198 7.02986 24.5098 7.11986 24.1898 7.20986C23.7598 7.32986 23.3198 7.45986 22.8598 7.54986C21.9098 7.73986 21.0798 7.74986 20.3798 7.57986C19.7098 7.68986 18.9998 7.70986 18.3598 7.72986C18.0298 7.72986 17.6598 7.74986 17.3098 7.67986C17.1098 7.63986 16.9298 7.57986 16.7498 7.51986C16.6598 7.48986 16.5598 7.45986 16.4698 7.42986C16.0198 7.29986 15.4998 7.24986 14.9998 7.20986L14.8098 7.18986C12.4498 6.96986 10.5898 6.52986 9.11982 5.85986L8.80982 5.70986C8.49983 5.55986 8.19982 5.41986 7.86982 5.31986C7.78982 5.28986 7.69982 5.26986 7.60982 5.24986C7.41982 5.19986 7.22982 5.14986 7.05982 5.07986C6.67982 4.91986 6.45982 4.66986 6.47982 4.38986C6.49982 4.00986 6.88982 3.81986 7.23982 3.64986C7.31982 3.60986 7.38982 3.57986 7.45982 3.53986C6.74982 3.70986 6.16982 3.91986 5.69982 4.23986C5.10982 4.64986 4.64982 5.16986 4.19982 5.67986C3.42982 6.55986 2.62982 7.45986 1.19982 7.80986C1.41982 8.35986 1.80982 8.88986 2.33982 9.34986L4.12982 9.16986C4.20982 9.16986 4.28982 9.18986 4.33982 9.24986C4.38982 9.30986 4.40982 9.38986 4.39982 9.46986C4.31982 9.81986 4.97982 10.2599 5.88982 10.4699C6.16982 10.5299 6.46982 10.5799 6.75982 10.6299C7.39982 10.7399 8.04982 10.8399 8.59982 11.0999L8.74982 11.1799C8.88982 11.2499 9.01982 11.3199 9.16982 11.3499C9.44982 11.4099 9.77982 11.3499 10.0898 11.2899C11.1898 11.0799 12.3098 10.9999 13.4298 10.9999L13.3998 10.9699Z" fill="#141414"/>
</svg>
