<svg width="34" height="20" viewBox="0 0 34 20" fill="none" xmlns="http://www.w3.org/2000/svg">
<path d="M10.8396 1.48018C11.6696 1.66018 13.0996 1.74018 13.9596 1.82018C14.7596 1.90018 15.6896 1.85018 16.1896 1.41018C16.2196 1.77018 16.5996 2.10018 17.0896 2.20018C17.1496 2.05018 17.2096 1.90018 17.2596 1.75018C17.8696 2.10018 18.7596 1.88018 19.5396 1.78018C19.8296 1.74018 20.1196 1.72018 20.4096 1.71018C20.5596 1.71018 20.6996 1.69018 20.8496 1.68018C21.4296 1.64018 22.0296 1.61018 22.5996 1.68018C22.5996 1.29018 23.0496 0.920182 23.6096 0.860182C24.1696 0.800182 24.7596 1.06018 24.9296 1.43018C25.0096 1.60018 24.9996 1.78018 25.0196 1.95018C25.1496 3.32018 26.4796 4.51018 26.8496 5.86018C27.2196 7.24018 26.5596 8.65018 26.6496 10.0502C26.6496 9.09018 26.7896 8.13018 27.0996 7.19018C27.7896 8.20018 28.5796 9.18018 29.4596 10.1202C30.0396 10.7302 30.6696 11.3302 31.4596 11.8102C32.1796 12.2402 33.1296 12.7002 33.0196 13.3602C32.3296 13.2002 31.5896 13.2402 30.8696 13.2802C30.1596 13.3202 29.2996 13.4502 29.0896 13.9202C28.7096 13.3302 28.3196 12.7502 27.9396 12.1602C28.6096 13.1802 29.2896 14.2002 29.9596 15.2102L29.1596 15.2802C29.1696 15.5502 29.1896 15.8202 29.1996 16.0902C28.2196 15.9802 27.2496 15.8702 26.2696 15.7702C26.0996 15.7502 25.9096 15.7302 25.7896 15.6302C25.5996 15.4802 25.6896 15.2602 25.6796 15.0602C25.6796 14.6602 25.1896 14.2902 24.6096 14.2502C24.7596 14.6502 24.9296 15.0502 25.1196 15.4502C24.0996 15.5802 23.6996 16.5502 22.7096 16.7502C22.1496 16.8602 21.4596 16.7102 21.0096 16.9602C21.0096 16.7402 21.0196 16.5202 20.8896 16.3202C20.7596 16.1202 20.4296 15.9702 20.1396 16.0402C19.8096 16.1102 19.5696 16.4102 19.2396 16.3302C19.0596 16.2902 18.9796 16.1502 18.9296 16.0202C17.7296 13.4402 17.1596 10.7302 17.2196 8.02018C17.4096 11.6102 18.2696 15.1802 19.7596 18.6202C19.0196 18.8602 18.0796 18.7702 17.4796 18.3802C16.9296 18.0302 16.4596 17.4202 15.7296 17.5402C15.5496 17.5702 15.3896 17.6502 15.2096 17.6502C14.8896 17.6502 14.6596 17.4302 14.5696 17.2102C14.4796 16.9902 14.4596 16.7602 14.2796 16.5702C13.8696 16.1602 12.9796 16.2702 12.2696 16.1802C11.6396 16.0902 11.0796 15.8102 10.4296 15.7602C9.10963 15.6502 7.95963 16.5402 6.62963 16.4702C6.51963 16.2502 6.72963 16.0102 6.90963 15.8102C8.16963 14.4402 8.79963 12.7902 8.66963 11.1602C8.77963 12.3402 8.30963 13.5502 7.35963 14.5302C7.26963 14.6302 7.15963 14.7302 6.99963 14.7602C6.82963 14.7902 6.64963 14.7402 6.47963 14.7402C5.97963 14.7402 5.67963 15.1802 5.18963 15.2202C4.92963 15.2402 4.67963 15.1402 4.42963 15.1702C3.94963 15.2302 3.64963 15.7202 3.17963 15.6402C2.84963 15.5802 2.73963 15.2902 2.44963 15.1702C1.97963 14.9802 1.21963 15.2902 0.909628 14.9802C0.549628 14.6102 1.55963 14.2402 1.54963 13.8002C1.33963 13.7302 1.21963 13.5602 1.26963 13.4002C2.02963 13.3202 2.46963 12.7702 2.76963 12.2802C4.33963 9.74018 5.30963 7.05018 6.25963 4.37018C5.78963 6.83018 5.32963 9.29018 4.85963 11.7402C5.45963 9.93018 5.81963 8.08018 5.94963 6.22018C5.98963 5.71018 6.00963 5.19018 6.21963 4.71018C6.42963 4.23018 6.86963 3.76018 7.52963 3.54018C7.77963 3.46018 8.05963 3.41018 8.26963 3.28018C8.43963 3.17018 8.53963 3.02018 8.63963 2.87018C8.94963 2.36018 9.18963 1.83018 9.68963 1.40018C9.99963 1.14018 9.84963 1.03018 10.3296 0.96018C11.2296 0.84018 11.0096 1.04018 10.8396 1.47018V1.48018Z" fill="white"/>
<path d="M18.8898 19.0102C18.3298 19.0102 17.7598 18.8702 17.3398 18.6002C17.1898 18.5102 17.0498 18.4002 16.9098 18.2802C16.5298 17.9802 16.1898 17.7202 15.7698 17.7902C15.7098 17.7902 15.6498 17.8202 15.5998 17.8302C15.4898 17.8602 15.3598 17.9002 15.2198 17.9002C14.7898 17.9002 14.4798 17.6002 14.3598 17.3102C14.3298 17.2402 14.3098 17.1602 14.2798 17.0902C14.2398 16.9502 14.1998 16.8402 14.1198 16.7502C13.8898 16.5202 13.3898 16.5002 12.9098 16.4802C12.6898 16.4702 12.4698 16.4602 12.2598 16.4302C11.9498 16.3902 11.6598 16.3002 11.3698 16.2202C11.0498 16.1302 10.7498 16.0402 10.4298 16.0102C9.80984 15.9602 9.21984 16.1502 8.59984 16.3502C7.97984 16.5502 7.33984 16.7502 6.63984 16.7202C6.54984 16.7202 6.46984 16.6602 6.42984 16.5802C6.24984 16.2002 6.55984 15.8502 6.74984 15.6502C6.96984 15.4102 7.17984 15.1502 7.35984 14.8902C7.27984 14.9402 7.17984 14.9902 7.06984 15.0102C6.92984 15.0402 6.79984 15.0202 6.67984 15.0102C6.61984 15.0102 6.55984 14.9902 6.49984 15.0002C6.30984 15.0002 6.14984 15.1002 5.95984 15.2002C5.74984 15.3202 5.51984 15.4502 5.21984 15.4702C5.06984 15.4702 4.93984 15.4602 4.79984 15.4402C4.67984 15.4202 4.56984 15.4102 4.46984 15.4202C4.30984 15.4402 4.15984 15.5302 4.00984 15.6302C3.76984 15.7802 3.50984 15.9502 3.14984 15.8902C2.88984 15.8502 2.72984 15.7002 2.59984 15.5802C2.51984 15.5002 2.44984 15.4402 2.35984 15.4002C2.19984 15.3302 1.95984 15.3502 1.72984 15.3602C1.36984 15.3802 0.989843 15.4002 0.739843 15.1502C0.609843 15.0202 0.589844 14.8902 0.589844 14.8002C0.589844 14.5502 0.799844 14.3602 1.00984 14.1702C1.08984 14.1002 1.19984 14.0002 1.25984 13.9102C1.06984 13.7602 0.979844 13.5402 1.03984 13.3202C1.06984 13.2202 1.14984 13.1502 1.24984 13.1402C1.90984 13.0702 2.27984 12.5902 2.56984 12.1402C4.12984 9.62017 5.09984 6.90017 6.03984 4.27017C6.07984 4.16017 6.18984 4.09017 6.30984 4.11017C6.59984 3.74017 7.00984 3.45017 7.47984 3.30017C7.55984 3.27017 7.63984 3.25017 7.71984 3.23017C7.88984 3.18017 8.04984 3.14017 8.15984 3.07017C8.28984 2.99017 8.35984 2.88017 8.43984 2.74017C8.49984 2.64017 8.55984 2.54017 8.60984 2.44017C8.84984 2.02017 9.09984 1.58017 9.53984 1.21017C9.61984 1.14017 9.65984 1.09017 9.69984 1.04017C9.82984 0.860174 9.94984 0.770173 10.3098 0.720173C10.7798 0.660173 11.0498 0.660174 11.1898 0.850174C11.2898 0.990174 11.2598 1.14017 11.2098 1.29017C11.7998 1.39017 12.5898 1.45017 13.2498 1.50017C13.5198 1.52017 13.7798 1.54017 13.9998 1.56017C14.9498 1.65017 15.6798 1.53017 16.0398 1.21017C16.1098 1.15017 16.2098 1.13017 16.2998 1.17017C16.3898 1.21017 16.4498 1.29017 16.4598 1.38017C16.4798 1.58017 16.6798 1.78017 16.9598 1.89017L17.0498 1.66017C17.0798 1.59017 17.1298 1.54017 17.1998 1.51017C17.2698 1.49017 17.3398 1.49017 17.4098 1.53017C17.8498 1.78017 18.4998 1.68017 19.1398 1.58017C19.2698 1.56017 19.3998 1.54017 19.5298 1.52017C19.8198 1.48017 20.1198 1.46017 20.4198 1.45017L20.8598 1.42017C21.3698 1.39017 21.8998 1.36017 22.4298 1.40017C22.5798 0.990173 23.0398 0.660174 23.6098 0.600174C24.2798 0.530174 24.9698 0.840173 25.1798 1.32017C25.2598 1.50017 25.2698 1.67017 25.2798 1.82017V1.92017C25.3498 2.62017 25.7598 3.28017 26.1998 3.97017C26.5598 4.55017 26.9298 5.15017 27.1098 5.79017C27.2198 6.18017 27.2398 6.57017 27.2298 6.96017C27.2698 6.98017 27.2998 7.01017 27.3198 7.04017C27.9998 8.04017 28.7898 9.01017 29.6598 9.94017C30.1998 10.5102 30.8098 11.1102 31.6098 11.5902L31.8498 11.7302C32.5798 12.1602 33.4098 12.6402 33.2898 13.4002C33.2798 13.4702 33.2398 13.5302 33.1798 13.5702C33.1198 13.6102 33.0498 13.6202 32.9798 13.6102C32.3198 13.4502 31.5698 13.5002 30.8998 13.5402C29.9798 13.6002 29.5798 13.7602 29.4098 13.9202L30.1798 15.0902C30.2298 15.1602 30.2398 15.2602 30.1998 15.3402C30.1598 15.4202 30.0798 15.4702 29.9998 15.4802L29.4398 15.5302L29.4698 16.1002C29.4698 16.1702 29.4498 16.2402 29.3898 16.2902C29.3398 16.3402 29.2598 16.3702 29.1898 16.3602L26.2598 16.0402C26.0398 16.0202 25.8198 15.9802 25.6498 15.8502C25.3998 15.6502 25.4198 15.3702 25.4398 15.2102C25.4398 15.1702 25.4398 15.1302 25.4398 15.0902C25.4398 14.9302 25.2798 14.7402 25.0298 14.6302C25.1298 14.8802 25.2398 15.1302 25.3598 15.3702C25.3898 15.4402 25.3898 15.5302 25.3598 15.6002C25.3198 15.6702 25.2498 15.7202 25.1698 15.7302C24.7198 15.7902 24.3898 16.0502 24.0498 16.3302C23.6898 16.6202 23.3198 16.9202 22.7798 17.0302C22.5298 17.0802 22.2798 17.0802 22.0298 17.0802C21.6898 17.0802 21.3698 17.0802 21.1498 17.2102C21.0698 17.2502 20.9798 17.2502 20.8998 17.2102C20.8198 17.1602 20.7798 17.0802 20.7798 16.9902C20.7798 16.7802 20.7798 16.6202 20.6998 16.5002C20.6198 16.3802 20.3898 16.2802 20.1998 16.3202C20.1098 16.3402 20.0098 16.3902 19.9098 16.4502C19.7298 16.5502 19.4998 16.6702 19.2298 16.6202C19.4598 17.2702 19.7198 17.9202 19.9998 18.5602C20.0298 18.6202 20.0298 18.7002 19.9998 18.7602C19.9698 18.8202 19.9198 18.8702 19.8498 18.9002C19.5598 19.0002 19.2298 19.0502 18.9098 19.0502L18.8898 19.0102ZM15.9198 17.2902C16.4498 17.2902 16.8598 17.6102 17.2198 17.9002C17.3498 18.0002 17.4798 18.1002 17.6098 18.1902C18.0798 18.4902 18.7998 18.5902 19.4098 18.4702C18.8598 17.1802 18.4098 15.8702 18.0398 14.5502C17.2698 12.4202 16.9098 10.2302 16.9698 8.03017C16.9698 7.90017 17.0798 7.79017 17.2198 7.79017C17.3298 7.77017 17.4698 7.89017 17.4698 8.03017C17.5798 10.1702 17.9398 12.3002 18.5198 14.4102C18.7098 14.9202 18.9198 15.4402 19.1498 15.9402C19.1998 16.0502 19.2398 16.1002 19.2998 16.1102C19.3998 16.1402 19.4998 16.0802 19.6598 16.0002C19.7798 15.9302 19.9198 15.8602 20.0898 15.8202C20.4598 15.7402 20.8998 15.9102 21.0998 16.2102C21.1998 16.3502 21.2398 16.5002 21.2598 16.6402C21.4998 16.5902 21.7598 16.5802 22.0198 16.5802C22.2498 16.5802 22.4798 16.5802 22.6798 16.5402C23.0998 16.4602 23.4098 16.2102 23.7398 15.9502C24.0498 15.7002 24.3598 15.4502 24.7798 15.3202C24.6398 15.0102 24.5098 14.7002 24.3998 14.3802C24.3698 14.3002 24.3798 14.2102 24.4298 14.1402C24.4798 14.0702 24.5498 14.0302 24.6498 14.0402C25.3598 14.0902 25.9398 14.5602 25.9498 15.1002C25.9498 15.1602 25.9498 15.2102 25.9498 15.2702C25.9398 15.4202 25.9498 15.4502 25.9698 15.4702C26.0398 15.5202 26.2198 15.5402 26.3298 15.5502L28.9698 15.8402L28.9398 15.3302C28.9398 15.2002 29.0298 15.0802 29.1698 15.0702L29.5498 15.0402L28.9698 14.1602C28.9698 14.1602 28.9298 14.1202 28.9098 14.1002L27.7598 12.3402C27.6798 12.2202 27.7198 12.0702 27.8298 11.9902C27.9398 11.9102 28.0998 11.9502 28.1798 12.0602L29.1498 13.5302C29.5598 13.2002 30.2698 13.1102 30.8798 13.0702C31.4698 13.0302 32.1198 12.9902 32.7498 13.0802C32.5798 12.7702 32.0698 12.4702 31.5998 12.2002L31.3598 12.0602C30.5098 11.5502 29.8398 10.9002 29.2998 10.3302C28.5298 9.52017 27.8298 8.67017 27.2098 7.80017C27.0098 8.56017 26.9098 9.32017 26.9198 10.0902C26.9198 10.2302 26.8098 10.3402 26.6798 10.3402C26.5498 10.3402 26.4298 10.2402 26.4198 10.1102C26.3798 9.49017 26.4798 8.87017 26.5798 8.27017C26.7098 7.47017 26.8298 6.71017 26.6298 5.96017C26.4798 5.39017 26.1198 4.82017 25.7798 4.28017C25.3298 3.57017 24.8698 2.83017 24.7998 2.01017V1.90017C24.7798 1.77017 24.7698 1.66017 24.7298 1.57017C24.6198 1.33017 24.1598 1.09017 23.6698 1.15017C23.2098 1.20017 22.8798 1.49017 22.8898 1.72017C22.8898 1.79017 22.8598 1.86017 22.8098 1.91017C22.7598 1.96017 22.6898 1.98017 22.6098 1.97017C22.0598 1.90017 21.4698 1.93017 20.9098 1.97017L20.4698 2.00017C20.1798 2.02017 19.8998 2.04017 19.6198 2.07017C19.4998 2.09017 19.3698 2.11017 19.2398 2.12017C18.6498 2.21017 17.9898 2.31017 17.4498 2.12017L17.3698 2.32017C17.3298 2.43017 17.1998 2.50017 17.0898 2.47017C16.6498 2.38017 16.2898 2.13017 16.1098 1.82017C15.4998 2.15017 14.6398 2.15017 13.9798 2.09017C13.7598 2.07017 13.5098 2.05017 13.2398 2.03017C12.4098 1.96017 11.4698 1.89017 10.8398 1.75017C10.7698 1.73017 10.7098 1.69017 10.6698 1.62017C10.6398 1.56017 10.6298 1.48017 10.6598 1.41017C10.6798 1.35017 10.7098 1.29017 10.7298 1.24017C10.7298 1.24017 10.7298 1.22017 10.7398 1.22017C10.6698 1.22017 10.5598 1.23017 10.4098 1.25017C10.1998 1.28017 10.1898 1.29017 10.1398 1.36017C10.0898 1.43017 10.0298 1.52017 9.89984 1.62017C9.52984 1.93017 9.30984 2.31017 9.07984 2.72017C9.01984 2.82017 8.95984 2.93017 8.89984 3.03017C8.79984 3.20017 8.66984 3.39017 8.44984 3.52017C8.26984 3.63017 8.06984 3.68017 7.87984 3.74017C7.80984 3.76017 7.72984 3.78017 7.65984 3.80017C7.12984 3.97017 6.70984 4.35017 6.49984 4.83017C6.47984 4.86017 6.46984 4.90017 6.45984 4.93017L6.27984 5.88017C6.27984 5.97017 6.26984 6.05017 6.25984 6.14017V6.26017C6.11984 8.13017 5.74984 10.0102 5.14984 11.8402C5.10984 11.9602 4.97984 12.0402 4.84984 12.0002C4.71984 11.9702 4.63984 11.8402 4.66984 11.7102L5.49984 7.32017C4.82984 9.05017 4.05984 10.7802 3.02984 12.4302C2.76984 12.8402 2.36984 13.3802 1.69984 13.5902C1.78984 13.6302 1.84984 13.7102 1.84984 13.8102C1.84984 14.1202 1.60984 14.3502 1.37984 14.5602C1.28984 14.6402 1.13984 14.7802 1.12984 14.8402C1.22984 14.9202 1.49984 14.9002 1.73984 14.8902C2.02984 14.8702 2.32984 14.8602 2.58984 14.9702C2.75984 15.0402 2.86984 15.1502 2.96984 15.2402C3.07984 15.3502 3.14984 15.4102 3.25984 15.4302C3.41984 15.4602 3.55984 15.3802 3.76984 15.2402C3.95984 15.1202 4.16984 14.9902 4.43984 14.9602C4.60984 14.9402 4.76984 14.9602 4.90984 14.9802C5.01984 15.0002 5.12984 15.0102 5.21984 15.0102C5.39984 15.0002 5.55984 14.9102 5.73984 14.8002C5.95984 14.6802 6.19984 14.5402 6.51984 14.5302C6.59984 14.5302 6.67984 14.5302 6.75984 14.5502C6.84984 14.5502 6.92984 14.5702 6.99984 14.5502C7.07984 14.5302 7.14984 14.4802 7.22984 14.4002C8.01984 13.5802 8.45984 12.6202 8.48984 11.6402C8.48984 11.5002 8.48984 11.3602 8.47984 11.2202C8.46984 11.0802 8.56984 10.9602 8.70984 10.9502C8.83984 10.9502 8.96984 11.0402 8.97984 11.1802C8.98984 11.3402 8.99984 11.5002 8.99984 11.6602C8.98984 13.2002 8.33984 14.7302 7.15984 16.0302C7.10984 16.0902 7.01984 16.1802 6.95984 16.2702C7.46984 16.2502 7.95984 16.0902 8.47984 15.9202C9.11984 15.7102 9.77984 15.5002 10.4998 15.5602C10.8698 15.5902 11.2098 15.6902 11.5398 15.7902C11.8198 15.8702 12.0798 15.9502 12.3498 15.9902C12.5398 16.0202 12.7498 16.0302 12.9598 16.0402C13.5398 16.0702 14.1398 16.1002 14.4998 16.4602C14.6698 16.6302 14.7298 16.8302 14.7898 17.0002C14.8098 17.0602 14.8298 17.1202 14.8498 17.1802C14.8898 17.2902 15.0298 17.4602 15.2498 17.4602C15.3198 17.4702 15.4098 17.4402 15.5098 17.4102C15.5798 17.3902 15.6598 17.3702 15.7298 17.3602C15.8098 17.3502 15.8898 17.3402 15.9598 17.3402L15.9198 17.2902Z" fill="#141414"/>
</svg>
