<svg width="21" height="14" viewBox="0 0 21 14" fill="none" xmlns="http://www.w3.org/2000/svg">
<g clip-path="url(#clip0_692_3341)">
<path d="M6.55015 0.25H4.80015C4.18015 0.25 3.63015 0.64 3.40015 1.22C2.73015 2.96 1.70015 4.52 1.72015 6.2C1.73015 7.68 1.71015 9.23 0.970147 10.51C0.740147 10.91 0.440147 11.28 0.310147 11.72C0.180147 12.16 0.270147 12.72 0.680147 12.95C0.800147 12.49 0.970147 12.04 1.20015 11.62C1.62015 11.94 4.31015 11.87 4.83015 11.96C5.55015 12.1 6.19015 12.62 6.46015 13.3C6.62015 12.91 6.92015 12.58 7.30015 12.39C7.75015 12.81 8.21015 13.23 8.66015 13.65C9.21015 12.89 10.7701 13.11 10.9101 12.18C10.9801 11.77 10.6801 11.32 10.8801 10.96C11.0001 10.75 11.2401 10.66 11.4701 10.58C12.2301 10.33 13.0001 10.14 13.7901 10.01C13.7101 10.6 13.6301 11.2 13.5401 11.79C14.8901 11.92 15.7901 10.24 17.1401 10.08C17.5601 10.03 17.9801 10.13 18.3901 10.08C18.8001 10.03 19.2601 9.78 19.3001 9.37C19.6601 9.37 20.0201 9.35 20.3801 9.35C20.2401 8.6 19.6301 8.04 19.1601 7.43C18.6901 6.82 18.2701 7.02 18.2701 6.25C18.2701 1.62 18.2701 4.47 18.2701 2.04C18.2701 1.54 17.8901 1.12 17.4001 1.07L15.3801 0.87" fill="white"/>
<path d="M8.64983 13.91C8.58983 13.91 8.52983 13.89 8.47983 13.84L7.24983 12.7C6.99983 12.87 6.78983 13.11 6.67983 13.39C6.63983 13.48 6.54983 13.55 6.44983 13.55C6.34983 13.55 6.25983 13.49 6.21983 13.39C5.96983 12.79 5.40983 12.32 4.76983 12.2C4.60983 12.17 4.15983 12.16 3.68983 12.14C2.60983 12.1 1.75983 12.07 1.30983 11.93C1.13983 12.27 1.00983 12.63 0.919831 13C0.899831 13.08 0.849831 13.14 0.779831 13.17C0.709831 13.2 0.629831 13.2 0.559831 13.16C0.0298313 12.87 -0.0801687 12.17 0.0798313 11.64C0.179831 11.29 0.369831 11 0.559831 10.71C0.629831 10.6 0.699831 10.49 0.769831 10.37C1.45983 9.17999 1.49983 7.71999 1.48983 6.18999C1.48983 4.93999 2.00983 3.78999 2.55983 2.57999C2.77983 2.10999 2.99983 1.61999 3.18983 1.11999C3.44983 0.42999 4.08983 -0.0100098 4.81983 -0.0100098H6.56983C6.70983 -0.0100098 6.81983 0.0999902 6.81983 0.23999C6.81983 0.37999 6.70983 0.48999 6.56983 0.48999H4.81983C4.29983 0.48999 3.83983 0.80999 3.65983 1.29999C3.45983 1.80999 3.23983 2.30999 3.01983 2.78999C2.48983 3.94999 1.98983 5.04999 1.98983 6.18999C1.99983 7.78999 1.94983 9.32999 1.19983 10.63C1.12983 10.75 1.05983 10.87 0.979831 10.99C0.809831 11.26 0.639831 11.51 0.559831 11.79C0.499831 12 0.499831 12.25 0.569831 12.44C0.679831 12.11 0.819831 11.8 0.979831 11.49C1.00983 11.43 1.07983 11.38 1.14983 11.37C1.21983 11.35 1.29983 11.37 1.34983 11.41C1.55983 11.57 3.01983 11.62 3.70983 11.64C4.24983 11.66 4.66983 11.67 4.86983 11.71C5.51983 11.84 6.09983 12.23 6.45983 12.78C6.64983 12.52 6.89983 12.31 7.17983 12.17C7.26983 12.12 7.38983 12.14 7.45983 12.21L8.63983 13.3C8.93983 13.04 9.33983 12.91 9.70983 12.79C10.2598 12.61 10.6098 12.49 10.6598 12.15C10.6798 12.02 10.6498 11.87 10.6198 11.71C10.5598 11.44 10.4998 11.14 10.6598 10.85C10.8398 10.54 11.1998 10.42 11.3898 10.35C12.1598 10.1 12.9498 9.90999 13.7398 9.76999C13.8198 9.75999 13.8998 9.77999 13.9598 9.83999C14.0198 9.89999 14.0398 9.96999 14.0298 10.05L13.8198 11.55C14.3398 11.5 14.8098 11.14 15.3098 10.76C15.8498 10.35 16.4098 9.91999 17.0998 9.83999C17.3398 9.80999 17.5698 9.82999 17.7998 9.83999C17.9998 9.84999 18.1798 9.86999 18.3598 9.83999C18.6798 9.80999 19.0198 9.61999 19.0398 9.34999C19.0498 9.21999 19.1598 9.12999 19.2798 9.11999L20.0398 9.09999C19.8898 8.69999 19.5898 8.34999 19.2798 7.97999C19.1698 7.84999 19.0598 7.70999 18.9498 7.57999C18.7998 7.37999 18.6498 7.28999 18.5098 7.18999C18.2598 7.01999 17.9998 6.84999 17.9998 6.24999C17.9998 3.47999 17.9998 3.38999 17.9998 3.23999C17.9998 3.13999 17.9998 3.01999 17.9998 2.03999C17.9998 1.66999 17.7198 1.35999 17.3498 1.31999L15.3298 1.11999C15.1898 1.10999 15.0898 0.97999 15.0998 0.84999C15.1098 0.70999 15.2398 0.61999 15.3698 0.61999L17.3898 0.81999C18.0198 0.87999 18.4898 1.39999 18.4898 2.02999C18.4898 2.99999 18.4898 3.11999 18.4898 3.21999C18.4898 3.36999 18.4898 3.45999 18.4898 6.22999C18.4898 6.56999 18.5598 6.61999 18.7798 6.75999C18.9298 6.85999 19.1298 6.98999 19.3398 7.25999C19.4398 7.38999 19.5498 7.51999 19.6598 7.64999C20.0698 8.12999 20.4898 8.62999 20.6098 9.28999C20.6198 9.35999 20.6098 9.43999 20.5598 9.48999C20.5098 9.53999 20.4398 9.57999 20.3698 9.57999L19.4798 9.59999C19.3198 10.02 18.8498 10.27 18.3998 10.32C18.1798 10.34 17.9598 10.32 17.7498 10.32C17.5398 10.3 17.3398 10.29 17.1498 10.32C16.5898 10.39 16.1098 10.76 15.5998 11.14C14.9698 11.62 14.3198 12.11 13.4898 12.03C13.4198 12.03 13.3598 11.99 13.3198 11.94C13.2798 11.89 13.2598 11.82 13.2698 11.75L13.4698 10.31C12.8098 10.44 12.1598 10.6 11.5198 10.81C11.3398 10.87 11.1398 10.94 11.0698 11.07C10.9998 11.2 11.0398 11.38 11.0798 11.58C11.1198 11.77 11.1598 11.98 11.1298 12.2C11.0198 12.86 10.3898 13.06 9.83983 13.24C9.43983 13.37 9.02983 13.5 8.83983 13.77C8.79983 13.83 8.72983 13.87 8.65983 13.87H8.63983L8.64983 13.91Z" fill="black"/>
</g>
<defs>
<clipPath id="clip0_692_3341">
<rect width="20.63" height="13.91" fill="white"/>
</clipPath>
</defs>
</svg>
