<svg width="213" height="243" viewBox="0 0 213 243" fill="none" xmlns="http://www.w3.org/2000/svg">
<path d="M211.283 75.0522C209.154 44.8415 174.225 -7.85483 91.7664 2.36501C29.7584 10.0482 -2.27903 54.6543 1.33288 84.8127C1.94879 89.9278 5.33104 97.5379 8.62979 101.379C17.0124 111.15 30.4683 113.906 42.9847 115.222C85.7744 119.71 123.261 120.264 171.385 108.217C179.726 106.129 188.589 103.927 195.875 99.1873C203.162 94.4479 211.93 84.2281 211.283 75.0522Z" fill="white"/>
<path d="M211.283 75.0522C209.154 44.8415 174.225 -7.85483 91.7664 2.36501C29.7584 10.0482 -2.27903 54.6543 1.33288 84.8127C1.94879 89.9278 5.33104 97.5379 8.62979 101.379C17.0124 111.15 30.4683 113.906 42.9847 115.222C85.7744 119.71 123.261 120.264 171.385 108.217C179.726 106.129 188.589 103.927 195.875 99.1873C203.162 94.4479 211.93 84.2281 211.283 75.0522Z" fill="white"/>
<path d="M92.1631 119.199C75.826 119.199 59.6977 118.051 42.8699 116.286C30.4474 114.982 16.5635 112.278 7.81555 102.079C4.36022 98.0495 0.904889 90.2097 0.268107 84.9484C-3.21854 55.8235 27.3053 9.27571 91.6412 1.30027C138.085 -4.45165 166.855 9.97513 182.795 23.097C203.068 39.7786 211.356 60.8342 212.348 74.9687C212.995 84.1446 204.644 94.7507 196.449 100.075C189.058 104.887 180.269 107.09 171.771 109.209C142.646 116.495 117.165 119.189 92.1527 119.189L92.1631 119.199ZM112.029 2.1354C105.734 2.1354 99.032 2.53208 91.8917 3.4194C28.9338 11.2383 -0.98458 56.4289 2.39767 84.6875C2.98226 89.5103 6.27057 96.9847 9.44404 100.68C17.7118 110.305 31.0946 112.894 43.0996 114.157C86.6618 118.729 123.272 119.157 171.124 107.173C179.59 105.054 188.202 102.893 195.291 98.2791C201.867 93.9991 210.845 83.988 210.218 75.1148C209.258 61.4188 201.189 41 181.438 24.7464C168.253 13.9002 146.091 2.1354 112.039 2.1354H112.029Z" fill="black"/>
<path d="M11.9076 88.8526C8.55665 80.4074 17.0645 71.7638 21.1775 69.8117C37.2327 62.2121 47.5883 62.1912 65.2929 63.7467C74.6777 64.5713 83.9371 66.7113 93.3636 67.1185C105.765 67.6509 118.104 65.1664 130.13 62.0764C140.976 59.2892 151.843 55.9591 163.034 55.7608C199.55 55.1136 205.458 72.7347 201.502 79.3426C193.025 93.5084 175.352 98.8428 159.119 101.797C120.693 108.77 79.845 110.294 41.21 104.605C20.2171 101.515 15.0706 96.8072 11.9076 88.8526Z" fill="white"/>
<path d="M90.1587 109.146C73.331 109.146 56.8477 107.987 41.0638 105.67C19.8621 102.549 14.2772 97.6945 10.9263 89.2493C7.23084 79.9272 16.4485 70.8765 20.7285 68.8513C36.9195 61.1891 47.2438 61.0951 65.3973 62.6819C69.4894 63.0368 73.6128 63.6527 77.5901 64.2477C82.7679 65.0202 88.1231 65.824 93.4053 66.0432C106.214 66.6278 119.023 63.8197 129.858 61.0325C131.383 60.6462 132.896 60.2391 134.42 59.8424C143.68 57.3997 153.263 54.863 163.023 54.6855C189.539 54.2367 198.631 63.0681 201.711 68.392C204.466 73.1522 203.892 77.4531 202.431 79.8959C193.422 94.949 174.663 100.064 159.317 102.851C136.195 107.048 112.864 109.146 90.1587 109.146ZM12.9097 88.4559C15.9579 96.139 21.1983 100.576 41.3666 103.54C78.2373 108.969 118.887 107.998 158.931 100.732C173.828 98.0285 192.023 93.0908 200.594 78.7893C201.69 76.9625 202.149 73.4236 199.852 69.4568C197.566 65.5004 189.403 56.2932 163.055 56.8255C153.555 56.9926 144.108 59.4875 134.963 61.9094C133.439 62.3165 131.915 62.7132 130.391 63.1099C119.399 65.9388 106.423 68.7365 93.3113 68.1937C87.9143 67.964 82.4965 67.1498 77.2665 66.3668C73.3101 65.7823 69.2284 65.1664 65.1989 64.8114C47.4525 63.256 37.358 63.3395 21.6367 70.7826C17.9831 72.5154 9.76753 80.564 12.9097 88.4559Z" fill="black"/>
<path d="M80.6072 65.8658C82.6637 98.2582 70.4292 130.348 64.3641 162.229C61.6186 176.635 59.917 191.625 63.3619 205.885C66.7964 220.145 76.2124 233.674 90.0233 238.632C95.3368 240.543 101.036 241.127 106.674 241.273C111.663 241.409 116.758 241.19 121.455 239.499C134.525 234.78 141.164 219.737 141.686 205.854C142.198 191.959 138.116 178.347 136.686 164.525C133.043 129.252 143.743 95.0012 137.949 60.0199C137.949 60.0199 116.382 65.918 108.981 66.6487C90.7853 68.4547 80.6177 65.8658 80.6177 65.8658H80.6072Z" fill="white"/>
<path d="M109.043 242.39C108.229 242.39 107.425 242.38 106.642 242.359C99.575 242.171 94.345 241.336 89.6578 239.655C76.6508 234.979 66.17 222.138 62.318 206.146C58.6747 191.02 60.773 175.361 63.3097 162.03C65.1261 152.489 67.527 142.77 69.855 133.375C75.3146 111.307 80.9621 88.4977 79.532 65.9388C79.5111 65.5944 79.6572 65.2707 79.9182 65.0515C80.1792 64.8323 80.5341 64.7488 80.8682 64.8428C80.9726 64.8636 91.1089 67.3586 108.866 65.6048C116.09 64.8845 137.437 59.0699 137.657 59.0073C137.949 58.9238 138.262 58.976 138.513 59.143C138.763 59.3101 138.941 59.571 138.993 59.8633C142.114 78.6849 140.465 97.5692 138.868 115.838C137.479 131.705 136.049 148.105 137.74 164.431C138.262 169.473 139.149 174.578 140.016 179.526C141.519 188.118 143.075 197.012 142.74 205.916C142.271 218.568 136.508 235.229 121.81 240.532C117.561 242.067 113.094 242.401 109.043 242.401V242.39ZM81.7555 67.202C82.8933 89.6251 77.3293 112.121 71.9428 133.887C69.6253 143.261 67.2243 152.948 65.4184 162.438C62.9234 175.539 60.8565 190.915 64.4058 205.645C68.0908 220.948 78.0496 233.204 90.3781 237.64C94.8356 239.248 99.8777 240.041 106.694 240.219C111.131 240.344 116.309 240.219 121.079 238.507C133.899 233.882 140.12 218.756 140.6 205.822C140.924 197.147 139.39 188.368 137.907 179.881C137.041 174.902 136.133 169.755 135.611 164.64C133.899 148.105 135.339 131.601 136.738 115.639C138.283 97.8824 139.891 79.5409 137.072 61.3665C132.458 62.6088 115.578 67.0767 109.085 67.7135C94.5538 69.1541 85.1586 67.8388 81.7659 67.202H81.7555Z" fill="black"/>
<path d="M79.3752 151.184C79.2812 151.184 79.1873 151.174 79.0933 151.142C78.5192 150.986 78.1851 150.401 78.3417 149.827C82.8096 133.594 86.1919 116.902 88.3841 100.231C88.4572 99.6466 89 99.2395 89.5846 99.3126C90.1692 99.3856 90.5867 99.9285 90.5032 100.513C88.3006 117.289 84.8975 134.064 80.3982 150.401C80.2625 150.871 79.8345 151.184 79.3648 151.184H79.3752Z" fill="black"/>
<path d="M78.7178 211.804C78.269 211.804 77.8514 211.522 77.7052 211.073C72.9555 196.97 72.4544 183.681 76.1498 169.275C76.296 168.701 76.8806 168.357 77.4547 168.503C78.0289 168.649 78.3733 169.233 78.2272 169.808C74.6362 183.806 75.1164 196.699 79.7409 210.395C79.9288 210.958 79.626 211.564 79.0728 211.752C78.9579 211.793 78.8431 211.804 78.7283 211.804H78.7178Z" fill="black"/>
<path d="M11.9076 89.9175C11.7197 89.9175 11.5318 89.8653 11.3647 89.7714C10.8532 89.4686 10.6862 88.811 10.9889 88.3099C14.8514 81.7646 24.2048 67.9433 24.2987 67.8076C24.6328 67.317 25.3009 67.1917 25.7811 67.5257C26.2717 67.8598 26.397 68.5279 26.0629 69.0081C25.969 69.1438 16.6574 82.9025 12.8262 89.3956C12.6279 89.7296 12.2729 89.9175 11.9076 89.9175Z" fill="black"/>
<path d="M21.1776 98.7906C21.0001 98.7906 20.8331 98.7489 20.6661 98.6653C20.1441 98.3835 19.9562 97.7363 20.2276 97.2143C26.324 85.9088 31.982 75.6577 39.4564 64.634C39.7904 64.1434 40.4585 64.0181 40.9387 64.3522C41.4293 64.6862 41.5546 65.3543 41.2206 65.8345C33.7879 76.7955 28.391 86.5874 22.1066 98.2373C21.9083 98.5923 21.5429 98.8011 21.1671 98.8011L21.1776 98.7906Z" fill="black"/>
<path d="M34.0489 103.989C33.8819 103.989 33.7044 103.948 33.5374 103.864C33.0154 103.582 32.8275 102.935 33.099 102.413C40.3437 88.9675 48.3295 75.689 56.8269 62.9743C57.161 62.4836 57.8186 62.3479 58.3093 62.682C58.7999 63.0056 58.9356 63.6737 58.6016 64.1643C50.1355 76.8269 42.1914 90.0427 34.978 103.426C34.7796 103.781 34.4143 103.989 34.0385 103.989H34.0489Z" fill="black"/>
<path d="M47.8075 106.745C47.6092 106.745 47.4213 106.693 47.2438 106.578C46.7427 106.265 46.5861 105.607 46.8993 105.106C47.0663 104.835 64.2281 77.3906 72.642 64.7802C72.9656 64.2896 73.6442 64.1643 74.1244 64.4879C74.615 64.8115 74.7507 65.4796 74.4167 65.9703C66.0237 78.5493 48.8827 105.973 48.7053 106.244C48.5069 106.568 48.152 106.745 47.7971 106.745H47.8075Z" fill="black"/>
<path d="M64.7398 107.852C64.5205 107.852 64.3013 107.789 64.103 107.643C63.6332 107.288 63.5288 106.62 63.8733 106.15C69.2807 98.8116 74.3646 91.0971 78.9786 83.2156C79.2709 82.7041 79.9286 82.5371 80.4401 82.8294C80.9516 83.1321 81.1186 83.7897 80.8263 84.2908C76.181 92.2349 71.0554 100.012 65.5958 107.413C65.387 107.695 65.0634 107.852 64.7398 107.852Z" fill="black"/>
<path d="M196.658 86.2534C196.251 86.2534 195.854 86.0133 195.677 85.6166L184.246 59.853C184.006 59.3102 184.246 58.6838 184.789 58.4437C185.332 58.2036 185.958 58.4437 186.198 58.9866L197.629 84.7502C197.869 85.293 197.629 85.9193 197.086 86.1594C196.94 86.2221 196.794 86.2534 196.648 86.2534H196.658Z" fill="black"/>
<path d="M186.177 94.3749C185.749 94.3749 185.342 94.114 185.175 93.686C180.342 81.0547 175.363 68.8932 169.924 56.502C169.684 55.9592 169.924 55.3329 170.477 55.0928C171.02 54.8631 171.657 55.0928 171.886 55.646C177.335 68.0685 182.336 80.2613 187.18 92.9239C187.388 93.4772 187.117 94.0931 186.564 94.3019C186.438 94.3541 186.313 94.3749 186.177 94.3749Z" fill="black"/>
<path d="M172.951 99.5735C172.523 99.5735 172.126 99.3126 171.959 98.895L155.33 56.7629C155.111 56.2097 155.382 55.5938 155.935 55.3746C156.489 55.1553 157.105 55.4267 157.324 55.98L173.953 98.1121C174.172 98.6653 173.901 99.2812 173.348 99.5005C173.222 99.5527 173.087 99.5735 172.951 99.5735Z" fill="black"/>
<path d="M157.856 102.664C157.438 102.664 157.042 102.413 156.864 102.006L139.285 59.8321C139.055 59.2893 139.316 58.6629 139.859 58.4333C140.402 58.2141 141.028 58.4646 141.258 59.0074L158.837 101.181C159.067 101.724 158.806 102.35 158.263 102.58C158.127 102.632 157.992 102.664 157.856 102.664Z" fill="black"/>
</svg>
