<svg width="47" height="36" viewBox="0 0 47 36" fill="none" xmlns="http://www.w3.org/2000/svg">
<path d="M46.7493 23.8887C46.6993 18.0087 44.3893 12.3787 40.1893 7.27875C34.9193 0.658749 24.6493 -1.31125 16.8793 1.59875C6.16932 5.11875 -2.41071 19.2287 1.02929 29.4487C1.95929 32.2087 4.49929 33.8287 7.34929 34.4387C15.4293 36.1687 28.3693 35.4787 35.8493 33.8887C41.0893 32.7687 46.3193 30.7387 46.7293 24.0687V23.8787L46.7493 23.8887Z" fill="white"/>
<path d="M19.0294 35.6887C14.7594 35.6887 10.5994 35.3887 7.29938 34.6787C4.02938 33.9787 1.65937 32.0987 0.789366 29.5187C-0.700634 25.0787 -0.0706458 19.7187 2.58935 14.4187C5.69935 8.20872 11.1394 3.19872 16.7994 1.34872C25.1394 -1.78128 35.2894 0.698715 40.3894 7.10872C44.7194 12.3787 46.9494 18.0187 46.9994 23.8787V24.0887C46.5594 30.9487 41.1494 33.0187 35.9094 34.1287C31.4894 35.0687 25.1394 35.6887 19.0394 35.6887H19.0294ZM24.3994 0.508715C21.8794 0.508715 19.3494 0.938715 16.9694 1.82872C11.4294 3.64872 6.09937 8.55872 3.03937 14.6587C0.449367 19.8387 -0.180653 25.0587 1.26935 29.3787C2.07935 31.7787 4.31936 33.5387 7.40936 34.2087C15.3494 35.9187 28.3294 35.2487 35.7994 33.6587C40.8594 32.5787 46.0794 30.5987 46.4894 24.0687V23.8887C46.4494 18.1487 44.2594 12.6187 39.9994 7.43871C36.4794 3.01871 30.4894 0.518715 24.3994 0.518715V0.508715Z" fill="#141414"/>
</svg>
