<svg width="43" height="13" viewBox="0 0 43 13" fill="none" xmlns="http://www.w3.org/2000/svg">
<mask id="mask0_658_27427" style="mask-type:alpha" maskUnits="userSpaceOnUse" x="0" y="0" width="43" height="13">
<path d="M0.589999 8.1999C-0.150001 6.3299 1.73 4.4199 2.64 3.9899C6.19 2.3099 8.48 2.2999 12.4 2.6499C14.48 2.8299 16.52 3.3099 18.61 3.3999C21.35 3.5199 24.08 2.9699 26.74 2.2799C29.14 1.6599 31.54 0.929903 34.02 0.879903C42.1 0.739903 43.4 4.6299 42.53 6.0999C40.66 9.2299 36.75 10.4099 33.16 11.0699C24.66 12.6099 15.63 12.9499 7.08 11.6899C2.44 11.0099 1.3 9.9599 0.599999 8.2099L0.589999 8.1999Z" fill="#333333"/>
</mask>
<g mask="url(#mask0_658_27427)">
<path d="M20.0299 18.996L20.002 0.242569C20.0778 0.242569 20.1497 0.242569 20.2215 0.242569L20.6046 18.992C20.4131 18.992 20.2215 19 20.0259 19L20.0299 18.996ZM18.258 18.9441C18.0584 18.9322 17.8629 18.9202 17.6673 18.9042L19.1759 0.210648C19.2437 0.214638 19.3116 0.222618 19.3834 0.226608L18.262 18.9481L18.258 18.9441ZM22.3806 18.8963L20.8481 0.206657C20.9199 0.202671 20.9917 0.194687 21.0636 0.186707L22.9553 18.8444C22.7637 18.8643 22.5682 18.8803 22.3766 18.8963H22.3806ZM15.9153 18.7087C15.7237 18.6808 15.5282 18.6529 15.3366 18.6209L18.3218 0.106907C18.3937 0.118877 18.4655 0.130844 18.5373 0.138824L15.9153 18.7087ZM24.7193 18.609L21.6902 0.102917C21.754 0.0909462 21.8219 0.0789757 21.8857 0.0709953L25.3179 18.5092C25.1184 18.5451 24.9228 18.581 24.7233 18.613L24.7193 18.609ZM13.5846 18.2818C13.393 18.2379 13.2055 18.194 13.0139 18.1461L17.5117 -0.0606804C17.5795 -0.0447197 17.6513 -0.028759 17.7192 -0.0127983L13.5846 18.2778V18.2818ZM27.042 18.1302L22.5043 -0.0646667C22.5721 -0.0806274 22.64 -0.100578 22.7038 -0.116539L27.6127 17.9825C27.4211 18.0344 27.2295 18.0823 27.038 18.1302H27.042ZM11.2978 17.6633C11.1062 17.6035 10.9147 17.5396 10.7271 17.4758L16.7255 -0.292103C16.7893 -0.272152 16.8532 -0.248215 16.921 -0.228264L11.3018 17.6633H11.2978ZM29.3128 17.4638L23.2985 -0.300083C23.3623 -0.320034 23.4222 -0.343975 23.4821 -0.363926L29.8835 17.2643C29.6959 17.3321 29.5044 17.4 29.3128 17.4638ZM9.0589 16.8613C8.87532 16.7855 8.69174 16.7097 8.50815 16.6299L15.9432 -0.587372C16.0071 -0.559441 16.0709 -0.5355 16.1348 -0.507568L9.0589 16.8613ZM31.5357 16.6059L24.0608 -0.595352C24.1286 -0.62328 24.1925 -0.651211 24.2563 -0.683132L32.0665 16.3665C31.8909 16.4463 31.7113 16.5261 31.5357 16.6059ZM6.89981 15.8758C6.7282 15.788 6.5526 15.7002 6.381 15.6084L15.181 -0.95446C15.2448 -0.918549 15.3087 -0.886627 15.3765 -0.854706L6.89981 15.8758ZM33.6469 15.5845L24.823 -0.962437C24.8829 -0.994358 24.9427 -1.02628 25.0026 -1.0582L34.1737 15.3012C34.0021 15.3969 33.8265 15.4927 33.6509 15.5885L33.6469 15.5845ZM4.82853 14.7186C4.6649 14.6189 4.50526 14.5191 4.34563 14.4154L14.4586 -1.37741C14.5225 -1.33751 14.5863 -1.29362 14.6542 -1.25372L4.83252 14.7226L4.82853 14.7186ZM35.6823 14.3914L25.5454 -1.38539C25.5973 -1.41731 25.6491 -1.45322 25.701 -1.48913L36.1931 14.0563C36.0255 14.172 35.8539 14.2837 35.6823 14.3914ZM2.865 13.3979C2.70935 13.2822 2.55371 13.1665 2.39806 13.0508L13.7841 -1.85223C13.844 -1.80834 13.8999 -1.76445 13.9597 -1.72056L2.865 13.3979ZM37.6179 13.0308L26.2238 -1.8642C26.2757 -1.9041 26.3276 -1.944 26.3795 -1.98391L38.0928 12.6637C37.9372 12.7874 37.7775 12.9111 37.6179 13.0348V13.0308ZM1.02518 11.9296C0.869538 11.7939 0.717883 11.6622 0.566228 11.5226L13.1576 -2.37892C13.2055 -2.33902 13.2494 -2.29513 13.2973 -2.25523L1.02518 11.9296ZM39.4537 11.5026L26.8504 -2.3869C26.9063 -2.43877 26.9622 -2.48666 27.014 -2.53853L39.8728 11.1156C39.7331 11.2472 39.5934 11.3789 39.4497 11.5066L39.4537 11.5026ZM-0.694901 10.3176C-0.834583 10.1739 -0.974265 10.0303 -1.11395 9.88264L12.539 -2.97345C12.5829 -2.92556 12.6308 -2.87768 12.6747 -2.8298L-0.698893 10.3215L-0.694901 10.3176ZM41.1219 9.86668L27.469 -2.98941C27.5169 -3.04128 27.5688 -3.09315 27.6167 -3.14901L41.521 9.43974C41.3893 9.58338 41.2576 9.72702 41.1259 9.87067L41.1219 9.86668ZM-2.28329 8.5659C-2.407 8.41827 -2.53072 8.26665 -2.65444 8.11502L11.9803 -3.61186C12.0242 -3.556 12.072 -3.50014 12.1159 -3.44428L-2.28728 8.5699L-2.28329 8.5659ZM42.6664 8.08709L28.0197 -3.62782C28.0597 -3.67969 28.0996 -3.73156 28.1395 -3.78344L43.0376 7.60828C42.9138 7.76788 42.7901 7.92749 42.6664 8.08709ZM-3.71603 6.69854C-3.82777 6.53894 -3.93952 6.37933 -4.04727 6.21973L11.4854 -4.29816C11.5253 -4.2383 11.5652 -4.17846 11.6091 -4.1186L-3.71203 6.69854H-3.71603ZM44.0592 6.1918L28.5186 -4.31013C28.5545 -4.36599 28.5905 -4.41786 28.6264 -4.47372L44.3905 5.68905C44.2827 5.86062 44.171 6.0282 44.0592 6.19579V6.1918ZM-5.00509 4.6995C-5.10087 4.53591 -5.19266 4.37232 -5.28845 4.20872L11.0464 -5.01238C11.0823 -4.94455 11.1222 -4.87672 11.1621 -4.81288L-5.00509 4.6995ZM45.3164 4.14887L28.9417 -4.99642C28.9816 -5.06425 29.0175 -5.13209 29.0534 -5.20391L45.5878 3.65011C45.5 3.81769 45.4082 3.98129 45.3164 4.14887ZM-6.11457 2.63263C-6.20237 2.44909 -6.29017 2.26554 -6.37398 2.082L10.6792 -5.72661C10.7071 -5.67075 10.7311 -5.6109 10.759 -5.55504L-6.11457 2.63263ZM46.3899 2.03013L29.3168 -5.73858C29.3447 -5.80242 29.3767 -5.86626 29.4046 -5.93409L46.6294 1.48748C46.5496 1.66703 46.4698 1.84659 46.3899 2.02614V2.03013ZM-7.06441 0.446064C-7.13225 0.27449 -7.19611 0.0989265 -7.25996 -0.0766373L10.352 -6.52862C10.3799 -6.45281 10.4078 -6.377 10.4358 -6.30119L-7.06441 0.446064ZM47.2799 -0.14048L29.648 -6.5366C29.668 -6.59645 29.6919 -6.6563 29.7119 -6.71615L47.4835 -0.719044C47.4196 -0.523529 47.3518 -0.332005 47.2799 -0.14048ZM-7.82268 -1.78041C-7.88254 -1.97991 -7.93842 -2.18341 -7.99429 -2.38291L10.1165 -7.26679C10.1325 -7.21093 10.1484 -7.15507 10.1644 -7.0992L-7.82268 -1.78041ZM47.9983 -2.42281L29.8875 -7.30669C29.9075 -7.37851 29.9274 -7.45033 29.9434 -7.52215L48.1419 -2.98143C48.0941 -2.79389 48.0462 -2.61035 47.9983 -2.42281ZM-8.39737 -4.07072C-8.43728 -4.26624 -8.47719 -4.46175 -8.51311 -4.66125L9.92493 -8.1087C9.9369 -8.04486 9.94888 -7.97702 9.96484 -7.91318L-8.39737 -4.07072ZM48.5211 -4.7211L30.0751 -8.12466C30.087 -8.1885 30.099 -8.25633 30.111 -8.32017L48.6249 -5.31164C48.5929 -5.11214 48.557 -4.91662 48.5211 -4.7211ZM-8.78848 -6.4169C-8.81243 -6.61241 -8.83637 -6.81192 -8.85633 -7.01142L9.80121 -8.92666C9.80919 -8.85883 9.81717 -8.791 9.82516 -8.72317L-8.78848 -6.4169ZM48.8563 -7.07526L30.1908 -8.94263C30.1988 -9.01844 30.2068 -9.09425 30.2108 -9.17006L48.9042 -7.64186C48.8883 -7.45033 48.8723 -7.2628 48.8523 -7.07526H48.8563ZM-8.98404 -8.77903C-8.99202 -8.96657 -8.99601 -9.1541 -9 -9.34562L9.75332 -9.78453C9.75332 -9.70872 9.75731 -9.62892 9.7613 -9.55311L-8.98404 -8.77903ZM48.996 -9.41346L30.2427 -9.7965C30.2427 -9.86434 30.2427 -9.93616 30.2427 -10.004V-10.0798H49V-10.004C49 -9.80449 49 -9.60897 48.996 -9.41346ZM9.75731 -10.411L-8.98803 -11.1212C-8.98005 -11.3207 -8.97206 -11.5162 -8.96009 -11.7157L9.76529 -10.6185C9.7613 -10.5506 9.75731 -10.4828 9.75731 -10.411ZM30.2227 -10.6783C30.2187 -10.7461 30.2148 -10.814 30.2068 -10.8818L48.8962 -12.4739C48.9122 -12.2783 48.9282 -12.0788 48.9401 -11.8793L30.2227 -10.6743V-10.6783ZM9.82117 -11.2369L-8.80045 -13.4794C-8.77651 -13.6669 -8.75256 -13.8584 -8.72862 -14.046L9.8491 -11.4684C9.83713 -11.3925 9.82915 -11.3167 9.82117 -11.2409V-11.2369ZM30.1389 -11.5083C30.127 -11.5841 30.115 -11.6599 30.103 -11.7317L48.6089 -14.8041C48.6408 -14.6165 48.6688 -14.429 48.6967 -14.2375L30.1389 -11.5043V-11.5083ZM9.95686 -12.0788L-8.42531 -15.7976C-8.3854 -15.9931 -8.34549 -16.1886 -8.30159 -16.3841L10.0008 -12.2744C9.98479 -12.2105 9.97282 -12.1427 9.95686 -12.0788ZM29.9793 -12.3382C29.9633 -12.402 29.9474 -12.4659 29.9314 -12.5297L48.114 -17.1343C48.1619 -16.9388 48.2098 -16.7433 48.2577 -16.5477L29.9793 -12.3342V-12.3382ZM10.1524 -12.8649L-7.85461 -18.1198C-7.80272 -18.3034 -7.74685 -18.4869 -7.68699 -18.6705L10.2203 -13.0843C10.1963 -13.0125 10.1764 -12.9407 10.1564 -12.8649H10.1524ZM29.7518 -13.1681C29.7358 -13.22 29.7159 -13.2719 29.6999 -13.3277L47.4435 -19.4126C47.5114 -19.2131 47.5792 -19.0136 47.6431 -18.8101L29.7558 -13.1681H29.7518ZM10.4158 -13.6549L-7.10032 -20.3663C-7.03248 -20.5498 -6.96064 -20.7294 -6.88481 -20.9089L10.4956 -13.8584C10.4677 -13.7906 10.4398 -13.7228 10.4158 -13.6549ZM29.4844 -13.8943C29.4525 -13.9662 29.4245 -14.038 29.3926 -14.1098L46.5855 -21.6032C46.6613 -21.4316 46.7332 -21.26 46.805 -21.0845L29.4804 -13.8943H29.4844ZM10.7431 -14.417L-6.15847 -22.5488C-6.07466 -22.7204 -5.99085 -22.892 -5.90704 -23.0636L10.8428 -14.6205C10.8069 -14.5527 10.775 -14.4849 10.7431 -14.413V-14.417ZM29.1212 -14.6804C29.0933 -14.7362 29.0654 -14.7881 29.0374 -14.844L45.5479 -23.7419C45.6436 -23.5623 45.7394 -23.3788 45.8312 -23.1992L29.1212 -14.6804ZM11.1422 -15.1672L-5.05298 -24.6277C-4.94922 -24.8032 -4.84546 -24.9788 -4.7377 -25.1544L11.2379 -15.3268C11.206 -15.2749 11.1741 -15.219 11.1422 -15.1672ZM28.7182 -15.3906C28.6822 -15.4465 28.6463 -15.5063 28.6104 -15.5622L44.3426 -25.7728C44.4504 -25.6053 44.5581 -25.4377 44.6619 -25.2701L28.7182 -15.3946V-15.3906ZM11.5891 -15.8654L-3.7719 -26.6307C-3.66015 -26.7903 -3.54841 -26.9499 -3.43267 -27.1055L11.7129 -16.041C11.669 -15.9811 11.6291 -15.9253 11.5852 -15.8654H11.5891ZM28.2472 -16.0849C28.2073 -16.1368 28.1714 -16.1886 28.1315 -16.2405L42.9737 -27.708C43.0974 -27.5484 43.2172 -27.3888 43.3369 -27.2252L28.2472 -16.0889V-16.0849ZM12.092 -16.5278L-2.33118 -28.514C-2.20746 -28.6657 -2.07975 -28.8133 -1.95204 -28.9609L12.2357 -16.6914C12.1878 -16.6355 12.1439 -16.5837 12.096 -16.5278H12.092ZM27.7085 -16.7552C27.6685 -16.8031 27.6246 -16.847 27.5847 -16.8949L41.4651 -29.5116C41.6008 -29.3599 41.7405 -29.2083 41.8722 -29.0527L27.7085 -16.7592V-16.7552ZM12.6627 -17.1622L-0.762747 -30.2577C-0.631047 -30.3934 -0.495356 -30.529 -0.359664 -30.6647L12.8223 -17.3218C12.7705 -17.27 12.7146 -17.2141 12.6627 -17.1622ZM27.1497 -17.3418C27.0978 -17.3936 27.046 -17.4415 26.9941 -17.4894L39.8129 -31.1794C39.9566 -31.0477 40.0963 -30.9121 40.2359 -30.7764L27.1497 -17.3378V-17.3418ZM13.2693 -17.7328L0.957338 -31.8817C1.105 -32.0094 1.25267 -32.137 1.40033 -32.2607L13.4369 -17.8764C13.3811 -17.8286 13.3252 -17.7847 13.2693 -17.7368V-17.7328ZM26.5192 -17.9084C26.4633 -17.9523 26.4074 -18.0001 26.3515 -18.044L38.021 -32.7236C38.1726 -32.6039 38.3243 -32.4802 38.476 -32.3525L26.5152 -17.9044L26.5192 -17.9084ZM13.9318 -18.2635L2.78917 -33.354C2.94482 -33.4697 3.10445 -33.5854 3.26409 -33.6972L14.1034 -18.3912C14.0436 -18.3513 13.9877 -18.3074 13.9318 -18.2675V-18.2635ZM25.8527 -18.4151C25.7968 -18.455 25.7409 -18.4909 25.6851 -18.5308L36.1093 -34.1201C36.277 -34.0084 36.4406 -33.8967 36.6042 -33.781L25.8567 -18.4111L25.8527 -18.4151ZM14.6222 -18.7303L4.74871 -34.6787C4.91633 -34.7825 5.08794 -34.8862 5.26354 -34.99L14.7938 -18.8381C14.738 -18.8061 14.6781 -18.7702 14.6222 -18.7343V-18.7303ZM25.1423 -18.87C25.0824 -18.9019 25.0266 -18.9378 24.9667 -18.9697L34.0899 -35.357C34.2655 -35.2613 34.4371 -35.1615 34.6087 -35.0618L25.1423 -18.874V-18.87ZM15.3366 -19.1333L6.81601 -35.8438C6.98362 -35.9316 7.15523 -36.0154 7.32684 -36.0992L15.5401 -19.2371C15.4723 -19.2051 15.4045 -19.1692 15.3366 -19.1373V-19.1333ZM24.408 -19.257C24.3441 -19.2849 24.2842 -19.3169 24.2204 -19.3448L31.9708 -36.4224C32.1503 -36.3386 32.3339 -36.2548 32.5095 -36.171L24.408 -19.257ZM16.0949 -19.4845L8.95913 -36.8294C9.14271 -36.9052 9.32629 -36.977 9.50987 -37.0488L16.2865 -19.5643C16.2226 -19.5403 16.1587 -19.5124 16.0949 -19.4884V-19.4845ZM23.6457 -19.5842C23.5818 -19.6081 23.514 -19.6321 23.4501 -19.656L29.7718 -37.3122C29.9593 -37.2444 30.1429 -37.1765 30.3265 -37.1047L23.6457 -19.5802V-19.5842ZM16.8811 -19.7717L11.1821 -37.6394C11.3696 -37.6992 11.5572 -37.7551 11.7408 -37.811L17.0846 -19.8356C17.0168 -19.8156 16.9489 -19.7957 16.8811 -19.7717ZM22.8595 -19.8476C22.7916 -19.8675 22.7278 -19.8835 22.6599 -19.9034L27.5049 -38.0224C27.6965 -37.9706 27.8881 -37.9187 28.0756 -37.8628L22.8555 -19.8515L22.8595 -19.8476ZM17.6753 -19.9872L13.4768 -38.2658C13.6684 -38.3097 13.86 -38.3536 14.0555 -38.3935L17.8828 -20.0351C17.815 -20.0191 17.7471 -20.0072 17.6793 -19.9912L17.6753 -19.9872ZM22.0493 -20.0471C21.9815 -20.059 21.9176 -20.071 21.8498 -20.087L25.1902 -38.5371C25.3857 -38.5012 25.5813 -38.4653 25.7769 -38.4254L22.0453 -20.0471H22.0493ZM18.4934 -20.1428L15.8036 -38.7007C15.9951 -38.7287 16.1907 -38.7566 16.3822 -38.7805L18.7089 -20.1707C18.6371 -20.1628 18.5653 -20.1508 18.4934 -20.1428ZM21.2392 -20.1787C21.1673 -20.1867 21.0915 -20.1947 21.0197 -20.2027L22.8555 -38.8643C23.0471 -38.8444 23.2386 -38.8244 23.4342 -38.8005L21.2432 -20.1747L21.2392 -20.1787ZM19.3315 -20.2306L18.1502 -38.9441C18.3418 -38.9561 18.5373 -38.9681 18.7289 -38.9761L19.547 -20.2386C19.4752 -20.2386 19.3994 -20.2306 19.3275 -20.2266L19.3315 -20.2306ZM20.3971 -20.2426C20.3253 -20.2426 20.2494 -20.2466 20.1776 -20.2505L20.5049 -39C20.7004 -39 20.892 -38.992 21.0835 -38.984L20.3971 -20.2426Z" fill="#141414"/>
</g>
</svg>
