<svg width="43" height="13" viewBox="0 0 43 13" fill="none" xmlns="http://www.w3.org/2000/svg">
<path d="M0.420169 7.57295C-0.319831 5.70295 1.56017 3.79295 2.47017 3.36295C6.02017 1.68295 8.31017 1.67295 12.2302 2.02295C14.3102 2.20295 16.3502 2.68295 18.4402 2.77295C21.1802 2.89295 23.9102 2.34295 26.5702 1.65295C28.9702 1.03295 31.3702 0.30295 33.8502 0.25295C41.9302 0.11295 43.2302 4.00295 42.3602 5.47295C40.4902 8.60295 36.5802 9.78295 32.9902 10.4429C24.4902 11.9829 15.4602 12.323 6.91016 11.063C2.27016 10.383 1.13016 9.33295 0.430163 7.58295L0.420169 7.57295Z" fill="white"/>
<path d="M17.7301 12.073C14.0101 12.073 10.3601 11.813 6.87011 11.303C2.17011 10.613 0.9401 9.53301 0.1901 7.66301C-0.6299 5.59301 1.41011 3.58301 2.37011 3.13301C5.96011 1.43301 8.24011 1.41301 12.2601 1.76301C13.1701 1.84301 14.0801 1.98301 14.9601 2.11301C16.1001 2.28301 17.2901 2.46301 18.4601 2.51301C21.2901 2.63301 24.1201 2.02301 26.5201 1.40301C26.8601 1.31301 27.1901 1.23301 27.5301 1.14301C29.5801 0.603008 31.7001 0.0430088 33.8601 0.00300881C39.7301 -0.0869912 41.7501 1.86301 42.4301 3.04301C42.9401 3.93301 43.0001 4.91301 42.5901 5.60301C40.6001 8.93301 36.4401 10.073 33.0501 10.683C27.9301 11.613 22.7701 12.073 17.7501 12.073H17.7301ZM8.97011 2.08301C6.79011 2.08301 4.98012 2.44301 2.58012 3.58301C1.78012 3.96301 -0.0398983 5.73301 0.660102 7.47301C1.3501 9.20301 2.4601 10.143 6.9401 10.803C15.0901 12.003 24.0801 11.793 32.9401 10.183C36.2301 9.58301 40.2501 8.49301 42.1501 5.33301C42.3901 4.93301 42.4901 4.15301 41.9901 3.28301C41.4801 2.41301 39.6801 0.403009 33.8601 0.493009C31.7601 0.533009 29.6701 1.08301 27.6501 1.61301C27.3101 1.70301 26.9801 1.79301 26.6401 1.87301C24.2101 2.50301 21.3301 3.12301 18.4301 2.99301C17.2301 2.94301 16.0401 2.76301 14.8801 2.59301C14.0101 2.46301 13.1001 2.32301 12.2101 2.25301C11.0001 2.14301 9.95011 2.07301 8.98011 2.07301L8.97011 2.08301Z" fill="#141414"/>
</svg>
