<svg width="47" height="38" viewBox="0 0 47 38" fill="none" xmlns="http://www.w3.org/2000/svg">
<path d="M46.7103 28.2C46.6703 16.98 28.0103 0.26 20.0003 0.25C14.7503 0.25 1.86028 19.6 0.270278 30.36C0.100278 31.49 1.15028 33.18 1.88028 34.02C3.73028 36.18 6.71028 36.79 9.48028 37.08C18.9403 38.07 27.2403 38.19 37.8803 35.53C39.7203 35.07 41.6903 34.58 43.3003 33.53C44.9103 32.48 46.7203 30.46 46.7103 28.19V28.2Z" fill="white"/>
<path d="M20.3601 37.97C16.7501 37.97 13.1801 37.72 9.45014 37.33C6.70014 37.04 3.63014 36.44 1.69014 34.18C1.03014 33.41 -0.169857 31.61 0.0201431 30.32C1.60014 19.55 14.4802 0 19.9902 0C27.9902 0 46.9101 16.69 46.9501 28.19C46.9501 30.59 45.0601 32.68 43.4301 33.74C41.7901 34.81 39.8401 35.29 37.9601 35.77C31.5201 37.38 25.8901 37.98 20.3601 37.98V37.97ZM19.9902 0.5C14.7802 0.5 2.03014 20.05 0.510141 30.39C0.360141 31.42 1.38015 33.06 2.07015 33.85C3.89015 35.98 6.85015 36.55 9.50015 36.83C19.1301 37.84 27.2301 37.93 37.8101 35.29C39.6801 34.82 41.5801 34.35 43.1501 33.33C44.6701 32.34 46.4501 30.4 46.4401 28.2C46.4001 16.89 27.8301 0.51 19.9801 0.5H19.9902Z" fill="#141414"/>
</svg>
