<svg width="52" height="23" viewBox="0 0 52 23" fill="none" xmlns="http://www.w3.org/2000/svg">
<path d="M51.3125 8.24096C49.9725 4.12096 45.4026 1.46096 41.1526 0.63096C36.9026 -0.19904 32.5226 0.420959 28.2126 0.850959C24.0026 1.27096 19.7826 1.49096 15.5526 1.52096C11.6526 1.55096 7.53256 1.47096 4.15256 3.40096C2.21256 4.51096 0.282548 6.67096 0.202548 8.90096C0.142548 10.581 1.24254 11.921 2.07254 13.381C3.00254 15.031 3.99256 16.691 5.40256 17.961C6.68256 19.111 8.25254 19.901 9.85254 20.521C11.7025 21.231 13.6325 21.741 15.6025 22.031C18.0825 22.401 20.6026 22.421 23.1126 22.431C26.0126 22.451 28.9125 22.471 31.8125 22.501C33.8225 22.511 35.8526 22.531 37.8426 22.201C40.8926 21.691 43.7925 20.361 46.1726 18.381C49.0826 15.951 52.5525 12.061 51.3125 8.24096Z" fill="white"/>
<path d="M32.5324 16.431C31.9924 16.431 31.4824 16.401 30.9924 16.341C30.8824 16.331 30.8024 16.221 30.8124 16.111C30.8224 16.001 30.9324 15.911 31.0424 15.931C33.9924 16.311 38.0024 15.481 41.0024 13.851C41.5624 13.551 42.5924 12.721 43.6724 11.841C45.5424 10.331 47.6724 8.61099 48.6924 8.51099C48.8124 8.51099 48.9124 8.58099 48.9224 8.70099C48.9324 8.81099 48.8524 8.92099 48.7324 8.93099C47.8324 9.02099 45.6724 10.761 43.9324 12.171C42.7824 13.101 41.7924 13.901 41.1924 14.221C38.6224 15.611 35.3224 16.441 32.5324 16.441V16.431Z" fill="#141414"/>
<path d="M25.8624 14.5209C25.8624 14.5209 25.8025 14.5209 25.7725 14.5009L22.2524 12.8009C21.7724 12.5709 21.2725 12.3309 20.7725 12.1309C19.2225 11.5309 17.5324 11.3309 15.8824 11.5509C15.7724 11.5609 15.6625 11.4909 15.6525 11.3709C15.6325 11.2609 15.7225 11.1509 15.8325 11.1409C17.5525 10.9109 19.3124 11.1209 20.9224 11.7509C21.4424 11.9509 21.9525 12.2009 22.4325 12.4309L25.9524 14.1309C26.0524 14.1809 26.1025 14.3009 26.0525 14.4109C26.0125 14.4809 25.9424 14.5309 25.8624 14.5309V14.5209Z" fill="#141414"/>
<path d="M11.7924 11.7709C11.7924 11.7709 11.7824 11.7709 11.7724 11.7709C10.7424 11.6709 9.67241 11.5609 8.66241 11.2209C7.88241 10.9509 7.14242 10.5509 6.42242 10.1509C5.33242 9.55093 4.30241 8.99093 3.13241 8.87093C3.02241 8.86093 2.93241 8.76093 2.94241 8.64093C2.95241 8.53093 3.05242 8.45093 3.17242 8.45093C4.43242 8.57093 5.54243 9.19093 6.62243 9.78093C7.32243 10.1609 8.04242 10.5609 8.79242 10.8209C9.75242 11.1509 10.8024 11.2509 11.8124 11.3509C11.9224 11.3609 12.0124 11.4609 12.0024 11.5809C11.9924 11.6909 11.9024 11.7709 11.7924 11.7709Z" fill="#141414"/>
<path d="M33.0625 22.7209C32.6425 22.7209 32.2325 22.7209 31.8125 22.7209L23.1125 22.6509C20.6425 22.6309 18.0825 22.6109 15.5825 22.2409C13.6025 21.9509 11.6525 21.4409 9.79247 20.7209C7.84247 19.9709 6.41248 19.1409 5.27248 18.1209C3.84248 16.8309 2.82249 15.1209 1.90249 13.4909C1.73249 13.1909 1.55249 12.9009 1.37249 12.6009C0.672488 11.4709 -0.0475373 10.2909 0.00246272 8.89094C0.0824627 6.52094 2.10248 4.34094 4.05248 3.22094C7.30248 1.36094 11.1825 1.34094 14.9425 1.31094H15.5525C19.7625 1.27094 24.0125 1.05094 28.1925 0.630938C28.6925 0.580938 29.2025 0.530937 29.7025 0.470937C33.4825 0.0809368 37.4025 -0.329063 41.1825 0.410937C45.0225 1.16094 50.0225 3.64094 51.4925 8.16094C52.8325 12.2809 48.8125 16.4209 46.2925 18.5209C43.8825 20.5309 40.9625 21.8709 37.8625 22.3909C36.2725 22.6609 34.6425 22.7009 33.0425 22.7009L33.0625 22.7209ZM36.5425 0.420938C34.2725 0.420938 31.9925 0.660937 29.7525 0.890937C29.2425 0.940937 28.7425 1.00094 28.2325 1.05094C24.0425 1.47094 19.7725 1.69094 15.5525 1.73094H14.9425C11.2425 1.76094 7.42247 1.78094 4.26247 3.59094C2.46247 4.62094 0.502476 6.72094 0.422476 8.92094C0.372476 10.1909 1.03247 11.2609 1.73247 12.4009C1.91247 12.7009 2.10248 13.0009 2.27248 13.3009C3.17248 14.9009 4.17246 16.5709 5.56246 17.8209C6.65246 18.8109 8.05247 19.6109 9.95247 20.3409C11.7925 21.0509 13.7125 21.5509 15.6525 21.8409C18.1225 22.2109 20.6725 22.2209 23.1325 22.2409L31.8325 22.3109C33.8125 22.3309 35.8525 22.3409 37.8225 22.0109C40.8525 21.5109 43.6925 20.2009 46.0525 18.2309C48.4925 16.2009 52.3925 12.2009 51.1225 8.31094C49.7025 3.96094 44.8525 1.57094 41.1225 0.840938C39.6225 0.550938 38.0925 0.440937 36.5525 0.440937L36.5425 0.420938Z" fill="#141414"/>
</svg>
