<svg width="75" height="76" viewBox="0 0 75 76" fill="none" xmlns="http://www.w3.org/2000/svg">
<mask id="mask0_738_3936" style="mask-type:luminance" maskUnits="userSpaceOnUse" x="0" y="0" width="75" height="76">
<path d="M75 0.9375H0V75.9375H75V0.9375Z" fill="white"/>
</mask>
<g mask="url(#mask0_738_3936)">
<path d="M-188.724 337.206C-78.1634 225.337 38.0161 109.152 149.774 -1.55842L172.483 -24.0005L150.041 -1.29143C39.3249 110.471 -76.8499 226.643 -188.724 337.206Z" fill="#222222"/>
<path d="M-182.312 343.399C-75.7224 227.74 36.333 107.572 144.157 -6.97243L166.07 -30.1917L144.433 -6.71259C37.6846 108.842 -74.3636 228.998 -182.312 343.399Z" fill="#222222"/>
<path d="M-175.687 349.364C-73.2001 230.054 34.5952 106.049 138.355 -12.1883L159.443 -36.1584L138.641 -11.938C35.9922 107.274 -71.796 231.265 -175.687 349.364Z" fill="#222222"/>
<path d="M-168.856 355.095C-70.5943 232.281 32.8051 104.59 132.376 -17.1967L152.615 -41.8892L132.672 -16.9583C34.2426 105.765 -69.1521 233.442 -168.856 355.095Z" fill="#222222"/>
<path d="M-161.831 360.585C-67.9172 234.417 30.9648 103.193 126.226 -21.9932L145.59 -47.377L126.528 -21.7643C32.4428 104.318 -66.4344 235.526 -161.831 360.585Z" fill="#222222"/>
<path d="M-154.62 365.825C-65.1641 236.455 29.0764 101.862 119.91 -26.5752L138.378 -52.6194L120.22 -26.3583C30.5925 102.933 -63.6432 237.514 -154.62 365.825Z" fill="#222222"/>
<path d="M-147.228 370.81C-62.3439 238.398 27.1431 100.597 113.438 -30.9305L130.986 -57.604L113.757 -30.7255C28.6974 101.615 -60.7872 239.402 -147.228 370.81Z" fill="#222222"/>
<path d="M-139.668 375.535C-59.4544 240.241 25.167 99.3999 106.821 -35.0594L123.427 -62.3289L107.145 -34.8639C26.7547 100.363 -57.8643 241.19 -139.668 375.535Z" fill="#222222"/>
<path d="M-131.947 379.992C-56.5058 241.981 23.15 98.2723 100.062 -38.9524L115.705 -66.7844L100.393 -38.7688C24.771 99.1805 -54.8823 242.873 -131.947 379.992Z" fill="#222222"/>
<path d="M-124.075 384.176C-53.495 243.617 21.095 97.2163 93.1699 -42.6092L107.833 -70.9705L93.5085 -42.4375C22.7471 98.0674 -51.8429 244.453 -124.075 384.176Z" fill="#222222"/>
<path d="M-116.062 388.086C-50.4312 245.147 19.0047 96.2341 86.1569 -46.0229L99.8214 -74.8777L86.5002 -45.8632C20.6854 97.0256 -48.7506 245.924 -116.062 388.086Z" fill="#222222"/>
<path d="M-107.863 391.736C-107.863 391.736 -107.862 391.735 -107.862 391.735C-47.2943 246.579 16.8659 95.3184 78.9761 -49.2103L91.6179 -78.5276L79.3241 -49.0625C18.5706 96.0499 -45.5896 247.299 -107.864 391.734C-107.864 391.735 -107.864 391.736 -107.863 391.736V391.736Z" fill="#222222"/>
<path d="M-99.5947 395.073C-44.1308 247.893 14.7134 94.4842 71.7412 -52.1259L83.3532 -81.8674L72.0964 -51.99C16.4442 95.1565 -42.3977 248.549 -99.5947 395.073Z" fill="#222222"/>
<path d="M-91.2162 398.12C-91.2157 398.12 -91.2153 398.119 -91.2151 398.119C-40.922 249.092 12.5322 93.7235 64.4082 -54.7863L74.9737 -84.9141L64.7658 -54.6623C14.2844 94.3359 -39.1697 249.69 -91.2173 398.118C-91.2175 398.119 -91.217 398.12 -91.2162 398.12V398.12Z" fill="#222222"/>
<path d="M-82.7338 400.873C-82.7346 400.873 -82.7351 400.872 -82.7349 400.872C-37.6721 250.181 10.3252 93.0415 56.9876 -57.1868L66.497 -87.665L57.3524 -57.0772C12.1012 93.5924 -35.8986 250.718 -82.7327 400.872C-82.7329 400.873 -82.7333 400.873 -82.7338 400.873V400.873Z" fill="#222222"/>
<path d="M-74.1649 403.329C-74.1653 403.329 -74.1654 403.328 -74.1653 403.328C-34.3899 251.156 8.09591 92.4363 49.4876 -59.3299L57.9266 -90.1204L49.8547 -59.2297C9.88874 92.9269 -32.5969 251.63 -74.1625 403.329C-74.1628 403.33 -74.1641 403.33 -74.1649 403.329V403.329Z" fill="#222222"/>
<path d="M-65.5166 405.484C-31.0763 252.017 5.84555 91.9098 41.914 -61.2084L49.2731 -92.2754L42.2835 -61.1225C7.65256 92.3365 -29.2693 252.428 -65.5166 405.484Z" fill="#222222"/>
<path d="M-56.795 407.333C-56.7944 407.333 -56.7939 407.333 -56.7938 407.332C-27.7293 252.758 3.5808 91.461 34.283 -62.8225L40.5527 -94.1279L34.6549 -62.751C5.39976 91.8232 -25.9103 253.103 -56.7961 407.332C-56.7962 407.333 -56.7957 407.333 -56.795 407.333V407.333Z" fill="#222222"/>
<path d="M-48.0142 408.881C-24.3611 253.386 1.29926 91.0943 26.5996 -64.1694L31.7727 -95.675L26.9739 -64.1098C3.13249 91.3899 -22.5326 253.667 -48.0142 408.881Z" fill="#222222"/>
<path d="M-39.1865 410.118C-20.9759 253.891 -0.994006 90.8036 18.8734 -65.2467L22.9451 -96.9121L19.2501 -65.199C0.848739 91.0396 -19.1355 254.113 -39.1865 410.12V410.118Z" fill="#222222"/>
<path d="M-30.3208 411.048C-17.5741 254.28 -3.29447 90.5938 11.1138 -66.0549L14.077 -97.8442L11.4905 -66.0215C-1.44696 90.7631 -15.7289 254.435 -30.3208 411.048Z" fill="#222222"/>
<path d="M-21.4255 411.667C-21.4262 411.667 -21.4267 411.667 -21.4267 411.666C-14.1582 254.551 -5.60238 90.467 3.33246 -66.5889L5.18475 -98.4617L3.7115 -66.5698C-3.74534 90.572 -12.3059 254.641 -21.4243 411.666C-21.4244 411.667 -21.4249 411.667 -21.4255 411.667V411.667Z" fill="#222222"/>
</g>
</svg>
