<svg width="75" height="75" viewBox="0 0 75 75" fill="none" xmlns="http://www.w3.org/2000/svg">
<mask id="mask0_738_3937" style="mask-type:luminance" maskUnits="userSpaceOnUse" x="0" y="0" width="75" height="75">
<path d="M75 0H0V75H75V0Z" fill="white"/>
</mask>
<g mask="url(#mask0_738_3937)">
<path d="M-188.724 336.269C-78.1634 224.399 38.0161 108.215 149.774 -2.49592L172.483 -24.938L150.041 -2.22893C39.3249 109.533 -76.8499 225.706 -188.724 336.269Z" fill="#222222"/>
<path d="M-182.312 342.462C-75.7224 226.802 36.333 106.634 144.157 -7.90993L166.07 -31.1292L144.433 -7.65009C37.6846 107.905 -74.3636 228.061 -182.312 342.462Z" fill="#222222"/>
<path d="M-175.687 348.427C-73.2001 229.117 34.5952 105.111 138.355 -13.1258L159.443 -37.0959L138.641 -12.8755C35.9922 106.336 -71.796 230.328 -175.687 348.427Z" fill="#222222"/>
<path d="M-154.62 364.887C-65.1641 235.518 29.0764 100.925 119.91 -27.5127L138.378 -53.5569L120.22 -27.2958C30.5925 101.995 -63.6432 236.576 -154.62 364.887Z" fill="#222222"/>
<path d="M-131.947 379.055C-56.5058 241.044 23.15 97.3348 100.062 -39.8899L115.705 -67.7219L100.393 -39.7063C24.771 98.243 -54.8823 241.935 -131.947 379.055Z" fill="#222222"/>
<path d="M-107.863 390.798C-107.863 390.798 -107.862 390.798 -107.862 390.797C-47.2943 245.642 16.8659 94.3809 78.9761 -50.1478L91.6179 -79.4651L79.3241 -50C18.5706 95.1124 -45.5896 246.361 -107.864 390.797C-107.864 390.797 -107.864 390.798 -107.863 390.798V390.798Z" fill="#222222"/>
<path d="M-82.7338 399.936C-82.7346 399.936 -82.7351 399.935 -82.7349 399.934C-37.6721 249.243 10.3252 92.104 56.9876 -58.1243L66.497 -88.6025L57.3524 -58.0147C12.1012 92.6549 -35.8986 249.78 -82.7327 399.935C-82.7329 399.935 -82.7333 399.936 -82.7338 399.936V399.936Z" fill="#222222"/>
<path d="M-56.795 406.396C-56.7944 406.396 -56.7939 406.395 -56.7938 406.395C-27.7293 251.82 3.5808 90.5235 34.283 -63.76L40.5527 -95.0654L34.6549 -63.6885C5.39976 90.8857 -25.9103 252.166 -56.7961 406.394C-56.7962 406.395 -56.7957 406.396 -56.795 406.396V406.396Z" fill="#222222"/>
<path d="M-30.3208 410.11C-17.5741 253.342 -3.29447 89.6563 11.1138 -66.9924L14.077 -98.7817L11.4905 -66.959C-1.44696 89.8256 -15.7289 253.497 -30.3208 410.11Z" fill="#222222"/>
<path d="M-21.4255 410.73C-21.4262 410.73 -21.4267 410.729 -21.4267 410.729C-14.1582 253.613 -5.60238 89.5295 3.33246 -67.5264L5.18475 -99.3992L3.7115 -67.5073C-3.74534 89.6345 -12.3059 253.704 -21.4243 410.729C-21.4244 410.729 -21.4249 410.73 -21.4255 410.73V410.73Z" fill="#222222"/>
</g>
</svg>
