<svg width="55" height="30" viewBox="0 0 55 30" fill="none" xmlns="http://www.w3.org/2000/svg">
<path d="M7.94685 0.0930176C7.42016 4.98816 2.33913 11.2775 0.851999 15.9557C0.759053 16.2346 0.666107 16.5444 0.728071 16.8232C0.790035 17.164 1.06887 17.4119 1.28575 17.6288C2.52502 18.8061 3.73331 19.9834 4.97259 21.1607C4.32197 16.1107 5.65419 10.8437 8.59747 6.69216C6.45972 10.2241 5.31339 14.2827 4.7867 18.3723C4.66277 19.4257 4.56983 20.5411 4.84866 21.5635C5.68517 24.5687 9.09318 25.87 12.0984 26.7375C11.7266 21.0678 12.7181 15.3361 14.9488 10.1312C12.749 14.9024 11.8506 20.2622 12.4082 25.4672C12.5012 26.2417 12.6251 27.0163 13.0589 27.6669C14.0813 29.154 16.25 29.1231 18.047 28.9681C17.7062 28.0387 18.6666 27.1712 19.0074 26.2417C19.2243 25.6531 19.1933 25.0025 19.1933 24.3518C19.0694 20.0144 19.5031 15.6459 20.4945 11.4324C19.4721 16.1107 18.9454 20.8819 18.9454 25.6841C21.424 25.87 23.9025 25.6221 26.3191 25.0334C25.9783 20.727 26.1952 16.3585 26.9388 12.083C26.443 16.2346 26.0713 20.4171 25.7924 24.5997C27.7133 24.4138 29.6342 24.4448 31.5241 24.6617C31.1523 20.3862 30.9354 16.0797 30.9044 11.8042C30.7185 16.1107 30.6876 20.4171 30.8425 24.7546C32.4845 24.3209 34.1885 24.166 35.8925 24.2279C36.2953 19.8285 36.3882 15.3981 36.1714 10.9677C35.7376 14.9024 35.5207 18.868 35.5517 22.8027C37.6895 21.6874 40.199 21.3156 42.5846 21.6874C42.4917 17.8766 41.934 14.0659 40.9116 10.379C41.1904 13.787 41.7481 17.195 42.6466 20.4791C44.9392 20.8199 47.2319 21.2537 49.4626 21.8423C49.6175 16.8852 48.5951 11.8971 46.4883 7.43573C48.688 11.2775 50.0513 15.6149 50.3921 20.0454C50.7329 18.8061 52.6227 19.1159 53.6451 18.3723C54.8534 17.5048 54.4197 15.6149 53.862 14.2208C52.5608 10.9986 50.1442 6.16547 50.7019 2.72648" fill="#333333"/>
<path d="M16.5905 29.8356C14.9794 29.8356 13.3683 29.4948 12.4389 28.1316C12.315 27.9457 12.191 27.7598 12.1291 27.5429C12.0671 27.5429 12.0051 27.5429 11.9432 27.5119C8.59712 26.5205 5.09617 25.0953 4.16671 21.7803C4.13573 21.6254 4.10475 21.4705 4.07377 21.3465L0.820668 18.2174C0.541831 17.9695 0.139066 17.5667 0.0461206 17.0091C-0.077807 16.5134 0.0771025 16.0486 0.170048 15.7388C0.820668 13.694 2.05994 11.4323 3.39217 9.04671C5.06519 5.91754 6.89312 2.69543 7.17196 0L8.72105 0.154909C8.41123 3.16015 6.52134 6.53718 4.69341 9.79028C3.39217 12.1139 2.18387 14.2827 1.59522 16.1726C1.56423 16.2965 1.47129 16.5443 1.50227 16.6373C1.50227 16.7612 1.71914 16.9471 1.84307 17.071L3.94984 19.0848C3.94984 18.806 4.0118 18.5272 4.04279 18.2483C4.04279 18.1864 4.04279 18.0934 4.04279 18.0315C4.16671 13.8179 5.52992 9.63537 7.9465 6.22736C8.19436 5.88656 8.65909 5.79362 8.99989 6.04147C9.34069 6.25834 9.46462 6.72307 9.24774 7.09485C7.38883 10.193 6.14955 13.9109 5.59188 18.1864C5.59188 19.1468 5.59188 20.1073 5.74679 21.0677C5.74679 21.2226 5.74679 21.3775 5.65384 21.5324C6.36643 23.6702 8.75203 24.8475 11.2616 25.684C11.1686 23.2054 11.3235 20.7269 11.7573 18.3103C12.16 15.398 12.9966 12.5167 14.2668 9.82126C14.4527 9.44948 14.8864 9.26359 15.2892 9.44948C15.661 9.63537 15.8469 10.0691 15.692 10.4719C14.5766 13.0434 13.7711 15.7698 13.3064 18.5582C12.9966 20.8198 12.9656 23.1435 13.1824 25.4361C13.2444 26.0558 13.3374 26.7684 13.6782 27.2641C14.3288 28.2245 15.8159 28.3794 17.1791 28.2865C17.2721 27.7288 17.5819 27.2021 17.8297 26.7684C17.9537 26.5515 18.1086 26.3036 18.2015 26.0558C18.1395 25.9318 18.1086 25.8079 18.1086 25.684C18.1086 22.8646 18.2945 20.0453 18.6353 17.2259C18.8521 15.2121 19.1929 13.2293 19.6577 11.2464C19.7506 10.8437 20.1534 10.5648 20.5871 10.6578C20.9899 10.7507 21.2687 11.1535 21.1758 11.5872C20.742 13.5391 20.4012 15.4909 20.1534 17.4738C19.9055 19.7665 19.8126 22.0591 19.8745 24.3518C19.8745 24.5686 19.8745 24.7545 19.8745 24.9714C21.5476 25.0334 23.2516 24.8785 24.8936 24.5377C25.0175 22.8027 25.1415 21.0677 25.2964 19.3017C25.3893 16.8232 25.6372 14.3756 26.0399 11.928C26.1019 11.5253 26.5047 11.2464 26.9074 11.3084C27.3102 11.3704 27.62 11.7421 27.558 12.1759C27.2792 14.5615 27.0314 16.9781 26.8145 19.3947C26.7835 20.8508 26.8145 22.276 26.8764 23.7321C27.8679 23.6702 28.8903 23.7012 29.8817 23.7321C29.7887 19.7665 29.8197 15.7388 29.9746 11.7421C29.9746 11.3084 30.3154 10.9676 30.7492 10.9986C31.1829 10.9986 31.4927 11.3394 31.5237 11.7731C31.5547 15.7078 31.7406 19.7045 32.0814 23.6392C33.0109 23.4843 33.9713 23.4223 34.9317 23.4223C34.7458 23.2674 34.6219 23.0505 34.6219 22.8027C34.5909 18.837 34.7768 14.8093 35.2416 10.8746C35.3035 10.4719 35.7063 10.224 36.0471 10.193C36.4498 10.193 36.7907 10.5338 36.7907 10.9366C36.9765 14.4376 36.9456 17.9385 36.7287 21.4395C38.3088 20.9128 39.9818 20.7269 41.6238 20.8508C41.6238 20.603 41.6238 20.3861 41.5928 20.1382C40.7873 16.9781 40.2296 13.725 39.9818 10.4719C39.9508 10.0691 40.2296 9.72832 40.6324 9.63537C41.0352 9.54242 41.407 9.82126 41.4999 10.193C42.3674 13.3222 42.9251 16.5753 43.111 19.8284C44.9389 20.1073 46.7358 20.4481 48.5328 20.9128C48.5328 16.3894 47.5414 11.897 45.6205 7.80744C45.4346 7.43566 45.6205 6.97093 45.9613 6.78504C46.3331 6.59914 46.7978 6.72307 46.9837 7.09485C48.9975 10.5958 50.2988 14.4995 50.8255 18.5272C51.1353 18.4032 51.4761 18.3103 51.8169 18.2483C52.2816 18.1244 52.7463 18.0315 53.0252 17.8146C53.8617 17.195 53.366 15.5219 52.9942 14.5925C52.7773 14.0658 52.5295 13.4771 52.2816 12.8575C50.9494 9.69733 49.2764 5.76263 49.7721 2.66444L51.2902 2.9123C50.8564 5.54576 52.4365 9.26359 53.6758 12.2379C53.9236 12.8575 54.1715 13.4461 54.3884 14.0038C55.5967 17.0091 54.7911 18.4032 53.8927 19.0539C53.366 19.4566 52.7153 19.6115 52.1267 19.7355C51.4141 19.8904 51.0113 20.0143 50.9184 20.2931C50.8255 20.6649 50.4537 20.8818 50.1129 20.8508H50.0509C50.0509 21.1916 50.0509 21.5634 50.0509 21.9042C50.0509 22.1521 49.927 22.3689 49.7411 22.4929C49.5552 22.6478 49.3073 22.6788 49.0905 22.6168C47.1386 22.1211 45.1558 21.6873 43.1729 21.3775V21.6563C43.1729 21.8732 43.08 22.1211 42.9251 22.245C42.7392 22.3999 42.5223 22.4619 42.3054 22.4309C40.3846 22.1211 38.4017 22.3379 36.6048 23.0815C36.5738 23.4843 36.5428 23.887 36.5118 24.2588C36.4808 24.6616 36.14 24.9714 35.7063 24.9714C34.436 24.9094 33.1658 25.0024 31.8955 25.2502C31.7406 25.3742 31.5237 25.4671 31.3069 25.4361C31.2449 25.4361 31.2139 25.4361 31.1519 25.4361C31.059 25.4361 30.9661 25.4671 30.8731 25.4981C30.6562 25.5601 30.4084 25.4981 30.2225 25.3742C30.2225 25.3742 30.2225 25.3742 30.1915 25.3432C29.1071 25.2502 28.0228 25.2502 26.9384 25.3122C26.8455 25.5601 26.6596 25.746 26.3807 25.8079C24.181 26.3656 21.8884 26.6135 19.6267 26.5205C19.5028 26.8613 19.2859 27.2021 19.1 27.5429C18.7592 28.1006 18.5733 28.4414 18.6662 28.7202C18.7592 28.9371 18.7282 29.1849 18.6043 29.4018C18.4804 29.6187 18.2635 29.7426 18.0156 29.7736C17.5199 29.8356 16.9932 29.8666 16.4665 29.8666L16.5905 29.8356Z" fill="#141414"/>
</svg>
