<svg width="75" height="75" viewBox="0 0 75 75" fill="none" xmlns="http://www.w3.org/2000/svg">
<mask id="mask0_736_3557" style="mask-type:alpha" maskUnits="userSpaceOnUse" x="0" y="0" width="75" height="75">
<rect width="75" height="75" rx="20" fill="#F4F4F4"/>
</mask>
<g mask="url(#mask0_736_3557)">
<path d="M59.0181 22.1878C72.284 24.4152 69.7611 34.5521 58.5787 37.075C49.957 39.3857 39.6534 39.2721 31.8499 42.2117C27.8118 43.6663 23.857 46.1134 19.8189 47.6211C16.6293 48.803 12.8715 48.8863 13.5837 45.0149C20.3113 31.2186 43.6915 20.8392 58.4423 22.1045L59.0181 22.1878Z" fill="#CDCDCD"/>
<path d="M10.0607 53.5912C11.1988 53.5912 12.1214 52.6686 12.1214 51.5305C12.1214 50.3923 11.1988 49.4697 10.0607 49.4697C8.92262 49.4697 8 50.3923 8 51.5305C8 52.6686 8.92262 53.5912 10.0607 53.5912Z" fill="#CDCDCD"/>
</g>
</svg>
